<svg viewBox="0 0 330 200" xmlns="http://www.w3.org/2000/svg"><g><g><g><g><g><line x1="61.953125" y1="177" x2="56.953125" y2="177" style="visibility: inherit;" fill="rgb(0, 0, 0)" stroke="rgb(204, 204, 204)" stroke-width="1px"></line><line x1="61.953125" y1="157.33333333333331" x2="56.953125" y2="157.33333333333331" style="visibility: inherit;" fill="rgb(0, 0, 0)" stroke="rgb(204, 204, 204)" stroke-width="1px"></line><line x1="61.953125" y1="137.66666666666666" x2="56.953125" y2="137.66666666666666" style="visibility: inherit;" fill="rgb(0, 0, 0)" stroke="rgb(204, 204, 204)" stroke-width="1px"></line><line x1="61.953125" y1="118.00000000000001" x2="56.953125" y2="118.00000000000001" style="visibility: inherit;" fill="rgb(0, 0, 0)" stroke="rgb(204, 204, 204)" stroke-width="1px"></line><line x1="61.953125" y1="98.33333333333336" x2="56.953125" y2="98.33333333333336" style="visibility: inherit;" fill="rgb(0, 0, 0)" stroke="rgb(204, 204, 204)" stroke-width="1px"></line><line x1="61.953125" y1="78.66666666666669" x2="56.953125" y2="78.66666666666669" style="visibility: inherit;" fill="rgb(0, 0, 0)" stroke="rgb(204, 204, 204)" stroke-width="1px"></line><line x1="61.953125" y1="59.00000000000003" x2="56.953125" y2="59.00000000000003" style="visibility: inherit;" fill="rgb(0, 0, 0)" stroke="rgb(204, 204, 204)" stroke-width="1px"></line><line x1="61.953125" y1="39.33333333333335" x2="56.953125" y2="39.33333333333335" style="visibility: inherit;" fill="rgb(0, 0, 0)" stroke="rgb(204, 204, 204)" stroke-width="1px"></line><line x1="61.953125" y1="19.666666666666675" x2="56.953125" y2="19.666666666666675" style="visibility: inherit;" fill="rgb(0, 0, 0)" stroke="rgb(204, 204, 204)" stroke-width="1px"></line><line x1="61.953125" y1="0" x2="56.953125" y2="0" style="visibility: inherit;" fill="rgb(0, 0, 0)" stroke="rgb(204, 204, 204)" stroke-width="1px"></line></g><g transform="translate(51.953125, 0)"><text x="0" y="177" dx="0em" dy="0.3em" style="text-anchor: end; visibility: hidden; font-family: Roboto, sans-serif; font-size: 12px; font-weight: 200;" fill="rgb(33, 33, 33)" stroke="none" stroke-width="1px">0.01</text><text x="0" y="157.33333333333331" dx="0em" dy="0.3em" style="text-anchor: end; visibility: inherit; font-family: Roboto, sans-serif; font-size: 12px; font-weight: 200;" fill="rgb(33, 33, 33)" stroke="none" stroke-width="1px">0.012</text><text x="0" y="137.66666666666666" dx="0em" dy="0.3em" style="text-anchor: end; visibility: hidden; font-family: Roboto, sans-serif; font-size: 12px; font-weight: 200;" fill="rgb(33, 33, 33)" stroke="none" stroke-width="1px">0.014</text><text x="0" y="118.00000000000001" dx="0em" dy="0.3em" style="text-anchor: end; visibility: inherit; font-family: Roboto, sans-serif; font-size: 12px; font-weight: 200;" fill="rgb(33, 33, 33)" stroke="none" stroke-width="1px">0.016</text><text x="0" y="98.33333333333336" dx="0em" dy="0.3em" style="text-anchor: end; visibility: hidden; font-family: Roboto, sans-serif; font-size: 12px; font-weight: 200;" fill="rgb(33, 33, 33)" stroke="none" stroke-width="1px">0.018</text><text x="0" y="78.66666666666669" dx="0em" dy="0.3em" style="text-anchor: end; visibility: inherit; font-family: Roboto, sans-serif; font-size: 12px; font-weight: 200;" fill="rgb(33, 33, 33)" stroke="none" stroke-width="1px">0.02</text><text x="0" y="59.00000000000003" dx="0em" dy="0.3em" style="text-anchor: end; visibility: hidden; font-family: Roboto, sans-serif; font-size: 12px; font-weight: 200;" fill="rgb(33, 33, 33)" stroke="none" stroke-width="1px">0.022</text><text x="0" y="39.33333333333335" dx="0em" dy="0.3em" style="text-anchor: end; visibility: inherit; font-family: Roboto, sans-serif; font-size: 12px; font-weight: 200;" fill="rgb(33, 33, 33)" stroke="none" stroke-width="1px">0.024</text><text x="0" y="19.666666666666675" dx="0em" dy="0.3em" style="text-anchor: end; visibility: hidden; font-family: Roboto, sans-serif; font-size: 12px; font-weight: 200;" fill="rgb(33, 33, 33)" stroke="none" stroke-width="1px">0.026</text><text x="0" y="0" dx="0em" dy="0.3em" style="text-anchor: end; visibility: hidden; font-family: Roboto, sans-serif; font-size: 12px; font-weight: 200;" fill="rgb(33, 33, 33)" stroke="none" stroke-width="1px">0.028</text></g><line x1="61.953125" y1="0" x2="61.953125" y2="177" fill="rgb(0, 0, 0)" stroke="rgb(204, 204, 204)" stroke-width="1px"></line></g></g><g transform="translate(61, 0)" clip-path="url(#clip_0)"><clipPath id="clip_0"><rect width="268" height="177"></rect></clipPath><g><g><g><line x1="0" y1="0" x2="0" y2="177" fill="rgb(0, 0, 0)" stroke="rgb(66, 66, 66)" stroke-width="1px" opacity="0.25"></line><line x1="29.78298611111111" y1="0" x2="29.78298611111111" y2="177" fill="rgb(0, 0, 0)" stroke="rgb(66, 66, 66)" stroke-width="1px" opacity="0.25"></line><line x1="59.56597222222222" y1="0" x2="59.56597222222222" y2="177" fill="rgb(0, 0, 0)" stroke="rgb(66, 66, 66)" stroke-width="1px" opacity="0.25"></line><line x1="89.34895833333333" y1="0" x2="89.34895833333333" y2="177" fill="rgb(0, 0, 0)" stroke="rgb(66, 66, 66)" stroke-width="1px" opacity="0.25"></line><line x1="119.13194444444444" y1="0" x2="119.13194444444444" y2="177" fill="rgb(0, 0, 0)" stroke="rgb(66, 66, 66)" stroke-width="1px" opacity="0.25"></line><line x1="148.91493055555557" y1="0" x2="148.91493055555557" y2="177" fill="rgb(0, 0, 0)" stroke="rgb(66, 66, 66)" stroke-width="1px" opacity="0.25"></line><line x1="178.69791666666666" y1="0" x2="178.69791666666666" y2="177" fill="rgb(0, 0, 0)" stroke="rgb(66, 66, 66)" stroke-width="1px" opacity="0.25"></line><line x1="208.48090277777777" y1="0" x2="208.48090277777777" y2="177" fill="rgb(0, 0, 0)" stroke="rgb(66, 66, 66)" stroke-width="1px" opacity="0.25"></line><line x1="238.26388888888889" y1="0" x2="238.26388888888889" y2="177" fill="rgb(0, 0, 0)" stroke="rgb(66, 66, 66)" stroke-width="1px" opacity="0.25"></line><line x1="268.046875" y1="0" x2="268.046875" y2="177" fill="rgb(0, 0, 0)" stroke="rgb(66, 66, 66)" stroke-width="1px" opacity="0.25"></line></g><g><line x1="0" y1="177" x2="268.046875" y2="177" fill="rgb(0, 0, 0)" stroke="rgb(66, 66, 66)" stroke-width="1px" opacity="0.25"></line><line x1="0" y1="157.33333333333331" x2="268.046875" y2="157.33333333333331" fill="rgb(0, 0, 0)" stroke="rgb(66, 66, 66)" stroke-width="1px" opacity="0.25"></line><line x1="0" y1="137.66666666666666" x2="268.046875" y2="137.66666666666666" fill="rgb(0, 0, 0)" stroke="rgb(66, 66, 66)" stroke-width="1px" opacity="0.25"></line><line x1="0" y1="118.00000000000001" x2="268.046875" y2="118.00000000000001" fill="rgb(0, 0, 0)" stroke="rgb(66, 66, 66)" stroke-width="1px" opacity="0.25"></line><line x1="0" y1="98.33333333333336" x2="268.046875" y2="98.33333333333336" fill="rgb(0, 0, 0)" stroke="rgb(66, 66, 66)" stroke-width="1px" opacity="0.25"></line><line x1="0" y1="78.66666666666669" x2="268.046875" y2="78.66666666666669" fill="rgb(0, 0, 0)" stroke="rgb(66, 66, 66)" stroke-width="1px" opacity="0.25"></line><line x1="0" y1="59.00000000000003" x2="268.046875" y2="59.00000000000003" fill="rgb(0, 0, 0)" stroke="rgb(66, 66, 66)" stroke-width="1px" opacity="0.25"></line><line x1="0" y1="39.33333333333335" x2="268.046875" y2="39.33333333333335" fill="rgb(0, 0, 0)" stroke="rgb(66, 66, 66)" stroke-width="1px" opacity="0.25"></line><line x1="0" y1="19.666666666666675" x2="268.046875" y2="19.666666666666675" fill="rgb(0, 0, 0)" stroke="rgb(66, 66, 66)" stroke-width="1px" opacity="0.25"></line><line x1="0" y1="0" x2="268.046875" y2="0" fill="rgb(0, 0, 0)" stroke="rgb(66, 66, 66)" stroke-width="1px" opacity="0.25"></line></g></g></g><g><g><line x1="0" y1="275.3333333333333" x2="268.046875" y2="275.3333333333333" fill="rgb(0, 0, 0)" stroke="rgb(153, 153, 153)" stroke-width="1.5px"></line></g></g><g><g><line x1="29.78298611111111" y1="0" x2="29.78298611111111" y2="177" fill="rgb(0, 0, 0)" stroke="rgb(153, 153, 153)" stroke-width="1.5px"></line></g></g><g><g><g><g><g><path stroke="rgb(255, 112, 67)" stroke-width="2px" d="M30.392941666666665,166.717998256286L30.63692388888889,193.21793588702997L34.174666111111115,180.2560574154152L34.41864833333334,171.6080591146352L34.784621666666666,175.41230997777444L34.906612777777774,172.86772559957996L35.150595,169.99976339405313L35.27258611111111,161.9571865260965L35.394577222222225,156.19413240881872L35.51656833333333,156.65439387293412L35.760550555555554,158.26487105026254L36.00453277777778,160.5604996146018L36.12652388888889,164.4268728915121L36.49249722222222,166.05792126862653L36.61448833333333,162.79277890590623L36.73647944444445,164.6714583268655L36.858470555555556,159.828826745662L36.98046166666667,162.63854902753965L37.346435,162.77751703580228L37.46842611111111,162.5287831175418L37.712408333333336,162.32958784642312L37.95639055555556,163.93891666273498L38.078381666666665,160.74540636064145L38.20037277777777,158.35727809305993L38.32236388888889,156.81014838930727L38.68833722222222,157.52895653396314L38.81032833333333,155.9762566358123L38.932319444444445,150.92069941641628L39.05431055555555,149.80520883526887L39.29829277777778,150.87352436105522L39.542275000000004,154.73885525589583L39.66426611111111,155.7087321567236L40.27422166666667,155.08317664988624L40.39621277777778,156.30444505426615L40.51820388888889,155.2703210739588L40.640195,151.36605990053081L40.762186111111106,153.0909405509571L40.88417722222223,155.49094838947354L41.49413277777778,154.0668866774554L42.59205277777778,153.37224458103378L42.836035,154.6809320787476L42.95802611111111,153.43696774450012L43.080017222222224,152.6496692701363L43.933955,150.5176065325911L44.299928333333334,149.4898893139292L44.543910555555556,148.8748398933072L44.66590166666666,150.7418221385003L44.78789277777778,147.99500148252258L45.27585722222222,143.40395257326048L45.397848333333336,142.06234006187216L45.51983944444444,141.42729997282487L45.88581277777777,140.91518877659644L46.007803888888894,143.2281614039172L46.37377722222222,142.01152021165146L46.86174166666667,144.15698403553566L47.10572388888889,145.9596847681575L47.34970611111111,140.0635746450411L47.47169722222222,138.42518947530937L47.59368833333334,138.08852627255905L47.71567944444445,139.27779631215438L47.837670555555555,137.34979784720747L47.95966166666667,139.61328799433065L48.203643888888884,137.96632999147752L48.44762611111111,137.63910475553456L48.81359944444444,137.86734304129087L48.93559055555556,135.00458537850483L49.057581666666664,131.50120807100024L49.30156388888889,129.28837627273398L49.423555,123.5431896097983L49.545546111111115,121.74990555874619L49.78952833333333,122.15476201403344L49.911519444444444,119.8412055302567L50.15550166666667,121.23316891300273L50.27749277777778,120.07574236300735L50.521475,123.20874199543111L50.64346611111111,128.21513457378757L51.009439444444446,126.37672612791819L51.49740388888889,125.18939613093063L51.619395,125.09837351365451L51.741386111111105,123.93201978867435L51.863377222222226,125.81480619299144L52.10735944444445,122.8093895326658L52.229350555555556,126.01277291315157L52.47333277777778,125.17436313347653L52.717315000000006,125.98044810147883L52.839306111111114,124.90299516900143L52.96129722222222,122.80796277650845L53.083288333333336,124.02118707417183L53.32727055555555,123.48082120545934L53.449261666666665,119.69953294803635L54.42519055555556,118.01828054110669L54.913154999999996,123.31295407570481L55.40111944444445,122.71604460603741L55.523110555555554,122.94606443511238L55.64510166666667,116.35313154756852L56.13306611111111,114.37192712335683L56.25505722222223,115.33766981557481L56.377048333333335,111.0395193445663L56.49903944444444,111.05263339519047L56.86501277777778,106.44038807654249L56.98700388888889,107.64243899853685L57.35297722222222,105.79196100278028L57.47496833333333,108.04654446642624L57.71895055555556,111.57285884499531L57.840941666666666,115.26851895892315L57.96293277777778,115.61874447812349L58.206915,116.7322312213751L58.32890611111111,116.76053515194923L58.45089722222222,118.82247087089569L58.57288833333334,118.0535763714968L58.694879444444446,119.2319012499174L58.81687055555555,121.27583847412394L59.18284388888889,120.55794759992746L59.304835,123.2759535607227L59.548817222222226,128.12214784335774L60.03678166666666,131.20365333947848L60.15877277777778,131.76093426629083L60.402755,125.32602678231177L60.64673722222222,128.54311782060338L60.768728333333335,126.25694604364159L61.37868388888889,126.49550421038671L61.74465722222222,126.40182939384484L61.86664833333333,115.86348893721411L61.988639444444445,122.26835966120564L62.11063055555556,121.58393084012344L62.354612777777774,120.51023212542498L62.842577222222225,125.12582312755559L63.08655944444445,125.02617029955465L63.33054166666667,127.40990334271976L63.452532777777776,129.43437077886293L63.57452388888888,128.47626835645858L64.06248833333333,125.58182364904961L64.18447944444445,127.67833587862464L64.42846166666666,128.93446064699893L64.67244388888889,130.0973508462064L64.91642611111111,131.39733307381434L65.52638166666667,133.47358750776164L65.892355,133.95035741041053L66.01434611111111,136.3829005735619L66.38031944444444,139.84598217552067L66.62430166666667,140.02028848707397L66.74629277777778,141.46555035787003L66.8682838888889,142.02350895650972L67.11226611111111,144.0494233326146L67.23425722222223,138.87985060014842L67.35624833333334,140.83934331749302L67.84421277777777,139.74011983548237L67.96620388888888,143.9118803865773L68.2101861111111,140.23930665093562L68.57615944444444,142.03594572782006L69.06412388888889,142.75178948199414L69.186115,141.05789848976985L69.30810611111112,141.65183870409604L69.43009722222222,137.69646105971935L69.67407944444444,135.4857250820988L70.04005277777779,131.1543597747461L70.16204388888889,122.91050918643546L70.284035,125.5637759455177L70.65000833333333,123.44725944860953L70.77199944444445,124.65889681946764L71.01598166666666,126.39947023633378L71.74792833333333,124.9820148303103L71.99191055555556,122.34339994091034L72.11390166666666,125.17313115493603L72.23589277777778,127.96199450901263L72.35788388888889,133.8983486207226L72.47987499999999,134.7295979607227L72.72385722222222,132.36405413087545L72.84584833333334,130.4189896604985L73.4558038888889,133.3790254052034L73.57779500000001,126.83484177307346L73.82177722222222,124.33151740403106L74.06575944444444,128.6423644110982L74.18775055555555,124.89769700030097L74.30974166666667,128.92203823860714L74.55372388888888,128.93241634309652L74.675715,113.46000605969596L74.79770611111111,116.63684952580306L74.91969722222221,118.92475596490263L75.16367944444445,114.77070064651467L75.28567055555555,112.7106814243153L75.52965277777778,114.49514769586646L75.65164388888888,114.40431686384824L75.89562611111111,119.14556762894838L76.13960833333333,118.77941156047146L76.38359055555556,112.12034304726399L76.50558166666666,110.593224542673L76.62757277777779,112.47181855071756L76.871555,114.83321795001663L76.99354611111112,108.7353311878425L77.35951944444444,113.0638910668055L77.48151055555556,115.52885235290908L77.60350166666666,116.33646344293705L77.84748388888889,118.67763443580608L78.0914661111111,117.46113117547058L78.21345722222222,117.50336258765063L78.33544833333335,113.09929948426462L78.45743944444445,113.13677415050688L79.067395,114.05326734344227L79.55535944444443,118.78836170531922L79.67735055555555,117.79390374413663L79.92133277777778,115.65880534962926L80.28730611111112,113.24966781275539L81.14124388888888,109.52028625580814L81.263235,102.44603458492455L81.75119944444445,100.54501493380839L81.87319055555557,91.53324800967043L81.99518166666667,89.16336284931717L82.2391638888889,93.40027052945112L82.48314611111111,93.25957744933642L82.72712833333333,93.9892197501299L82.97111055555555,96.83174631393511L84.06903055555556,95.59542821492603L84.19102166666667,95.19780256709046L84.31301277777777,101.13770174665657L84.43500388888889,99.13250769118437L84.6789861111111,103.13171893102628L84.80097722222222,101.93564487071738L85.16695055555556,99.21603663672383L85.53292388888889,99.06919025980974L85.89889722222222,100.78717685800467L86.26487055555555,101.58966966174742L86.38686166666666,101.23123634949988L86.50885277777778,98.62270882263509L86.63084388888888,99.33590319722815L86.752835,100.0254437224182L86.99681722222223,105.11056396288232L87.11880833333333,109.90440353780276L87.24079944444445,105.7509630331486L87.48478166666666,108.65187880505285L87.60677277777778,102.10823440518786L87.72876388888889,106.16365068203928L87.9727461111111,109.69881464036726L88.21672833333332,113.79250310798507L88.33871944444444,113.06518826542133L88.8266838888889,112.77478046197439L89.31464833333334,112.68291913443635L89.80261277777777,113.07910225790724L89.92460388888888,108.14203311758463L90.16858611111111,105.69569962360157L90.29057722222223,107.16718854739335L90.53455944444445,100.74227832081316L90.77854166666667,100.40935044917711L91.144515,102.7470838696611L91.99845277777779,100.7798161534869L92.36442611111111,98.39110567535639L92.48641722222223,97.6017651952745L92.85239055555556,98.34123936916842L92.97438166666666,95.50665767023362L93.09637277777777,97.38909001252856L93.34035499999999,99.71784849209631L93.46234611111112,101.92570010996981L93.58433722222223,98.0750236090331L93.70632833333333,96.48643159448378L93.95031055555556,90.5985093441622L94.5602661111111,91.13512677945569L94.68225722222222,91.1279947022699L95.41420388888889,90.01303826057243L95.6581861111111,89.70174999726622L95.78017722222222,93.16830760044365L95.90216833333334,96.99993796638226L96.02415944444445,95.28353959734561L96.14615055555555,97.26245962331133L96.26814166666666,102.41383240412914L96.39013277777778,101.92341106403185L96.51212388888888,102.09682055175604L96.634115,102.89179825922429L96.75610611111111,100.30495778020601L97.00008833333334,102.08298590188502L97.36606166666667,103.20072416266949L97.48805277777778,106.88159398238912L97.6100438888889,107.54736538252094L97.85402611111111,107.49377960253872L97.97601722222223,108.47000974209487L98.34199055555555,105.52779603318604L98.58597277777778,109.42853301709702L98.829955,105.87786634371321L98.95194611111111,110.57949362845828L99.31791944444444,109.75834293419514L99.43991055555556,108.15678564758872L99.56190166666667,107.56049583629212L99.80588388888889,103.99212544562013L99.927875,106.95028103015866L100.0498661111111,110.93545807538564L100.29384833333334,107.26947998221361L100.53783055555556,108.35184309858748L100.65982166666667,107.80826905336858L101.025795,102.92012323025062L101.14778611111112,99.37784942023775L101.26977722222222,99.34359932391244L101.39176833333333,90.95568647098453L101.51375944444445,83.47127261654886L101.75774166666666,85.14279104383685L101.87973277777779,87.99496565490188L102.00172388888889,86.50146944402532L102.24570611111112,90.21278927670139L102.36769722222222,91.58819554887559L102.85566166666666,84.07778505016374L102.97765277777778,88.56405256068807L103.09964388888889,92.97073932186545L103.3436261111111,99.89012373324546L103.46561722222222,103.24408804384552L103.58760833333334,100.70933944885155L103.70959944444445,98.6135586166685L103.95358166666666,96.33128913461536L104.1975638888889,92.66608672474459L104.319555,92.01794837431788L104.44154611111111,87.19306371266876L104.68552833333334,85.50745413551078L104.92951055555555,85.5619950790164L105.17349277777777,89.34235597392421L105.2954838888889,82.33335789559412L105.41747500000001,87.13068650110638L105.78344833333334,89.27110915823556L106.27141277777777,91.31548287889292L106.39340388888888,90.86262159416354L106.63738611111111,91.74034242396242L106.75937722222221,96.43031576750853L107.00335944444446,89.67002942278818L107.49132388888889,93.47483018567178L107.613315,95.94896918212649L107.85729722222221,97.85465916206823L108.10127944444444,99.86442434507678L108.5892438888889,95.2772703546936L108.95521722222223,92.20839650816781L109.07720833333333,98.77742505840837L109.32119055555556,95.21679004793329L109.44318166666666,90.3839451874741L109.56517277777778,89.60080337598046L109.68716388888889,85.11620566138521L109.80915499999999,79.05345444157565L109.9311461111111,82.19428654496424L110.05313722222222,87.15051955899769L110.17512833333333,90.85719660510165L110.29711944444443,89.40341577256935L110.78508388888889,89.3985771396625L110.907075,88.57454866842333L111.15105722222222,92.17743868877594L111.39503944444444,84.84884378922506L111.76101277777778,70.16889044877841L112.00499500000001,71.05718188588781L112.12698611111112,75.43573426646205L112.24897722222222,73.06935474538572L112.61495055555555,77.7936289814717L112.73694166666667,72.4432708479653L112.85893277777778,74.27702428202247L112.98092388888888,78.60074458620056L113.102915,80.985078812498L113.34689722222221,76.03406218100216L113.46888833333333,79.30958733850119L113.71287055555557,81.06737734012573L113.95685277777778,82.40375244241535L114.0788438888889,68.9771864813218L114.200835,70.02667118147775L114.32282611111111,66.63100224235916L114.44481722222223,72.00537074695018L114.56680833333333,70.76385044858692L114.81079055555556,70.24307921722252L114.93278166666666,77.27708414455428L115.29875500000001,73.70483595364311L115.78671944444444,78.27026144931243L116.15269277777777,79.40010727479698L116.27468388888889,84.819595556843L116.396675,70.08193489062542L116.5186661111111,67.1021188620048L116.64065722222222,70.67583798553308L116.76264833333333,74.3279487250846L116.88463944444443,77.53975727198569L117.00663055555555,76.10465768537554L117.25061277777779,76.68422237556595L117.37260388888889,73.55626886720738L117.494595,75.64816319802468L117.98255944444445,78.52293305616828L118.47052388888888,78.58358988646744L118.59251499999999,77.09225541078139L118.83649722222223,74.58662371977499L118.95848833333334,74.34036359701346L119.08047944444445,71.51344266097811L119.20247055555556,69.53044063579837L119.32446166666666,63.53362228459328L119.44645277777778,57.906542411818535L119.81242611111111,62.23279522390433L119.93441722222222,56.81055548809468L120.05640833333332,57.28531404682934L120.6663638888889,54.372279705874476L120.91034611111111,59.45739074536734L121.03233722222222,59.878890580198856L121.15432833333334,61.47511738983828L121.27631944444444,59.32327367760191L121.52030166666667,66.6073201285564L121.886275,63.1546109850835L122.0082661111111,68.64057999650416L122.37423944444446,75.84434566517177L122.49623055555556,77.87899492686469L122.61822166666667,70.54618078453935L122.74021277777778,71.67577288876541L122.86220388888889,72.90757805134555L123.10618611111111,66.60074500444439L123.47215944444444,67.64654696692189L123.59415055555554,70.81675551548523L123.83813277777779,76.84785440178982L124.20410611111112,75.91841852410195L124.32609722222223,70.95116447954872L124.44808833333333,68.56572190378932L124.69207055555556,71.80268843455276L124.81406166666666,74.30508513346273L124.93605277777777,73.64125218080727L125.05804388888889,74.49183398278478L125.18003499999999,77.02969332429326L125.3020261111111,73.95821019770709L125.42401722222223,73.63581181057138L125.66799944444445,69.40422177613306L126.03397277777778,60.39968661324869L126.15596388888889,64.08510818242792L126.64392833333333,60.08427988678192L126.76591944444444,66.654036545802L127.00990166666666,68.16206175483936L127.2538838888889,73.01829060111582L127.49786611111111,76.47424648659273L127.61985722222222,66.03457273352409L127.74184833333334,72.60902617787725L127.86383944444445,76.34278477596736L127.98583055555555,77.14711710476912L128.10782166666667,82.90450288393578L128.3518038888889,83.56255952365764L128.59578611111112,83.20829946298954L128.83976833333332,80.32202269142861L129.20574166666665,83.92469974273074L129.32773277777778,76.62310561233201L129.44972388888888,80.3076098355797L129.57171499999998,83.39179396018712L129.6937061111111,81.25786906968682L129.93768833333334,67.1151415418544L130.05967944444444,68.56828926398786L130.18167055555557,70.89665329802068L130.42565277777777,76.93260026227013L130.5476438888889,66.05392400810811L130.7916261111111,68.78786762102138L131.15759944444443,68.06050261455844L131.4015816666667,74.7976933284826L131.5235727777778,78.9106805743321L131.6455638888889,84.22614557120308L132.01153722222222,75.53115355955227L132.37751055555555,76.3865936603917L132.49950166666667,74.38303042453852L132.74348388888887,54.664658196666316L132.98746611111113,63.89799969472949L133.23144833333333,64.41003638210073L133.35343944444446,63.50956459380857L133.8414038888889,55.65567130098082L134.0853861111111,47.44286601842108L134.20737722222222,50.198872834639445L134.32936833333332,57.21400433862313L134.45135944444442,58.501336119917724L134.69534166666668,66.84467013611633L134.81733277777778,69.3632720460109L134.9393238888889,66.54866082593493L135.061315,59.38203218128675L135.54927944444447,57.80289922544812L135.79326166666667,59.317083114998425L135.9152527777778,47.58688740191499L136.0372438888889,53.51101994275663L136.159235,52.707457303327516L136.28122611111112,52.69048502964841L136.76919055555555,58.17601886908174L136.89118166666665,50.63389138607738L137.01317277777778,54.3244625292027L137.13516388888888,38.709406448983636L137.6231283333333,41.22964047138737L137.74511944444444,44.51863288097656L137.86711055555554,49.846191544566L137.98910166666664,34.04904166910504L138.1110927777778,33.1309924637225L138.355075,39.600745775247724L138.47706611111113,45.51143180820988L138.59905722222223,33.61865010986148L138.72104833333333,38.34299735293721L138.96503055555556,39.01618703269347L139.3310038888889,36.047168245733786L139.57498611111112,42.837340866126254L139.69697722222222,46.30393842374337L139.94095944444445,39.9361826914904L140.06295055555555,45.20391826505609L140.18494166666667,44.351151658005506L140.42892388888887,48.22476797828228L140.550915,50.65415770887801L140.7948972222222,48.03604367249878L140.91688833333333,53.00825046085592L141.5268438888889,52.16676793412447L141.77082611111112,55.73987252529621L141.89281722222222,59.87036130594902L142.01480833333335,56.021649963182576L142.13679944444445,59.41050541862952L142.25879055555555,59.685626260359946L142.38078166666668,60.09560533868844L142.50277277777778,64.46192729283486L142.746755,58.12186309835332L142.8687461111111,57.206262889962474L142.99073722222224,64.79385464961729L143.35671055555557,65.4081889758195L143.47870166666667,71.3951670928701L143.60069277777777,72.52802572759447L143.7226838888889,74.0411689484596L143.9666661111111,77.36527278863912L144.69861277777775,68.908230810851L144.8206038888889,73.15877334018724L144.942595,77.44663652831554L145.18657722222224,74.0825534244451L145.67454166666667,73.92733005395196L146.040515,76.33908663274741L146.40648833333333,76.84783509724242L146.77246166666666,81.53306884391763L146.8944527777778,82.22461653036483L147.138435,85.03140293825632L147.26042611111112,86.10707885976329L147.38241722222222,81.94202879649652L147.50440833333332,85.94519545588629L147.74839055555555,90.07922629509508L147.87038166666665,83.65900689083904L147.99237277777777,87.18036363281898L148.11436388888887,90.09064362193689L148.236355,91.83393668813976L148.35834611111113,95.47942608513878L148.48033722222223,99.0403024388889L148.60232833333333,101.67509261624404L148.72431944444446,103.9400204936791L148.96830166666666,104.35321768029289L149.0902927777778,104.24226161225197L149.334275,103.44867045906001L149.70024833333332,97.60984692787156L149.82223944444445,102.59099237502501L150.06622166666668,95.35646748280868L150.31020388888888,101.13883683473398L150.432195,91.94552578052311L150.5541861111111,87.70166564975337L150.6761772222222,90.71204488247253L151.04215055555554,91.21996912304228L151.16414166666667,94.33346295129896L151.28613277777777,95.52485213796905L151.40812388888887,97.68040406867544L151.65210611111112,98.03601895999374L151.77409722222222,92.73445325476101L152.7500261111111,89.20490095690309L153.11599944444444,79.13660989494393L153.23799055555554,80.61094776555161L153.48197277777777,84.46923302872658L153.6039638888889,84.32714591796685L153.725955,87.3648396297724L153.8479461111111,75.17101757389047L154.21391944444443,78.20726754706341L154.33591055555556,69.89363038707728L154.57989277777776,70.01335671728361L154.7018838888889,67.90874119762265L154.823875,72.0223318715825L154.94586611111112,80.2847936062315L155.31183944444444,83.02260520896706L156.28776833333333,86.5933360996285L156.40975944444443,86.24166827130482L156.53175055555556,90.70942319940112L156.77573277777776,95.68073910615229L157.019715,101.63919627520598L157.14170611111112,108.99268814882248L157.26369722222222,109.70779573284179L157.50767944444445,110.39994167108806L157.62967055555555,112.12773793020365L157.75166166666665,112.39903168528868L157.87365277777778,114.9514473444933L157.99564388888888,117.3944886305314L158.36161722222224,102.6994871061988L158.48360833333334,104.417895989068L158.60559944444447,101.26512379981575L159.215555,104.09763561870304L159.45953722222222,99.84440478795592L159.58152833333332,105.27987178224504L159.82551055555555,104.90654657947786L159.94750166666665,103.56698446022341L160.19148388888888,95.13204445833432L160.92343055555554,101.81596273034603L161.04542166666667,101.17866918576058L161.28940388888887,106.06572561749029L161.5333861111111,94.00662967412403L161.65537722222223,86.23950157693278L162.1433416666667,85.01424824967668L162.2653327777778,86.50696562564333L162.3873238888889,91.69842464259949L162.50931500000002,93.09917800816505L162.63130611111112,97.69292122133571L162.87528833333334,91.11181835639049L163.11927055555554,96.6941542392754L163.24126166666667,96.94212897953835L163.36325277777777,96.35617146301341L163.48524388888887,98.9016322689769L163.607235,97.1018103771052L163.7292261111111,97.94573332091267L163.8512172222222,81.10833047761561L164.33918166666666,78.39016821260086L164.5831638888889,84.86649228786285L164.705155,75.24965817552894L165.31511055555558,74.80890791918821L165.43710166666668,78.38689156090908L165.6810838888889,73.19257272089419L165.9250661111111,70.17008898483857L166.04705722222224,68.16125052395746L166.16904833333334,59.490252256016994L166.41303055555557,62.79351889430491L166.7790038888889,64.70812184832555L166.900995,68.16643603988946L167.26696833333332,73.53223248943483L167.51095055555555,65.8934259240185L167.87692388888888,56.15857928178069L168.2428972222222,60.7969237358972L168.3648883333333,65.61892064308373L168.60887055555557,68.35529011699546L168.73086166666667,73.83762825233087L168.8528527777778,75.58744965858487L168.9748438888889,72.89235344304505L169.096835,73.19603075730475L169.21882611111113,57.914524065854906L169.34081722222223,63.53077874360746L169.58479944444446,61.73714305859659L169.70679055555556,52.83648881769931L169.82878166666666,50.76291085540167L170.194755,46.94105431358973L170.31674611111112,40.675343814243L170.56072833333332,44.42547563747732L171.5366572222222,38.74884756092587L171.65864833333336,45.280826065814914L171.78063944444446,51.292914953636725L171.90263055555556,44.574547405011636L172.0246216666667,48.34243112240617L172.2686038888889,46.15863680082223L172.39059500000002,43.329457431418454L172.51258611111112,38.9236668431894L172.63457722222222,36.62155628365069L172.87855944444445,28.764785286075867L173.00055055555555,30.79590022511544L173.12254166666668,38.40424464475266L173.488515,36.87335527802104L173.6105061111111,43.56559276825554L173.85448833333334,47.63352977350654L175.07439944444442,38.442755021001226L175.44037277777778,46.091520905597136L175.5623638888889,54.68240194218653L175.684355,59.93619129285148L175.8063461111111,63.39482445084735L176.05032833333334,67.43292202537758L176.17231944444444,69.05061723874242L176.29431055555557,68.61174647777695L176.53829277777777,65.97707089725581L176.9042661111111,66.73182298934731L177.02625722222223,66.93851312534474L177.14824833333333,63.606047534541666L177.27023944444443,61.01915050860897L177.39223055555556,68.74419899639561L177.51422166666666,59.53541402632215L177.63621277777776,61.87289052067707L177.7582038888889,61.15211771617917L178.0021861111111,51.168665483157376L178.24616833333332,53.98149348257238L178.36815944444447,56.7804470232163L178.61214166666667,61.975395223372416L178.8561238888889,63.00021840739207L179.10010611111113,57.06961136090317L179.22209722222223,50.767088195444956L179.34408833333333,54.89980082770063L179.46607944444446,63.83320795090256L179.58807055555556,72.2593363519057L179.71006166666666,66.18623399344757L180.19802611111112,69.83820835590157L180.80798166666665,59.86513502347268L180.92997277777778,59.1349528364878L181.17395499999998,49.88622102746508L181.2959461111111,57.584101392551624L181.4179372222222,58.644061693835425L181.78391055555554,62.755459570461284L181.9059016666667,66.04860371843735L182.0278927777778,63.88036367628443L182.27187500000002,61.664060125791L182.51585722222222,66.43037811732871L182.63784833333335,59.664754610516155L183.00382166666668,59.922472262327496L183.24780388888888,53.307476337996526L183.4917861111111,41.61644277715185L183.6137772222222,50.662880571746065L183.85775944444444,60.79503447428109L183.97975055555554,56.481911139528194L184.34572388888887,63.34808740690176L184.467715,53.537969244928014L184.5897061111111,38.57820343523248L184.83368833333333,42.619364451707135L184.95567944444443,51.486884076109774L185.07767055555553,48.32046066661742L185.44364388888891,52.857524075352266L185.56563500000001,56.02128804433439L185.68762611111111,62.728498426801856L185.80961722222224,67.75435686927594L185.93160833333334,69.10354725028556L186.05359944444444,76.17434014766994L186.29758166666667,82.20669525918964L186.663555,68.06627270832382L186.7855461111111,74.30245158937562L187.02952833333333,79.28113842332007L187.51749277777776,76.59345792067508L187.6394838888889,76.50416123733757L187.8834661111111,72.46408579818949L188.00545722222222,65.90075292953765L188.37143055555555,65.83845685042905L188.61541277777778,57.16047437948055L188.859395,28.0717488970753L189.10337722222224,33.26579044961201L189.22536833333334,29.357426488330983L189.34735944444446,26.32995833889592L189.46935055555556,32.76494451495906L189.7133327777778,37.565846088789456L190.07930611111112,35.412706051244776L190.20129722222222,41.89181901597803L190.44527944444445,44.982698137483325L190.56727055555555,41.63483844416864L190.68926166666665,45.64511021419519L190.93324388888888,41.90946051872717L191.4212083333333,38.577097711732996L191.66519055555554,36.192364222936284L191.78718166666664,44.5691880325112L192.0311638888889,42.135894764229796L192.153155,43.00636987706214L192.27514611111113,47.40761057695183L192.39713722222223,48.137154895960414L192.51912833333336,46.82981966580368L192.64111944444446,47.85916289625709L193.12908388888889,48.65002883341151L193.25107500000001,43.91762397510732L193.37306611111111,48.91514626754355L193.49505722222221,50.020178888190586L193.61704833333334,59.391075417292136L193.86103055555554,60.545235477286006L194.10501277777777,61.072462555793464L194.22700388888887,53.7026930763584L194.348995,58.45533733291412L194.4709861111111,55.607321343936874L194.5929772222222,49.53348887365304L194.71496833333333,54.244883383064796L195.08094166666666,61.80578968687541L195.44691500000002,56.68254714608691L195.69089722222222,47.30931234290675L195.93487944444445,51.57942741298626L196.05687055555558,36.06008603994798L196.17886166666668,41.756011397227795L196.30085277777778,43.95291872849652L196.4228438888889,37.535019914101134L196.91080833333334,47.7119748778838L197.5207638888889,56.508355378160935L197.7647461111111,59.03047781745352L197.88673722222222,61.58130746726464L198.00872833333332,54.555930797378785L198.25271055555555,43.34106413266511L198.37470166666665,43.23685303036748L198.49669277777775,52.90779663132289L198.8626661111111,57.45523242081282L199.22863944444444,60.59551226475661L199.35063055555557,62.32160194699849L199.47262166666667,67.30468824081761L199.7166038888889,66.80509766881157L199.838595,60.56048537539703L199.96058611111113,57.21449382128714L200.20456833333333,62.73626772149186L200.32655944444446,68.14983976965983L200.57054166666666,67.44784558223238L200.69253277777779,66.1132583367201L200.81452388888889,51.19174772650037L200.93651499999999,50.84292987279624L201.05850611111111,48.822974249004346L201.18049722222221,51.755077760482926L201.42447944444444,61.125462154310775L201.54647055555554,55.54778645016127L201.91244388888887,49.46663529498878L202.52239944444446,46.32983217830287L203.0103638888889,45.021335231488806L203.98629277777778,29.024202802146036L204.10828388888888,34.00980708606179L204.230275,30.949389149266263L204.3522661111111,34.80618275333635L204.4742572222222,33.322893525761685L204.84023055555554,27.537446495714004L204.96222166666666,37.2816139871688L205.20620388888887,39.37537915796744L205.32819500000002,49.15530238186865L205.57217722222222,42.49383473201368L205.69416833333335,44.358983272945736L205.81615944444445,32.6655148281694L205.93815055555555,22.369016561243793L206.18213277777778,23.65359476622657L206.426115,6.821814023662406L206.5481061111111,14.836083080791763L206.67009722222224,19.63078541666489L206.91407944444444,19.958527277456838L207.03607055555557,31.341745743904653L207.15806166666667,32.89160162584626L207.4020438888889,18.27080344615194L207.6460261111111,18.932480058669242L208.37797277777776,16.35537535376273L208.62195499999999,14.843829562942922L209.10991944444444,23.15531910144709L209.35390166666667,29.941195085947715L209.47589277777777,22.913243680735167L209.96385722222223,22.409592960713045L210.5738127777778,31.45877168600467L210.6958038888889,36.33636072288923L211.18376833333332,33.88935610513311L211.54974166666665,21.898883174781027L211.67173277777778,30.26666325597991L212.0377061111111,31.618914406181162L212.15969722222223,32.63763749328428L212.40367944444446,34.44639581209238L212.52567055555556,23.958782031908907L212.64766166666666,23.966945395034067L212.7696527777778,30.992007511385676L213.013635,14.20254808356557L213.13562611111112,5.71944601913975L213.50159944444445,-1.8749135007297055L213.86757277777778,-8.006424138230575L213.98956388888888,3.2471481093457863L214.47752833333334,10.804419133291377L214.84350166666667,15.555814109558302L214.96549277777777,-10.781828827461865L215.57544833333336,-6.858972594868524L215.69743944444446,2.4335016833545606L215.81943055555556,5.750763403670188L215.94142166666668,10.679903956310326L216.06341277777778,8.758162819051245L216.18540388888889,13.866345936376229L216.307395,24.568205102759045L216.4293861111111,18.22136510337745L216.79535944444444,24.454464613314375L217.03934166666667,-6.018486609091264L217.64929722222223,6.1946024730985L217.77128833333333,-3.2556544235920195L217.89327944444443,6.545069447954879L218.13726166666666,11.566649294108508L218.6252261111111,19.996030612066235L218.99119944444445,15.174671796571307L219.23518166666668,1.43823467987827L219.7231461111111,7.368024968685235L219.84513722222223,9.143459223610638L219.96712833333333,9.155760906271452L220.08911944444444,10.956375926634395L220.45509277777776,18.99798955181558L220.699075,18.129876131577866L220.82106611111112,20.06584816937685L220.94305722222222,26.040595935861607L221.06504833333332,21.79443734360368L221.30903055555555,19.61529156018295L221.55301277777778,8.86667501331913L221.67500388888888,11.456862329755923L222.0409772222222,3.241148671357802L222.1629683333333,8.028636440318344L222.40695055555557,10.538735559778857L222.52894166666667,17.99312453954182L222.6509327777778,24.585904946072116L223.26088833333333,24.758778646723513L223.38287944444446,31.055883051831774L223.50487055555556,36.478831330659816L224.48079944444444,35.48785021800466L224.60279055555554,40.165447861738336L224.72478166666667,41.349020131675395L224.96876388888887,45.532040120125416L225.090755,49.95855176415303L225.2127461111111,49.49039855468219L225.3347372222222,44.75321898633786L225.45672833333333,49.622427078071475L225.57871944444446,56.45926800035843L225.70071055555556,55.87076680851717L225.9446927777778,48.02190470688641L226.18867500000002,47.78708849853219L226.31066611111112,52.51561470024927L226.43265722222222,54.89259175766L226.67663944444445,51.73171208717487L226.79863055555555,59.11445074243135L227.04261277777778,57.424479506061964L227.286595,56.5490298989556L227.4085861111111,63.17955238658786L227.65256833333333,57.062611888961705L227.77455944444444,61.67057099162131L228.2625238888889,64.10830360050163L228.384515,64.55029256319405L228.5065061111111,52.361348777181206L228.62849722222222,54.69880213931995L228.75048833333332,58.08631968166439L228.87247944444442,60.34036149514423L228.99447055555558,59.14785942595276L229.23845277777778,55.709416158030585L229.3604438888889,57.745635640426165L229.482435,65.2601193580414L229.6044261111111,69.11861783948694L230.09239055555557,59.901134448277915L230.33637277777777,60.02303005300619L230.4583638888889,68.28754731031655L230.580355,69.11128283067823L230.82433722222223,61.50064150341419L231.06831944444443,66.75003161299392L231.31230166666666,73.24189089404797L231.55628388888888,68.5330350008745L231.67827499999999,64.79671586570957L231.8002661111111,67.24010696552126L232.04424833333331,71.77487151190473L232.16623944444444,66.10179663843502L232.28823055555557,55.58647142538686L232.41022166666667,55.953452504101385L232.5322127777778,56.430702302954444L232.6542038888889,59.064729731924075L232.776195,57.452211977605444L232.89818611111113,43.41578916458903L233.02017722222223,48.47135507438268L233.50814166666666,40.82684469650191L233.6301327777778,38.1977339290927L233.874115,44.7430796179357L233.99610611111112,45.04779735709468L234.36207944444445,49.16726006044676L234.48407055555555,40.34704280446016L234.60606166666665,44.07595943433584L234.72805277777778,31.328439620101587L234.85004388888888,37.91899805993184L235.0940261111111,39.6527178223563L235.58199055555554,23.931078917170648L235.8259727777778,31.57342191556182L235.9479638888889,35.69036299927167L236.06995500000002,42.760790282075355L236.43592833333335,50.72599963679216L236.55791944444445,55.1538082143176L236.80190166666668,55.96184352849752L236.92389277777778,59.95068730897298L237.04588388888888,57.38050808931153L237.2898661111111,63.003050829939774L237.4118572222222,59.72142737078079L237.53384833333334,63.073289153355276L237.65583944444444,34.649619669227825L237.89982166666667,32.31716527949628L238.14380388888887,33.752545159710586L238.3877861111111,39.1963322286263L238.50977722222223,44.28290381743085L238.75375944444443,48.42638927340898L238.87575055555556,45.031285858237496L238.99774166666666,41.174848477820106L239.11973277777778,30.18168934855912L239.363715,40.57272948880099L239.72968833333334,35.80759085224218L239.85167944444444,12.164574578462409L239.97367055555557,3.2181391011232257L240.09566166666667,2.714650889836388L240.21765277777777,-6.104887712923173L240.5836261111111,-1.6654654414649122L240.70561722222223,3.1396566311383802L240.82760833333333,6.439917456693607L240.94959944444443,13.275090969113363L241.07159055555556,9.22315975818278L241.19358166666666,13.799459244843181L241.31557277777776,14.84530425926949L241.559555,9.866171715089257L241.6815461111111,18.694650704346277L241.80353722222222,20.728269038794494L242.29150166666665,29.900786234383176L242.657475,33.74108042557755L242.77946611111113,36.57805954257879L242.90145722222223,10.864149651907105L243.26743055555556,10.489952732506522L243.38942166666666,8.901620478097561L243.5114127777778,-1.273903894542889L243.6334038888889,3.7023079398142382L243.755395,3.48463998799265L243.99937722222222,5.449714858323327L244.12136833333332,7.252772457317017L244.24335944444445,11.786166064510512L244.60933277777778,8.570046523651722L244.73132388888888,13.888448533136856L244.9753061111111,16.446007727218916L245.2192883333333,19.703250280471217L245.34127944444444,19.333654574308746L245.70725277777777,19.407621207253424L245.95123500000003,27.26788023354654L246.07322611111113,26.423296871954634L246.19521722222223,27.480374920011297" style="fill: none;" fill="none"></path></g></g></g></g><g opacity="0.2"><g><g><g><path stroke="rgb(255, 112, 67)" stroke-width="2px" d="M30.392941666666665,166.717998256286L30.63692388888889,218.3928766362369L31.368870555555553,241.03367285927138L31.61285277777778,173.01233194271722L31.73484388888889,194.82468584676582L31.856835,101.19671952724457L31.97882611111111,199.01853485467532L32.100817222222226,155.7490889678399L32.22280833333333,232.37022730335593L32.466790555555555,226.27826263941822L32.954755,144.31517280141514L33.07674611111111,162.1350393394629L34.052674999999994,158.98104062428078L34.174666111111115,134.39921433230242L34.41864833333334,75.99826642125846L34.784621666666666,218.9821210143467L34.906612777777774,142.76457597315311L35.150595,135.04283894598484L35.27258611111111,61.18909413119159L35.394577222222225,82.12238942086698L35.51656833333333,162.71153577417135L35.760550555555554,179.92934588467082L36.49249722222222,189.28969732920328L36.61448833333333,115.5093081369996L36.73647944444445,192.3016187498967L36.858470555555556,87.56773938238622L36.98046166666667,205.13776290044188L37.346435,164.90643490850925L37.46842611111111,158.67253489916524L37.712408333333336,159.20653818920255L37.95639055555556,189.43779143318534L38.078381666666665,109.64223203063011L38.20037277777777,119.78402691086134L38.32236388888889,131.60047295937935L38.68833722222222,169.33879958589873L38.81032833333333,130.2662340067327L38.932319444444445,66.59220737218857L39.05431055555555,131.06905222684145L39.29829277777778,168.93502313146988L39.542275000000004,220.49275230740508L39.66426611111111,172.3039419154326L40.27422166666667,144.3204294964671L40.39621277777778,177.42609671130776L40.51820388888889,137.29713690280914L40.640195,83.19336319466433L40.762186111111106,183.3419758280118L40.88417722222223,197.75783010572195L41.49413277777778,128.88864105691513L42.59205277777778,141.044739206632L42.836035,177.98764728133878L42.95802611111111,131.2088583360116L43.080017222222224,138.53708503271142L43.933955,112.18511705100536L44.299928333333334,130.96003533154726L44.543910555555556,137.75560496499142L44.66590166666666,184.58026635895172L44.78789277777778,98.08955485125384L45.27585722222222,59.800868737200915L45.397848333333336,117.57855943838757L45.51983944444444,129.8142956023415L45.88581277777777,131.53193444758654L46.007803888888894,185.68637024114528L46.37377722222222,119.63903737068176L46.86174166666667,183.67490595330796L47.10572388888889,179.2164959087968L47.34970611111111,31.127575357755035L47.47169722222222,108.11159965395927L47.59368833333334,131.85116419692835L47.71567944444445,161.3395383656025L47.837670555555555,101.54084073503813L47.95966166666667,181.7016854956746L48.203643888888884,107.30862574776015L48.44762611111111,131.54158698519072L48.81359944444444,142.12451382353902L48.93559055555556,81.55778007706007L49.057581666666664,66.03637139747542L49.30156388888889,87.90422281374536L49.423555,16.011664837598833L49.545546111111115,88.15996927022935L49.78952833333333,129.7435591692726L49.911519444444444,76.44537855684759L50.15550166666667,147.35939450686178L50.27749277777778,98.33826795965435L50.521475,182.08351936936378L50.64346611111111,222.3464928486695L51.009439444444446,91.79236386716366L51.49740388888889,102.84204676250617L51.619395,123.38437764719129L51.741386111111105,101.95917841792107L51.863377222222226,161.2996277784308L52.10735944444445,66.14339184761049L52.229350555555556,186.4346433815857L52.47333277777778,109.3545790836215L52.717315000000006,141.19558987021446L52.839306111111114,104.55897128333649L52.96129722222222,83.23801762859028L53.083288333333336,146.94279684498906L53.32727055555555,113.26872887214026L53.449261666666665,48.21974679330987L54.42519055555556,86.2285276328524L54.913154999999996,223.45088876287144L55.40111944444445,111.4241234411796L55.523110555555554,127.29837174961963L55.64510166666667,-8.420574595530793L56.13306611111111,76.8695040990909L56.25505722222223,133.62173631290597L56.377048333333335,29.64967477569979L56.49903944444444,111.30100321769714L56.86501277777778,19.074065183599828L56.98700388888889,130.4154637033741L57.35297722222222,70.72931795815629L57.47496833333333,150.77200613419214L57.71895055555556,178.40697402879596L57.840941666666666,185.32092919697362L57.96293277777778,122.25816278532147L58.206915,137.84357676406702L58.32890611111111,117.29722551504771L58.45089722222222,157.92420681069297L58.57288833333334,103.4711650957664L58.694879444444446,141.58137084419528L58.81687055555555,160.04686759908995L59.18284388888889,106.93930170933405L59.304835,174.84152445072928L59.548817222222226,220.0701882050683L60.03678166666666,189.67393975829086L60.15877277777778,142.33581648021936L60.402755,3.2103852132956603L60.64673722222222,189.59774515405297L60.768728333333335,82.86700851718587L61.37868388888889,131.02341788634658L61.74465722222222,124.62375798076391L61.86664833333333,-84.17793902754778L61.988639444444445,243.85290984809396L62.11063055555556,108.59074649214746L62.354612777777774,100.12629523376626L62.842577222222225,212.7553276171287L63.08655944444445,123.13413515190285L63.33054166666667,172.6697309638063L63.452532777777776,167.87415979554257L63.57452388888888,110.28360377500455L64.06248833333333,70.61975158254307L64.18447944444445,167.48978915438056L64.42846166666666,152.78815016274652L64.67244388888889,152.1811117803057L64.91642611111111,156.08515113095442L65.52638166666667,172.90445064008236L65.892355,143.00506519277891L66.01434611111111,182.58221854890385L66.38031944444444,205.61883291974664L66.62430166666667,143.33087954794368L66.74629277777778,168.915846268336L66.8682838888889,152.62117225180072L67.11226611111111,182.5295508603255L67.23425722222223,40.687653740247114L67.35624833333334,178.05901561677456L67.84421277777777,118.86057028671107L67.96620388888888,223.15479213496047L68.2101861111111,70.47758270800114L68.57615944444444,176.16410526260734L69.06412388888889,156.3497991686066L69.186115,108.88076220452785L69.30810611111112,152.9344401396811L69.43009722222222,62.558600562314204L69.67407944444444,93.48934225241345L70.04005277777779,48.87256604433062L70.16204388888889,-33.697072222828815L70.284035,175.96802321076393L70.65000833333333,83.2393730133772L70.77199944444445,147.67678349713483L71.01598166666666,159.465966163824L71.74792833333333,98.0537653664748L71.99191055555556,72.2157354851564L72.11390166666666,178.93189257755876L72.35788388888889,246.6774676380058L72.47987499999999,150.52179111291966L72.72385722222222,87.42289637029171L72.84584833333334,93.46602597087622L73.4558038888889,189.614989678065L73.57779500000001,2.505255435903904L73.82177722222222,76.77195302645366L74.06575944444444,210.54257037242252L74.18775055555555,53.75387445837261L74.30974166666667,205.37956171482801L74.55372388888888,129.12958817680678L74.675715,-180.49857870241L74.79770611111111,176.9935183301568L74.91969722222221,162.39268150304756L75.16367944444445,35.84761129816375L75.28567055555555,73.5721826006969L75.52965277777778,148.39847094813982L75.65164388888888,112.67860532552004L75.89562611111111,209.22564920783043L76.13960833333333,111.82271646459898L76.38359055555556,-14.397290341556019L76.50558166666666,81.57899001737438L76.62757277777779,148.1639161159595L76.871555,159.69838718076548L76.99354611111112,-7.121035325030455L77.35951944444444,195.30418068915606L77.48151055555556,162.36184649914503L77.60350166666666,131.6806787699461L77.84748388888889,163.15879443784556L78.0914661111111,94.34810672700405L78.21345722222222,118.30574169258277L78.33544833333335,29.423856680591925L78.45743944444445,113.84877861291172L79.067395,131.46630818148455L79.55535944444443,208.75353571772575L79.67735055555555,98.89952547351521L79.92133277777778,75.0925946434339L80.28730611111112,67.476760789752L81.14124388888888,38.663075188795744L81.263235,-31.96287570397056L81.75119944444445,64.42611932257812L81.87319055555557,-79.68817197283104L81.99518166666667,44.136082326372474L82.2391638888889,173.9006035104394L82.48314611111111,90.58643772701424L82.72712833333333,107.85228157540163L82.97111055555555,150.83922589321932L84.06903055555556,72.10560131321353L84.19102166666667,87.64298155407113L84.31301277777777,213.99484532078108L84.43500388888889,61.034122365216426L84.6789861111111,179.11616080254316L84.80097722222222,79.21040015419325L85.16695055555556,47.543831052879504L85.53292388888889,96.27912709613643L85.89889722222222,133.42872219284376L86.26487055555555,116.83694416781267L86.38686166666666,94.42104108134907L86.50885277777778,49.06094621370238L86.63084388888888,112.88652867823839L86.752835,113.1266515776515L86.99681722222223,201.72741330042481L87.11880833333333,200.98696567552787L87.24079944444445,26.83591427405677L87.48478166666666,163.76906559616327L87.60677277777778,-22.22055301566914L87.72876388888889,183.2162913630406L87.9727461111111,176.8667074305316L88.21672833333332,191.57233931248388L88.33871944444444,99.24624755481881L88.8266838888889,107.2570478618145L89.31464833333334,110.93755861868463L89.80261277777777,120.60656231641771L89.92460388888888,14.337947785854386L90.16858611111111,59.21547072132431L90.29057722222223,135.1254166799287L90.53455944444445,-21.330761219064364L90.77854166666667,94.08373342951141L91.144515,147.16393519937992L91.99845277777779,63.40179642786584L92.36442611111111,53.00568373998007L92.48641722222223,82.60432029267155L92.85239055555556,112.39122711867095L92.97438166666666,41.649683882792814L93.09637277777777,133.15525499607125L93.34035499999999,143.96420140564442L93.46234611111112,143.8748284317553L93.58433722222223,24.912256941199317L93.70632833333333,66.30321735640369L93.95031055555556,-21.271893560886344L94.5602661111111,101.33084767311813L94.68225722222222,90.9924853667617L95.41420388888889,68.82888532678288L95.6581861111111,83.78727815548581L95.78017722222222,159.03284746035933L95.90216833333334,169.80085758616528L96.02415944444445,62.671994984149954L96.14615055555555,134.86191339294115L96.26814166666666,200.28984915278852L96.39013277777778,92.60541157921158L96.51212388888888,105.39159881075224L96.634115,117.99636595696211L96.75610611111111,51.15501570949953L97.00008833333334,135.86550256361565L97.36606166666667,124.43774057676396L97.48805277777778,176.81808758030334L97.6100438888889,120.19701631863914L97.85402611111111,106.47565021614236L97.97601722222223,127.0183748950561L98.34199055555555,49.62575703362625L98.58597277777778,183.5425086704393L98.829955,38.41522293289504L98.95194611111111,199.9103826234738L99.31791944444444,94.15648462375006L99.43991055555556,77.72720624506475L99.56190166666667,96.23099262019001L99.80588388888889,36.193106206754855L99.927875,163.1552228157719L100.0498661111111,186.65380360682806L100.29384833333334,37.61591222882274L100.53783055555556,128.91673781722784L100.65982166666667,97.48036433756351L101.025795,10.045370901624409L101.14778611111112,32.07465963562331L101.26977722222222,98.69284760951997L101.39176833333333,-68.4146307955185L101.51375944444445,-58.732567782203326L101.75774166666666,116.90163631737232L101.87973277777779,142.18627541139722L102.00172388888889,58.12504534423353L102.24570611111112,160.72785687446594L102.36769722222222,117.72091147303581L102.85566166666666,-58.61999758084609L102.97765277777778,173.8031257018447L103.09964388888889,176.69777886445323L103.3436261111111,231.35841424390674L103.46561722222222,166.9694038182497L103.58760833333334,52.54912054290376L103.70959944444445,58.79372626046341L103.95358166666666,52.968172550201444L104.1975638888889,23.027246390779858L104.319555,79.70332063237828L104.44154611111111,-4.47973837951816L104.68552833333334,53.48087431987129L104.92951055555555,86.59827293952307L105.17349277777777,161.16920862471065L105.2954838888889,-50.83759792645769L105.41747500000001,178.27992502103248L105.78344833333334,129.93913753082356L106.27141277777777,130.15858165423074L106.39340388888888,82.25825758775076L106.63738611111111,108.41703744729361L106.75937722222221,185.5398055240512L107.00335944444446,-38.77540596326186L107.49132388888889,165.76604191958904L107.613315,142.95760840922594L107.85729722222221,134.06276753296456L108.10127944444444,138.0499615718921L108.5892438888889,8.121347248554276L108.95521722222223,33.899795147279924L109.07720833333333,223.58896400903663L109.32119055555556,27.564726653198417L109.44318166666666,-1.4401048347353673L109.56517277777778,74.721109315753L109.68716388888889,-0.0911489675441941L109.80915499999999,-36.13881623248253L109.9311461111111,141.87009527782598L110.05313722222222,181.31894497945905L110.17512833333333,161.2840591693918L110.29711944444443,61.78158044318359L110.78508388888889,89.30664311597747L110.907075,72.91800796488923L111.15105722222222,160.63234803701442L111.39503944444444,-54.39445729553693L111.76101277777778,-208.75021920104814L112.00499500000001,87.93471897145115L112.12698611111112,158.62822846944132L112.24897722222222,28.108144372701666L112.61495055555555,167.55483846614757L112.73694166666667,-29.21353261172769L112.85893277777778,109.11833917846285L112.98092388888888,160.75142958015203L113.102915,126.28742870067559L113.34689722222221,-18.035253005723114L113.46888833333333,141.54456482082605L113.71287055555557,114.46538711090885L113.95685277777778,107.79487919807436L114.0788438888889,-186.1275649865468L114.200835,89.96688035130501L114.32282611111111,2.1132928083340676L114.44481722222223,174.1183717188736L114.56680833333333,47.17496491471928L114.81079055555556,60.34842587510746L114.93278166666666,210.92317707339922L115.29875500000001,5.832120659450738L115.78671944444444,165.01334546258053L116.15269277777777,100.86717786391577L116.27468388888889,187.789872482419L116.396675,-209.9336166481176L116.5186661111111,10.485614533225737L116.64065722222222,138.57650108759603L116.76264833333333,143.71805253873268L116.88463944444443,138.56411946440736L117.00663055555555,48.83776562412581L117.25061277777779,87.69595145682496L117.37260388888889,14.12515237430735L117.494595,115.39415537814298L117.98255944444445,133.14356022328138L118.47052388888888,79.73606965939206L118.59251499999999,48.756900437176256L118.83649722222223,26.979621693491957L118.95848833333334,69.66142127414547L119.08047944444445,17.801944981018732L119.20247055555556,31.853402227163336L119.32446166666666,-50.4059261878331L119.44645277777778,-49.00797499219572L119.81242611111111,144.43159852301082L119.93441722222222,-46.21199933687843L120.05640833333332,66.30572664986056L120.6663638888889,-0.9753726969162186L120.91034611111111,156.0745003707707L121.03233722222222,67.887387432158L121.15432833333334,91.80342673758666L121.27631944444444,18.43824319044752L121.52030166666667,205.004202550898L121.886275,-2.4468626752495375L122.0082661111111,172.87399111439785L122.37423944444446,212.71589324623346L122.49623055555556,116.53733086585999L122.61822166666667,-68.77728780607377L122.74021277777778,93.1380228524407L122.86220388888889,96.3118761231502L123.10618611111111,-53.22908280293144L123.47215944444444,87.51678424080214L123.59415055555554,131.0507179001967L123.83813277777779,191.4387331729134L124.20410611111112,58.2591368580858L124.32609722222223,-23.42666231592493L124.44808833333333,23.242312987645505L124.69207055555556,133.30505248904228L124.81406166666666,121.85062239070734L124.93605277777777,61.02842608590923L125.05804388888889,90.65288821359476L125.18003499999999,125.24902079378566L125.3020261111111,15.600030814607981L125.42401722222223,67.51024245719117L125.66799944444445,-10.995988850792202L126.03397277777778,-110.68648142615947L126.15596388888889,134.1081179752946L126.64392833333333,-15.931457708279261L126.76591944444444,191.47941303253174L127.00990166666666,96.81454071899257L127.2538838888889,165.286638657252L127.49786611111111,142.13740829502544L127.61985722222222,-132.31922852993006L127.74184833333334,197.5236415937543L127.86383944444445,147.28419812520346L127.98583055555555,92.42943134903909L128.10782166666667,192.29483266795674L128.3518038888889,96.0656356761853L128.59578611111112,76.47735831141473L128.83976833333332,25.48276404043041L129.20574166666665,152.37556370720267L129.32773277777778,-62.107182845473226L129.44972388888888,150.31319006780785L129.57171499999998,141.99129232019186L129.6937061111111,40.71329615513485L129.93768833333334,-201.59668145577106L130.05967944444444,96.17809598147872L130.18167055555557,115.13556994001073L130.42565277777777,191.6155925715963L130.5476438888889,-140.64092480142907L130.7916261111111,120.73279626170793L131.15759944444443,54.24056749294203L131.4015816666667,202.80431688266495L131.5235727777778,157.05743823945522L131.6455638888889,185.21998050436378L132.01153722222222,-89.6736946503321L132.37751055555555,92.63995557526749L132.49950166666667,36.315328945716246L132.74348388888887,-319.984414110581L132.98746611111113,239.33148814799884L133.23144833333333,74.138733441631L133.35343944444446,46.400600617130614L133.8414038888889,-93.56830125550425L134.0853861111111,-108.60043434302008L134.20737722222222,102.56300234049559L134.32936833333332,190.50150290876627L134.45135944444442,82.96063996354741L134.69534166666668,225.36801643793783L134.81733277777778,117.2167083323002L134.9393238888889,13.071047646304002L135.061315,-76.78391206264489L135.54927944444447,27.799373065431922L135.79326166666667,88.0865770156185L135.9152527777778,-175.28683114051813L136.0372438888889,166.06953821579614L136.159235,37.439767154554545L136.28122611111112,52.36801182975374L136.76919055555555,162.40116181597114L136.89118166666665,-92.66653078794475L137.01317277777778,124.44531424716115L137.13516388888888,-257.97665906945855L137.6231283333333,89.11408689618112L137.74511944444444,107.00948866208397L137.86711055555554,151.06980615109205L137.98910166666664,-266.09680595993984L138.1110927777778,15.688057561715487L138.355075,162.5260586924851L138.47706611111113,157.81446643297872L138.59905722222223,-192.34420215586817L138.72104833333333,128.1055949702859L138.96503055555556,51.806790947914145L139.3310038888889,-20.364188705881404L139.57498611111112,171.85062065223852L139.69697722222222,112.1692920178175L139.94095944444445,-81.05117622017855L140.06295055555555,145.29089416190982L140.18494166666667,28.148586124181772L140.42892388888887,121.8234780629476L140.550915,96.81256258984409L140.7948972222222,-1.7081230183442084L140.91688833333333,147.4801794389884L141.5268438888889,36.178599926332645L141.77082611111112,123.6288597571353L141.89281722222222,138.34964813788733L142.01480833333335,-17.103865548968262L142.13679944444445,123.79875907177727L142.25879055555555,64.91292225321136L142.38078166666668,67.88520782689254L142.50277277777778,147.4220444212357L142.746755,-62.339356596271166L142.8687461111111,39.80985893060766L142.99073722222224,208.95809808249274L143.35671055555557,77.08054117361705L143.47870166666667,185.14775131642818L143.60069277777777,94.05233978728455L143.7226838888889,102.79089014480513L143.9666661111111,140.52324575185776L144.69861277777775,-91.77556676665935L144.8206038888889,153.9190813973546L144.942595,158.91603710254034L145.18657722222224,10.164974451065095L145.67454166666667,70.9780860145887L146.040515,122.1624616297583L146.40648833333333,86.51405592262746L146.77246166666666,170.55251003056765L146.8944527777778,95.3640225728353L147.138435,138.36034468809765L147.26042611111112,106.54492136836052L147.38241722222222,2.806077594558446L147.50440833333332,162.00536198417345L147.74839055555555,168.62581223994493L147.87038166666665,-38.32516178985432L147.99237277777777,154.0861417303483L148.11436388888887,145.38596341510615L148.236355,124.9565049459537L148.35834611111113,164.7437246280412L148.48033722222223,166.6969531600674L148.60232833333333,151.7361059859395L148.72431944444446,146.9736501649022L148.96830166666666,112.20396422594787L149.0902927777778,102.13409631947678L149.334275,88.37043854842585L149.70024833333332,-13.327800164620038L150.432195,-82.72738424936925L150.5541861111111,7.068323165178345L150.6761772222222,147.9092503041029L151.04215055555554,100.87052969386183L151.16414166666667,153.48984568814436L151.28613277777777,118.16124668469033L151.40812388888887,138.6358907520771L151.65210611111112,104.7927018950383L151.77409722222222,-7.995295144617531L152.7500261111111,22.143407297631136L153.11599944444444,-112.16092028220491L153.23799055555554,108.6233673070868L153.48197277777777,157.7766530290246L153.6039638888889,81.62749081353348L153.725955,145.08102015405893L153.8479461111111,-156.51160148779545L154.21391944444443,135.89601703733206L154.33591055555556,-88.06547565261519L154.57989277777776,72.28815699120364L154.7018838888889,27.92104632407429L154.823875,150.18055467680097L154.94586611111112,237.27156656452763L155.31183944444444,135.04102566093206L156.28776833333333,154.4372230221828L156.40975944444443,79.55997953315578L156.53175055555556,175.59676683321595L156.77573277777776,190.13574133440852L157.14170611111112,248.7090337475141L157.26369722222222,123.29483982920648L157.50767944444445,123.55071449776491L157.62967055555555,144.9558668533961L157.75166166666665,117.5536130319039L157.87365277777778,163.44734486937523L157.99564388888888,163.81227306524914L158.36161722222224,-176.50554185609016L158.48360833333334,137.06766476357976L158.60559944444447,41.36245220402878L159.215555,157.91536017755666L159.45953722222222,19.0330190037688L159.58152833333332,208.55374467372894L159.82551055555555,97.81336772690219L159.94750166666665,78.11530419439077L160.19148388888888,-65.13181557754673L160.92343055555554,228.81040989855924L161.04542166666667,89.070091838638L161.28940388888887,198.91979782034954L161.65537722222223,-61.33593226969238L162.1433416666667,61.73443503181141L162.2653327777778,114.86859576900802L162.3873238888889,190.33614596476156L162.50931500000002,119.7134919539094L162.63130611111112,184.97404227157435L163.11927055555554,202.75853601408502L163.24126166666667,101.65364904453358L163.36325277777777,85.22297864904007L163.48524388888887,147.26538758228224L163.607235,62.905194431543364L163.7292261111111,113.98026925325394L163.8512172222222,-238.80232354501877L164.33918166666666,26.745085177322245L164.5831638888889,207.91664971783757L164.705155,-107.47018995881076L165.31511055555558,66.43465304871403L165.43710166666668,146.36858075360456L165.6810838888889,-25.49948523938652L165.9250661111111,12.742897999783395L166.04705722222224,29.99331976721687L166.16904833333334,-105.258714834849L166.41303055555557,125.55558502177398L166.7790038888889,101.08557797471684L166.900995,133.87440567960343L167.26696833333332,175.48236503079534L167.51095055555555,-79.2438988188902L167.87692388888888,-128.80350692073497L168.2428972222222,148.9254683641096L168.3648883333333,157.2368618796269L168.60887055555557,120.34631012131771L168.73086166666667,178.0020528237025L168.8528527777778,108.8340563774109L168.9748438888889,21.685525347789167L169.096835,78.96589972823858L169.21882611111113,-232.43410307168955L169.34081722222223,170.23961762090525L169.58479944444446,27.65806504338981L169.70679055555556,-116.27594175934784L169.82878166666666,11.364929571747819L170.194755,-25.674219980835876L170.31674611111112,-78.3731556733449L170.56072833333332,115.6779802789291L171.5366572222222,-69.10708589355147L171.65864833333336,169.38841765870652L171.78063944444446,165.52260382225117L171.90263055555556,-83.07443601886429L172.0246216666667,119.93222175290188L172.2686038888889,4.666544690728234L172.39059500000002,-10.424950587252718L172.87855944444445,-120.51386366784567L173.00055055555555,69.38708406686784L173.12254166666668,182.9627886178593L173.488515,7.786457310120306L173.6105061111111,170.7181050827106L173.85448833333334,124.9243328732749L175.07439944444442,-136.18196527659887L175.5623638888889,217.9091416373849L175.684355,159.75818895548582L175.8063461111111,129.10885445276895L176.05032833333334,144.1567759414514L176.17231944444444,99.78682629267375L176.29431055555557,60.27320201943319L176.53829277777777,15.918234867354265L176.9042661111111,81.07211273908615L177.02625722222223,70.86562570929527L177.14824833333333,0.289201309283605L177.27023944444443,11.868107015887931L177.39223055555556,215.52012026434141L177.51422166666666,-115.43150040507312L177.63621277777776,106.28494391342005L177.7582038888889,47.45743443071845L178.0021861111111,-138.5169269442558L178.24616833333332,107.42522547145687L178.36815944444447,109.96056429545084L178.61214166666667,160.67941102633876L178.8561238888889,82.47185890376569L179.10010611111113,-55.61192252238585L179.22209722222223,-68.98085194826119L179.34408833333333,133.4213408405582L179.46607944444446,233.56794329173863L179.71006166666666,-49.202710817257504L180.19802611111112,139.22572124252716L180.80798166666665,-129.623258292675L180.92997277777778,45.2614912837744L181.17395499999998,-125.83968334396673L181.2959461111111,203.8438283291956L181.4179372222222,78.78330741822721L181.78391055555554,140.87201922635236L181.9059016666667,128.61834252998233L182.0278927777778,22.68380287537975L182.27187500000002,19.554292666415407L182.51585722222222,156.99041995654503L182.63784833333335,-68.88209201892214L183.00382166666668,64.81910764674346L183.24780388888888,-72.37744622429209L184.5897061111111,-245.6573469489812L184.83368833333333,119.40142376472554L184.95567944444443,219.96975693975884L185.07767055555553,-11.841584113736912L185.44364388888891,139.0617288413147L185.56563500000001,116.13280345499516L185.68762611111111,190.16549569368362L185.80961722222224,163.24566727628311L185.93160833333334,94.73816448946796L186.05359944444444,210.51940519797307L186.7855461111111,192.78985032935935L187.02952833333333,173.87618826826414L187.51749277777776,25.527528370420168L187.6394838888889,74.80752425392471L187.8834661111111,-4.297347545623753L188.00545722222222,-58.802571574846844L188.37143055555555,64.6548313473662L188.61541277777778,-107.7211925685405L188.859395,-524.6140352686245L189.10337722222224,131.95257994780937L189.22536833333334,-44.90148877600826L189.34735944444446,-31.19193650037045L189.46935055555556,155.02968186015883L189.7133327777778,128.78297599156699L190.07930611111112,-5.496954662104399L190.20129722222222,164.9949653459092L190.44527944444445,103.7094014460842L190.56727055555555,-21.974495728810567L190.68926166666665,121.84027384469908L190.93324388888888,-29.067883695165285L192.0311638888889,-4.096677333116479L192.153155,59.54539702087643L192.27514611111113,131.03118387485543L192.39713722222223,61.99849695712329L192.51912833333336,21.990450292825738L192.64111944444446,67.41668427487215L193.12908388888889,63.67648163934551L193.25107500000001,-45.99806833267207L193.37306611111111,143.86806982383132L193.49505722222221,71.0157986804843L193.61704833333334,237.4381094702209L193.86103055555554,82.47427661716938L194.10501277777777,71.08977704743545L194.22700388888887,-86.32292703290777L194.348995,148.75557820747298L194.4709861111111,1.4950175533692458L194.5929772222222,-65.86932806173958L194.71496833333333,143.76137906188768L195.08094166666666,205.463009459277L195.69089722222222,-130.78214891751603L195.93487944444445,132.7116137444973L196.05687055555558,-258.80740004777897L196.17886166666668,149.978593185544L196.30085277777778,85.69415802260242L196.4228438888889,-84.40505755941071L197.5207638888889,223.63958488342664L197.7647461111111,106.9508041640123L197.88673722222222,110.04707081367575L198.00872833333332,-78.92622593045228L198.25271055555555,-169.74140249689415L198.37470166666665,41.25684208671253L198.49669277777775,236.65572504947585L198.8626661111111,143.8565124211212L199.22863944444444,120.26082929968834L199.35063055555557,95.11730590959392L199.47262166666667,161.98332782338065L199.7166038888889,57.312876800696074L199.838595,-58.087148199478726L199.96058611111113,-6.3593457068005765L200.20456833333333,167.64997182538113L200.32655944444446,171.00770868485174L200.57054166666666,54.109956021110236L200.69253277777779,40.75610067198676L200.81452388888889,-232.31695386767376L200.93651499999999,44.21539065241816L201.05850611111111,10.443817396958707L201.18049722222221,107.46504447857541L201.42447944444444,239.1627656370401L202.52239944444446,-13.269427038729138L203.0103638888889,20.15989324202144L203.98629277777778,-274.9213133553663L204.10828388888888,128.73628848046064L204.230275,-27.19855164984859L204.3522661111111,108.08526123066746L204.4742572222222,5.140398201843134L204.84023055555554,-82.38604707519211L204.96222166666666,222.4207963248094L205.20620388888887,79.15691740314166L205.32819500000002,234.97384363599122L205.57217722222222,-84.07405061523117L205.69416833333335,79.79680555065474L205.81615944444445,-189.5103856225808L205.93815055555555,-173.26445051034287L206.18213277777778,48.0605806608995L206.426115,-312.98202008505655L206.5481061111111,167.10719516625008L206.67009722222224,110.73012979825339L206.91407944444444,26.185622632503534L207.03607055555557,247.62289660641304L207.15806166666667,62.338863382736854L207.4020438888889,-259.5243619680404L207.6460261111111,31.50433569649857L208.37797277777776,-32.60961403946077L209.10991944444444,181.07362033302584L209.35390166666667,158.8728387914598L209.47589277777777,-110.61783301830285L209.96385722222223,12.84022928029302L210.5738127777778,203.3931674665461L210.6958038888889,129.01055242369574L211.18376833333332,-12.603731632232627L211.67173277777778,189.25448479875922L212.0377061111111,57.31168626000486L212.15969722222223,51.993376148243755L212.40367944444446,68.81280386944614L212.52567055555556,-175.3058797915776L212.64766166666666,24.122049294412157L212.7696527777778,164.46818772206706L213.013635,-304.7971810450156L213.62359055555555,-528.5516112347443L213.74558166666668,140.28596183409294L213.86757277777778,215.76776188611984L213.98956388888888,217.06502081329623L214.47752833333334,154.39256858825684L214.84350166666667,105.83231865863006L214.96549277777777,-511.19704463084537L215.08748388888887,-137.02212068438527L215.209475,112.52698538949095L215.4534572222222,77.1174662510554L215.57544833333336,-18.879969100157364L215.69743944444446,178.9905129695932L215.81943055555556,68.77873608966671L215.94142166666668,104.33357445647322L216.06341277777778,-27.754918788870114L216.18540388888889,110.92182516554993L216.307395,227.90352926403284L216.4293861111111,-102.3685948848724L216.79535944444444,142.8833553021153L217.03934166666667,-585.0045598347981L217.89327944444443,192.7588230073452L218.13726166666666,106.97666637102763L218.6252261111111,180.15427565326294L219.23518166666668,-259.5540705372889L219.7231461111111,120.03404045601687L219.84513722222223,42.876710067192725L219.96712833333333,9.389492876827763L220.08911944444444,45.168061313529826L220.45509277777776,171.78864843025804L220.699075,1.63572114706044L220.82106611111112,56.84931688755752L220.94305722222222,139.5608034990728L221.06504833333332,-58.88257590929664L221.55301277777778,-195.35703937709326L221.67500388888888,60.67042134205502L222.0409772222222,-152.85741083820656L222.1629683333333,98.99090405056876L222.40695055555557,58.2306188295285L222.52894166666667,159.62651515503725L222.6509327777778,149.84873267014822L223.26088833333333,28.04337895909948L223.38287944444446,150.7008667488893L223.50487055555556,139.51484862839183L224.48079944444444,16.65920907755696L224.60279055555554,129.0398030926784L224.72478166666667,63.83689326047899L224.96876388888887,125.00941990067562L225.090755,134.06227300067744L225.2127461111111,40.59548757473629L225.3347372222222,-45.25319281220433L225.45672833333333,142.1373808210095L225.57871944444446,186.3592455238104L225.70071055555556,44.689244163533075L225.9446927777778,-101.10647522409754L226.18867500000002,43.32558053980272L226.31066611111112,142.35761253287396L226.43265722222222,100.05515584846339L226.67663944444445,-8.325001652042014L226.79863055555555,199.38648519230387L227.04261277777778,25.31502601504328L227.286595,39.915487363934545L227.4085861111111,189.15947965160012L227.65256833333333,-59.15925756593542L227.77455944444444,149.22179394215345L228.2625238888889,110.42522316922746L228.384515,72.94808285435043L228.5065061111111,-179.2285831570625L228.62849722222222,99.11041601995629L228.75048833333332,122.44915298620859L228.87247944444442,103.16715595126152L228.99447055555558,36.49032011131447L229.23845277777778,-9.621005932489973L229.3604438888889,96.43380580594143L229.482435,208.03530999273062L229.6044261111111,142.4300889869531L230.09239055555557,-115.23104998469348L230.33637277777777,62.3390465428432L230.4583638888889,225.31337519921362L230.580355,84.76225771754982L230.82433722222223,-83.10154371460276L231.06831944444443,166.48844369500875L231.31230166666666,196.58721723407507L231.67827499999999,-6.193347702423688L231.8002661111111,113.66453786194324L232.04424833333331,157.93539789319038L232.16623944444444,-41.686625957488985L232.28823055555557,-144.20470762252805L232.41022166666667,62.926092999676875L232.5322127777778,65.49844848116241L232.6542038888889,109.11125088234745L232.776195,26.81437464555107L232.89818611111113,-223.27624428272236L233.02017722222223,144.52710736046234L233.50814166666666,-104.41885248323278L233.6301327777778,-11.755370651682183L233.874115,169.10464770595232L233.99610611111112,50.837434401114805L234.36207944444445,127.43705142413579L234.48407055555555,-127.23708505928509L234.60606166666665,114.92537540197374L234.72805277777778,-210.87443685034904L234.85004388888888,163.13960841670632L235.0940261111111,72.593393308421L235.58199055555554,-274.7800602813561L235.8259727777778,176.7779388849934L235.9479638888889,113.91224358975889L236.06995500000002,177.09890865534544L236.43592833333335,202.06497737641135L236.55791944444445,139.2821711873015L236.80190166666668,71.31451449791592L236.92389277777778,135.73871913800636L237.04588388888888,8.547102915744034L237.2898661111111,169.83136290187636L237.4118572222222,-2.6294183532396516L237.53384833333334,126.75866302226981L237.65583944444444,-505.4001005291938L237.89982166666667,-11.999468125402874L238.14380388888887,61.024762883782394L238.3877861111111,142.62828653802475L238.50977722222223,140.92776400471726L238.75375944444443,127.15261293699346L238.87575055555556,-19.475679030021L240.461635,-56.639414086937855L240.5836261111111,130.69135777155557L240.70561722222223,94.43697601060073L240.82760833333333,69.14487314224245L240.94959944444443,143.14338770508766L241.07159055555556,-67.76353324949737L241.19358166666666,100.7491494913896L241.31557277777776,34.716359533369555L241.559555,-84.7373466243346L241.6815461111111,186.43575150022903L241.80353722222222,59.367017393310874L242.29150166666665,204.1786129505684L242.657475,106.70667005827032L242.77946611111113,90.48066276560229L242.90145722222223,-477.70013827085495L243.26743055555556,3.380211263895074L243.38942166666666,-21.276692355672488L243.5114127777778,-194.6088669747114L243.6334038888889,98.25033279260002L243.755395,-0.6510510966181362L243.99937722222222,42.78613739460708L244.12136833333332,41.510866838196925L244.24335944444445,97.92064460118614L244.60933277777778,-52.53622475266452L244.73132388888888,114.93808671335381L244.9753061111111,65.03963241477808L245.2192883333333,81.59085879226528L245.34127944444444,12.311336157222627L245.70725277777777,20.812987233201692L245.95123500000003,176.6128017331163L246.07322611111113,10.376213001708237L246.19521722222223,47.564857833087466" style="fill: none;" fill="none"></path></g></g></g></g></g></g><g transform="translate(61, 177)" clip-path="url(#clip_1)"><clipPath id="clip_1"><rect width="268" height="23"></rect></clipPath><g><g><line x1="0" y1="0" x2="0" y2="5" style="visibility: inherit;" fill="rgb(0, 0, 0)" stroke="rgb(204, 204, 204)" stroke-width="1px"></line><line x1="29.78298611111111" y1="0" x2="29.78298611111111" y2="5" style="visibility: inherit;" fill="rgb(0, 0, 0)" stroke="rgb(204, 204, 204)" stroke-width="1px"></line><line x1="59.56597222222222" y1="0" x2="59.56597222222222" y2="5" style="visibility: inherit;" fill="rgb(0, 0, 0)" stroke="rgb(204, 204, 204)" stroke-width="1px"></line><line x1="89.34895833333333" y1="0" x2="89.34895833333333" y2="5" style="visibility: inherit;" fill="rgb(0, 0, 0)" stroke="rgb(204, 204, 204)" stroke-width="1px"></line><line x1="119.13194444444444" y1="0" x2="119.13194444444444" y2="5" style="visibility: inherit;" fill="rgb(0, 0, 0)" stroke="rgb(204, 204, 204)" stroke-width="1px"></line><line x1="148.91493055555557" y1="0" x2="148.91493055555557" y2="5" style="visibility: inherit;" fill="rgb(0, 0, 0)" stroke="rgb(204, 204, 204)" stroke-width="1px"></line><line x1="178.69791666666666" y1="0" x2="178.69791666666666" y2="5" style="visibility: inherit;" fill="rgb(0, 0, 0)" stroke="rgb(204, 204, 204)" stroke-width="1px"></line><line x1="208.48090277777777" y1="0" x2="208.48090277777777" y2="5" style="visibility: inherit;" fill="rgb(0, 0, 0)" stroke="rgb(204, 204, 204)" stroke-width="1px"></line><line x1="238.26388888888889" y1="0" x2="238.26388888888889" y2="5" style="visibility: inherit;" fill="rgb(0, 0, 0)" stroke="rgb(204, 204, 204)" stroke-width="1px"></line><line x1="268.046875" y1="0" x2="268.046875" y2="5" style="visibility: inherit;" fill="rgb(0, 0, 0)" stroke="rgb(204, 204, 204)" stroke-width="1px"></line></g><g transform="translate(0, 8)"><text x="0" y="0" dx="0em" dy="0.95em" style="text-anchor: middle; visibility: hidden; font-family: Roboto, sans-serif; font-size: 12px; font-weight: 200;" fill="rgb(33, 33, 33)" stroke="none" stroke-width="1px">-500k</text><text x="29.78298611111111" y="0" dx="0em" dy="0.95em" style="text-anchor: middle; visibility: inherit; font-family: Roboto, sans-serif; font-size: 12px; font-weight: 200;" fill="rgb(33, 33, 33)" stroke="none" stroke-width="1px">0</text><text x="59.56597222222222" y="0" dx="0em" dy="0.95em" style="text-anchor: middle; visibility: inherit; font-family: Roboto, sans-serif; font-size: 12px; font-weight: 200;" fill="rgb(33, 33, 33)" stroke="none" stroke-width="1px">500k</text><text x="89.34895833333333" y="0" dx="0em" dy="0.95em" style="text-anchor: middle; visibility: inherit; font-family: Roboto, sans-serif; font-size: 12px; font-weight: 200;" fill="rgb(33, 33, 33)" stroke="none" stroke-width="1px">1M</text><text x="119.13194444444444" y="0" dx="0em" dy="0.95em" style="text-anchor: middle; visibility: inherit; font-family: Roboto, sans-serif; font-size: 12px; font-weight: 200;" fill="rgb(33, 33, 33)" stroke="none" stroke-width="1px">1.5M</text><text x="148.91493055555557" y="0" dx="0em" dy="0.95em" style="text-anchor: middle; visibility: inherit; font-family: Roboto, sans-serif; font-size: 12px; font-weight: 200;" fill="rgb(33, 33, 33)" stroke="none" stroke-width="1px">2M</text><text x="178.69791666666666" y="0" dx="0em" dy="0.95em" style="text-anchor: middle; visibility: inherit; font-family: Roboto, sans-serif; font-size: 12px; font-weight: 200;" fill="rgb(33, 33, 33)" stroke="none" stroke-width="1px">2.5M</text><text x="208.48090277777777" y="0" dx="0em" dy="0.95em" style="text-anchor: middle; visibility: inherit; font-family: Roboto, sans-serif; font-size: 12px; font-weight: 200;" fill="rgb(33, 33, 33)" stroke="none" stroke-width="1px">3M</text><text x="238.26388888888889" y="0" dx="0em" dy="0.95em" style="text-anchor: middle; visibility: inherit; font-family: Roboto, sans-serif; font-size: 12px; font-weight: 200;" fill="rgb(33, 33, 33)" stroke="none" stroke-width="1px">3.5M</text><text x="268.046875" y="0" dx="0em" dy="0.95em" style="text-anchor: middle; visibility: hidden; font-family: Roboto, sans-serif; font-size: 12px; font-weight: 200;" fill="rgb(33, 33, 33)" stroke="none" stroke-width="1px">4M</text></g><line x1="0" y1="0" x2="268.046875" y2="0" fill="rgb(0, 0, 0)" stroke="rgb(204, 204, 204)" stroke-width="1px"></line></g></g></g></g></svg>