<svg viewBox="0 0 330 200" xmlns="http://www.w3.org/2000/svg"><g><g><g><g><g><line x1="61.953125" y1="177" x2="56.953125" y2="177" style="visibility: inherit;" fill="rgb(0, 0, 0)" stroke="rgb(204, 204, 204)" stroke-width="1px"></line><line x1="61.953125" y1="164.35714285714286" x2="56.953125" y2="164.35714285714286" style="visibility: inherit;" fill="rgb(0, 0, 0)" stroke="rgb(204, 204, 204)" stroke-width="1px"></line><line x1="61.953125" y1="151.7142857142857" x2="56.953125" y2="151.7142857142857" style="visibility: inherit;" fill="rgb(0, 0, 0)" stroke="rgb(204, 204, 204)" stroke-width="1px"></line><line x1="61.953125" y1="139.07142857142858" x2="56.953125" y2="139.07142857142858" style="visibility: inherit;" fill="rgb(0, 0, 0)" stroke="rgb(204, 204, 204)" stroke-width="1px"></line><line x1="61.953125" y1="126.42857142857143" x2="56.953125" y2="126.42857142857143" style="visibility: inherit;" fill="rgb(0, 0, 0)" stroke="rgb(204, 204, 204)" stroke-width="1px"></line><line x1="61.953125" y1="113.78571428571428" x2="56.953125" y2="113.78571428571428" style="visibility: inherit;" fill="rgb(0, 0, 0)" stroke="rgb(204, 204, 204)" stroke-width="1px"></line><line x1="61.953125" y1="101.14285714285715" x2="56.953125" y2="101.14285714285715" style="visibility: inherit;" fill="rgb(0, 0, 0)" stroke="rgb(204, 204, 204)" stroke-width="1px"></line><line x1="61.953125" y1="88.5" x2="56.953125" y2="88.5" style="visibility: inherit;" fill="rgb(0, 0, 0)" stroke="rgb(204, 204, 204)" stroke-width="1px"></line><line x1="61.953125" y1="75.85714285714286" x2="56.953125" y2="75.85714285714286" style="visibility: inherit;" fill="rgb(0, 0, 0)" stroke="rgb(204, 204, 204)" stroke-width="1px"></line><line x1="61.953125" y1="63.21428571428572" x2="56.953125" y2="63.21428571428572" style="visibility: inherit;" fill="rgb(0, 0, 0)" stroke="rgb(204, 204, 204)" stroke-width="1px"></line><line x1="61.953125" y1="50.57142857142857" x2="56.953125" y2="50.57142857142857" style="visibility: inherit;" fill="rgb(0, 0, 0)" stroke="rgb(204, 204, 204)" stroke-width="1px"></line><line x1="61.953125" y1="37.92857142857143" x2="56.953125" y2="37.92857142857143" style="visibility: inherit;" fill="rgb(0, 0, 0)" stroke="rgb(204, 204, 204)" stroke-width="1px"></line><line x1="61.953125" y1="25.285714285714313" x2="56.953125" y2="25.285714285714313" style="visibility: inherit;" fill="rgb(0, 0, 0)" stroke="rgb(204, 204, 204)" stroke-width="1px"></line><line x1="61.953125" y1="12.642857142857157" x2="56.953125" y2="12.642857142857157" style="visibility: inherit;" fill="rgb(0, 0, 0)" stroke="rgb(204, 204, 204)" stroke-width="1px"></line><line x1="61.953125" y1="0" x2="56.953125" y2="0" style="visibility: inherit;" fill="rgb(0, 0, 0)" stroke="rgb(204, 204, 204)" stroke-width="1px"></line></g><g transform="translate(51.953125, 0)"><text x="0" y="177" dx="0em" dy="0.3em" style="text-anchor: end; visibility: hidden; font-family: Roboto, sans-serif; font-size: 12px; font-weight: 200;" fill="rgb(33, 33, 33)" stroke="none" stroke-width="1px">-0.16</text><text x="0" y="164.35714285714286" dx="0em" dy="0.3em" style="text-anchor: end; visibility: inherit; font-family: Roboto, sans-serif; font-size: 12px; font-weight: 200;" fill="rgb(33, 33, 33)" stroke="none" stroke-width="1px">-0.14</text><text x="0" y="151.7142857142857" dx="0em" dy="0.3em" style="text-anchor: end; visibility: hidden; font-family: Roboto, sans-serif; font-size: 12px; font-weight: 200;" fill="rgb(33, 33, 33)" stroke="none" stroke-width="1px">-0.12</text><text x="0" y="139.07142857142858" dx="0em" dy="0.3em" style="text-anchor: end; visibility: inherit; font-family: Roboto, sans-serif; font-size: 12px; font-weight: 200;" fill="rgb(33, 33, 33)" stroke="none" stroke-width="1px">-0.1</text><text x="0" y="126.42857142857143" dx="0em" dy="0.3em" style="text-anchor: end; visibility: hidden; font-family: Roboto, sans-serif; font-size: 12px; font-weight: 200;" fill="rgb(33, 33, 33)" stroke="none" stroke-width="1px">-0.08</text><text x="0" y="113.78571428571428" dx="0em" dy="0.3em" style="text-anchor: end; visibility: inherit; font-family: Roboto, sans-serif; font-size: 12px; font-weight: 200;" fill="rgb(33, 33, 33)" stroke="none" stroke-width="1px">-0.06</text><text x="0" y="101.14285714285715" dx="0em" dy="0.3em" style="text-anchor: end; visibility: hidden; font-family: Roboto, sans-serif; font-size: 12px; font-weight: 200;" fill="rgb(33, 33, 33)" stroke="none" stroke-width="1px">-0.04</text><text x="0" y="88.5" dx="0em" dy="0.3em" style="text-anchor: end; visibility: inherit; font-family: Roboto, sans-serif; font-size: 12px; font-weight: 200;" fill="rgb(33, 33, 33)" stroke="none" stroke-width="1px">-0.02</text><text x="0" y="75.85714285714286" dx="0em" dy="0.3em" style="text-anchor: end; visibility: hidden; font-family: Roboto, sans-serif; font-size: 12px; font-weight: 200;" fill="rgb(33, 33, 33)" stroke="none" stroke-width="1px">0</text><text x="0" y="63.21428571428572" dx="0em" dy="0.3em" style="text-anchor: end; visibility: inherit; font-family: Roboto, sans-serif; font-size: 12px; font-weight: 200;" fill="rgb(33, 33, 33)" stroke="none" stroke-width="1px">0.02</text><text x="0" y="50.57142857142857" dx="0em" dy="0.3em" style="text-anchor: end; visibility: hidden; font-family: Roboto, sans-serif; font-size: 12px; font-weight: 200;" fill="rgb(33, 33, 33)" stroke="none" stroke-width="1px">0.04</text><text x="0" y="37.92857142857143" dx="0em" dy="0.3em" style="text-anchor: end; visibility: inherit; font-family: Roboto, sans-serif; font-size: 12px; font-weight: 200;" fill="rgb(33, 33, 33)" stroke="none" stroke-width="1px">0.06</text><text x="0" y="25.285714285714313" dx="0em" dy="0.3em" style="text-anchor: end; visibility: hidden; font-family: Roboto, sans-serif; font-size: 12px; font-weight: 200;" fill="rgb(33, 33, 33)" stroke="none" stroke-width="1px">0.08</text><text x="0" y="12.642857142857157" dx="0em" dy="0.3em" style="text-anchor: end; visibility: inherit; font-family: Roboto, sans-serif; font-size: 12px; font-weight: 200;" fill="rgb(33, 33, 33)" stroke="none" stroke-width="1px">0.1</text><text x="0" y="0" dx="0em" dy="0.3em" style="text-anchor: end; visibility: hidden; font-family: Roboto, sans-serif; font-size: 12px; font-weight: 200;" fill="rgb(33, 33, 33)" stroke="none" stroke-width="1px">0.12</text></g><line x1="61.953125" y1="0" x2="61.953125" y2="177" fill="rgb(0, 0, 0)" stroke="rgb(204, 204, 204)" stroke-width="1px"></line></g></g><g transform="translate(61, 0)" clip-path="url(#clip_0)"><clipPath id="clip_0"><rect width="268" height="177"></rect></clipPath><g><g><g><line x1="0" y1="0" x2="0" y2="177" fill="rgb(0, 0, 0)" stroke="rgb(66, 66, 66)" stroke-width="1px" opacity="0.25"></line><line x1="26.8046875" y1="0" x2="26.8046875" y2="177" fill="rgb(0, 0, 0)" stroke="rgb(66, 66, 66)" stroke-width="1px" opacity="0.25"></line><line x1="53.609375" y1="0" x2="53.609375" y2="177" fill="rgb(0, 0, 0)" stroke="rgb(66, 66, 66)" stroke-width="1px" opacity="0.25"></line><line x1="80.4140625" y1="0" x2="80.4140625" y2="177" fill="rgb(0, 0, 0)" stroke="rgb(66, 66, 66)" stroke-width="1px" opacity="0.25"></line><line x1="107.21875" y1="0" x2="107.21875" y2="177" fill="rgb(0, 0, 0)" stroke="rgb(66, 66, 66)" stroke-width="1px" opacity="0.25"></line><line x1="134.0234375" y1="0" x2="134.0234375" y2="177" fill="rgb(0, 0, 0)" stroke="rgb(66, 66, 66)" stroke-width="1px" opacity="0.25"></line><line x1="160.828125" y1="0" x2="160.828125" y2="177" fill="rgb(0, 0, 0)" stroke="rgb(66, 66, 66)" stroke-width="1px" opacity="0.25"></line><line x1="187.6328125" y1="0" x2="187.6328125" y2="177" fill="rgb(0, 0, 0)" stroke="rgb(66, 66, 66)" stroke-width="1px" opacity="0.25"></line><line x1="214.4375" y1="0" x2="214.4375" y2="177" fill="rgb(0, 0, 0)" stroke="rgb(66, 66, 66)" stroke-width="1px" opacity="0.25"></line><line x1="241.2421875" y1="0" x2="241.2421875" y2="177" fill="rgb(0, 0, 0)" stroke="rgb(66, 66, 66)" stroke-width="1px" opacity="0.25"></line><line x1="268.046875" y1="0" x2="268.046875" y2="177" fill="rgb(0, 0, 0)" stroke="rgb(66, 66, 66)" stroke-width="1px" opacity="0.25"></line></g><g><line x1="0" y1="177" x2="268.046875" y2="177" fill="rgb(0, 0, 0)" stroke="rgb(66, 66, 66)" stroke-width="1px" opacity="0.25"></line><line x1="0" y1="164.35714285714286" x2="268.046875" y2="164.35714285714286" fill="rgb(0, 0, 0)" stroke="rgb(66, 66, 66)" stroke-width="1px" opacity="0.25"></line><line x1="0" y1="151.7142857142857" x2="268.046875" y2="151.7142857142857" fill="rgb(0, 0, 0)" stroke="rgb(66, 66, 66)" stroke-width="1px" opacity="0.25"></line><line x1="0" y1="139.07142857142858" x2="268.046875" y2="139.07142857142858" fill="rgb(0, 0, 0)" stroke="rgb(66, 66, 66)" stroke-width="1px" opacity="0.25"></line><line x1="0" y1="126.42857142857143" x2="268.046875" y2="126.42857142857143" fill="rgb(0, 0, 0)" stroke="rgb(66, 66, 66)" stroke-width="1px" opacity="0.25"></line><line x1="0" y1="113.78571428571428" x2="268.046875" y2="113.78571428571428" fill="rgb(0, 0, 0)" stroke="rgb(66, 66, 66)" stroke-width="1px" opacity="0.25"></line><line x1="0" y1="101.14285714285715" x2="268.046875" y2="101.14285714285715" fill="rgb(0, 0, 0)" stroke="rgb(66, 66, 66)" stroke-width="1px" opacity="0.25"></line><line x1="0" y1="88.5" x2="268.046875" y2="88.5" fill="rgb(0, 0, 0)" stroke="rgb(66, 66, 66)" stroke-width="1px" opacity="0.25"></line><line x1="0" y1="75.85714285714286" x2="268.046875" y2="75.85714285714286" fill="rgb(0, 0, 0)" stroke="rgb(66, 66, 66)" stroke-width="1px" opacity="0.25"></line><line x1="0" y1="63.21428571428572" x2="268.046875" y2="63.21428571428572" fill="rgb(0, 0, 0)" stroke="rgb(66, 66, 66)" stroke-width="1px" opacity="0.25"></line><line x1="0" y1="50.57142857142857" x2="268.046875" y2="50.57142857142857" fill="rgb(0, 0, 0)" stroke="rgb(66, 66, 66)" stroke-width="1px" opacity="0.25"></line><line x1="0" y1="37.92857142857143" x2="268.046875" y2="37.92857142857143" fill="rgb(0, 0, 0)" stroke="rgb(66, 66, 66)" stroke-width="1px" opacity="0.25"></line><line x1="0" y1="25.285714285714313" x2="268.046875" y2="25.285714285714313" fill="rgb(0, 0, 0)" stroke="rgb(66, 66, 66)" stroke-width="1px" opacity="0.25"></line><line x1="0" y1="12.642857142857157" x2="268.046875" y2="12.642857142857157" fill="rgb(0, 0, 0)" stroke="rgb(66, 66, 66)" stroke-width="1px" opacity="0.25"></line><line x1="0" y1="0" x2="268.046875" y2="0" fill="rgb(0, 0, 0)" stroke="rgb(66, 66, 66)" stroke-width="1px" opacity="0.25"></line></g></g></g><g><g><line x1="0" y1="75.85714285714286" x2="268.046875" y2="75.85714285714286" fill="rgb(0, 0, 0)" stroke="rgb(153, 153, 153)" stroke-width="1.5px"></line></g></g><g><g><line x1="26.8046875" y1="0" x2="26.8046875" y2="177" fill="rgb(0, 0, 0)" stroke="rgb(153, 153, 153)" stroke-width="1.5px"></line></g></g><g><g><g><g><g><path stroke="rgb(0, 119, 187)" stroke-width="2px" d="M27.16998178125,-312.84500874791826L27.691869046875,70.00845405295657L27.82401615625,102.86052272196511L28.105304546875,107.47096686785243L29.0380540625,147.32613078543855L29.163928875,156.64931801492446L29.279242640625,138.1748647276562L29.326043625,131.39239479694677L29.412193890625,144.86934742738242L29.7759335,125.02733752048354L29.828256250000003,115.2740532027155L29.91092190625,82.03967900179194L30.400107453125,100.04371511450861L30.700159125000003,114.22248447603798L30.74604875,110.78851740498395L30.799550906249998,108.79504025066319L30.874067937499998,119.89252447993007L31.159645078125,102.98012144809685L31.54171909375,133.57003725619228L31.889054234375,152.8465568206023L32.3322429375,120.18100027057474L32.529042953125,125.39149733679308L32.559064203125,123.63338253874612L32.938833015625,121.36096120791399L33.23641865625,101.2211925619687L33.685343562499995,107.17785621192702L33.832179640625,101.12642812719297L33.86450609375,104.08652437222277L34.357551515625,111.73939092273181L34.462518671874996,103.86143967570881L34.5104990625,114.89143158313844L35.003758921875,110.05666463256885L35.26285303125,118.40875679905845L35.409581890625,132.44841546998836L35.862956375,133.6381552060042L35.892119875,109.44390199689387L36.04640765625,105.25397704920805L36.360933859375,92.79102853536862L36.403070828125,90.69450733917945L36.614720640625,72.99956092326372L36.72488790625,77.3697597965555L36.785198453125,86.26572933731686L37.020650828125,81.60578161645707L37.07828090625,87.3385812473702L37.4139828125,70.06462567947491L37.85567045312499,73.23591067035476L37.9131933125,57.71807732665956L37.9865309375,48.45950437336795L38.193516734375,55.574481228549956L38.769174203125004,72.87706170169005L39.1393469375,56.773389769727146L39.362790812499995,38.031716850476855L39.491882187499996,45.44266654599265L40.281173015625,26.475386295822382L40.615856343749996,20.86942134246616L40.892319890625,13.296098394032214L41.044570515625,36.69390336738738L41.223518609375,19.87604753949962L41.440100484375,21.66923175812465L41.535846828124996,20.62947929005168L42.501566109375005,38.945698528063346L42.702601265625006,33.45114240737394L42.753744609375,40.37630304794229L43.045379609375004,53.90425670343877L43.23317325,63.16230073786377L43.285924875,55.53339793911957L43.409601703125,68.4242909364233L43.90940190625,61.39171949437987L43.983543671875005,54.431625619143844L44.272390984375,76.77725397644974L44.32273018750001,72.82109352920565L44.375749859375006,56.53269890313717L44.559844453125,46.90392986759146L45.027318203125,54.93385133240277L45.490824859375,52.08345203760203L46.3676061875,64.87762569497454L46.597107921875,86.1503300300622L46.904825734374995,80.79182756126063L47.180699578125,77.90271935021079L47.255216609375,93.85331247736914L47.889844390625,92.56731490721741L47.93675259375,75.92494251007167L48.887836515625004,73.66568011536144L49.600305109375,60.209856111668934L49.6446400625,55.3790361375152L49.710794031249996,40.0597370730005L50.046710375,51.00439170442521L50.557554109375,53.73808499557944L50.644615734375,71.94655164681292L50.7288360625,68.65735463873267L50.869453453125004,55.5278268748899L51.147578890625,34.05803562509831L51.627490015625,42.15462938188863L51.793893515625,37.19861444189877L51.851309156250004,27.35847374583767L52.312403390625,35.60009406546521L52.359043546875,21.480185240576333L53.189720812500006,3.8128080243226217L53.344812734375,-2.30541116281875L53.460072890625,8.879809380342065L54.21248046875,19.0474144032737L54.506313453125,10.649858154331376L54.612728062500004,18.584268716166775L54.74760925,33.10840913204931L55.25293121875,32.00812630397243L55.592868265625,47.38378739592979L55.708450078125,34.19132922536422L55.90546453125,43.63844158718284L56.266148406250004,55.374971295273824L56.45399565625,72.35226335501974L57.016358,72.53878202360742L57.139874,72.04481793180891L57.340641109375,63.68542816917586L57.63168640625,54.53374142921188L57.8207130625,59.00000928240941L57.89458678125,40.575129615873536L58.191957984374994,44.09790448444449L58.28572078125,36.59434203190825L58.322443203125,35.97764709587285L58.420173093749995,31.843343059946108L58.518707125,28.499927967216024L58.580786781250005,20.24513143511438L58.937289125,52.77096010093037L59.00558746875,48.95799932656014L59.44068115625,55.83862582156911L59.74089365625,41.471356576423595L59.847737140625,43.00858676853631L60.1100478125,48.410818093259785L60.421679109375,71.89867321952792L60.55639946875,49.86817426286101L61.15157075,53.28226115696841L61.461915421875005,58.2334230384791L61.497404828125,53.504168377949426L61.608161796874995,67.74864743101156L61.642900671875,79.98674824443248L61.68369740625,77.70438284537427L61.736395421875,82.86734579809529L61.829997390625,102.81663300784005L61.969596203125,53.74344391315865L62.23222853125,73.30892810072656L62.47743781250001,79.9559459803996L62.619181000000005,82.85962799190035L62.83394015625,75.8019422087784L62.9880135,76.68972907240808L63.043499203125,64.27376770866886L63.150985999999996,59.331826047263824L63.232901125000005,57.793928259429514L63.373357687500004,74.23159192480603L63.40691715625,48.21757145970704L63.538260125,54.316899889124684L63.58940346875,48.96649550301086L63.884308640625,53.8290555365672L63.924086796875,78.23331778339471L64.2752818125,86.272943736002L64.41284346875,109.52523199281212L64.581713,111.29914927753924L64.73535746875,84.83030685284831L64.8778511875,85.86291255188209L64.99257525,81.67347118292153L65.19591560937499,56.33901234425597L65.411746953125,53.26826834875372L65.60334685937501,50.38770068183718L65.666391484375,50.4240461331985L65.7253081875,34.776643259922224L66.12512690625,49.86817775783428L66.480717890625,71.49929169528104L66.604019453125,64.60108468537429L66.643261515625,61.426873573762876L66.86043309375,68.4824306218926L67.0811965,66.02729677504185L67.24229267187499,91.89175049326971L67.30174546875001,87.85673024501567L67.362056015625,78.28894741003812L67.49817021875,86.11012261582641L67.6404495,61.36667322540241L68.15499228125,51.664217493607254L68.24258999999999,36.035555404486786L68.4164988125,29.988675122285454L68.4692504375,20.837468486970387L68.514764796875,45.80526504869243L68.59651909374999,56.427774251508865L68.62911359374999,57.55693604858434L68.95527303125,69.1272584372517L69.1912615,55.480424752117685L69.26449190625,41.341367849302486L69.38093146874999,34.679180311596745L69.5388646875,6.281019316473701L69.67921403125,0.3699232965963889L69.739524578125,35.120233858112044L69.79265146875001,60.42630682867958L69.825514015625,54.49407749759035L69.996527921875,62.022241286946766L70.20726637499999,71.1784461174551L70.51659246875,90.03028978213378L70.582103125,88.94925858334946L70.679940234375,99.53643864375923L70.963801875,86.39662991281881L71.213782390625,92.7786494770295L71.41347731249999,104.89908709716214L71.560098953125,113.94459780837235L71.73792125,67.02907323644791L71.981790296875,71.79073613161209L72.079252140625,73.15287439168873L72.334486375,59.5257242740926L72.45382084375001,71.82531150772697L73.54096535937501,63.680205214618354L73.6522048125,63.64069763601558L73.695735625,61.485852605214234L73.90754626562499,57.8328457324604L74.017445484375,77.10462702372867L74.24271207812501,96.96451177490468L74.356363953125,121.13184605981132L74.476663390625,138.135654755275L74.79376284375,125.639972434155L75.0925815,116.42800944565553L75.34148982812499,119.61855429512129L75.69890353125001,138.61764441447983L75.784517703125,143.7908330093007L75.848956171875,138.32408084152445L75.9016541875,134.1090000102888L76.15994415625,122.97494059986361L76.29718415625,149.2288551196361L76.50872675,147.0074096524153L76.5604061875,147.5510251648269L76.652667921875,147.80084687507707L77.1235190625,144.33641912779947L77.182864640625,127.41666484487887L77.35907865624999,134.2670349922179L77.78055556250001,121.83669532836316L77.979071078125,112.48532398240455L78.50267384375,109.26251729467421L78.634392078125,96.74830922909712L78.69175410937501,59.15254981300517L78.7605349375,56.552715420868196L78.95599471875,30.644728161110795L79.038177890625,28.275242871342112L79.264248625,22.065434267315908L79.48238517187501,23.735091454165683L79.507581578125,32.43812793115414L79.709420875,59.700074193412306L79.754613578125,74.88238644073235L79.788280265625,75.49063962207995L79.8563105625,60.12372527528081L80.12907506250001,90.90249630467825L80.18214834375,94.84158475470802L80.313866578125,116.43437631081952L80.37653593750001,92.37376745838914L80.866472015625,81.65919891585762L81.0880395625,69.54740963985856L81.130766234375,63.77005831575952L81.22538678125,49.00174530260966L81.29808109375,60.30601582426311L81.73821406249999,58.30819136840275L81.78656971875,75.95498497617086L81.80629796875,68.27205143924479L81.907137203125,84.5239256442838L82.43073996875,84.36911692358767L82.54326604687499,95.42872445759492L82.77861120312501,87.93554861190925L82.81104487500001,101.7313390646308L82.992459,114.97424152506433L83.12541025,107.77883148499798L83.48341365625001,119.60569127959033L84.078638546875,133.70610361702344L84.22300859375,108.16266964022707L84.56026517187499,98.53245187751213L84.626740796875,80.81856252695769L84.740928765625,78.42616660503622L84.8385514375,91.22757275464637L85.048914625,63.344913562493794L85.254077703125,59.533331050935224L85.346553875,61.73021719936452L85.6414054375,39.01485876443273L85.717048265625,51.2310067967063L85.744121,43.35484379915653L86.19422531250001,57.03207448955565L86.474441515625,80.57577902756627L86.720615765625,67.84254376641161L86.780711875,106.75899040630813L86.83228409375,103.95965608596718L87.3371771875,97.17219505800261L87.443055703125,109.9851982350722L87.595199109375,99.34588204532223L87.946126078125,87.43821055991252L87.999306578125,70.04576374824954L88.369318484375,88.48328854462046L88.45230579687501,85.22844283077646L89.599868078125,75.31871762819954L89.6728304375,75.13193540680666L89.72702951562499,70.85054546145206L89.95679929687499,70.42053275726317L90.01662735937501,84.2441130917372L90.051795109375,75.82785661154304L91.1520203125,76.77993705898915L91.3252858125,76.2357339552891L91.43170042187501,75.11496781077135L91.810933140625,69.01282976008254L91.85869909375,93.53797943998535L92.25160220312499,102.65027584230516L92.371365546875,94.68133122129625L92.58805464062499,98.9952789513687L92.698811609375,109.99604732436428L92.780190640625,120.52234821850328L93.02674015625,115.82675061330079L93.580793046875,118.94559616584351L94.02044353125,127.41051244630374L94.081451,135.25250192395046L94.13189742187501,141.24914114052962L94.24109971875001,125.15168715166322L94.42074473437499,150.65434456186597L94.662844671875,149.2481296589397L94.82651409374999,151.9729391438777L95.11900684375,141.2469082721126L95.195185765625,132.25713492545233L95.31693265625,117.78468912726585L95.35279732812499,82.86321469478823L95.50177778125,98.95641059139356L95.61049759375,98.07697767988773L95.75760171875,87.9579674424165L96.19778829687499,91.1032709194251L96.557078328125,97.17279379068462L96.941886421875,103.1114251916022L97.159433265625,92.73827562390181L97.2278924375,58.71998885200556L97.27989353125,37.285954132971796L97.363577765625,29.053436398685214L97.60819734375,20.142757395773582L97.77572664062501,9.391893463920287L98.12070296875,12.30060825750689L98.23038774999999,21.187127241617663L98.387356,54.03978019382052L98.44686240625,33.104068264969776L98.619967078125,40.79140929959884L98.87852509375,76.69246255457568L98.9978595625,65.17330355345963L99.176486,73.76543314531874L99.29914425,86.1773828187745L99.37559121875,77.78667204025622L99.475411875,80.30951181473401L99.511598203125,58.559749729881L99.82805434375001,75.81589530597559L100.50594489062499,56.733720772671546L101.129100265625,48.2917435814383L101.33340559375,64.85335518461764L101.70545465625,73.42132135884886L101.95114642187501,96.57844000937492L102.03097078124999,109.92115032739906L102.168800484375,117.368193391385L102.232702859375,102.21336183218486L102.3795389375,125.87090876390525L102.4391525625,124.37599055628138L102.62287189062499,106.41557928934374L103.64375521874999,110.60209066770017L103.704494640625,100.65751654723528L103.75998034375,103.55092450673344L104.04003571875,126.55314687359801L104.167304375,136.3249683140992L104.38351098437501,124.0427512705431L104.428650078125,121.36113354080857L104.507991953125,122.98416460701341L104.689298859375,97.06762444571036L104.73556375000001,89.91773115018556L104.87526978125001,97.62416682321896L105.0900289375,89.25303685119549L105.21086446875,76.65066779249062L105.86854428125,62.53273107370861L105.924351640625,53.926474047802174L106.37590340624999,64.92883308677125L106.446185296875,56.531560522674184L107.03251103125001,54.60914419306043L107.404399265625,66.79640970636885L107.460581890625,62.617034772426464L107.60355809375,54.961169087912005L107.70954382812499,53.83947504236099L107.75999025,57.08064967820984L108.17910834375,34.07058114030685L108.21936898437501,25.69377669870581L108.28236,61.972370038327746L108.49797690624999,35.81598088157452L108.58418078125,26.931308158698616L108.7191691875,27.61369130152819L109.17956649999999,39.84064746473594L109.47650882812499,46.780394625719694L109.50224132812501,32.57715892987279L109.6665540625,15.267411044042511L109.98552984375,37.60217217751137L110.671676234375,55.361700174972434L110.9739795,53.138187842250076L111.02598059375,72.73783485694379L111.18273440625,56.66867251847171L111.24706565625,42.431657629128416L111.559769140625,57.789910810465344L111.93047796875,61.07021406861225L112.015288,72.55905625385306L112.5357278125,104.7951236083368L112.768338890625,92.10510365141184L112.87979278124999,89.92697698547627L113.053433546875,86.41717938896633L113.529645625,72.16473853817504L113.87907153124999,73.00496868588823L113.92367453125,79.60538253012515L114.14604621875,80.19940809554436L114.625689296875,85.7393759755678L114.70422703125,94.86075230663738L115.063570671875,106.51502238612599L115.12736582812501,87.77492361872866L115.341481671875,74.41875831758367L115.63976423437501,82.5450288309638L115.77528873437501,59.07180225576886L115.928397109375,62.95740277783733L116.067995921875,70.07101433921991L116.25712979687499,70.96485681477749L116.451410171875,67.07474600569941L116.90446299999999,71.03430697246505L117.381854484375,82.40098308304188L117.52665340625,77.49135504820671L117.669844046875,89.84161813756023L117.82429265625001,85.03049357594017L117.8805825,67.24743688697693L118.29385717187499,83.33698846094809L118.365157640625,88.83932365406959L118.835526296875,104.14361143451713L118.99131514062499,94.770680999016L119.015224921875,90.03480879330561L119.09140384375,92.418476090073L119.15632479687501,104.86391600146702L119.250033984375,113.89322894076442L119.388560609375,115.81203084382082L119.763290140625,113.4372861130134L119.78618134375,150.91595035717688L120.168148140625,159.596693345676L120.2168790625,149.7121076066215L120.28153196875,112.66349005052766L120.810817328125,96.088708474046L121.01646289062501,107.66822271289719L121.15402454687501,71.48928553234121L121.20275546875,47.080710880950484L121.328255015625,54.241862597812926L121.637902765625,59.684901568174446L121.686687296875,63.59548977590439L121.774285015625,74.6652315708939L121.826178890625,76.11736411830722L121.869280828125,73.19780877182133L122.1043579375,79.86602577402734L122.80326335937501,108.30999757008694L123.34300254687501,124.00441736746019L123.63576334375,112.31524590722181L123.998430765625,115.80183296367888L124.070481765625,124.19951171003433L124.61102509375,131.09876833736223L124.93627317187499,145.6630147760031L125.366327578125,126.21832587995405L125.41591625000001,125.11365648972483L125.614967859375,133.42615242432962L126.02197023437499,125.55493317557675L126.14570067187499,127.89089369632354L126.333547921875,131.8473203277826L126.799091734375,150.39488447396482L126.861921921875,166.01712982971696L127.0162633125,148.7378294553837L127.270210921875,160.06879042412604L127.444870265625,155.32589066577893L128.166559671875,171.0646760268088L128.303906890625,166.96255386914703L128.377030078125,183.1164417142723L131.9614065,185.34565339455548L132.311797375,154.2011985058098L132.47873696874998,135.8660218119498L132.58981559375002,135.67077222933312L132.761204765625,121.77311334649582L132.932808375,106.04749554551502L133.104519203125,114.9668160769595L133.21613392187498,110.33307883708902L133.616917609375,121.14323111428804L133.74734921875,103.75406268709837L134.339893640625,113.94080208700387L134.39859590625,138.39226239816546L134.47756251562498,120.88180406829801L135.25184271875,129.0418009982397L135.474911328125,115.53142855307408L135.6958355625,101.99444909251355L135.924157890625,82.56568832044259L135.97653425000001,75.53028675513276L136.12406725,75.68854290026225L136.26929504687502,73.513772042751L136.38160668749998,71.7064780787738L136.82747585937503,81.62506742461099L136.9541548125,74.77603255346015L137.104421890625,79.94489045155981L137.242305203125,73.52954820929094L137.362819078125,54.36092833685008L137.490731046875,51.80606329453661L137.672359609375,53.59093681198153L137.821822546875,50.08167249800072L137.867283296875,42.86264913340927L138.6482110625,41.25875547386068L138.97919534374998,43.14369116924429L139.317738546875,39.50083256308618L139.3871626875,56.75262962418103L139.412091046875,74.59699384822497L139.53667923437501,82.83368369033944L139.585463765625,79.8542635012761L139.71450153125,86.8175734178414L139.8458445,88.33191495825054L140.028813296875,88.73474908199182L140.226256625,82.97493791226852L140.487870375,69.08311261600362L140.63910242187498,79.32330190216494L140.980272484375,86.93295909806308L141.056558625,102.30174396419073L141.140457296875,76.60180385589257L141.34792557812503,85.10263400642656L141.48618415625,108.61809743987423L141.7378265625,124.83197575652139L141.873404671875,94.38625230764727L141.969365453125,88.0159609273643L142.071116046875,97.46222313607643L142.10933953125001,83.80528774660884L142.6161625625,74.25990733507922L142.64730960937501,77.14104984198883L142.87402365625002,71.14724470016688L143.0506129375,53.22942580517579L143.249557328125,48.410355680853186L143.28788803125,52.09054016757299L143.403952328125,49.075071749339834L143.45702560937502,58.78824594698811L143.592978984375,80.05307858091084L143.8736240625,105.02213415277615L143.938008921875,104.17233745052162L144.29386795312502,86.98340542745031L144.348227859375,85.99998407285639L144.55242596875,101.59832116309092L144.66672115625002,104.86036867646122L144.7802658125,69.59246941018469L144.987466046875,55.530380461741586L145.470593734375,20.21755914288369L145.59057151562502,31.748861954251925L145.715052484375,61.94775745664369L145.74598509375,62.0624995813268L145.9839035,74.00587064061712L146.095571828125,99.01026366556545L146.17453843750002,91.00064848975794L146.577037625,68.32713983501536L146.80530634375,70.45589174795485L146.9662416875,65.62472094451863L147.5057664375,80.91305815005191L147.6959725,90.39188538361275L147.851171640625,69.02079525710232L148.001706765625,68.75781377944942L148.10415428125,82.30392409836931L148.16966493750002,83.38881633963928L148.2588709375,122.26646486352308L148.36421335937501,126.47913999782851L148.41230096875,137.00274490272722L148.50761843749999,118.01058704292915L148.6015420625,87.60265192052644L148.665498046875,69.36352593940339L148.90561443750002,76.99625185484565L148.968498234375,66.75782423119999L149.08590276562498,72.24319613624745L149.240404984375,77.33209062724913L149.512847828125,85.00076239113241L150.16168209375,91.28316256190863L150.37547628125,87.17068464106521L150.539574578125,90.24404552285513L150.87763529687498,86.02362067777209L151.05331321875,84.99268142398348L151.340123375,96.71097478782593L151.424129265625,75.4514999806546L151.533599609375,82.95245146007488L151.65867028124998,46.0604387084898L151.77725421875002,55.349657535989486L151.83986996874998,31.657790010303145L151.9085971875,40.23307299736259L152.37006668749999,51.593125748519796L152.438740296875,45.21526541630857L152.48870423437498,48.443067876914455L152.580376265625,62.42062512274219L153.21816700000002,55.24420383156293L153.25880290625,30.55870086942742L153.29547171875,34.71295013195623L153.356747234375,30.391788771118524L153.765893984375,26.294743057720897L154.24006890625,20.60072736464907L154.469248984375,21.893913337326182L154.89303109374998,23.102813202351424L154.964599609375,43.167043044042366L155.115778046875,32.21941738437252L155.739791171875,54.35792143910593L155.939646921875,65.18432165244818L156.135428359375,54.29510146229906L156.2033514375,66.82680302546004L156.230745828125,43.98394275394032L156.35613815624998,35.584415511457784L156.78227907812501,42.466243726586L156.91238903125,54.32333088746009L157.01103028125002,54.42529222524842L157.136208171875,60.484642737134614L157.665654359375,53.021797605300314L158.09050865625002,44.2769639286014L158.116830859375,54.626075334433814L158.44867289062498,64.16335258386114L158.70514014062502,57.38045251470296L159.074615953125,51.998796906322006L159.382012109375,78.20379708715332L159.42988528125,107.2837937861381L159.49528871875,125.71219470048958L159.53887314062501,113.0059148226951L159.6725213125,114.69591975108148L159.95697265625,69.91919553862266L160.93561179687498,92.90535857719861L161.06481039062498,117.30335944216029L161.278819015625,107.66363266235552L161.34395440625002,96.31873604987004L161.917306671875,108.34290548920744L162.033102921875,108.57205701914535L162.21457065625,127.97694386550839L162.283994796875,147.03536773130344L162.326882296875,129.55020026840404L162.892139546875,116.77713489692299L162.970623671875,108.40153036216165L163.084597203125,107.25757947697188L163.11917524999998,90.4344939076342L163.21985365625,72.0601416351519L163.395424359375,65.14808511034518L163.48682834375,45.90296617507572L163.64572653125,29.700443210121442L163.72689112499998,39.053263641148064L163.8433306875,11.144490141724068L163.937736796875,1.0991614874930797L164.457747734375,-15.651502528201096L164.7182356875,8.727391343822136L164.921683265625,0.32817671661458814L165.047772515625,7.310486857385821L165.20897590625,12.348739743344545L165.355758375,-0.5189573176207625L165.684115796875,8.441146642964657L165.713708171875,11.673332350475532L165.95285959375,28.087521180610267L166.09760490624998,32.45838862943759L166.261810421875,39.70677259389268L166.37471176562502,34.698090423895714L166.58121507812498,33.65232897514212L166.7583940625,41.97131514989031L166.8844833125,55.26897018650305L166.918418046875,64.49386961455748L166.974332625,82.4148716864853L167.03517926562498,89.59616130557555L167.186196875,93.10915158402337L167.385462921875,93.06420317772903L167.735746578125,76.8133544878133L167.8190019375,82.32792108718395L167.960798734375,100.05120104087898L168.39530271875,88.67139172284067L168.67970045312498,86.05993326262762L168.83704396874998,83.96079462422966L168.97760775,89.43370757755689L169.041242078125,97.29486415316578L169.147013375,89.26806816341471L169.339202984375,101.76438752471725L169.399245484375,96.68688710283591L169.54297221874998,111.92635982029L169.906711828125,115.37384797759596L170.0440054375,134.90116954960212L170.207996515625,129.13592114811607L170.231209375,144.38894728179542L170.39863145312498,155.77091916581827L170.700130578125,162.26465013424922L171.42959334374999,147.8117424537347L171.64638965625,160.27164162278012L171.73479151562498,163.93806801095022L171.98482564062502,158.70381625659314L172.23888046874998,154.29609554372942L172.760446078125,174.20531218216826L172.93408684374998,165.72451105201026L173.149274875,156.17099314185427L173.34183975,142.0683142636202L174.21363540625,140.45921946022457L174.81127271875002,138.35467582538877L174.86981415625,114.43930953103553L174.92320909375,97.86627501324863L175.073583390625,116.799131079523L175.3804970625,116.43135781524502L175.6854271875,102.56256635268838L175.72011245312498,97.01833653402338L175.80186675,109.11033685672976L175.853278140625,104.95220271124985L175.90769165625,110.16228113336327L175.97486420312498,103.29225091132194L176.02391678125,110.9145598662769L176.418213734375,93.58902083488616L177.79077456250002,94.90311398202874L177.84770771875,90.90741992941176L177.89552728125,93.68364309448145L178.240503609375,101.25441547197197L178.872236484375,86.8564952245751L178.96964471874998,70.62621811470532L179.21989328125002,53.32927586788734L179.624054359375,39.98088720494708L179.6797545,45.4370525654731L179.79549714062497,53.813901355284216L179.89730134375,55.111530966980915L179.93648979687498,43.68086323544627L180.07163903125002,63.50283413592535L180.97034659374998,67.91352178544183L181.31376824999998,80.7524607351437L181.434711,87.14769319951887L181.574095375,92.82303749618269L182.029292578125,87.94922875282634L182.089227859375,85.45615448419703L182.37823600000002,66.51530608889405L182.4955333125,38.08165224595249L182.56549354687502,51.2195112651338L182.80502023437498,56.491271841621646L182.97153095312498,64.67924319404081L183.03806018749998,52.955709164326805L183.27474557812502,21.894570056902907L183.37354765625,6.641892568787655L183.502263765625,15.019640783378488L183.696115265625,30.145462247075766L183.74452453125002,37.52361072097155L184.1629993125,16.965181452475345L184.475595578125,21.41032047317732L184.57348629687502,24.30760144697832L184.626130703125,29.8750508683394L184.697645609375,26.105174702117544L185.35666565625002,32.82711821547853L185.82194142187498,38.327194115198594L186.30319278125,16.195948168138887L187.124970890625,20.506167717125656L187.440515671875,-2.8490689706440495L187.520500859375,11.57563126168966L187.57394940625,3.1258171480999404L187.743837515625,-9.81924459102606L188.28229007812502,1.0955773618633273L188.55484014062498,1.6508091000335523L188.826103578125,20.728549882140253L189.07672740625,20.40587032569125L189.183195625,36.83863651081535L189.3056394375,22.42730267432285L189.4231511875,54.89153531584464L189.53835773437498,71.87579743488291L189.702831296875,83.29635523496262L189.76458929687502,88.58156751363614L189.917054359375,84.28825646839648L190.002078828125,94.11985094227116L190.05654595312498,105.7306778877787L190.32019685937502,80.60730272348792L190.447519125,56.53270925748471L190.591781953125,74.41202181789566L190.643032515625,86.86969487996099L190.744139796875,82.03327150504144L191.029448890625,108.23017675798046L191.11726104687497,99.90297228410702L191.17703550000002,90.23451695505186L191.2450121875,83.33196849171836L191.585699765625,84.12184001636085L191.68836171875,81.98869957601029L191.856641546875,70.4167921013048L192.32416890624998,74.75885416353218L192.47942165625,81.72273788663848L192.59371684375,88.42438231590556L192.70951309375,80.76002784618743L192.807671859375,94.37828052338517L192.947485109375,86.29489270132511L193.436509828125,75.59846308114061L193.634435640625,70.54921574830271L193.700964875,81.2372389439615L193.876213921875,87.9798490205443L194.3247635625,91.2488366874001L194.55019098437498,85.76524777943763L194.812662484375,78.1400349067604L195.06864725,55.067195905876346L195.4707175625,45.39147944693822L195.59359025,55.56277682974174L195.924252875,61.66122958277189L196.262367203125,50.396579638445075L196.43922453125,61.17234241577876L196.49958868750002,81.30843295728273L196.76350764062502,70.44625360114158L196.82580173437498,61.57252305643824L196.87989359374998,60.56134455521973L197.008180828125,66.29830714783283L197.189273296875,69.27663620383407L197.427513359375,52.38483216247566L197.56845240625,52.30887034336752L197.648491203125,21.291278807634626L197.76316165625002,41.5446357632381L197.987999375,36.230486069460305L198.5491823125,47.27355694861047L198.831435671875,7.783537232881521L198.980791390625,-3.3172825918824964L199.42532032812503,-6.11148277902049L199.479036921875,0.015138919204658374L199.6848433125,2.1169105678383304L199.86486359375002,-0.6284526825131027L201.103829859375,6.018666842584022L201.25924343749998,19.958013803388113L201.39064001562502,33.285076183032324L201.69910835937497,43.10328167889463L201.86899646875,47.15049382000845L201.93418546875,49.31900571125658L202.03775878125,59.768245413966284L202.072980140625,59.38956017431369L202.432699046875,41.131087915470744L202.585539375,23.20581178592274L202.67120715625,29.96989511114088L203.139699484375,41.08004437954723L203.46269596874998,48.275436684241576L203.53303146874998,60.55155601105407L203.76810857812498,30.605886732834765L203.88149240625,36.95719539065205L203.999808296875,3.7353820130152755L204.13817409375002,-20.32194830802596L204.397697078125,0.4753424770023511L204.58640207812502,3.154339920831795L204.82753704687502,-10.665201850377663L205.23416415625002,-0.9211918710352278L205.27683721875,4.737614750081862L205.34610053125,-3.2738487285124878L205.674136296875,7.088976656388418L206.1123929375,20.655108545321976L206.30222373437502,16.117441572285365L206.414696203125,25.15218301839329L206.46959220312502,19.36030419867313L206.51092503125,15.228544906224752L206.749647578125,20.41433736202482L206.960546859375,17.239407557590347L207.359775875,33.210340205542344L207.733808484375,51.43678053669781L207.92900021875002,89.05851738425967L208.15759059375,58.19542331686988L208.241596484375,52.9879570298573L208.58260571875,40.111881893016744L208.78251507812502,57.439817354163516L208.898204109375,83.568625789425L209.01962934375,75.0001596470318L209.13880298437502,85.51334152905173L209.30745807812502,63.910510124500824L209.433440109375,47.01235009680842L209.598556984375,39.30574053915746L209.811225375,38.25541957274009L209.9377435,50.40527311821111L210.18509715625,46.58099831791793L210.44767587500002,65.4276776069492L210.50396571874998,71.49876299457466L210.709128796875,50.246194433544545L211.10589178125,41.04416074591593L211.566128265625,25.133435958454754L211.7070673125,6.202937408993317L211.85545806250002,2.8533643372809587L211.8992033125,12.14211432046704L212.04855903125,15.931900434826293L212.339068234375,10.42753686256977L212.59859121875,27.051294717934443L212.66190389062498,33.63758144700325L212.874411453125,44.09217262267108L212.97900334375,42.84765588778624L213.350462703125,46.62389564078503L213.393886296875,43.86853330062069L213.518152828125,30.987376427976077L213.718759109375,35.13909058167535L214.103888859375,21.821334054172144L214.43149574999998,26.464014890600644L214.559139671875,58.28643643610288L214.9004705625,44.76928665170334L215.3366364375,38.68267569414861L215.44610678125,55.06068802857595L215.507543125,54.888399888709756L215.548661515625,56.982750099455885L215.85321637500002,71.0961235840895L215.9078979375,76.41846711441201L216.098372046875,78.40770148151155L216.214811609375,93.89469800204277L216.2771593125,88.97938836364251L216.391829765625,109.38351284460825L216.68753907812498,129.88588416140337L217.179297875,108.36222232804558L217.51660806249998,96.73204985904121L217.64393032812498,121.73767687118536L217.735066265625,133.8793547125411L217.97062585937502,142.46462874891006L218.01560412499998,133.90771179468564L218.1770755625,130.15803917834165L218.290084125,153.245575331956L218.65259071875002,148.83976938912704L218.68475634375002,129.53846887111627L218.8688509375,143.03938744173695L219.06323853125,146.73210263312086L219.73035359374998,138.31286444188652L220.00461915625,144.14303813857404L220.086373453125,131.91311851159315L220.2313868125,152.36384203129387L220.745822375,134.00889132018733L220.79256975,113.68488653247182L221.11197440625,98.31851373215764L221.170355015625,95.50005474894762L221.26958596875,87.12891762709806L222.02917720312502,78.58334793470253L222.16636359375,67.22059146735775L222.25717787500002,76.85689134023752L222.34134459375,86.70300458511768L222.5215793125,89.29566847059421L222.655549140625,92.08717009730975L223.132136484375,96.12991995346283L223.38227782812498,83.45024183827644L223.473949859375,74.19055319926956L224.040279296875,54.828006543612304L224.073088234375,55.398453468830425L224.429697796875,66.5922742951618L224.851603578125,59.85367228490821L226.176612890625,66.0443004932475L226.241158578125,68.70806913761919L226.35604346875,45.218738866284276L226.498483578125,38.836364039592986L226.63379364062502,24.89217077920929L227.925565140625,0.46760170031178117L228.07963848437498,17.34696296169803L228.286356234375,21.864558133523467L228.33224585937498,30.84722101954072L228.382531453125,39.73638447136898L228.517627078125,32.17321054981521L228.72707890625,19.151634842978176L228.902167125,22.56889938832672L229.03849576562502,28.182519145209845L229.13182968750002,39.06552430259403L229.42383995312503,36.15784395305457L229.583167015625,29.40707501985932L229.6121696875,31.587821909078144L229.7712823125,37.25076157567636L230.06023684375,61.904677214754415L230.54958321875,66.04616305854252L230.81773731250001,67.62192311899307L230.91048153124999,67.27571399844734L231.025259203125,55.35891782672117L231.06723534375,57.09738359254819L231.383209,40.374534669695535L231.651255875,44.29056919155167L231.76195923437498,54.62146186441943L231.914585125,73.7207769919174L232.061957296875,84.02176233823955L232.54964178125,68.01904441874292L232.679537296875,67.68720787335253L232.733682765625,86.77865025930838L232.97674767187502,79.92229109739407L233.253264828125,61.52922999353452L233.38101596875,48.72641470420468L233.8571744375,52.11102802133406L233.976133640625,68.54428848209747L234.103616734375,64.38420437478652L234.760438796875,81.01163345756864L234.952038703125,94.73672739482379L235.07925375,110.92273054787013L235.617652703125,96.76229545585522L235.9076258125,107.92723309801619L236.27184790625,96.64075437729397L236.4338554375,88.24555344808411L236.51116015624999,88.49329575498653L236.8592994375,84.56290759529509L237.16326459375,86.80066197985103L237.51215440625,100.62590456251593L237.571285546875,97.43042995503018L237.616531859375,106.69749785051975L237.74835731250002,92.05541777951154L237.90028628125,101.39949151558325L237.983005546875,90.51865503126608L238.364597078125,87.86659115480185L238.59388437500002,100.02259133176184L238.66036000000003,93.89176948413616L238.9775130625,111.39741721164144L239.033105984375,126.59302287418626L239.08478542187498,125.34137746360504L239.430780328125,108.91011192718136L239.49141253125,99.49332917307284L239.74037446875,89.03596112801942L240.358705,89.04482036608553L240.71820946875,88.51864747536233L240.92106734375,112.32545207058836L241.0361130625,106.61037129439447L241.16397142187498,121.12944603739125L241.2145250625,120.43866632644384" style="fill: none;" fill="none"></path></g></g></g></g><g opacity="0.2"><g><g><g><path stroke="rgb(0, 119, 187)" stroke-width="2px" d="M27.691869046875,433.7192437137876L27.82401615625,163.71897993130344L28.105304546875,119.96469419768879L29.0380540625,287.79092321225573L29.163928875,196.72188883168357L29.279242640625,45.188247378383366L29.326043625,92.5180486461946L29.412193890625,231.0546186012881L29.7759335,-14.367965110710683L29.828256250000003,40.91503156402283L29.91092190625,-190.24284368327687L30.700159125000003,245.32648129974092L30.74604875,77.3616796284914L30.799550906249998,88.46662349786078L30.874067937499998,237.9430483153888L32.529042953125,190.67552985676696L32.559064203125,101.03657452442818L32.938833015625,91.45539766762938L33.23641865625,-169.70317516156604L33.685343562499995,188.9604542063815L33.832179640625,16.44807962753943L33.86450609375,146.24854362756014L34.357551515625,222.56276449773992L34.5104990625,279.4794650673866L35.003758921875,36.927090231861406L35.26285303125,246.35848069616725L35.409581890625,350.11237185767715L35.862956375,152.2912901618651L35.892119875,-273.89990350178306L36.04640765625,38.205981340259335L36.360933859375,-108.51157736778259L36.403070828125,56.532782721200164L36.614720640625,-217.7241064948695L36.72488790625,149.73268843442202L36.785198453125,234.65366445268904L37.020650828125,3.3357255884579167L37.07828090625,184.26027805464608L37.4139828125,-223.785998493433L37.85567045312499,127.49861100209611L37.9131933125,-209.2678492963314L39.362790812499995,-292.0305686678205L39.491882187499996,176.47260024930748L40.281173015625,-310.12852876526966L41.223518609375,-282.4932356306485L41.440100484375,54.000539564660635L41.535846828124996,1.8322061406714605L42.501566109375005,370.9211978188582L42.702601265625006,-66.37637150287628L42.753744609375,166.48360380956103L43.045379609375004,300.7828798336642L46.904825734374995,-19.05855204590731L47.180699578125,24.01418341909137L47.255216609375,391.6459815502167L47.889844390625,68.53689696959087L47.93675259375,-235.31900009087147L48.887836515625004,31.37951181190356L49.600305109375,-191.83067853110174L50.046710375,256.42826958213533L50.557554109375,105.07921583737647L50.644615734375,414.1168504612786L50.7288360625,6.813107077564509L50.869453453125004,-191.46643901722769L54.506313453125,-148.0063010879925L54.612728062500004,168.53254998156L54.74760925,307.6662794479302L55.25293121875,11.203564722623142L55.592868265625,338.1830096968582L56.45399565625,393.71717696530476L57.016358,76.07007433048317L57.139874,62.69110616083657L57.340641109375,-94.63485067657061L57.63168640625,-118.81983443243163L57.8207130625,143.61408535710405L57.89458678125,-308.5373593568802L58.191957984374994,110.85621485007661L58.28572078125,-105.62041916166032L58.322443203125,24.287998881723215L58.420173093749995,-46.532938503793304L59.74089365625,-231.0584490128926L59.847737140625,72.17039170462107L60.1100478125,150.90107983563627L60.421679109375,517.5395462853568L60.55639946875,-368.1513897350856L61.15157075,118.0674799510411L61.461915421875005,152.19193156063557L61.497404828125,-36.24861680184091L61.642900671875,312.26998883485794L61.68369740625,34.382081077567186L61.736395421875,180.87200657384736L62.47743781250001,206.1531941464969L62.619181000000005,137.98970842787196L62.83394015625,-58.20200712765967L62.9880135,93.5466758034059L63.043499203125,-171.48330300194877L63.150985999999996,-34.50978476234847L63.232901125000005,28.590213127434275L63.373357687500004,386.3812567591667L63.40691715625,-445.7993265049798L63.538260125,170.14856845991952L63.58940346875,-52.64487716981345L63.884308640625,146.1777124745505L63.924086796875,541.7236634322575L64.41284346875,551.1547803538185L64.581713,144.99169688458954L64.73535746875,-417.90928801468436L64.8778511875,105.476179259164L64.99257525,2.098142055528496L65.19591560937499,-424.87750227110723L65.60334685937501,-4.328903164182374L65.666391484375,51.11443971736091L65.7253081875,-262.4544859273093L66.604019453125,-66.43856953510215L66.643261515625,1.1283501109906493L66.86043309375,202.51375678181648L67.0811965,19.387772645269145L67.24229267187499,583.2361165625708L67.30174546875001,11.203239744263028L67.362056015625,-103.47213322775704L68.59651909374999,258.2357144440923L68.62911359374999,79.0090173075774L68.95527303125,288.94398411256924L70.51659246875,448.19734050546367L70.582103125,68.41064523160458L70.679940234375,300.6837473043374L71.73792125,-824.3346478598457L71.981790296875,162.25931843263763L72.079252140625,99.03268259870154L72.334486375,-199.38234668970108L73.54096535937501,-91.07261686665672L73.6522048125,62.890072984354845L73.695735625,20.544799223542235L73.90754626562499,-11.572670810988965L75.784517703125,242.07997574125017L75.848956171875,34.45723585571562L75.9016541875,54.02352354143348L76.15994415625,-88.56952992081642L76.29718415625,648.0472762329237L76.50872675,104.80042443796992L76.5604061875,157.8796086226191L76.652667921875,152.54741078828062L77.1235190625,78.51293195358345L77.182864640625,-194.055697036641L77.979071078125,-65.18932445985931L78.50267384375,48.02965092658999L78.634392078125,-141.01994456137928L78.69175410937501,-655.1620287895201L78.7605349375,7.156180609549792L78.95599471875,-461.6040132216044L79.264248625,-95.92027667590548L79.48238517187501,55.458411327430184L79.507581578125,197.7949956357479L79.754613578125,363.345019698143L79.788280265625,87.04740061078753L79.8563105625,-231.84646030834736L80.12907506250001,675.6968872547149L80.18214834375,169.68399069990429L80.313866578125,526.695985845157L81.29808109375,275.08660540836195L81.73821406249999,20.349619104393895L81.78656971875,411.24328818491523L81.907137203125,393.3088911090578L82.43073996875,81.42775706201792L82.54326604687499,305.5608718182359L84.626740796875,-255.74493560620715L84.740928765625,32.970695349786965L84.8385514375,334.4540290193898L85.254077703125,-12.886666647025523L85.346553875,103.47101567898478L85.6414054375,-392.57657488754813L86.780711875,846.1710022687912L86.83228409375,50.772336410624646L87.3371771875,-31.789489816342066L88.369318484375,438.7961027537073L88.45230579687501,23.38640058466368L89.599868078125,-112.96598510231291L89.6728304375,71.58307456331595L89.72702951562499,-10.495833820530352L89.95679929687499,62.250294209591L90.01662735937501,346.89205296124726L90.051795109375,-84.08096648965562L91.1520203125,94.86946018465929L91.3252858125,65.89587790412563L91.43170042187501,53.820416776197305L91.810933140625,-46.92776366216796L92.780190640625,320.52202774797166L93.02674015625,26.610411988837388L93.580793046875,178.2036516474826L94.42074473437499,635.2047719785145L94.662844671875,122.53004982322454L94.82651409374999,203.74431324643749L95.50177778125,404.72710469790866L95.61049759375,81.36775381118059L95.75760171875,-104.30321122067315L96.19778829687499,150.86403230258395L96.557078328125,212.4937197651182L97.77572664062501,-194.8745106288365L98.12070296875,67.56618660794838L98.23038774999999,190.03098002289022L99.37559121875,-81.63682779244013L99.475411875,128.2434661132949L99.511598203125,-354.6857182809284L102.3795389375,575.3642929111207L102.4391525625,95.97254506498575L102.62287189062499,-234.83222960574284L103.704494640625,-88.28938915474075L103.75998034375,158.52567502217633L104.04003571875,563.5953664439064L104.38351098437501,-109.31936995472228L104.428650078125,70.4103972156133L104.507991953125,153.82175455455268L104.689298859375,-395.3466339111328L106.446185296875,-103.01661718317439L107.03251103125001,18.083234150494846L107.404399265625,298.35445313368524L107.60355809375,-90.50027816636222L107.70954382812499,32.52728828149184L107.75999025,118.66296747220414L108.17910834375,-403.1207191433225L108.58418078125,-141.8774729669094L108.7191691875,40.57897097085204L109.17956649999999,272.1528138092586L110.671676234375,392.79273127658024L110.9739795,10.891453621642922L111.02598059375,445.1311272893633L111.559769140625,349.59672068698063L111.93047796875,123.3959758579731L112.015288,290.8470573893615L112.768338890625,-149.0052751473018L112.87979278124999,48.542570395129076L113.053433546875,19.731025150844033L113.529645625,-198.63163725818907L113.87907153124999,88.96934147179127L113.92367453125,205.01324541653906L114.14604621875,91.48589382533517L114.625689296875,190.99876557929176L115.77528873437501,-386.91950230939045L115.928397109375,136.78381263996874L116.067995921875,205.2296339060579L116.25712979687499,87.94786383850234L116.451410171875,-6.837359317711416L116.90446299999999,146.26596529356073L117.381854484375,298.36782905459404L118.99131514062499,-83.31499720471245L119.015224921875,0.053236918789988597L119.09140384375,137.7081547124045L119.15632479687501,341.32727423736026L119.250033984375,285.45017473186766L119.388560609375,152.26926699067866L119.763290140625,68.317136240857L119.78618134375,863.0105707986014L121.328255015625,190.30374519314086L121.637902765625,163.1026419869491L121.686687296875,137.8966657104237L121.774285015625,284.9903256424836L121.826178890625,103.70788251502174L121.869280828125,17.726257196494497L122.1043579375,206.56214879878928L125.366327578125,-243.23076311179568L125.41591625000001,104.1249380771603L125.614967859375,291.3635751690183L126.02197023437499,-23.998232539210985L126.14570067187499,172.2741435872657L126.333547921875,207.01942632028033L127.270210921875,375.35704881804327L127.444870265625,65.2107952620302L128.166559671875,470.10159787109916L128.303906890625,89.02223287735667L128.377030078125,490.0403107575007L128.750901859375,353.45437395572657L128.79148415625,120.51462352062975L128.865357875,140.92916124420506L128.966625984375,261.99864358561376L129.05459896875,511.9605815495763L129.63915559375,22.493878132530625L130.1532695,93.48373244037586L130.35945115625,241.17312598228455L130.5669194375,170.9355812711375L130.607501734375,627.5690050721167L132.47873696874998,-212.5023353653294L132.58981559375002,131.9610301596778L132.761204765625,-142.28240542326654L133.104519203125,284.43390617200305L133.21613392187498,22.29207128073489L133.616917609375,326.53612437844276L135.97653425000001,-58.14234298467636L136.12406725,78.69540965769973L136.26929504687502,32.19312575033733L136.38160668749998,37.36789276344436L136.82747585937503,270.0782649942807L137.362819078125,-309.84284923757826L137.490731046875,3.2636274908270213L137.672359609375,87.50353364327124L137.821822546875,-16.594349467328612L137.867283296875,-94.29879479323114L138.6482110625,10.78477594256401L138.97919534374998,78.957469381392L139.317738546875,-29.713480953659346L139.53667923437501,239.33079069001334L139.585463765625,23.24527990924462L139.71450153125,219.12046183219977L139.8458445,117.10440422594547L140.028813296875,96.38859743305616L140.226256625,-26.461474312203283L142.6161625625,-107.10232048375266L142.64730960937501,131.88275747320483L142.87402365625002,-42.735052994319375L143.249557328125,-43.15197668118137L143.28788803125,122.01404541518008L143.403952328125,-8.218828197036453L143.8736240625,579.4341900178364L143.938008921875,88.02620010769793L144.29386795312502,-239.60630301066806L144.348227859375,67.31497833558493L144.55242596875,397.9667258773531L144.66672115625002,166.83927143045833L144.7802658125,-600.4976166486739L145.715052484375,635.7267720018114L145.74598509375,64.24259995030506L145.9839035,300.9299207670348L146.577037625,-362.46952460493355L146.80530634375,110.90217809379101L146.9662416875,-26.167524320738668L147.851171640625,-337.02991714647834L148.001706765625,63.76116570404598L148.10415428125,339.68002015777995L148.16966493750002,104.00176892376372L148.2588709375,860.941786817142L148.968498234375,-127.77230061803544L149.08590276562498,176.46526233213288L149.240404984375,174.02108595626694L149.512847828125,230.70552590489388L150.16168209375,210.64876580664088L150.37547628125,9.033604145050049L150.539574578125,148.63790227685655L150.87763529687498,5.835548621203215L151.05331321875,65.40483560200249L151.340123375,319.3585487008095L152.438740296875,-75.96408089569636L152.48870423437498,109.77131462842226L152.580376265625,327.9942127934524L153.25880290625,-438.4658554111208L153.29547171875,113.64368611999922L153.356747234375,-51.71027708479338L154.24006890625,-87.5855708037104L154.469248984375,46.46444681818997L154.89303109374998,46.07191063782999L154.964599609375,424.38741003615513L156.35613815624998,-124.00660209570611L156.78227907812501,173.2209798140185L156.91238903125,279.60798694406236L157.01103028125002,56.36255764322623L157.136208171875,175.61230246296952L157.665654359375,-88.77225989954812L159.53887314062501,-128.41340285539627L159.6725213125,146.80601339042187L159.95697265625,-780.8385644980839L161.917306671875,336.8021248366151L162.033102921875,112.92593608796597L162.21457065625,496.66979394640236L162.970623671875,-50.73495579830236L163.084597203125,85.52251265836614L163.11917524999998,-229.2041319097791L164.921683265625,-159.25690120032854L165.047772515625,139.97437953203917L165.20897590625,108.07554457655975L165.355758375,-245.00520147596086L165.684115796875,178.68312189408712L165.713708171875,73.08486079318183L165.95285959375,339.9571089531694L166.09760490624998,115.50487015715667L166.261810421875,177.42606791853905L166.37471176562502,-60.4668708060469L166.58121507812498,13.782861448824406L166.7583940625,200.03205247010504L167.03517926562498,226.04066406829017L167.186196875,159.85596687453133L167.385462921875,92.21018345813667L167.735746578125,-231.9527706205845L168.39530271875,-127.54498531988688L168.67970045312498,36.44222251858031L168.83704396874998,44.07716049466815L168.97760775,193.4190536907741L169.339202984375,339.1944553894656L169.399245484375,0.21437908709049225L169.54297221874998,401.47634145191734L170.0440054375,505.92027941771914L170.207996515625,19.596201519881L170.231209375,434.19644382170264L171.73479151562498,233.6001693861825L171.98482564062502,59.25303292380914L172.23888046874998,70.54940199931818L172.760446078125,552.480428312506L172.93408684374998,4.58928957900831L173.149274875,-25.345847151109155L173.34183975,-125.88258442282677L174.21363540625,109.88641819570746L174.81127271875002,98.36834676350867L174.86981415625,-339.95265006167546L175.073583390625,476.52339633873527L175.3804970625,109.44366579396385L175.6854271875,-160.94447143588746L175.80186675,338.8583429881504L175.853278140625,25.947653947131986L175.90769165625,209.15377115351814L176.418213734375,-235.59622076153755L177.79077456250002,119.87088377773762L177.84770771875,14.989232929689532L177.89552728125,146.4318832308054L178.240503609375,245.09909064429146L179.624054359375,-213.63849739091734L179.6797545,149.10419441546713L179.79549714062497,212.97402836169516L179.89730134375,79.76649358921819L179.93648979687498,-173.50182366371155L180.07163903125002,440.12028124502723L180.97034659374998,151.71658712625504L181.31376824999998,324.6923007794789L182.029292578125,-4.653137370944023L182.089227859375,38.08774338024005L182.37823600000002,-293.3608134218625L182.56549354687502,300.83883262957846L182.80502023437498,156.6547227948904L182.97153095312498,220.25069889000483L183.37354765625,-283.1589797054018L183.502263765625,174.1968568606036L183.696115265625,317.53607005732397L184.1629993125,-373.6449746489525L184.475595578125,105.86796186651503L184.57348629687502,79.35593994919743L184.626130703125,135.65658987419945L184.697645609375,-45.5224724560976L185.35666565625002,160.5440449693373L185.82194142187498,142.82863620987962L186.30319278125,-404.29772482599526L187.124970890625,102.40033914787429L187.440515671875,-446.5985660382679L188.28229007812502,208.47719446676118L188.55484014062498,12.2002121252673L188.826103578125,383.2056247421673L189.07672740625,14.274958753160062L189.183195625,349.06119402817313L189.76458929687502,189.00060080843312L189.917054359375,2.7153466088431193L190.002078828125,280.9201459458896L191.2450121875,-47.81645231161798L191.585699765625,99.12939898456847L191.68836171875,41.459031209349654L191.856641546875,-149.44944991809982L192.32416890624998,157.2580333458526L192.47942165625,214.03652862565858L193.876213921875,216.08944047561712L194.3247635625,153.35960235766004L194.55019098437498,-18.422941471849153L196.82580173437498,-107.0283572929246L196.87989359374998,41.34895303206786L197.008180828125,175.3005964074816L197.189273296875,125.86488826785768L197.427513359375,-268.55944462333406L197.56845240625,50.865595780313036L197.648491203125,-568.0429603712898L199.376106921875,-69.52108818718364L199.42532032812503,100.47839828687054L199.479036921875,116.4209511854819L199.6848433125,42.050571891878334L199.86486359375002,-52.79035443919045L201.103829859375,132.3139378194298L201.25924343749998,284.80560605866566L201.69910835937497,229.64918610027857L201.86899646875,124.04752450117044L201.93418546875,90.52073164497104L202.03775878125,258.3037997654506L202.072980140625,52.194540620914545L202.432699046875,-305.7798850025449L202.585539375,-317.3744346754891L202.67120715625,158.48747829028537L203.139699484375,252.17288047926766L203.76810857812498,-538.3618295533315L203.88149240625,157.6320598891803L203.999808296875,-627.4790721620831L204.397697078125,395.62386739254L204.58640207812502,54.055291353591855L204.82753704687502,-273.23649550335745L205.23416415625002,184.21499773647105L205.27683721875,112.25494055130653L205.34610053125,-155.4916548218046L206.51092503125,-63.27488165029455L206.749647578125,118.94439402222633L206.960546859375,-43.084258726664956L209.598556984375,-107.11984105621065L209.811225375,18.299321210810103L209.9377435,281.25249048216L211.8992033125,188.62836400100161L212.04855903125,87.93783660765206L212.339068234375,-94.1553710103035L212.59859121875,342.90269396986275L212.66190389062498,158.77702929931027L212.874411453125,242.72940496035983L212.97900334375,19.201837924974317L213.350462703125,118.37245094776154L213.393886296875,-8.48335116250175L213.518152828125,-213.7546041522707L213.718759109375,114.0216595019613L214.103888859375,-231.21603996838843L214.43149574999998,114.67495078274183L214.559139671875,662.912445800645L215.44610678125,366.24292238269527L215.507543125,51.6149252312524L215.548661515625,96.7754041036325L215.85321637500002,339.25021979212755L215.9078979375,177.54299419053964L216.098372046875,116.20315445640259L216.214811609375,388.14763189213613L218.01560412499998,-28.673710335578253L218.1770755625,58.914259467806154L218.290084125,591.9087622506278L218.65259071875002,65.12945647537708L218.68475634375002,-237.1862409710884L221.11197440625,-193.64256947381153L221.170355015625,41.94933406795775L221.26958596875,-71.92268768804414L222.34134459375,273.77915623784065L222.5215793125,138.55628229464804L222.655549140625,145.12570100490535L223.132136484375,172.9421672203711L223.38227782812498,-157.46364235026496L224.040279296875,-313.060379913875L224.073088234375,66.23694504797459L224.429697796875,279.2748699954578L226.176612890625,183.66623645169395L226.241158578125,119.31967338068145L226.35604346875,-401.07853628907884L228.07963848437498,338.0548269280365L228.286356234375,107.69886639820677L228.33224585937498,201.5178158538682L228.72707890625,-228.25830358692576L228.902167125,87.49692574994906L229.03849576562502,134.84129452598947L229.13182968750002,245.84262229289328L229.583167015625,-98.85753471085002L229.6121696875,73.02201280423574L229.7712823125,144.8466152410422L230.06023684375,530.3290743572371L230.54958321875,144.73439409051622L230.81773731250001,97.56136426755361L230.91048153124999,60.697740708078676L231.025259203125,-171.060209436076L231.06723534375,90.1282331432615L231.383209,-277.3595948645047L231.651255875,118.69522510681833L231.76195923437498,250.9084226489067L232.54964178125,-236.03259605169296L232.679537296875,61.38231351093524L232.733682765625,449.5160555924688L233.38101596875,-194.52707579306195L233.8571744375,116.41868104679244L233.976133640625,380.7762372366019L236.4338554375,-71.26326420690333L236.51116015624999,93.20039958613259L236.8592994375,9.885532561157433L237.16326459375,129.3179952864136L237.51215440625,363.30551363314896L237.571285546875,36.71641241280096L237.616531859375,282.7717878648213L237.983005546875,-116.21723817076003L238.364597078125,37.47737750198161L238.59388437500002,330.9865946940013L239.033105984375,415.30953046253745L239.08478542187498,101.5601146625621L239.430780328125,-203.2839332648686L239.74037446875,-109.65403172799518L240.358705,89.21314588934183L240.71820946875,78.52136255162104L240.92106734375,564.6547393798827L241.16397142187498,396.99186615433007L241.2145250625,107.31385181844234" style="fill: none;" fill="none"></path></g></g></g></g></g></g><g transform="translate(61, 177)" clip-path="url(#clip_1)"><clipPath id="clip_1"><rect width="268" height="23"></rect></clipPath><g><g><line x1="0" y1="0" x2="0" y2="5" style="visibility: inherit;" fill="rgb(0, 0, 0)" stroke="rgb(204, 204, 204)" stroke-width="1px"></line><line x1="26.8046875" y1="0" x2="26.8046875" y2="5" style="visibility: inherit;" fill="rgb(0, 0, 0)" stroke="rgb(204, 204, 204)" stroke-width="1px"></line><line x1="53.609375" y1="0" x2="53.609375" y2="5" style="visibility: inherit;" fill="rgb(0, 0, 0)" stroke="rgb(204, 204, 204)" stroke-width="1px"></line><line x1="80.4140625" y1="0" x2="80.4140625" y2="5" style="visibility: inherit;" fill="rgb(0, 0, 0)" stroke="rgb(204, 204, 204)" stroke-width="1px"></line><line x1="107.21875" y1="0" x2="107.21875" y2="5" style="visibility: inherit;" fill="rgb(0, 0, 0)" stroke="rgb(204, 204, 204)" stroke-width="1px"></line><line x1="134.0234375" y1="0" x2="134.0234375" y2="5" style="visibility: inherit;" fill="rgb(0, 0, 0)" stroke="rgb(204, 204, 204)" stroke-width="1px"></line><line x1="160.828125" y1="0" x2="160.828125" y2="5" style="visibility: inherit;" fill="rgb(0, 0, 0)" stroke="rgb(204, 204, 204)" stroke-width="1px"></line><line x1="187.6328125" y1="0" x2="187.6328125" y2="5" style="visibility: inherit;" fill="rgb(0, 0, 0)" stroke="rgb(204, 204, 204)" stroke-width="1px"></line><line x1="214.4375" y1="0" x2="214.4375" y2="5" style="visibility: inherit;" fill="rgb(0, 0, 0)" stroke="rgb(204, 204, 204)" stroke-width="1px"></line><line x1="241.2421875" y1="0" x2="241.2421875" y2="5" style="visibility: inherit;" fill="rgb(0, 0, 0)" stroke="rgb(204, 204, 204)" stroke-width="1px"></line><line x1="268.046875" y1="0" x2="268.046875" y2="5" style="visibility: inherit;" fill="rgb(0, 0, 0)" stroke="rgb(204, 204, 204)" stroke-width="1px"></line></g><g transform="translate(0, 8)"><text x="0" y="0" dx="0em" dy="0.95em" style="text-anchor: middle; visibility: hidden; font-family: Roboto, sans-serif; font-size: 12px; font-weight: 200;" fill="rgb(33, 33, 33)" stroke="none" stroke-width="1px">-500k</text><text x="26.8046875" y="0" dx="0em" dy="0.95em" style="text-anchor: middle; visibility: inherit; font-family: Roboto, sans-serif; font-size: 12px; font-weight: 200;" fill="rgb(33, 33, 33)" stroke="none" stroke-width="1px">0</text><text x="53.609375" y="0" dx="0em" dy="0.95em" style="text-anchor: middle; visibility: inherit; font-family: Roboto, sans-serif; font-size: 12px; font-weight: 200;" fill="rgb(33, 33, 33)" stroke="none" stroke-width="1px">500k</text><text x="80.4140625" y="0" dx="0em" dy="0.95em" style="text-anchor: middle; visibility: inherit; font-family: Roboto, sans-serif; font-size: 12px; font-weight: 200;" fill="rgb(33, 33, 33)" stroke="none" stroke-width="1px">1M</text><text x="107.21875" y="0" dx="0em" dy="0.95em" style="text-anchor: middle; visibility: inherit; font-family: Roboto, sans-serif; font-size: 12px; font-weight: 200;" fill="rgb(33, 33, 33)" stroke="none" stroke-width="1px">1.5M</text><text x="134.0234375" y="0" dx="0em" dy="0.95em" style="text-anchor: middle; visibility: inherit; font-family: Roboto, sans-serif; font-size: 12px; font-weight: 200;" fill="rgb(33, 33, 33)" stroke="none" stroke-width="1px">2M</text><text x="160.828125" y="0" dx="0em" dy="0.95em" style="text-anchor: middle; visibility: inherit; font-family: Roboto, sans-serif; font-size: 12px; font-weight: 200;" fill="rgb(33, 33, 33)" stroke="none" stroke-width="1px">2.5M</text><text x="187.6328125" y="0" dx="0em" dy="0.95em" style="text-anchor: middle; visibility: inherit; font-family: Roboto, sans-serif; font-size: 12px; font-weight: 200;" fill="rgb(33, 33, 33)" stroke="none" stroke-width="1px">3M</text><text x="214.4375" y="0" dx="0em" dy="0.95em" style="text-anchor: middle; visibility: inherit; font-family: Roboto, sans-serif; font-size: 12px; font-weight: 200;" fill="rgb(33, 33, 33)" stroke="none" stroke-width="1px">3.5M</text><text x="241.2421875" y="0" dx="0em" dy="0.95em" style="text-anchor: middle; visibility: inherit; font-family: Roboto, sans-serif; font-size: 12px; font-weight: 200;" fill="rgb(33, 33, 33)" stroke="none" stroke-width="1px">4M</text><text x="268.046875" y="0" dx="0em" dy="0.95em" style="text-anchor: middle; visibility: hidden; font-family: Roboto, sans-serif; font-size: 12px; font-weight: 200;" fill="rgb(33, 33, 33)" stroke="none" stroke-width="1px">4.5M</text></g><line x1="0" y1="0" x2="268.046875" y2="0" fill="rgb(0, 0, 0)" stroke="rgb(204, 204, 204)" stroke-width="1px"></line></g></g></g></g></svg>