<svg viewBox="0 0 330 200" xmlns="http://www.w3.org/2000/svg"><g><g><g><g><g><line x1="61.953125" y1="163.3846153846154" x2="56.953125" y2="163.3846153846154" style="visibility: inherit;" fill="rgb(0, 0, 0)" stroke="rgb(204, 204, 204)" stroke-width="1px"></line><line x1="61.953125" y1="149.7692307692309" x2="56.953125" y2="149.7692307692309" style="visibility: inherit;" fill="rgb(0, 0, 0)" stroke="rgb(204, 204, 204)" stroke-width="1px"></line><line x1="61.953125" y1="136.15384615384625" x2="56.953125" y2="136.15384615384625" style="visibility: inherit;" fill="rgb(0, 0, 0)" stroke="rgb(204, 204, 204)" stroke-width="1px"></line><line x1="61.953125" y1="122.53846153846162" x2="56.953125" y2="122.53846153846162" style="visibility: inherit;" fill="rgb(0, 0, 0)" stroke="rgb(204, 204, 204)" stroke-width="1px"></line><line x1="61.953125" y1="108.92307692307699" x2="56.953125" y2="108.92307692307699" style="visibility: inherit;" fill="rgb(0, 0, 0)" stroke="rgb(204, 204, 204)" stroke-width="1px"></line><line x1="61.953125" y1="95.30769230769236" x2="56.953125" y2="95.30769230769236" style="visibility: inherit;" fill="rgb(0, 0, 0)" stroke="rgb(204, 204, 204)" stroke-width="1px"></line><line x1="61.953125" y1="81.69230769230772" x2="56.953125" y2="81.69230769230772" style="visibility: inherit;" fill="rgb(0, 0, 0)" stroke="rgb(204, 204, 204)" stroke-width="1px"></line><line x1="61.953125" y1="68.0769230769231" x2="56.953125" y2="68.0769230769231" style="visibility: inherit;" fill="rgb(0, 0, 0)" stroke="rgb(204, 204, 204)" stroke-width="1px"></line><line x1="61.953125" y1="54.46153846153847" x2="56.953125" y2="54.46153846153847" style="visibility: inherit;" fill="rgb(0, 0, 0)" stroke="rgb(204, 204, 204)" stroke-width="1px"></line><line x1="61.953125" y1="40.84615384615382" x2="56.953125" y2="40.84615384615382" style="visibility: inherit;" fill="rgb(0, 0, 0)" stroke="rgb(204, 204, 204)" stroke-width="1px"></line><line x1="61.953125" y1="27.230769230769194" x2="56.953125" y2="27.230769230769194" style="visibility: inherit;" fill="rgb(0, 0, 0)" stroke="rgb(204, 204, 204)" stroke-width="1px"></line><line x1="61.953125" y1="13.615384615384626" x2="56.953125" y2="13.615384615384626" style="visibility: inherit;" fill="rgb(0, 0, 0)" stroke="rgb(204, 204, 204)" stroke-width="1px"></line><line x1="61.953125" y1="0" x2="56.953125" y2="0" style="visibility: inherit;" fill="rgb(0, 0, 0)" stroke="rgb(204, 204, 204)" stroke-width="1px"></line></g><g transform="translate(51.953125, 0)"><text x="0" y="163.3846153846154" dx="0em" dy="0.3em" style="text-anchor: end; visibility: inherit; font-family: Roboto, sans-serif; font-size: 12px; font-weight: 200;" fill="rgb(33, 33, 33)" stroke="none" stroke-width="1px">-1.14</text><text x="0" y="149.7692307692309" dx="0em" dy="0.3em" style="text-anchor: end; visibility: hidden; font-family: Roboto, sans-serif; font-size: 12px; font-weight: 200;" fill="rgb(33, 33, 33)" stroke="none" stroke-width="1px">-1.12</text><text x="0" y="136.15384615384625" dx="0em" dy="0.3em" style="text-anchor: end; visibility: inherit; font-family: Roboto, sans-serif; font-size: 12px; font-weight: 200;" fill="rgb(33, 33, 33)" stroke="none" stroke-width="1px">-1.1</text><text x="0" y="122.53846153846162" dx="0em" dy="0.3em" style="text-anchor: end; visibility: hidden; font-family: Roboto, sans-serif; font-size: 12px; font-weight: 200;" fill="rgb(33, 33, 33)" stroke="none" stroke-width="1px">-1.08</text><text x="0" y="108.92307692307699" dx="0em" dy="0.3em" style="text-anchor: end; visibility: inherit; font-family: Roboto, sans-serif; font-size: 12px; font-weight: 200;" fill="rgb(33, 33, 33)" stroke="none" stroke-width="1px">-1.06</text><text x="0" y="95.30769230769236" dx="0em" dy="0.3em" style="text-anchor: end; visibility: hidden; font-family: Roboto, sans-serif; font-size: 12px; font-weight: 200;" fill="rgb(33, 33, 33)" stroke="none" stroke-width="1px">-1.04</text><text x="0" y="81.69230769230772" dx="0em" dy="0.3em" style="text-anchor: end; visibility: inherit; font-family: Roboto, sans-serif; font-size: 12px; font-weight: 200;" fill="rgb(33, 33, 33)" stroke="none" stroke-width="1px">-1.02</text><text x="0" y="68.0769230769231" dx="0em" dy="0.3em" style="text-anchor: end; visibility: hidden; font-family: Roboto, sans-serif; font-size: 12px; font-weight: 200;" fill="rgb(33, 33, 33)" stroke="none" stroke-width="1px">-1</text><text x="0" y="54.46153846153847" dx="0em" dy="0.3em" style="text-anchor: end; visibility: inherit; font-family: Roboto, sans-serif; font-size: 12px; font-weight: 200;" fill="rgb(33, 33, 33)" stroke="none" stroke-width="1px">-0.98</text><text x="0" y="40.84615384615382" dx="0em" dy="0.3em" style="text-anchor: end; visibility: hidden; font-family: Roboto, sans-serif; font-size: 12px; font-weight: 200;" fill="rgb(33, 33, 33)" stroke="none" stroke-width="1px">-0.96</text><text x="0" y="27.230769230769194" dx="0em" dy="0.3em" style="text-anchor: end; visibility: inherit; font-family: Roboto, sans-serif; font-size: 12px; font-weight: 200;" fill="rgb(33, 33, 33)" stroke="none" stroke-width="1px">-0.94</text><text x="0" y="13.615384615384626" dx="0em" dy="0.3em" style="text-anchor: end; visibility: hidden; font-family: Roboto, sans-serif; font-size: 12px; font-weight: 200;" fill="rgb(33, 33, 33)" stroke="none" stroke-width="1px">-0.92</text><text x="0" y="0" dx="0em" dy="0.3em" style="text-anchor: end; visibility: hidden; font-family: Roboto, sans-serif; font-size: 12px; font-weight: 200;" fill="rgb(33, 33, 33)" stroke="none" stroke-width="1px">-0.9</text></g><line x1="61.953125" y1="0" x2="61.953125" y2="177" fill="rgb(0, 0, 0)" stroke="rgb(204, 204, 204)" stroke-width="1px"></line></g></g><g transform="translate(61, 0)" clip-path="url(#clip_0)"><clipPath id="clip_0"><rect width="268" height="177"></rect></clipPath><g><g><g><line x1="0" y1="0" x2="0" y2="177" fill="rgb(0, 0, 0)" stroke="rgb(66, 66, 66)" stroke-width="1px" opacity="0.25"></line><line x1="29.78298611111111" y1="0" x2="29.78298611111111" y2="177" fill="rgb(0, 0, 0)" stroke="rgb(66, 66, 66)" stroke-width="1px" opacity="0.25"></line><line x1="59.56597222222222" y1="0" x2="59.56597222222222" y2="177" fill="rgb(0, 0, 0)" stroke="rgb(66, 66, 66)" stroke-width="1px" opacity="0.25"></line><line x1="89.34895833333333" y1="0" x2="89.34895833333333" y2="177" fill="rgb(0, 0, 0)" stroke="rgb(66, 66, 66)" stroke-width="1px" opacity="0.25"></line><line x1="119.13194444444444" y1="0" x2="119.13194444444444" y2="177" fill="rgb(0, 0, 0)" stroke="rgb(66, 66, 66)" stroke-width="1px" opacity="0.25"></line><line x1="148.91493055555557" y1="0" x2="148.91493055555557" y2="177" fill="rgb(0, 0, 0)" stroke="rgb(66, 66, 66)" stroke-width="1px" opacity="0.25"></line><line x1="178.69791666666666" y1="0" x2="178.69791666666666" y2="177" fill="rgb(0, 0, 0)" stroke="rgb(66, 66, 66)" stroke-width="1px" opacity="0.25"></line><line x1="208.48090277777777" y1="0" x2="208.48090277777777" y2="177" fill="rgb(0, 0, 0)" stroke="rgb(66, 66, 66)" stroke-width="1px" opacity="0.25"></line><line x1="238.26388888888889" y1="0" x2="238.26388888888889" y2="177" fill="rgb(0, 0, 0)" stroke="rgb(66, 66, 66)" stroke-width="1px" opacity="0.25"></line><line x1="268.046875" y1="0" x2="268.046875" y2="177" fill="rgb(0, 0, 0)" stroke="rgb(66, 66, 66)" stroke-width="1px" opacity="0.25"></line></g><g><line x1="0" y1="163.3846153846154" x2="268.046875" y2="163.3846153846154" fill="rgb(0, 0, 0)" stroke="rgb(66, 66, 66)" stroke-width="1px" opacity="0.25"></line><line x1="0" y1="149.7692307692309" x2="268.046875" y2="149.7692307692309" fill="rgb(0, 0, 0)" stroke="rgb(66, 66, 66)" stroke-width="1px" opacity="0.25"></line><line x1="0" y1="136.15384615384625" x2="268.046875" y2="136.15384615384625" fill="rgb(0, 0, 0)" stroke="rgb(66, 66, 66)" stroke-width="1px" opacity="0.25"></line><line x1="0" y1="122.53846153846162" x2="268.046875" y2="122.53846153846162" fill="rgb(0, 0, 0)" stroke="rgb(66, 66, 66)" stroke-width="1px" opacity="0.25"></line><line x1="0" y1="108.92307692307699" x2="268.046875" y2="108.92307692307699" fill="rgb(0, 0, 0)" stroke="rgb(66, 66, 66)" stroke-width="1px" opacity="0.25"></line><line x1="0" y1="95.30769230769236" x2="268.046875" y2="95.30769230769236" fill="rgb(0, 0, 0)" stroke="rgb(66, 66, 66)" stroke-width="1px" opacity="0.25"></line><line x1="0" y1="81.69230769230772" x2="268.046875" y2="81.69230769230772" fill="rgb(0, 0, 0)" stroke="rgb(66, 66, 66)" stroke-width="1px" opacity="0.25"></line><line x1="0" y1="68.0769230769231" x2="268.046875" y2="68.0769230769231" fill="rgb(0, 0, 0)" stroke="rgb(66, 66, 66)" stroke-width="1px" opacity="0.25"></line><line x1="0" y1="54.46153846153847" x2="268.046875" y2="54.46153846153847" fill="rgb(0, 0, 0)" stroke="rgb(66, 66, 66)" stroke-width="1px" opacity="0.25"></line><line x1="0" y1="40.84615384615382" x2="268.046875" y2="40.84615384615382" fill="rgb(0, 0, 0)" stroke="rgb(66, 66, 66)" stroke-width="1px" opacity="0.25"></line><line x1="0" y1="27.230769230769194" x2="268.046875" y2="27.230769230769194" fill="rgb(0, 0, 0)" stroke="rgb(66, 66, 66)" stroke-width="1px" opacity="0.25"></line><line x1="0" y1="13.615384615384626" x2="268.046875" y2="13.615384615384626" fill="rgb(0, 0, 0)" stroke="rgb(66, 66, 66)" stroke-width="1px" opacity="0.25"></line><line x1="0" y1="0" x2="268.046875" y2="0" fill="rgb(0, 0, 0)" stroke="rgb(66, 66, 66)" stroke-width="1px" opacity="0.25"></line></g></g></g><g><g><line x1="0" y1="-612.6923076923078" x2="268.046875" y2="-612.6923076923078" fill="rgb(0, 0, 0)" stroke="rgb(153, 153, 153)" stroke-width="1.5px"></line></g></g><g><g><line x1="29.78298611111111" y1="0" x2="29.78298611111111" y2="177" fill="rgb(0, 0, 0)" stroke="rgb(153, 153, 153)" stroke-width="1.5px"></line></g></g><g><g><g><g><g><path stroke="rgb(255, 112, 67)" stroke-width="2px" d="M38.68833722222222,182.51651726816422L38.81032833333333,165.91139175134202L38.932319444444445,166.46348644159252L39.05431055555555,166.89257064604251L39.29829277777778,154.1217717818694L39.542275000000004,153.65177631967907L39.66426611111111,154.07461983349873L40.27422166666667,154.585737737029L40.39621277777778,143.81224459265775L40.51820388888889,144.7931848398446L40.640195,150.8696455220477L40.762186111111106,148.79830336384373L40.88417722222223,139.52808852095123L41.49413277777778,139.1427795374699L42.59205277777778,144.21198790473738L42.836035,143.50670759680162L42.95802611111111,148.20468978567226L43.080017222222224,151.45433041947044L43.933955,148.82204310886553L44.299928333333334,154.74694529255785L44.543910555555556,155.40375988069982L44.66590166666666,156.57948402699358L44.78789277777778,163.2598092044494L45.27585722222222,157.2159879228671L45.397848333333336,160.68244006099303L45.51983944444444,156.86326861411632L45.88581277777777,158.13066810875029L46.007803888888894,160.81081347430413L46.37377722222222,157.39422234690525L46.86174166666667,155.2689165871667L47.10572388888889,151.88099995964063L47.34970611111111,156.60642357925542L47.47169722222222,148.65195740558121L47.59368833333334,152.9332043663347L47.71567944444445,151.91868367874946L47.837670555555555,152.3341157214827L47.95966166666667,150.05837818755717L48.203643888888884,153.97419856784347L48.44762611111111,157.39138872409734L48.81359944444444,159.42088008656444L48.93559055555556,160.04560255127933L49.057581666666664,160.4230106148168L49.30156388888889,164.36709701788197L49.423555,168.7508510177322L49.545546111111115,170.79106459775733L49.78952833333333,167.7058947067586L49.911519444444444,169.50549829066006L50.15550166666667,168.27542893138312L50.27749277777778,168.6143738719203L50.521475,161.41053973485936L50.64346611111111,155.42714242291257L51.009439444444446,157.65488620280186L51.49740388888889,160.9069975430968L51.619395,155.20414795808944L51.741386111111105,151.21256632895114L51.863377222222226,150.5427652473882L52.10735944444445,150.86143766061676L52.229350555555556,141.4630493540697L52.47333277777778,143.51850186901615L52.717315000000006,139.42262746903944L52.839306111111114,140.82077923229508L52.96129722222222,144.59718676526643L53.083288333333336,144.81024370223182L53.32727055555555,144.13156849929746L53.449261666666665,148.1866599125338L54.42519055555556,149.80494376934908L54.913154999999996,138.12948313335417L55.40111944444445,135.41730527937358L55.523110555555554,131.1313009496521L55.64510166666667,133.11396859087594L56.13306611111111,132.91399547901057L56.25505722222223,132.83678297561966L56.377048333333335,134.96733426484633L56.49903944444444,132.65477984148384L56.86501277777778,138.74965108949712L56.98700388888889,138.94370748063886L57.35297722222222,141.90478781739642L57.47496833333333,140.05753455524288L57.71895055555556,136.79199176940642L57.840941666666666,129.97475738781293L57.96293277777778,123.86128839459994L58.206915,124.47291814430893L58.32890611111111,127.48847575183571L58.45089722222222,125.9197058107619L58.57288833333334,128.01514129830858L58.694879444444446,124.83965003250634L58.81687055555555,124.0583362041343L59.18284388888889,122.49391661846194L59.304835,113.47537520014723L59.548817222222226,109.54609714300814L60.03678166666666,109.18869314789701L60.15877277777778,111.33195525311936L60.402755,113.36322341006267L60.64673722222222,108.4480519320254L60.768728333333335,110.79082839676153L61.37868388888889,108.46958052907576L61.74465722222222,106.60166501341077L61.86664833333333,110.15292502521787L61.988639444444445,105.95966982799744L62.11063055555556,104.79779195476384L62.354612777777774,105.42790201119209L62.842577222222225,99.96691899544929L63.08655944444445,100.79260940964116L63.33054166666667,96.62653308432851L63.452532777777776,98.74574954341615L63.57452388888888,96.45950849116524L64.06248833333333,99.97518286995697L64.18447944444445,99.1109678012373L64.42846166666666,98.72247315441875L64.67244388888889,97.6970017185271L64.91642611111111,96.67897620331719L65.52638166666667,94.99797662016613L65.892355,96.19988730246997L66.01434611111111,95.36955960426052L66.38031944444444,90.0711917333836L66.62430166666667,89.92292441644175L66.74629277777778,86.16003823270893L66.8682838888889,88.00749803628759L67.11226611111111,84.42926520636907L67.23425722222223,87.26646286002507L67.35624833333334,81.57762437809819L67.84421277777777,78.68288147839756L67.96620388888888,78.70489480856621L68.2101861111111,82.12040088652243L68.57615944444444,79.89432142229603L69.06412388888889,79.38282173656363L69.186115,84.75035294366963L69.30810611111112,82.95847116807066L69.43009722222222,82.34722155026606L69.67407944444444,84.40763323513083L70.04005277777779,90.11157366061589L70.16204388888889,98.09300914629684L70.284035,98.91063996315141L70.65000833333333,103.23270161955087L70.77199944444445,101.09618703281166L71.01598166666666,104.17141369671148L71.74792833333333,108.02016955611123L71.99191055555556,108.41968914865079L72.11390166666666,109.92564637429582L72.23589277777778,109.42083919664324L72.35788388888889,107.08148580012279L72.47987499999999,108.3175440874043L72.72385722222222,110.46644879927995L72.84584833333334,110.12236631382818L73.4558038888889,110.35454038469967L73.57779500000001,115.86356470301484L73.82177722222222,116.3546958289408L74.06575944444444,117.31012343926031L74.18775055555555,122.30936570972433L74.30974166666667,121.17413096309211L74.55372388888888,121.09572745891545L74.675715,125.62277092011617L74.79770611111111,129.00243698772596L74.91969722222221,131.5769203044411L75.16367944444445,134.48408596019704L75.28567055555555,133.7977491525454L75.52965277777778,136.1308798864931L75.65164388888888,136.35518332280776L75.89562611111111,133.64511527908016L76.13960833333333,131.19458098666607L76.38359055555556,129.4523967955719L76.50558166666666,129.60230189006825L76.62757277777779,129.6821719796902L76.871555,129.3338272949837L76.99354611111112,129.7826752635753L77.35951944444444,131.92751379724893L77.48151055555556,131.05850685785657L77.60350166666666,131.95148761996097L77.84748388888889,131.7758975237103L78.0914661111111,133.93464762195939L78.21345722222222,134.55166935177073L78.33544833333335,135.87311689593815L78.45743944444445,136.38389134824703L79.067395,139.8808626823499L79.55535944444443,134.06711872449577L79.67735055555555,133.75338183962637L79.92133277777778,134.2956058290478L80.28730611111112,137.17708592880334L81.14124388888888,140.60551180344643L81.263235,140.6777750028449L81.75119944444445,144.29132967814368L81.87319055555557,147.5343401046488L81.99518166666667,147.83853282661536L82.2391638888889,146.2583155564335L82.48314611111111,147.4177156591239L82.72712833333333,145.549860693877L82.97111055555555,143.99919263033578L84.06903055555556,146.8996013019846L84.19102166666667,148.65498675947308L84.31301277777777,148.13717958788945L84.43500388888889,150.05547038212197L84.6789861111111,146.88755982684407L84.80097722222222,149.19142318991595L85.16695055555556,152.22615228381537L85.53292388888889,152.56537912978132L85.89889722222222,153.1187845880466L86.26487055555555,152.43552081426597L86.38686166666666,154.2730535889314L86.50885277777778,154.57050407561695L86.63084388888888,154.56561271568611L86.752835,153.75731031269942L86.99681722222223,153.81767670479863L87.11880833333333,153.74142035182464L87.24079944444445,154.7282477939385L87.48478166666666,154.98382219487166L87.60677277777778,157.1921343343657L87.72876388888889,152.50248656920147L87.9727461111111,153.27569680126086L88.21672833333332,152.60917481301354L88.33871944444444,153.3424543251914L88.8266838888889,152.88168447531766L89.31464833333334,151.39570035483513L89.80261277777777,151.1475643532577L89.92460388888888,153.08460917637052L90.16858611111111,154.8818950988925L90.29057722222223,153.30612637217834L90.53455944444445,153.90460000917767L90.77854166666667,152.55600433248867L91.144515,152.47914615629566L91.99845277777779,152.8239814696831L92.36442611111111,149.6562009083541L92.48641722222223,149.66718034172297L92.85239055555556,146.6787382958604L92.97438166666666,144.86822968485512L93.09637277777777,143.00002280068637L93.34035499999999,138.95085394629936L93.46234611111112,138.90170203854046L93.58433722222223,136.27856769233708L93.70632833333333,134.90007334148657L93.95031055555556,134.41077296495405L94.5602661111111,134.21108837208536L94.68225722222222,132.79098245175226L95.41420388888889,129.78551080478277L95.6581861111111,127.52486404330627L95.78017722222222,128.4008236016629L95.90216833333334,125.43242607023409L96.02415944444445,123.99062740556965L96.14615055555555,121.76006073357753L96.26814166666666,118.34601461087586L96.39013277777778,115.68068475494388L96.51212388888888,112.16323674012013L96.634115,110.7510484030794L96.75610611111111,110.21383206959945L97.00008833333334,106.6190563787453L97.36606166666667,106.29167781804382L97.48805277777778,104.83165666066883L97.6100438888889,103.27717118322916L97.85402611111111,100.67159779741755L97.97601722222223,101.01774943426688L98.34199055555555,101.32774544913822L98.58597277777778,97.8343745974173L98.829955,95.41404157657949L98.95194611111111,96.31647540453089L99.31791944444444,91.38143613501522L99.43991055555556,88.28599379097724L99.56190166666667,84.91354967611511L99.80588388888889,84.44723003408546L99.927875,81.61869741121521L100.0498661111111,79.82199529870809L100.29384833333334,80.0517963167107L100.53783055555556,81.21926050489846L100.65982166666667,81.9898295872197L101.025795,81.04684896061411L101.14778611111112,83.01994830391162L101.26977722222222,80.5429764480552L101.39176833333333,79.45465500450719L101.51375944444445,77.87348948629719L101.75774166666666,79.08118018931027L101.87973277777779,81.35774869076802L102.00172388888889,83.89826884750674L102.24570611111112,82.67261150488645L102.36769722222222,81.91327070109917L102.85566166666666,78.84820723944335L102.97765277777778,81.53246001840044L103.09964388888889,82.10485770599111L103.3436261111111,81.490417443978L103.46561722222222,76.40334677786552L103.58760833333334,75.9673639656763L103.70959944444445,76.92683183988532L103.95358166666666,73.18863295693885L104.1975638888889,73.20889808141426L104.319555,72.4213247773646L104.44154611111111,69.47151283086751L104.68552833333334,68.43212465678968L104.92951055555555,66.11576010724134L105.17349277777777,65.81081145068704L105.2954838888889,64.63546016902791L105.41747500000001,63.54254502781643L105.78344833333334,65.64309404061983L106.27141277777777,63.85685245548808L106.39340388888888,61.26687977590077L106.63738611111111,63.69736171531713L106.75937722222221,65.90233690240784L107.00335944444446,67.17214488692163L107.49132388888889,65.56954737862974L107.613315,66.13162623339062L107.85729722222221,65.9432816819657L108.10127944444444,65.53895718669683L108.5892438888889,63.66948488345461L108.95521722222223,62.71682212363175L109.07720833333333,62.69116730475582L109.32119055555556,65.27788924973754L109.44318166666666,66.99874556718207L109.56517277777778,67.09590547790346L109.68716388888889,67.30174186420948L109.80915499999999,70.05250995763178L109.9311461111111,74.08602828190232L110.05313722222222,78.03142544173915L110.17512833333333,79.81907455180426L110.29711944444443,79.76232470474396L110.78508388888889,80.94729741037935L110.907075,83.72487092970273L111.15105722222222,87.00949899828002L111.39503944444444,89.6306280280032L111.76101277777778,91.33474017499144L112.00499500000001,93.2160704006756L112.12698611111112,95.19226472278562L112.24897722222222,100.09402014519728L112.61495055555555,100.70242920067317L112.73694166666667,103.5307253716059L112.85893277777778,105.73159966886685L112.98092388888888,107.0450072271443L113.102915,107.16200114060595L113.34689722222221,105.8864463810859L113.46888833333333,105.29249083412957L113.71287055555557,104.32212619105952L113.95685277777778,102.54777712161943L114.0788438888889,102.95413781195504L114.200835,104.79857901604626L114.32282611111111,103.64490816250644L114.44481722222223,105.84553091937677L114.56680833333333,106.78287932388918L114.81079055555556,110.8845598279477L114.93278166666666,110.82094984543859L115.29875500000001,112.37435319640782L115.78671944444444,109.69980098378657L116.15269277777777,107.87682017987791L116.27468388888889,106.81031744949905L116.396675,105.4220865680783L116.5186661111111,105.56500932127591L116.64065722222222,105.02663546294913L116.76264833333333,103.31637722202271L116.88463944444443,101.47497907327207L117.00663055555555,101.4163446331633L117.25061277777779,99.46574229161999L117.37260388888889,97.722830558618L117.494595,99.60482768709325L117.98255944444445,97.94053453749466L118.47052388888888,99.69697178347757L118.59251499999999,99.15303246418547L118.83649722222223,100.59964111710805L118.95848833333334,96.9298259316064L119.08047944444445,95.0940301532742L119.20247055555556,97.40368351870966L119.32446166666666,96.6479057162955L119.44645277777778,97.30312391693082L119.81242611111111,95.44201875483637L119.93441722222222,91.79704687373496L120.05640833333332,91.47878406096319L120.6663638888889,91.68630884344327L120.91034611111111,87.09215671730469L121.03233722222222,85.16470644628735L121.15432833333334,84.88240034264915L121.27631944444444,82.09804346665472L121.52030166666667,81.51463236638334L121.886275,83.59477698306932L122.0082661111111,82.81847243042782L122.37423944444446,78.36851349929468L122.49623055555556,77.43967924326965L122.61822166666667,80.67353608580319L122.74021277777778,81.29967745442855L122.86220388888889,81.77418875215508L123.10618611111111,84.8871751852165L123.47215944444444,83.67967600171278L123.59415055555554,83.16784976401641L123.83813277777779,83.11899846729239L124.20410611111112,82.6664301141689L124.32609722222223,83.8436440308036L124.44808833333333,86.95997667340458L124.69207055555556,89.14596686674426L124.81406166666666,87.47167427835079L124.93605277777777,89.06198074165162L125.05804388888889,92.43804419811305L125.18003499999999,92.8245978150393L125.3020261111111,92.47242991522899L125.42401722222223,94.37943766983717L125.66799944444445,94.87309700292118L126.03397277777778,94.60640003781172L126.15596388888889,93.85944296258945L126.64392833333333,93.1649892537069L126.76591944444444,88.88642615923882L127.00990166666666,92.19969355959076L127.2538838888889,89.3705599195406L127.49786611111111,89.6111592764058L127.61985722222222,89.43607670342247L127.74184833333334,84.32617019822634L127.86383944444445,77.98843808039726L127.98583055555555,79.18623420866457L128.10782166666667,75.82772718648256L128.3518038888889,75.42346316701851L128.59578611111112,71.76869651759998L128.83976833333332,78.23665964425635L129.20574166666665,80.88529624395166L129.32773277777778,84.17048401103676L129.44972388888888,77.55849759223027L129.57171499999998,73.86321712981999L129.6937061111111,77.73844656524957L129.93768833333334,78.67942049280414L130.05967944444444,78.49621281107548L130.18167055555557,78.72225075636992L130.42565277777777,76.27485914427457L130.5476438888889,77.85671724887727L130.7916261111111,77.2424135658833L131.15759944444443,79.87442717637028L131.4015816666667,79.30596851626824L131.5235727777778,80.86434436314268L131.6455638888889,78.14814463547728L132.01153722222222,81.04224658708135L132.37751055555555,82.09132883666068L132.49950166666667,82.4537707975636L132.74348388888887,87.16995084845402L132.98746611111113,83.2000503861586L133.23144833333333,85.1958916383737L133.35343944444446,86.76562458591741L133.8414038888889,88.39778266236911L134.0853861111111,88.48083693040762L134.20737722222222,91.10187993185002L134.32936833333332,90.35604509314241L134.45135944444442,90.1780626090715L134.69534166666668,89.00383603543831L134.81733277777778,87.56165355732469L134.9393238888889,87.2268254703991L135.061315,87.6485347431714L135.54927944444447,87.83100032555079L135.79326166666667,85.11127295568761L135.9152527777778,87.26310618385482L136.0372438888889,85.12462917091806L136.159235,86.38965359528878L136.28122611111112,86.80630632496226L136.76919055555555,84.91631804743884L136.89118166666665,87.24678458673019L137.01317277777778,84.92383077468199L137.13516388888888,85.05780472577065L137.6231283333333,86.4541137368666L137.74511944444444,85.12619332674451L137.86711055555554,83.01003801980643L137.98910166666664,85.56008970570389L138.1110927777778,87.08753841087709L138.355075,87.18386605116461L138.47706611111113,87.96559627618707L138.59905722222223,90.0169864654133L138.72104833333333,88.31418073703358L138.96503055555556,92.64015835615409L139.3310038888889,95.2238778364021L139.57498611111112,90.89017814491558L139.69697722222222,88.60844122923115L139.94095944444445,92.01831599104493L140.06295055555555,93.93971926995441L140.18494166666667,95.54834681506094L140.42892388888887,96.18684744397976L140.550915,96.15063859726227L140.7948972222222,95.24934081714238L140.91688833333333,95.91301309431552L141.5268438888889,101.32832633073639L141.77082611111112,103.17218181010682L141.89281722222222,101.69031954191375L142.01480833333335,104.15693645472557L142.13679944444445,106.26305802451883L142.25879055555555,104.12141544372585L142.38078166666668,104.4176470339095L142.50277277777778,110.27775237870374L142.746755,109.42831682655329L142.8687461111111,111.2455209207454L142.99073722222224,107.32172133586562L143.35671055555557,110.0661506205608L143.47870166666667,106.39400758940852L143.60069277777777,106.13725795860094L143.7226838888889,101.26651796182058L143.9666661111111,100.97721422568927L144.69861277777775,103.78657320216774L144.8206038888889,102.80923456379915L144.942595,104.1689165790909L145.18657722222224,106.56892272178288L145.67454166666667,106.35471667268901L146.040515,106.21324694074467L146.40648833333333,103.8230855415815L146.77246166666666,101.83460878492048L146.8944527777778,101.3995315114908L147.138435,99.50150551689508L147.26042611111112,95.88865234401659L147.38241722222222,96.48590104950142L147.50440833333332,95.5909365798272L147.74839055555555,97.01739076206276L147.87038166666665,98.00968262809386L147.99237277777777,90.5432598519955L148.11436388888887,90.180453531242L148.236355,83.07979276186036L148.35834611111113,78.72667876001L148.48033722222223,78.78680194943395L148.60232833333333,80.02572028475535L148.72431944444446,79.07274264989158L148.96830166666666,78.66964567119355L149.0902927777778,79.0865818727621L149.334275,78.39948831955027L149.70024833333332,79.06785161842876L149.82223944444445,75.75319308473439L150.06622166666668,77.39489050527288L150.31020388888888,74.3938583364646L150.432195,76.2563111609953L150.5541861111111,78.20228523398318L150.6761772222222,78.53735298671292L151.04215055555554,81.39050087933579L151.16414166666667,80.08709546909789L151.28613277777777,82.35398547831208L151.40812388888887,78.8749248956552L151.65210611111112,78.76596480462896L151.77409722222222,79.60806337434258L152.7500261111111,79.63252083144275L153.11599944444444,82.9085017180371L153.23799055555554,86.9358776911627L153.48197277777777,88.14803978778627L153.6039638888889,88.50370822585144L153.725955,93.53399150587269L153.8479461111111,95.59907175773422L154.21391944444443,98.07829948593053L154.33591055555556,101.28820688927989L154.57989277777776,102.7651584131978L154.7018838888889,101.62699737759527L154.823875,102.75467962245132L154.94586611111112,100.95960572454888L155.31183944444444,100.38661939624421L156.28776833333333,100.16878528062725L156.40975944444443,100.38879415079805L156.53175055555556,99.41993724188572L156.77573277777776,97.74164610824857L157.019715,94.77826416986463L157.14170611111112,92.11924846366492L157.26369722222222,91.76086209839244L157.50767944444445,93.72352574683698L157.62967055555555,93.99500287194729L157.75166166666665,94.11830003158654L157.87365277777778,96.92797651844226L157.99564388888888,97.3708061272664L158.36161722222224,99.09816724597133L158.48360833333334,97.94992517076474L158.60559944444447,98.23441637206949L159.215555,98.70778717002315L159.45953722222222,97.81947881434441L159.58152833333332,91.41367507753239L159.82551055555555,90.11576359684763L159.94750166666665,90.76831459648452L160.19148388888888,90.27520665422536L160.92343055555554,81.19808821865998L161.04542166666667,84.1877524149842L161.28940388888887,76.22372878164352L161.5333861111111,73.64291554402324L161.65537722222223,75.32186414074518L162.1433416666667,74.516363994513L162.2653327777778,74.3027569066631L162.3873238888889,68.17808043695133L162.50931500000002,67.7939886778957L162.63130611111112,65.62532364703155L162.87528833333334,66.25491333566042L163.11927055555554,69.07349481195986L163.24126166666667,69.81287686109007L163.36325277777777,68.37663598609383L163.48524388888887,67.84568730664732L163.607235,66.99098069190615L163.7292261111111,68.45789331212065L163.8512172222222,68.4432839250549L164.33918166666666,67.98512734484525L164.5831638888889,64.31100151269202L164.705155,62.96113682664948L165.31511055555558,63.71422983594232L165.43710166666668,62.1589788173525L165.6810838888889,64.89747396057912L165.9250661111111,67.99771143089808L166.04705722222224,66.31166396895644L166.16904833333334,67.98028777710978L166.41303055555557,66.23958997757308L166.7790038888889,64.46028847760394L166.900995,63.10952277438804L167.26696833333332,57.31607568607378L167.51095055555555,57.700055270981046L167.87692388888888,55.822055365447184L168.2428972222222,55.166959986371864L168.3648883333333,53.244992583397455L168.60887055555557,53.02425058026592L168.73086166666667,55.59381307320918L168.8528527777778,52.09603638090428L168.9748438888889,52.20275580224014L169.096835,49.917523391588574L169.21882611111113,50.84685717065888L169.34081722222223,51.05102307780507L169.58479944444446,50.54198199412872L169.70679055555556,51.12309713981497L169.82878166666666,52.465718378471436L170.194755,53.96469860081578L170.31674611111112,57.06599261801831L170.56072833333332,55.562579679604625L171.5366572222222,58.51787158115063L171.65864833333336,59.28713461302208L171.78063944444446,57.38576889626474L171.90263055555556,59.64596937811893L172.0246216666667,61.1255584934959L172.2686038888889,60.70685224065551L172.39059500000002,59.04026868761177L172.51258611111112,60.99489525100688L172.63457722222222,65.17854511584423L172.87855944444445,66.32081035550812L173.00055055555555,64.93109147948975L173.12254166666668,63.019050998455775L173.488515,66.65280469263492L173.6105061111111,68.12569060911015L173.85448833333334,69.9313393705299L175.07439944444442,74.76726021899744L175.44037277777778,71.1020181940873L175.5623638888889,65.94653898195551L175.684355,66.67219029282465L175.8063461111111,67.30380984011713L176.05032833333334,66.60369614493641L176.17231944444444,66.21673135244508L176.29431055555557,64.89150349322286L176.53829277777777,65.33620937870714L176.9042661111111,64.09385604579766L177.02625722222223,63.11484784961977L177.14824833333333,64.44759938568127L177.27023944444443,64.79461976359332L177.39223055555556,65.38347882002216L177.51422166666666,70.23733823752164L177.63621277777776,69.06869940903613L177.7582038888889,71.31119216855765L178.0021861111111,72.95384088265484L178.24616833333332,78.08966633217364L178.36815944444447,71.3221841517395L178.61214166666667,71.26624503251695L178.8561238888889,72.33913919228947L179.10010611111113,74.45256390028901L179.22209722222223,77.89962037212821L179.34408833333333,78.55034686358971L179.46607944444446,79.07556293164885L179.58807055555556,70.12344115458748L179.71006166666666,71.18845491035836L180.19802611111112,74.81616494520904L180.80798166666665,72.75157586327377L180.92997277777778,75.39926120910211L181.17395499999998,76.60783654720622L181.2959461111111,78.17713594394407L181.4179372222222,76.88241556751039L181.78391055555554,78.79122510019124L181.9059016666667,76.49735895610796L182.0278927777778,75.16911844224452L182.27187500000002,76.03984099371498L182.51585722222222,78.11350441630779L182.63784833333335,79.9710620089241L183.00382166666668,83.43723305946565L183.24780388888888,85.02374309434481L183.4917861111111,88.48729532647955L183.6137772222222,89.36401559669017L183.85775944444444,86.97810230493094L183.97975055555554,89.11915610411111L184.34572388888887,91.02018635754598L184.467715,91.01438951023678L184.5897061111111,93.635501225311L184.83368833333333,93.36012468965023L184.95567944444443,95.79120724320022L185.07767055555553,93.36964925677135L185.44364388888891,93.50999997120583L185.56563500000001,97.42261888343499L185.68762611111111,99.8070660170198L185.80961722222224,100.8972536758204L185.93160833333334,104.26987141034466L186.05359944444444,105.97603915541526L186.29758166666667,109.35559125921137L186.663555,114.4530899650282L186.7855461111111,116.00485750712913L187.02952833333333,116.35663199132286L187.51749277777776,117.87243646013744L187.6394838888889,120.06518666874585L187.8834661111111,121.8044984920671L188.00545722222222,120.24113305723478L188.37143055555555,118.08301084828705L188.61541277777778,118.53593763393097L188.859395,118.6674414537058L189.10337722222224,118.00469731521952L189.22536833333334,118.47190314540464L189.34735944444446,116.4141355531442L189.46935055555556,113.64780950413528L189.7133327777778,112.87633990106661L190.07930611111112,114.6175984476562L190.20129722222222,116.99211305832054L190.44527944444445,119.33691977898398L190.56727055555555,120.66119732695167L190.68926166666665,120.79524135179342L190.93324388888888,121.73170089148527L191.4212083333333,122.68979898238385L191.66519055555554,124.23229962941238L191.78718166666664,125.64052252807633L192.0311638888889,124.82264014555427L192.153155,128.09559031789618L192.27514611111113,124.313665192971L192.39713722222223,124.86648172035967L192.51912833333336,123.71973049197835L192.64111944444446,122.9610721917449L193.12908388888889,125.55200280933818L193.25107500000001,126.63574877613424L193.37306611111111,125.61210677328437L193.49505722222221,126.84424847478188L193.61704833333334,124.94197553160433L193.86103055555554,121.91774945241417L194.10501277777777,121.1334686345476L194.22700388888887,119.07557739281292L194.348995,118.37505544017213L194.4709861111111,118.18019607217047L194.5929772222222,118.42524465162334L194.71496833333333,120.22194362034318L195.08094166666666,119.6514108837579L195.44691500000002,120.6631714655996L195.69089722222222,121.4747974547239L195.93487944444445,122.01803470510146L196.05687055555558,120.52173394957796L196.17886166666668,117.53517679575575L196.30085277777778,117.52572673766524L196.4228438888889,117.06711535490297L196.91080833333334,116.65613782385513L197.5207638888889,115.01980430647892L197.7647461111111,116.71480789516963L197.88673722222222,117.23035043170229L198.00872833333332,115.73108365082855L198.25271055555555,115.32319368674952L198.37470166666665,114.47208155628142L198.49669277777775,111.91968550019986L198.8626661111111,113.00920885740877L199.22863944444444,110.7527201534452L199.35063055555557,110.08309888946775L199.47262166666667,107.22393918047413L199.7166038888889,106.65051187378039L199.838595,104.43849130125999L199.96058611111113,104.25914376905646L200.20456833333333,103.74210611723099L200.32655944444446,101.83237857498922L200.57054166666666,99.45023783425923L200.69253277777779,97.80242055539775L200.81452388888889,101.94494767836535L200.93651499999999,102.19413825301774L201.05850611111111,101.25459458208339L201.18049722222221,99.44333419687992L201.42447944444444,94.7933318895941L201.54647055555554,92.76125259455294L201.91244388888887,95.03734092270314L202.52239944444446,95.71117902060661L203.0103638888889,95.80917174970104L203.98629277777778,95.60494493034716L204.10828388888888,95.97128170404086L204.230275,99.18498386042596L204.3522661111111,99.98624070588698L204.4742572222222,101.43885069755687L204.84023055555554,100.82620287613952L204.96222166666666,95.8797224177455L205.20620388888887,94.16542490550464L205.32819500000002,89.92469330997274L205.57217722222222,91.98374654206097L205.69416833333335,91.6447060300012L205.81615944444445,92.4351538959588L205.93815055555555,94.4775075769696L206.18213277777778,93.02786118590652L206.426115,91.88295788033439L206.5481061111111,90.20472573227289L206.67009722222224,89.01509389608682L206.91407944444444,89.4728984915448L207.03607055555557,82.42764428539094L207.15806166666667,84.46732810349445L207.4020438888889,84.85650765625181L207.6460261111111,85.84665880175365L208.37797277777776,86.24624856298806L208.62195499999999,85.50100330406487L209.10991944444444,83.54459967070025L209.35390166666667,79.51543640730242L209.47589277777777,79.76945574216545L209.96385722222223,79.03992252616278L210.5738127777778,77.76576263690019L210.6958038888889,76.06535554150179L211.18376833333332,73.544918922056L211.54974166666665,73.41273523364659L211.67173277777778,72.90414623410138L212.0377061111111,69.86896879404352L212.15969722222223,70.34145951391812L212.40367944444446,69.56965161860087L212.52567055555556,71.38262109246484L212.64766166666666,73.7114912685216L212.7696527777778,72.1345772196337L213.013635,72.41428498611337L213.13562611111112,73.5281033544133L213.50159944444445,74.53280711533648L213.62359055555555,75.67970403407696L213.74558166666668,75.7509476828479L213.86757277777778,77.2482545319703L213.98956388888888,75.87726523801538L214.47752833333334,76.35023588210484L214.84350166666667,74.87290889577702L214.96549277777777,77.18725576719758L215.08748388888887,80.18883936359778L215.209475,82.37550573204992L215.4534572222222,84.6906322230816L215.57544833333336,83.1665688789465L215.69743944444446,82.44463746480253L215.81943055555556,81.71797200689069L215.94142166666668,83.62438371962413L216.06341277777778,81.94425543848403L216.18540388888889,78.81744912090295L216.307395,75.74421981714981L216.4293861111111,75.17835177047425L216.79535944444444,74.06850132020061L217.03934166666667,75.14665791277397L217.64929722222223,73.52681549598094L217.77128833333333,74.97152768785L217.89327944444443,73.36310160518909L218.13726166666666,73.10599509772665L218.6252261111111,71.58695228063762L218.99119944444445,71.93148981491092L219.23518166666668,73.05718151220007L219.7231461111111,70.78707447684793L219.84513722222223,69.51209959411216L219.96712833333333,68.74810106650482L220.08911944444444,68.44318748256283L220.45509277777776,65.70639934000899L220.699075,63.06416124666384L220.82106611111112,64.01975181658561L220.94305722222222,65.33165305161307L221.06504833333332,64.88016039507689L221.30903055555555,65.92067785687723L221.55301277777778,64.8267411552938L221.67500388888888,65.70484202132734L222.0409772222222,65.631873903116L222.1629683333333,61.61269691688813L222.40695055555557,62.09847595043828L222.52894166666667,61.32147864652437L222.6509327777778,60.30214877196353L223.26088833333333,59.64436181169467L223.38287944444446,59.39111713270668L223.50487055555556,56.99074633129053L224.48079944444444,57.137532160078905L224.60279055555554,56.97223725063936L224.72478166666667,59.55902032169787L224.96876388888887,55.43230295991029L225.090755,50.940988759250814L225.2127461111111,48.32545669305278L225.3347372222222,49.87177947250328L225.45672833333333,46.78957757791522L225.57871944444446,43.979568929543824L225.70071055555556,42.4413436437817L225.9446927777778,41.17809005690585L226.18867500000002,36.86843490691918L226.31066611111112,34.91055069652543L226.43265722222222,33.767365719147776L226.67663944444445,33.619951112917065L226.79863055555555,36.25705651308939L227.04261277777778,34.10824959441882L227.286595,34.17657906146848L227.4085861111111,33.636634940520494L227.65256833333333,34.9897515929282L227.77455944444444,30.62005362016474L228.2625238888889,29.950708982742842L228.384515,29.49438078066114L228.5065061111111,30.627636543700365L228.62849722222222,26.940843807779665L228.75048833333332,25.403732013012227L228.87247944444442,27.085008646327687L228.99447055555558,30.840056021411336L229.23845277777778,33.61858673894863L229.3604438888889,33.268740708900644L229.482435,32.529754637191246L229.6044261111111,29.78005393052663L230.09239055555557,32.01903464454207L230.33637277777777,33.24617378177842L230.4583638888889,28.388250406310434L230.580355,27.380194610220432L230.82433722222223,29.14743175119913L231.06831944444443,27.22720756411005L231.31230166666666,24.063886364569438L231.55628388888888,25.42269309815205L231.67827499999999,26.665978895270726L231.8002661111111,28.134691976817145L232.04424833333331,26.1829850293046L232.16623944444444,24.47142466083581L232.28823055555557,26.260226808730085L232.41022166666667,24.86318170167541L232.5322127777778,25.718831033545094L232.6542038888889,25.52363516935265L232.776195,23.547777160849105L232.89818611111113,22.650665059826853L233.02017722222223,18.922955398911437L233.50814166666666,19.8697283064444L233.6301327777778,16.914440119187994L233.874115,14.439270442145261L233.99610611111112,17.4840332579844L234.36207944444445,14.826126369727598L234.48407055555555,16.255115012345247L234.60606166666665,16.199259643311432L234.72805277777778,18.322788338191646L234.85004388888888,17.778392341277726L235.0940261111111,19.90498473673216L235.58199055555554,23.17841565975776L235.8259727777778,22.98012430099341L235.9479638888889,23.77449830193705L236.06995500000002,19.813723829136027L236.43592833333335,17.397170903156233L236.55791944444445,19.06690881474623L236.80190166666668,13.882900218875037L236.92389277777778,15.097352812517762L237.04588388888888,15.571083129246198L237.2898661111111,14.498933218600639L237.4118572222222,14.955229117635497L237.53384833333334,13.518868934949325L237.65583944444444,16.64475093821874L237.89982166666667,17.13913322730812L238.14380388888887,15.994361006573843L238.3877861111111,15.86540037832555L238.50977722222223,13.768936035997935L238.75375944444443,12.240844623316288L238.87575055555556,11.433123016391919L238.99774166666666,11.317200634787405L239.11973277777778,14.568025353458259L239.363715,12.116859440153839L239.72968833333334,12.914099618349542L239.85167944444444,15.903132083189979L239.97367055555557,14.963642249415363L240.09566166666667,15.010728108606997L240.21765277777777,14.62965672416328L240.461635,17.425759628227915L240.5836261111111,16.302664124501263L240.70561722222223,12.816122485095631L240.82760833333333,11.943624890327886L240.94959944444443,10.146349413619038L241.07159055555556,12.053614695202503L241.19358166666666,10.842704084877802L241.31557277777776,13.80099237163505L241.559555,14.638883386258607L241.6815461111111,13.794325034620133L241.80353722222222,15.154377856613811L242.29150166666665,14.26739400615342L242.657475,14.146186091943452L242.77946611111113,15.278941853977345L242.90145722222223,18.95721872740021L243.26743055555556,20.64638775980542L243.38942166666666,24.82816036052537L243.5114127777778,27.850331972433796L243.6334038888889,32.704121527256234L243.755395,31.84884734231638L243.99937722222222,32.86362098721991L244.12136833333332,32.622815019269694L244.24335944444445,31.333548952584984L244.60933277777778,31.650775971218046L244.73132388888888,33.94926894262972L244.9753061111111,32.09089858689437L245.2192883333333,33.240992026816485L245.34127944444444,34.06608295490644L245.70725277777777,34.80882700041414L245.95123500000003,32.10956027995332L246.07322611111113,34.13614974457577L246.19521722222223,34.852787028196666" style="fill: none;" fill="none"></path></g></g></g></g><g opacity="0.2"><g><g><g><path stroke="rgb(255, 112, 67)" stroke-width="2px" d="M34.41864833333334,276.54917451051574L34.784621666666666,133.19263348212613L34.906612777777774,299.2563929007605L35.150595,174.62752076295712L35.27258611111111,212.11426514845635L35.394577222222225,259.1305199036232L35.51656833333333,169.70447466923645L35.760550555555554,201.71470256952145L36.00453277777778,200.81697684067956L36.12652388888889,39.65110577069797L36.49249722222222,318.4596243271462L36.61448833333333,173.32662188089816L36.73647944444445,235.16427810375512L36.858470555555556,120.05501554562498L36.98046166666667,213.07561562611514L37.346435,127.9896871860211L37.46842611111111,344.5702798549947L37.712408333333336,75.99869122871988L37.95639055555556,-135.3124900047596L38.078381666666665,103.24079605249261L38.20037277777777,-11.237412874515273L38.32236388888889,-49.22962505083821L38.68833722222222,115.32373639253473L38.81032833333333,-109.04074375446032L38.932319444444445,175.67262218548709L39.05431055555555,174.09961388661316L39.29829277777778,-61.788006195655264L39.542275000000004,145.65659192892224L39.66426611111111,161.30974091016333L40.27422166666667,163.3795740971199L40.39621277777778,-42.513683850948674L40.51820388888889,161.84203010339007L40.640195,256.9713361446675L40.762186111111106,112.47101040986871L40.88417722222223,-23.730992537278418L41.49413277777778,132.33029090441195L42.59205277777778,234.17298179406396L42.836035,130.94620915559628L42.95802611111111,232.1518410169162L43.080017222222224,209.705208173165L43.933955,101.49598470100992L44.299928333333334,261.5735804117644L44.543910555555556,167.27805073444665L44.66590166666666,177.88910067998452L44.78789277777778,284.6308972285345L45.27585722222222,47.15789285989909L45.397848333333336,223.94351803339453L45.51983944444444,87.0219224232894L45.88581277777777,181.35283525173486L46.007803888888894,210.00904881037204L46.37377722222222,94.56746055529669L46.86174166666667,116.12229191339937L47.10572388888889,89.37960890623242L47.34970611111111,243.91292452812203L47.47169722222222,1.4775143678371572L47.59368833333334,232.25190391907333L47.71567944444445,133.0986571311951L47.837670555555555,160.04998711439285L47.95966166666667,107.74224703128523L48.203643888888884,226.86619877815255L48.81359944444444,197.2755778752841L48.93559055555556,171.70897887303283L49.057581666666664,167.47533614818872L49.30156388888889,238.1289966289814L49.545546111111115,209.00622863035943L49.78952833333333,109.87619189115674L49.911519444444444,203.26101119701684L50.15550166666667,145.18784633049603L50.27749277777778,174.98005380997296L50.521475,26.03735722028291L50.64346611111111,42.92591379239009L51.009439444444446,199.5634719041678L51.49740388888889,222.11665997138397L51.619395,47.816985203669624L51.741386111111105,76.01549011010391L51.863377222222226,137.9190433942355L52.10735944444445,156.86988582977887L52.229350555555556,-35.80833325019253L52.47333277777778,182.3024183970232L52.717315000000006,62.11153479722831L52.839306111111114,167.22010676677417L52.96129722222222,215.92412159993106L53.083288333333336,148.83555705730737L53.32727055555555,131.3056402940017L53.449261666666665,224.84229876444894L54.913154999999996,-82.68800579584567L55.40111944444445,84.11019747073836L55.523110555555554,50.03391004525699L55.64510166666667,170.6366908550263L56.13306611111111,129.12868380546573L56.25505722222223,131.37494582396292L56.377048333333335,175.31148681273834L56.49903944444444,88.85681473291838L56.86501277777778,254.2002511024476L56.98700388888889,142.6201332532443L57.35297722222222,198.01099557143L57.47496833333333,105.0511798491845L57.71895055555556,74.90027161744925L57.840941666666666,0.7519163076693953L57.96293277777778,7.964885280682469L58.206915,136.06921874559845L58.32890611111111,184.6685448976664L58.45089722222222,96.17017122415396L58.57288833333334,167.7559667367202L58.694879444444446,64.60961772845343L58.81687055555555,109.23775324454678L59.18284388888889,92.81631919053885L59.304835,-57.62293861462522L59.548817222222226,34.99493465973781L60.03678166666666,102.40710084254927L60.15877277777778,152.00218677520755L60.402755,151.91072619878332L60.64673722222222,15.166898461488573L60.768728333333335,155.25508321248572L61.37868388888889,64.41152077454788L61.74465722222222,71.14616797520564L61.86664833333333,177.56383538246158L61.988639444444445,26.358524239980248L62.11063055555556,82.74072344486532L62.354612777777774,117.39040457285371L62.842577222222225,-3.712812478725733L63.08655944444445,116.4693876413199L63.33054166666667,17.525437061603245L63.452532777777776,138.98459562888516L63.57452388888888,53.047848481398375L64.06248833333333,166.73366959278405L64.18447944444445,82.70006528267496L64.42846166666666,91.34499687414906L64.67244388888889,78.22287935477038L64.91642611111111,77.34576674608084L65.52638166666667,63.07353450701788L65.892355,119.02630723439732L66.01434611111111,79.59981955014743L66.38031944444444,-10.55847837374762L66.62430166666667,87.10689067840578L66.74629277777778,14.690402654501092L66.8682838888889,123.0974796185127L67.11226611111111,16.46447002887726L67.23425722222223,141.15692633848928L67.35624833333334,-26.479273300904516L67.84421277777777,23.697768082985505L67.96620388888888,79.12303970410277L68.2101861111111,146.9990416673514L68.57615944444444,37.608702641267044L69.06412388888889,69.66648679513199L69.186115,186.7119218752935L69.30810611111112,48.91954366977398L69.43009722222222,70.7356909605173L69.67407944444444,123.54837133334237L70.04005277777779,198.46781152945306L70.16204388888889,249.71551785102264L70.284035,114.44321531515858L70.65000833333333,185.33976976688098L70.77199944444445,60.50809374222389L71.01598166666666,162.5929482166584L71.74792833333333,181.1372901843145L71.99191055555556,116.00965013870831L72.11390166666666,138.53557045643151L72.23589277777778,99.83054197751561L72.35788388888889,62.63834609435156L72.47987499999999,131.80035517765927L72.72385722222222,151.29184567011325L72.84584833333334,103.58537600590635L73.4558038888889,114.76547791407663L73.57779500000001,220.52669048309335L73.82177722222222,125.68548119985142L74.06575944444444,135.46194324126614L74.18775055555555,217.28848292277414L74.30974166666667,99.60606996829695L74.55372388888888,119.60615268120404L74.675715,211.63156105921823L75.16367944444445,189.71746087074288L75.28567055555555,120.75797163523164L75.52965277777778,180.45835568354684L75.65164388888888,140.61676520567678L75.89562611111111,82.1559276030614L76.13960833333333,84.6362378047063L76.38359055555556,96.35211852880627L76.50558166666666,132.45039884860702L76.62757277777779,131.19965314865115L76.871555,122.71548766356251L76.99354611111112,138.31053036909842L77.35951944444444,172.67828244429373L77.48151055555556,114.54782284223118L77.60350166666666,148.91768492185156L77.84748388888889,128.43976736068728L78.0914661111111,174.94994566990786L78.21345722222222,146.27482322546155L78.33544833333335,160.98009329575763L78.45743944444445,146.08841244991012L79.067395,206.32205953964828L79.55535944444443,23.607971163896412L79.67735055555555,127.79248292629538L79.92133277777778,144.59769432361313L80.28730611111112,191.92436319131122L81.14124388888888,205.744648713332L81.263235,142.0507566745465L81.75119944444445,212.94796035839968L81.87319055555557,209.15076393347528L81.99518166666667,153.61812554872958L82.2391638888889,116.2345279180087L82.48314611111111,169.44608028118432L82.72712833333333,110.06097958638121L82.97111055555555,114.53678589600786L84.06903055555556,202.00685702837436L84.19102166666667,182.00701777751635L84.31301277777777,138.29892534476065L84.43500388888889,186.50270682114825L84.6789861111111,86.697712127979L84.80097722222222,192.96451421884396L85.16695055555556,209.88561355150668L85.53292388888889,159.01064762702362L85.89889722222222,163.63342386025653L86.26487055555555,139.45358468936044L86.38686166666666,189.18598321767962L86.50885277777778,160.22203362905066L86.63084388888888,154.47267734087436L86.752835,138.39963747904855L86.99681722222223,154.9646329879761L87.11880833333333,152.29255584570083L87.24079944444445,173.4778929673709L87.48478166666666,159.8397170580351L87.60677277777778,199.14991103685824L87.72876388888889,63.399489613679755L87.9727461111111,167.9666425631597L88.21672833333332,139.94529687441317L88.33871944444444,167.27472341977636L88.8266838888889,144.1270821828109L89.31464833333334,123.16207821552572L89.80261277777777,146.43299240332388L89.92460388888888,189.88837122917184L90.16858611111111,189.0302486603077L90.29057722222223,123.36658633672276L90.53455944444445,165.27557538105896L90.77854166666667,126.93273727710434L91.144515,151.01884355911847L91.99845277777779,159.37584070058975L92.36442611111111,89.46847255413351L92.48641722222223,149.87578923885644L92.85239055555556,89.89842653274538L92.97438166666666,110.46861621049737L93.09637277777777,107.50414114732011L93.34035499999999,62.016746906133804L93.46234611111112,137.96781695806067L93.58433722222223,86.43907427787782L93.70632833333333,108.70871021197394L93.95031055555556,125.11407577074495L94.5602661111111,130.41708496900708L94.68225722222222,105.80899605384244L95.41420388888889,72.6816019645104L95.6581861111111,84.57261305588945L95.78017722222222,145.0440414135273L95.90216833333334,69.0329173895029L96.02415944444445,96.5964732720302L96.14615055555555,79.37932408772983L96.26814166666666,53.479182078288154L96.39013277777778,65.03944997604079L96.51212388888888,45.331765184035675L96.634115,83.91948553232046L96.75610611111111,100.00672734700719L97.00008833333334,38.318353937222405L97.36606166666667,100.0714882520529L97.48805277777778,77.09126775081343L97.6100438888889,73.7419603421138L97.85402611111111,51.16572453425481L97.97601722222223,107.59462787554816L98.34199055555555,107.21766746961156L98.58597277777778,31.460352631715626L98.829955,49.42773012014537L98.95194611111111,113.46271248964166L99.31791944444444,-2.3842806541002686L99.43991055555556,29.472606732295112L99.56190166666667,20.837129583725556L99.80588388888889,75.587159211819L99.927875,27.876591269786534L100.0498661111111,45.68466342412509L100.29384833333334,84.41801465474644L100.53783055555556,103.40107523477995L100.65982166666667,96.63063911291272L101.025795,63.13022058743697L101.14778611111112,120.50882880504317L101.26977722222222,33.48051956066719L101.39176833333333,58.776551072414115L101.51375944444445,47.83134946456322L101.75774166666666,102.02730004604048L101.87973277777779,124.6125439497141L102.00172388888889,132.16814517974856L102.24570611111112,59.385125041007996L102.36769722222222,67.48579722184402L102.85566166666666,20.61200834237611L102.97765277777778,132.53325709929837L103.09964388888889,92.98041261159459L103.3436261111111,69.81605364726141L103.46561722222222,-20.250986585250295L103.58760833333334,67.6836912907087L103.70959944444445,95.15671986799977L103.95358166666666,2.1628600358962817L104.1975638888889,73.593935416295L104.319555,57.45743311368503L104.44154611111111,13.425089808610766L104.68552833333334,48.68375067527477L104.92951055555555,22.104836473098157L105.17349277777777,60.01678732725291L105.2954838888889,42.30378710306607L105.41747500000001,42.77715848042415L105.78344833333334,105.55352321037881L106.27141277777777,29.91826401307033L106.39340388888888,12.05740117109738L106.63738611111111,109.87651650722212L106.75937722222221,107.79686368428746L107.00335944444446,91.29849562278163L107.49132388888889,35.12019588397099L107.613315,76.81112408638002L107.85729722222221,62.36473532823417L108.10127944444444,57.85679202813369L108.5892438888889,28.14951222676496L108.95521722222223,44.616230221895066L109.07720833333333,62.203725759799674L109.32119055555556,114.42560489361105L109.44318166666666,99.6950147702144L109.56517277777778,68.94194373717677L109.68716388888889,71.21263311459468L109.80915499999999,122.31710259731003L109.9311461111111,150.7228748614972L110.05313722222222,152.99397000899685L110.17512833333333,113.78440701044526L110.29711944444443,78.68407762967624L110.78508388888889,103.4617784390083L110.907075,136.4987669541286L111.15105722222222,149.41743135452273L111.39503944444444,139.4320788750282L111.76101277777778,123.71287052447983L112.00499500000001,128.96134422375607L112.12698611111112,132.7399563789368L112.24897722222222,193.22737207779522L112.61495055555555,112.26220112580522L112.73694166666667,157.2683520500477L112.85893277777778,147.54821089597854L112.98092388888888,131.99975059582638L113.102915,109.38488547618574L113.34689722222221,81.6509061593276L113.46888833333333,94.00733553446257L113.71287055555557,85.8851981163025L113.95685277777778,68.83514505166275L114.0788438888889,110.67499087407042L114.200835,139.8429616597983L114.32282611111111,81.72516208428605L114.44481722222223,147.65736304796664L114.56680833333333,124.59249890767613L114.81079055555556,188.81648898124703L114.93278166666666,109.61236018400929L115.29875500000001,141.88901671996487L115.78671944444444,58.883309180919944L116.15269277777777,73.24018505903392L116.27468388888889,86.54676565757167L116.396675,79.04569992652308L116.5186661111111,108.28054162172174L116.64065722222222,94.79753219164336L116.76264833333333,70.82147075579718L116.88463944444443,66.4884143609267L117.00663055555555,100.30229027454672L117.25061277777779,62.404297911203834L117.37260388888889,64.60750772402838L117.494595,135.36277303328885L117.98255944444445,66.31896477479202L118.47052388888888,133.06927937727713L118.59251499999999,88.81818542113673L118.83649722222223,128.08520546326275L118.95848833333334,27.20333755016327L119.08047944444445,60.21391043296229L119.20247055555556,141.28709738071151L119.32446166666666,82.28812749569235L119.44645277777778,109.7522697081933L119.81242611111111,60.08102073119238L119.93441722222222,22.542581237279443L120.05640833333332,85.43179062696605L120.6663638888889,95.62927970519436L120.91034611111111,-0.1967335664308958L121.03233722222222,48.54315134195182L121.15432833333334,79.51858437978305L121.27631944444444,29.19526288142571L121.52030166666667,70.42982147290157L121.886275,123.11752466055066L122.0082661111111,68.06868594426376L122.37423944444446,-6.180706115869412L122.49623055555556,59.79182839393616L122.61822166666667,142.1168160438538L122.74021277777778,93.1963634490967L122.86220388888889,90.7899034023285L123.10618611111111,144.03391737204336L123.47215944444444,60.737191530374396L123.59415055555554,73.44315125392035L123.83813277777779,82.19082383009105L124.20410611111112,74.06763140971846L124.32609722222223,106.21070843476518L124.44808833333333,146.1702968524053L124.69207055555556,130.67978051992566L124.81406166666666,55.660115113625174L124.93605277777777,119.27780353105989L125.05804388888889,156.58324984403762L125.18003499999999,100.1691165337196L125.3020261111111,85.78123982136069L125.42401722222223,130.6125849943895L125.66799944444445,104.25262432831987L126.03397277777778,89.53915770237265L126.15596388888889,79.66725853773265L126.64392833333333,79.97036878879256L126.76591944444444,7.5937273869147575L127.00990166666666,155.15177414967468L127.2538838888889,35.61702077205364L127.49786611111111,94.18254705575796L127.61985722222222,86.10950781748846L127.74184833333334,-12.762053379645742L127.86383944444445,-42.42847213378323L127.98583055555555,101.94436064133279L128.10782166666667,12.01609377677624L128.3518038888889,67.74244679854468L128.59578611111112,2.328130190189062L128.83976833333332,201.12795903132516L129.20574166666665,131.2093916306129L129.32773277777778,146.58905157676114L129.44972388888888,-48.06924434808589L129.57171499999998,3.6528883530543266L129.6937061111111,151.367805829415L129.93768833333334,96.55792511426488L130.05967944444444,75.01526685861441L130.18167055555557,83.01697171651402L130.42565277777777,29.774418519093437L130.5476438888889,107.91202123348532L130.7916261111111,65.57064359004683L131.15759944444443,129.88268577135528L131.4015816666667,68.505253975208L131.5235727777778,110.47348545147825L131.6455638888889,26.54034981360802L132.01153722222222,136.03018366373504L132.37751055555555,102.02389157735387L132.49950166666667,89.34016805428726L132.74348388888887,176.77737181003283L132.98746611111113,7.771941606815039L133.23144833333333,123.11687542841989L133.35343944444446,116.59055058772749L133.8414038888889,119.40878611344561L134.0853861111111,90.05886802306544L134.20737722222222,140.9016969570747L134.32936833333332,76.18518315828764L134.45135944444442,86.7963954118582L134.69534166666668,66.69353113724635L134.81733277777778,60.160186474139884L134.9393238888889,80.8650918190296L135.061315,95.66101092558644L135.54927944444447,91.29784639065085L135.79326166666667,33.4364529297902L135.9152527777778,128.14793751789975L136.0372438888889,44.49356592618503L136.159235,110.42511765773482L136.28122611111112,94.72270818857046L136.76919055555555,49.00654077529907L136.89118166666665,131.5256488323212L137.01317277777778,40.78770834666032L137.13516388888888,87.60330979640669L137.6231283333333,112.98398494720463L137.74511944444444,59.89570553486164L137.86711055555554,42.803087188647346L137.98910166666664,134.01107173699603L138.1110927777778,116.10906380873463L138.355075,89.01409121660086L138.47706611111113,102.81847055141745L138.59905722222223,128.9934000602136L138.72104833333333,55.960871898210975L138.96503055555556,174.83373311849746L139.3310038888889,144.31454796057486L139.57498611111112,8.549884007527258L139.69697722222222,45.25543983166035L139.94095944444445,156.8059364648966L140.06295055555555,130.44638156890872L140.18494166666667,126.11227017182574L140.42892388888887,108.3183593933399L140.550915,95.46267050963185L140.7948972222222,78.12468299498927L140.91688833333333,108.52278636052061L141.5268438888889,204.2192778220544L141.77082611111112,138.2054359179277L141.89281722222222,73.53493644640997L142.01480833333335,151.0226577978868L142.13679944444445,146.27936785037704L142.25879055555555,63.430206408867484L142.38078166666668,110.04604724737317L142.50277277777778,221.61975392928497L142.746755,93.28904133576616L142.8687461111111,145.77239871025088L142.99073722222224,32.76952922344208L143.35671055555557,162.21030702957745L143.47870166666667,36.62328999776107L143.60069277777777,101.25901497327366L143.7226838888889,8.722458023291363L143.9666661111111,95.48044323921205L144.69861277777775,157.16439375510586L144.8206038888889,84.23980043484617L144.942595,130.00287486956674L145.18657722222224,152.16903943281912L145.67454166666667,102.28480173991278L146.040515,103.5253220338088L146.40648833333333,58.41001895757823L146.77246166666666,64.05355040843672L146.8944527777778,93.13306331634523L147.138435,63.43901161964125L147.26042611111112,27.24444205944355L147.38241722222222,107.83362645369313L147.50440833333332,78.58661165604227L147.74839055555555,124.12002022449789L147.87038166666665,116.8632280826569L147.99237277777777,-51.31877289368558L148.11436388888887,83.28713343693663L148.236355,-51.83276185622586L148.35834611111113,-3.982487275050258L148.48033722222223,79.92914254848776L148.60232833333333,103.56516865583569L148.72431944444446,60.966167587500365L148.96830166666666,71.01080307593715L149.0902927777778,87.00836970255926L149.334275,65.34471080853389L149.70024833333332,91.76675429710977L149.82223944444445,12.774680944589464L150.06622166666668,108.5871414954846L150.31020388888888,17.374247129146855L150.432195,111.64291482705339L150.5541861111111,115.17579262073225L150.6761772222222,84.90364028857306L151.04215055555554,135.60031083913952L151.16414166666667,55.32239267459282L151.28613277777777,125.4248956533579L151.40812388888887,12.77277382520528L151.65210611111112,76.69572307513312L151.77409722222222,95.60793619889482L152.7500261111111,80.09721251634451L153.11599944444444,145.15213856330288L153.23799055555554,163.45602118051974L153.48197277777777,111.17911962362439L153.6039638888889,95.26140854908873L153.725955,189.10937382624704L153.8479461111111,134.83559654309204L154.21391944444443,145.18362632164593L154.33591055555556,162.2764475529011L154.57989277777776,130.82723736763003L154.7018838888889,80.00193770115195L154.823875,124.1806422747099L154.94586611111112,66.85320166441112L155.31183944444444,89.4998791584602L156.28776833333333,96.02993708390458L156.40975944444443,104.56896268404448L156.53175055555556,81.01165597255415L156.77573277777776,65.8541145691505L157.019715,38.47400734057793L157.14170611111112,41.59795004587907L157.26369722222222,84.9515211582184L157.50767944444445,131.01413506727957L157.62967055555555,99.15306824904225L157.75166166666665,96.46094606472899L157.87365277777778,150.31182976869442L157.99564388888888,105.78456869492166L158.36161722222224,131.91802850136395L158.48360833333334,76.13332574184126L158.60559944444447,103.63974919685953L159.215555,107.70183233114392L159.45953722222222,80.9416200564458L159.58152833333332,-30.296595921883227L159.82551055555555,65.45544546384079L159.94750166666665,103.16678358958319L160.19148388888888,80.90615575130171L160.92343055555554,-91.26716205706967L161.04542166666667,140.99137214513928L161.28940388888887,-75.09272025181703L161.5333861111111,24.607464029238777L161.65537722222223,107.22188747846165L162.1433416666667,59.21186121610496L162.2653327777778,70.24422223751364L162.3873238888889,-48.190772487567045L162.50931500000002,60.49624525583709L162.63130611111112,24.42068806061378L162.87528833333334,78.21711741960966L163.11927055555554,122.62654286164508L163.24126166666667,83.86113579456625L163.36325277777777,41.08805936116439L163.48524388888887,57.757662397164566L163.607235,50.751555011822624L163.7292261111111,96.32923309619612L163.8512172222222,68.16570557080783L164.33918166666666,59.280152320861816L164.5831638888889,-5.497389298218971L164.705155,37.313707791841956L165.31511055555558,78.02299701250517L165.43710166666668,32.60920946414654L165.6810838888889,116.92888168188244L165.9250661111111,126.90222336695749L166.04705722222224,34.276762192065895L166.16904833333334,99.68414013202376L166.41303055555557,33.16633178637578L166.7790038888889,30.653559978191677L166.900995,37.44497441328488L167.26696833333332,-52.75941899189586L167.51095055555555,64.99566738422102L167.87692388888888,20.140057160304146L168.2428972222222,42.72014778393966L168.3648883333333,16.727611926885736L168.60887055555557,48.83015252076663L168.73086166666667,104.41550043913037L168.8528527777778,-14.361720772889981L168.9748438888889,54.23042480762188L169.096835,6.4981075892081535L169.21882611111113,68.50419897299548L169.34081722222223,54.930175313582794L169.58479944444446,40.8702014042781L169.70679055555556,62.16428490785453L169.82878166666666,77.97552191294157L170.194755,82.44532282535849L170.31674611111112,115.9905789448665L170.56072833333332,26.997733849745526L171.5366572222222,114.66841771052438L171.65864833333336,73.90313221858099L171.78063944444446,21.259820277874272L171.90263055555556,102.58977853334868L172.0246216666667,89.23775168565604L172.2686038888889,52.751433436687186L172.39059500000002,27.37518117978023L172.51258611111112,98.1327999555148L172.63457722222222,144.66789254775418L172.87855944444445,88.02384990912219L173.00055055555555,38.52643283513877L173.12254166666668,26.690281858811005L173.488515,135.69412488203787L173.6105061111111,96.11052302213818L173.85448833333334,104.238665837508L175.07439944444442,166.64975633988018L175.44037277777778,1.4624197207964156L175.5623638888889,-32.007566048548796L175.684355,80.45956519933848L175.8063461111111,79.30458123867331L176.05032833333334,53.301535936502304L176.17231944444444,58.864400295110855L176.29431055555557,39.71217416799985L176.53829277777777,73.78562120290904L176.9042661111111,40.48914272051591L177.02625722222223,44.513692122239334L177.14824833333333,89.76987857085011L177.27023944444443,71.38800694392279L177.39223055555556,76.57180089216968L177.51422166666666,162.46066717001113L177.63621277777776,46.864561667809134L177.7582038888889,113.91855459946855L178.0021861111111,104.16416645050053L178.24616833333332,175.67034987302932L178.36815944444447,-57.25997727650867L178.61214166666667,70.20340176729056L178.8561238888889,92.72412822796751L179.10010611111113,114.6076333522797L179.22209722222223,143.39369333707373L179.34408833333333,90.91415020135733L179.46607944444446,89.0546682247749L179.58807055555556,-99.96687260957872L179.71006166666666,91.42371627000662L180.19802611111112,143.74265560737027L180.80798166666665,33.524383306503296L180.92997277777778,125.70528277984036L181.17395499999998,99.57076797118557L181.2959461111111,107.99382448196415L181.4179372222222,52.28272841526912L181.78391055555554,115.0586062211257L181.9059016666667,32.91390221852523L182.0278927777778,49.9325486788383L182.27187500000002,92.58356947165272L182.51585722222222,117.51310944557194L182.63784833333335,115.26465626863336L183.00382166666668,149.2944830197555L183.24780388888888,115.16743375704843L183.4917861111111,154.29478773703946L183.6137772222222,106.0217007306906L183.85775944444444,41.645749761508064L183.97975055555554,129.79917828853317L184.34572388888887,127.13976117280818L184.467715,90.9042494113629L184.5897061111111,143.43662381172183L184.83368833333333,88.12797051209672L184.95567944444443,141.98177576065066L185.07767055555553,47.36004751462203L185.44364388888891,96.17666354546182L185.56563500000001,171.76237821578985L185.68762611111111,145.11156155512887L185.80961722222224,121.61081919303311L185.93160833333334,168.34960836630606L186.05359944444444,138.39322631175705L186.29758166666667,173.56708123133737L186.663555,211.30556537554818L186.7855461111111,145.48844080704913L187.02952833333333,123.04034719100369L187.51749277777776,146.67272136761596L187.6394838888889,161.72744063230667L187.8834661111111,154.85142313517062L188.00545722222222,90.53718979542074L188.37143055555555,77.07868887827948L188.61541277777778,127.14154656116781L188.859395,121.16601402942953L189.10337722222224,105.41255868398228L189.22536833333334,127.34881391892071L189.34735944444446,77.31655130019557L189.46935055555556,61.087614572965194L189.7133327777778,98.21841744276196L190.07930611111112,147.70151083285995L190.20129722222222,162.10789066094623L190.44527944444445,163.88824747158935L190.56727055555555,145.82247073833764L190.68926166666665,123.34207782378567L190.93324388888888,139.5244321456323L191.4212083333333,140.89366270945627L191.66519055555554,153.53981192295373L191.78718166666664,152.39675760269168L192.0311638888889,109.28287487763627L192.153155,190.28164359239437L192.27514611111113,52.457087819392875L192.39713722222223,135.36999574074383L192.51912833333336,101.93145715273344L192.64111944444446,108.54656448731058L193.12908388888889,174.77968454360968L193.25107500000001,147.22692214525668L193.37306611111111,106.16290871913618L193.49505722222221,150.25494080323443L193.61704833333334,88.79878961122954L193.86103055555554,64.45745394780086L194.10501277777777,106.23213309508107L194.22700388888887,79.97564379985518L194.348995,105.06513833999638L194.4709861111111,114.4778680801392L194.5929772222222,123.08116766122674L194.71496833333333,154.3592240260198L195.08094166666666,108.81128888863786L195.44691500000002,139.88662252059353L195.69089722222222,136.89569124808682L195.93487944444445,132.33954246227563L196.05687055555558,92.09201959463269L196.17886166666668,60.7905908731314L196.30085277777778,117.34617563394403L196.4228438888889,108.35349908241861L196.91080833333334,108.84756473394543L197.5207638888889,83.92946747633128L197.7647461111111,148.91987608029297L197.88673722222222,127.02565862582284L198.00872833333332,87.24501481423013L198.25271055555555,107.57328436924864L198.37470166666665,98.30095107738791L198.49669277777775,63.424160434649544L198.8626661111111,133.71015264437753L199.22863944444444,67.87943477814017L199.35063055555557,97.36029487389787L199.47262166666667,52.8999047095959L199.7166038888889,95.75539304659918L199.838595,62.41010042337272L199.96058611111113,100.85154065719021L200.20456833333333,93.91839073254515L200.32655944444446,65.54755527239581L200.57054166666666,54.189563760390655L200.69253277777779,66.49389225703021L200.81452388888889,180.65296301474942L200.93651499999999,106.92875917141257L201.05850611111111,83.40326483433066L201.18049722222221,65.02938687801363L201.42447944444444,6.443288051165057L201.54647055555554,54.15174598877247L201.91244388888887,138.28301915755642L202.52239944444446,108.51410288077138L203.0103638888889,97.67103360249449L203.98629277777778,91.72463536262514L204.10828388888888,102.93168040422296L204.230275,160.24532483174255L204.3522661111111,115.21012076964749L204.4742572222222,129.0384405392867L204.84023055555554,89.18589426920965L204.96222166666666,1.8965937082583846L205.20620388888887,61.593772172927856L205.32819500000002,9.350792994865996L205.57217722222222,131.10575795173648L205.69416833333335,85.20293630086461L205.81615944444445,107.45366334915165L205.93815055555555,133.28222751617434L206.18213277777778,65.48457975570972L206.426115,70.1297950744629L206.5481061111111,58.31831491910495L206.67009722222224,66.41208900855139L206.91407944444444,98.1711858052474L207.03607055555557,-51.43218563153196L207.15806166666667,123.2213206474598L207.4020438888889,92.25091915864213L207.6460261111111,104.6595305662889L208.37797277777776,93.83845402644232L208.62195499999999,71.34134338452266L209.10991944444444,46.37293063677276L209.35390166666667,2.961334402744573L209.47589277777777,84.59582310456499L209.96385722222223,65.17879142211035L210.5738127777778,53.5567247409087L210.6958038888889,43.757620728932906L211.18376833333332,25.656623152586132L211.54974166666665,70.9012451538673L211.67173277777778,63.240955242743865L212.0377061111111,12.200597432943475L212.15969722222223,79.31878319153421L212.40367944444446,54.90530160757213L212.52567055555556,105.8290410958804L212.64766166666666,117.96002461360055L212.7696527777778,42.1732102907621L213.013635,77.7287325492272L213.13562611111112,94.69065235211302L213.50159944444445,93.62217857287482L213.62359055555555,97.47074549014754L213.74558166666668,77.1045770094945L213.86757277777778,105.6970846652985L213.98956388888888,49.82846865287193L214.47752833333334,85.33667811980617L214.84350166666667,46.803696155548096L214.96549277777777,121.1598463241871L215.08748388888887,137.21892769520105L215.209475,123.92216673264141L215.4534572222222,128.67803555268512L215.57544833333336,54.20936534037956L215.69743944444446,68.727940596067L215.81943055555556,67.91132830656493L215.94142166666668,119.84620626156149L216.06341277777778,50.02181809682113L216.18540388888889,19.408129086861237L216.307395,17.35286304583916L216.4293861111111,64.42685888363765L216.79535944444444,52.981342765001145L217.03934166666667,95.63163317166844L217.64929722222223,42.74980957691486L217.77128833333333,102.42105933336114L217.89327944444443,42.803006034631L218.13726166666666,68.22097145594084L218.6252261111111,42.72513875594505L218.99119944444445,78.4777029661032L219.23518166666668,94.44532376069292L219.7231461111111,27.655040805156407L219.84513722222223,45.28757682213417L219.96712833333333,54.2321290419652L220.08911944444444,62.649829387664795L220.45509277777776,13.707424631485564L220.699075,12.861637473106365L220.82106611111112,82.17597264509936L220.94305722222222,90.25777651713446L221.06504833333332,56.30179992088905L221.30903055555555,85.69050963108359L221.55301277777778,44.041943825208236L221.67500388888888,82.38875847596391L222.0409772222222,64.24547965709979L222.1629683333333,-14.751665821442248L222.40695055555557,71.32827758789064L222.52894166666667,46.55852987216069L222.6509327777778,40.93488115530747L223.26088833333333,47.14640956658584L223.38287944444446,54.57946823193477L223.50487055555556,11.383701104384198L224.48079944444444,59.926462907057555L224.60279055555554,53.83163397128765L224.72478166666667,108.70789867181047L224.96876388888887,-22.975326914053714L225.2127461111111,-1.3696525647090092L225.3347372222222,79.25191228206343L225.45672833333333,-11.772258419256959L225.57871944444446,-9.410595389512906L225.70071055555556,13.215063214302043L225.9446927777778,17.17627190626584L226.18867500000002,-45.01501294282771L226.31066611111112,-2.289249300956726L226.43265722222222,12.046851148972136L226.67663944444445,30.81907359453347L226.79863055555555,86.36205911636354L227.04261277777778,-6.719081860322243L227.286595,35.47483893541188L227.4085861111111,23.377696642508862L227.65256833333333,60.69896798867446L227.77455944444444,-52.40420786234052L228.2625238888889,17.23316087172581L228.384515,20.82414494110986L228.5065061111111,52.159496041444626L228.62849722222222,-43.10821817471433L228.75048833333332,-3.8013920875696305L228.87247944444442,59.02926467932189L228.99447055555558,102.18595614800088L229.23845277777778,86.41067037215602L229.3604438888889,26.621666137988743L229.482435,18.48901927471161L229.6044261111111,-22.464259496101977L230.09239055555557,74.55966821083658L230.33637277777777,56.56181738926814L230.4583638888889,-63.912293727581364L230.580355,8.22713448451115L230.82433722222223,62.72493742979491L231.06831944444443,-9.257051990582411L231.31230166666666,-36.03921642670269L231.55628388888888,51.24002103622143L231.67827499999999,50.28840904052441L231.8002661111111,56.04024052619934L232.04424833333331,-10.89944697343389L232.16623944444444,-8.048222340070314L232.28823055555557,60.24746761872218L232.41022166666667,-1.6806753323628685L232.5322127777778,41.97616833906907L232.6542038888889,21.814913749694824L232.776195,-13.99352500071896L232.89818611111113,5.605535140404327L233.02017722222223,-51.903528158481336L233.50814166666666,37.85841354956993L233.6301327777778,-39.236035438684354L233.874115,-32.58895342166609L233.99610611111112,75.3345267589276L234.36207944444445,-35.6741045071529L234.48407055555555,43.40589922208053L234.60606166666665,15.13800763166867L234.72805277777778,58.66983354091644L234.85004388888888,7.434868399913489L235.0940261111111,60.310240250367386L235.58199055555554,85.37360319724452L235.8259727777778,19.212588484470647L235.9479638888889,38.86760431986588L236.06995500000002,-55.44099115408389L236.43592833333335,-28.517334690460803L236.55791944444445,50.79192913495578L236.80190166666668,-84.61326310267819L236.92389277777778,38.17195209173057L237.04588388888888,24.5719591470865L237.2898661111111,-5.871915083665138L237.4118572222222,23.624851199296803L237.53384833333334,-13.771974536088834L237.65583944444444,76.03650900033804L237.89982166666667,26.532396720005913L238.14380388888887,-5.75631118737737L238.3877861111111,13.41514844160813L238.50977722222223,-26.063886468227125L238.87575055555556,-3.913587515170791L238.99774166666666,9.11467538430139L239.11973277777778,76.33369500820456L239.363715,-34.45529291262997L239.72968833333334,28.061663004068226L239.85167944444444,72.6947489151588L239.97367055555557,-2.886664592302772L240.09566166666667,15.905359433247492L240.21765277777777,7.389300419734056L240.461635,70.55171480545631L240.5836261111111,-5.03615044630492L240.94959944444443,-24.001884643848157L241.07159055555556,48.29165504528926L241.19358166666666,-12.164597511291543L241.31557277777776,70.0084698200226L241.559555,30.55881266410534L241.6815461111111,-2.252283646510219L241.80353722222222,40.995381474494934L242.29150166666665,-2.585299152594361L242.657475,11.843235721954924L242.77946611111113,36.80130133262047L242.90145722222223,88.84447932243349L243.26743055555556,52.740599375504715L243.38942166666666,104.28183977420515L243.5114127777778,85.27159259869505L243.6334038888889,124.9261230688829L243.755395,15.598637828460095L243.99937722222222,52.144320240387565L244.12136833333332,28.04750162821549L244.24335944444445,6.837493685575615L244.60933277777778,37.678089325244606L244.73132388888888,77.62063539945163L244.9753061111111,-3.21813817207632L245.2192883333333,55.092767385336074L245.34127944444444,49.74281058861659L245.70725277777777,48.920963865060074L245.95123500000003,-19.176507408802333L246.07322611111113,72.6413495724018L246.19521722222223,48.46889541699336" style="fill: none;" fill="none"></path></g></g></g></g></g></g><g transform="translate(61, 177)" clip-path="url(#clip_1)"><clipPath id="clip_1"><rect width="268" height="23"></rect></clipPath><g><g><line x1="0" y1="0" x2="0" y2="5" style="visibility: inherit;" fill="rgb(0, 0, 0)" stroke="rgb(204, 204, 204)" stroke-width="1px"></line><line x1="29.78298611111111" y1="0" x2="29.78298611111111" y2="5" style="visibility: inherit;" fill="rgb(0, 0, 0)" stroke="rgb(204, 204, 204)" stroke-width="1px"></line><line x1="59.56597222222222" y1="0" x2="59.56597222222222" y2="5" style="visibility: inherit;" fill="rgb(0, 0, 0)" stroke="rgb(204, 204, 204)" stroke-width="1px"></line><line x1="89.34895833333333" y1="0" x2="89.34895833333333" y2="5" style="visibility: inherit;" fill="rgb(0, 0, 0)" stroke="rgb(204, 204, 204)" stroke-width="1px"></line><line x1="119.13194444444444" y1="0" x2="119.13194444444444" y2="5" style="visibility: inherit;" fill="rgb(0, 0, 0)" stroke="rgb(204, 204, 204)" stroke-width="1px"></line><line x1="148.91493055555557" y1="0" x2="148.91493055555557" y2="5" style="visibility: inherit;" fill="rgb(0, 0, 0)" stroke="rgb(204, 204, 204)" stroke-width="1px"></line><line x1="178.69791666666666" y1="0" x2="178.69791666666666" y2="5" style="visibility: inherit;" fill="rgb(0, 0, 0)" stroke="rgb(204, 204, 204)" stroke-width="1px"></line><line x1="208.48090277777777" y1="0" x2="208.48090277777777" y2="5" style="visibility: inherit;" fill="rgb(0, 0, 0)" stroke="rgb(204, 204, 204)" stroke-width="1px"></line><line x1="238.26388888888889" y1="0" x2="238.26388888888889" y2="5" style="visibility: inherit;" fill="rgb(0, 0, 0)" stroke="rgb(204, 204, 204)" stroke-width="1px"></line><line x1="268.046875" y1="0" x2="268.046875" y2="5" style="visibility: inherit;" fill="rgb(0, 0, 0)" stroke="rgb(204, 204, 204)" stroke-width="1px"></line></g><g transform="translate(0, 8)"><text x="0" y="0" dx="0em" dy="0.95em" style="text-anchor: middle; visibility: hidden; font-family: Roboto, sans-serif; font-size: 12px; font-weight: 200;" fill="rgb(33, 33, 33)" stroke="none" stroke-width="1px">-500k</text><text x="29.78298611111111" y="0" dx="0em" dy="0.95em" style="text-anchor: middle; visibility: inherit; font-family: Roboto, sans-serif; font-size: 12px; font-weight: 200;" fill="rgb(33, 33, 33)" stroke="none" stroke-width="1px">0</text><text x="59.56597222222222" y="0" dx="0em" dy="0.95em" style="text-anchor: middle; visibility: inherit; font-family: Roboto, sans-serif; font-size: 12px; font-weight: 200;" fill="rgb(33, 33, 33)" stroke="none" stroke-width="1px">500k</text><text x="89.34895833333333" y="0" dx="0em" dy="0.95em" style="text-anchor: middle; visibility: inherit; font-family: Roboto, sans-serif; font-size: 12px; font-weight: 200;" fill="rgb(33, 33, 33)" stroke="none" stroke-width="1px">1M</text><text x="119.13194444444444" y="0" dx="0em" dy="0.95em" style="text-anchor: middle; visibility: inherit; font-family: Roboto, sans-serif; font-size: 12px; font-weight: 200;" fill="rgb(33, 33, 33)" stroke="none" stroke-width="1px">1.5M</text><text x="148.91493055555557" y="0" dx="0em" dy="0.95em" style="text-anchor: middle; visibility: inherit; font-family: Roboto, sans-serif; font-size: 12px; font-weight: 200;" fill="rgb(33, 33, 33)" stroke="none" stroke-width="1px">2M</text><text x="178.69791666666666" y="0" dx="0em" dy="0.95em" style="text-anchor: middle; visibility: inherit; font-family: Roboto, sans-serif; font-size: 12px; font-weight: 200;" fill="rgb(33, 33, 33)" stroke="none" stroke-width="1px">2.5M</text><text x="208.48090277777777" y="0" dx="0em" dy="0.95em" style="text-anchor: middle; visibility: inherit; font-family: Roboto, sans-serif; font-size: 12px; font-weight: 200;" fill="rgb(33, 33, 33)" stroke="none" stroke-width="1px">3M</text><text x="238.26388888888889" y="0" dx="0em" dy="0.95em" style="text-anchor: middle; visibility: inherit; font-family: Roboto, sans-serif; font-size: 12px; font-weight: 200;" fill="rgb(33, 33, 33)" stroke="none" stroke-width="1px">3.5M</text><text x="268.046875" y="0" dx="0em" dy="0.95em" style="text-anchor: middle; visibility: hidden; font-family: Roboto, sans-serif; font-size: 12px; font-weight: 200;" fill="rgb(33, 33, 33)" stroke="none" stroke-width="1px">4M</text></g><line x1="0" y1="0" x2="268.046875" y2="0" fill="rgb(0, 0, 0)" stroke="rgb(204, 204, 204)" stroke-width="1px"></line></g></g></g></g></svg>