<svg viewBox="0 0 330 200" xmlns="http://www.w3.org/2000/svg"><g><g><g><g><g><line x1="61.953125" y1="177" x2="56.953125" y2="177" style="visibility: inherit;" fill="rgb(0, 0, 0)" stroke="rgb(204, 204, 204)" stroke-width="1px"></line><line x1="61.953125" y1="160.90909090909088" x2="56.953125" y2="160.90909090909088" style="visibility: inherit;" fill="rgb(0, 0, 0)" stroke="rgb(204, 204, 204)" stroke-width="1px"></line><line x1="61.953125" y1="144.81818181818178" x2="56.953125" y2="144.81818181818178" style="visibility: inherit;" fill="rgb(0, 0, 0)" stroke="rgb(204, 204, 204)" stroke-width="1px"></line><line x1="61.953125" y1="128.72727272727272" x2="56.953125" y2="128.72727272727272" style="visibility: inherit;" fill="rgb(0, 0, 0)" stroke="rgb(204, 204, 204)" stroke-width="1px"></line><line x1="61.953125" y1="112.63636363636361" x2="56.953125" y2="112.63636363636361" style="visibility: inherit;" fill="rgb(0, 0, 0)" stroke="rgb(204, 204, 204)" stroke-width="1px"></line><line x1="61.953125" y1="96.5454545454545" x2="56.953125" y2="96.5454545454545" style="visibility: inherit;" fill="rgb(0, 0, 0)" stroke="rgb(204, 204, 204)" stroke-width="1px"></line><line x1="61.953125" y1="80.45454545454544" x2="56.953125" y2="80.45454545454544" style="visibility: inherit;" fill="rgb(0, 0, 0)" stroke="rgb(204, 204, 204)" stroke-width="1px"></line><line x1="61.953125" y1="64.36363636363635" x2="56.953125" y2="64.36363636363635" style="visibility: inherit;" fill="rgb(0, 0, 0)" stroke="rgb(204, 204, 204)" stroke-width="1px"></line><line x1="61.953125" y1="48.27272727272723" x2="56.953125" y2="48.27272727272723" style="visibility: inherit;" fill="rgb(0, 0, 0)" stroke="rgb(204, 204, 204)" stroke-width="1px"></line><line x1="61.953125" y1="32.18181818181813" x2="56.953125" y2="32.18181818181813" style="visibility: inherit;" fill="rgb(0, 0, 0)" stroke="rgb(204, 204, 204)" stroke-width="1px"></line><line x1="61.953125" y1="16.09090909090902" x2="56.953125" y2="16.09090909090902" style="visibility: inherit;" fill="rgb(0, 0, 0)" stroke="rgb(204, 204, 204)" stroke-width="1px"></line></g><g transform="translate(51.953125, 0)"><text x="0" y="177" dx="0em" dy="0.3em" style="text-anchor: end; visibility: hidden; font-family: Roboto, sans-serif; font-size: 12px; font-weight: 200;" fill="rgb(33, 33, 33)" stroke="none" stroke-width="1px">0.09</text><text x="0" y="160.90909090909088" dx="0em" dy="0.3em" style="text-anchor: end; visibility: inherit; font-family: Roboto, sans-serif; font-size: 12px; font-weight: 200;" fill="rgb(33, 33, 33)" stroke="none" stroke-width="1px">0.095</text><text x="0" y="144.81818181818178" dx="0em" dy="0.3em" style="text-anchor: end; visibility: hidden; font-family: Roboto, sans-serif; font-size: 12px; font-weight: 200;" fill="rgb(33, 33, 33)" stroke="none" stroke-width="1px">0.1</text><text x="0" y="128.72727272727272" dx="0em" dy="0.3em" style="text-anchor: end; visibility: inherit; font-family: Roboto, sans-serif; font-size: 12px; font-weight: 200;" fill="rgb(33, 33, 33)" stroke="none" stroke-width="1px">0.105</text><text x="0" y="112.63636363636361" dx="0em" dy="0.3em" style="text-anchor: end; visibility: hidden; font-family: Roboto, sans-serif; font-size: 12px; font-weight: 200;" fill="rgb(33, 33, 33)" stroke="none" stroke-width="1px">0.11</text><text x="0" y="96.5454545454545" dx="0em" dy="0.3em" style="text-anchor: end; visibility: inherit; font-family: Roboto, sans-serif; font-size: 12px; font-weight: 200;" fill="rgb(33, 33, 33)" stroke="none" stroke-width="1px">0.115</text><text x="0" y="80.45454545454544" dx="0em" dy="0.3em" style="text-anchor: end; visibility: hidden; font-family: Roboto, sans-serif; font-size: 12px; font-weight: 200;" fill="rgb(33, 33, 33)" stroke="none" stroke-width="1px">0.12</text><text x="0" y="64.36363636363635" dx="0em" dy="0.3em" style="text-anchor: end; visibility: inherit; font-family: Roboto, sans-serif; font-size: 12px; font-weight: 200;" fill="rgb(33, 33, 33)" stroke="none" stroke-width="1px">0.125</text><text x="0" y="48.27272727272723" dx="0em" dy="0.3em" style="text-anchor: end; visibility: hidden; font-family: Roboto, sans-serif; font-size: 12px; font-weight: 200;" fill="rgb(33, 33, 33)" stroke="none" stroke-width="1px">0.13</text><text x="0" y="32.18181818181813" dx="0em" dy="0.3em" style="text-anchor: end; visibility: inherit; font-family: Roboto, sans-serif; font-size: 12px; font-weight: 200;" fill="rgb(33, 33, 33)" stroke="none" stroke-width="1px">0.135</text><text x="0" y="16.09090909090902" dx="0em" dy="0.3em" style="text-anchor: end; visibility: hidden; font-family: Roboto, sans-serif; font-size: 12px; font-weight: 200;" fill="rgb(33, 33, 33)" stroke="none" stroke-width="1px">0.14</text></g><line x1="61.953125" y1="0" x2="61.953125" y2="177" fill="rgb(0, 0, 0)" stroke="rgb(204, 204, 204)" stroke-width="1px"></line></g></g><g transform="translate(61, 0)" clip-path="url(#clip_0)"><clipPath id="clip_0"><rect width="268" height="177"></rect></clipPath><g><g><g><line x1="0" y1="0" x2="0" y2="177" fill="rgb(0, 0, 0)" stroke="rgb(66, 66, 66)" stroke-width="1px" opacity="0.25"></line><line x1="29.78298611111111" y1="0" x2="29.78298611111111" y2="177" fill="rgb(0, 0, 0)" stroke="rgb(66, 66, 66)" stroke-width="1px" opacity="0.25"></line><line x1="59.56597222222222" y1="0" x2="59.56597222222222" y2="177" fill="rgb(0, 0, 0)" stroke="rgb(66, 66, 66)" stroke-width="1px" opacity="0.25"></line><line x1="89.34895833333333" y1="0" x2="89.34895833333333" y2="177" fill="rgb(0, 0, 0)" stroke="rgb(66, 66, 66)" stroke-width="1px" opacity="0.25"></line><line x1="119.13194444444444" y1="0" x2="119.13194444444444" y2="177" fill="rgb(0, 0, 0)" stroke="rgb(66, 66, 66)" stroke-width="1px" opacity="0.25"></line><line x1="148.91493055555557" y1="0" x2="148.91493055555557" y2="177" fill="rgb(0, 0, 0)" stroke="rgb(66, 66, 66)" stroke-width="1px" opacity="0.25"></line><line x1="178.69791666666666" y1="0" x2="178.69791666666666" y2="177" fill="rgb(0, 0, 0)" stroke="rgb(66, 66, 66)" stroke-width="1px" opacity="0.25"></line><line x1="208.48090277777777" y1="0" x2="208.48090277777777" y2="177" fill="rgb(0, 0, 0)" stroke="rgb(66, 66, 66)" stroke-width="1px" opacity="0.25"></line><line x1="238.26388888888889" y1="0" x2="238.26388888888889" y2="177" fill="rgb(0, 0, 0)" stroke="rgb(66, 66, 66)" stroke-width="1px" opacity="0.25"></line><line x1="268.046875" y1="0" x2="268.046875" y2="177" fill="rgb(0, 0, 0)" stroke="rgb(66, 66, 66)" stroke-width="1px" opacity="0.25"></line></g><g><line x1="0" y1="177" x2="268.046875" y2="177" fill="rgb(0, 0, 0)" stroke="rgb(66, 66, 66)" stroke-width="1px" opacity="0.25"></line><line x1="0" y1="160.90909090909088" x2="268.046875" y2="160.90909090909088" fill="rgb(0, 0, 0)" stroke="rgb(66, 66, 66)" stroke-width="1px" opacity="0.25"></line><line x1="0" y1="144.81818181818178" x2="268.046875" y2="144.81818181818178" fill="rgb(0, 0, 0)" stroke="rgb(66, 66, 66)" stroke-width="1px" opacity="0.25"></line><line x1="0" y1="128.72727272727272" x2="268.046875" y2="128.72727272727272" fill="rgb(0, 0, 0)" stroke="rgb(66, 66, 66)" stroke-width="1px" opacity="0.25"></line><line x1="0" y1="112.63636363636361" x2="268.046875" y2="112.63636363636361" fill="rgb(0, 0, 0)" stroke="rgb(66, 66, 66)" stroke-width="1px" opacity="0.25"></line><line x1="0" y1="96.5454545454545" x2="268.046875" y2="96.5454545454545" fill="rgb(0, 0, 0)" stroke="rgb(66, 66, 66)" stroke-width="1px" opacity="0.25"></line><line x1="0" y1="80.45454545454544" x2="268.046875" y2="80.45454545454544" fill="rgb(0, 0, 0)" stroke="rgb(66, 66, 66)" stroke-width="1px" opacity="0.25"></line><line x1="0" y1="64.36363636363635" x2="268.046875" y2="64.36363636363635" fill="rgb(0, 0, 0)" stroke="rgb(66, 66, 66)" stroke-width="1px" opacity="0.25"></line><line x1="0" y1="48.27272727272723" x2="268.046875" y2="48.27272727272723" fill="rgb(0, 0, 0)" stroke="rgb(66, 66, 66)" stroke-width="1px" opacity="0.25"></line><line x1="0" y1="32.18181818181813" x2="268.046875" y2="32.18181818181813" fill="rgb(0, 0, 0)" stroke="rgb(66, 66, 66)" stroke-width="1px" opacity="0.25"></line><line x1="0" y1="16.09090909090902" x2="268.046875" y2="16.09090909090902" fill="rgb(0, 0, 0)" stroke="rgb(66, 66, 66)" stroke-width="1px" opacity="0.25"></line></g></g></g><g><g><line x1="0" y1="466.6363636363637" x2="268.046875" y2="466.6363636363637" fill="rgb(0, 0, 0)" stroke="rgb(153, 153, 153)" stroke-width="1.5px"></line></g></g><g><g><line x1="29.78298611111111" y1="0" x2="29.78298611111111" y2="177" fill="rgb(0, 0, 0)" stroke="rgb(153, 153, 153)" stroke-width="1.5px"></line></g></g><g><g><g><g><g><path stroke="rgb(255, 112, 67)" stroke-width="2px" d="M35.150595,200.6406893278902L35.27258611111111,176.61883733260285L35.394577222222225,161.1989867808471L35.51656833333333,157.07923473459837L35.760550555555554,161.0149354366939L36.00453277777778,167.60707683640123L36.12652388888889,178.28660867727325L36.49249722222222,180.7710925810251L36.61448833333333,173.76951678352538L36.73647944444445,177.5486751744359L36.858470555555556,170.6866270033233L36.98046166666667,180.62970699742684L38.20037277777777,177.4648243351657L38.32236388888889,171.8155261099903L38.68833722222222,175.1349673826178L38.81032833333333,172.83556082422072L38.932319444444445,162.14100280325977L39.05431055555555,157.59154834422247L39.29829277777778,157.8786141834422L39.542275000000004,166.01752790926193L39.66426611111111,170.76438590244905L40.27422166666667,166.73244972374965L40.39621277777778,172.1482815471139L40.51820388888889,174.00413477492424L40.640195,161.20459652148554L40.762186111111106,166.7204211350762L40.88417722222223,172.46701809123235L41.49413277777778,172.4085327113504L42.59205277777778,171.33912367050073L42.836035,174.3736100921913L42.95802611111111,169.62597291769646L43.080017222222224,169.5523017190018L43.933955,166.77531235458406L44.299928333333334,160.18818251741683L44.543910555555556,159.96734805652852L44.66590166666666,163.5299633031111L44.78789277777778,156.34810170558833L45.27585722222222,153.19574088325135L45.397848333333336,150.058511241007L45.51983944444444,148.32843831973946L45.88581277777777,149.7407031225351L46.007803888888894,154.4465338038813L46.37377722222222,153.72300927996397L46.86174166666667,159.1795884614724L47.10572388888889,162.41639007202858L47.34970611111111,148.54701868303232L47.47169722222222,147.5258966743444L47.59368833333334,146.36523690198635L47.71567944444445,146.9692908231695L47.837670555555555,143.0620307812217L47.95966166666667,146.8807214345064L48.203643888888884,137.00189756716796L48.44762611111111,136.39957819555846L48.81359944444444,136.13231271111974L48.93559055555556,129.7913834520585L49.057581666666664,124.85546083984393L49.30156388888889,118.23588836225399L49.423555,105.72471517445932L49.545546111111115,101.31093233795221L49.78952833333333,105.3688067171268L49.911519444444444,103.06270204855406L50.15550166666667,102.44847853512029L50.27749277777778,102.54089841602212L50.521475,111.1874113608901L50.64346611111111,121.40038157447276L51.009439444444446,119.17980639328746L51.49740388888889,110.61128642796338L51.619395,110.29976962098611L51.741386111111105,109.39419586313107L51.863377222222226,112.6041960637137L52.10735944444445,105.7186906635163L52.229350555555556,112.8534825627881L52.47333277777778,110.58697294796423L52.717315000000006,115.13176612723373L52.839306111111114,113.58200894557943L52.96129722222222,102.71595688234957L53.083288333333336,104.54800976449027L53.32727055555555,101.59669793286378L53.449261666666665,91.83106274866287L54.42519055555556,88.50178678220647L54.913154999999996,101.6043002798228L55.40111944444445,101.14675805167428L55.523110555555554,102.21097363020453L55.64510166666667,83.99473121225247L56.13306611111111,79.11457430915134L56.25505722222223,79.8014379176616L56.377048333333335,75.43282975463183L56.49903944444444,76.00464336952497L56.86501277777778,69.32994681212901L56.98700388888889,74.43044889648111L57.35297722222222,67.7577774492695L57.47496833333333,75.36951998926868L57.71895055555556,82.79571914546347L57.840941666666666,92.43173144313474L57.96293277777778,95.37944295972629L58.206915,98.50981348856254L58.32890611111111,95.51609821998689L58.45089722222222,99.06405200722158L58.57288833333334,99.7658801495004L58.694879444444446,102.38421244510889L58.81687055555555,105.50860998080228L59.18284388888889,104.24303178775386L59.304835,110.53908798993274L59.548817222222226,121.1140458421149L60.03678166666666,127.38276944452598L60.15877277777778,127.63414953099343L60.402755,112.96702955053372L60.64673722222222,120.45255336626012L60.768728333333335,114.30256403166098L61.37868388888889,114.50858964037275L61.74465722222222,117.80280369469091L61.86664833333333,96.4124666024113L61.988639444444445,111.29060788153814L62.11063055555556,109.55570741249409L62.354612777777774,108.10425933914331L62.842577222222225,118.70018883482221L63.08655944444445,114.96725967006965L63.33054166666667,121.25661076238119L63.452532777777776,124.259348003039L63.57452388888888,115.92482827435869L64.06248833333333,108.09398784456657L64.18447944444445,113.96390060642825L64.42846166666666,118.91114491336413L64.67244388888889,121.50412665414052L64.91642611111111,124.17171072137567L65.52638166666667,129.81061197789495L65.892355,131.48093276024932L66.01434611111111,137.0762496918288L66.38031944444444,145.55908951690986L66.62430166666667,145.2233635193223L66.74629277777778,147.4116233335122L66.8682838888889,147.99711467809658L67.11226611111111,151.9799518772419L67.23425722222223,141.41272934884802L67.35624833333334,147.79954362496L67.84421277777777,146.36943154450404L67.96620388888888,154.7007911458L68.2101861111111,144.7682144362199L68.57615944444444,149.5801975624186L69.06412388888889,149.02770436100647L69.186115,144.79365202562835L69.30810611111112,148.20541877198272L69.43009722222222,141.22287047117743L69.67407944444444,133.90590495306702L70.04005277777779,121.28131124608166L70.16204388888889,105.77557288319841L70.284035,113.96728059228138L70.65000833333333,106.70909442723061L70.77199944444445,110.64214937492746L71.01598166666666,114.00918033793026L71.74792833333333,106.33257733547238L71.99191055555556,102.07299997001972L72.11390166666666,108.61082510623132L72.23589277777778,115.67817971417789L72.35788388888889,129.79400851026188L72.47987499999999,135.17342509482384L72.72385722222222,132.26908786656702L72.84584833333334,127.0427229191995L73.4558038888889,134.12328846931027L73.57779500000001,117.58376103323587L73.82177722222222,113.233210915826L74.06575944444444,124.78364044250232L74.18775055555555,116.1758331539695L74.30974166666667,124.82110764747374L74.55372388888888,127.91893165417608L74.675715,104.38265985886136L74.79770611111111,108.06243424434157L74.91969722222221,114.42610946589167L75.16367944444445,106.13991975187842L75.28567055555555,101.41883383137319L75.52965277777778,101.99387698990192L75.65164388888888,100.43443413972066L75.89562611111111,109.11232161464554L76.13960833333333,107.24409197185109L76.38359055555556,97.19568594869847L76.50558166666666,96.23760068619687L76.62757277777779,99.59384884394795L76.871555,103.81155814013518L76.99354611111112,93.64413728393626L77.35951944444444,106.84142532488113L77.48151055555556,111.91457758729179L77.60350166666666,115.57906754638392L77.84748388888889,117.95247784031177L78.0914661111111,113.3401386471747L78.21345722222222,110.27055534303932L78.33544833333335,102.2002349230042L78.45743944444445,102.25691483111393L79.067395,103.15146267185527L79.55535944444443,110.96260486490439L79.67735055555555,105.37981412645699L79.92133277777778,100.73616016031859L80.28730611111112,96.06541569281023L81.14124388888888,92.56319747713046L81.263235,80.00412799780187L81.75119944444445,74.34290360221611L81.87319055555557,71.03113532961098L81.99518166666667,67.18568633765268L82.2391638888889,73.25159166265169L82.48314611111111,72.63433505849048L82.72712833333333,72.06365679081274L82.97111055555555,77.68137053346226L84.06903055555556,76.26120951955161L84.19102166666667,78.10983929495605L84.31301277777777,90.14292818820536L84.43500388888889,86.65400837025436L84.6789861111111,95.47066026174707L84.80097722222222,94.61456591352994L85.16695055555556,88.43498786610289L85.53292388888889,87.0428468984812L85.89889722222222,90.8037504806664L86.26487055555555,90.8802717162042L86.38686166666666,92.90934205998676L86.50885277777778,84.55223782443164L86.63084388888888,83.95922030704574L86.752835,87.23788958836666L86.99681722222223,97.18814682589348L87.11880833333333,104.93593540073913L87.24079944444445,98.25601528143399L87.48478166666666,104.51259092678008L87.60677277777778,95.99175282697468L87.72876388888889,104.9621791496308L87.9727461111111,112.72981704402753L88.21672833333332,117.51628947520382L88.33871944444444,118.36283228780245L88.8266838888889,115.98499901520975L89.31464833333334,116.62525709700894L89.80261277777777,119.81056828661467L89.92460388888888,105.26856899351984L90.16858611111111,97.11064559844058L90.29057722222223,99.83387432856087L90.53455944444445,88.94634936704462L90.77854166666667,91.20567629959737L91.144515,98.27831577569188L91.99845277777779,93.25125271659273L92.36442611111111,90.98189486775134L92.48641722222223,91.01808024010299L92.85239055555556,92.78883186280306L92.97438166666666,91.03757935746681L93.09637277777777,94.65372716303456L93.34035499999999,96.4312609413491L93.46234611111112,99.01560496607556L93.58433722222223,92.5217238751506L93.70632833333333,90.70525835579839L93.95031055555556,85.55401104067786L94.5602661111111,79.63107264197671L94.68225722222222,76.61276989483709L95.41420388888889,72.63756212901478L95.6581861111111,70.88033585051602L95.78017722222222,75.37077773469534L95.90216833333334,82.86588033954735L96.02415944444445,76.53522482762276L96.14615055555555,79.09297372064532L96.26814166666666,88.42904456186416L96.39013277777778,87.98003572152003L96.51212388888888,88.62987155425331L96.634115,90.70859703510163L96.75610611111111,83.47510861035853L97.00008833333334,86.37726951746257L97.36606166666667,88.30934848329413L97.48805277777778,95.9510666555165L97.6100438888889,99.13297183248484L97.85402611111111,97.66949558955763L97.97601722222223,94.48782274892605L98.34199055555555,92.47877226710226L98.58597277777778,101.07483864860164L98.829955,91.14667938449874L98.95194611111111,96.81587393756716L99.31791944444444,94.39185768055029L99.43991055555556,95.2160865314919L99.56190166666667,97.82190246175992L99.80588388888889,96.24327118531116L99.927875,100.38481956602052L100.0498661111111,109.34770067714764L100.29384833333334,99.11589531493901L100.53783055555556,96.0897523893584L100.65982166666667,97.06479314053354L101.025795,87.94997411269817L101.14778611111112,82.69293127223987L101.26977722222222,83.11999513252206L101.39176833333333,73.99529621857684L101.51375944444445,64.07758729863939L101.75774166666666,64.78329634393822L101.87973277777779,71.02425466042693L102.00172388888889,65.79638204646433L102.24570611111112,74.88587918379466L102.36769722222222,72.74910450362303L102.85566166666666,67.93782997128763L102.97765277777778,75.31744825208523L103.09964388888889,84.39444785189004L103.3436261111111,95.04467523157878L103.46561722222222,102.90746397454872L103.58760833333334,95.57473314408824L103.70959944444445,90.80856807580984L103.95358166666666,86.94854693393869L104.1975638888889,77.94669679366817L104.319555,75.33474836369753L104.44154611111111,64.50938191639412L104.68552833333334,63.12713893979318L104.92951055555555,63.943225703620136L105.17349277777777,69.58192234247245L105.2954838888889,60.09702007822643L105.41747500000001,68.19081142493408L105.78344833333334,70.53722824052105L106.27141277777777,72.994173522106L106.39340388888888,70.77127678562223L106.63738611111111,75.26716827693451L106.75937722222221,81.49463018616481L107.00335944444446,71.24909750431989L107.49132388888889,77.04891177589242L107.613315,82.05589486649384L107.85729722222221,83.93690676316955L108.10127944444444,87.71951869835874L108.5892438888889,79.59837739560848L108.95521722222223,74.97890713534514L109.07720833333333,88.61411543598176L109.32119055555556,81.50892439893362L109.44318166666666,71.70266343670285L109.56517277777778,75.05202099316033L109.68716388888889,69.63847296851633L109.80915499999999,50.22749078712022L109.9311461111111,56.206271318956595L110.05313722222222,65.62599142447115L110.17512833333333,72.90906520654278L110.29711944444443,71.79824342583747L110.78508388888889,68.56660583021522L110.907075,66.96578698430433L111.15105722222222,72.85405714835802L111.39503944444444,57.32859388633481L111.76101277777778,40.82731845182809L112.00499500000001,43.37908998974367L112.12698611111112,48.3174775226564L112.24897722222222,44.76706928534183L112.61495055555555,52.26811575849373L112.73694166666667,38.683349269077056L112.85893277777778,41.88444414077288L112.98092388888888,49.00321051941609L113.102915,55.56961634101443L113.34689722222221,59.537060147962144L113.46888833333333,64.20181785700449L113.71287055555557,67.84764875078581L113.95685277777778,67.81487237665299L114.0788438888889,53.664905066186876L114.200835,54.26269698826066L114.32282611111111,52.1278286918915L114.44481722222223,61.531477669649384L114.56680833333333,58.711037399803985L114.81079055555556,55.82734194275856L114.93278166666666,69.76014939468499L115.29875500000001,63.173385271513L115.78671944444444,71.09764443451593L116.15269277777777,72.3244645082925L116.27468388888889,82.85535590679412L116.396675,54.36094368448651L116.5186661111111,40.78938922459279L116.64065722222222,46.34438864774297L116.76264833333333,52.72160259009726L116.88463944444443,60.61061126340427L117.00663055555555,57.53765348949933L117.25061277777779,56.99898008170036L117.37260388888889,53.14020745261085L117.494595,57.65339441919264L117.98255944444445,63.31587765042301L118.47052388888888,62.39401180217035L118.59251499999999,59.31045289574185L118.83649722222223,49.59272012817273L118.95848833333334,45.95497768682928L119.08047944444445,44.816904687878036L119.20247055555556,40.17656548225146L119.32446166666666,32.15407419757042L119.44645277777778,18.333622365747317L119.81242611111111,26.967776257076665L119.93441722222222,22.025645355888248L120.05640833333332,24.28396915480531L120.6663638888889,15.264737908697397L120.91034611111111,26.063698940166933L121.03233722222222,26.918015769723947L121.15432833333334,29.26956752305095L121.27631944444444,27.582954450805463L121.52030166666667,41.30946216643455L121.886275,34.87241541903731L122.0082661111111,41.64251931669924L122.37423944444446,56.61455695121069L122.49623055555556,60.836173096864584L122.61822166666667,48.056536431557845L122.74021277777778,52.69034006452623L122.86220388888889,52.37831998949193L123.10618611111111,38.29306035509842L123.47215944444444,45.46568515607156L123.59415055555554,50.26045842955018L123.83813277777779,61.863122419790564L124.20410611111112,58.69611201811203L124.32609722222223,51.7904346096814L124.44808833333333,48.76564121578926L124.69207055555556,52.05188815140878L124.81406166666666,58.61514045297881L124.93605277777777,56.74192071647777L125.05804388888889,57.39799762125568L125.18003499999999,61.34473505532019L125.3020261111111,54.44019457167001L125.42401722222223,54.04853914011418L125.66799944444445,53.000773528792934L126.03397277777778,40.73076018607998L126.15596388888889,47.60079130150981L126.64392833333333,42.82125777203935L126.76591944444444,53.59377750332281L127.00990166666666,52.686603312021255L127.2538838888889,60.67950172616408L127.49786611111111,63.81789927920285L127.61985722222222,52.74340264411578L127.74184833333334,60.66274836920693L127.86383944444445,68.46111793009823L127.98583055555555,71.65041974895288L128.10782166666667,81.30361431717145L128.3518038888889,82.28727084409051L128.59578611111112,82.38105763940173L128.83976833333332,68.8384523230148L129.20574166666665,73.66669152402984L129.32773277777778,62.24903569287454L129.44972388888888,67.88601524759116L129.57171499999998,72.43188719542721L129.6937061111111,70.3313861058655L129.93768833333334,53.3606787657443L130.05967944444444,55.552916010072124L130.18167055555557,60.55830513563587L130.42565277777777,71.84249901514771L130.5476438888889,56.71331891416987L130.7916261111111,61.95139255527244L131.15759944444443,61.67130291668963L131.4015816666667,73.85053098031625L131.5235727777778,81.4530685920844L131.6455638888889,90.76541173187762L132.01153722222222,81.43915334296442L132.37751055555555,80.29467163426519L132.49950166666667,83.63084407206989L132.74348388888887,59.16752999265376L132.98746611111113,75.4003910049734L133.23144833333333,72.66433903299604L133.35343944444446,64.80097389233028L133.8414038888889,54.69871912509091L134.0853861111111,45.1801459883079L134.20737722222222,45.52648410822701L134.32936833333332,56.70586859473535L134.45135944444442,55.96522278599557L134.69534166666668,70.24469614209181L134.81733277777778,76.07901673291222L134.9393238888889,71.76908271090156L135.061315,63.211930883047344L135.54927944444447,58.00540038987993L135.79326166666667,56.555512117504996L135.9152527777778,45.6319978749796L136.0372438888889,53.930484744505065L136.159235,49.651582541836625L136.28122611111112,51.887851550591606L136.76919055555555,59.629982890273844L136.89118166666665,50.02983932056337L137.01317277777778,55.499947141572356L137.13516388888888,38.04513895349428L137.6231283333333,41.199575418373506L137.74511944444444,41.47780591563931L137.86711055555554,50.10971308987975L137.98910166666664,35.99645836528686L138.1110927777778,34.71204785836902L138.355075,45.159338345705805L138.47706611111113,54.67570511092759L138.59905722222223,44.48258972400835L138.72104833333333,54.70062950269762L138.96503055555556,47.083326596228176L139.3310038888889,40.84471472317101L139.57498611111112,49.67327041096237L139.69697722222222,52.22273059441662L139.94095944444445,40.3294646787931L140.06295055555555,44.27322711590867L140.18494166666667,37.07515572823811L140.42892388888887,46.084333195872915L140.550915,46.92758683097274L140.7948972222222,43.69023721269919L140.91688833333333,47.39524949981588L141.5268438888889,46.25587683334271L141.77082611111112,51.05828233488686L141.89281722222222,57.7812120926132L142.01480833333335,52.72836420102375L142.13679944444445,58.03211870065956L142.25879055555555,53.69741521560362L142.38078166666668,53.17790359914023L142.50277277777778,61.61765034933417L142.746755,52.13811774319286L142.8687461111111,46.18103381964519L142.99073722222224,57.79910417245688L143.35671055555557,58.36303745815424L143.47870166666667,69.36415026028307L143.60069277777777,73.7182621188748L143.7226838888889,76.75470389589586L143.9666661111111,81.36783920906993L144.69861277777775,65.39311734800441L144.8206038888889,69.66293236129711L144.942595,73.20855882562745L145.18657722222224,67.05435329171593L145.67454166666667,63.50207064132674L146.040515,69.3278198615465L146.40648833333333,73.16519307302242L146.77246166666666,78.68849366426718L146.8944527777778,81.42142468048964L147.138435,85.01553503397236L147.26042611111112,88.57136291636948L147.38241722222222,80.40762964269732L147.50440833333332,87.17947069238964L147.74839055555555,92.71703479982344L147.87038166666665,78.95619145810824L147.99237277777777,83.96209282270921L148.11436388888887,88.76484093385329L148.236355,93.1781700252334L148.35834611111113,99.1622036404555L148.48033722222223,105.44415963400843L148.60232833333333,109.94277858753867L148.72431944444446,111.88297073941314L148.96830166666666,109.88413494221392L149.0902927777778,108.3702280263514L149.334275,107.19915140855659L149.70024833333332,98.41044690971195L149.82223944444445,108.77628808071083L150.06622166666668,104.19073136473935L150.31020388888888,113.98471042150878L150.432195,100.11116737201563L150.5541861111111,94.3324920647771L150.6761772222222,100.87950334563185L151.04215055555554,99.19513424198624L151.16414166666667,105.29473501398142L151.28613277777777,107.94660006555682L151.40812388888887,107.51168104409646L151.65210611111112,106.16353863791427L151.77409722222222,99.81510861624126L152.7500261111111,98.6160881553156L153.11599944444444,75.43058832879319L153.23799055555554,76.48004564871658L153.48197277777777,82.92185456116873L153.6039638888889,86.26023472913457L153.725955,88.00174229324759L153.8479461111111,69.9825243905138L154.21391944444443,69.80371978860217L154.33591055555556,55.051469772465666L154.57989277777776,55.06137948725355L154.7018838888889,52.297310388457355L154.823875,57.041207058239586L154.94586611111112,71.76972222919493L155.31183944444444,76.23926216546435L156.28776833333333,83.0702411736697L156.40975944444443,82.1741953791906L156.53175055555556,89.43126129375453L156.77573277777776,98.91824735009057L157.019715,110.17795489565646L157.14170611111112,124.04100305371638L157.26369722222222,125.24485690500859L157.50767944444445,122.78220519952954L157.62967055555555,126.94033441057734L157.75166166666665,128.8399085991396L157.87365277777778,132.0901712123638L157.99564388888888,134.3058067125418L158.36161722222224,113.90067166781964L158.48360833333334,116.20080877874766L158.60559944444447,112.06114202560329L159.215555,114.24897601977739L159.45953722222222,106.49845063867517L159.58152833333332,116.84487931412862L159.82551055555555,115.1086458864907L159.94750166666665,115.13274177057622L160.19148388888888,109.46724555591265L160.92343055555554,122.58014026050402L161.04542166666667,122.10495071906972L161.28940388888887,131.43534771436677L161.5333861111111,115.30645982069197L161.65537722222223,102.41179460635921L162.1433416666667,100.28939475558862L162.2653327777778,107.43424699053728L162.3873238888889,117.07390703532882L162.50931500000002,118.1861294125392L162.63130611111112,125.82681406407164L162.87528833333334,115.86316238757023L163.11927055555554,124.5313944181918L163.24126166666667,121.56229096148667L163.36325277777777,119.21305602988954L163.48524388888887,120.76830320169005L163.607235,116.37669201887809L163.7292261111111,115.88954195259228L163.8512172222222,101.47291368280115L164.33918166666666,97.20538387195438L164.5831638888889,109.17928572778929L164.705155,101.24225858628597L165.31511055555558,101.26826734560852L165.43710166666668,106.78494074139591L165.6810838888889,94.58348763216881L165.9250661111111,85.19203615567582L166.04705722222224,84.10347435130011L166.16904833333334,70.21546941896011L166.41303055555557,75.6269798082405L166.7790038888889,77.10660382919212L166.900995,81.22287342466444L167.26696833333332,89.52533012615756L167.51095055555555,79.29467700734754L167.87692388888888,68.05917788709367L168.2428972222222,74.32490732739916L168.3648883333333,81.81729986046062L168.60887055555557,84.51950127368764L168.73086166666667,93.31710599523113L168.8528527777778,96.819272712515L168.9748438888889,91.99088105870945L169.096835,93.54013873702448L169.21882611111113,78.18247709506048L169.34081722222223,86.28339359882925L169.58479944444446,81.67537530354481L169.70679055555556,72.01007244745846L169.82878166666666,69.97780391031279L170.194755,66.54648248240973L170.31674611111112,53.402761465676534L170.56072833333332,58.19352538102913L171.5366572222222,42.858964044362835L171.65864833333336,50.47112923873516L171.78063944444446,60.44474122509488L171.90263055555556,52.46952120929469L172.0246216666667,56.13627112553551L172.2686038888889,50.05784842493958L172.39059500000002,48.97391067357993L172.51258611111112,41.4543788472873L172.63457722222222,37.25715706401377L172.87855944444445,26.46572983922113L173.00055055555555,28.3134833506681L173.12254166666668,39.05713115586251L173.488515,36.04045179977391L173.6105061111111,44.95994021830785L173.85448833333334,50.487120764210715L175.07439944444442,41.65054089816127L175.44037277777778,53.50299266632166L175.5623638888889,66.42848211766442L175.684355,73.38072657541805L175.8063461111111,82.21671486482852L176.05032833333334,86.87102519772446L176.17231944444444,90.89191818499731L176.29431055555557,92.28398823824847L176.53829277777777,88.68804166724514L176.9042661111111,91.10170397479143L177.02625722222223,84.35140441184835L177.14824833333333,77.72648285943671L177.27023944444443,74.63841961873962L177.39223055555556,87.4578211963249L177.51422166666666,71.87000552684749L177.63621277777776,75.47027348573339L177.7582038888889,69.60368404780934L178.0021861111111,56.825658119852704L178.24616833333332,62.66309502920101L178.36815944444447,69.37147993512785L178.61214166666667,78.02294346507655L178.8561238888889,78.80135998159643L179.10010611111113,71.31469171603835L179.22209722222223,55.119792463757086L179.34408833333333,58.834736309886395L179.46607944444446,73.56785744893764L179.58807055555556,89.10427269524051L179.71006166666666,72.26345843888657L180.19802611111112,76.78688045671602L180.80798166666665,70.57161217933269L180.92997277777778,66.56061809366047L181.17395499999998,52.98406139011476L181.2959461111111,64.15198379560938L181.4179372222222,66.03250629446575L181.78391055555554,69.72822698485709L181.9059016666667,73.28630225663646L182.0278927777778,72.47089421027988L182.27187500000002,66.92712625772143L182.51585722222222,71.0966699181303L182.63784833333335,65.48018773585812L183.00382166666668,61.401631935426785L183.24780388888888,55.94777111308925L183.4917861111111,37.59845654550398L183.6137772222222,52.536990629592154L183.85775944444444,70.10706036743062L183.97975055555554,67.81638242008182L184.34572388888887,79.62550115419137L184.467715,66.37781144818734L184.5897061111111,49.738350918391525L184.83368833333333,53.83236400997246L184.95567944444443,69.20059145492863L185.07767055555553,65.84741509581752L185.44364388888891,66.4017772955721L185.56563500000001,71.70541026147578L185.68762611111111,82.54224545237908L185.80961722222224,89.27021106498694L185.93160833333334,89.77696886230626L186.05359944444444,99.12095943282706L186.29758166666667,107.88775390607157L186.663555,87.40499618235889L186.7855461111111,96.61616517210484L187.02952833333333,104.27466799304506L187.51749277777776,99.60777408202921L187.6394838888889,94.30996705406409L187.8834661111111,88.95491744056443L188.00545722222222,87.66249923217457L188.37143055555555,87.62894765465576L188.61541277777778,80.4630192173785L188.859395,56.260234982647845L189.10337722222224,58.755338059652786L189.22536833333334,47.501840581672134L189.34735944444446,42.90010711111323L189.46935055555556,51.87731459305859L189.7133327777778,57.105768234997626L190.07930611111112,54.85231849540883L190.20129722222222,60.75699530870765L190.44527944444445,61.81729871258995L190.56727055555555,50.95282807752968L190.68926166666665,55.99965553899359L190.93324388888888,48.914525389884815L191.4212083333333,43.495753204483464L191.66519055555554,39.455739088007306L191.78718166666664,51.75577682281099L192.0311638888889,44.505710886786076L192.153155,42.253712878244244L192.27514611111113,49.22830504853604L192.39713722222223,48.15441738872487L192.51912833333336,41.16298831644975L192.64111944444446,40.94020773926268L193.12908388888889,40.06073060854852L193.25107500000001,36.742449866187314L193.37306611111111,45.28899190583196L193.49505722222221,45.66917217588323L193.61704833333334,62.34910147106665L193.86103055555554,61.87627626285623L194.10501277777777,59.66714721505234L194.22700388888887,46.537402656003245L194.348995,53.415663675475315L194.4709861111111,51.70027917806718L194.5929772222222,40.78381990666381L194.71496833333333,43.66775544712562L195.08094166666666,54.853650105450654L195.44691500000002,46.458721985974556L195.69089722222222,31.44376706565307L195.93487944444445,40.31024122998299L196.05687055555558,19.882895965644906L196.17886166666668,29.806684405998997L196.30085277777778,35.27441174479099L196.4228438888889,20.7558181819852L196.91080833333334,40.158510287374746L197.5207638888889,54.46620065539184L197.7647461111111,54.717508395916695L197.88673722222222,57.596166001689L198.00872833333332,50.242645468082785L198.25271055555555,35.94989400092962L198.37470166666665,34.47138948213416L198.49669277777775,50.94908929950427L198.8626661111111,56.129670576573496L199.22863944444444,62.764024876153385L199.35063055555557,62.44330362154921L199.47262166666667,71.88901841206268L199.7166038888889,66.31934506589037L199.838595,60.6667380040711L199.96058611111113,58.03881754591501L200.20456833333333,67.13120348850514L200.32655944444446,74.18973612317181L200.57054166666666,79.83466208349152L200.69253277777779,77.13617294238512L200.81452388888889,52.6911718236749L200.93651499999999,51.75841639328862L201.05850611111111,51.32013998044133L201.18049722222221,58.24211262460162L201.42447944444444,73.65698669195096L201.54647055555554,75.58081301417056L201.91244388888887,60.97969221402821L202.52239944444446,60.88961303685155L203.0103638888889,60.10477276114335L203.98629277777778,35.69422325603672L204.10828388888888,42.82393858471213L204.230275,33.31769275604268L204.3522661111111,35.47497016539914L204.4742572222222,36.26728263042668L204.84023055555554,27.740992842088197L204.96222166666666,41.57745196248435L205.20620388888887,41.36537528026719L205.32819500000002,56.374841011140525L205.57217722222222,51.18017470603605L205.69416833333335,54.565688103120095L205.81615944444445,41.46316719228228L205.93815055555555,29.526470125281808L206.18213277777778,29.775519488335966L206.426115,7.093569614485331L206.5481061111111,19.353912920125744L206.67009722222224,27.033510012188646L206.91407944444444,26.8493677678282L207.03607055555557,45.633106825743724L207.15806166666667,42.79046911570553L207.4020438888889,15.364334403104033L207.6460261111111,15.622227892608917L208.37797277777776,14.067999559344178L208.62195499999999,10.831537542738587L209.10991944444444,24.55492858548776L209.35390166666667,34.37868227155375L209.47589277777777,25.0589925824059L209.96385722222223,25.169998439648253L210.5738127777778,38.6635939278936L210.6958038888889,47.91548122354333L211.18376833333332,44.83301408679596L211.54974166666665,31.777140601773333L211.67173277777778,45.097516766003444L212.0377061111111,44.78015076463712L212.15969722222223,42.91513019344867L212.40367944444446,42.864021304801L212.52567055555556,26.67741551626353L212.64766166666666,22.189788934199317L212.7696527777778,33.98602593464895L213.013635,33.93352861518928L213.13562611111112,24.25110951738333L213.50159944444445,12.76645613639849L213.62359055555555,-9.630737551675468L213.74558166666668,-2.018287792273094L213.86757277777778,15.089648969499759L213.98956388888888,32.04145215227503L214.47752833333334,39.18881088329665L214.84350166666667,45.75880973913285L214.96549277777777,20.87917003342612L215.08748388888887,15.235788591413872L215.209475,20.827079293092194L215.4534572222222,26.201660813096154L215.57544833333336,22.28780421050852L215.69743944444446,33.18345435850478L215.81943055555556,40.8158390536482L215.94142166666668,44.939562370852144L216.06341277777778,39.4916866312848L216.18540388888889,44.019464045175624L216.307395,58.86479766109867L216.4293861111111,45.61803279565632L216.79535944444444,53.068673645077055L217.03934166666667,21.648027747486296L217.64929722222223,39.7882915478962L217.77128833333333,25.12257288698067L217.89327944444443,37.3692941494501L218.13726166666666,38.97828884368263L218.6252261111111,50.89364109183948L218.99119944444445,46.31873982588585L219.23518166666668,39.246242110159706L219.7231461111111,44.80768734669767L219.84513722222223,46.64188524129357L219.96712833333333,47.62225522809201L220.08911944444444,48.58503499168838L220.45509277777776,59.800056794944375L220.699075,56.280498663717914L220.82106611111112,56.24466927371283L220.94305722222222,63.580393666844884L221.06504833333332,61.938181991458144L221.30903055555555,54.831116641885174L221.55301277777778,45.21164000013181L221.67500388888888,44.95927936035353L222.0409772222222,25.116595789490933L222.1629683333333,28.611041213084654L222.40695055555557,27.884466425157637L222.52894166666667,38.36671658571751L222.6509327777778,47.680589563249875L223.26088833333333,43.29776795099747L223.38287944444446,53.52005083356071L223.50487055555556,61.227712824836736L224.48079944444444,61.408079909163554L224.60279055555554,67.58994888075135L224.72478166666667,58.73891331512185L224.96876388888887,64.86567455618295L225.090755,73.86028169314704L225.2127461111111,74.39898765451137L225.3347372222222,66.22889574678477L225.45672833333333,67.75415243331018L225.57871944444446,77.83001027244038L225.70071055555556,75.03533149177292L225.9446927777778,63.564956003545916L226.18867500000002,63.895594682345376L226.31066611111112,70.30664792947861L226.43265722222222,72.09943035914206L226.67663944444445,66.27567237072839L226.79863055555555,79.28536200332881L227.04261277777778,77.34502760316033L227.286595,75.71384689061595L227.4085861111111,84.92030605517506L227.65256833333333,75.61916919730467L227.77455944444444,81.20047967380256L228.2625238888889,83.19497499068163L228.384515,85.07403080421469L228.5065061111111,61.3478160185514L228.62849722222222,67.65840769262283L228.75048833333332,75.8298290517427L228.87247944444442,78.81569046676974L228.99447055555558,77.86523845422771L229.23845277777778,73.19100222413098L229.3604438888889,74.70599886349162L229.482435,86.65776366633926L229.6044261111111,90.6264643767718L230.09239055555557,77.0251487397524L230.33637277777777,75.37853489310675L230.4583638888889,89.3316073183375L230.580355,97.54290289332873L230.82433722222223,82.59793944241127L231.06831944444443,92.74086715949474L231.31230166666666,104.38801260663415L231.55628388888888,98.8590510211898L231.67827499999999,93.20583568603938L231.8002661111111,93.50795488355509L232.04424833333331,101.5968593410819L232.16623944444444,94.29822990357123L232.28823055555557,78.40767824475428L232.41022166666667,76.25980901660847L232.5322127777778,79.23202760327706L232.6542038888889,82.54276335038692L232.776195,82.5059221823004L232.89818611111113,67.59783036977424L233.02017722222223,71.05028970355828L233.50814166666666,59.292040612699516L233.6301327777778,59.24705956956655L233.874115,67.41477559847411L233.99610611111112,65.91083273445747L234.36207944444445,70.83831109943863L234.48407055555555,56.47431539503284L234.60606166666665,60.08224864857569L234.72805277777778,46.27962817296605L234.85004388888888,55.26856709443039L235.0940261111111,56.12402238686896L235.58199055555554,32.87891160900677L235.8259727777778,45.10708948821524L235.9479638888889,48.67054763823736L236.06995500000002,60.824120513711314L236.43592833333335,73.8156824789346L236.55791944444445,79.77001578226108L236.80190166666668,81.27819468064803L236.92389277777778,89.02004690513886L237.04588388888888,82.2402621201082L237.2898661111111,91.19111324535334L237.4118572222222,90.32115275354022L237.53384833333334,94.03597248631827L237.65583944444444,59.75769822222555L237.89982166666667,55.321003421342525L238.14380388888887,60.9586819434572L238.3877861111111,65.98448743264845L238.50977722222223,74.23960480476701L238.75375944444443,78.05923807645952L238.87575055555556,73.51672491184007L238.99774166666666,71.4876926435208L239.11973277777778,54.01918610111945L239.363715,69.73163245572283L239.72968833333334,60.85993897214125L239.85167944444444,44.22923831273968L239.97367055555557,31.407833215284533L240.09566166666667,30.50999174997583L240.21765277777777,18.98738537952048L240.461635,17.429891927019717L240.5836261111111,22.117932371578295L240.70561722222223,29.18005777004483L240.82760833333333,31.976345834951157L240.94959944444443,44.18679724888591L241.07159055555556,36.29378469496629L241.19358166666666,42.36426898635327L241.31557277777776,42.867113296125474L241.559555,40.704900138135386L241.6815461111111,52.816769713046554L241.80353722222222,53.28411707625884L242.29150166666665,66.18912263039995L242.657475,68.00707263353956L242.77946611111113,67.53419496038329L242.90145722222223,36.54523187372372L243.26743055555556,33.17487676071835L243.38942166666666,26.95599442836425L243.5114127777778,14.369700388764281L243.6334038888889,17.010821432962935L243.755395,15.89000385222493L243.99937722222222,21.849285619840956L244.12136833333332,25.876370104757516L244.24335944444445,32.21630491088274L244.60933277777778,30.492350940339538L244.73132388888888,35.281529078548814L244.9753061111111,40.72693439848551L245.2192883333333,40.86380419163145L245.34127944444444,35.59614665250441L245.70725277777777,32.61894844601358L245.95123500000003,43.55588099530382L246.07322611111113,39.53643259553961L246.19521722222223,43.346995314057565" style="fill: none;" fill="none"></path></g></g></g></g><g opacity="0.2"><g><g><g><path stroke="rgb(255, 112, 67)" stroke-width="2px" d="M31.368870555555553,438.3515625L31.61285277777778,163.04616956819186L31.73484388888889,326.31231764771724L31.97882611111111,266.28568892045456L32.100817222222226,124.2331416932019L32.22280833333333,414.309482732957L32.954755,-76.43182777274745L33.07674611111111,170.43164062499997L34.052674999999994,177.50284090909088L34.174666111111115,83.84871199997986L34.41864833333334,-256.04029580679816L34.906612777777774,196.83079314773732L35.150595,152.67506622726268L35.27258611111111,-124.35885192047472L35.394577222222225,-36.99023437500004L35.51656833333333,102.86239346590908L35.760550555555554,213.9588020227172L36.49249722222222,216.15874538638374L36.61448833333333,72.3776729432019L36.73647944444445,233.1296068863435L36.858470555555556,68.29208096590908L36.98046166666667,331.0264511704445L37.95639055555556,216.15874538638374L38.078381666666665,92.01989595456556L38.20037277777777,132.8757198182019L38.32236388888889,79.76314400001003L38.68833722222222,229.67258043180811L38.81032833333333,134.76136843182823L38.932319444444445,-16.24802769314161L39.05431055555555,81.177374465899L39.29829277777778,162.73189879547465L39.542275000000004,304.4701752500101L39.66426611111111,251.9861409772526L40.27422166666667,97.36257102272725L40.39621277777778,265.81427077271724L40.88417722222223,273.6711599772627L41.49413277777778,171.37447692047465L42.59205277777778,152.36079545454544L42.836035,228.41547336361626L42.95802611111111,84.79154829545452L43.080017222222224,168.23172123865646L43.933955,116.84764665907079L44.299928333333334,41.4215102954344L44.543910555555556,155.97496928410095L44.66590166666666,228.10120259089902L44.78789277777778,25.864879261363615L45.27585722222222,95.79119318181816L45.397848333333336,92.8055848750201L45.51983944444444,116.69052326137367L45.88581277777777,175.61719229546458L46.007803888888894,240.82937269319189L46.37377722222222,140.41831427270716L46.86174166666667,259.68590678410095L47.34970611111111,-107.70223721590915L47.47169722222222,128.63298046588895L47.59368833333334,124.86168323863635L47.71567944444445,158.17488867044446L47.837670555555555,70.49200035225259L47.95966166666667,217.88724662498996L48.203643888888884,-46.88989559086892L48.44762611111111,125.17595401135357L48.81359944444444,131.14719460227272L48.93559055555556,11.40818394314157L49.057581666666664,32.62178479541428L49.30156388888889,-5.562677556818231L49.423555,-128.44444389776754L49.545546111111115,18.636531602252592L49.78952833333333,181.43128551136363L49.911519444444444,59.806650215929174L50.15550166666667,90.91991228407079L50.27749277777778,104.27662393179806L50.521475,273.6711599772627L50.64346611111111,313.42702414772725L51.009439444444446,77.40607723864639L51.49740388888889,-50.66124077276755L51.619395,104.43377130681816L51.741386111111105,92.33416672728276L51.863377222222226,173.10297815908083L52.10735944444445,-24.10491689768707L52.229350555555556,247.42915482954547L52.47333277777778,67.82066281817174L52.717315000000006,200.91636114770714L52.839306111111114,84.3201301477172L52.96129722222222,-102.51670952276754L53.083288333333336,139.1612311818383L53.32727055555555,45.82139702276747L53.449261666666665,-92.77414772727278L54.42519055555556,25.550584511323375L54.913154999999996,349.41157910227776L55.40111944444445,92.49129012497986L55.523110555555554,122.34746910225259L55.64510166666667,-260.75442932952546L56.13306611111111,-13.262419386343554L56.25505722222223,92.8055848750201L56.377048333333335,-7.291202772747408L56.49903944444444,86.83434428410095L56.86501277777778,-57.103851556778L56.98700388888889,171.06018217043442L57.35297722222222,-58.67522939768707L57.840941666666666,275.0854024318132L57.96293277777778,151.2608357613737L58.206915,157.86061789772728L58.32890611111111,38.750196738676564L58.45089722222222,166.34604864770716L58.57288833333334,113.07634943181816L58.694879444444446,152.04652468182823L58.81687055555555,164.77467080679804L59.18284388888889,80.23456214774737L59.304835,229.98685120452532L60.03678166666666,246.3291951363737L60.15877277777778,132.40430167046458L60.402755,-165.3718231591312L60.768728333333335,-2.419921875000039L61.37868388888889,118.41902449997986L61.74465722222222,180.33132581819186L61.988639444444445,393.7244294204495L62.11063055555556,76.62038831819186L62.354612777777774,80.54883292046459L62.842577222222225,319.86967089772224L63.08655944444445,44.092871806838275L63.33054166666667,240.67222531817177L64.42846166666666,212.85884232954547L64.67244388888889,170.7459113977172L64.91642611111111,174.83150337501004L65.52638166666667,236.90092809091914L65.892355,163.20329296588895L66.01434611111111,243.3435628522526L66.38031944444444,306.67009463635355L66.62430166666667,138.84693643179804L66.74629277777778,188.97390394319186L66.8682838888889,159.11772496591914L67.11226611111111,227.6297844431617L67.35624833333334,269.1141738295555L67.84421277777777,119.2047134204344L67.96620388888888,312.9556059999899L68.57615944444444,240.98649609088898L69.06412388888889,138.53266565908083L69.186115,64.36363636363635L69.30810611111112,213.01598970456556L69.43009722222222,8.579723011363615L69.67407944444444,-5.091283386403893L71.74792833333333,-39.50444851138379L71.99191055555556,21.150745738636328L72.11390166666666,232.8153361136263L72.47987499999999,237.3723462386565L72.72385722222222,77.09180646592918L72.84584833333334,27.75055185231293L73.4558038888889,268.64275568181813L73.57779500000001,-196.64223260229286L73.82177722222222,30.579012784090885L74.06575944444444,344.2260274318132L75.16367944444445,-51.289782318201986L75.28567055555555,11.722478693181788L75.52965277777778,112.91920205679806L75.65164388888888,70.80629510229281L75.89562611111111,273.9854427386414L76.13960833333333,71.74910742044447L76.38359055555556,-93.71698402274745L76.50558166666666,78.03461878408083L76.62757277777779,163.36044034090907L76.871555,183.94549964774737L77.60350166666666,185.20258273861626L77.84748388888889,163.04616956819186L78.0914661111111,25.707731886343495L78.21345722222222,51.949761011383735L78.33544833333335,-51.13263494318185L78.45743944444445,103.33381161364639L79.067395,120.14754971590908L79.55535944444443,259.37163601138377L79.67735055555555,-0.6913966590708238L79.92133277777778,12.508167613636326L80.28730611111112,7.322639920494737L81.14124388888888,26.022026636383714L81.263235,-158.61486967043447L81.75119944444445,-33.21893714774741L81.87319055555557,8.108328840949296L81.99518166666667,-5.8769723068584305L82.2391638888889,188.50248579545453L82.48314611111111,60.90658593177793L82.72712833333333,61.22088068181815L82.97111055555555,184.4168938181617L84.06903055555556,49.27839949997986L84.19102166666667,113.23349680683828L84.31301277777777,318.7697112045505L84.43500388888889,20.365056818181788L84.6789861111111,262.98578586361623L84.80097722222222,78.34888955679806L85.16695055555556,-28.976197795434476L85.53292388888889,60.592339136383735L85.89889722222222,162.26048064773732L86.26487055555555,92.33416672728276L86.38686166666666,131.46146537498993L86.50885277777778,-74.23190838640389L86.63084388888888,72.69194371591912L86.752835,149.53231054544446L86.99681722222223,286.2421827045354L88.21672833333332,208.45897957953542L88.33871944444444,134.447097659111L88.8266838888889,70.80629510229281L89.31464833333334,128.79012784090907L89.80261277777777,180.33132581819186L90.16858611111111,-57.88954047723253L90.29057722222223,151.57510653409088L90.53455944444445,-117.91619318181823L90.77854166666667,134.1328029090708L91.144515,232.6582127159292L91.99845277777779,-2.2627744999799004L92.36442611111111,47.864169034090885L92.48641722222223,91.70560120452532L92.85239055555556,126.43306107954544L92.97438166666666,57.76383024995974L93.09637277777777,163.36044034090907L93.34035499999999,130.20435830679804L93.46234611111112,148.11808007955548L93.58433722222223,-30.861870386383792L93.70632833333333,56.19245240905067L93.95031055555556,-12.319583090868878L94.5602661111111,-32.90464239770721L94.68225722222222,19.265073147687012L95.41420388888889,-2.891316045414339L95.6581861111111,37.49306569316167L95.78017722222222,160.68910280682823L95.90216833333334,225.27271768179804L96.02415944444445,-43.74713990905072L96.14615055555555,127.69016814773732L96.26814166666666,265.81427077271724L96.39013277777778,79.44887322729281L96.51212388888888,100.97674485228276L96.634115,130.20435830679804L96.75610611111111,-53.9610958749598L97.00008833333334,141.5182979432019L97.36606166666667,125.01883061365646L97.48805277777778,241.14364346590907L97.6100438888889,159.58914311365646L97.85402611111111,69.86345880681816L97.97601722222223,34.0360632159493L98.34199055555555,54.30682777274737L98.58597277777778,264.40004030682826L98.95194611111111,204.53053497726265L99.31791944444444,48.335563204505206L99.43991055555556,110.87643004547463L99.56190166666667,147.33239115910095L99.80588388888889,66.24928497726265L99.927875,179.07421875L100.29384833333334,-95.28836186365652L100.53783055555556,38.59304936365645L100.65982166666667,115.5905635682019L101.025795,-85.23155327276754L101.14778611111112,-17.190863988616286L101.26977722222222,91.23420703411101L101.39176833333333,-99.37395384094935L101.51375944444445,-124.35885192047472L101.75774166666666,78.19176615910094L101.87973277777779,189.6024454886263L102.24570611111112,247.58630220456556L102.36769722222222,32.15039062499998L102.85566166666666,-23.47637535225263L103.58760833333334,-43.74713990905072L103.70959944444445,0.2514396364038337L103.95358166666666,13.608151284131102L104.1975638888889,-93.08844247731301L104.319555,25.707731886343495L104.44154611111111,-141.17256604541438L104.68552833333334,36.86452414772725L104.92951055555555,79.44887322729281L105.17349277777777,176.71715198863635L105.2954838888889,-120.11611256816175L105.41747500000001,221.9728386022828L105.78344833333334,115.11914542046459L106.27141277777777,119.67613156817175L106.39340388888888,28.536240772767467L106.63738611111111,160.68910280682823L106.75937722222221,199.81640145453537L107.613315,177.18857013637367L107.85729722222221,119.67613156817175L108.10127944444444,159.58914311365646L108.5892438888889,-74.70330255681823L109.44318166666666,-114.61629012497994L109.56517277777778,138.68981303410095L109.68716388888889,-33.21893714774741L109.80915499999999,-318.5811626477676L109.9311461111111,169.80309907956556L110.05313722222222,244.6006699204445L110.17512833333333,211.28746448863635L110.29711944444443,50.69262996586884L110.78508388888889,7.165492545474618L110.907075,36.55022939768701L111.15105722222222,184.7311885682019L111.76101277777778,-272.6969105113637L112.00499500000001,91.86274857954542L112.12698611111112,142.14683948863635L112.24897722222222,-22.690686431798092L112.73694166666667,-219.4272112954747L112.85893277777778,102.70524609088896L112.98092388888888,184.25977042046458L113.102915,180.33132581819186L113.34689722222221,134.91849182952532L113.46888833333333,152.8322136022828L113.71287055555557,137.11843519319186L113.95685277777778,67.1921212727373L114.0788438888889,-215.18447194316175L114.200835,65.62074343182822L114.32282611111111,11.565331318161668L114.44481722222223,240.20080717043444L114.56680833333333,5.1226725795052035L114.81079055555556,1.037128556858372L114.93278166666666,334.4834896136414L115.78671944444444,221.65856782956556L116.15269277777777,95.63404580679806L116.27468388888889,282.9422916363586L116.5186661111111,-217.0701445341111L116.64065722222222,151.88937730680811L116.76264833333333,173.8886670795354L116.88463944444443,210.5017755681818L117.00663055555555,-0.8485440340909234L117.25061277777779,46.764185363596106L117.37260388888889,-20.17647229541434L117.494595,143.40394655682823L117.98255944444445,170.90305877273732L118.47052388888888,44.87856072729281L118.59251499999999,0.7228338068181532L118.83649722222223,-135.04420205679813L118.95848833333334,-23.16212855685843L119.08047944444445,23.193517749959742L119.20247055555556,-47.9898792613637L119.93441722222222,-71.87484162504028L120.05640833333332,67.1921212727373L120.6663638888889,-156.10065553405073L120.91034611111111,231.2439582727172L121.03233722222222,43.15003551136361L121.15432833333334,73.94905078411101L121.27631944444444,-4.462693886323455L121.886275,-87.43147265911107L122.0082661111111,170.27449324997988L122.37423944444446,341.083271749995L122.49623055555556,141.04687979546458L122.61822166666667,-194.7565600113436L122.74021277777778,140.73260902274737L122.86220388888889,46.44993856820191L123.10618611111111,-229.3268725113436L123.47215944444444,181.74555628408083L123.59415055555554,141.3611505681818L123.83813277777779,282.3137381022627L124.44808833333333,-8.705433238636385L124.69207055555556,114.49057989770714L124.81406166666666,183.31693412498996L124.93605277777777,21.150745738636328L125.05804388888889,69.86345880681816L125.18003499999999,136.33274627273732L125.3020261111111,-76.74607456814165L125.42401722222223,46.607085943222025L125.66799944444445,33.093226920474635L126.03397277777778,-192.39949324997997L126.76591944444444,258.271652340889L127.00990166666666,35.450293681838275L127.2538838888889,212.54457155682823L127.49786611111111,123.44745277274737L127.61985722222222,-157.67203337495985L127.86383944444445,216.63013955679804L127.98583055555555,132.24715429544446L128.10782166666667,264.71431107954544L128.3518038888889,100.97674485228276L128.59578611111112,84.1630067500201L128.83976833333332,-188.47104864770722L129.20574166666665,165.40323632955548L129.32773277777778,-154.68642506816175L129.44972388888888,174.98862677270716L129.57171499999998,158.80345419320193L129.6937061111111,30.421865409070765L129.93768833333334,-269.0827606591312L130.05967944444444,97.20542364770714L130.18167055555557,155.66069851138374L130.42565277777777,286.2421827045354L130.5476438888889,-230.74110297723257L130.7916261111111,161.4747917272828L131.15759944444443,56.34959978407076L131.4015816666667,305.2558641704646L132.01153722222222,-95.75975603407082L132.37751055555555,58.5495191704143L132.49950166666667,147.01812038638374L132.74348388888887,-405.63543748855597L132.98746611111113,383.8247502215884L133.23144833333333,20.679351568222007L133.35343944444446,-84.60296377268708L134.0853861111111,-135.67274360223254L134.20737722222222,52.10690838640383L134.32936833333332,269.1141738295555L134.45135944444442,41.89295242049474L134.69534166666668,341.5546898977323L135.54927944444447,-40.91867897727277L135.79326166666667,29.007634943181788L135.9152527777778,-161.91477272727278L136.159235,-31.647559306838332L136.28122611111112,94.37696271592918L136.76919055555555,206.73047834092918L136.89118166666665,-132.3728885000403L137.01317277777778,159.43199573863635L137.13516388888888,-293.5962166135962L137.6231283333333,101.13386824997986L137.74511944444444,46.764185363596106L137.86711055555554,214.11594939773732L137.98910166666664,-232.1553813977676L138.1110927777778,10.308248227292811L138.355075,243.65785760229284L139.57498611111112,217.4158284772526L139.69697722222222,100.66247407956556L139.94095944444445,-185.64258771592927L140.06295055555555,119.2047134204344L140.18494166666667,-99.68820063634355L140.42892388888887,217.2587050795555L140.550915,62.94940589774737L140.7948972222222,-17.819405534050723L140.91688833333333,117.79048295454542L141.5268438888889,24.607796170494737L141.77082611111112,142.30398686365646L141.89281722222222,185.5168774886565L142.01480833333335,-43.27574573863639L142.13679944444445,158.80345419320193L142.25879055555555,-28.66195100004028L142.38078166666668,43.307182886383714L142.50277277777778,221.9728386022828L142.99073722222224,278.5424408750101L143.35671055555557,69.07776988636361L143.47870166666667,278.3852934999899L143.60069277777777,156.4463874318383L143.7226838888889,134.447097659111L143.9666661111111,169.017410159111L144.69861277777775,-238.12659801136368L144.8206038888889,150.78941761363635L144.942595,140.57546164772728L145.18657722222224,-49.87555185231301L146.040515,180.01705504547465L146.40648833333333,146.07528409090907L146.77246166666666,183.63120489770714L146.8944527777778,133.34711398861623L147.138435,153.3036317500201L147.26042611111112,156.13209268179804L147.38241722222222,-74.70330255681823L148.60232833333333,195.41653870452532L148.72431944444446,148.74662162498993L148.96830166666666,71.90625479546459L149.0902927777778,79.60599662498991L149.334275,84.94869567047463L149.70024833333332,-68.57493856820199L149.82223944444445,305.72727032954043L150.06622166666668,17.065153761343495L150.31020388888888,300.0703125L150.6761772222222,225.27271768179804L151.04215055555554,67.1921212727373L151.16414166666667,221.18714968182823L151.28613277777777,158.33203604546458L151.40812388888887,99.24821963635357L151.65210611111112,80.54883292046459L151.77409722222222,-20.805061795494815L152.7500261111111,75.8346993977373L153.11599944444444,-365.0939083749599L153.23799055555554,96.41973472725259L153.48197277777777,205.3162238977172L153.6039638888889,149.68945792046458L153.725955,121.09038601138373L153.8479461111111,-272.3826157613235L154.21391944444443,66.40643235228276L154.33591055555556,-225.24128053405073L154.57989277777776,55.249664068222025L154.7018838888889,-0.22000248865652394L154.823875,147.17524378408083L154.94586611111112,351.6115104772828L155.31183944444444,161.16052095456556L156.28776833333333,212.85884232954547L156.40975944444443,65.14932528409088L156.53175055555556,227.3155136704445L157.14170611111112,387.4389180568132L157.26369722222222,148.11808007955548L157.50767944444445,75.9918227954344L157.62967055555555,205.94478942047465L157.75166166666665,164.9318181818182L157.87365277777778,193.84516086361626L157.99564388888888,176.40288121591914L158.36161722222224,-273.79689418185853L158.48360833333334,159.9034138863737L158.60559944444447,33.40747371586884L159.215555,155.81782190908083L159.45953722222222,-40.76153160225263L159.58152833333332,313.42702414772725L159.82551055555555,82.12021076137367L159.94750166666665,115.5905635682019L160.19148388888888,1.82281747731293L160.92343055555554,371.72513964772224L161.04542166666667,113.07634943181816L161.28940388888887,308.712890625L161.65537722222223,-142.58684446594935L162.1433416666667,59.9637975909493L162.2653327777778,243.1864394545555L162.3873238888889,300.2274478863586L162.50931500000002,139.31835457953537L162.63130611111112,270.99982244318187L163.11927055555554,289.227802999995L163.24126166666667,65.14932528409088L163.36325277777777,74.57759232954542L163.48524388888887,150.31799946589902L163.607235,32.93607954545452L163.7292261111111,106.63369069316168L163.8512172222222,-172.44302344322207L164.33918166666666,16.12231746586884L164.5831638888889,336.68342098864645L164.705155,-49.56125710227277L165.31511055555558,101.76243377273732L165.43710166666668,211.60173526135355L165.9250661111111,-93.24554189768708L166.04705722222224,63.42080006816169L166.16904833333334,-193.65662429549482L166.41303055555557,178.44567720456556L166.7790038888889,105.2194602272727L166.900995,159.43199573863635L167.26696833333332,247.27200745452535L168.3648883333333,224.1727579886263L168.60887055555557,135.86132812499997L168.73086166666667,260.4715957045555L168.8528527777778,163.36044034090907L168.9748438888889,0.2514396364038337L169.096835,122.97603462501004L169.21882611111113,-213.61309410225266L169.70679055555556,-111.63068181818184L169.82878166666666,31.36470170454542L170.194755,1.3513753522525724L170.31674611111112,-196.32793785225266L170.56072833333332,149.21803977272728L171.5366572222222,-248.49770135229286L171.90263055555556,-99.05965909090912L172.0246216666667,125.80451953411101L172.2686038888889,-65.4321828863838L172.39059500000002,28.37909339774735L172.51258611111112,-101.41672585227278L172.87855944444445,-178.57138743183833L173.00055055555555,63.42080006816169L173.12254166666668,243.1864394545555L173.6105061111111,214.43022017045453L173.85448833333334,155.50355113636363L175.07439944444442,-126.244476556778L175.8063461111111,250.1004923636263L176.05032833333334,175.30292152274737L176.17231944444444,167.2888849431818L176.29431055555557,118.7333192500201L176.53829277777777,20.365056818181788L176.9042661111111,136.96128781817177L177.02625722222223,-43.904287284070826L177.14824833333333,-48.14702663638379L177.27023944444443,15.965218045494737L177.39223055555556,331.0264511704445L177.51422166666666,-224.29849219322213L177.63621277777776,143.87536470456556L177.7582038888889,-41.86151527274741L178.0021861111111,-185.9568345113235L178.24616833333332,173.5743963068182L178.36815944444447,196.83079314773732L178.61214166666667,242.40075053410098L178.8561238888889,93.59127379547463L179.10010611111113,-70.9320053295656L179.22209722222223,-252.58329332958573L179.34408833333333,129.4186693863435L179.46607944444446,353.49715909090907L179.71006166666666,-247.71201243183833L180.19802611111112,162.73189879547465L180.80798166666665,-47.518485090949355L181.2959461111111,276.342509500005L181.4179372222222,101.76243377273732L181.78391055555554,139.94692010229284L181.9059016666667,140.88973242044446L182.0278927777778,56.978141329505206L182.27187500000002,-38.40446484088902L182.51585722222222,150.31799946589902L182.63784833333335,-41.23297372731301L183.85775944444444,403.9383853863586L183.97975055555554,24.29350142045452L184.34572388888887,303.99875710227275L184.5897061111111,-266.4113991477273L184.83368833333333,131.61861275001004L184.95567944444443,361.1969129090959L185.07767055555553,2.1370642727071303L185.44364388888891,76.93465909090908L185.56563500000001,172.47443661364642L185.68762611111111,288.44211407954043L185.80961722222224,217.10155770453542L185.93160833333334,99.40536701137367L186.05359944444444,276.65678027272224L187.02952833333333,249.78622159090907L187.51749277777776,10.93678977272725L187.6394838888889,-6.34836647727277L187.8834661111111,-12.791025215929254L188.00545722222222,63.10655327276747L188.37143055555555,86.99146768179806L188.61541277777778,-55.68962109088902L188.859395,-403.5926654772326L189.10337722222224,106.16229652274737L189.22536833333334,-166.31461149995985L189.46935055555556,222.4442567500201L189.7133327777778,156.4463874318383L190.07930611111112,12.036773443222007L190.20129722222222,172.94585476138374L190.44527944444445,81.96306338635357L190.56727055555555,-155.4721139886163L190.68926166666665,151.88937730680811L190.93324388888888,-85.70294744318184L192.27514611111113,181.74555628408083L192.39713722222223,27.75055185231293L192.51912833333336,-91.674164056778L192.64111944444446,36.70737677270713L193.12908388888889,23.350665124979862L193.25107500000001,-26.304884238676625L193.37306611111111,207.67329065908083L193.49505722222221,52.89259730685839L193.61704833333334,379.2677580795505L193.86103055555554,52.89259730685839L194.10501277777777,17.693695306777915L194.22700388888887,-202.92774396592927L194.348995,184.1026230454445L194.4709861111111,19.10797372731293L194.5929772222222,-166.62890625000003L194.71496833333333,98.46253071589902L195.08094166666666,267.38564861362636L196.17886166666668,218.35866477272728L196.30085277777778,139.1612311818383L196.4228438888889,-255.0974595113235L197.5207638888889,326.31231764771724L197.7647461111111,59.492355465888956L197.88673722222222,112.29066051136361L198.00872833333332,-89.47424467043447L198.25271055555555,-235.61238387497997L198.37470166666665,6.37980362502008L198.49669277777775,364.0253858295354L198.8626661111111,154.56071484088895L199.22863944444444,188.81675656817177L199.35063055555557,56.34959978407076L199.47262166666667,251.3575994318182L199.838595,-46.732796170494815L199.96058611111113,8.108328840949296L200.20456833333333,239.8865363977172L200.57054166666666,187.08825532956556L200.69253277777779,25.864879261363615L200.81452388888889,-411.76384943181824L200.93651499999999,34.0360632159493L201.05850611111111,42.992888136343495L201.18049722222221,189.7595928636464L201.42447944444444,366.5395939715884L201.54647055555554,112.13351313634351L201.91244388888887,-216.44160298867666L202.52239944444446,59.17810867049476L203.0103638888889,45.19280752268701L203.98629277777778,-428.10621734098964L204.230275,-147.30097798867664L204.3522661111111,76.46324094317174L204.4742572222222,51.3212194659493L204.84023055555554,-134.25851313634357L204.96222166666666,304.4701752500101L205.20620388888887,37.335918318141566L205.32819500000002,341.5546898977323L205.57217722222222,-47.518485090949355L205.69416833333335,118.8904426477172L205.81615944444445,-207.48473011363637L205.93815055555555,-197.2707741477273L206.18213277777778,34.50745738636361L206.426115,-423.86347798867666L206.5481061111111,252.30043572729284L206.67009722222224,172.94585476138374L206.91407944444444,23.350665124979862L207.03607055555557,402.5241489261389L207.4020438888889,-505.7322251363235L207.6460261111111,20.522204193201908L208.37797277777776,-15.46233877268707L209.47589277777777,-152.01511151140394L209.96385722222223,27.279109727252592L210.5738127777778,295.0419082045555L211.67173277777778,298.1846638863737L212.0377061111111,38.750196738676564L212.15969722222223,7.479739340868838L212.40367944444446,41.89295242049474L212.52567055555556,-280.86809446594935L212.7696527777778,258.1145289431919L213.013635,32.93607954545452L213.13562611111112,-159.71485334092927L213.62359055555555,-435.1774176250806L213.74558166666668,142.6182576363737L213.86757277777778,340.14044744318187L213.98956388888888,354.125712625005L214.47752833333334,174.98862677270716L214.84350166666667,170.5887880000201L214.96549277777777,-451.83398437500006L215.08748388888887,-91.98845880681823L215.209475,127.06160262497986L215.4534572222222,128.31870969317177L215.57544833333336,-52.075471238656526L215.81943055555556,185.83114826137367L215.94142166666668,123.29030539772727L216.06341277777778,-64.01795242049482L216.18540388888889,130.04723490910095L216.307395,340.9261363636364L217.89327944444443,270.0569981363687L218.13726166666666,69.54918803410094L218.6252261111111,277.2853338068182L219.23518166666668,-95.13121448863643L219.7231461111111,150.47514684091914L219.84513722222223,81.49164523861623L219.96712833333333,66.24928497726265L220.08911944444444,66.8778505000201L220.45509277777776,272.8854710568081L220.699075,-10.5911058295857L220.82106611111112,55.56391086361623L220.94305722222222,202.95915713635355L221.06504833333332,30.736160159111L221.30903055555555,-80.20312500000004L221.55301277777778,-137.5584161931819L221.67500388888888,40.16442720456554L222.0409772222222,-351.8943920568987L222.1629683333333,95.00550426136361L222.40695055555557,14.079545454545423L222.52894166666667,237.52946963635355L223.50487055555556,207.67329065908083L224.48079944444444,64.83505451137367L224.60279055555554,185.04545934091914L225.090755,244.75781729546458L225.2127461111111,84.63440092043442L225.3347372222222,-89.00285050002014L225.45672833333333,96.73402947729284L225.57871944444446,269.27130921591413L225.70071055555556,21.936434659090885L225.9446927777778,-154.37217827276754L226.18867500000002,70.17772957953537L226.31066611111112,192.11665962501004L226.43265722222222,106.16229652274737L226.67663944444445,-44.37572940913116L226.79863055555555,326.4694650227374L227.04261277777778,40.47867399995974L227.286595,44.72141335227269L227.4085861111111,259.84303018179804L227.77455944444444,187.24537872726265L228.2625238888889,121.09038601138373L228.384515,120.77609126134351L228.5065061111111,-389.4502649090507L228.75048833333332,231.0868348750201L228.87247944444442,135.5470573522828L228.99447055555558,59.806650215929174L229.23845277777778,-15.619486147707208L229.3604438888889,103.49093501134351L229.482435,313.7412949204445L229.6044261111111,166.03177787498993L230.09239055555557,-181.3998483636163L230.33637277777777,44.092871806838275L230.4583638888889,354.43998339772224L231.67827499999999,-14.205255681818231L231.8002661111111,99.24821963635357L232.04424833333331,255.28604403409093L232.28823055555557,-223.5128032727676L232.41022166666667,35.450293681838275L232.5322127777778,135.70418074997986L232.6542038888889,145.44674254547465L232.776195,81.80593998865646L232.89818611111113,-215.65591406822213L233.02017722222223,136.64701704545453L233.50814166666666,-164.1146921136163L233.6301327777778,58.3924197500402L233.874115,222.6013801477172L233.99610611111112,37.335918318141566L234.36207944444445,164.46040003408083L234.48407055555555,-216.44160298867666L234.60606166666665,128.63298046588895L234.72805277777778,-215.9701608636163L234.85004388888888,226.0584066022526L235.0940261111111,72.3776729432019L235.58199055555554,-408.77819317037415L235.8259727777778,277.4424691931768L235.9479638888889,116.37625248865645L236.06995500000002,291.74200514771724L236.55791944444445,192.90234854546458L236.80190166666668,109.93359374999999L236.92389277777778,236.11523917046458L237.2898661111111,261.2572846250101L237.4118572222222,73.79190340909088L237.53384833333334,164.61754740910095L237.65583944444444,-591.5295127955352L237.89982166666667,-28.976197795434476L238.14380388888887,168.07457386363635L238.3877861111111,161.4747917272828L238.50977722222223,231.0868348750201L238.75375944444443,150.63227023861626L238.87575055555556,-12.791025215929254L238.99774166666666,32.93607954545452L239.11973277777778,-277.88243820450526L239.97367055555557,-212.19886363636368L240.09566166666667,13.451003909110984L240.21765277777777,-199.9421356591312L240.461635,-12.162483670494815L240.5836261111111,111.19070081819186L240.70561722222223,163.36044034090907L240.82760833333333,85.10581906817174L240.94959944444443,276.18537411364645L241.07159055555556,-113.67345382950526L241.19358166666666,157.70347052270716L241.31557277777776,52.421155181798035L241.559555,-0.3771498636766235L241.6815461111111,282.9422916363586L241.80353722222222,62.16371697729281L242.29150166666665,311.38422815908086L242.657475,102.54812269319186L242.77946611111113,58.5495191704143L242.90145722222223,-552.2450667728078L243.5114127777778,-224.76988636363637L243.6334038888889,67.1921212727373L243.755395,-5.405530181798093L243.99937722222222,135.07563920454544L244.12136833333332,102.39097531817174L244.24335944444445,152.67506622726268L244.60933277777778,-2.2627744999799004L244.73132388888888,126.27591370452532L244.9753061111111,144.1896354772828L245.2192883333333,43.46433026140383L245.34127944444444,-64.48934659090912L246.07322611111113,-36.83308699997994L246.19521722222223,115.74768696589902" style="fill: none;" fill="none"></path></g></g></g></g></g></g><g transform="translate(61, 177)" clip-path="url(#clip_1)"><clipPath id="clip_1"><rect width="268" height="23"></rect></clipPath><g><g><line x1="0" y1="0" x2="0" y2="5" style="visibility: inherit;" fill="rgb(0, 0, 0)" stroke="rgb(204, 204, 204)" stroke-width="1px"></line><line x1="29.78298611111111" y1="0" x2="29.78298611111111" y2="5" style="visibility: inherit;" fill="rgb(0, 0, 0)" stroke="rgb(204, 204, 204)" stroke-width="1px"></line><line x1="59.56597222222222" y1="0" x2="59.56597222222222" y2="5" style="visibility: inherit;" fill="rgb(0, 0, 0)" stroke="rgb(204, 204, 204)" stroke-width="1px"></line><line x1="89.34895833333333" y1="0" x2="89.34895833333333" y2="5" style="visibility: inherit;" fill="rgb(0, 0, 0)" stroke="rgb(204, 204, 204)" stroke-width="1px"></line><line x1="119.13194444444444" y1="0" x2="119.13194444444444" y2="5" style="visibility: inherit;" fill="rgb(0, 0, 0)" stroke="rgb(204, 204, 204)" stroke-width="1px"></line><line x1="148.91493055555557" y1="0" x2="148.91493055555557" y2="5" style="visibility: inherit;" fill="rgb(0, 0, 0)" stroke="rgb(204, 204, 204)" stroke-width="1px"></line><line x1="178.69791666666666" y1="0" x2="178.69791666666666" y2="5" style="visibility: inherit;" fill="rgb(0, 0, 0)" stroke="rgb(204, 204, 204)" stroke-width="1px"></line><line x1="208.48090277777777" y1="0" x2="208.48090277777777" y2="5" style="visibility: inherit;" fill="rgb(0, 0, 0)" stroke="rgb(204, 204, 204)" stroke-width="1px"></line><line x1="238.26388888888889" y1="0" x2="238.26388888888889" y2="5" style="visibility: inherit;" fill="rgb(0, 0, 0)" stroke="rgb(204, 204, 204)" stroke-width="1px"></line><line x1="268.046875" y1="0" x2="268.046875" y2="5" style="visibility: inherit;" fill="rgb(0, 0, 0)" stroke="rgb(204, 204, 204)" stroke-width="1px"></line></g><g transform="translate(0, 8)"><text x="0" y="0" dx="0em" dy="0.95em" style="text-anchor: middle; visibility: hidden; font-family: Roboto, sans-serif; font-size: 12px; font-weight: 200;" fill="rgb(33, 33, 33)" stroke="none" stroke-width="1px">-500k</text><text x="29.78298611111111" y="0" dx="0em" dy="0.95em" style="text-anchor: middle; visibility: inherit; font-family: Roboto, sans-serif; font-size: 12px; font-weight: 200;" fill="rgb(33, 33, 33)" stroke="none" stroke-width="1px">0</text><text x="59.56597222222222" y="0" dx="0em" dy="0.95em" style="text-anchor: middle; visibility: inherit; font-family: Roboto, sans-serif; font-size: 12px; font-weight: 200;" fill="rgb(33, 33, 33)" stroke="none" stroke-width="1px">500k</text><text x="89.34895833333333" y="0" dx="0em" dy="0.95em" style="text-anchor: middle; visibility: inherit; font-family: Roboto, sans-serif; font-size: 12px; font-weight: 200;" fill="rgb(33, 33, 33)" stroke="none" stroke-width="1px">1M</text><text x="119.13194444444444" y="0" dx="0em" dy="0.95em" style="text-anchor: middle; visibility: inherit; font-family: Roboto, sans-serif; font-size: 12px; font-weight: 200;" fill="rgb(33, 33, 33)" stroke="none" stroke-width="1px">1.5M</text><text x="148.91493055555557" y="0" dx="0em" dy="0.95em" style="text-anchor: middle; visibility: inherit; font-family: Roboto, sans-serif; font-size: 12px; font-weight: 200;" fill="rgb(33, 33, 33)" stroke="none" stroke-width="1px">2M</text><text x="178.69791666666666" y="0" dx="0em" dy="0.95em" style="text-anchor: middle; visibility: inherit; font-family: Roboto, sans-serif; font-size: 12px; font-weight: 200;" fill="rgb(33, 33, 33)" stroke="none" stroke-width="1px">2.5M</text><text x="208.48090277777777" y="0" dx="0em" dy="0.95em" style="text-anchor: middle; visibility: inherit; font-family: Roboto, sans-serif; font-size: 12px; font-weight: 200;" fill="rgb(33, 33, 33)" stroke="none" stroke-width="1px">3M</text><text x="238.26388888888889" y="0" dx="0em" dy="0.95em" style="text-anchor: middle; visibility: inherit; font-family: Roboto, sans-serif; font-size: 12px; font-weight: 200;" fill="rgb(33, 33, 33)" stroke="none" stroke-width="1px">3.5M</text><text x="268.046875" y="0" dx="0em" dy="0.95em" style="text-anchor: middle; visibility: hidden; font-family: Roboto, sans-serif; font-size: 12px; font-weight: 200;" fill="rgb(33, 33, 33)" stroke="none" stroke-width="1px">4M</text></g><line x1="0" y1="0" x2="268.046875" y2="0" fill="rgb(0, 0, 0)" stroke="rgb(204, 204, 204)" stroke-width="1px"></line></g></g></g></g></svg>