<svg viewBox="0 0 330 200" xmlns="http://www.w3.org/2000/svg"><g><g><g><g><g><line x1="51.5625" y1="177" x2="46.5625" y2="177" style="visibility: inherit;" fill="rgb(0, 0, 0)" stroke="rgb(204, 204, 204)" stroke-width="1px"></line><line x1="51.5625" y1="157.33333333333331" x2="46.5625" y2="157.33333333333331" style="visibility: inherit;" fill="rgb(0, 0, 0)" stroke="rgb(204, 204, 204)" stroke-width="1px"></line><line x1="51.5625" y1="137.66666666666666" x2="46.5625" y2="137.66666666666666" style="visibility: inherit;" fill="rgb(0, 0, 0)" stroke="rgb(204, 204, 204)" stroke-width="1px"></line><line x1="51.5625" y1="118.00000000000001" x2="46.5625" y2="118.00000000000001" style="visibility: inherit;" fill="rgb(0, 0, 0)" stroke="rgb(204, 204, 204)" stroke-width="1px"></line><line x1="51.5625" y1="98.33333333333334" x2="46.5625" y2="98.33333333333334" style="visibility: inherit;" fill="rgb(0, 0, 0)" stroke="rgb(204, 204, 204)" stroke-width="1px"></line><line x1="51.5625" y1="78.66666666666666" x2="46.5625" y2="78.66666666666666" style="visibility: inherit;" fill="rgb(0, 0, 0)" stroke="rgb(204, 204, 204)" stroke-width="1px"></line><line x1="51.5625" y1="59.00000000000001" x2="46.5625" y2="59.00000000000001" style="visibility: inherit;" fill="rgb(0, 0, 0)" stroke="rgb(204, 204, 204)" stroke-width="1px"></line><line x1="51.5625" y1="39.33333333333333" x2="46.5625" y2="39.33333333333333" style="visibility: inherit;" fill="rgb(0, 0, 0)" stroke="rgb(204, 204, 204)" stroke-width="1px"></line><line x1="51.5625" y1="19.666666666666675" x2="46.5625" y2="19.666666666666675" style="visibility: inherit;" fill="rgb(0, 0, 0)" stroke="rgb(204, 204, 204)" stroke-width="1px"></line><line x1="51.5625" y1="0" x2="46.5625" y2="0" style="visibility: inherit;" fill="rgb(0, 0, 0)" stroke="rgb(204, 204, 204)" stroke-width="1px"></line></g><g transform="translate(41.5625, 0)"><text x="0" y="177" dx="0em" dy="0.3em" style="text-anchor: end; visibility: hidden; font-family: Roboto, sans-serif; font-size: 12px; font-weight: 200;" fill="rgb(33, 33, 33)" stroke="none" stroke-width="1px">-100</text><text x="0" y="157.33333333333331" dx="0em" dy="0.3em" style="text-anchor: end; visibility: inherit; font-family: Roboto, sans-serif; font-size: 12px; font-weight: 200;" fill="rgb(33, 33, 33)" stroke="none" stroke-width="1px">0</text><text x="0" y="137.66666666666666" dx="0em" dy="0.3em" style="text-anchor: end; visibility: hidden; font-family: Roboto, sans-serif; font-size: 12px; font-weight: 200;" fill="rgb(33, 33, 33)" stroke="none" stroke-width="1px">100</text><text x="0" y="118.00000000000001" dx="0em" dy="0.3em" style="text-anchor: end; visibility: inherit; font-family: Roboto, sans-serif; font-size: 12px; font-weight: 200;" fill="rgb(33, 33, 33)" stroke="none" stroke-width="1px">200</text><text x="0" y="98.33333333333334" dx="0em" dy="0.3em" style="text-anchor: end; visibility: hidden; font-family: Roboto, sans-serif; font-size: 12px; font-weight: 200;" fill="rgb(33, 33, 33)" stroke="none" stroke-width="1px">300</text><text x="0" y="78.66666666666666" dx="0em" dy="0.3em" style="text-anchor: end; visibility: inherit; font-family: Roboto, sans-serif; font-size: 12px; font-weight: 200;" fill="rgb(33, 33, 33)" stroke="none" stroke-width="1px">400</text><text x="0" y="59.00000000000001" dx="0em" dy="0.3em" style="text-anchor: end; visibility: hidden; font-family: Roboto, sans-serif; font-size: 12px; font-weight: 200;" fill="rgb(33, 33, 33)" stroke="none" stroke-width="1px">500</text><text x="0" y="39.33333333333333" dx="0em" dy="0.3em" style="text-anchor: end; visibility: inherit; font-family: Roboto, sans-serif; font-size: 12px; font-weight: 200;" fill="rgb(33, 33, 33)" stroke="none" stroke-width="1px">600</text><text x="0" y="19.666666666666675" dx="0em" dy="0.3em" style="text-anchor: end; visibility: hidden; font-family: Roboto, sans-serif; font-size: 12px; font-weight: 200;" fill="rgb(33, 33, 33)" stroke="none" stroke-width="1px">700</text><text x="0" y="0" dx="0em" dy="0.3em" style="text-anchor: end; visibility: hidden; font-family: Roboto, sans-serif; font-size: 12px; font-weight: 200;" fill="rgb(33, 33, 33)" stroke="none" stroke-width="1px">800</text></g><line x1="51.5625" y1="0" x2="51.5625" y2="177" fill="rgb(0, 0, 0)" stroke="rgb(204, 204, 204)" stroke-width="1px"></line></g></g><g transform="translate(51, 0)" clip-path="url(#clip_0)"><clipPath id="clip_0"><rect width="278" height="177"></rect></clipPath><g><g><g><line x1="0" y1="0" x2="0" y2="177" fill="rgb(0, 0, 0)" stroke="rgb(66, 66, 66)" stroke-width="1px" opacity="0.25"></line><line x1="30.9375" y1="0" x2="30.9375" y2="177" fill="rgb(0, 0, 0)" stroke="rgb(66, 66, 66)" stroke-width="1px" opacity="0.25"></line><line x1="61.875" y1="0" x2="61.875" y2="177" fill="rgb(0, 0, 0)" stroke="rgb(66, 66, 66)" stroke-width="1px" opacity="0.25"></line><line x1="92.8125" y1="0" x2="92.8125" y2="177" fill="rgb(0, 0, 0)" stroke="rgb(66, 66, 66)" stroke-width="1px" opacity="0.25"></line><line x1="123.75" y1="0" x2="123.75" y2="177" fill="rgb(0, 0, 0)" stroke="rgb(66, 66, 66)" stroke-width="1px" opacity="0.25"></line><line x1="154.6875" y1="0" x2="154.6875" y2="177" fill="rgb(0, 0, 0)" stroke="rgb(66, 66, 66)" stroke-width="1px" opacity="0.25"></line><line x1="185.625" y1="0" x2="185.625" y2="177" fill="rgb(0, 0, 0)" stroke="rgb(66, 66, 66)" stroke-width="1px" opacity="0.25"></line><line x1="216.5625" y1="0" x2="216.5625" y2="177" fill="rgb(0, 0, 0)" stroke="rgb(66, 66, 66)" stroke-width="1px" opacity="0.25"></line><line x1="247.5" y1="0" x2="247.5" y2="177" fill="rgb(0, 0, 0)" stroke="rgb(66, 66, 66)" stroke-width="1px" opacity="0.25"></line><line x1="278.4375" y1="0" x2="278.4375" y2="177" fill="rgb(0, 0, 0)" stroke="rgb(66, 66, 66)" stroke-width="1px" opacity="0.25"></line></g><g><line x1="0" y1="177" x2="278.4375" y2="177" fill="rgb(0, 0, 0)" stroke="rgb(66, 66, 66)" stroke-width="1px" opacity="0.25"></line><line x1="0" y1="157.33333333333331" x2="278.4375" y2="157.33333333333331" fill="rgb(0, 0, 0)" stroke="rgb(66, 66, 66)" stroke-width="1px" opacity="0.25"></line><line x1="0" y1="137.66666666666666" x2="278.4375" y2="137.66666666666666" fill="rgb(0, 0, 0)" stroke="rgb(66, 66, 66)" stroke-width="1px" opacity="0.25"></line><line x1="0" y1="118.00000000000001" x2="278.4375" y2="118.00000000000001" fill="rgb(0, 0, 0)" stroke="rgb(66, 66, 66)" stroke-width="1px" opacity="0.25"></line><line x1="0" y1="98.33333333333334" x2="278.4375" y2="98.33333333333334" fill="rgb(0, 0, 0)" stroke="rgb(66, 66, 66)" stroke-width="1px" opacity="0.25"></line><line x1="0" y1="78.66666666666666" x2="278.4375" y2="78.66666666666666" fill="rgb(0, 0, 0)" stroke="rgb(66, 66, 66)" stroke-width="1px" opacity="0.25"></line><line x1="0" y1="59.00000000000001" x2="278.4375" y2="59.00000000000001" fill="rgb(0, 0, 0)" stroke="rgb(66, 66, 66)" stroke-width="1px" opacity="0.25"></line><line x1="0" y1="39.33333333333333" x2="278.4375" y2="39.33333333333333" fill="rgb(0, 0, 0)" stroke="rgb(66, 66, 66)" stroke-width="1px" opacity="0.25"></line><line x1="0" y1="19.666666666666675" x2="278.4375" y2="19.666666666666675" fill="rgb(0, 0, 0)" stroke="rgb(66, 66, 66)" stroke-width="1px" opacity="0.25"></line><line x1="0" y1="0" x2="278.4375" y2="0" fill="rgb(0, 0, 0)" stroke="rgb(66, 66, 66)" stroke-width="1px" opacity="0.25"></line></g></g></g><g><g><line x1="0" y1="157.33333333333331" x2="278.4375" y2="157.33333333333331" fill="rgb(0, 0, 0)" stroke="rgb(153, 153, 153)" stroke-width="1.5px"></line></g></g><g><g><line x1="30.9375" y1="0" x2="30.9375" y2="177" fill="rgb(0, 0, 0)" stroke="rgb(153, 153, 153)" stroke-width="1.5px"></line></g></g><g><g><g><g><g><path stroke="rgb(255, 112, 67)" stroke-width="2px" d="M31.571099999999998,128.83195322672526L31.824540000000002,118.52777636144914L31.95126,72.63185192138245L32.45814,-0.5882021890652409L37.14678,-6.60162841524786L37.400220000000004,3.6268792580080405L37.52694,-8.290245286401111L37.9071,1.3809970801780536L38.03382,9.570866245781561L38.160540000000005,18.17525266231657L38.287259999999996,26.37456673567661L38.41398,18.331836539727682L38.79414,14.744404470811707L38.92086,23.1114375373129L39.1743,26.297352673584236L39.42774,11.51316688660381L39.55446,-21.222729058999885L40.31478,-7.206418377047799L40.441500000000005,1.8886554428826354L40.56822,10.228281974615669L40.82166,7.713080374022862L41.075100000000006,14.771839022787145L41.20182,18.79064977259605L41.83542,26.107061068425576L41.96214,-14.83954910333251L42.088860000000004,-6.398347822882953L42.21558,2.2967327937550355L42.342299999999994,-0.15639882371426528L43.10262,-1.71689859375859L44.2431,6.6920244314324755L44.49654,-1.7272827512851812L44.62326,6.621670306794567L44.74998,14.113951931548165L45.63702,21.53797896270561L46.017179999999996,28.096737759079687L46.27062,33.43890299828863L46.39733999999999,35.45829527494114L46.52406,41.567163405460235L47.030939999999994,47.498626639806496L47.15766,53.13324858980214L47.28438,57.638264003325695L47.664539999999995,60.94628342259131L47.79126,64.9972208252809L48.171420000000005,69.57002907664388L48.6783,73.76901871147474L48.93174,77.71841897290396L49.18518,81.69507830461835L49.3119,85.4283364347611L49.43862,88.96948176979129L49.56534,80.92841697231762L49.69206,84.6088430134619L49.818780000000004,61.7092634700993L50.072219999999994,66.30825490908771L50.32566,70.62328231321047L50.705819999999996,74.87774267437796L50.83254,78.91195537355597L50.95926,82.46404026316385L51.2127,85.80247384639091L51.33942,89.12879469581328L51.46614,92.50168326056769L51.71957999999999,95.65766873019933L51.8463,98.66560390825487L52.099740000000004,101.46991622095732L52.22646,104.19171046203789L52.4799,90.20643654222378L52.60662,90.93117914279632L52.986779999999996,94.09109580585068L53.493660000000006,97.14015649367997L53.62038,99.89926441661157L53.747099999999996,102.6729360807099L53.87382,105.18291945131601L54.12726,107.7239849085441L54.25398,108.3293038443245L54.50742,110.65824074062995L54.76086,112.3621313137665L54.88758,114.55096139965168L55.0143,116.58091631966037L55.141020000000005,118.35771220906265L55.394459999999995,120.15169708732293L55.52118,121.84736176715722L56.53494,123.53165799983373L57.041819999999994,124.08728105018653L57.548700000000004,125.31721708572196L57.675419999999995,125.99068480086679L57.80214,127.45077243091286L58.30902,128.7424305581791L58.43574,129.8656717897361L58.56246,131.10346390459287L58.68918,131.55845141232103L59.06934,132.65742104954924L59.19606,129.03671275637032L59.57622,129.73211372390716L59.70294,130.7286160988402L59.95638,131.05452054543778L60.083099999999995,129.13749816672546L60.20982,118.6150736750359L60.463260000000005,120.10890139556182L60.58998,121.80487991007303L60.716699999999996,123.33122060751289L60.84342,124.87947698954028L60.97014,126.35436875514901L61.09686,126.39678268076682L61.47702,127.85459465511425L61.60374,129.0169692044451L61.85718,127.94387875698595L62.364059999999995,115.96931221915814L62.49078,117.83702176767473L62.74422,119.29876366539496L62.997659999999996,120.99806325638713L63.12438,122.685651219277L63.757979999999996,124.23315216076315L64.13814,125.74102173143491L64.26486,127.23932721285281L64.39157999999999,127.85501973308988L64.5183,128.91704729949313L64.77174,130.23520887280912L65.27862,131.4174018038009L65.53206,132.4803160328925L65.7855,133.38567928889498L65.91222,134.23603632708566L66.03894,135.32307326374607L66.54582,136.26724621611035L66.67254,136.97696394005672L66.92598,137.738424603517L67.17942000000001,138.0365937361856L67.43285999999999,138.88358068542192L68.06645999999999,139.57619520387226L68.44662,140.28262356745083L68.57334,137.25210350871674L68.9535,138.07180282066778L69.20694,132.36751307612218L69.33366,132.14957354427682L69.46038,132.59690249381745L69.71382,133.49843261234835L69.84054,134.51193249815933L69.96726000000001,132.49397633766876L70.47413999999999,133.4638513783061L70.60086,130.36903945535644L70.8543,131.54997122671344L71.23446,132.45623832696998L71.74134,116.03812073515076L71.86806,117.693542323293L71.99478,119.38314646312419L72.1215,121.06010533795757L72.37494000000001,122.74710899220437L72.7551,124.23228519188396L72.88181999999999,125.76492892545691L73.00854,126.8521156856505L73.3887,128.11603162110117L73.51542,129.4326849633439L73.76886,130.60404001452886L74.52918,131.74786983365942L74.78262000000001,132.76161589173742L74.90934,133.80392655933443L75.03605999999999,134.53002087280905L75.16278,134.4818410967588L75.28949999999999,135.24500794933223L75.54294,136.05490910007836L75.66966000000001,136.95471337894207L76.30326,137.74808113172156L76.42998,138.5414505786912L76.68342,139.29760723022738L76.93686,139.31378508322518L77.06358,140.00883817897065L77.19030000000001,140.21778328936168L77.44373999999999,140.88697349098982L77.57046,141.5242707620599L77.69718,142.00685135333634L77.8239,142.58475163704594L78.07734,143.10088629426284L78.20406,143.64890184069915L78.45750000000001,143.95575559625053L78.58421999999999,144.5036465724266L78.83766,144.69188758969437L79.0911,145.24330882702776L79.34454000000001,145.71092216356948L79.47126,145.99756678956774L79.59798,146.36750800212155L79.85141999999999,146.763334986412L79.97814,147.07467772979425L80.3583,145.2850781778876L80.48502,145.63669650482836L80.61174,145.9739407299073L80.86518000000001,146.22475488184344L81.11861999999999,146.65099205132555L81.24534,146.92151023329873L81.37206,147.13309356447692L81.49878,147.53694548818504L82.13238,147.8406570206293L82.63926,147.93498768943857L82.76598,148.2399982621433L83.01942000000001,148.46432154406443L83.39958,148.739897562141L84.28662,149.07043849910127L84.41334,149.4211225019081L84.92022,149.60661447546804L85.04694,149.71450942686954L85.17366,149.8672965261136L85.42710000000001,149.77347422295762L85.68054,149.9411481361162L85.93397999999999,150.09726937896818L86.18742,150.03279785891957L87.3279,150.1377628194457L87.45462,150.25716403445335L87.58134,150.0472395854719L87.70806,150.2124442228806L87.96149999999999,150.34870742768632L88.08821999999999,150.5482550229796L88.46838,150.51095085624422L88.84854,150.51087119827915L89.22869999999999,150.5953620295498L89.60885999999999,150.78265984113042L89.73558,150.96088549377612L89.8623,151.05196795767532L89.98902,149.63234992950808L90.11574,143.5763278229994L90.36918,143.65993999642595L90.49589999999999,138.0219591684896L90.62262,138.50869825624991L90.87606,113.798849926597L91.00278,115.57414719796085L91.12950000000001,115.0554810181127L91.38294,114.93681482704142L91.63637999999999,114.04192707435733L91.7631,107.95543597884955L92.26998,110.2282757969135L92.77686,112.11087652648847L93.28374,113.21671315505606L93.41046,115.18869006908983L93.6639,117.17304432267821L93.79062,118.98439119789953L94.04406,120.69468374928981L94.2975,122.29357313366813L94.67766,123.86790181312114L95.5647,125.00150805561852L95.94486,126.4363319574878L96.07158000000001,127.79201798935854L96.45174,129.138197108142L96.57845999999999,130.41128453422962L96.70518,131.3754254133856L96.95862,132.37520084633397L97.08534,133.31317776144473L97.21206000000001,134.3910655779252L97.33878,135.32357886063127L97.59222,136.25518968031034L98.22582,137.04601574893476L98.35254,137.80280727484967L99.11286,138.58715777873448L99.3663,139.3735068760977L99.49302,140.03092274540955L99.61974000000001,140.74232691814163L99.74646000000001,141.37812828811317L99.87317999999999,142.0114532284841L99.9999,142.36444141601706L100.12662,143.00492320558206L100.25334,143.5380527376308L100.38006,143.96570850181203L100.50678,144.54424995840057L100.76022,145.03264542040537L101.14038,145.37609583181515L101.2671,145.7203160109302L101.39382,146.14035496314423L101.64726,146.5082555120779L101.77398000000001,146.44910197584053L102.15414,146.81571698698116L102.40758,146.65505144835765L102.66102,147.0387331288156L102.78774,147.2517391561056L103.1679,147.44351906132331L103.29462000000001,147.78817124647668L103.42134,148.1658769300978L103.67478,148.52115671257798L103.8015,148.69488661806457L103.92822,148.6132815722394L104.18166000000001,148.92147595176152L104.4351,148.9465486278572L104.56182,149.07623737822956L104.94198,149.31999926160066L105.0687,149.50520705064193L105.19542,149.75101989379235L105.32214,150.06446011539174L105.44886000000001,150.2676766544659L105.7023,150.51646005486637L105.82902,150.64928440260175L105.95573999999999,150.8600880130771L106.20918,150.92588223891522L106.3359,151.1145732096171L106.84277999999999,151.20477955553912L106.9695,151.19773825303486L107.09622,151.27669337254136L107.34966,144.30803697880458L107.47638,144.06552610655385L107.6031,144.5561562877132L107.72982,145.0022838277789L107.98325999999999,145.49162691290886L108.2367,145.994975857104L108.36341999999999,146.43867465226268L108.49014,146.8743590514532L108.74358000000001,147.24021440525348L108.99702,147.6172234999162L109.25045999999999,147.4870772800697L109.37718,147.5236069973181L109.5039,147.53358003758316L109.88406,147.78301355615315L110.39093999999999,147.83741431763843L110.51765999999999,148.2037630531312L110.7711,148.52610793365795L110.89782,148.49432605966388L111.15126000000001,148.558686913934L111.65813999999999,148.25765639896994L111.78486,148.42894696990973L112.03829999999999,148.7287677122608L112.29174,148.97309767149784L112.79862,149.17520842493553L113.17878,149.45425728937514L113.3055,146.6308357568725L113.55894,147.03858594325507L113.68566,147.37877088856905L113.81238,147.58849687810087L113.9391,147.8954076013436L114.06581999999999,148.21797662139002L114.19254,148.42134117404026L114.31926,148.4951139280373L114.44598,147.76024019444267L114.5727,147.63181660470138L115.07957999999999,147.94614355463975L115.2063,148.2447921554276L115.45974,148.37707394365643L115.71318,148.71349101590718L116.09334000000001,149.0650457741569L116.34678,149.06363564533865L116.4735,149.22942870645358L116.60022,149.35913797287947L116.98038,149.22413440507052L117.1071,149.49266425724198L117.23382000000001,149.60382493258106L117.36054,148.59247661550714L117.48725999999999,148.77449871023478L117.74069999999999,148.99557330243195L117.86742,149.2921276226367L118.12086000000001,149.5426685110179L118.3743,149.7085083869306L118.50102000000001,150.00682031988072L118.62773999999999,150.26708916929564L118.75446,150.51433441054635L118.88118,150.48931701162263L119.00789999999999,150.70292756661576L119.26134,150.8147351203532L119.38806,150.61737327944354L119.76822000000001,150.77329391203068L120.2751,150.87308710769963L120.65526,150.8071733125689L120.78198,150.63434226720088L120.90870000000001,150.91265233040372L121.03541999999999,151.06792081364875L121.16214,151.1346251191244L121.28886,151.13609373137518L121.41557999999999,151.16403635108077L121.5423,151.31562096496688L121.79574000000001,151.231653854625L121.92246,151.35584497388132L122.04918,151.08108526068375L122.55606,149.90512311214448L123.06294,150.00904416122353L123.18966,150.1197785903263L123.4431,150.39377722434656L123.56981999999999,150.63410357184208L123.69654,150.72690784210909L123.82326,150.86059360328193L123.94998,151.08320437539805L124.0767,151.1521711305256L124.45686,151.31765615608438L124.58358,151.4619194273914L124.71029999999999,151.60444618758362L125.3439,151.74012076965593L125.59734,151.7138297996401L125.72406,151.8545124796488L125.85078,151.994931870426L125.97749999999999,152.10105664637837L126.23094,150.37431214159568L126.61110000000001,150.54396296972817L126.73782,150.65411823269787L127.11798,150.6286628970604L127.2447,150.89082375395267L127.37142,151.11768439948813L127.49814,151.2757798927521L127.62486,151.47162558360878L127.87830000000001,151.6142195757162L128.25846,151.40803396771605L128.38518,150.77408294745788L128.63862,150.7600668277768L129.01878,150.9811877758612L129.1455,151.18451955862798L129.27222,151.37474845133133L129.52566000000002,151.43612980702198L129.65238,151.57712567551926L129.7791,151.7493895247385L129.90582,151.7746130035287L130.03253999999998,151.76854649436916L130.15926,151.91494128146877L130.28598,152.05517286483413L130.53942,151.989983966953L130.91958,152.1575490796844L131.0463,150.64285365243856L131.55318,150.74910910534925L131.6799,149.61178659198154L131.93334000000002,148.6907571122087L132.18678,148.29174186367084L132.44021999999998,147.79452013063488L132.56694,148.0695168436726L132.69366,148.15101702041125L132.82038,148.35218693327195L132.9471,148.44468512739178L133.07382,147.89910578705425L133.32726,148.0603909126657L133.5807,148.21177896650548L133.83414,148.49510111352402L134.2143,148.725052783319L134.34102000000001,148.95533290989061L134.46774000000002,148.3550938166057L134.59446,148.66767397087966L134.72118,148.5819512169465L134.97462,148.81419492943257L135.10134,149.03055575106833L135.22806,149.20911450089383L135.4815,149.05340200538257L135.60822000000002,149.3589928932174L135.86166,149.508159710641L136.24182,149.20388861168098L136.49526,149.40900685786036L136.62198,149.54212344765529L136.7487,149.3403938570863L137.12886,149.54658737276205L137.50902,149.51119514681173L137.63574,149.39141544355644L137.88918,149.590001052679L138.14262,146.26725638113265L138.39606,146.50330727808642L138.52278,146.83192063155693L139.02966,147.26270118945615L139.2831,147.55097974808373L139.40982,147.8469452778402L139.53654,148.0756268556117L139.66325999999998,148.36736563187335L139.9167,146.85801639065144L140.04342,147.25188893058987L140.17014,147.65520042142714L140.29686,147.8421067265664L140.80374,148.0899109641182L141.05718,148.26644562577638L141.18390000000002,148.49925986964777L141.31062,148.57464044179022L141.43734,148.89030613479989L141.56406,149.03975050734894L142.07094,149.05152799853752L142.19765999999998,149.36224165564033L142.32438000000002,149.5284917856784L142.4511,149.76455137589556L142.95798,149.94069907921892L143.0847,150.08722670759428L143.21142,150.08094795087354L143.33813999999998,150.24102069309004L143.46486000000002,150.41816117086378L143.7183,150.18466474676265L143.84502,149.65600727566328L143.97173999999998,149.84342618354222L144.09846,149.9160240959897L144.3519,150.0542991749645L144.73206,150.24694736967595L144.9855,150.28797859368368L145.11221999999998,150.30805481124702L145.36566,150.49117391014605L145.49238,150.5977920334873L145.6191,150.76962217522507L145.87254,126.55073001484604L145.99926000000002,127.6126229809948L146.25269999999998,128.8155792546422L146.37942,129.8538150325429L147.01301999999998,130.66267860920348L147.26646,131.68902838617737L147.39317999999997,132.18637795411496L147.5199,133.30742032811446L147.64661999999998,134.2474781685632L147.77334,135.21055035973887L147.90006,136.1136129484023L148.02678,136.83709091228295L148.28022,137.67697864445344L148.40694,138.5018224857351L148.53366000000003,138.8284924736627L148.91382000000002,139.54843296165103L149.04054,140.03216461353756L149.16726,140.66906628295578L149.29398,141.35660779019963L149.54742,141.94813275658987L150.30774,142.6483394442787L150.43446,143.2178670950597L150.56118,143.7302989759927L150.81462000000002,144.12217286786935L151.3215,143.2476295626087L151.70166,143.71151770823565L152.08182,144.12664800212565L152.46197999999998,144.5379784333266L152.58870000000002,145.04717118026701L152.84214,145.19749235325872L152.96886,145.5354444621919L153.09558,145.9998343608558L153.2223,145.5692708031619L153.47574,144.99074981493374L153.60245999999998,145.20040123816844L153.72918,141.18579650014814L153.8559,140.46974684593658L153.98262,140.05436888626866L154.10934,138.35545749456568L154.23606,137.46468430448817L154.36278,138.15934359912927L154.48950000000002,138.4196476009154L154.74293999999998,139.1069114306506L154.86966,139.8377078431046L155.1231,140.44227716826805L155.50325999999998,141.02880329335017L155.62998000000002,140.84502368674734L155.88342,141.52278051693042L156.13685999999998,141.82568347182752L156.26358000000002,142.48694729459862L156.3903,142.89173866023594L156.51702,143.22883006241415L156.89718,143.57860980728455L157.0239,143.83757755478464L157.15062,144.25930812420697L157.27733999999998,144.5852348828629L157.53078,145.07332381366706L157.6575,145.57073189847753L158.67126,145.93127422964022L159.05142,146.25178312964923L159.17813999999998,146.57090313206427L159.43158,146.53908971514102L159.5583,146.87981883839285L159.68502,146.87506247746688L159.81174,147.28413318848973L160.1919,147.62539364033498L160.31862,148.03701060196647L160.57206,148.2944723461653L160.69878,148.40444733471236L160.8255,148.70201103530366L160.95221999999998,147.35045663628884L161.33238,147.3515228420517L162.34614,147.46949990353193L162.47286,147.5932006915127L162.59958,147.22590805678848L162.85302,146.86126211505945L163.10646,144.74733898835072L163.23318,138.57551429560544L163.3599,129.77033043873408L163.61334000000002,130.96150181924813L163.74006,131.62844705553596L163.86678,132.39726041544642L163.9935,133.16085703072665L164.12022,134.11270881820562L164.50038,135.101224281633L164.62709999999998,134.8408144550839L164.75382000000002,135.62974398404893L165.38742,136.41146668506678L165.64086,137.31115422826383L165.76757999999998,137.36386604682906L166.02102,138.24225572082892L166.14774,138.94492106182204L166.40117999999998,139.6450185689498L167.1615,140.07937602749573L167.28822000000002,140.73749592864073L167.54165999999998,141.12575750064238L167.7951,141.76854773725884L167.92182,142.42857844546964L168.42870000000002,143.07907443103946L168.55542,143.2942594360398L168.68213999999998,143.58638492706743L168.80886,143.89836702399612L168.93558,144.22720709819103L169.18902,143.22976903789814L169.44245999999998,142.46848644995583L169.56918000000002,143.1034901341071L169.6959,143.50191467315523L169.82261999999997,144.04959282284022L169.94934,144.40653407663893L170.07605999999998,144.55418186456217L170.20278,144.97706142458063L170.70966,145.41940677069726L170.96310000000003,145.1481822919443L171.08982,145.58519541887594L171.72342,145.90526533536857L171.85014,145.99347809704253L172.10358000000002,146.44873356767997L172.35701999999998,146.8487684324491L172.48374,146.98755333528445L172.61046,147.36960218298682L172.8639,147.78277405519128L173.24406000000002,148.06929451558887L173.37078,148.43886086512808L173.75093999999999,148.59896758586908L174.00438,148.85255181842254L174.38454000000002,149.14224353641814L174.7647,149.38163205864052L174.89141999999998,144.89747997536173L175.14486,143.9317279706122L175.27158,144.0040946627493L175.3983,144.46169361638962L175.52502,144.96059307707887L175.65174,145.14311712017522L175.77846000000002,145.46581977450174L175.90518,144.8542571132099L176.15862,145.24915923443237L176.28534,145.73627981764534L176.41206,145.9170715390179L176.79222,146.38264147166478L176.91894000000002,146.82511878500247L177.17237999999998,147.2019954320726L178.18614,147.58973297348524L178.31286,147.74786558496317L178.43958,147.7929011495311L178.56629999999998,148.1646055733193L178.69302000000002,148.16441117442426L178.94646,148.50912683412372L179.07318,148.46428426703505L179.1999,148.69379759497104L179.32662,148.69773070678437L179.58006,149.0654013123518L179.70677999999998,149.20904028082745L179.83350000000002,149.21034208339069L180.21366,149.4582822387172L180.34038,149.57200110172386L180.59382,149.63108039971587L181.86102,149.9383263855634L182.24117999999999,149.82934088611452L182.36790000000002,148.89406443679985L182.49462,149.16121254317386L182.62134,149.3710709640066L182.87478,149.5763380430188L183.0015,149.69731782386143L183.12822,149.92571616673436L183.38165999999998,150.17836266993254L183.76182,150.25352646913956L183.88854,150.42151028190543L184.01525999999998,150.63401332736774L184.14198,150.78432905179983L184.2687,149.98354725853196L184.39542,150.1817742767216L184.52213999999998,150.35646756787767L184.64886,150.6070048403411L184.9023,150.8572356539652L185.15573999999998,150.97023708544185L185.28246000000001,151.1451131070446L185.5359,151.0800720424008L185.78934,151.11816882117827L186.04278000000002,151.3880258113645L186.1695,151.58917251477416L186.29622,151.59726849515525L186.42294,151.68062903032026L186.54966,149.87172943000056L186.67638,150.16067147320362L187.18326000000002,150.03652936441264L187.81686,150.23677049962117L187.94358,150.48105591272375L188.19701999999998,150.6535483606687L188.32374000000002,147.72248292688818L188.45046,147.8384702110298L188.83061999999998,148.04220132287415L188.95734000000002,148.25201213768392L189.08406,148.5021207996876L189.3375,148.75134056886407L189.59094,148.6726776764428L189.71766000000002,148.9271625787967L190.09782,149.17149374657927L190.35126,149.32408765329276L190.6047,149.68065002454009L190.73141999999999,148.96014596823903L190.98486,148.88058081358523L191.11157999999998,149.15991410366055L191.49174,149.1861049568831L191.61846,149.49376582514944L191.74518,149.8107707824818L191.99862000000002,150.04832439754267L192.12534,149.7275935109175L192.25205999999997,149.86456536989718L192.63222000000002,150.12485319592798L192.75894,150.03920564988584L192.88566,150.0777826229966L193.01238,148.5500787182872L193.1391,148.86704139614238L193.26582,149.11770284594027L193.51926,145.3768170068252L193.89942,145.92787487515892L194.02614,146.1706060531997L194.27958,146.5011323762238L194.78645999999998,146.7466971747761L194.91318,147.2057428878795L195.16662,147.54688560042166L195.29334,147.90075148908014L195.67350000000002,148.27140284974703L195.92693999999997,148.44440000010889L196.18037999999999,148.77715497044417L196.43382,148.91006053616908L196.56054,149.25625789914324L196.68726,149.54824430962506L196.81398000000002,149.85251636325418L197.06742,149.75093674425426L197.44758000000002,149.98715374819375L197.5743,149.78367708419105L197.82774,150.0026511501831L197.95446,150.30457864467144L198.08118,150.47720978393804L198.33462,150.67743666052735L198.8415,150.8668566184632L199.09494,151.058609590324L199.22165999999999,148.87948114327853L199.4751,149.23500953610392L199.60181999999998,149.49403624076513L199.72854,149.7463078679435L199.85526,150.00179809283244L199.98198000000002,150.23465077365913L200.1087,150.4891486628771L200.61558,150.74454967919235L200.7423,150.95290139089107L200.86902,151.03491920733032L200.99573999999998,151.26214618852137L201.12246000000002,149.87302496053653L201.3759,150.12701473884766L201.62934,150.3495486737523L201.75606,150.60916531177082L201.88278,150.6713678817663L202.0095,150.8683124452509L202.13621999999998,151.07371284983492L202.26294000000001,151.3342165682002L202.6431,151.14088131771683L203.02326,151.35411368355045L203.27669999999998,151.52326595594133L203.53014,151.61903343410452L203.65686000000002,151.8096212802788L203.78358,151.9588730397957L203.9103,152.12623292358523L204.03702,152.29563792884562L204.5439,151.7635627648354L205.1775,151.59093167198344L205.43094,151.6964429614744L205.55766,151.79561160567513L205.68438,152.0131165924366L205.93782000000002,152.1960729007682L206.06454,152.311550912154L206.19126,148.05252894414232L206.57142,148.30641039717324L206.95157999999998,148.63581909754595L207.0783,148.95708058951084L207.20502,149.23056159853832L207.45846,149.4338512539655L207.58517999999998,149.65357283546533L207.7119,149.83980702563431L207.96534,150.08522074695517L208.09206,150.20310692862952L208.3455,150.417249245092L208.47222000000002,150.67469650780407L208.59894,150.92154996833688L208.72565999999998,151.15104092402666L208.85238,151.31259664254625L208.9791,151.50352908551076L209.23254,151.1303847840469L209.35926,151.33254468890917L209.73942,151.50003282728042L210.37302,151.57699124826127L210.8799,151.71480606544492L211.89366,151.89811309287003L212.02038,151.80803531654277L212.14710000000002,151.99017375460485L212.27382,151.9920503299997L212.40053999999998,151.9353146265236L212.7807,152.111079636889L212.90742,151.81251460450235L213.16085999999999,151.86114639113822L213.28758000000002,149.45436606437917L213.54101999999997,149.71688033911988L213.66774,149.9134676805013L213.79446,149.99700157504577L213.92118,150.25415423715347L214.17462,150.4410533384087L214.42806000000002,150.66520154947264L214.55478,150.7869257614862L214.68150000000003,150.9473536051868L214.93493999999998,151.17233831028943L215.06166000000002,145.81163284293578L215.18838,146.08244225843924L215.44182,146.48940651741592L215.69526,146.97463102728744L216.45558,147.3129610467264L216.70902,147.700961072037L217.21589999999998,148.060322577685L217.46934,148.19992636317352L217.59606,148.57142215367776L218.10294000000002,148.91967292712917L218.73654000000002,148.91147791094036L218.86326,148.93847414605943L219.37014,149.2700107805279L219.75029999999998,149.50283713244696L219.87702000000002,149.00685026824607L220.25718,149.29917737630134L220.3839,149.46338408887158L220.63734,149.7335006646989L220.76406,150.03287184238874L220.89077999999998,150.23552347445906L221.0175,150.4613737584273L221.27094,150.69613125700394L221.39766,150.95646560088502L221.77782,151.15150860409858L221.90454,151.40470017321783L222.03126,151.47845944441838L222.15798,151.39387132886657L222.2847,151.22803110702264L222.79158,151.2234184177146L223.17174,151.40676194674316L223.29846,151.64930671427862L223.42517999999998,151.83564197003352L223.55190000000002,151.96650786732167L223.80534,151.77030268905366L223.93206,151.91717101194376L224.05878,151.80772789713757L224.1855,151.98846440213092L224.31222,151.90324505724814L224.43894,152.09926093056197L224.56565999999998,152.22211058923278L224.69238,151.5788102164789L224.8191,151.7968472118157L225.19926,151.88534525796064L225.4527,152.0797089332747L226.08630000000002,151.06149600604047L226.21302,151.24660497655398L226.33974,151.11518294293117L226.59318,151.33751615278433L227.10005999999998,151.35466550466305L227.48022,151.51020814378103L227.73366,151.699831327926L228.24053999999998,151.69731899113887L228.36726000000002,151.8597357704129L228.49398,152.06210532007535L228.6207,152.20433249174576L229.00086,152.31574348356398L229.2543,152.48384738992422L229.38102,152.5934103889786L229.50774,152.66794403530625L229.63446,152.73621250457163L229.8879,152.88131306301815L230.14134,152.96569188790224L230.26806,152.83204378528265L230.64822,152.96352657491687L230.77494,153.04579255141803L231.02838,153.1067833815027L231.15509999999998,153.15675062576017L231.28182,153.04746937969455L231.91541999999998,153.14737240108028L232.04214000000002,153.2383907923953L232.16886,153.15437402345376L233.18262000000001,153.31224970695132L233.30934,153.34305025699652L233.43606000000003,153.4713816766418L233.68949999999998,153.37048810416988L233.81622000000002,153.31192632700808L233.94294,153.4080038793138L234.06966,153.5352863362321L234.19638,153.6465099689508L234.3231,153.16215881284944L234.44982,153.18207404681075L234.70326,153.24181721886623L234.9567,153.21864996892805L235.08342,153.11941379419432L235.21014,153.18623971023055L235.46358,153.16857440427938L235.59029999999998,152.81584151027798L235.84374,152.95172110233992L236.09718,153.05011988888756L236.2239,153.0301009041274L236.47734,153.14241046304448L236.60406,153.17206501898363L237.11094000000003,153.2900548121565L237.23766,153.27278758078535L237.36437999999998,153.32490266303455L237.49110000000002,153.3470928542338L237.61782,153.35241992399057L237.74454,153.34733587027304L237.87126,153.47765503331698L238.1247,153.5671004594211L238.25142000000002,153.61439923201027L238.37814,153.42935269290527L238.50485999999998,153.2136860366027L239.01174,153.33755886399672L239.26518,153.42790669381347L239.39190000000002,151.9808062479371L239.51862,152.1112769411008L239.77206,152.30748301574593L240.0255,152.3364307675516L240.27894,152.2311546113558L240.53238000000002,152.3749251877809L240.6591,152.47611877570222L240.78582,152.48665070497182L241.03925999999998,152.0570061567329L241.16598000000002,152.01319878108873L241.2927,152.12685013531842L241.41942,152.26024742916462L241.54614,152.3702332954752L241.67286000000001,152.48026520392202L241.79958,152.6233607148911L241.9263,152.67307390632195L242.05302,152.77515825224782L242.5599,152.92289235229515L242.68662,153.03886355079672L242.94006,152.72100061668544L243.06678,152.763273718684L243.44694,152.87045672467613L243.57366,152.97330539545118L243.70038,152.96957803703015L243.8271,153.146766268351L243.95382,153.20841609647016L244.20726,153.33666277513538L244.71414,153.4818519476687L244.96758,153.44506292802626L245.0943,153.49040750526794L245.22102,153.52271854200202L245.60118,153.49117264747943L245.7279,153.28579804818142L245.98134000000002,153.3535856106708L246.10806,153.41357300427435L246.23478,153.50501769117054L246.48821999999998,153.23304015319505L246.61494,153.3505396778674L246.74166,153.17901779040957L246.86838,153.33073308889072L247.12182,153.417526914227L247.37526,153.46277230186325L247.62869999999998,153.43177157536059L247.75542000000002,153.41297153107487L248.00886,153.29020167512252L248.13558,153.40020367410207L248.2623,153.48778422853457L248.38902,153.58224224436333L248.64246,147.609699610498L249.02262,147.95426665227131L249.14934,148.27113311803828L249.27606,148.58935572245383L249.40278,148.83319511037797L249.52949999999998,149.09478694272684L249.78294,149.34540481782966L249.90966,149.5030598371641L250.03638,149.81692167772306L250.1631,150.09536831336004L250.28982,150.25926945081295L250.41654,150.48821938353177L250.54326,150.49197965611543L250.66997999999998,150.64832934560428L250.92342,150.85724260947057L251.05014,150.0242745245089L251.17686,150.0246221646826L251.68374,147.0171487672232L252.0639,147.46449682008696L252.19062000000002,147.6713474166284L252.31734,148.0778412856753L252.6975,148.46564152751273L252.82422,148.7773883527141L252.95094,149.10048082402747L253.07766,149.2869113300724L253.20438,149.4200623541831L253.45782,149.7306674891582L253.58453999999998,149.97062953944777L253.71126,150.05177531874165L254.09142,150.22259016812032L254.21814,150.34816887860674L254.47158000000002,150.52125696139453L254.72501999999997,150.66708130128256L254.85174,150.85370249409198L255.2319,151.0815219254075L255.48534,151.03495699539178L255.61206,151.20122977979653L255.73878,151.36374795058657" style="fill: none;" fill="none"></path></g></g></g></g><g opacity="0.2"><g><g><g><path stroke="rgb(255, 112, 67)" stroke-width="2px" d="M31.571099999999998,128.83195322672526L31.824540000000002,108.73880833943684L31.95126,-12.390348103841136L32.838300000000004,-10.36692850748697L32.96502,80.96801717122396L33.09174,142.41973953247071L33.21846,123.48948954264324L33.34518,133.9374227142334L33.4719,27.24567952473958L33.59862,-2.6274397786458477L33.72534,-293.4315161132813L34.23222,149.97651500701903L34.35894,108.84307444254557L35.372699999999995,-303.33773518880207L35.49942,-96.86327880859376L35.752860000000005,151.68262219746907L36.13302,-322.6187508138021L36.25974,107.65314147949219L36.51318,-164.41683837890628L36.6399,135.44227411905925L36.76662,141.64998140970866L36.89334,118.25955042521159L37.14678,124.496403910319L37.400220000000004,144.06017888387044L37.52694,-175.0479777018229L37.9071,139.13297307332357L38.03382,128.17072998046874L38.160540000000005,144.72189727783203L38.287259999999996,148.72361200968425L38.41398,-103.32065307617187L38.79414,-40.213195800781236L38.92086,152.82979915618898L39.1743,76.24718892415365L39.42774,-222.73361857096353L39.55446,-545.068916829427L39.68118,11.202593790690106L39.807900000000004,100.03607126871745L40.18806,23.694876302083326L40.31478,44.97097106933593L40.441500000000005,153.59772073109943L40.56822,150.3034662882487L40.82166,-34.81022806803385L41.075100000000006,134.8497578684489L41.20182,87.55505411783855L41.83542,151.98667364756267L41.96214,-723.0049560546875L42.088860000000004,140.31062337239584L42.21558,154.12240924835206L42.342299999999994,-43.179532674153634L42.46902,-195.3530428059896L43.10262,156.12936274528502L44.2431,155.92145397504171L44.49654,-151.6686515299479L44.62326,155.80717097759248L44.74998,148.41556561787922L45.63702,155.01502589543662L46.017179999999996,146.3518770090739L46.27062,130.01779296875L46.39733999999999,72.05912160237631L46.52406,152.55576828638712L47.030939999999994,155.51067962646485L47.15766,155.96237887064618L47.28438,140.02166717529295L47.664539999999995,121.55809539794923L47.79126,139.35847534179686L48.171420000000005,153.65815200805665L48.6783,151.11142955780028L48.93174,150.57824325561523L49.18518,155.1674777475993L49.3119,154.50150539716086L49.43862,154.57631208737692L49.56534,-68.23862792968751L49.69206,152.96585711797078L49.818780000000004,-364.09625976562495L50.072219999999994,151.91731058120726L50.32566,151.02953887939452L50.705819999999996,154.23324731191L50.83254,154.22946599642435L50.95926,148.83903694152832L51.2127,148.2375165049235L51.33942,151.38688547770184L51.46614,155.67913243929544L51.71957999999999,154.81476809501646L51.8463,155.08602651278179L52.099740000000004,154.10499055226643L52.22646,155.3093668238322L52.4799,-172.6023681640625L52.60662,104.55795817057292L52.986779999999996,153.53583064397176L53.493660000000006,154.52809801737467L53.62038,151.85447858810426L53.747099999999996,154.9259071858724L53.87382,152.48850434621176L54.12726,155.63481578191121L54.25398,119.74676406860351L54.50742,154.60247858047487L54.76086,144.52367464701334L54.88758,155.8795523818334L55.0143,154.92171005884808L55.141020000000005,151.92695583343507L55.394459999999995,154.0552803484599L55.52118,153.90145033518473L56.53494,155.3789647102356L57.041819999999994,134.59575609842935L57.548700000000004,148.58429770151773L57.675419999999995,138.73366645812987L57.80214,155.08347368876142L58.30902,153.19236056009927L58.43574,151.13160270055135L58.56246,154.5423147583008L58.68918,140.17555758158366L59.06934,153.47438318888348L59.19606,60.441882120768234L59.57622,142.90849082946775L59.70294,149.6128245162964L59.95638,137.23137631734213L60.083099999999995,92.79973063151041L60.20982,-80.86433024088541L60.463260000000005,148.43138783772787L60.58998,153.9634990946452L60.716699999999996,152.2761437479655L60.84342,154.2428179168701L60.97014,154.32886821111043L61.09686,127.20132380167644L61.47702,155.50980767885844L61.60374,151.06935175577797L61.85718,107.58386881510417L62.364059999999995,-111.2431123860677L62.49078,153.2784078534444L62.74422,147.03833103179932L62.997659999999996,153.24772670110067L63.12438,154.7148876126607L63.757979999999996,153.6052368481954L64.13814,154.36237245559693L64.26486,155.6805385462443L64.39157999999999,139.54279632568358L64.5183,149.07855939229327L64.77174,155.2602200380961L65.27862,153.86197731018066L65.53206,152.66108882904052L65.7855,150.57576901753745L65.91222,150.3822802988688L66.03894,155.9639754406611L66.54582,154.19597075462343L66.67254,150.45405871073405L66.92598,152.19848995844524L67.17942000000001,143.69894762674969L67.43285999999999,154.96861573855082L68.06645999999999,152.72987609863281L68.44662,153.69895367940268L68.57334,79.69589569091798L68.9535,153.64000672022502L69.20694,24.02622314453124L69.33366,128.01018208821614L69.46038,141.09330635070802L69.71382,150.62205557505288L69.84054,153.76261054356894L69.96726000000001,94.16381754557291L70.47413999999999,151.8864508756002L70.60086,71.5828495279948L70.8543,153.98215153376262L71.23446,149.6712864557902L71.74134,-195.83681111653647L71.86806,149.13991419474286L71.99478,151.47918851216636L72.1215,152.91625494639078L72.37494000000001,154.79437832514444L72.7551,152.44578210194905L72.88181999999999,154.8804042371114L73.00854,147.5054593785604L73.3887,152.12689497629802L73.51542,154.44559571901956L73.76886,152.85682559331258L74.52918,153.47789011001586L74.78262000000001,152.02047873179117L74.90934,153.60557069778443L75.03605999999999,148.32431814829508L75.16278,133.5665195719401L75.28949999999999,149.74376032511393L75.54294,151.44160154978434L75.66966000000001,154.0494859949748L76.30326,152.82080472310383L76.42998,153.6142695426941L76.68342,153.6634966023763L76.93686,139.62114219665528L77.06358,153.2139452489217L77.19030000000001,144.18748285929362L77.44373999999999,153.60080377578734L77.57046,153.63221001942952L77.69718,151.17537263234456L77.8239,153.5642768796285L78.07734,152.90695254643757L78.20406,154.0607007153829L78.45750000000001,149.78571283976237L78.58421999999999,154.9131271235148L78.83766,148.26832069396974L79.0911,155.7199054145813L79.34454000000001,154.59524773597718L79.47126,151.4436237780253L79.59798,153.39615697860717L79.85141999999999,154.2838097699483L79.97814,152.99001207351685L80.3583,111.28365748087566L80.48502,152.31726351420085L80.61174,152.38141590118408L80.86518000000001,150.99010711669922L81.11861999999999,154.74930994351703L81.24534,152.06124214172362L81.37206,151.15309248606363L81.49878,155.20997905095416L82.13238,153.6110668373108L82.63926,149.72723814646403L82.76598,154.03510007858276L83.01942000000001,152.72639468510945L83.39958,153.9757611274719L84.28662,155.35062425613404L84.41334,156.0840257835388L84.92022,153.13091535568236L85.04694,151.76448774337769L85.17366,152.77021675745647L85.42710000000001,147.99087067921957L85.68054,153.12691816329956L85.93397999999999,153.06354263305664L86.18742,148.80785088857016L87.3279,152.13207864761353L87.45462,152.52576721191406L87.58134,146.0587083053589L87.70806,153.35130747477214L87.96149999999999,152.9376888402303L88.08821999999999,154.33963223457337L88.46838,149.80217650095622L88.84854,150.5093577067057L89.22869999999999,152.20067798614502L89.60885999999999,154.3412975438436L89.73558,154.34715416590373L89.8623,152.78252567927044L89.98902,122.65974202473959L90.11574,28.512453409830734L90.36918,145.24856413523355L90.49589999999999,30.90078186035156L90.62262,147.75670332590738L90.87606,-355.686455078125L91.00278,149.30467159271242L91.12950000000001,105.20085795084636L91.38294,112.68216466267903L91.63637999999999,97.03911326090495L91.7631,-7.687549235026034L92.26998,153.41210973739624L92.77686,147.88019391377767L93.28374,134.22755526224773L93.41046,152.6561602338155L93.6639,154.87568795522054L93.79062,153.39990622202555L94.04406,153.19017440795898L94.2975,152.6724112065633L94.67766,153.7800903828939L95.5647,146.53998812357585L95.94486,153.69793975194295L96.07158000000001,153.55001099904376L96.45174,154.7155611260732L96.57845999999999,154.59991037686666L96.70518,149.6940767542521L96.95862,151.3709090868632L97.08534,151.13471687952676L97.21206000000001,154.87090977986654L97.33878,153.04131125132244L97.59222,153.95577629089354L98.22582,152.07169576009113L98.35254,152.18183236440024L99.11286,153.48980366388957L99.3663,154.31412668863933L99.49302,152.52181390762328L99.61974000000001,154.2589955552419L99.74646000000001,153.4583452796936L99.87317999999999,154.0446185429891L99.9999,149.07121245066327L100.12662,155.17406940142314L100.25334,153.66750767389934L100.38006,152.09116331736246L100.50678,155.53653158823647L100.76022,154.31215435028076L101.14038,151.9016504096985L101.2671,152.26049633026122L101.39382,154.12109148025513L101.64726,153.49836296717325L101.77398000000001,145.32518524169922L102.15414,153.78139952341715L102.40758,143.60240732828777L102.66102,154.32868253072104L102.78774,151.2988523419698L103.1679,151.08733612060547L103.29462000000001,154.3365608183543L103.42134,155.34228289286295L103.67478,155.27147076924643L103.8015,151.99575398127237L103.92822,147.0627860768636L104.18166000000001,154.7771678161621L104.4351,149.42292936960857L104.56182,151.5403231239319L104.94198,153.95147413253784L105.0687,153.02415438334148L105.19542,154.42146308263145L105.32214,156.01982331911722L105.44886000000001,154.12879027684528L105.7023,155.24334394137063L105.82902,153.17294664382933L105.95573999999999,154.86535606066386L106.20918,152.175972366333L106.3359,154.69970120747885L106.84277999999999,152.91869992574055L106.9695,151.06395352045695L107.09622,152.77684048334757L107.34966,11.903578898111986L107.47638,139.45781997680663L107.6031,153.87812887827556L107.72982,153.47870635350546L107.98325999999999,154.78914476394652L108.2367,155.55860504786173L108.36341999999999,154.86895113309225L108.49014,155.15236205101013L108.74358000000001,154.19146566073098L108.99702,154.7803958415985L109.25045999999999,145.01429925282795L109.37718,148.217671585083L109.5039,147.72306779225667L109.88406,152.52225016276043L110.39093999999999,148.87102873484295L110.51765999999999,155.164388701121L110.7711,154.6506603908539L110.89782,147.89047047932942L111.15126000000001,149.78154309590656L111.65813999999999,142.5380768330892L111.78486,151.6834676996867L112.03829999999999,154.42536162058514L112.29174,153.61536674499513L112.79862,153.01531262079874L113.17878,154.75618555704753L113.3055,92.98582814534505L113.55894,154.78583927790325L113.68566,153.8422846857707L113.81238,151.57329058329265L113.9391,153.72671120961508L114.06581999999999,154.34678786913554L114.19254,152.28526759465535L114.31926,149.89679622650146L114.44598,133.79763951619466L114.5727,145.1917684427897L115.07957999999999,153.91835550308227L115.2063,153.9191154797872L115.45974,150.89042788187663L115.71318,155.10541529655455L116.09334000000001,155.7445860894521L116.34678,149.03684319814045L116.4735,152.379496828715L116.60022,151.82361400604248L116.98038,146.65906664530436L117.1071,154.59473139444987L117.23382000000001,151.71587774276733L117.36054,129.37685877482096L117.48725999999999,152.23291847864786L117.74069999999999,153.19599051793415L117.86742,154.92665966033937L118.12086000000001,154.3029453531901L118.3743,152.8594660059611L118.50102000000001,155.67474700609844L118.62773999999999,155.21219727516174L118.75446,155.21199396451314L118.88118,150.01398643493653L119.00789999999999,154.76152808825177L119.26134,152.9390786298116L119.38806,146.8674983215332L119.76822000000001,153.73578591664634L120.2751,152.76915781656902L120.65526,149.55481121063232L120.78198,147.3505524190267L120.90870000000001,156.2005435101191L121.03541999999999,154.01802198410036L121.16214,152.40200691858928L121.28886,151.16399736404418L121.41557999999999,151.69494612375897L121.5423,154.1957286198934L121.79574000000001,149.6362787628174L121.92246,153.71547623316448L122.04918,145.86065072377522L122.55606,127.56184234619141L123.06294,151.98354408899942L123.18966,152.22373273849487L123.4431,155.59975125948588L123.56981999999999,155.20030416488646L123.69654,152.49018897374472L123.82326,153.40062306086222L123.94998,155.31280903816224L124.0767,152.46253947575886L124.45686,154.46187163670857L124.58358,154.2029215780894L124.71029999999999,154.31245462735492L125.3439,154.31793782552083L125.59734,151.21430136998495L125.72406,154.52748339653013L125.85078,154.66290029207863L125.97749999999999,154.11742738723754L126.23094,117.56616658528647L126.61110000000001,153.7673287010193L126.73782,152.74706822713216L127.11798,150.14501152038574L127.2447,155.871880030632L127.37142,155.42803666114807L127.49814,154.279594262441L127.62486,155.19269370714824L127.87830000000001,154.32350542386374L128.25846,147.49050741831462L128.38518,138.72901357014973L128.63862,150.49376055399577L129.01878,155.18248578707377L129.1455,155.04782342910767L129.27222,154.98909741083781L129.52566000000002,152.6023755645752L129.65238,154.25604717572529L129.7791,155.02240265846254L129.90582,152.2538591003418L130.03253999999998,151.6532828203837L130.15926,154.69644223531085L130.28598,154.71957294782L130.53942,150.75139490763345L130.91958,155.34128622055053L131.0463,121.86364054361978L131.55318,152.76796271006268L131.6799,128.00265884399414L131.93334000000002,131.19119700113933L132.18678,140.71045214335123L132.44021999999998,138.3473072052002L132.56694,153.29445439020793L132.69366,149.6995203781128L132.82038,152.1744152768453L132.9471,150.20215081532797L133.07382,137.53309832255044L133.32726,151.12480829874676L133.5807,151.08815198898316L133.83414,153.8782219060262L134.2143,153.09413450876872L134.34102000000001,153.3306553141276L134.46774000000002,136.95055104573566L134.59446,154.6066969013214L134.72118,146.95321889241538L134.97462,153.22682546615601L135.10134,153.14141136169434L135.22806,152.6017307472229L135.4815,146.09486459096274L135.60822000000002,155.16521976153055L135.86166,152.34232924143473L136.24182,143.4227377319336L136.49526,153.3062535349528L136.62198,152.07133865356445L136.7487,145.507531636556L137.12886,153.4642641703288L137.50902,148.83874285380045L137.63574,147.11560108184813L137.88918,153.36312762578328L138.14262,83.13510762532552L138.39606,150.98827431996662L138.52278,153.07557434717813L139.02966,155.44753178914388L139.2831,153.02827236175537L139.40982,153.4702903429667L139.53654,152.4205768330892L139.66325999999998,153.9104023806254L139.9167,118.18038080851238L140.04342,154.73546718915304L140.17014,155.3181187470754L140.29686,151.3933265240987L140.80374,152.7981914774577L141.05718,151.62060419718426L141.18390000000002,152.92273050308228L141.31062,150.0068713124593L141.43734,154.8879543018341L141.56406,151.8791935857137L142.07094,149.27530033111574L142.19765999999998,155.26580114046732L142.32438000000002,152.6872442563375L142.4511,154.2496835899353L142.95798,153.28750544230144L143.0847,152.87125164667765L143.21142,149.96165157318114L143.33813999999998,153.28240279515583L143.46486000000002,153.7838302485148L143.7183,145.7482326889038L143.84502,139.61151532491047L143.97173999999998,153.40438543319704L144.09846,151.29538443247478L144.3519,152.68152567545573L144.73206,153.90726306915283L144.9855,151.067571849823L145.11221999999998,150.6895029449463L145.36566,153.97043678919474L145.49238,152.62353637695313L145.6191,154.03439486821492L145.87254,-333.6082210286458L145.99926000000002,147.78858933766685L146.25269999999998,151.67174845377605L146.37942,149.58029481252035L147.01301999999998,146.03108656565348L147.26646,151.18967414855956L147.39317999999997,141.63601974487304L147.5199,154.60722543398538L147.64661999999998,152.1085771369934L147.77334,153.50892199198404L147.90006,153.2718021329244L148.02678,150.58317222595215L148.28022,153.63484555562337L148.40694,154.17385547002158L148.53366000000003,145.03522224426268L148.91382000000002,153.22730223337808L149.04054,149.22306599934896L149.16726,152.7701980018616L149.29398,154.41989642779032L149.54742,153.18710711797078L150.30774,155.95226651032766L150.43446,154.03889245986937L150.56118,153.46650471369426L150.81462000000002,151.5677768135071L151.3215,126.6313067626953L151.70166,152.52539247512817L152.08182,152.01412358601888L152.46197999999998,152.35325662612914L152.58870000000002,154.7218333721161L152.84214,148.05359464009604L152.96886,151.95653453191122L153.09558,154.8232424354553L153.2223,137.38856320699057L153.47574,133.9988510386149L153.60245999999998,149.1837782796224L153.72918,64.90830647786458L153.8559,126.86480341593425L153.98262,132.1621876525879L154.10934,106.07614105224611L154.23606,120.53999369303386L154.36278,151.35787019729614L154.48950000000002,143.36542363484702L154.74293999999998,152.1649241956075L154.86966,153.72283967971802L155.1231,151.92909434636434L155.50325999999998,152.1727996699015L155.62998000000002,137.35321116129558L155.88342,154.40016029040018L156.13685999999998,147.58083961486815L156.26358000000002,155.05095992724102L156.3903,150.5827746073405L156.51702,149.6335667037964L156.89718,150.22442495981852L157.0239,148.75796475728353L157.15062,152.27218894322712L157.27733999999998,150.7778432973226L157.53078,154.34701349894206L157.6575,155.02148550987243L158.67126,152.7815785217285L159.05142,152.34145222981772L159.17813999999998,152.634183177948L159.43158,145.93463479359946L159.5583,153.35367218017578L159.68502,146.78469161987306L159.81174,155.05647669792177L160.1919,154.10934222539265L160.31862,155.85773287296294L160.57206,153.18624548594155L160.69878,150.49397211710613L160.8255,154.35572134653728L160.95221999999998,121.670923055013L161.33238,147.37178075154623L162.34614,149.71106407165527L162.47286,149.94351566314697L162.59958,140.2473479970296L162.85302,139.93298922220868L163.10646,104.58279958089193L163.23318,21.310845133463545L163.3599,-37.52816284179689L163.61334000000002,153.59375804901123L163.74006,144.30040654500326L163.86678,147.0047142537435L163.9935,147.669192721049L164.12022,152.19789278030396L164.50038,153.8830180867513L164.62709999999998,129.89302775065104L164.75382000000002,150.61940503438313L165.38742,151.2641980044047L165.64086,154.40521754900615L165.76757999999998,138.36539059956868L166.02102,154.93165952682494L166.14774,152.2955625406901L166.40117999999998,152.9468712043762L167.1615,148.33216773986817L167.28822000000002,153.2417740503947L167.54165999999998,148.50272736867268L167.7951,153.98156223297119L167.92182,154.969161901474L168.42870000000002,155.43849815686545L168.55542,147.38277453104655L168.68213999999998,149.1367692565918L168.80886,149.82602686564127L168.93558,150.47516850789387L169.18902,124.27844589233399L169.44245999999998,128.00411727905274L169.56918000000002,155.16856013298036L169.6959,151.0719809150696L169.82261999999997,154.45547766685485L169.94934,151.18841789881387L170.07605999999998,147.35948983510335L170.20278,153.01177306493125L170.70966,153.82396834691366L170.96310000000003,139.994917195638L171.08982,153.8884448305766L171.72342,151.98659374872844L171.85014,147.66952056884764L172.10358000000002,155.09858750979106L172.35701999999998,154.44943086306253L172.48374,149.62446648915608L172.61046,154.62853028933208L172.8639,155.6330396270752L173.24406000000002,153.5131832631429L173.37078,155.4606215063731L173.75093999999999,151.6409952799479L174.00438,153.67065223693848L174.38454000000002,154.64638617833455L174.7647,153.93001398086548L174.89141999999998,59.698590393066404L175.14486,125.5824398803711L175.27158,145.3790618133545L175.3983,153.15607373555503L175.52502,154.43968283017477L175.65174,148.61107393900554L175.77846000000002,151.59717020670573L175.90518,133.23456654866536L176.15862,152.75229953765867L176.28534,154.9915708986918L176.41206,149.35211424509683L176.79222,155.22847019195555L176.91894000000002,155.23218773841856L177.17237999999998,154.3626517264048L178.18614,154.9567462603251L178.31286,150.75238520304362L178.43958,148.64857687632244L178.56629999999998,155.226989625295L178.69302000000002,148.1607175954183L178.94646,155.0587243684133L179.07318,147.61227549235025L179.1999,153.0545508257548L179.32662,148.7724598312378L179.58006,156.05114281813306L179.70677999999998,151.93818068186442L179.83350000000002,149.2350763320923L180.21366,154.16914518992107L180.34038,151.7326594988505L180.59382,150.75358706156413L181.86102,155.77600011666615L182.24117999999999,147.7586163965861L182.36790000000002,131.12381189982096L182.49462,154.2370265642802L182.62134,153.3583809598287L182.87478,153.47641254425048L183.0015,151.9959336598714L183.12822,154.2652846813202L183.38165999999998,154.97864623069762L183.76182,151.68163865407308L183.88854,153.61320272445678L184.01525999999998,154.67157119115194L184.14198,153.64032781600952L184.2687,134.76869318644205L184.39542,153.9480876223246L184.52213999999998,153.67564009984335L184.64886,155.3672130171458L184.9023,155.61162111282349L185.15573999999998,153.11726428349814L185.28246000000001,154.46775751749675L185.5359,149.8442918141683L185.78934,151.84200761795046L186.04278000000002,156.51530862490335L186.1695,155.41095987955728L186.29622,151.75109212239582L186.42294,153.2644791984558L186.54966,115.50263702392577L186.67638,155.6505702940623L187.18326000000002,147.67782929738362L187.81686,154.04135206858317L187.94358,155.12247876167297L188.19701999999998,153.93090487162274L188.32374000000002,92.03223968505858L188.45046,150.04222860972087L188.83061999999998,151.91309244791665L188.95734000000002,152.2384176190694L189.08406,153.25418537775676L189.3375,153.48651618321736L189.59094,147.17808272043862L189.71766000000002,153.7623757235209L190.09782,153.81378593444825L190.35126,152.2233718808492L190.6047,156.45533507823944L190.73141999999999,135.2705688985189L190.98486,147.36884287516276L191.11157999999998,154.46724661509197L191.49174,149.68373116811117L191.61846,155.33932232220965L191.74518,155.8338649717967L191.99862000000002,154.56184308369956L192.12534,143.63370666503906L192.25205999999997,152.46703069051108L192.63222000000002,155.0703218905131L192.75894,148.41190227508545L192.88566,150.81074511210124L193.01238,119.52370452880858L193.1391,154.88933227539061L193.26582,153.88027039210002L193.51926,74.29998606363932L193.89942,156.39797437349955L194.02614,150.7824984359741L194.27958,152.78113251368205L194.78645999999998,151.4124283472697L194.91318,155.92761143684388L195.16662,154.02859713872274L195.29334,154.62420337359111L195.67350000000002,155.313778702418L195.92693999999997,151.73134585698446L196.18037999999999,155.09949940681457L196.43382,151.43526628494263L196.56054,155.83400779565176L196.68726,155.0959861087799L196.81398000000002,155.63368538220723L197.06742,147.82092398325602L197.44758000000002,154.47527682304383L197.5743,145.91762046813966L197.82774,154.1631584040324L197.95446,156.04120103995004L198.08118,153.75720143000285L198.33462,154.4817473157247L198.8415,154.46583581924438L199.09494,154.7019160556793L199.22165999999999,107.47604064941406L199.4751,155.99004899978638L199.60181999999998,154.41554362932843L199.72854,154.53946878433229L199.85526,154.85611236572265L199.98198000000002,154.65885170936585L200.1087,155.324608558019L200.61558,155.5971689891815L200.7423,154.9115839131673L200.86902,152.5932577196757L200.99573999999998,155.57945883115133L201.12246000000002,123.47972162882488L201.3759,154.95282052675884L201.62934,154.5776934369405L201.75606,155.54188143412273L201.88278,151.8532167116801L202.0095,154.61025915145873L202.13621999999998,154.97632053693135L202.26294000000001,156.2837872171402L202.6431,147.46751155853272L203.02326,155.40552863438924L203.27669999999998,154.737159131368L203.53014,153.43861551920574L203.65686000000002,155.43079035758973L203.78358,154.79465647061664L203.9103,155.30607071558634L204.03702,155.51433302879335L204.5439,141.65413464864096L205.1775,148.3109409077962L205.43094,153.70115746180215L205.55766,153.67981584548951L205.68438,156.14571134090423L205.93782000000002,155.6722427590688L206.06454,154.50563312848408L206.19126,67.13111155192058L206.57142,153.13015800476074L206.95157999999998,154.8945844046275L207.0783,155.06104893684386L207.20502,154.42670077006022L207.45846,153.29635470708212L207.58517999999998,153.828282883962L207.7119,153.3782566388448L207.96534,154.7480814520518L208.09206,152.4429443804423L208.3455,154.4859532578786L208.47222000000002,155.5661944993337L208.59894,155.61176571846008L208.72565999999998,155.51136908213297L208.85238,154.38215529441834L208.9791,155.13124550183613L209.23254,144.0406430562337L209.35926,155.1735828812917L209.73942,154.68230745633443L210.37302,153.0392012468974L210.8799,154.3332875919342L211.89366,155.38094661394754L212.02038,150.09655756632486L212.14710000000002,155.45080407778423L212.27382,152.02770526250205L212.40053999999998,150.8573362604777L212.7807,155.4506148338318L212.90742,146.1397789891561L213.16085999999999,152.78515033721925L213.28758000000002,103.72553985595702L213.54101999999997,154.70465155919393L213.66774,153.64862716674804L213.79446,151.5841455713908L213.92118,155.1400548171997L214.17462,153.9921362622579L214.42806000000002,154.9240175596873L214.55478,153.09968578974406L214.68150000000003,153.99548263549804L214.93493999999998,155.4470477072398L215.06166000000002,43.95822896321616L215.18838,151.22782115300495L215.44182,154.22172743797302L215.69526,156.1938967148463L216.45558,153.74123141606648L216.70902,155.07296155293784L217.21589999999998,154.88819118499757L217.46934,150.85239828745523L217.59606,155.62984217325848L218.10294000000002,155.5364376227061L218.73654000000002,148.75577260335285L218.86326,149.45140261332193L219.37014,155.56920683542887L219.75029999999998,153.92653781890868L219.87702000000002,139.58309984842936L220.25718,154.85339242935183L220.3839,152.5833116277059L220.63734,154.86571560541788L220.76406,155.7209242184957L220.89077999999998,154.08590448379516L221.0175,154.75252915382387L221.27094,155.15652372996013L221.39766,155.90281813462576L221.77782,154.85732566515605L221.90454,156.21533998648326L222.03126,152.87988559722902L222.15798,149.78669713338218L222.2847,148.0770668919881L222.79158,151.13577732086182L223.17174,154.8902889982859L223.29846,156.25765729745228L223.42517999999998,155.37601182937624L223.55190000000002,154.4529599157969L223.80534,148.04240430196126L223.93206,154.70766914685566L224.05878,149.7283087158203L224.1855,155.4224579970042L224.31222,150.2840775044759L224.43894,155.82356252352398L224.56565999999998,154.5562541039785L224.69238,139.35610313415526L224.8191,155.93955012321473L225.19926,153.56680813471476L225.4527,155.77261876424154L226.08630000000002,131.7154503885905L226.21302,154.76367541631063L226.33974,148.6181643040975L226.59318,155.5618471399943L227.10005999999998,151.68050319035848L227.48022,154.46551828702292L227.73366,155.3026718266805L228.24053999999998,151.64958459218343L228.36726000000002,154.94565457661946L228.49398,155.90712676366172L228.6207,154.9066487534841L229.00086,154.43255232810975L229.2543,155.67782161076863L229.38102,154.6751073710124L229.50774,154.08408331553142L229.63446,154.0333134206136L229.8879,155.6382236735026L230.14134,154.56888956069946L230.26806,150.29272983551027L230.64822,155.46169957796732L230.77494,154.6088461049398L231.02838,154.26560915311177L231.15509999999998,154.10612826665243L231.28182,150.97112570444742L231.91541999999998,155.04552980740866L232.04214000000002,154.9677402273814L232.16886,151.55805541356406L233.18262000000001,156.31188769340514L233.30934,153.92826070785523L233.43606000000003,155.90967864990233L233.68949999999998,151.45351022720337L233.81622000000002,152.19925256093345L233.94294,155.23347737312315L234.06966,155.95365301767984L234.19638,155.75975899060566L234.3231,143.95948684692382L234.44982,153.5604634920756L234.70326,154.37693748792012L234.9567,152.77847222010294L235.08342,151.23392647425334L235.21014,154.45593211491902L235.46358,152.83293359120685L235.59029999999998,146.1139165242513L235.84374,155.53343335151672L236.09718,154.91969683329265L236.2239,152.6497401936849L236.47734,155.27629208246867L236.60406,153.7355015818278L237.11094000000003,155.5318608824412L237.23766,152.94471018473308L237.36437999999998,154.31508922576904L237.49110000000002,153.76870648701984L237.61782,153.4536342493693L237.74454,153.2507388496399L237.87126,155.95371913115181L238.1247,155.26656355539959L238.25142000000002,154.51307591120403L238.37814,149.91346844991048L238.50485999999998,149.11601956685385L239.01174,155.69114258448283L239.26518,155.14451546033223L239.39190000000002,124.4858977762858L239.51862,154.59022011121115L239.77206,156.03539843400318L240.0255,152.88643805185956L240.27894,150.23090764363607L240.53238000000002,155.10656613985697L240.6591,154.39879694620768L240.78582,152.68675736109415L241.03925999999998,143.8937597401937L241.16598000000002,151.1808586438497L241.2927,154.28622586568196L241.41942,154.79479601224264L241.54614,154.45996475537618L241.67286000000001,154.57087146441143L241.79958,155.34217542330424L241.9263,153.6176245435079L242.05302,154.7147608248393L242.5599,155.72984025319417L242.68662,155.24231632232667L242.94006,146.681604868571L243.06678,153.56646265665688L243.44694,154.9069338385264L243.57366,154.9274301401774L243.70038,152.89875822703044L243.8271,156.51334266344705L243.95382,154.37976283073425L244.20726,155.77334966977438L244.71414,156.2404462258021L244.96758,152.74607155481974L245.0943,154.35195447285972L245.22102,154.13662823994954L245.60118,152.8918006515503L245.7279,149.38368066151935L245.98134000000002,154.64154929796854L246.10806,154.55333348274232L246.23478,155.24246674219768L246.48821999999998,148.06546693166098L246.61494,155.58303064664204L246.74166,149.92010192871095L246.86838,156.21332376003267L247.12182,155.06660959561665L247.37526,154.3224346669515L247.62869999999998,152.84275777180991L247.75542000000002,153.0557706896464L248.00886,150.95757441202798L248.13558,155.49024165471394L248.2623,155.15181476275126L248.38902,155.37694454511006L248.64246,34.1313895670573L249.02262,154.50104044596353L249.14934,154.29159596761068L249.27606,154.6355852063497L249.40278,153.4661434809367L249.52949999999998,154.06503175735475L249.78294,154.10714444478353L249.90966,152.49850520451864L250.03638,155.7802966483434L250.1631,155.38585439046224L250.28982,153.37339106241862L250.41654,154.838268105189L250.54326,150.56342483520507L250.66997999999998,153.61897344589232L250.92342,154.8265946229299L251.05014,134.19788091023761L251.17686,150.03122732798258L251.68374,89.87515421549477L252.0639,155.9641098244985L252.19062000000002,151.60150875091554L252.31734,155.80122479756673L252.6975,155.8338461224238L252.82422,154.70057803153992L252.95094,155.23923777898153L253.07766,152.82909094492595L253.20438,151.94993181228637L253.45782,155.6321650536855L253.58453999999998,154.52990849494932L253.71126,151.5935451253255L254.09142,153.4680723063151L254.21814,152.73416437784832L254.47158000000002,153.8099305343628L254.72501999999997,153.43774375915527L254.85174,154.39950515747068L255.2319,155.410091120402L255.48534,150.1502233250936L255.61206,154.36041268348694L255.73878,154.45159319559733" style="fill: none;" fill="none"></path></g></g></g></g></g></g><g transform="translate(51, 177)" clip-path="url(#clip_1)"><clipPath id="clip_1"><rect width="278" height="23"></rect></clipPath><g><g><line x1="0" y1="0" x2="0" y2="5" style="visibility: inherit;" fill="rgb(0, 0, 0)" stroke="rgb(204, 204, 204)" stroke-width="1px"></line><line x1="30.9375" y1="0" x2="30.9375" y2="5" style="visibility: inherit;" fill="rgb(0, 0, 0)" stroke="rgb(204, 204, 204)" stroke-width="1px"></line><line x1="61.875" y1="0" x2="61.875" y2="5" style="visibility: inherit;" fill="rgb(0, 0, 0)" stroke="rgb(204, 204, 204)" stroke-width="1px"></line><line x1="92.8125" y1="0" x2="92.8125" y2="5" style="visibility: inherit;" fill="rgb(0, 0, 0)" stroke="rgb(204, 204, 204)" stroke-width="1px"></line><line x1="123.75" y1="0" x2="123.75" y2="5" style="visibility: inherit;" fill="rgb(0, 0, 0)" stroke="rgb(204, 204, 204)" stroke-width="1px"></line><line x1="154.6875" y1="0" x2="154.6875" y2="5" style="visibility: inherit;" fill="rgb(0, 0, 0)" stroke="rgb(204, 204, 204)" stroke-width="1px"></line><line x1="185.625" y1="0" x2="185.625" y2="5" style="visibility: inherit;" fill="rgb(0, 0, 0)" stroke="rgb(204, 204, 204)" stroke-width="1px"></line><line x1="216.5625" y1="0" x2="216.5625" y2="5" style="visibility: inherit;" fill="rgb(0, 0, 0)" stroke="rgb(204, 204, 204)" stroke-width="1px"></line><line x1="247.5" y1="0" x2="247.5" y2="5" style="visibility: inherit;" fill="rgb(0, 0, 0)" stroke="rgb(204, 204, 204)" stroke-width="1px"></line><line x1="278.4375" y1="0" x2="278.4375" y2="5" style="visibility: inherit;" fill="rgb(0, 0, 0)" stroke="rgb(204, 204, 204)" stroke-width="1px"></line></g><g transform="translate(0, 8)"><text x="0" y="0" dx="0em" dy="0.95em" style="text-anchor: middle; visibility: hidden; font-family: Roboto, sans-serif; font-size: 12px; font-weight: 200;" fill="rgb(33, 33, 33)" stroke="none" stroke-width="1px">-500k</text><text x="30.9375" y="0" dx="0em" dy="0.95em" style="text-anchor: middle; visibility: inherit; font-family: Roboto, sans-serif; font-size: 12px; font-weight: 200;" fill="rgb(33, 33, 33)" stroke="none" stroke-width="1px">0</text><text x="61.875" y="0" dx="0em" dy="0.95em" style="text-anchor: middle; visibility: inherit; font-family: Roboto, sans-serif; font-size: 12px; font-weight: 200;" fill="rgb(33, 33, 33)" stroke="none" stroke-width="1px">500k</text><text x="92.8125" y="0" dx="0em" dy="0.95em" style="text-anchor: middle; visibility: inherit; font-family: Roboto, sans-serif; font-size: 12px; font-weight: 200;" fill="rgb(33, 33, 33)" stroke="none" stroke-width="1px">1M</text><text x="123.75" y="0" dx="0em" dy="0.95em" style="text-anchor: middle; visibility: inherit; font-family: Roboto, sans-serif; font-size: 12px; font-weight: 200;" fill="rgb(33, 33, 33)" stroke="none" stroke-width="1px">1.5M</text><text x="154.6875" y="0" dx="0em" dy="0.95em" style="text-anchor: middle; visibility: inherit; font-family: Roboto, sans-serif; font-size: 12px; font-weight: 200;" fill="rgb(33, 33, 33)" stroke="none" stroke-width="1px">2M</text><text x="185.625" y="0" dx="0em" dy="0.95em" style="text-anchor: middle; visibility: inherit; font-family: Roboto, sans-serif; font-size: 12px; font-weight: 200;" fill="rgb(33, 33, 33)" stroke="none" stroke-width="1px">2.5M</text><text x="216.5625" y="0" dx="0em" dy="0.95em" style="text-anchor: middle; visibility: inherit; font-family: Roboto, sans-serif; font-size: 12px; font-weight: 200;" fill="rgb(33, 33, 33)" stroke="none" stroke-width="1px">3M</text><text x="247.5" y="0" dx="0em" dy="0.95em" style="text-anchor: middle; visibility: inherit; font-family: Roboto, sans-serif; font-size: 12px; font-weight: 200;" fill="rgb(33, 33, 33)" stroke="none" stroke-width="1px">3.5M</text><text x="278.4375" y="0" dx="0em" dy="0.95em" style="text-anchor: middle; visibility: hidden; font-family: Roboto, sans-serif; font-size: 12px; font-weight: 200;" fill="rgb(33, 33, 33)" stroke="none" stroke-width="1px">4M</text></g><line x1="0" y1="0" x2="278.4375" y2="0" fill="rgb(0, 0, 0)" stroke="rgb(204, 204, 204)" stroke-width="1px"></line></g></g></g></g></svg>