<svg viewBox="0 0 330 200" xmlns="http://www.w3.org/2000/svg"><g><g><g><g><g><line x1="30.78125" y1="177" x2="25.78125" y2="177" style="visibility: inherit;" fill="rgb(0, 0, 0)" stroke="rgb(204, 204, 204)" stroke-width="1px"></line><line x1="30.78125" y1="164.35714285714286" x2="25.78125" y2="164.35714285714286" style="visibility: inherit;" fill="rgb(0, 0, 0)" stroke="rgb(204, 204, 204)" stroke-width="1px"></line><line x1="30.78125" y1="151.71428571428572" x2="25.78125" y2="151.71428571428572" style="visibility: inherit;" fill="rgb(0, 0, 0)" stroke="rgb(204, 204, 204)" stroke-width="1px"></line><line x1="30.78125" y1="139.07142857142856" x2="25.78125" y2="139.07142857142856" style="visibility: inherit;" fill="rgb(0, 0, 0)" stroke="rgb(204, 204, 204)" stroke-width="1px"></line><line x1="30.78125" y1="126.42857142857143" x2="25.78125" y2="126.42857142857143" style="visibility: inherit;" fill="rgb(0, 0, 0)" stroke="rgb(204, 204, 204)" stroke-width="1px"></line><line x1="30.78125" y1="113.78571428571428" x2="25.78125" y2="113.78571428571428" style="visibility: inherit;" fill="rgb(0, 0, 0)" stroke="rgb(204, 204, 204)" stroke-width="1px"></line><line x1="30.78125" y1="101.14285714285714" x2="25.78125" y2="101.14285714285714" style="visibility: inherit;" fill="rgb(0, 0, 0)" stroke="rgb(204, 204, 204)" stroke-width="1px"></line><line x1="30.78125" y1="88.5" x2="25.78125" y2="88.5" style="visibility: inherit;" fill="rgb(0, 0, 0)" stroke="rgb(204, 204, 204)" stroke-width="1px"></line><line x1="30.78125" y1="75.85714285714286" x2="25.78125" y2="75.85714285714286" style="visibility: inherit;" fill="rgb(0, 0, 0)" stroke="rgb(204, 204, 204)" stroke-width="1px"></line><line x1="30.78125" y1="63.21428571428571" x2="25.78125" y2="63.21428571428571" style="visibility: inherit;" fill="rgb(0, 0, 0)" stroke="rgb(204, 204, 204)" stroke-width="1px"></line><line x1="30.78125" y1="50.57142857142857" x2="25.78125" y2="50.57142857142857" style="visibility: inherit;" fill="rgb(0, 0, 0)" stroke="rgb(204, 204, 204)" stroke-width="1px"></line><line x1="30.78125" y1="37.92857142857143" x2="25.78125" y2="37.92857142857143" style="visibility: inherit;" fill="rgb(0, 0, 0)" stroke="rgb(204, 204, 204)" stroke-width="1px"></line><line x1="30.78125" y1="25.285714285714295" x2="25.78125" y2="25.285714285714295" style="visibility: inherit;" fill="rgb(0, 0, 0)" stroke="rgb(204, 204, 204)" stroke-width="1px"></line><line x1="30.78125" y1="12.642857142857137" x2="25.78125" y2="12.642857142857137" style="visibility: inherit;" fill="rgb(0, 0, 0)" stroke="rgb(204, 204, 204)" stroke-width="1px"></line><line x1="30.78125" y1="0" x2="25.78125" y2="0" style="visibility: inherit;" fill="rgb(0, 0, 0)" stroke="rgb(204, 204, 204)" stroke-width="1px"></line></g><g transform="translate(20.78125, 0)"><text x="0" y="177" dx="0em" dy="0.3em" style="text-anchor: end; visibility: hidden; font-family: Roboto, sans-serif; font-size: 12px; font-weight: 200;" fill="rgb(33, 33, 33)" stroke="none" stroke-width="1px">20</text><text x="0" y="164.35714285714286" dx="0em" dy="0.3em" style="text-anchor: end; visibility: inherit; font-family: Roboto, sans-serif; font-size: 12px; font-weight: 200;" fill="rgb(33, 33, 33)" stroke="none" stroke-width="1px">25</text><text x="0" y="151.71428571428572" dx="0em" dy="0.3em" style="text-anchor: end; visibility: hidden; font-family: Roboto, sans-serif; font-size: 12px; font-weight: 200;" fill="rgb(33, 33, 33)" stroke="none" stroke-width="1px">30</text><text x="0" y="139.07142857142856" dx="0em" dy="0.3em" style="text-anchor: end; visibility: inherit; font-family: Roboto, sans-serif; font-size: 12px; font-weight: 200;" fill="rgb(33, 33, 33)" stroke="none" stroke-width="1px">35</text><text x="0" y="126.42857142857143" dx="0em" dy="0.3em" style="text-anchor: end; visibility: hidden; font-family: Roboto, sans-serif; font-size: 12px; font-weight: 200;" fill="rgb(33, 33, 33)" stroke="none" stroke-width="1px">40</text><text x="0" y="113.78571428571428" dx="0em" dy="0.3em" style="text-anchor: end; visibility: inherit; font-family: Roboto, sans-serif; font-size: 12px; font-weight: 200;" fill="rgb(33, 33, 33)" stroke="none" stroke-width="1px">45</text><text x="0" y="101.14285714285714" dx="0em" dy="0.3em" style="text-anchor: end; visibility: hidden; font-family: Roboto, sans-serif; font-size: 12px; font-weight: 200;" fill="rgb(33, 33, 33)" stroke="none" stroke-width="1px">50</text><text x="0" y="88.5" dx="0em" dy="0.3em" style="text-anchor: end; visibility: inherit; font-family: Roboto, sans-serif; font-size: 12px; font-weight: 200;" fill="rgb(33, 33, 33)" stroke="none" stroke-width="1px">55</text><text x="0" y="75.85714285714286" dx="0em" dy="0.3em" style="text-anchor: end; visibility: hidden; font-family: Roboto, sans-serif; font-size: 12px; font-weight: 200;" fill="rgb(33, 33, 33)" stroke="none" stroke-width="1px">60</text><text x="0" y="63.21428571428571" dx="0em" dy="0.3em" style="text-anchor: end; visibility: inherit; font-family: Roboto, sans-serif; font-size: 12px; font-weight: 200;" fill="rgb(33, 33, 33)" stroke="none" stroke-width="1px">65</text><text x="0" y="50.57142857142857" dx="0em" dy="0.3em" style="text-anchor: end; visibility: hidden; font-family: Roboto, sans-serif; font-size: 12px; font-weight: 200;" fill="rgb(33, 33, 33)" stroke="none" stroke-width="1px">70</text><text x="0" y="37.92857142857143" dx="0em" dy="0.3em" style="text-anchor: end; visibility: inherit; font-family: Roboto, sans-serif; font-size: 12px; font-weight: 200;" fill="rgb(33, 33, 33)" stroke="none" stroke-width="1px">75</text><text x="0" y="25.285714285714295" dx="0em" dy="0.3em" style="text-anchor: end; visibility: hidden; font-family: Roboto, sans-serif; font-size: 12px; font-weight: 200;" fill="rgb(33, 33, 33)" stroke="none" stroke-width="1px">80</text><text x="0" y="12.642857142857137" dx="0em" dy="0.3em" style="text-anchor: end; visibility: inherit; font-family: Roboto, sans-serif; font-size: 12px; font-weight: 200;" fill="rgb(33, 33, 33)" stroke="none" stroke-width="1px">85</text><text x="0" y="0" dx="0em" dy="0.3em" style="text-anchor: end; visibility: hidden; font-family: Roboto, sans-serif; font-size: 12px; font-weight: 200;" fill="rgb(33, 33, 33)" stroke="none" stroke-width="1px">90</text></g><line x1="30.78125" y1="0" x2="30.78125" y2="177" fill="rgb(0, 0, 0)" stroke="rgb(204, 204, 204)" stroke-width="1px"></line></g></g><g transform="translate(30, 0)" clip-path="url(#clip_0)"><clipPath id="clip_0"><rect width="299" height="177"></rect></clipPath><g><g><g><line x1="0" y1="0" x2="0" y2="177" fill="rgb(0, 0, 0)" stroke="rgb(66, 66, 66)" stroke-width="1px" opacity="0.25"></line><line x1="29.921875" y1="0" x2="29.921875" y2="177" fill="rgb(0, 0, 0)" stroke="rgb(66, 66, 66)" stroke-width="1px" opacity="0.25"></line><line x1="59.84375" y1="0" x2="59.84375" y2="177" fill="rgb(0, 0, 0)" stroke="rgb(66, 66, 66)" stroke-width="1px" opacity="0.25"></line><line x1="89.765625" y1="0" x2="89.765625" y2="177" fill="rgb(0, 0, 0)" stroke="rgb(66, 66, 66)" stroke-width="1px" opacity="0.25"></line><line x1="119.6875" y1="0" x2="119.6875" y2="177" fill="rgb(0, 0, 0)" stroke="rgb(66, 66, 66)" stroke-width="1px" opacity="0.25"></line><line x1="149.609375" y1="0" x2="149.609375" y2="177" fill="rgb(0, 0, 0)" stroke="rgb(66, 66, 66)" stroke-width="1px" opacity="0.25"></line><line x1="179.53125" y1="0" x2="179.53125" y2="177" fill="rgb(0, 0, 0)" stroke="rgb(66, 66, 66)" stroke-width="1px" opacity="0.25"></line><line x1="209.453125" y1="0" x2="209.453125" y2="177" fill="rgb(0, 0, 0)" stroke="rgb(66, 66, 66)" stroke-width="1px" opacity="0.25"></line><line x1="239.375" y1="0" x2="239.375" y2="177" fill="rgb(0, 0, 0)" stroke="rgb(66, 66, 66)" stroke-width="1px" opacity="0.25"></line><line x1="269.296875" y1="0" x2="269.296875" y2="177" fill="rgb(0, 0, 0)" stroke="rgb(66, 66, 66)" stroke-width="1px" opacity="0.25"></line><line x1="299.21875" y1="0" x2="299.21875" y2="177" fill="rgb(0, 0, 0)" stroke="rgb(66, 66, 66)" stroke-width="1px" opacity="0.25"></line></g><g><line x1="0" y1="177" x2="299.21875" y2="177" fill="rgb(0, 0, 0)" stroke="rgb(66, 66, 66)" stroke-width="1px" opacity="0.25"></line><line x1="0" y1="164.35714285714286" x2="299.21875" y2="164.35714285714286" fill="rgb(0, 0, 0)" stroke="rgb(66, 66, 66)" stroke-width="1px" opacity="0.25"></line><line x1="0" y1="151.71428571428572" x2="299.21875" y2="151.71428571428572" fill="rgb(0, 0, 0)" stroke="rgb(66, 66, 66)" stroke-width="1px" opacity="0.25"></line><line x1="0" y1="139.07142857142856" x2="299.21875" y2="139.07142857142856" fill="rgb(0, 0, 0)" stroke="rgb(66, 66, 66)" stroke-width="1px" opacity="0.25"></line><line x1="0" y1="126.42857142857143" x2="299.21875" y2="126.42857142857143" fill="rgb(0, 0, 0)" stroke="rgb(66, 66, 66)" stroke-width="1px" opacity="0.25"></line><line x1="0" y1="113.78571428571428" x2="299.21875" y2="113.78571428571428" fill="rgb(0, 0, 0)" stroke="rgb(66, 66, 66)" stroke-width="1px" opacity="0.25"></line><line x1="0" y1="101.14285714285714" x2="299.21875" y2="101.14285714285714" fill="rgb(0, 0, 0)" stroke="rgb(66, 66, 66)" stroke-width="1px" opacity="0.25"></line><line x1="0" y1="88.5" x2="299.21875" y2="88.5" fill="rgb(0, 0, 0)" stroke="rgb(66, 66, 66)" stroke-width="1px" opacity="0.25"></line><line x1="0" y1="75.85714285714286" x2="299.21875" y2="75.85714285714286" fill="rgb(0, 0, 0)" stroke="rgb(66, 66, 66)" stroke-width="1px" opacity="0.25"></line><line x1="0" y1="63.21428571428571" x2="299.21875" y2="63.21428571428571" fill="rgb(0, 0, 0)" stroke="rgb(66, 66, 66)" stroke-width="1px" opacity="0.25"></line><line x1="0" y1="50.57142857142857" x2="299.21875" y2="50.57142857142857" fill="rgb(0, 0, 0)" stroke="rgb(66, 66, 66)" stroke-width="1px" opacity="0.25"></line><line x1="0" y1="37.92857142857143" x2="299.21875" y2="37.92857142857143" fill="rgb(0, 0, 0)" stroke="rgb(66, 66, 66)" stroke-width="1px" opacity="0.25"></line><line x1="0" y1="25.285714285714295" x2="299.21875" y2="25.285714285714295" fill="rgb(0, 0, 0)" stroke="rgb(66, 66, 66)" stroke-width="1px" opacity="0.25"></line><line x1="0" y1="12.642857142857137" x2="299.21875" y2="12.642857142857137" fill="rgb(0, 0, 0)" stroke="rgb(66, 66, 66)" stroke-width="1px" opacity="0.25"></line><line x1="0" y1="0" x2="299.21875" y2="0" fill="rgb(0, 0, 0)" stroke="rgb(66, 66, 66)" stroke-width="1px" opacity="0.25"></line></g></g></g><g><g><line x1="0" y1="227.57142857142856" x2="299.21875" y2="227.57142857142856" fill="rgb(0, 0, 0)" stroke="rgb(153, 153, 153)" stroke-width="1.5px"></line></g></g><g><g><line x1="29.921875" y1="0" x2="29.921875" y2="177" fill="rgb(0, 0, 0)" stroke="rgb(153, 153, 153)" stroke-width="1.5px"></line></g></g><g><g><g><g><g><path stroke="rgb(0, 119, 187)" stroke-width="2px" d="M30.3296503125,168.83420088631766L30.91222921875,16.34443274277894L31.059744062500002,-116.66197367107314L43.277743281250004,-2.0462630445651344L43.690964375,0.36222056540724323L43.940393125,4.633679040437447L44.084496875,9.454726495889602L44.96557640625,14.355006352722038L45.3391809375,16.163187899891245L45.64779515625,21.458275037856968L45.81775140625,25.96556721986048L46.01750984375,23.752428492912045L46.25927859375,27.851927219282704L46.36615953125,30.924016925691248L47.44418484375,33.6802613602535L47.668598906250004,35.874593468210364L47.725689843750004,38.22621207602938L48.051239843750004,40.966670945996945L48.260872500000005,45.1995743654181L48.31975875,43.34272888096552L48.45781828125,45.3981743482228L49.0157415625,46.439893309432286L49.098505468750005,46.802554234449936L49.420943593749996,48.34268935534462L49.47713687500001,51.28806811673098L49.53632234375,53.13016409528432L49.74182578125,54.62347290900459L50.26366328125,54.5123623996142L50.781072343750004,56.67472603572374L51.759816875,59.38441414817047L52.01600796875,56.026498082697344L52.359511093749994,58.791445108574685L52.66746703125,61.26229103137716L52.75064984375,64.20277207732885L53.459080156249996,66.74188265654226L53.5114434375,66.98650246851865L54.57313140625,68.89814300876176L55.36845484375,72.28537922392887L55.417945625,68.04472701396693L55.4917928125,71.47031660022039L55.86677375,70.2654093170049L56.437024843749995,67.49901130623074L56.53421109375,70.32436313967804L56.628225625,74.68100973990371L56.78519578125,75.51602815056471L57.09566515625,75.53583266139083L57.63138640625,78.23169888631749L57.81714140625,79.44263145918181L57.8812340625,78.9514328738505L58.39595015625,70.02627404268728L58.44801421875,71.17905405022317L59.375293125000006,73.627005394308L59.54842109375,75.9801546969151L59.67708515625,77.1878399692157L60.5169921875,77.13215104134342L60.84499578125,80.36491913928855L60.96378562500001,81.33298547717085L61.114352499999995,82.22184463786675L61.6784396875,85.03639806211478L62.05790890625,86.97954481663871L62.186932031249995,89.6495158686195L62.4068578125,91.51470277893658L62.8094865625,92.96606823960722L63.0191790625,96.30926877238011L63.64694,99.4888196838786L63.78482,101.32869450966997L64.00893484375,103.20846276607269L64.33382656250001,105.58962286082597L64.544835625,107.53439298858764L64.6273003125,108.89647539736487L64.95925359374999,111.41648512789583L65.0639203125,113.54350041552073L65.10491328125,114.28336844110667L65.2140084375,116.50041519856549L65.32400125,118.07924449663354L65.3933003125,117.90510822984879L65.79126125,119.80263645683934L65.86750218750001,121.07661783961676L66.3531940625,123.11542006534133L66.6883190625,123.97522686073484L66.80758765625,123.18856292382381L67.100403125,124.37724757864801L67.44827484375,126.80860131877009L67.5986621875,127.51208444009177L68.2630475,126.97732811660885L68.60948296875,127.9098287074186L68.64909953125,127.73948172137072L68.77273671875,129.72701030681884L68.81151546875,131.2120615544305L68.85705656249999,131.20475065474685L68.91588296875,130.3656857450964L69.02037015625,132.0849498122487L69.17620328125,132.14194223171182L69.4693778125,133.2677586671294L69.743103125,134.08527168558368L69.90133,135.89318510407412L70.1410640625,135.87074475892908L70.313055,136.39172399609353L70.37499328125,137.00223902430503L70.49498,136.97049674349267L70.58642125,138.1331426087859L70.743211875,139.19582882079365L70.7806740625,138.05669190716787L70.92729125,139.6664174479359L70.9843821875,139.12627616766062L71.31358265625,139.0445271732238L71.35798671875,140.24408562428945L71.750023125,141.1152534669624L71.9035821875,142.05699586390847L72.09209,143.2345488721308L72.2636021875,143.91153974418344L72.422666875,145.16794373578813L72.5507325,146.0649157213843L72.77771984374999,145.45265540575633L73.01865078125,145.59040206798971L73.23253234375001,146.73760955261903L73.30290859375,147.82440568339018L73.368676875,148.2313103041195L73.8149915625,148.65948739079155L74.21193515625,149.9827396586214L74.34957578125,149.65015705778808L74.39338140625,150.13513199842905L74.6358084375,149.7935743657369L74.882245,150.00435070647453L75.06207546875,150.17597673285027L75.12844218750001,150.56780503389277L75.19576640625,150.66045169815897L75.3477096875,150.37504076660645L75.506535,149.73898057128798L76.08091531250001,148.61061795995508L76.17869999999999,146.04808962566793L76.372833125,145.5564922581381L76.431719375,145.51499082835574L76.48252671875,137.81354154877118L76.5737884375,135.75982725487688L76.6101734375,136.81477878174385L76.9742628125,138.37001576554056L77.237695,138.95413099855853L77.31944156249999,137.93472089107132L77.44942218749999,139.9108765928668L77.625721875,140.3847180860595L77.7823928125,141.613590415716L77.84971703125,142.07611888876622L77.9090221875,142.53369660983742L77.94570640625,143.30966729034492L78.13660796875,143.892103684279L78.37185375,145.2855895724981L78.7171521875,146.16330005321825L78.79028124999999,139.87508145983395L78.89949609375,140.90446891057815L79.21636875,141.8833260607457L79.49542015624999,141.6334044410444L79.71833812499999,141.44101744500446L79.88201078125,143.07729239931828L80.0805125,141.28168057588232L80.35274171875,142.79736956800016L80.46153765625,142.6974407978343L80.74645374999999,144.25910172066847L80.87966593750001,143.47219657822268L82.09323734375,144.45267057989184L82.21741312500001,142.16511694523882L82.26600625,142.7204243106938L82.50244890625,143.36171729748563L82.62512859375,144.27775064118967L82.87659203125,144.9748801866588L83.00346078125,145.1572906682279L83.13775015625001,145.75517001248227L83.49172593750001,146.61186237958788L83.825295,146.71702084926616L84.10314953125,145.39721287119735L84.5021278125,145.5541849984789L84.59769828125,147.00489892444534L84.66963046875001,146.9360463584214L84.728456875,147.79015640273516L85.01678406250001,147.80086491112453L85.16998406249999,148.68238154548456L85.4061275,150.4300492293656L85.463816875,150.85238111463585L85.56680796875,149.2787201900831L86.092415625,150.51282510368418L86.15866265625,151.35555970447953L86.3553690625,151.37984695904407L86.825860625,152.57405511074063L87.04746203125,150.42193536077195L87.6319559375,151.61123039124976L87.77899203125001,151.35101758830092L87.84302484375,151.9145942481123L87.919804375,152.7993216120836L88.1379946875,152.9195878981944L88.22973515625,153.94962130593265L88.48209625,143.21739687611802L88.72560046875,144.4672127458204L88.75372703125,145.7389867433495L88.97903875,146.60059816842855L89.02948703125,147.03578332851913L89.06706890625,147.99148456116606L89.143010625,148.91500841779654L89.447495625,148.66450527833814L89.5067409375,149.7448926473696L89.65377703125,149.6960240264712L89.723734375,151.16109020566188L90.27064640625,152.37340220508165L90.517980625,152.38610570664935L90.56567609375,152.3183466800491L90.6713003125,152.82067916940437L90.75244843750001,153.8470443091736L91.243765625,154.53280577901452L91.2977446875,154.18662863626957L91.3197671875,153.73613493419558L91.43233328125001,154.7772866311922L92.0168271875,154.7034950390747L92.14243921875,155.3527295603873L92.40515328125001,154.2223586986912L92.44135875,155.5658803259575L92.64386999999999,155.61347969895195L92.7922825,155.72638379619696L93.1919190625,157.0804595176043L93.85636421875,157.79334385255615L94.0175234375,157.85188061556312L94.39400046875,158.53447848961616L94.46820671875,158.32668899076413L94.59567390625,158.5867806392688L94.704649375,159.09117948312047L94.93947625,158.46865089274883L95.16849828125001,159.33783184899286L95.27172875000001,160.31360044518956L95.600869375,161.01681184177676L95.68530890625,161.74664889507517L95.71553,162.5511954555017L96.217978125,160.4729083776919L96.53078140625,158.75238131755063L96.80558390624999,156.96252979995052L96.87266874999999,156.73902015362287L96.93023843750001,157.24942491071405L97.493846875,156.30857211616325L97.61203828125,154.48479986362523L97.78187484374999,156.00254784125917L98.17361203125,156.57117910692875L98.23297703125,154.1390390559196L98.64601859375,155.09889089882222L98.73865671875001,155.5250830811696L100.01967203125,156.04162229178965L100.101119375,151.94912230709855L100.16162140624999,151.48235388254238L100.41811171875,151.98822749671876L100.48489734375,152.88959668518734L100.52415484375001,154.2226734048821L101.75232812499999,155.58607690358838L101.945743125,156.34091548530697L102.06453296875,156.54503928656248L102.48786765625,157.4066468545633L102.5411884375,157.58514322011243L102.97978328125,157.0721819577475L103.11347421875,157.9081748375423L103.35536265625,150.968101423483L103.47899984375,151.9729276735612L103.56984265625,153.32875544622746L103.84506406249999,152.64564414884833L104.46354921875,153.70209965743055L104.9543278125,154.00359489613837L105.02243,155.0919850019518L105.07874296875,156.528828794887L105.2006446875,156.90741282689237L105.40118109375,157.9170199922938L105.67143546875,156.46076921489123L105.8541384375,156.9356880588171L106.1806459375,156.8014639178808L106.26568390625,156.2762073944216L106.40158906250001,156.87440983910847L106.44162453125,157.86568429194156L106.60793031249999,157.11273263453694L106.72929343749999,157.42802088580393L106.8935046875,158.15907200932702L107.38488171875,157.59330124689836L107.78595453125,158.28287783877673L108.21551296874999,159.20459119163598L108.45835890625,159.04133774926544L108.53477937500001,159.5186122096713L108.5928278125,160.3375837639262L108.68624390625,161.45635872398057L108.9593109375,162.5228603093727L109.14632265625,162.5129055007666L109.5314171875,160.39349647791056L109.6538575,161.1626976332334L109.82908,161.69722277621838L109.8955065625,161.85561142388477L110.08874203124999,162.53185662527125L110.37736843750001,162.7887013128631L110.510580625,163.81037088116074L110.70998,164.5087068254536L110.8469025,162.00014295657135L110.9322396875,162.20287927961257L111.04366875,162.49228289793612L111.08406328125,154.49004493797727L111.4373209375,155.3640446543586L112.19404515625,155.969329164878L112.88966890625,155.9728946460859L113.1177334375,156.7755903708788L113.5330490625,156.85206973016872L113.80731296875001,157.27867800886645L113.8964203125,158.50148373396772L114.05027859375001,158.86812119207084L114.12161234374999,159.26184154807098L114.28552437500001,160.5610660589712L114.352070625,160.9343985717207L114.55715515624999,160.29745689241525L115.69675968749999,160.4742720741912L115.76456265624999,161.14300481047607L115.8265009375,162.0145989812911L116.1391246875,161.79443678057302L116.28119375,162.95665681116145L116.52254359375,163.44011321533594L116.57293203125,163.45347496999554L116.66150078125,163.96651194128603L116.86389234375,164.35760152471047L116.91553750000001,164.65007005983296L117.0714903125,164.04773658113533L117.311224375,163.13433374667014L117.4461121875,163.18901590105415L118.1802753125,163.52834944611126L118.24257265625,164.09559860602195L118.74663656249999,164.71351208751636L118.82509171875,164.27867741282142L119.4796028125,164.00971513749477L119.89473890625,164.25237567612476L119.95745515624999,164.94699902509683L120.1170584375,165.144546069811L120.23536953125,165.80187767049094L120.29168250000001,166.6220869582151L120.7595409375,166.73631848670493L120.80448359375,167.7790803994414L120.8748,168.490736551174L121.1154915625,168.40497386489L121.2117203125,168.209856644518L121.362406875,168.9829070445935L121.876345,169.5672250114974L122.20781953125,169.10685838956587L122.23654453125,169.31937313669647L122.419965625,169.6250659243827L122.77603593750001,168.33647528633318L123.54197609375001,166.05759796148212L123.87943499999999,166.18130793686697L123.9374834375,166.94967208150013L124.1124665625,165.77476196515687L124.18427906250001,164.74627225890643L124.53334765625,165.20309081135358L124.9471671875,165.58829622629762L125.04184,165.86794749445366L125.62280312499999,164.55485759314465L125.88246515625,165.33054145584885L126.0068803125,166.34801769812407L126.20071421875001,166.27238934898398L126.73230625,166.52279435068928L127.1223678125,165.4091706262672L127.1721578125,164.18951879573532L127.42038968749999,164.34028647358224L127.95581171875,165.25255932972115L128.0434828125,163.50641694084203L128.44461546875,163.73367291111975L128.51582953125,163.49855758003997L128.75484546875,159.18837312352633L129.08781609375,160.41583246969992L129.23910109375,159.94583950176963L129.41001484375,160.4282976957002L129.56584796875,159.6987402764218L129.77697671875,159.61014323626407L129.99385046875,160.09462513474963L130.49958999999998,161.15017812536183L131.03249859375,161.1306411298318L131.1941365625,161.27238923350336L131.35397921875,160.00211059857253L131.52638906250002,161.07619171304103L131.589225,160.38189718640197L132.05056046875,158.3763173490213L132.13015265625,158.90300712263794L132.65522171875,159.60030829151773L132.82912765625,158.7671329939455L132.85581796875,159.95058880271114L132.9408559375,161.04546824617975L133.01332671875,161.15816779042845L133.11793359375,161.74381608585367L133.27256984375,162.15796911506038L133.69087765625,163.0730324245782L133.7164309375,163.92368699460934L134.14281765625,164.04111444115114L134.197215625,165.33368388043596L134.2693871875,165.06388559093776L134.86022453125,165.37316643418157L135.08978515625,165.4956942817131L135.24334421875,162.16876528750248L135.2977421875,161.7664403315511L135.43783640625,161.37940923843314L135.78349390625002,160.75535041711996L135.83795171875,161.77701590707156L135.93573640625,162.088043534638L135.99366515625,162.55294951902667L136.04177953125,162.45338659364694L136.304194375,160.1816297992036L137.08437734375,160.73252422222228L137.68688421875,161.95061518687248L138.0136909375,162.0487814599232L138.41853390625,162.87173007197157L138.49896390625,163.08052542994423L139.1023684375,161.6024846744467L139.46544046875,162.1027544445012L139.94550703125,161.21413087363726L140.0008625,161.35710851281524L140.22306234375,161.7762766219815L140.67739609375,162.40143333765062L140.81551546875,162.96401299984768L141.02520796875,162.8169443067635L141.54489109374998,164.22269720783453L141.61502796875,164.8709102699428L141.787318125,163.9690525691998L142.07079796875,163.91542319900063L142.26576890625,164.66888422091063L143.07138546875,164.92851841335062L143.22470515625,164.77496068998084L143.30633203125,165.08121260099955L143.72368234375,165.2978686681065L143.7689840625,165.18710976163075L143.85144875,165.61058163726054L143.96449359375,165.6909824668776L144.06269718750002,166.4343373417976L144.7152334375,166.3371490898387L145.289135,166.40620303464524L145.5192940625,166.72224854458682L145.750889375,166.75820588762653L145.79619109375,165.95454409786277L146.13125625,166.164955664032L146.47876890625,161.0770173725487L146.55058140625,159.093160678289L146.91748343749998,159.89360067393702L147.08971375,160.12237182683364L147.18576296875,160.8359803565864L147.307545,159.16336256572927L147.69868375000001,159.123164247383L147.8850371875,159.12356481159682L148.0090334375,159.83370767153562L148.20035390625,160.0393277465757L148.39191375000001,160.00024484395053L148.58359328125,161.15698263364854L148.70818796875,160.44363811038377L149.15557984375002,159.61583532472758L149.3011796875,159.77802568718133L149.96263265624998,160.20843656931345L150.02816156249997,160.59458033620618L150.11631140625,160.60625470019866L150.9806346875,161.41540858196313L151.22964453125,162.34225912646028L151.476260625,161.34876321702998L151.73113515625,161.92509780540277L151.7896025,161.97188267708498L151.95429249999998,161.30217668976255L152.11640921875,161.43120806610818L152.241781875,161.50968878115265L152.73950234375002,162.39112706805048L152.880913125,162.45823644580594L153.04865515625,163.0591666149436L153.20257328125,162.39945035997673L153.33710203125,161.1345634274294L153.47988921875,160.61854447367193L153.68263984375,161.60743667584822L153.84948421875,160.79983677547165L153.90023171875,160.60903390753555L154.77197562499998,158.14135736626284L155.1414509375,158.4557078459908L155.51936421874998,159.1831115455125L155.596861875,160.0870543934239L155.62468921875,160.42618630978808L155.76376609375,161.14158591328103L155.81822390625,162.15103888886887L155.96226781250002,161.01755459426363L156.10888500000001,160.84161970539864L156.31313171875,161.58661380645168L156.53353625,161.18808481154312L156.82557375000002,161.22421677843764L156.99439296875,161.51045738386972L157.37523859375,161.99006633971555L157.46039625,162.62968578677345L157.55405171875,161.59744666693624L157.78564703125002,160.52122062831762L157.9399840625,160.89461698346415L158.220890625,161.6814871368491L158.37223546875,162.6757451605754L158.47935578125,163.36906230481725L158.59293921875002,163.80273165716295L158.6356078125,163.94331502756947L159.201370625,163.88165644291718L159.23613984375,164.00778888686295L159.4892190625,164.7949350772427L159.686344375,164.11750663888583L159.90842453125,163.0582047196995L159.9512128125,163.3787223556914L160.08077453125,161.7532962716491L160.14001984375003,160.78923307179176L160.29178359374998,160.2033789297221L160.605065625,160.49260782509847L160.67693796875,159.8635677814056L161.07418078125,160.29231073000827L161.13486234375,160.90132813134832L161.3628071875,160.57854128432484L161.4903940625,159.68952677089806L161.617143125,160.08420354776212L161.84843921875,160.58388994739195L162.38775109375,160.89094747317444L162.52168140625,161.7775868000646L162.66063859375,162.35259711204134L162.6951684375,162.88315124119597L162.960755,162.60854576010794L163.08540953125,162.2099024561504L163.17355937500002,160.5991667267618L163.62286625000002,161.2645930535971L163.8776809375,160.99685312085296L164.05733187500002,159.272315174653L164.659599375,160.45701256496423L164.871925,159.3524319061109L165.04517265625,159.76696011478452L165.21321390625,160.2149651535553L165.3275753125,160.56631225322758L165.400704375,160.80390208076054L165.500284375,161.16201073343646L165.61787734375,160.87961000434032L165.67155718749999,160.91492350038928L165.777959375,160.28965197997607L165.88280562499997,159.25686584224593L165.95419921875,159.77109289260633L166.22223937500002,159.78438423039137L166.29243609375,158.56998844743433L166.42349390624997,159.75815379573407L166.59596359374999,160.52121455540384L166.90008953125,160.62705517765502L167.6243784375,159.77847000343664L167.8630353125,160.8265044702057L168.04621703125,161.85146024656038L168.42359171875,162.1306857182172L168.61969968749997,162.98555436079502L168.93986375,161.97273216229516L169.03363890625,159.61153132830214L169.15583984375,160.14360677212355L169.2954553125,159.85183967694732L169.4278296875,161.28843426204148L169.49772718749998,161.01603004559334L169.574446875,160.74341695039416L170.089581875,155.98210055691467L170.16624171875,149.04882945458812L170.22201609375,148.3470194259723L170.32434890625,145.7911557860639L171.03631000000001,147.21359165019445L171.0816715625,148.75856602668662L171.1226046875,149.61508682312194L171.19100609375002,150.6860926405047L171.64773359375,151.36671236575754L172.1770515625,152.9908003227348L172.43288359375,154.21538766462598L172.9059484375,152.35268436067054L172.98583984375,153.76974353225717L173.15459921875,150.78238335073087L173.85118046875,152.43569209903998L174.07427796875,151.56173829918527L174.29282734375002,152.05719169985406L174.368649375,153.05558718977116L174.39922953125003,152.9684213698421L174.53920406249998,153.15614775683792L175.01490203125002,154.08354035994975L175.1601428125,155.14367883539975L175.2702553125,154.5399162956073L175.40999046875,154.72622079068935L176.00100734375,155.70701106215736L176.47526906250002,156.396557667536L176.50465234375,156.79847560488588L176.87508515624998,157.49626634686712L177.16137765625,158.0077027529582L177.57382078125002,158.0936332417272L177.91696484375,158.84226251343514L177.9704053125,159.32283418532285L178.0434146875,159.74067906903068L178.09206765625,159.3079794154841L178.241258125,159.4120343449109L178.5587890625,160.14754141847172L179.65123671875,160.97445216945408L179.79546015625,161.25138068075853L180.03435640625,162.52351294093842L180.1070665625,162.02162294278241L180.74709546875002,162.17603321856893L180.87635796875,162.40404568597128L181.0789290625,162.39111243946437L181.15642671875,162.8517593533929L181.20430171875,163.2106992114875L181.83529421875,162.45722096537975L181.92290546875,162.39809582589155L182.05013328125,160.99579548373288L182.0887325,158.4297340693136L182.2011190625,158.5658100045394L182.39710734374998,158.48402310266187L182.4991409375,157.23179966097743L182.6765178125,152.85850082434314L182.76712125,153.92898760067666L182.897101875,153.41525998806833L183.00248671875,154.36007863190574L183.58297109375,153.95847814923275L183.87375187499998,154.90047641377254L184.10085890625,152.43115525487067L184.24161140625,153.14011609068365L184.4215615625,149.23453996384023L184.58541375,149.65331030271705L184.95195671875,150.47475167703345L184.98499046875,151.84861675758435L185.2519534375,152.0834853429229L185.4135315625,147.68825982150426L185.59683296875002,148.17556727251977L185.72286390625,148.96939180490295L185.95338203125,149.43602048943373L186.151165625,150.8721652504845L186.291918125,149.5974635703839L186.32979921875,149.30837165276384L186.39221625,149.8651204448728L186.46013890625,150.45598128615237L186.62871875000002,150.6967882074862L186.85115796875,150.5584089487843L187.24217703125,150.58538490642886L187.335114375,151.77452541599678L187.49340109375,151.84578606895965L187.9784346875,152.44381557747323L188.29590578124999,153.37124794465672L188.4715471875,153.94535007259216L188.62845750000002,154.7305752610925L188.69949203125,155.0385763025401L188.81756375,155.90775734224752L189.03210359375,156.84664718673096L189.09912859375,156.29307408348487L189.2595696875,157.60816018425967L189.66560953125,158.14992912468398L189.818869375,158.89895973127457L190.00193140625,157.73858894001464L190.02784375,158.30182956992908L190.21473578125,159.2621907733828L190.55129703125,159.78204102153748L191.3655909375,160.13593601461517L191.60759906250001,159.91137280087696L191.70628140624999,160.73476852774596L191.98539265625,161.63426827307237L192.2689921875,162.17600428715966L192.85121203125,163.0566063982956L193.0450459375,163.38154718346593L193.28525875000003,163.97428707250083L193.5002175,164.37055396691395L194.4733965625,164.58457069480508L195.1405346875,164.68157322962963L195.2058840625,165.05137376513258L195.26548843749998,165.2756945618264L195.43335015625,165.07986985080316L195.77595562500002,165.7582562361709L196.116346875,164.9778662512383L196.15506578125,165.42019715541005L196.24632749999998,164.3607782661803L196.30371765625,163.45280555421752L196.3644590625,163.38065746237177L196.43944328125,163.8768130393853L196.4942003125,164.01908334170068L196.93435109375,163.56428699109387L198.46653062500002,163.2900218940765L198.53008468750002,163.49678418623526L198.58346531249998,163.99925787419699L198.96855984375,163.3929583160148L199.67375859375002,163.38969500998147L199.7824946875,163.0652134638281L200.06184531250003,163.36599442424264L200.51300734375,160.5825624828985L200.575185,158.8420240270275L200.70438765625,159.40877200508024L200.8180309375,159.64487272509078L200.86177671874998,159.5793160160867L201.01264281250002,160.21855959774825L202.0158634375,160.4924885149425L202.39922249999998,159.31241170969622L202.53422999999998,160.50929990073988L202.68982375000002,160.8404768059017L203.19795703125,160.88302221407855L203.26486234375,161.45834094219822L203.58748,161.4919458707418L203.718418125,161.7423293184331L203.79651421875002,161.66013220708646L204.06389609374997,161.97960450963063L204.24977078125,162.4368065296761L204.324036875,163.0108061450345L204.58824703125,163.33933043586626L204.6985390625,163.8025901937404L204.84222390625,164.60492721825923L205.05861890625,165.3067221699727L205.1126578125,160.66186621196928L205.579798125,157.80079452743462L205.92874703125,157.75895460182667L206.03802171875,158.593004116434L206.09678828125,159.27581974046154L206.17661984375002,159.83074359010402L206.9122790625,160.33623835950587L207.43166296875,160.82556034666885L207.9688803125,161.30457376130735L208.88622515625,162.17449713524937L209.23846546874998,161.9691268714914L209.32775234375,161.88493901067002L209.3874165625,157.6269386105603L209.57706140625,157.6077720084014L210.17813203125002,158.82488186302893L210.48237765624998,158.8332590930543L210.78518703125,158.90486411734227L211.0649565625,158.88381173789116L211.18380625,159.7880025967451L211.320489375,158.79741866007973L211.45166687499997,159.99682571659952L211.58027109374999,160.40406701160842L211.76387171874998,160.3722208071549L211.83281171875,160.92789705600785L212.00300734375,161.74306478631337L212.09791953125,162.20326987459083L212.15872078125,162.21969703060233L212.45303234375,162.53503486540382L212.59516125000002,163.4643396434131L212.75620078125,164.16394712168076L212.81341140625,164.1927618903395L212.92627671875,161.7917774038722L213.24476515625,161.71459442509706L213.34278921874997,162.29969373837503L213.409515,162.79731956732323L213.485396875,163.1602944403321L213.86570390625002,163.6748951428804L213.98030468750002,160.03420260131256L214.16815421875,160.6401154189398L214.6900515625,161.0610712004765L214.8633590625,160.98414930036915L214.99094593750002,158.60538605412248L215.1202084375,159.24075085219414L215.22978234375,159.77948105146893L215.38585484375,158.92212518257642L215.93174953124998,159.29656552051966L216.15269265625,159.5629291330304L216.22695875,159.06149871521905L216.42258796875,159.46782194829441L216.923300625,156.95825764891L217.17494359375,156.88790716537503L217.46793859375,153.55481508752794L217.7536925,154.27162396999236L218.202520625,154.8287414183106L218.3396825,153.8554220613233L218.70879875000003,153.95786288103898L219.08623328125,154.6946326076666L219.2836578125,155.50514881816463L219.35104187500002,156.14041242130634L219.64565265625,156.25060200858888L219.71519109374998,157.17956559374556L219.7755734375,157.33019690704097L219.91877953124998,157.29415221497436L220.12093171875,158.17789334668345L220.38687734375,158.48760770721182L220.5442065625,159.34996818347145L220.63355328125,155.39181771174557L220.7615590625,156.45622310573856L221.01254375,156.85285533434967L221.638988125,157.5948333322283L221.95406546874997,157.1201239815523L222.12079015625,156.82638159958066L222.17393140625,157.55882459856804L222.528505625,157.7328092812242L222.56207796875,157.67571039136868L222.61701453125002,157.80977047519815L222.67697796875,158.29815244682575L222.906718125,158.13290090772767L223.1076734375,158.98762144903085L224.49072234375,158.8494931558587L224.66420937499998,159.03434270591666L224.81088640625,159.30613366704327L225.15522734375,159.5843200774542L225.3448721875,157.56724832581364L225.41764218749998,158.15577276778188L225.5332603125,157.98426784859183L225.57257765625,157.7867022718666L225.97412921875002,157.99979090247493L226.14474375,158.10185207048156L226.2403740625,159.02111435260377L226.76334859374998,157.0179898973986L227.12390718749998,156.1223001591074L227.2024221875,156.87575208492015L227.46483703125,157.25695078591096L227.5914065625,156.95250322361824L227.72348171874998,156.85510059143994L227.8779384375,157.53862675383004L228.16764203125,158.05735937645915L228.37829203125003,158.7972298929725L228.64746921875002,157.00484145293726L229.10138406250002,156.7944190023302L229.1490196875,156.28243379233032L229.2263378125,156.48542294228508L229.59252171875,157.03030397189158L230.081744375,155.2509286413521L230.29365109375001,154.88232144824147L230.41920328125,155.64594481347763L230.48048328125,156.23892165607748L230.5266228125,155.22794231837773L230.79310703125,153.20147742618755L231.02853234375,151.20285987822936L231.47418875000002,152.4367530560948L231.89171859375,152.8119069286676L232.1096096875,154.0823994657748L232.3647834375,154.6719154548361L232.45855859375,155.96743036172074L232.8392246875,155.99624613518876L233.06238203125,156.39751028695156L233.19152484375,153.60818096368325L233.3270709375,154.64044221720894L233.46010359375,154.713311764859L233.64837203125,155.23883051205217L233.78900484375,155.40569047396352L233.97332359375,156.1381901329501L234.21072375,157.3447845074846L234.351955,157.76010118922355L234.62807406250002,156.07335717603576L234.92118875,156.82724849136292L234.98402468749998,157.18283583894836L235.21304671874998,157.18632121402146L235.6559503125,157.89901532575558L236.16970890625,158.77872124488826L236.327038125,159.1364513524916L236.492685625,159.77510389451234L236.54151812499998,159.02792825693305L236.7082428125,159.87044623846506L237.03253609375,158.7864606479076L237.32223968749997,159.2006499571478L237.39291515624998,159.60708691609932L237.63013578125,160.22996502077956L237.7468909375,160.78140175285782L238.16154828125,161.2317495124396L238.21002171875,161.92091683325447L238.34873953125,161.6641058055544L238.57267484375,161.9162578965524L239.00259234375,161.54935455688747L239.36829749999998,161.83836255557944L239.51078546875,162.24425551091292L239.891810625,161.11387713063968L240.378699375,161.76109257477557L240.5009003125,160.73657846466125L240.56948125000002,159.31081251227081L240.61538140625,159.21814161801538L240.95535375,159.05712126512887L241.016394375,156.76078435601235L241.22901921875,156.15707496129698L241.35899984374998,156.5479320553647L241.428598125,156.51387803202937L241.55660390625,156.30788998457132L241.88670203125,157.15487823244794L242.43564874999998,155.59684069812744L242.81218562499998,154.39955366570607L242.95431453125,155.17253719021932L243.05604890625,155.54678059476169L243.31900234375001,155.8860134314678L243.36921125,154.38869807548974L243.549460625,155.2533695775184L243.67561125,155.922608665258L244.0802746875,156.84020088334051L244.11618093750002,157.01668704736437L244.32168437500002,157.00743359273613L244.5386778125,157.3361687644046L245.2833734375,157.40014304756758L245.58953406249998,157.61810309478724L245.68079578125,158.3428304904237L245.842673125,158.11157758055703L246.41693375,154.6520128987425L246.4691175,155.3616296637567L246.8256665625,151.04199858514477L246.89083640625,147.5576298129179L247.0016071875,148.5352481675043L247.84953328125,149.45269044924487L248.0026734375,149.7230535594905L248.10404875,150.0697167003026L248.19800343749998,150.19609777731185L248.399198125,150.96418194805796L248.54874765625001,151.24907659461695L249.08075859375,150.7531635892313L249.35998953125,149.09234471510246L249.46232234375,147.89613564432537L250.09451171875,149.11487332622042L250.13113609375,150.01216936055377L250.52921671874998,150.58091158336774L251.00018703125002,151.88706317772667L252.47928515625,152.44373042038626L252.55133703125,153.31355644917602L252.6795821875,153.12965867617746L252.83858703125,153.9995362704971L252.98963265625002,155.07470855713964L254.43162765625,155.97091094971725L254.60361859374999,156.96622385134987L254.83437609375,155.4171420545125L254.88560234374998,154.30800249743245L254.94173578125,155.3422592432666L255.09254203125,155.882305804386L255.3263515625,155.9078808997127L255.52180125,152.30708401724624L255.67398390625002,152.56097443956813L255.778171875,152.8095312419253L256.10414078125,153.06887169970034L256.28199640625,153.66019830372812L256.314371875,154.4156984604324L256.491988125,155.00695259664104L256.8145459375,151.641639794995L257.3607996875,152.54039191332546L257.660138125,153.7465395463579L257.7636678125,154.5376921533252L257.89179328125,152.2067471818894L257.93865093750003,153.43984107759056L258.29137,150.22181130616428L258.59058875,151.25754951762437L258.71416609375,152.54082966339928L258.88454125,153.01357092232092L259.04905171875,153.52022060583656L259.5934503125,153.4145914839615L259.73845171875,154.31834524852815L259.79889390625,155.33325180131126L260.07022546875004,153.70765219298744L260.37889953125,154.62565515985872L260.5215071875,154.95156512663866L261.053039375,156.20491271368178L261.18583265625,156.78838959310391L261.32814109375,157.9685341684828L262.06134671875,158.98779206143368L262.27522828125,159.3499944377975L262.4172375,158.86522149421052L263.01824828125,159.93439386529423L263.341943125,159.7039481678377L263.7485215625,160.41482702178365L263.929369375,160.20500253726945L264.0156640625,160.841097918164L264.404289375,158.7297846212025L264.7436034375,158.92800051404373L265.1330665625,159.01804547931707L265.19907421875,157.2035005155101L265.24958234375,158.1640808284034L265.396738125,158.50435262605313L265.5663353125,160.04594451002234L265.65867421875,160.80619857312598L266.08464203125,160.4904976488991L266.34059375,160.73268121404672L266.4148,159.56347349154018L266.768835625,159.481702005673L266.83089359375,159.8623559433118L266.88858296875,160.39661268211552L267.27481453125,160.00972281448054L267.3424978125,160.5741068323607L267.6204121875,152.5289526196751L268.31065,152.53880681135368L268.7119621875,151.38350227836833L268.9384109375,148.98665648944467L269.066835625,146.11398596017767L269.20956296875,148.08463415629416L269.265995625,149.12696285039596" style="fill: none;" fill="none"></path></g></g></g></g><g opacity="0.2"><g><g><g><path stroke="rgb(0, 119, 187)" stroke-width="2px" d="M30.3296503125,168.83420088631766L30.91222921875,-128.52084699358258L35.2097884375,-76.314620753697L35.59751609375,31.2441159929548L36.092244375,-53.699752480643134L36.31193078125,-14.45424891880581L36.34544328125,19.7765530177525L36.76937640625,-70.97207990373883L37.1015690625,-121.55878731863838L37.602700625,66.97094241550991L37.766612656250004,64.13742109026228L37.8026984375,1.9512935093470989L38.35308140625,43.998979404994415L38.47025546875,71.79846856253488L38.523815625,34.93079289027623L39.07443796875,36.253570338657916L39.3636628125,15.816226632254459L39.52745515625,25.404395403180793L40.03355375,62.39119589669364L40.06610875,44.305675179617744L40.238339062499996,50.72857687813896L40.58944234375,-78.92016514369419L40.636479531250004,73.48678076607841L40.872742656250004,79.45278331211635L40.9957215625,76.81218632289341L41.06304578125,34.85752389090403L41.32587953125,106.5420377458845L41.3902115625,26.405275399344315L41.764953125000005,74.6243408203125L42.25800578125,-197.36264713832307L42.322218125,49.34530138288225L42.404084375000004,72.42592359270368L42.63514109375,75.14499827793666L43.277743281250004,92.91564363752094L43.690964375,42.60231563023159L43.940393125,79.8589459010533L44.084496875,94.6936708177839L44.96557640625,101.31810084751675L45.3391809375,48.36550696236746L45.64779515625,116.07495574951172L45.81775140625,106.76026284354073L46.01750984375,-16.037731279645662L46.25927859375,101.76633813040598L46.36615953125,86.46311024257115L47.44418484375,83.6362927028111L47.668598906250004,75.74218499319893L47.725689843750004,81.0492295401437L48.051239843750004,90.97872227260045L48.260872500000005,122.60685424804687L48.31975875,9.320326014927458L48.45781828125,83.12907175336565L49.0157415625,65.59577898297991L49.098505468750005,53.48251124790737L49.420943593749996,76.75560444423131L49.47713687500001,105.70662067958285L49.53632234375,87.21283460344587L49.74182578125,82.29001824515207L50.26366328125,52.45118931361607L50.781072343750004,96.83657684326171L51.759816875,109.76962590898786L52.01600796875,-6.48025523594449L52.359511093749994,110.31349100385393L52.66746703125,107.34926997593472L52.75064984375,119.10064904349191L53.459080156249996,114.18823078700474L53.5114434375,71.56135711669923L54.57313140625,104.67794167654854L55.36845484375,135.73157370431082L55.417945625,-11.443815176827579L55.4917928125,135.7247638157436L55.86677375,47.65010212489536L56.437024843749995,15.543657466343474L56.53421109375,123.41787725176128L56.628225625,156.59569293430872L56.78519578125,91.22449558803014L57.09566515625,75.90858355930874L57.63138640625,128.99604410443987L57.81714140625,102.25529005868096L57.8812340625,69.69382716587613L58.39595015625,-98.25422973632814L58.44801421875,92.92266573224748L59.375293125000006,119.81690270560128L59.54842109375,120.39668851579937L59.67708515625,99.99085742405482L60.5169921875,76.08032586233955L60.84499578125,141.4420414515904L60.96378562500001,99.62796560014996L61.114352499999995,99.02444163731167L61.6784396875,138.25503289358957L62.05790890625,123.7301964896066L62.186932031249995,140.15818454197475L62.4068578125,126.80673245021275L62.8094865625,120.43369919913155L63.0191790625,159.5930567060198L63.64694,159.68613804408483L63.78482,136.16859299795968L64.00893484375,138.80979766845704L64.33382656250001,150.69416247776576L64.544835625,144.3783380780901L64.6273003125,134.70505534580775L64.95925359374999,159.17190464564732L65.0639203125,153.85674803597587L65.10491328125,128.30780165536063L65.2140084375,158.53019321986608L65.32400125,148.01333312988282L65.3933003125,114.60319028581893L65.79126125,155.78661354609898L65.86750218750001,145.23821672712054L66.3531940625,161.78569613865443L66.6883190625,140.2847269330706L66.80758765625,108.26526750837053L67.100403125,146.92878120967322L67.44827484375,172.9392759868077L67.5986621875,140.8603843688965L68.2630475,116.82986951555525L68.60948296875,145.60595070975168L68.64909953125,124.50660095214845L68.77273671875,167.44890943254742L68.81151546875,159.39883019583567L68.85705656249999,131.06598014831542L68.91588296875,114.43834468296596L69.02037015625,164.72197829655238L69.17620328125,133.2238852909633L69.4693778125,154.64113916669572L69.743103125,149.60620079040527L69.90133,170.21871103559224L70.1410640625,135.44467097691125L70.313055,146.28387222290038L70.37499328125,148.5948358808245L70.49498,136.36774847848073L70.58642125,160.21105891636438L70.743211875,159.37613860539028L70.7806740625,116.42401559012276L70.92729125,170.23653635297504L70.9843821875,128.86826705932617L71.31358265625,137.4919684818813L71.35798671875,163.02632568904332L71.750023125,157.66097749982563L71.9035821875,159.94346212659562L72.09209,165.60016937255858L72.2636021875,156.77005887712752L72.422666875,169.03202525547573L72.5507325,163.10223279680523L72.77771984374999,133.82304938180107L73.01865078125,148.20687479291644L73.23253234375001,168.52890374319895L73.30290859375,168.46844910212926L73.368676875,155.96069011688232L73.8149915625,156.79304466247558L74.21193515625,175.11922645568848L74.34957578125,143.33235462733677L74.39338140625,159.34790071759906L74.6358084375,143.30515365600587L74.882245,154.00841274261475L75.06207546875,153.43633869716098L75.12844218750001,158.0113877432687L75.19576640625,152.42047887529645L75.3477096875,144.9529923575265L75.506535,137.6554443904332L76.08091531250001,127.17443749564033L76.17869999999999,97.36589617047993L76.372833125,136.2172074999128L76.431719375,144.7265490940639L76.48252671875,-8.498933846609921L76.5737884375,96.74307109287808L76.6101734375,156.85699588230676L76.9742628125,167.9169108254569L77.237695,150.05139002118793L77.31944156249999,118.56747142246792L77.44942218749999,177.45499411991665L77.625721875,149.38705934797014L77.7823928125,164.96057036263602L77.84971703125,150.8635898045131L77.9090221875,151.22713753836496L77.94570640625,158.05224707467215L78.13660796875,154.95777969360353L78.37185375,171.760422543117L78.7171521875,162.83896211896624L78.79028124999999,20.404625374930244L78.89949609375,160.46194447108678L79.21636875,160.48081152779716L79.49542015624999,136.88508780343193L79.71833812499999,137.78580649239677L79.88201078125,174.1653694152832L80.0805125,107.16625180925641L80.35274171875,171.59450144086566L80.46153765625,140.79885422842844L80.74645374999999,173.92976752689907L80.87966593750001,128.52142573765346L82.09323734375,163.0811713354928L82.21741312500001,98.70271780831474L82.26600625,153.27100598471506L82.50244890625,155.54600069863454L82.62512859375,161.6819996697562L82.87659203125,158.2200635637556L83.00346078125,148.6230207170759L83.13775015625001,157.11466238839284L83.49172593750001,162.8887244633266L83.825295,148.714997618539L84.10314953125,120.32126851763044L84.5021278125,148.53660940442765L84.59769828125,174.56805953979492L84.66963046875001,145.62786581856864L84.728456875,164.01803259168352L85.01678406250001,148.00432401384626L85.16998406249999,165.4309976577759L85.4061275,183.6353586469378L85.463816875,158.87660048348562L85.56680796875,119.3794686453683L86.092415625,173.96059047154017L86.15866265625,167.36736921582903L86.3553690625,151.84130074637278L86.825860625,175.2638208389282L87.04746203125,109.53198394775391L87.6319559375,174.20766596112932L87.77899203125001,146.4070096697126L87.84302484375,162.62247807638985L87.919804375,169.60903309413365L88.1379946875,155.20463333129882L88.22973515625,173.5201421192714L88.48209625,-60.693739536830336L88.72560046875,168.2135895047869L88.75372703125,169.9025720868792L88.97903875,162.97113761901855L89.02948703125,155.3042641230992L89.06706890625,166.14973027365548L89.143010625,166.4618903568813L89.447495625,143.90496401105608L89.5067409375,170.27217734200613L89.65377703125,148.76752346583777L89.723734375,178.99725543430876L90.27064640625,175.40725773402625L90.517980625,152.62747151511056L90.56567609375,151.03092882973806L90.6713003125,162.36497072492327L90.75244843750001,173.34793199811665L91.243765625,167.56224199022566L91.2977446875,147.6092781339373L91.3197671875,145.17677339826312L91.43233328125001,174.55912758963447L92.0168271875,153.30145756857735L92.14243921875,167.68816223144532L92.40515328125001,132.745350755964L92.44135875,181.09274785178047L92.64386999999999,156.5178663253784L92.7922825,157.8715583528791L93.1919190625,182.80786072867258L93.85636421875,171.33812746320453L94.0175234375,158.96407764979773L94.39400046875,171.50382189069475L94.46820671875,154.3786931991577L94.59567390625,163.52851638793945L94.704649375,168.67474724905833L94.93947625,146.6406197139195L95.16849828125001,175.8522540501186L95.27172875000001,178.85318674360002L95.600869375,174.37781671796526L95.68530890625,175.61354141235353L95.71553,177.83756806509837L96.217978125,120.98548344203404L96.53078140625,126.06239040919712L96.80558390624999,122.95537392752512L96.87266874999999,152.49233959742955L96.93023843750001,166.94710938589913L97.493846875,138.43237936837332L97.61203828125,119.83314612252373L97.78187484374999,184.8397443498884L98.17361203125,167.37516779218402L98.23297703125,107.92839987618582L98.64601859375,173.33606774466378L98.73865671875001,163.62273109980993L100.01967203125,165.85586332593644L100.101119375,74.19165246146066L100.16162140624999,142.61375705174038L100.41811171875,161.59982283455986L100.48489734375,170.01560562678748L100.52415484375001,179.55112315586635L101.75232812499999,181.49073568071637L101.945743125,170.68284448896136L102.06453296875,160.42339047023228L102.48786765625,173.7771864754813L102.5411884375,160.97657334463938L102.97978328125,147.3259202139718L103.11347421875,173.7920360837664L103.35536265625,19.106733921595985L103.47899984375,171.06462266104563L103.56984265625,179.08947830200194L103.84506406249999,139.66653180803573L104.46354921875,173.77475092751638L104.9543278125,159.7320035117013L105.02243,175.77139385768345L105.07874296875,183.82885690416606L105.2006446875,164.10050844464982L105.40118109375,177.09955362592422L105.67143546875,128.79200788225447L105.8541384375,165.95914502825056L106.1806459375,154.25120552607945L106.26568390625,146.29633451189315L106.40158906250001,168.24025513785227L106.44162453125,176.69989708491732L106.60793031249999,142.80665245056153L106.72929343749999,163.41849714006696L106.8935046875,172.04904221126012L107.38488171875,146.84365760258265L107.78595453125,171.3848321097238L108.21551296874999,176.71714365822928L108.45835890625,155.93952255249025L108.53477937500001,168.58682637895856L108.5928278125,175.89804235185895L108.68624390625,182.713081741333L108.9593109375,182.78638932364325L109.14632265625,162.32376414707727L109.5314171875,120.12472703116282L109.6538575,175.77751889910016L109.82908,171.85320004054478L109.8955065625,164.864995602199L110.08874203124999,175.38051493508476L110.37736843750001,167.66875019073487L110.510580625,183.22209197453088L110.70998,177.7770893096924L110.8469025,114.33743100847515L110.9322396875,166.05486929757254L111.04366875,167.99095148359027L111.08406328125,2.447527967180526L111.4373209375,171.97003882271903L112.19404515625,167.46973457336426L112.88966890625,156.0406387874058L113.1177334375,172.02680879320417L113.5330490625,158.30517752511162L113.80731296875001,165.38423513684953L113.8964203125,181.73479205540247L114.05027859375001,165.83423276628767L114.12161234374999,166.74252817971364L114.28552437500001,185.24633135114397L114.352070625,168.0277162006923L114.55715515624999,148.19556516919818L115.69675968749999,163.83376047951833L115.76456265624999,173.84892662593296L115.8265009375,178.57488801138743L116.1391246875,157.6113550186157L116.28119375,185.03883713313513L116.52254359375,172.6257847922189L116.57293203125,163.70734830583845L116.66150078125,173.71421429770334L116.86389234375,171.78830353873116L116.91553750000001,170.20697217668805L117.0714903125,152.6034005846296L117.311224375,145.7796800340925L117.4461121875,164.22797682625907L118.1802753125,169.97568675449918L118.24257265625,174.87333256857735L118.74663656249999,176.45386815752303L118.82509171875,156.01681864602224L119.4796028125,158.89943193708146L119.89473890625,168.86292588370188L119.95745515624999,178.14484258379258L120.1170584375,168.89793989998952L120.23536953125,178.29117802211218L120.29168250000001,182.20606335231236L120.7595409375,168.90671751839773L120.80448359375,187.59155665806364L120.8748,182.01220338003975L121.1154915625,166.7754828316825L121.2117203125,164.50262947082518L121.362406875,183.67086459568569L121.876345,180.66926634652273L122.20781953125,160.35989259992326L122.23654453125,173.3571533203125L122.419965625,175.43322887420655L122.77603593750001,143.8532532283238L123.54197609375001,122.75892889840263L123.87943499999999,168.5317974635533L123.9374834375,181.5485907963344L124.1124665625,143.45146980285645L124.18427906250001,145.20496788024903L124.53334765625,173.88264329092843L124.9471671875,172.90719909667968L125.04184,171.1813215800694L125.62280312499999,139.6061495099749L125.88246515625,180.06853482382635L126.0068803125,185.68006627219063L126.20071421875001,164.83545071738106L126.73230625,171.28048937661308L127.1223678125,144.25031988961356L127.1721578125,141.01613404410227L127.42038968749999,167.20487234933034L127.95581171875,182.5857435771397L128.0434828125,130.32971158708844L128.44461546875,168.0515363420759L128.51582953125,159.03136629377093L128.75484546875,77.29486852373397L129.08781609375,183.73756002698624L129.23910109375,151.01597311837332L129.41001484375,169.5950033732823L129.56584796875,145.83714932032996L129.77697671875,157.92679947444373L129.99385046875,169.299781199864L130.49958999999998,181.20568493434362L131.03249859375,160.75943821498328L131.1941365625,163.96560320172992L131.35397921875,135.86681654793875L131.52638906250002,181.48373287745886L131.589225,147.19030118669784L132.05056046875,120.27030045645577L132.13015265625,168.91011281694685L132.65522171875,172.84903049468994L132.82912765625,142.9368023463658L132.85581796875,182.4362491607666L132.9408559375,181.84817766462052L133.01332671875,163.2994591304234L133.11793359375,172.87113369532995L133.27256984375,170.02687666756765L133.69087765625,180.4592353003366L133.7164309375,180.0861238207136L134.14281765625,166.272235924857L134.197215625,189.89250322069438L134.2693871875,159.93771809169226L134.86022453125,171.2495024544852L135.08978515625,167.82372338431222L135.24334421875,98.9571144104004L135.2977421875,154.12226616995676L135.43783640625,154.02581847054617L135.78349390625002,148.89823281424387L135.83795171875,181.1886602129255L135.93573640625,167.99756845746722L135.99366515625,171.38616322108678L136.04177953125,160.56169101170133L136.304194375,117.0182507106236L137.08437734375,171.19951825823102L137.68688421875,185.09434351239886L138.0136909375,163.9139406476702L138.41853390625,178.50775369916644L138.49896390625,167.04763723100936L139.1023684375,133.5197103227888L139.46544046875,171.60788007463728L139.94550703125,144.33028302873885L140.0008625,164.073683656965L140.22306234375,169.74047069549562L140.67739609375,174.27941093444824L140.81551546875,173.65302658081055L141.02520796875,160.02263913835796L141.54489109374998,190.9320023264204L141.61502796875,177.18695844922746L141.787318125,146.83375625610353L142.07079796875,162.89646516527446L142.26576890625,178.98464363643103L143.07138546875,169.861568069458L143.22470515625,161.85736394609725L143.30633203125,170.8999989100865L143.72368234375,169.41433394295828L143.7689840625,163.08269053867883L143.85144875,173.65654727390836L143.96449359375,167.21859822954448L144.06269718750002,180.558079964774L144.7152334375,164.49057230268207L145.289135,167.71822798592703L145.5192940625,172.7271132332938L145.750889375,167.44139540536062L145.79619109375,150.68497009277343L146.13125625,170.16277542114258L146.47876890625,64.40618983677456L146.55058140625,121.39988348824636L146.91748343749998,175.1019605909075L147.08971375,164.46902373177664L147.18576296875,174.39454242161344L147.307545,127.38362454005649L147.69868375000001,158.35939619881765L147.8850371875,159.1311755316598L148.0090334375,173.32642201014926L148.20035390625,163.9461091722761L148.39191375000001,159.2576696940831L148.58359328125,183.1350006375994L148.70818796875,146.8900921685355L149.15557984375002,143.88758239746093L149.3011796875,162.85964257376534L149.96263265624998,168.38624332972935L150.02816156249997,167.93131190708704L150.11631140625,160.828067616054L150.9806346875,176.78933233533587L151.22964453125,179.95241947174074L151.476260625,142.47234093802317L151.73113515625,172.87545498439243L151.7896025,162.86079523903982L151.95429249999998,148.57776293073383L152.11640921875,163.88280421665735L152.241781875,163.00082236698694L152.73950234375002,179.13845451899937L152.880913125,163.7333146231515L153.04865515625,174.47683982849122L153.20257328125,149.8648415156773L153.33710203125,137.10171170915876L153.47988921875,150.8141843523298L153.68263984375,180.39638851710728L153.84948421875,145.45543866838727L153.90023171875,156.9837794167655L154.77197562499998,111.25550308227538L155.1414509375,164.42836696079797L155.51936421874998,173.00378183637346L155.596861875,177.26196850367953L155.62468921875,166.8696927206857L155.76376609375,174.7341783796038L155.81822390625,181.33064542497908L155.96226781250002,139.48135299682616L156.10888500000001,157.498856816973L156.31313171875,175.741501726423L156.53353625,153.61603390829904L156.82557375000002,161.9107241494315L156.99439296875,166.94902888706753L157.37523859375,171.1026365007673L157.46039625,174.78245528084892L157.55405171875,141.98490339006696L157.78564703125002,140.072925894601L157.9399840625,167.98914773123605L158.220890625,176.63202005113874L158.37223546875,181.56664761134556L158.47935578125,176.54208804539272L158.59293921875002,172.04244935171945L158.6356078125,166.61439906529017L159.201370625,162.710143334525L159.23613984375,166.40430532182964L159.4892190625,179.75071269444055L159.686344375,151.24636631011964L159.90842453125,142.93146825517928L159.9512128125,169.4685574395316L160.08077453125,130.87020067487444L160.14001984375003,142.4720322745187L160.29178359374998,149.07215023040771L160.605065625,165.9879568372454L160.67693796875,147.91180695125036L161.07418078125,168.43842675345286L161.13486234375,172.47265875680105L161.3628071875,154.44559119088308L161.4903940625,142.7982510157994L161.617143125,167.58306230817524L161.84843921875,170.07793154035298L162.38775109375,166.72504046303885L162.52168140625,178.6237340109689L162.66063859375,173.27779303959437L162.6951684375,172.9636796951294L162.960755,157.39104161943706L163.08540953125,154.63567968096052L163.17355937500002,129.9951878683908L163.62286625000002,173.90769326346262L163.8776809375,155.9097943987165L164.05733187500002,126.50609419686452L164.659599375,182.96626298086983L164.871925,138.36539938790457L165.04517265625,167.64299607958114L165.21321390625,168.72706089019775L165.3275753125,167.2419071469988L165.400704375,165.31810880388534L165.500284375,167.96607513427733L165.61787734375,155.5139961515154L165.67155718749999,161.58587992531912L165.777959375,148.4094930921282L165.88280562499997,139.63392922537668L165.95419921875,169.54140684945241L166.22223937500002,160.0369196483067L166.29243609375,135.49646857125418L166.42349390624997,182.333295413426L166.59596359374999,175.019368989127L166.90008953125,162.63802700042726L167.6243784375,143.65535169328962L167.8630353125,180.73915933881486L168.04621703125,181.325619997297L168.42359171875,167.43596967969623L168.61969968749997,179.2280585697719L168.93986375,142.72911039079938L169.03363890625,114.74871548243931L169.15583984375,170.25304020472936L169.2954553125,154.30826486860002L169.4278296875,188.58373137882776L169.49772718749998,155.84034993307932L169.574446875,155.56376814161027L170.089581875,65.51708908081055L170.16624171875,17.31667851039341L170.22201609375,135.0126288822719L170.32434890625,97.22974662780761L171.03631000000001,174.2398730686733L171.0816715625,178.1130791800363L171.1226046875,165.88898195539204L171.19100609375002,171.03520317077636L171.64773359375,164.29848714556013L172.1770515625,183.84847150530135L172.43288359375,177.48254716055735L172.9059484375,116.96132158551897L172.98583984375,180.69386779240202L173.15459921875,94.0225399017334L173.85118046875,183.84855831691195L174.07427796875,134.95661610194617L174.29282734375002,161.47080631256102L174.368649375,172.0251014981951L174.39922953125003,151.31227079119L174.53920406249998,156.72294910975864L175.01490203125002,171.70399981907434L175.1601428125,175.2863098689488L175.2702553125,143.06842803955078L175.40999046875,158.2660061972482L176.00100734375,174.34202622004918L176.47526906250002,169.49794316973006L176.50465234375,164.43491641453335L176.87508515624998,170.7542904445103L177.16137765625,167.72499446868898L177.57382078125002,159.72631252833776L177.91696484375,173.06621867588586L177.9704053125,168.45369595118933L178.0434146875,167.67973185947963L178.09206765625,151.0866859980992L178.241258125,161.38907800401958L178.5587890625,174.12217581612722L179.65123671875,176.68575643811906L179.79546015625,166.5130223955427L180.03435640625,186.6940258843558L180.1070665625,152.48571297781808L180.74709546875002,165.10982845851353L180.87635796875,166.7362825666155L181.0789290625,162.14538075583323L181.15642671875,171.604050718035L181.20430171875,170.03055651528496L181.83529421875,148.1411342893328L181.92290546875,161.2747181756156L182.05013328125,134.35208898271833L182.0887325,109.67456719534736L182.2011190625,161.15125277382987L182.39710734374998,156.93007196698872L182.4991409375,133.4395542689732L182.6765178125,69.76582292829241L182.76712125,174.26823635101317L182.897101875,143.65443534851073L183.00248671875,172.31163286481583L183.58297109375,146.32806897844588L183.87375187499998,172.7984434400286L184.10085890625,105.5140532357352L184.24161140625,166.61037197113038L184.4215615625,75.02859355381558L184.58541375,157.6099467413766L184.95195671875,166.08213778904508L184.98499046875,177.95205328805105L185.2519534375,156.54598846435547L185.4135315625,64.17897491455078L185.59683296875002,157.43440884181433L185.72286390625,164.05205792018347L185.95338203125,158.3019654955183L186.151165625,178.15891571044924L186.291918125,125.37813164847239L186.32979921875,143.8156252179827L186.39221625,160.4433474949428L186.46013890625,161.68233727046422L186.62871875000002,155.27211971282958L186.85115796875,147.92920303344727L187.24217703125,151.09792810167585L187.335114375,174.36819509778704L187.49340109375,153.1997384752546L187.9784346875,163.80637623923167L188.29590578124999,170.9924629211426L188.4715471875,164.85329050336566L188.62845750000002,169.64985384259907L188.69949203125,160.8905960900443L188.81756375,172.4221970966884L189.03210359375,174.68555423191617L189.09912859375,145.77518512180873L189.2595696875,182.5947960989816L189.66560953125,168.44353899274554L189.818869375,173.1305412564959L190.00193140625,135.69154390607562L190.02784375,169.00340153830393L190.21473578125,177.5090536390032L190.55129703125,169.65919573647636L191.3655909375,166.85994088309153L191.60759906250001,155.6446717398507L191.70628140624999,176.37928733825683L191.98539265625,178.72476343427383L192.2689921875,172.4689885548183L192.85121203125,179.78804650987897L193.0450459375,169.555422101702L193.28525875000003,175.23634496416364L193.5002175,171.89962496076313L194.4733965625,168.65088852473667L195.1405346875,166.5246213912964L195.2058840625,172.07758393968854L195.26548843749998,169.5377896990095L195.43335015625,161.3592003413609L195.77595562500002,178.6475975581578L196.116346875,150.15045653751918L196.15506578125,173.8244843346732L196.24632749999998,144.23181937081472L196.30371765625,146.20132402692522L196.3644590625,162.0098437173026L196.43944328125,173.30376900264196L196.4942003125,166.72221908569335L196.93435109375,154.92315632956368L198.46653062500002,158.07898505074638L198.53008468750002,167.42526773725237L198.58346531249998,173.54625794546945L198.96855984375,151.87326671055385L199.67375859375002,163.32769219534737L199.7824946875,156.90006408691406L200.06184531250003,169.08083267211913L200.51300734375,107.6973555973598L200.575185,125.77179336547852L200.70438765625,170.17698358808244L200.8180309375,164.13078640529088L200.86177671874998,158.33373854500906L201.01264281250002,172.36418764931815L202.0158634375,165.69713794163295L202.39922249999998,136.89095241001672L202.53422999999998,183.2501755305699L202.68982375000002,167.132838003976L203.19795703125,161.69138496943884L203.26486234375,172.3893967764718L203.58748,162.13043951307023L203.718418125,166.49961482456752L203.79651421875002,160.09838709150043L204.06389609374997,168.04957825796944L204.24977078125,171.1236449105399L204.324036875,173.91679883684432L204.58824703125,169.58129196166993L204.6985390625,172.6045255933489L204.84222390625,179.84933068411692L205.05861890625,178.64082625252863L205.1126578125,72.40960300990514L205.579798125,103.4404325212751L205.92874703125,156.96399601527622L206.03802171875,174.4399448939732L206.09678828125,172.24931659698487L206.17661984375002,170.37429673331124L206.9122790625,169.9406389781407L207.43166296875,170.12267810276575L207.9688803125,170.40582863943916L208.88622515625,178.70304124014717L209.23846546874998,158.06709186009L209.32775234375,160.2853696550642L209.3874165625,76.72493100847517L209.57706140625,157.2436065673828L210.17813203125002,181.94996910095213L210.48237765624998,158.99242646353585L210.78518703125,160.26535957881384L211.0649565625,158.48381652832032L211.18380625,176.9676289149693L211.320489375,139.9763238634382L211.45166687499997,182.78555979047502L211.58027109374999,168.1416516167777L211.76387171874998,159.76714292253766L211.83281171875,171.48574578421457L212.00300734375,177.2312516621181L212.09791953125,170.94716655186244L212.15872078125,162.53181299482074L212.45303234375,168.52645372663224L212.59516125000002,181.12113042558946L212.75620078125,177.45648920876638L212.81341140625,164.7402424948556L212.92627671875,116.1730721609933L213.24476515625,160.24811782836915L213.34278921874997,173.4165806906564L213.409515,172.25221031733923L213.485396875,170.0568170275007L213.86570390625002,173.45230849129814L213.98030468750002,90.86104431152343L214.16815421875,172.15245895385743L214.6900515625,169.0592310496739L214.8633590625,159.52263319832937L214.99094593750002,113.40888437543597L215.1202084375,171.31268201555523L215.22978234375,170.0153548376901L215.38585484375,142.63236367361887L215.93174953124998,166.41093194144113L216.15269265625,164.6238377707345L216.22695875,149.53432077680316L216.42258796875,167.18796337672643L216.923300625,109.27653596060615L217.17494359375,155.55124797821045L217.46793859375,90.2260656084333L217.7536925,167.8909927368164L218.202520625,165.41397293635777L218.3396825,135.36235427856445L218.70879875000003,155.90423845563615L219.08623328125,168.69325741359165L219.2836578125,170.90495681762695L219.35104187500002,168.21042088099887L219.64565265625,158.3442041669573L219.71519109374998,174.82987371172223L219.7755734375,160.19219185965403L219.91877953124998,156.6093030657087L220.12093171875,174.96897484915596L220.38687734375,164.37218055725097L220.5442065625,175.73481723240445L220.63355328125,80.18695874895369L220.7615590625,176.67992559160504L221.01254375,164.38886767796106L221.638988125,171.69241529192243L221.95406546874997,148.10064631870813L222.12079015625,151.2452763421195L222.17393140625,171.47524157932827L222.528505625,161.03851825169153L222.56207796875,156.59083148411344L222.61701453125002,160.3569120679583L222.67697796875,167.5774099077497L222.906718125,154.99312166486467L223.1076734375,175.2273117337908L224.49072234375,156.22505558558873L224.66420937499998,162.5464841570173L224.81088640625,164.47016192844936L225.15522734375,164.86986187526156L225.3448721875,119.24288504464286L225.41764218749998,169.33773716517857L225.5332603125,154.72567438398087L225.57257765625,154.0329563140869L225.97412921875002,162.0484748840332L226.14474375,160.04101426260812L226.2403740625,176.4870977129255L226.76334859374998,118.95862524850028L227.12390718749998,139.10419513157436L227.2024221875,171.19133867536274L227.46483703125,164.49972610473634L227.5914065625,151.16799954005648L227.72348171874998,155.00445058005198L227.8779384375,170.52562383924212L228.16764203125,167.91327920641217L228.37829203125003,172.85476970672607L228.64746921875002,122.94946109226773L229.10138406250002,152.7963924407959L229.1490196875,146.55471480233328L229.2263378125,160.34221679142541L229.59252171875,167.38304353441512L230.081744375,121.44279736110143L230.29365109375001,147.87878477913992L230.41920328125,170.15478875296458L230.48048328125,167.50548166547503L230.5266228125,136.01933490208216L230.79310703125,114.6986444745745L231.02853234375,113.22912646702359L231.47418875000002,175.88072343553816L231.89171859375,159.93983050755094L232.1096096875,178.22175767081126L232.3647834375,165.87271924700056L232.45855859375,180.5822135925293L232.8392246875,156.54374583108086L233.06238203125,164.02152917044504L233.19152484375,100.6109238215855L233.3270709375,174.25340603419713L233.46010359375,156.0978331702096L233.64837203125,165.2236867087228L233.78900484375,158.57602975027902L233.97332359375,170.05568365369524L234.21072375,180.2700776236398L234.351955,165.6511181422642L234.62807406250002,124.02522092546734L234.92118875,171.15118348257883L234.98402468749998,163.93899544307163L235.21304671874998,157.2525433404105L235.6559503125,171.44020344870432L236.16970890625,175.4931337084089L236.327038125,165.93332339695522L236.492685625,171.90950219290596L236.54151812499998,144.8315911429269L236.7082428125,175.87828788757324L237.03253609375,138.19073442731585L237.32223968749997,167.07024683271138L237.39291515624998,167.32938913617815L237.63013578125,172.0646490097046L237.7468909375,171.2586996623448L238.16154828125,169.78835694449288L238.21002171875,175.0150959287371L238.34873953125,156.7846962792533L238.57267484375,166.70714762551444L239.00259234375,154.57819110325403L239.36829749999998,167.32951453072684L239.51078546875,169.95622166224888L239.891810625,139.63668790544781L240.378699375,174.05818601335798L240.5009003125,141.27081037248885L240.56948125000002,132.22125941685266L240.61538140625,157.4573946271624L240.95535375,155.9977345602853L241.016394375,113.13038308279855L241.22901921875,144.6865964617048L241.35899984374998,163.97421684265137L241.428598125,155.86685158865794L241.55660390625,152.39411708286832L241.88670203125,173.2476549421038L242.43564874999998,125.99412754603794L242.81218562499998,131.65110004970003L242.95431453125,169.859224155971L243.05604890625,162.6574052810669L243.31900234375001,162.33143732888357L243.36921125,125.93970631190707L243.549460625,171.6821281160627L243.67561125,168.63815133231026L244.0802746875,174.27445302690776L244.11618093750002,160.36992416381835L244.32168437500002,156.8316179547991L244.5386778125,163.5821370261056L245.2833734375,158.61565442766462L245.58953406249998,161.7593439919608L245.68079578125,172.11265100751606L245.842673125,153.71777229309083L246.41693375,88.92028394426617L246.4691175,168.84434819902694L246.8256665625,68.96900809151786L246.89083640625,81.35462314060756L247.0016071875,167.10999690464564L247.84953328125,166.88409380231585L248.0026734375,154.85995265415738L248.10404875,156.65631637573242L248.19800343749998,152.59733824048723L248.399198125,165.5577811922346L248.54874765625001,156.6620748792376L249.08075859375,141.3308164869036L249.35998953125,117.53678610665459L249.46232234375,125.16816329956055L250.09451171875,172.27088928222656L250.13113609375,167.06079401288716L250.52921671874998,161.3870138168335L251.00018703125002,176.7039434705462L252.47928515625,163.02040803091867L252.55133703125,169.84025099618094L252.6795821875,149.6356009892055L252.83858703125,170.52721056256976L252.98963265625002,175.5029820033482L254.43162765625,172.9987564086914L254.60361859374999,175.87716898236957L254.83437609375,125.9845879146031L254.88560234374998,133.23435091291154L254.94173578125,174.9931374141148L255.09254203125,166.14319046565464L255.3263515625,156.39380771092004L255.52180125,83.89194325038365L255.67398390625002,157.38489246368408L255.778171875,157.53211048671176L256.10414078125,157.99634039742605L256.28199640625,164.895403780256L256.314371875,168.77020143781388L256.491988125,166.2407811846052L256.8145459375,87.70069656372071L257.3607996875,169.61668216160365L257.660138125,176.6633445739746L257.7636678125,169.5695916857038L257.89179328125,107.91879272460938L257.93865093750003,176.8686250959124L258.29137,89.07924564906529L258.59058875,170.9365755353655L258.71416609375,176.9231524331229L258.88454125,161.99565484183177L259.04905171875,163.14656459263392L259.5934503125,151.40763816833496L259.73845171875,171.48966677529472L259.79889390625,174.6164763041905L260.07022546875004,122.82125963483537L260.37889953125,172.06771153041296L260.5215071875,161.14385449545725L261.053039375,180.0185168675014L261.18583265625,167.87445030212402L261.32814109375,180.39128110068182L262.06134671875,178.35369202750067L262.27522828125,166.23183958871024L262.4172375,149.65453556605746L263.01824828125,180.24866891588485L263.341943125,155.32547991616386L263.7485215625,173.92152524675643L263.929369375,156.21833733149936L264.0156640625,172.92691015516007L264.404289375,118.61483197893413L264.7436034375,162.69410247802733L265.1330665625,160.7288998195103L265.19907421875,122.7271462031773L265.24958234375,176.41510677337646L265.396738125,164.96951678139823L265.5663353125,189.33619030543736L265.65867421875,175.25102577209472L266.08464203125,154.49218008858816L266.34059375,165.33416895185198L266.4148,137.34852676391603L266.768835625,157.92804377419608L266.83089359375,167.09478075844902L266.88858296875,170.5474907193865L267.27481453125,152.65881532941546L267.3424978125,171.29740317208427L267.6204121875,-0.32897742135183927L268.31065,152.72603645324708L268.7119621875,129.43271615164622L268.9384109375,103.44658649989536L269.066835625,91.53324590410506L269.20956296875,185.52694988250732L269.265995625,168.93120803833008" style="fill: none;" fill="none"></path></g></g></g></g></g></g><g transform="translate(30, 177)" clip-path="url(#clip_1)"><clipPath id="clip_1"><rect width="299" height="23"></rect></clipPath><g><g><line x1="0" y1="0" x2="0" y2="5" style="visibility: inherit;" fill="rgb(0, 0, 0)" stroke="rgb(204, 204, 204)" stroke-width="1px"></line><line x1="29.921875" y1="0" x2="29.921875" y2="5" style="visibility: inherit;" fill="rgb(0, 0, 0)" stroke="rgb(204, 204, 204)" stroke-width="1px"></line><line x1="59.84375" y1="0" x2="59.84375" y2="5" style="visibility: inherit;" fill="rgb(0, 0, 0)" stroke="rgb(204, 204, 204)" stroke-width="1px"></line><line x1="89.765625" y1="0" x2="89.765625" y2="5" style="visibility: inherit;" fill="rgb(0, 0, 0)" stroke="rgb(204, 204, 204)" stroke-width="1px"></line><line x1="119.6875" y1="0" x2="119.6875" y2="5" style="visibility: inherit;" fill="rgb(0, 0, 0)" stroke="rgb(204, 204, 204)" stroke-width="1px"></line><line x1="149.609375" y1="0" x2="149.609375" y2="5" style="visibility: inherit;" fill="rgb(0, 0, 0)" stroke="rgb(204, 204, 204)" stroke-width="1px"></line><line x1="179.53125" y1="0" x2="179.53125" y2="5" style="visibility: inherit;" fill="rgb(0, 0, 0)" stroke="rgb(204, 204, 204)" stroke-width="1px"></line><line x1="209.453125" y1="0" x2="209.453125" y2="5" style="visibility: inherit;" fill="rgb(0, 0, 0)" stroke="rgb(204, 204, 204)" stroke-width="1px"></line><line x1="239.375" y1="0" x2="239.375" y2="5" style="visibility: inherit;" fill="rgb(0, 0, 0)" stroke="rgb(204, 204, 204)" stroke-width="1px"></line><line x1="269.296875" y1="0" x2="269.296875" y2="5" style="visibility: inherit;" fill="rgb(0, 0, 0)" stroke="rgb(204, 204, 204)" stroke-width="1px"></line><line x1="299.21875" y1="0" x2="299.21875" y2="5" style="visibility: inherit;" fill="rgb(0, 0, 0)" stroke="rgb(204, 204, 204)" stroke-width="1px"></line></g><g transform="translate(0, 8)"><text x="0" y="0" dx="0em" dy="0.95em" style="text-anchor: middle; visibility: hidden; font-family: Roboto, sans-serif; font-size: 12px; font-weight: 200;" fill="rgb(33, 33, 33)" stroke="none" stroke-width="1px">-500k</text><text x="29.921875" y="0" dx="0em" dy="0.95em" style="text-anchor: middle; visibility: inherit; font-family: Roboto, sans-serif; font-size: 12px; font-weight: 200;" fill="rgb(33, 33, 33)" stroke="none" stroke-width="1px">0</text><text x="59.84375" y="0" dx="0em" dy="0.95em" style="text-anchor: middle; visibility: inherit; font-family: Roboto, sans-serif; font-size: 12px; font-weight: 200;" fill="rgb(33, 33, 33)" stroke="none" stroke-width="1px">500k</text><text x="89.765625" y="0" dx="0em" dy="0.95em" style="text-anchor: middle; visibility: inherit; font-family: Roboto, sans-serif; font-size: 12px; font-weight: 200;" fill="rgb(33, 33, 33)" stroke="none" stroke-width="1px">1M</text><text x="119.6875" y="0" dx="0em" dy="0.95em" style="text-anchor: middle; visibility: inherit; font-family: Roboto, sans-serif; font-size: 12px; font-weight: 200;" fill="rgb(33, 33, 33)" stroke="none" stroke-width="1px">1.5M</text><text x="149.609375" y="0" dx="0em" dy="0.95em" style="text-anchor: middle; visibility: inherit; font-family: Roboto, sans-serif; font-size: 12px; font-weight: 200;" fill="rgb(33, 33, 33)" stroke="none" stroke-width="1px">2M</text><text x="179.53125" y="0" dx="0em" dy="0.95em" style="text-anchor: middle; visibility: inherit; font-family: Roboto, sans-serif; font-size: 12px; font-weight: 200;" fill="rgb(33, 33, 33)" stroke="none" stroke-width="1px">2.5M</text><text x="209.453125" y="0" dx="0em" dy="0.95em" style="text-anchor: middle; visibility: inherit; font-family: Roboto, sans-serif; font-size: 12px; font-weight: 200;" fill="rgb(33, 33, 33)" stroke="none" stroke-width="1px">3M</text><text x="239.375" y="0" dx="0em" dy="0.95em" style="text-anchor: middle; visibility: inherit; font-family: Roboto, sans-serif; font-size: 12px; font-weight: 200;" fill="rgb(33, 33, 33)" stroke="none" stroke-width="1px">3.5M</text><text x="269.296875" y="0" dx="0em" dy="0.95em" style="text-anchor: middle; visibility: inherit; font-family: Roboto, sans-serif; font-size: 12px; font-weight: 200;" fill="rgb(33, 33, 33)" stroke="none" stroke-width="1px">4M</text><text x="299.21875" y="0" dx="0em" dy="0.95em" style="text-anchor: middle; visibility: hidden; font-family: Roboto, sans-serif; font-size: 12px; font-weight: 200;" fill="rgb(33, 33, 33)" stroke="none" stroke-width="1px">4.5M</text></g><line x1="0" y1="0" x2="299.21875" y2="0" fill="rgb(0, 0, 0)" stroke="rgb(204, 204, 204)" stroke-width="1px"></line></g></g></g></g></svg>