<svg viewBox="0 0 330 200" xmlns="http://www.w3.org/2000/svg"><g><g><g><g><g><line x1="51.5625" y1="177" x2="46.5625" y2="177" style="visibility: inherit;" fill="rgb(0, 0, 0)" stroke="rgb(204, 204, 204)" stroke-width="1px"></line><line x1="51.5625" y1="164.35714285714283" x2="46.5625" y2="164.35714285714283" style="visibility: inherit;" fill="rgb(0, 0, 0)" stroke="rgb(204, 204, 204)" stroke-width="1px"></line><line x1="51.5625" y1="151.7142857142857" x2="46.5625" y2="151.7142857142857" style="visibility: inherit;" fill="rgb(0, 0, 0)" stroke="rgb(204, 204, 204)" stroke-width="1px"></line><line x1="51.5625" y1="139.07142857142856" x2="46.5625" y2="139.07142857142856" style="visibility: inherit;" fill="rgb(0, 0, 0)" stroke="rgb(204, 204, 204)" stroke-width="1px"></line><line x1="51.5625" y1="126.42857142857139" x2="46.5625" y2="126.42857142857139" style="visibility: inherit;" fill="rgb(0, 0, 0)" stroke="rgb(204, 204, 204)" stroke-width="1px"></line><line x1="51.5625" y1="113.78571428571423" x2="46.5625" y2="113.78571428571423" style="visibility: inherit;" fill="rgb(0, 0, 0)" stroke="rgb(204, 204, 204)" stroke-width="1px"></line><line x1="51.5625" y1="101.14285714285715" x2="46.5625" y2="101.14285714285715" style="visibility: inherit;" fill="rgb(0, 0, 0)" stroke="rgb(204, 204, 204)" stroke-width="1px"></line><line x1="51.5625" y1="88.5" x2="46.5625" y2="88.5" style="visibility: inherit;" fill="rgb(0, 0, 0)" stroke="rgb(204, 204, 204)" stroke-width="1px"></line><line x1="51.5625" y1="75.85714285714285" x2="46.5625" y2="75.85714285714285" style="visibility: inherit;" fill="rgb(0, 0, 0)" stroke="rgb(204, 204, 204)" stroke-width="1px"></line><line x1="51.5625" y1="63.21428571428569" x2="46.5625" y2="63.21428571428569" style="visibility: inherit;" fill="rgb(0, 0, 0)" stroke="rgb(204, 204, 204)" stroke-width="1px"></line><line x1="51.5625" y1="50.57142857142855" x2="46.5625" y2="50.57142857142855" style="visibility: inherit;" fill="rgb(0, 0, 0)" stroke="rgb(204, 204, 204)" stroke-width="1px"></line><line x1="51.5625" y1="37.928571428571395" x2="46.5625" y2="37.928571428571395" style="visibility: inherit;" fill="rgb(0, 0, 0)" stroke="rgb(204, 204, 204)" stroke-width="1px"></line><line x1="51.5625" y1="25.285714285714313" x2="46.5625" y2="25.285714285714313" style="visibility: inherit;" fill="rgb(0, 0, 0)" stroke="rgb(204, 204, 204)" stroke-width="1px"></line><line x1="51.5625" y1="12.642857142857157" x2="46.5625" y2="12.642857142857157" style="visibility: inherit;" fill="rgb(0, 0, 0)" stroke="rgb(204, 204, 204)" stroke-width="1px"></line><line x1="51.5625" y1="0" x2="46.5625" y2="0" style="visibility: inherit;" fill="rgb(0, 0, 0)" stroke="rgb(204, 204, 204)" stroke-width="1px"></line></g><g transform="translate(41.5625, 0)"><text x="0" y="177" dx="0em" dy="0.3em" style="text-anchor: end; visibility: hidden; font-family: Roboto, sans-serif; font-size: 12px; font-weight: 200;" fill="rgb(33, 33, 33)" stroke="none" stroke-width="1px">0.7</text><text x="0" y="164.35714285714283" dx="0em" dy="0.3em" style="text-anchor: end; visibility: inherit; font-family: Roboto, sans-serif; font-size: 12px; font-weight: 200;" fill="rgb(33, 33, 33)" stroke="none" stroke-width="1px">0.72</text><text x="0" y="151.7142857142857" dx="0em" dy="0.3em" style="text-anchor: end; visibility: hidden; font-family: Roboto, sans-serif; font-size: 12px; font-weight: 200;" fill="rgb(33, 33, 33)" stroke="none" stroke-width="1px">0.74</text><text x="0" y="139.07142857142856" dx="0em" dy="0.3em" style="text-anchor: end; visibility: inherit; font-family: Roboto, sans-serif; font-size: 12px; font-weight: 200;" fill="rgb(33, 33, 33)" stroke="none" stroke-width="1px">0.76</text><text x="0" y="126.42857142857139" dx="0em" dy="0.3em" style="text-anchor: end; visibility: hidden; font-family: Roboto, sans-serif; font-size: 12px; font-weight: 200;" fill="rgb(33, 33, 33)" stroke="none" stroke-width="1px">0.78</text><text x="0" y="113.78571428571423" dx="0em" dy="0.3em" style="text-anchor: end; visibility: inherit; font-family: Roboto, sans-serif; font-size: 12px; font-weight: 200;" fill="rgb(33, 33, 33)" stroke="none" stroke-width="1px">0.8</text><text x="0" y="101.14285714285715" dx="0em" dy="0.3em" style="text-anchor: end; visibility: hidden; font-family: Roboto, sans-serif; font-size: 12px; font-weight: 200;" fill="rgb(33, 33, 33)" stroke="none" stroke-width="1px">0.82</text><text x="0" y="88.5" dx="0em" dy="0.3em" style="text-anchor: end; visibility: inherit; font-family: Roboto, sans-serif; font-size: 12px; font-weight: 200;" fill="rgb(33, 33, 33)" stroke="none" stroke-width="1px">0.84</text><text x="0" y="75.85714285714285" dx="0em" dy="0.3em" style="text-anchor: end; visibility: hidden; font-family: Roboto, sans-serif; font-size: 12px; font-weight: 200;" fill="rgb(33, 33, 33)" stroke="none" stroke-width="1px">0.86</text><text x="0" y="63.21428571428569" dx="0em" dy="0.3em" style="text-anchor: end; visibility: inherit; font-family: Roboto, sans-serif; font-size: 12px; font-weight: 200;" fill="rgb(33, 33, 33)" stroke="none" stroke-width="1px">0.88</text><text x="0" y="50.57142857142855" dx="0em" dy="0.3em" style="text-anchor: end; visibility: hidden; font-family: Roboto, sans-serif; font-size: 12px; font-weight: 200;" fill="rgb(33, 33, 33)" stroke="none" stroke-width="1px">0.9</text><text x="0" y="37.928571428571395" dx="0em" dy="0.3em" style="text-anchor: end; visibility: inherit; font-family: Roboto, sans-serif; font-size: 12px; font-weight: 200;" fill="rgb(33, 33, 33)" stroke="none" stroke-width="1px">0.92</text><text x="0" y="25.285714285714313" dx="0em" dy="0.3em" style="text-anchor: end; visibility: hidden; font-family: Roboto, sans-serif; font-size: 12px; font-weight: 200;" fill="rgb(33, 33, 33)" stroke="none" stroke-width="1px">0.94</text><text x="0" y="12.642857142857157" dx="0em" dy="0.3em" style="text-anchor: end; visibility: inherit; font-family: Roboto, sans-serif; font-size: 12px; font-weight: 200;" fill="rgb(33, 33, 33)" stroke="none" stroke-width="1px">0.96</text><text x="0" y="0" dx="0em" dy="0.3em" style="text-anchor: end; visibility: hidden; font-family: Roboto, sans-serif; font-size: 12px; font-weight: 200;" fill="rgb(33, 33, 33)" stroke="none" stroke-width="1px">0.98</text></g><line x1="51.5625" y1="0" x2="51.5625" y2="177" fill="rgb(0, 0, 0)" stroke="rgb(204, 204, 204)" stroke-width="1px"></line></g></g><g transform="translate(51, 0)" clip-path="url(#clip_0)"><clipPath id="clip_0"><rect width="278" height="177"></rect></clipPath><g><g><g><line x1="0" y1="0" x2="0" y2="177" fill="rgb(0, 0, 0)" stroke="rgb(66, 66, 66)" stroke-width="1px" opacity="0.25"></line><line x1="30.9375" y1="0" x2="30.9375" y2="177" fill="rgb(0, 0, 0)" stroke="rgb(66, 66, 66)" stroke-width="1px" opacity="0.25"></line><line x1="61.875" y1="0" x2="61.875" y2="177" fill="rgb(0, 0, 0)" stroke="rgb(66, 66, 66)" stroke-width="1px" opacity="0.25"></line><line x1="92.8125" y1="0" x2="92.8125" y2="177" fill="rgb(0, 0, 0)" stroke="rgb(66, 66, 66)" stroke-width="1px" opacity="0.25"></line><line x1="123.75" y1="0" x2="123.75" y2="177" fill="rgb(0, 0, 0)" stroke="rgb(66, 66, 66)" stroke-width="1px" opacity="0.25"></line><line x1="154.6875" y1="0" x2="154.6875" y2="177" fill="rgb(0, 0, 0)" stroke="rgb(66, 66, 66)" stroke-width="1px" opacity="0.25"></line><line x1="185.625" y1="0" x2="185.625" y2="177" fill="rgb(0, 0, 0)" stroke="rgb(66, 66, 66)" stroke-width="1px" opacity="0.25"></line><line x1="216.5625" y1="0" x2="216.5625" y2="177" fill="rgb(0, 0, 0)" stroke="rgb(66, 66, 66)" stroke-width="1px" opacity="0.25"></line><line x1="247.5" y1="0" x2="247.5" y2="177" fill="rgb(0, 0, 0)" stroke="rgb(66, 66, 66)" stroke-width="1px" opacity="0.25"></line><line x1="278.4375" y1="0" x2="278.4375" y2="177" fill="rgb(0, 0, 0)" stroke="rgb(66, 66, 66)" stroke-width="1px" opacity="0.25"></line></g><g><line x1="0" y1="177" x2="278.4375" y2="177" fill="rgb(0, 0, 0)" stroke="rgb(66, 66, 66)" stroke-width="1px" opacity="0.25"></line><line x1="0" y1="164.35714285714283" x2="278.4375" y2="164.35714285714283" fill="rgb(0, 0, 0)" stroke="rgb(66, 66, 66)" stroke-width="1px" opacity="0.25"></line><line x1="0" y1="151.7142857142857" x2="278.4375" y2="151.7142857142857" fill="rgb(0, 0, 0)" stroke="rgb(66, 66, 66)" stroke-width="1px" opacity="0.25"></line><line x1="0" y1="139.07142857142856" x2="278.4375" y2="139.07142857142856" fill="rgb(0, 0, 0)" stroke="rgb(66, 66, 66)" stroke-width="1px" opacity="0.25"></line><line x1="0" y1="126.42857142857139" x2="278.4375" y2="126.42857142857139" fill="rgb(0, 0, 0)" stroke="rgb(66, 66, 66)" stroke-width="1px" opacity="0.25"></line><line x1="0" y1="113.78571428571423" x2="278.4375" y2="113.78571428571423" fill="rgb(0, 0, 0)" stroke="rgb(66, 66, 66)" stroke-width="1px" opacity="0.25"></line><line x1="0" y1="101.14285714285715" x2="278.4375" y2="101.14285714285715" fill="rgb(0, 0, 0)" stroke="rgb(66, 66, 66)" stroke-width="1px" opacity="0.25"></line><line x1="0" y1="88.5" x2="278.4375" y2="88.5" fill="rgb(0, 0, 0)" stroke="rgb(66, 66, 66)" stroke-width="1px" opacity="0.25"></line><line x1="0" y1="75.85714285714285" x2="278.4375" y2="75.85714285714285" fill="rgb(0, 0, 0)" stroke="rgb(66, 66, 66)" stroke-width="1px" opacity="0.25"></line><line x1="0" y1="63.21428571428569" x2="278.4375" y2="63.21428571428569" fill="rgb(0, 0, 0)" stroke="rgb(66, 66, 66)" stroke-width="1px" opacity="0.25"></line><line x1="0" y1="50.57142857142855" x2="278.4375" y2="50.57142857142855" fill="rgb(0, 0, 0)" stroke="rgb(66, 66, 66)" stroke-width="1px" opacity="0.25"></line><line x1="0" y1="37.928571428571395" x2="278.4375" y2="37.928571428571395" fill="rgb(0, 0, 0)" stroke="rgb(66, 66, 66)" stroke-width="1px" opacity="0.25"></line><line x1="0" y1="25.285714285714313" x2="278.4375" y2="25.285714285714313" fill="rgb(0, 0, 0)" stroke="rgb(66, 66, 66)" stroke-width="1px" opacity="0.25"></line><line x1="0" y1="12.642857142857157" x2="278.4375" y2="12.642857142857157" fill="rgb(0, 0, 0)" stroke="rgb(66, 66, 66)" stroke-width="1px" opacity="0.25"></line><line x1="0" y1="0" x2="278.4375" y2="0" fill="rgb(0, 0, 0)" stroke="rgb(66, 66, 66)" stroke-width="1px" opacity="0.25"></line></g></g></g><g><g><line x1="0" y1="619.4999999999999" x2="278.4375" y2="619.4999999999999" fill="rgb(0, 0, 0)" stroke="rgb(153, 153, 153)" stroke-width="1.5px"></line></g></g><g><g><line x1="30.9375" y1="0" x2="30.9375" y2="177" fill="rgb(0, 0, 0)" stroke="rgb(153, 153, 153)" stroke-width="1.5px"></line></g></g><g><g><g><g><g><path stroke="rgb(255, 112, 67)" stroke-width="2px" d="M41.96214,178.53378003659478L42.088860000000004,173.1720371081452L42.21558,166.28974018516524L42.342299999999994,163.99458377968114L42.46902,161.85782316311708L43.10262,159.3029076487011L44.2431,154.15695614272224L44.49654,152.12852128017246L44.62326,146.56256965502774L44.74998,140.4057215551967L45.63702,136.94255244499786L46.017179999999996,131.77015294084717L46.27062,127.24151862208093L46.39733999999999,122.91028275134448L46.52406,123.1990415909333L47.030939999999994,117.64748298458997L47.15766,115.3242600827626L47.28438,112.87143040899625L47.664539999999995,111.31435674337767L47.79126,110.71387132929038L48.171420000000005,110.61980691222547L48.6783,107.07625401230558L48.93174,102.67289600334048L49.18518,98.98929859180896L49.3119,94.43609369811716L49.43862,92.62995276248064L49.56534,91.95756384204836L49.69206,89.11845808425645L49.818780000000004,89.32546729729566L50.072219999999994,90.17518009839621L50.32566,86.96635094114966L50.705819999999996,83.88705115558884L50.83254,81.46725698472808L50.95926,78.95704828922395L51.2127,75.94735444253394L51.33942,73.54844906943798L51.46614,72.80199755258002L51.71957999999999,69.9547238587028L51.8463,71.83473089019282L52.099740000000004,73.71199041772329L52.22646,72.9855150215594L52.4799,72.1964388160834L52.60662,69.76854371062748L52.986779999999996,71.33015100367687L53.493660000000006,73.95918254311607L53.62038,71.45700898001184L53.747099999999996,68.98824906899752L53.87382,65.69213559930256L54.12726,65.31457787007913L54.25398,62.54158679619914L54.50742,60.911697179787154L54.76086,61.255318979720954L54.88758,61.35842572678155L55.0143,60.093081181084095L55.141020000000005,57.55785824817007L55.394459999999995,58.417061501327744L55.52118,60.88792980463167L56.53494,64.30081916374776L57.041819999999994,62.824495659877805L57.548700000000004,60.856765378308076L57.675419999999995,58.31372822168583L57.80214,55.018455593725854L58.30902,53.552764411300046L58.43574,52.11576166719762L58.56246,52.269723978362585L58.68918,49.994260082640906L59.06934,54.03519866171437L59.19606,54.79357251697172L59.57622,52.27885317566062L59.70294,50.107246912552974L59.95638,50.41313109580362L60.083099999999995,48.55594143306682L60.20982,47.921365100173404L60.463260000000005,47.73581867145483L60.58998,49.099810261151525L60.716699999999996,47.41137266745461L60.84342,48.55611118008376L60.97014,47.6003775854733L61.09686,49.0682405642212L61.47702,50.738456735468205L61.60374,49.05273372613612L61.85718,47.37798511792477L62.364059999999995,47.329651919595676L62.49078,46.20063454230031L62.74422,50.74326810861717L62.997659999999996,49.66279865837571L63.12438,48.14812532537639L63.757979999999996,45.85246165144442L64.13814,45.25336320053402L64.26486,46.264453483602225L64.39157999999999,44.53566444774221L64.5183,43.23927364682842L64.77174,42.28042211132411L65.27862,40.27843954712476L65.53206,38.985627523623855L65.7855,37.93865779494342L65.91222,38.86685883944696L66.03894,38.289388108865275L66.54582,41.94132300985648L66.67254,41.19707823901569L66.92598,39.789086514636104L67.17942000000001,37.69897304812319L67.43285999999999,36.441574805048305L68.06645999999999,38.325817797632226L68.44662,37.82597588775218L68.57334,37.466834617587566L68.9535,35.88372564705299L69.20694,35.283783832126446L69.33366,33.380357596505796L69.46038,32.690768413600566L69.71382,30.95310149155121L69.84054,34.16934628299071L69.96726000000001,33.32764395173742L70.47413999999999,32.06149103115279L70.60086,30.540885607578428L70.8543,31.905464991648252L71.23446,30.50324833690968L71.74134,30.076940281527683L71.86806,30.66735087231225L71.99478,29.376100923818974L72.1215,27.89990123533632L72.37494000000001,27.625553348431584L72.7551,31.252751938528316L72.88181999999999,31.571198178085414L73.00854,31.247447259770908L73.3887,30.659348662603442L73.51542,30.216142726070355L73.76886,30.51823056069381L74.52918,30.525459816493246L74.78262000000001,29.5286893081086L74.90934,30.26520871322924L75.03605999999999,29.458791513056745L75.16278,29.05906411616645L75.28949999999999,27.768102782658495L75.54294,28.886776793795725L75.66966000000001,28.56011510458419L76.30326,30.755814939306383L76.42998,30.266491096440742L76.68342,38.43901654293273L76.93686,38.92661419299987L77.06358,40.76837649440659L77.19030000000001,41.33829299764289L77.44373999999999,41.4200207588862L77.57046,41.84519495527949L77.69718,43.692738287795024L77.8239,42.89464069872446L78.07734,44.427709458113554L78.20406,44.025957927504685L78.45750000000001,43.222474522585216L78.58421999999999,43.71902845206449L78.83766,43.40574593620195L79.0911,41.855419981817285L79.34454000000001,40.58087849128469L79.47126,40.79744917974929L79.59798,39.14894297573227L79.85141999999999,37.83089245335728L79.97814,37.9993493575545L80.3583,43.02390025049662L80.48502,41.09034698420469L80.61174,40.140686995790624L80.86518000000001,39.36828998310635L81.11861999999999,41.813151978452524L81.24534,40.435173485190894L81.37206,40.33938665881323L81.49878,39.66419907858096L82.13238,48.55328538000805L82.63926,46.25767884694663L82.76598,53.366904672961724L83.01942000000001,52.31937460152054L83.39958,52.841006449184206L84.28662,51.09871816119256L84.41334,48.74108674521482L84.92022,50.03434371838627L85.04694,51.67565616690465L85.17366,49.67743660825754L85.42710000000001,47.36119602751952L85.68054,45.99382890552094L85.93397999999999,44.704023300298225L86.18742,43.01745043437385L87.3279,42.189162261515335L87.45462,47.52198040474837L87.58134,46.660267463499075L87.70806,45.34865154709792L87.96149999999999,43.77080551761656L88.08821999999999,43.62120422944174L88.46838,43.2718303510278L88.84854,42.6539445607961L89.22869999999999,42.069892381101226L89.60885999999999,40.255956975419046L89.73558,38.13093656992271L89.8623,40.41971482525684L89.98902,38.34564261538298L90.11574,36.89163494633597L90.36918,36.88490598416495L90.49589999999999,35.09657923253967L90.62262,38.264066885212415L90.87606,37.765485316533336L91.00278,37.15638908777754L91.12950000000001,35.4750069311093L91.38294,34.01265223984575L91.63637999999999,32.20247801056341L91.7631,31.34348626869215L92.26998,29.86284203146401L92.77686,30.918856780637245L93.28374,31.609677961197633L93.41046,31.409286605468246L93.6639,30.202515962578456L93.79062,29.449139192416222L94.04406,32.704563695870085L94.2975,33.52040801376204L94.67766,32.290089332777065L95.5647,31.005891969467154L95.94486,29.943456334499793L96.07158000000001,32.33919012044545L96.45174,31.618724627366955L96.57845999999999,35.640736790736476L96.70518,35.33965642422254L96.95862,34.79910109316385L97.08534,35.968890024732495L97.21206000000001,35.95444987786671L97.33878,34.29049174327257L97.59222,32.55139830316103L98.22582,30.943488834221977L98.35254,29.639036573712776L99.11286,28.225923687370713L99.3663,27.05054891162441L99.49302,25.47237160245438L99.61974000000001,24.892099439410984L99.74646000000001,23.25629034580145L99.87317999999999,22.03956944284878L99.9999,21.368413278347322L100.12662,19.954798194074392L100.25334,18.670367622421878L100.38006,19.654372218846778L100.50678,19.717683963977098L100.76022,18.942923560425715L101.14038,17.997971115366646L101.2671,18.087164829923505L101.39382,17.454591241715814L101.64726,16.856905563746146L101.77398000000001,17.751848367286698L102.15414,17.593239209858446L102.40758,16.731586742760538L102.66102,16.788309221639086L102.78774,15.794425451419476L103.1679,16.491525936993774L103.29462000000001,15.627872265080914L103.42134,15.773156236697524L103.67478,16.237392192826956L103.8015,15.923371796610263L103.92822,14.849650114228512L104.18166000000001,17.028890609085447L104.4351,16.724720274665117L104.56182,17.24799729094887L104.94198,18.925936965352182L105.0687,18.28396043999867L105.19542,17.60263271512925L105.32214,16.470002470458176L105.44886000000001,21.465873987243334L105.7023,20.703392645991517L105.82902,20.954258838844957L105.95573999999999,23.518594383119044L106.20918,23.15186766793561L106.3359,22.614074230527876L106.84277999999999,22.8113803483397L106.9695,21.767239702984966L107.09622,22.25726032293113L107.34966,23.36507096758154L107.47638,32.03179314433987L107.6031,30.94753066082149L107.72982,32.06719167475179L107.98325999999999,31.437577757751544L108.2367,30.37959164994815L108.36341999999999,29.295366496148766L108.49014,28.6750721639171L108.74358000000001,27.87737120018165L108.99702,26.438221631931555L109.25045999999999,24.83627458940331L109.37718,56.21373250638145L109.5039,54.63784804485692L109.88406,53.85803878262866L110.39093999999999,52.304986933285306L110.51765999999999,49.93882855253892L110.7711,48.357956179886116L110.89782,49.171572908151944L111.15126000000001,49.6773878782002L111.65813999999999,48.59376010902658L111.78486,48.588971478848904L112.03829999999999,49.23182629304285L112.29174,48.83262427759301L112.79862,46.697758782180856L113.17878,47.757110048983044L113.3055,45.465123440746L113.55894,45.143982465928104L113.68566,43.14672958506817L113.81238,41.94959708751387L113.9391,42.33124373059122L114.06581999999999,43.56128174392397L114.19254,42.237401453217444L114.31926,40.6422369208976L114.44598,43.11982190202819L114.5727,41.88147110770691L115.07957999999999,49.70890539945267L115.2063,48.90519144310138L115.45974,47.094575358668415L115.71318,59.790473814783084L116.09334000000001,70.92120854646903L116.34678,68.14229422472037L116.4735,65.41126009107198L116.60022,66.23586655435854L116.98038,66.72564311045842L117.1071,67.81769635542099L117.23382000000001,66.32436992681325L117.36054,63.98480403314859L117.48725999999999,65.2772916775835L117.74069999999999,63.14182292907168L117.86742,60.44220084134506L118.12086000000001,58.00101961095589L118.3743,57.785541727485096L118.50102000000001,56.39558042330118L118.62773999999999,53.92108982021387L118.75446,51.09524682998624L118.88118,49.9750400930887L119.00789999999999,50.237054955385105L119.26134,49.80186607370962L119.38806,48.845982754982614L119.76822000000001,47.79302107493657L120.2751,45.685680465338315L120.65526,43.87804583122503L120.78198,42.49388915623742L120.90870000000001,41.13791580077584L121.03541999999999,44.72813918347368L121.16214,43.59287322148009L121.28886,42.61262329112456L121.41557999999999,40.854390343899645L121.5423,45.59757822795076L121.79574000000001,43.15241753881654L121.92246,41.53760599667358L122.04918,39.65775805602934L122.55606,37.78325406782701L123.06294,36.25925905071953L123.18966,37.58109704562269L123.4431,35.82925601439333L123.56981999999999,33.8258181712905L123.69654,34.39002154286607L123.82326,34.926879470790155L123.94998,34.19995150428669L124.0767,39.38629933300907L124.45686,38.58489005088097L124.58358,36.550655267024425L124.71029999999999,38.78501229735227L125.3439,38.73663024147609L125.59734,36.77950440300828L125.72406,40.645102637288254L125.85078,38.64273737374486L125.97749999999999,36.78568214698928L126.23094,35.004718334093894L126.61110000000001,36.6659162472713L126.73782,34.705863198376804L127.11798,33.75398205095051L127.2447,32.40480052759108L127.37142,31.609217448616914L127.49814,30.38567075665467L127.62486,29.639961335978345L127.87830000000001,30.904896419033474L128.25846,30.758783625785888L128.38518,33.47557922154852L128.63862,35.09993815566867L129.01878,34.77325162241125L129.1455,35.97551072275045L129.27222,37.92869547108399L129.52566000000002,36.4651369214542L129.65238,35.066348308520936L129.7791,33.844905887304535L129.90582,33.663669953504275L130.03253999999998,31.921514996497624L130.15926,31.075164662246067L130.28598,31.483651539801777L130.53942,30.64221449459213L130.91958,29.335687130762693L131.0463,29.879947389039227L131.55318,32.318278003473274L131.6799,31.129296520480924L131.93334000000002,30.484724137764964L132.18678,28.890640529372167L132.44021999999998,27.44522245143283L132.56694,25.726190918039382L132.69366,24.19447218287303L132.82038,23.485453904730115L132.9471,28.966209921549517L133.07382,30.93714592228995L133.32726,29.996224776058973L133.5807,30.23551814414361L133.83414,31.86533475850785L134.2143,30.411860862473993L134.34102000000001,29.12944715332333L134.46774000000002,29.44109384732395L134.59446,30.20682070057112L134.72118,28.909858911814172L134.97462,31.860789423047414L135.10134,31.04786696713768L135.22806,30.606689890937634L135.4815,29.672807830024844L135.60822000000002,39.12783293752734L135.86166,40.94702797208701L136.24182,39.18442860337179L136.49526,37.40831727565183L136.62198,38.82266338533676L136.7487,38.72683775099637L137.12886,48.403251258067314L137.50902,47.518069213159954L137.63574,45.48642367506435L137.88918,54.25675049794021L138.14262,52.24917946521693L138.39606,49.23818903529768L138.52278,47.94016118933344L139.02966,48.031806665798996L139.2831,46.80095545270017L139.40982,45.91296690810774L139.53654,45.240713917934485L139.66325999999998,44.32395238685033L139.9167,42.407156256765404L140.04342,40.304491735247495L140.17014,42.7375477316726L140.29686,42.74715652057533L140.80374,42.55840036574286L141.05718,40.37974732564246L141.18390000000002,38.89295710650332L141.31062,37.890708213957375L141.43734,36.531617850078L141.56406,37.35926932291143L142.07094,35.86930501089308L142.19765999999998,33.800432713801L142.32438000000002,37.92897751717201L142.4511,37.26139649952374L142.95798,38.25991218902524L143.0847,36.91887035475332L143.21142,37.30124162161658L143.33813999999998,37.94861207277074L143.46486000000002,42.16393715906836L143.7183,42.088858953134185L143.84502,40.534429502503556L143.97173999999998,40.09365457195217L144.09846,40.46549748342076L144.3519,39.39858339596555L144.73206,37.39221271650786L144.9855,37.20475729131185L145.11221999999998,36.44776101257282L145.36566,38.82737458215593L145.49238,37.09431920490301L145.6191,35.02581774700998L145.87254,34.05267328156133L145.99926000000002,34.22148294830031L146.25269999999998,32.907332057222305L146.37942,32.14870363078722L147.01301999999998,30.803995424152497L147.26646,30.26551023121263L147.39317999999997,29.83386006372171L147.5199,31.27048900067585L147.64661999999998,29.48102203643478L147.77334,29.013303031493987L147.90006,41.59626163665814L148.02678,39.84667871593956L148.28022,39.947112503686334L148.40694,40.41459185555161L148.53366000000003,38.45240674697328L148.91382000000002,38.0775079633236L149.04054,36.62469250646133L149.16726,35.63215201038065L149.29398,35.638314761629175L149.54742,35.10167405010599L150.30774,33.103217689700124L150.43446,31.387350244684086L150.56118,30.193935935886568L150.81462000000002,29.615274220920202L151.3215,27.920585601232343L151.70166,26.23042863718708L152.08182,25.759432516984113L152.46197999999998,27.117509453578997L152.58870000000002,25.75429734479711L152.84214,24.729593926279378L152.96886,23.858888545985323L153.09558,24.44118066738323L153.2223,23.63923233184435L153.47574,22.4155560784818L153.60245999999998,22.481129543615623L153.72918,21.005136913004097L153.8559,20.452461838369395L153.98262,19.034820824098915L154.10934,17.77122994567466L154.23606,16.758198307711297L154.36278,16.869201993792398L154.48950000000002,17.409568854087997L154.74293999999998,17.378609703074034L154.86966,17.695708334517068L155.1231,17.769531236017844L155.50325999999998,19.324250802314015L155.62998000000002,19.47920358204984L155.88342,19.288095888297505L156.13685999999998,19.175039597880858L156.26358000000002,19.20450005186992L156.3903,18.877912543125017L156.51702,18.37041044259061L156.89718,21.820148585752126L157.0239,21.354184150146107L157.15062,20.965984309474436L157.27733999999998,28.53103151912877L157.53078,27.357120343360165L157.6575,25.647996882636672L158.67126,24.3992208633051L159.05142,35.303563179788675L159.17813999999998,36.02329329887312L159.43158,34.51498534167205L159.5583,34.6505212412438L159.68502,33.797711939101504L159.81174,32.429217091873L160.1919,34.680994676924946L160.31862,32.608778452455226L160.57206,34.452417882369424L160.69878,34.79352389196209L160.8255,33.102772822110964L160.95221999999998,31.455265388794814L161.33238,30.942407605376648L162.34614,29.73084703133525L162.47286,28.076903484769986L162.59958,26.7824670889092L162.85302,25.59073636035741L163.10646,24.403423088248253L163.23318,23.442399436956315L163.3599,22.380296753691063L163.61334000000002,22.624061581851286L163.74006,22.763787038475574L163.86678,22.011496169776976L163.9935,20.988851511149797L164.12022,19.652308319920422L164.50038,19.41281325237795L164.62709999999998,18.9873255408974L164.75382000000002,19.02479831092691L165.38742,17.71122105049553L165.64086,16.957485689432218L165.76757999999998,15.879722052128049L166.02102,15.50816953615307L166.14774,14.819621049363105L166.40117999999998,16.104529999826916L167.1615,15.01280951043601L167.28822000000002,14.472931499062822L167.54165999999998,13.592874591446941L167.7951,12.471346350165364L167.92182,26.862939169221324L168.42870000000002,28.202837440076063L168.55542,27.00907026720498L168.68213999999998,25.3294743000039L168.80886,26.295015413072573L168.93558,27.118205299983547L169.18902,25.983460574521526L169.44245999999998,24.43334524702548L169.56918000000002,23.89720839985147L169.6959,22.882080191431694L169.82261999999997,21.599450020632062L169.94934,23.286419915934705L170.07605999999998,22.088274192773017L170.20278,20.674682062233057L170.70966,22.407877167928056L170.96310000000003,22.938809848366898L171.08982,23.46068632432145L171.72342,22.625753239305745L171.85014,23.555880895846595L172.10358000000002,22.10946007769681L172.35701999999998,24.769628475307268L172.48374,24.350071192897797L172.61046,29.629183994223894L172.8639,28.602273778853032L173.24406000000002,30.164931361633027L173.37078,32.117174340804034L173.75093999999999,30.940088643333052L174.00438,29.6316723586704L174.38454000000002,35.39115799331309L174.7647,36.50343411485806L174.89141999999998,35.11800745169474L175.14486,33.27192262640589L175.27158,31.820560310534134L175.3983,32.25223845197653L175.52502,34.84125513092884L175.65174,32.94370893652068L175.77846000000002,60.29427036983452L175.90518,58.058008470320694L176.15862,57.85315126293094L176.28534,55.871724882938615L176.41206,53.02229074024024L176.79222,51.901810488950666L176.91894000000002,51.62147145715676L177.17237999999998,49.058984159706156L178.18614,47.448382026127355L178.31286,45.86095178965155L178.43958,44.89698784891873L178.56629999999998,42.852156853446374L178.69302000000002,40.87737100094038L178.94646,38.482523335185846L179.07318,36.587132188331765L179.1999,34.45206924565261L179.32662,33.177782718926224L179.58006,43.169109091236656L179.70677999999998,46.4224545529549L179.83350000000002,43.93698636886027L180.21366,43.051658680193505L180.34038,40.69846270474884L180.59382,39.162534289919336L181.86102,37.89978153803007L182.24117999999999,37.788936242790584L182.36790000000002,36.54708686449053L182.49462,34.336008774387146L182.62134,32.62486895003907L182.87478,31.18964431076577L183.0015,30.273560243474645L183.12822,28.661615708075896L183.38165999999998,27.096513980443923L183.76182,26.29911882080835L183.88854,27.94979421957339L184.01525999999998,27.642997219896895L184.14198,26.66945288081935L184.2687,26.5708258128944L184.39542,26.48126344631979L184.52213999999998,25.32937791616184L184.64886,23.925492495381526L184.9023,24.91768559842686L185.15573999999998,23.666280793356606L185.28246000000001,22.275347367203L185.5359,21.98891401497865L185.78934,20.537863732924713L186.04278000000002,20.204059298735583L186.1695,23.280359702840624L186.29622,22.94513766547172L186.42294,21.73940479777811L186.54966,21.50443678647281L186.67638,20.640216670728122L187.18326000000002,19.23614551655898L187.81686,18.346283136969248L187.94358,17.32013171151283L188.19701999999998,29.102542281168915L188.32374000000002,27.822130466376247L188.45046,26.958000713220027L188.83061999999998,25.595083248564887L188.95734000000002,24.65676864576659L189.08406,23.11505510571301L189.3375,22.209917523154182L189.59094,22.295463864949323L189.71766000000002,25.26487680374114L190.09782,24.69559397676902L190.35126,24.105436982317276L190.6047,22.481015919172105L190.73141999999999,20.984303828106036L190.98486,20.135794669045097L191.11157999999998,19.893496614580073L191.49174,18.94866438373687L191.61846,19.562809041952303L191.74518,21.226527286366526L191.99862000000002,20.077267768708325L192.12534,19.219764611144498L192.25205999999997,18.856764219315306L192.63222000000002,17.58835925843619L192.75894,16.68433841784642L192.88566,16.465530059716617L193.01238,15.842443391563961L193.1391,17.551580150420964L193.26582,16.627614353475813L193.51926,15.853284161518355L193.89942,19.61076100017081L194.02614,18.410135698243614L194.27958,18.222854848177487L194.78645999999998,17.397854317495277L194.91318,16.282703127270544L195.16662,15.058763062188634L195.29334,15.358618549828984L195.67350000000002,15.759218773666353L195.92693999999997,14.583647535310588L196.18037999999999,16.549544948813665L196.43382,18.528608475394762L196.56054,21.629341314077426L196.68726,20.56793941081083L196.81398000000002,19.67857228969733L197.06742,18.32758519542655L197.44758000000002,21.04732132444038L197.5743,20.04333404253428L197.82774,20.441444799177493L197.95446,19.05533590719852L198.08118,21.60968598901977L198.33462,21.73606333199759L198.8415,21.009250808575356L199.09494,19.60635664046433L199.22165999999999,18.347585443047073L199.4751,17.88054268211495L199.60181999999998,16.675828097157474L199.72854,15.777149685505844L199.85526,20.142885462029678L199.98198000000002,27.08294414560472L200.1087,28.916913173291178L200.61558,27.569144438882514L200.7423,26.31607739490351L200.86902,24.992983987370856L200.99573999999998,23.856837351751327L201.12246000000002,22.4744995285432L201.3759,20.947992943841033L201.62934,19.783858582907293L201.75606,19.991663025503673L201.88278,18.771922916806478L202.0095,18.470945014234687L202.13621999999998,17.14289989272005L202.26294000000001,16.27354829641324L202.6431,15.384791799852886L203.02326,15.297207375839102L203.27669999999998,15.351817488834582L203.53014,16.0784896988386L203.65686000000002,16.618098625092998L203.78358,15.496306373796669L203.9103,14.318099052694535L204.03702,25.39726329602859L204.5439,23.98817691496594L205.1775,22.314287757006507L205.43094,22.650999964077688L205.55766,22.24772906208547L205.68438,20.913328094092176L205.93782000000002,21.359876939181376L206.06454,22.18462051233851L206.19126,21.581462141615958L206.57142,20.826615102708285L206.95157999999998,20.96070504013592L207.0783,19.877098655315915L207.20502,19.62613046337088L207.45846,21.42649492099645L207.58517999999998,23.817498440341094L207.7119,24.736337214906058L207.96534,23.9333215896322L208.09206,22.465775553496478L208.3455,21.379748474323094L208.47222000000002,20.799448776184974L208.59894,20.02726920684146L208.72565999999998,19.408166356023994L208.85238,19.48519377487898L208.9791,18.607383292691576L209.23254,17.322302942022652L209.35926,16.251015636782462L209.73942,17.29181489781441L210.37302,16.262100632345017L210.8799,17.167371298034055L211.89366,21.29207335743275L212.02038,22.581815792037215L212.14710000000002,26.860243740092095L212.27382,25.1202976713619L212.40053999999998,26.417387539244473L212.7807,24.7287061094874L212.90742,24.19857345918199L213.16085999999999,22.6450318466778L213.28758000000002,21.301338368770367L213.54101999999997,23.183935725671528L213.66774,21.69061913582307L213.79446,20.783465474951687L213.92118,21.054973597075413L214.17462,21.74128619362344L214.42806000000002,25.219456998039863L214.55478,25.377913664930123L214.68150000000003,24.344051148517938L214.93493999999998,23.854383165788068L215.06166000000002,23.85852196823371L215.18838,24.724059066065614L215.44182,27.48579204606277L215.69526,26.113451711061856L216.45558,24.792577071127365L216.70902,23.131498721931827L217.21589999999998,21.899844704095496L217.46934,20.786187746533212L217.59606,19.7861276065191L218.10294000000002,18.29490143679371L218.73654000000002,17.71468000829444L218.86326,16.75546073305397L219.37014,15.480556346445965L219.75029999999998,15.916653142681184L219.87702000000002,15.15002837251546L220.25718,13.958863923708025L220.3839,13.317739529538693L220.63734,12.376718676772086L220.76406,12.344623504503023L220.89077999999998,11.658206188468109L221.0175,13.767235153798566L221.27094,12.830431075795845L221.39766,12.501564476626836L221.77782,13.36582096976269L221.90454,13.720896536025016L222.03126,14.352842763281823L222.15798,16.187900331076097L222.2847,15.482671108690498L222.79158,15.227345592001598L223.17174,15.170672089196296L223.29846,16.852410749557674L223.42517999999998,18.08207582123996L223.55190000000002,18.30672771416206L223.80534,20.340500580038263L223.93206,21.11706725429805L224.05878,19.78159625589023L224.1855,20.684001048084482L224.31222,20.816384160780874L224.43894,19.97045716932206L224.56565999999998,19.397772163555363L224.69238,18.444953265104356L224.8191,21.937934472785948L225.19926,20.478131456640025L225.4527,21.5989590020482L226.08630000000002,21.213117127964917L226.21302,30.702128614638234L226.33974,30.085099577846822L226.59318,29.465740289378566L227.10005999999998,28.006224218789697L227.48022,28.28276118056594L227.73366,26.68181930549164L228.24053999999998,26.65974544424667L228.36726000000002,25.37252959373931L228.49398,23.931012139683997L228.6207,24.21681251180659L229.00086,23.173243768086152L229.2543,21.81744250981807L229.38102,20.46798497131401L229.50774,21.802910690711634L229.63446,21.299051890007767L229.8879,20.314962728306465L230.14134,19.840403749002434L230.26806,19.475114558774116L230.64822,25.994488835241384L230.77494,25.231239951419667L231.02838,24.33567645784023L231.15509999999998,23.33298777572896L231.28182,22.24343207076434L231.91541999999998,20.677235894342783L232.04214000000002,21.734970017140014L232.16886,20.520397975714676L233.18262000000001,19.910833945667036L233.30934,20.236284406949892L233.43606000000003,19.779736087520792L233.68949999999998,21.13557587458535L233.81622000000002,19.986487552266855L233.94294,18.56639754652004L234.06966,18.58747355738636L234.19638,17.381453205411912L234.3231,16.061140424525988L234.44982,14.926744284137811L234.70326,14.688060344211575L234.9567,13.842523544648268L235.08342,12.93408174840699L235.21014,12.060172911998519L235.46358,14.173977102245264L235.59029999999998,14.448360732757664L235.84374,14.013222963596753L236.09718,13.550477399010422L236.2239,15.999384161446825L236.47734,15.174780048853624L236.60406,14.217144267503802L237.11094000000003,14.193573294416778L237.23766,18.475497584390148L237.36437999999998,18.536018443339803L237.49110000000002,18.10566328087796L237.61782,17.986700921957897L237.74454,18.808177497917637L237.87126,20.21594107862209L238.1247,20.11700255737517L238.25142000000002,19.98571098218031L238.37814,21.859143104806247L238.50485999999998,21.250325862035L239.01174,21.00550161841954L239.26518,21.428662747909534L239.39190000000002,21.471938693611364L239.51862,21.813344034295504L239.77206,21.017142418698093L240.0255,19.78756543617059L240.27894,19.285787860874652L240.53238000000002,18.67563761659416L240.6591,19.063203957577354L240.78582,19.232324367603233L241.03925999999998,19.48109462940122L241.16598000000002,19.726520120394756L241.2927,19.416736287488153L241.41942,18.007146057256683L241.54614,19.04614220084341L241.67286000000001,18.097061664353646L241.79958,16.894051165490506L241.9263,27.042407005156182L242.05302,25.498895463160423L242.5599,24.33160929506704L242.68662,23.169690529591637L242.94006,21.923286037299924L243.06678,22.23743678668406L243.44694,20.8356949508703L243.57366,25.059693161595888L243.70038,24.477242815815433L243.8271,32.18748168354205L243.95382,32.19446458272001L244.20726,31.62293828515046L244.71414,34.04412063483552L244.96758,35.348016581344666L245.0943,38.12400855271075L245.22102,37.3981929798347L245.60118,35.507934372810475L245.7279,34.63723724326917L245.98134000000002,32.553883835752096L246.10806,32.933255393132825L246.23478,34.55766594313266L246.48821999999998,32.64017930620174L246.61494,30.85784511027622L246.74166,29.236720069980276L246.86838,30.107069470696803L247.12182,32.19590258372929L247.37526,32.52984292803941L247.62869999999998,31.35257388873695L247.75542000000002,29.994680915224077L248.00886,29.24647520876363L248.13558,28.513466339255128L248.2623,26.920842087167035L248.38902,26.683970304290238L248.64246,25.45297489372498L249.02262,26.373799485565076L249.14934,28.701452769735848L249.27606,26.845640878170812L249.40278,25.85898628971817L249.52949999999998,24.962468525190054L249.78294,24.58916928609006L249.90966,23.035018216562605L250.03638,21.567659023134375L250.1631,20.852691704481003L250.28982,20.117704581233276L250.41654,18.927871577829453L250.54326,17.784815564002407L250.66997999999998,20.305921585039666L250.92342,21.289036468948346L251.05014,21.68284954730929L251.17686,20.417176381027904L251.68374,19.321347748323113L252.0639,18.526798626682194L252.19062000000002,17.27264064607047L252.31734,18.79898364810599L252.6975,18.135979479360067L252.82422,19.335397623212504L252.95094,20.638965525490676L253.07766,26.007852596817447L253.20438,24.691470428800834L253.45782,25.400903667140582L253.58453999999998,24.634173061465248L253.71126,24.645934627595366L254.09142,23.484371423841914L254.21814,23.760324380342063L254.47158000000002,22.8079347669038L254.72501999999997,22.774538059774418L254.85174,22.229324655773134L255.2319,22.774836759386844L255.48534,22.101934313364243L255.61206,22.00479176048108L255.73878,21.378639420986698" style="fill: none;" fill="none"></path></g></g></g></g><g opacity="0.2"><g><g><g><path stroke="rgb(255, 112, 67)" stroke-width="2px" d="M36.51318,369.904788340841L36.6399,169.12724191801885L36.76662,107.53353756666182L36.89334,225.6426554407392L37.14678,123.14994406700133L37.400220000000004,215.57510843447275L37.52694,228.28385347979406L37.9071,169.23342035497936L38.03382,116.51119193008967L38.160540000000005,49.113543621131335L38.287259999999996,107.41458606719969L38.41398,443.31587390388756L38.79414,189.78508952685763L38.92086,112.90297132730483L39.1743,71.58761521748133L39.42774,212.10705241135187L39.55446,224.70562508276524L39.68118,153.24614289828708L39.807900000000004,115.89533438852854L40.18806,127.21652545247758L40.31478,59.46028942721228L40.441500000000005,15.699928011213013L40.56822,79.78550990990229L40.82166,96.84504640102385L41.075100000000006,70.84726741484232L41.20182,76.42672197307856L41.83542,49.43057178599492L41.96214,146.9269810744694L42.088860000000004,79.98437782696314L42.21558,46.1172619802611L42.342299999999994,123.74202638013018L42.46902,124.22702596868784L43.10262,114.13050408022742L44.2431,62.83403578826357L44.49654,116.00366050856452L44.62326,47.105874410697375L44.74998,30.0421932680266L45.63702,74.67801812716891L46.017179999999996,38.511223529066335L46.27062,45.37013202054158L46.39733999999999,44.4080453600202L46.52406,128.4453392795154L47.030939999999994,16.553500158446166L47.15766,72.9265637397766L47.28438,68.01643272808619L47.664539999999995,82.78457977090562L47.79126,99.6910279052598L48.171420000000005,108.89008201871599L48.6783,41.80652293988634L48.93174,21.43831111703599L49.18518,30.9314847758838L49.3119,10.192175924777965L49.43862,59.16756399188722L49.56534,79.48430677822657L49.69206,36.38739103930337L49.818780000000004,93.17469370365141L50.072219999999994,105.99236772741587L50.32566,27.173001715115134L50.705819999999996,26.451003415243957L50.83254,36.29044387170244L50.95926,32.0507667660713L51.2127,19.66036863837922L51.33942,28.648610702582754L51.46614,58.82024219206399L51.71957999999999,16.58424593721116L51.8463,107.09838683264594L52.099740000000004,108.94690142359049L52.22646,59.341677035604185L52.4799,57.36825771842683L52.60662,24.11869495255605L52.986779999999996,100.70729646512439L53.493660000000006,123.44153914281299L53.62038,24.339981666633047L53.747099999999996,22.479485264846243L53.87382,3.570379180567597L54.12726,58.19586927550177L54.25398,10.237729413168763L54.50742,30.15764065299714L54.76086,67.74130322252L54.88758,63.30524499075751L55.0143,36.193873490606016L55.141020000000005,9.659550522054943L55.394459999999995,74.65469504254203L55.52118,107.59612180505479L56.53494,128.83301491396765L57.041819999999994,34.90285221167971L57.548700000000004,23.632602683135428L57.675419999999995,10.195793075220918L57.80214,-7.345804069723418L58.30902,25.80854474646703L58.43574,24.909494468144004L58.56246,55.185156711510224L58.68918,6.8987604464803365L59.06934,130.57968411275317L59.19606,69.16107245002473L59.57622,4.630241938999715L59.70294,8.954243864331909L59.95638,56.21054350478307L60.083099999999995,13.352322016443523L60.20982,35.89135160616464L60.463260000000005,44.21791888986314L60.58998,74.96339622565677L60.716699999999996,15.392507902213492L60.84342,70.26656405414853L60.97014,29.472831181117453L61.09686,76.91183459758757L61.47702,82.42305311986377L61.60374,17.071468566145192L61.85718,15.602566378457194L62.364059999999995,46.41254956381659L62.49078,24.776564189365928L62.74422,136.94910925626752L62.997659999999996,29.157423198223093L63.12438,19.40068737949643L63.757979999999996,2.2799984386988936L64.13814,33.881685427256976L64.26486,65.45722343240465L64.39157999999999,11.717822160039612L64.5183,18.628614153180788L64.77174,24.07683397190911L65.27862,2.2697121671267806L65.53206,14.43995394025529L65.7855,18.059892603329246L65.91222,56.49117409331456L66.03894,27.32424381801058L66.54582,111.28723543882369L66.67254,27.06433648722512L66.92598,13.051457992621817L67.17942000000001,-1.9931373085294395L67.43285999999999,12.562464467116751L68.06645999999999,74.1101255076272L68.44662,28.33308968373705L68.57334,30.645955962794158L68.9535,5.8164035337311715L69.20694,23.889118935380647L69.33366,-2.771992691925588L69.46038,19.592961532729003L69.71382,-2.0520667178290397L69.84054,95.25952879020144L69.96726000000001,17.339891271931773L70.47413999999999,8.011147243635987L70.60086,1.6568689176014408L70.8543,57.826091000011964L71.23446,3.8673623033932194L71.74134,21.97888671500341L71.86806,41.882784528391696L71.99478,4.847270965576152L72.1215,-0.14255039181029217L72.37494000000001,22.413886734417503L72.7551,100.1576779910496L72.88181999999999,37.62068862574441L73.00854,25.09713414737154L73.3887,19.48712220362253L73.51542,21.796409010887125L73.76886,36.257135944707045L74.52918,30.662798319544088L74.78262000000001,10.59232319252831L74.90934,44.25748147283281L75.03605999999999,14.13852473667688L75.16278,21.465025280203115L75.28949999999999,3.242235813822062L75.54294,50.139608630112214L75.66966000000001,22.354090716157625L76.30326,72.47061439071382L76.42998,20.970078527927377L76.68342,193.70525167669567L76.93686,48.19030364922113L77.06358,75.75947075230734L77.19030000000001,52.16600412981848L77.44373999999999,42.9727525285312L77.57046,49.923031747341135L77.69718,78.79410925933291L77.8239,27.731587707996347L78.07734,73.55455380678175L78.20406,36.39304283687044L78.45750000000001,27.956981394972097L78.58421999999999,53.153147092887316L78.83766,37.453621489661074L79.0911,12.400370912892466L79.34454000000001,16.365483692714133L79.47126,44.91214802435464L79.59798,7.828368110316132L79.85141999999999,12.788724763052796L79.97814,41.19993434633527L80.3583,138.48764158998213L80.48502,4.353831359318319L80.61174,22.097612142562845L80.86518000000001,24.69310597862515L81.11861999999999,88.26444965600966L81.24534,14.254160514899649L81.37206,38.5194751535143L81.49878,26.83589082956312L82.13238,217.4427261011941L82.63926,2.6419395548956706L82.76598,188.43988634858812L83.01942000000001,32.4166264619146L83.39958,62.75185865163801L84.28662,17.995725861617483L84.41334,3.9467135412352397L84.92022,74.60590119021278L85.04694,82.86020082235335L85.17366,11.711718218667155L85.42710000000001,3.353124082088451L85.68054,20.014133487428914L85.93397999999999,20.197967622961293L86.18742,10.972877562046031L87.3279,26.451832345553793L87.45462,148.84463598898478L87.58134,30.287858068943002L87.70806,20.428146498543864L87.96149999999999,13.79195650986261L88.08821999999999,40.778800070285776L88.46838,36.63377173457826L88.84854,30.91419027532849L89.22869999999999,30.972968970026265L89.60885999999999,5.791384909834178L89.73558,-2.24422783511025L89.8623,83.90627319472175L89.98902,-1.0615326762199402L90.11574,9.265620231628398L90.36918,36.75705627884183L90.49589999999999,1.1185163600104167L90.62262,98.44608761583055L90.87606,28.29247209855486L91.00278,25.58360320329664L91.12950000000001,3.5288573077746688L91.38294,6.228005111217479L91.63637999999999,-2.1907241514751172L91.7631,15.022691948073243L92.26998,1.730681393827708L92.77686,50.98308289902548L93.28374,44.73524676050458L93.41046,27.60186011450631L93.6639,7.2739267689841105L93.79062,15.13501200505663L94.04406,94.55750017506732L94.2975,49.02141932078768L94.67766,8.914078422955098L95.5647,6.60618572575704L95.94486,9.757213584014334L96.07158000000001,77.85805854627063L96.45174,17.92990125928605L96.57845999999999,112.05885652133395L96.70518,29.61913738080431L96.95862,24.528563312121786L97.08534,58.19485195193971L97.21206000000001,35.68008741310663L97.33878,2.675322839191976L97.59222,-0.49134165900093607L98.22582,0.3932400175503238L98.35254,4.854467587811595L99.11286,1.3768035088266504L99.3663,4.7184476596968485L99.49302,-4.512972414493561L99.61974000000001,13.866937024252747L99.74646000000001,-7.824059179850993L99.87317999999999,-1.078111282416758L99.9999,8.61645476307187L100.12662,-6.903871178627014L100.25334,-5.733798367636556L100.38006,38.350448727607706L100.50678,20.920606459890077L100.76022,4.222483583859029L101.14038,0.043883570602956334L101.2671,19.781844607421316L101.39382,5.435698449611644L101.64726,5.500882514885488L101.77398000000001,34.75575476033345L102.15414,14.579666376113872L102.40758,0.3601958411080328L102.66102,17.866035946777885L102.78774,-3.0893599646432284L103.1679,29.73643101964677L103.29462000000001,-0.7815426247460726L103.42134,18.533550918102243L103.67478,25.057872993605468L103.8015,9.956985788685923L103.92822,-5.551056912967143L104.18166000000001,58.4344504901341L104.4351,10.945485183170858L104.56182,27.19025853701998L104.94198,50.80678449358258L105.0687,6.086408742836538L105.19542,4.657408245972219L105.32214,-5.0499685406684875L105.44886000000001,116.38741756337028L105.7023,6.216249372277924L105.82902,25.720715812274374L105.95573999999999,72.24096301623752L106.20918,16.184060990810373L106.3359,12.396000189440583L106.84277999999999,26.560196144240233L106.9695,1.928569665976919L107.09622,31.56765111003602L107.34966,44.413471085684634L107.47638,196.69949867044176L107.6031,10.346545355660563L107.72982,53.34074909346442L107.98325999999999,19.474914320877616L108.2367,10.277857175895132L108.36341999999999,8.69509010655538L108.49014,16.88948068448473L108.74358000000001,12.721053906849447L108.99702,-0.9056184206690163L109.37718,652.3853986092976L109.5039,24.696044913360037L109.88406,39.04166357006345L110.39093999999999,22.79700325216565L110.51765999999999,4.981821426323476L110.7711,18.321382437433492L110.89782,64.63029009103774L111.15126000000001,59.28787192276544L111.65813999999999,28.00483328104017L111.78486,48.49798750877378L112.03829999999999,61.44606734173636L112.29174,41.24778623240334L112.79862,6.135315631117137L113.17878,67.88478352342332L113.3055,1.917379106794068L113.55894,39.042304107121055L113.68566,5.198925810200816L113.81238,19.204080181462412L113.9391,49.58252978324888L114.06581999999999,66.93200348956243L114.19254,17.083676448890127L114.31926,10.33411140101296L114.44598,90.19393566676547L114.5727,18.352806431906554L115.07957999999999,198.43015444278714L115.2063,33.63462651627404L115.45974,12.69287027631486L115.71318,301.0125410045896L116.09334000000001,282.4051655530929L116.34678,15.342922798224844L116.4735,13.521612192903229L116.60022,81.9033891728946L116.98038,76.0313975725855L117.1071,88.5667077898979L117.23382000000001,37.95116806881768L117.36054,19.53305247851778L117.48725999999999,89.83455669879912L117.74069999999999,22.567917057446067L117.86742,9.149381594998484L118.12086000000001,11.618576594761434L118.3743,53.6914619718279L118.50102000000001,29.986315829413268L118.62773999999999,6.9057686754635315L118.75446,-2.5957696437835693L118.88118,28.6911122202873L119.00789999999999,55.215337310518514L119.26134,41.53327736684252L119.38806,30.684199792998168L119.76822000000001,27.786749252251212L120.2751,5.646209069660726L120.65526,9.532987935202454L120.78198,16.194912442139213L120.90870000000001,15.37442214999879L121.03541999999999,112.9423831956727L121.16214,22.02282002142496L121.28886,23.987874678203024L121.41557999999999,7.447964455400178L121.5423,135.71814774615422L121.79574000000001,-3.3056354182107333L121.92246,10.85618678161076L122.04918,3.9406472785132243L122.55606,2.1676783817154854L123.06294,7.303353794983449L123.18966,62.69601889167512L123.4431,2.5442764929362593L123.56981999999999,-4.239500769547048L123.69654,45.10988558190207L123.82326,45.1271800824574L123.94998,20.388320165021067L124.0767,137.9269079140254L124.45686,23.358113714626853L124.58358,-2.0998055679457694L124.71029999999999,81.23779581274302L125.3439,37.8173711810793L125.59734,-0.40588647978645853L125.72406,114.09146899836402L125.85078,0.5977974108287154L125.97749999999999,1.5016328777585655L126.23094,1.166405924728933L126.61110000000001,68.22867656605582L126.73782,-2.535144695213857L127.11798,15.668240266186839L127.2447,6.7703516057559305L127.37142,16.493138960429587L127.49814,7.13828362737382L127.62486,15.471482353551036L127.87830000000001,54.938662980283986L128.25846,27.982640555926718L128.38518,85.09469550848006L128.63862,65.96275788545607L129.01878,28.566207494054506L129.1455,58.81843361684252L129.27222,75.03920567035674L129.52566000000002,8.657524492059418L129.65238,8.48936467511312L129.7791,10.637499894414612L129.90582,30.220187212739656L130.03253999999998,-1.1794291734695435L130.15926,14.994508317538656L130.28598,39.244902210576186L130.53942,14.654910641057139L130.91958,4.511667226042063L131.0463,40.22089229311261L131.55318,78.64655966418128L131.6799,8.538648349898194L131.93334000000002,18.237848869391836L132.18678,-1.3969480225018205L132.69366,-4.908183779035318L132.82038,10.014106622764029L132.9471,133.10057422092981L133.07382,68.38492992946078L133.32726,12.118723000798889L133.5807,34.78209213699613L133.83414,62.83185042653764L134.2143,2.79585684197289L134.34102000000001,4.763586682932709L134.46774000000002,35.36238103253499L134.59446,44.755630910396555L134.72118,4.267584928444448L134.97462,87.92846912997108L135.10134,15.602340306554504L135.22806,22.224325444017122L135.4815,11.929048674447184L135.60822000000002,218.77330996309007L135.86166,75.51173362561633L136.24182,5.6950406006404215L136.49526,3.6622020517076623L136.62198,65.69523946728025L136.7487,36.90615069866178L137.12886,232.25510787963864L137.50902,30.69961036103112L137.63574,6.885158453668864L137.88918,220.8929601226534L138.14262,14.105329845632824L138.39606,-7.970629130091003L138.52278,23.277632117271402L139.02966,49.77307071856088L139.2831,23.414782404899576L139.40982,29.04118456159318L139.53654,32.46790710517336L139.66325999999998,26.90548329693929L139.9167,5.988029786518636L140.04342,0.35386582783288634L140.17014,88.96561166218348L140.29686,42.92972350972039L140.80374,38.97203342403684L141.05718,-1.0146604350635264L141.18390000000002,10.643942943641104L141.31062,18.847979256084983L141.43734,10.708900937012258L141.56406,53.084647306374116L142.07094,7.559983083180013L142.19765999999998,-5.508140930107656L142.32438000000002,116.37132877962928L142.4511,24.57735716445104L142.95798,57.2317102892058L143.0847,11.439075504030498L143.21142,44.566295691898866L143.33813999999998,50.248650644506704L143.46486000000002,122.2551137975284L143.7183,40.662373040403615L143.84502,11.000269940921225L143.97173999999998,31.71893089158193L144.09846,47.53051280123845L144.3519,19.127215734549917L144.73206,-0.7288301927702936L144.9855,33.64310421262468L145.11221999999998,22.064831716673705L145.36566,84.04003240380968L145.49238,4.166267037391643L145.6191,-4.275709952626932L145.87254,15.562928438186626L145.99926000000002,37.42886661631719L146.25269999999998,7.9384651269231465L146.37942,17.734763528619478L147.01301999999998,5.254539498261037L147.26646,20.034291565418222L147.39317999999997,21.632506881441365L147.5199,58.56643880265097L147.64661999999998,-4.518850283963368L147.77334,20.126641937664573L147.90006,280.6724751336234L148.02678,6.604603222438254L148.28022,41.85535447086606L148.40694,49.29669954095567L148.53366000000003,1.1708896841321617L148.91382000000002,30.954431074006205L149.04054,9.021198826176768L149.16726,16.773882584912425L149.29398,35.75540703535078L149.54742,24.905500531196573L150.30774,-4.867453157901764L150.43446,-1.214131210531524L150.56118,7.519064068794231L150.81462000000002,18.620701636586855L151.3215,-4.27849817276001L151.70166,-5.882553679602498L152.08182,16.81050623314721L152.46197999999998,52.920971248831044L152.58870000000002,-0.14673272200994814L152.84214,5.260228974478577L152.96886,7.31548632042748L153.09558,35.504730973924886L153.2223,8.40221395662851L153.47574,-0.8342927353722933L153.60245999999998,23.727025381156363L153.72918,-7.038723068577931L153.8559,9.951635420322399L153.98262,-7.900358447006765L154.23606,-2.4894028135708512L154.36278,18.978272029331748L154.48950000000002,27.67653919969285L154.74293999999998,16.79038583380834L154.86966,23.720582331929872L155.1231,19.17216636453355L155.50325999999998,48.86392256191797L155.62998000000002,22.423306397029318L155.88342,15.657049707003988L156.13685999999998,17.02697007996694L156.26358000000002,19.764248677662437L156.3903,12.672749876975994L156.51702,8.72787053244454L156.89718,87.36517330578394L157.0239,12.500859873635417L157.15062,13.590187336717316L157.27733999999998,172.2669285024915L157.53078,5.052808003766184L157.6575,-6.825348871094868L158.67126,0.6724764960152594L159.05142,242.48606719289506L159.17813999999998,49.69816556147165L159.43158,5.857134154864706L159.5583,37.225703333105336L159.68502,17.594335198402383L159.81174,6.42781499453953L160.1919,77.46476879290171L160.31862,-6.7633298124585775L160.57206,69.48156705072947L160.69878,41.27453807422091L160.8255,0.9785024949482425L160.95221999999998,0.15262415579385435L161.33238,21.198109720434438L162.34614,6.711196124553661L162.47286,-3.348023899963918L162.59958,2.1881755675588277L162.85302,2.9478525178772896L163.10646,1.8444709181785388L163.23318,5.182950062411163L163.3599,2.2003457716533004L163.61334000000002,27.25559331689561L163.74006,25.418570714337474L163.86678,7.717969664505544L163.9935,1.5586029972348838L164.12022,-5.742012313434062L164.50038,14.862406969070415L164.62709999999998,10.903059022767192L164.75382000000002,19.736780941486337L165.38742,-7.246746897697449L165.64086,2.6365138292312427L165.76757999999998,-4.597787056650451L166.02102,8.448671732630046L166.14774,1.7371998003550826L166.40117999999998,40.51780005863733L167.1615,-5.729879787990031L167.28822000000002,4.2152492829731445L167.54165999999998,-3.128206653254384L167.92182,300.3032027312687L168.42870000000002,53.660904586315134L168.55542,4.32749398265565L168.68213999999998,-6.58284907681602L168.80886,44.64029656137738L168.93558,42.758813151291434L169.18902,4.423310790743144L169.44245999999998,-5.018845975399017L169.56918000000002,13.710608303546886L169.6959,3.5946442314556584L169.82261999999997,-2.7705232245581657L169.94934,55.33884792668477L170.07605999999998,-0.6764945472989707L170.20278,-6.1835684180259705L170.70966,55.33858417613164L170.96310000000003,33.02653077670504L171.08982,33.37633936745778L171.72342,6.76202462400708L171.85014,41.228306370122084L172.10358000000002,-5.372535467147827L172.35701999999998,75.31282802990503L172.48374,16.37848282711846L172.61046,129.93232721941808L172.8639,9.090979686805166L173.24406000000002,59.85542543445314L173.37078,69.20979094505309L173.75093999999999,8.575460391385203L174.00438,4.771762950079773L174.38454000000002,144.82138505152292L174.7647,57.63668042421339L174.89141999999998,8.794900851590281L175.14486,-1.8036890540804238L175.27158,4.244676308972483L175.3983,40.45412313938139L175.52502,84.0325720310211L175.65174,-3.1096687572343233L175.77846000000002,579.9549376027924L175.90518,15.569032379559102L176.15862,53.960864322526106L176.28534,18.224623663084838L176.41206,-1.1169579710279136L176.79222,30.612685714449178L176.91894000000002,46.29502985307146L177.17237999999998,0.371725508144918L178.18614,16.84694148812974L178.31286,15.699777296611227L178.43958,26.5816729749952L178.56629999999998,4.000367939472179L178.69302000000002,3.35643980332783L178.94646,-7.019582314150686L179.07318,0.574700398104523L179.1999,-6.114126665251607L179.32662,8.966338711125498L179.58006,233.00431016513278L179.70677999999998,108.2360183256013L179.83350000000002,-3.286909128938425L180.21366,26.230432595525453L180.34038,-4.012260828699401L180.59382,9.979894408157888L181.86102,13.907479252134033L182.24117999999999,35.682875633239725L182.36790000000002,12.951948676790508L182.49462,-7.674474937575216L182.62134,0.11321228742597522L182.87478,3.920376164572571L183.0015,12.867962964943471L183.12822,-1.9653304644993486L183.38165999999998,-2.6404188445636487L183.76182,11.148610787732249L183.88854,59.31262679610933L184.01525999999998,21.813854226044242L184.14198,8.172110438346843L184.2687,24.696911522320335L184.39542,24.779578481401693L184.52213999999998,3.4435528431619775L184.64886,-2.7483304994447115L184.9023,43.769354556288015L185.15573999999998,-0.11041050297873922L185.28246000000001,-4.152387729712901L185.5359,16.5466803227152L185.78934,-7.032091626099172L186.04278000000002,13.86177504914147L186.1695,81.73006738083701L186.29622,16.57591895546231L186.42294,-1.1695196884019259L186.54966,17.04004457167215L186.67638,4.220034471579947L187.18326000000002,-7.441206412655995L187.81686,1.4388979247638045L187.94358,-2.1767453721591687L188.19701999999998,252.9683431046349L188.32374000000002,3.494305985314494L188.45046,10.539535403251628L188.83061999999998,-0.30034857988357544L188.95734000000002,6.828791192599692L189.08406,-6.177502155303955L189.3375,5.012303454535339L189.59094,23.92084435905728L189.71766000000002,81.68372264078684L190.09782,13.879220264298564L190.35126,12.892454087734203L190.6047,-8.382984280586243L190.73141999999999,-7.453225902148661L190.98486,4.014120646885457L191.11157999999998,15.289833579744588L191.49174,0.996851997716075L191.61846,31.23155754804609L191.74518,52.837173930236254L191.99862000000002,-1.7586630667958885L192.12534,2.9272046174321797L192.25205999999997,11.959756774561738L192.63222000000002,-6.511334998267049L192.75894,-0.492057553359446L192.88566,12.308171255247926L193.01238,4.003796696662883L193.1391,50.02517856870378L193.26582,-0.9277357884815873L193.51926,1.1410105143274438L193.89942,91.00282093456812L194.02614,-4.401745038373158L194.27958,14.664518696921204L194.78645999999998,1.7228442345346582L194.91318,-4.905169486999512L195.16662,-8.196098174367656L195.29334,21.05587281499589L195.67350000000002,23.370623026575338L195.92693999999997,-7.752205993448007L196.18037999999999,53.90159580537249L196.43382,56.130815480436574L196.56054,80.54326524904795L196.68726,0.4013032487460433L196.81398000000002,2.780596988541728L197.06742,-7.341169595718384L197.44758000000002,72.72230777570178L197.5743,0.9675756863185225L197.82774,28.00554917539868L197.95446,-7.28073304040092L198.08118,70.14233754362378L198.33462,24.137232848576133L198.8415,7.19981286355427L199.09494,-7.0486325536455485L199.22165999999999,-5.569067307880941L199.4751,9.006730224404999L199.60181999999998,-6.213749017034281L199.72854,-1.2977401358740839L199.85526,103.0918652159827L199.98198000000002,158.94405913352963L200.1087,63.76232469933371L200.61558,1.9615384851183069L200.7423,2.507803559303264L200.86902,-0.14579075574874878L200.99573999999998,2.2700512749808146L201.12246000000002,-3.7899191124098808L201.62934,-2.3346942748342183L201.75606,23.939947434834068L201.88278,-4.4031391484396964L202.0095,12.752364865371145L202.13621999999998,-8.089957416057587L202.6431,-1.5015816347939852L203.02326,13.633103319576803L203.27669999999998,16.38940963574816L203.53014,29.885261688913594L203.65686000000002,26.870668223925986L203.78358,-5.81774640083313L205.1775,-9.48960624422347L205.43094,29.04853189843041L205.55766,14.5855819242341L205.68438,-4.440290297780741L205.93782000000002,29.84430499587739L206.06454,37.85474840232302L206.19126,10.121453097888388L206.57142,6.484521363462718L206.95157999999998,23.508413851261118L207.0783,-0.7114226562636408L207.20502,14.857734816414958L207.45846,55.63341961588178L207.58517999999998,69.24656530788965L207.7119,42.19427393163953L207.96534,8.676024709429058L208.09206,-5.417599133082804L208.3455,0.7452339700290023L208.47222000000002,9.77375451156071L208.59894,5.355857389313822L208.72565999999998,7.645212190491801L208.85238,20.948714733123758L208.9791,1.9289841311318365L209.23254,-7.094223720686788L209.35926,-4.10344316278188L209.73942,37.06700085742131L210.37302,-3.30247041157316L210.8799,34.36751394612447L211.89366,99.66141248600822L212.02038,47.08692204952238L212.14710000000002,108.15037475313456L212.27382,-7.938677634511698L212.40053999999998,51.06209502901349L212.7807,-7.356241055897298L212.90742,14.126053103378835L213.16085999999999,-6.872258790901723L213.28758000000002,-4.228837711470479L213.54101999999997,58.953285506793414L213.66774,-6.68239607129781L213.79446,3.547545918396535L213.92118,26.213627917425963L214.17462,34.781225528035826L214.42806000000002,91.30470228195189L214.55478,28.388590335845926L214.68150000000003,4.70066333668572L214.93493999999998,14.550691493919912L215.06166000000002,23.937159214700948L215.18838,41.16926392487115L215.44182,79.95871866600852L215.69526,0.038985346044810076L216.45558,-0.3040410876274109L217.46934,-0.37329444714956606L217.59606,0.7849849462508959L218.10294000000002,-10.038395787988414L218.73654000000002,6.6904728668076485L218.86326,-1.4697054965155634L219.37014,-8.742626999105743L219.75029999999998,24.202492271150838L219.87702000000002,0.584157739366801L220.25718,-8.673260603632263L220.3839,1.1363760403224288L220.63734,-5.5026775257928255L220.76406,11.734815231391348L220.89077999999998,-1.3837228161948236L221.0175,53.83878549507684L221.27094,-4.968846406255472L221.39766,6.253099092415395L221.77782,29.786694339343466L221.90454,20.467332295009054L222.03126,26.359821081161478L222.15798,51.05399411916731L222.2847,2.0833158833639933L222.79158,10.376160774912151L223.17174,14.09387553589684L223.29846,48.80544529642377L223.42517999999998,41.44571218320299L223.55190000000002,22.57511367968149L223.80534,58.98218503168649L223.93206,35.87183406523294L224.05878,-5.592352713857401L224.1855,37.82969209977556L224.31222,23.33166330201284L224.43894,3.8978443316050826L224.56565999999998,8.516757053988313L224.69238,0.3413941945348411L224.8191,88.30457741873603L225.19926,-7.258125850132528L225.4527,42.894682364804396L226.08630000000002,13.882121520383006L226.21302,210.99334686143055L226.33974,18.361547878810324L226.59318,17.697913808482024L227.10005999999998,0.2754188776016039L227.48022,33.53696345431462L227.73366,-3.736076320920694L228.24053999999998,26.240342080593088L228.36726000000002,0.9154284340994671L228.49398,-3.45781948736738L228.6207,29.647019582135325L229.00086,3.345437637397207L229.2543,-3.9427813972745565L229.38102,-5.171708260263732L229.50774,47.16649935926709L229.63446,11.725734676633545L229.8879,1.6172686559813334L230.14134,10.823783142226075L230.26806,12.534619944436198L230.64822,149.86260008811948L230.77494,10.729511158806925L231.02838,7.319970079830709L231.15509999999998,4.281902815614411L231.28182,1.5418736764362797L231.91541999999998,-9.080491457666687L232.04214000000002,41.83191835028783L232.16886,-2.556470811367035L233.18262000000001,8.329117374760752L233.30934,26.419843171324025L233.43606000000003,11.105318018368306L233.68949999999998,46.896531828812165L233.81622000000002,-1.8461905717849731L233.94294,-8.415312562670044L234.06966,18.98791776384625L234.19638,-5.5329334821019795L234.44982,-6.626782383237589L234.70326,10.153065485613679L234.9567,-2.222675647054422L235.21014,-4.544094979763031L235.46358,54.336256716932546L235.59029999999998,19.661649712494437L235.84374,5.745605349540691L236.09718,4.758311671870087L236.2239,62.52861264773775L236.47734,-0.4926980904170726L236.60406,-3.977935578141916L237.11094000000003,13.745724805763784L237.23766,99.83205909388404L237.36437999999998,19.6859147633825L237.49110000000002,9.928915194102682L237.61782,15.726416102477469L237.74454,34.41623244115282L237.87126,46.96344911200658L238.1247,18.237170653683787L238.25142000000002,17.491171053477682L238.37814,57.454353434698916L238.50485999999998,9.682798249380921L239.01174,16.35384098972592L239.26518,29.4687242082187L239.39190000000002,22.29418166194642L239.51862,28.30004550729478L239.77206,5.889311722346701L240.0255,-3.5743972318513277L240.27894,9.752013930252614L240.53238000000002,7.082782975264944L240.6591,26.426964436258565L240.78582,22.445612158094118L241.03925999999998,24.20772960356302L241.16598000000002,24.389604449272134L241.2927,13.530843462262817L241.41942,-8.77506831714087L241.54614,38.787068928991026L241.67286000000001,0.06453147104806578L241.79958,-5.963148312909291L242.05302,-3.8278238347598768L242.5599,2.1531721012932747L242.68662,1.0932339855602726L242.94006,-1.7583993162427574L243.06678,28.206301024981894L243.44694,-5.7973999295915934L243.57366,105.31565916538237L243.70038,13.41068624598638L243.8271,178.682020170348L243.95382,32.32713966710225L244.20726,20.763938631330202L244.71414,80.04658527885164L244.96758,60.12203956501822L245.0943,90.86785600866587L245.22102,23.60769709518976L245.60118,-0.40697916064946393L245.7279,18.09399178198404L245.98134000000002,-7.029830907072356L246.10806,40.1413149833679L246.23478,65.42146639313016L246.48821999999998,-3.7920667954853715L246.74166,-1.5646556956427606L246.86838,46.64370808431078L247.12182,71.88373173134666L247.37526,38.87470946993146L247.62869999999998,8.984462141990642L247.75542000000002,4.194714418479361L248.00886,15.030566786016713L248.13558,14.58629781859261L248.2623,-3.339018702507019L248.38902,22.183406429631358L248.64246,2.0640620929854228L249.02262,43.86946673052651L249.14934,72.92686516898017L249.27606,-8.414785061563782L249.40278,7.112549109118317L249.52949999999998,7.928630999156393L249.78294,17.496483743190744L249.90966,-6.4938521044595126L250.03638,-6.312165652002624L250.1631,7.268312650067454L250.28982,6.15294923952646L250.41654,-3.67895548684257L250.54326,-3.9332486987113953L250.66997999999998,68.20693598474774L250.92342,39.968219263213015L251.05014,29.165298036166586L251.17686,-3.6306137783186943L251.68374,-1.4993962730680137L252.0639,3.4303653155054223L252.19062000000002,-6.556360985551584L252.31734,47.79950068678174L252.6975,5.538900273186808L252.82422,42.12434235640932L252.95094,45.40675566877637L253.07766,128.01670695202688L253.20438,-0.3197907635143937L253.45782,38.88013519559587L253.58453999999998,10.066291553633546L253.71126,24.869404384068076L254.09142,1.4146705525261847L254.21814,29.003430553844993L254.47158000000002,4.712532111576619L254.72501999999997,22.14000062431607L254.85174,11.87026997974939L255.2319,33.13956672804696L255.48534,9.316787838935833L255.61206,20.1590832556997L255.73878,9.481744970594116" style="fill: none;" fill="none"></path></g></g></g></g></g></g><g transform="translate(51, 177)" clip-path="url(#clip_1)"><clipPath id="clip_1"><rect width="278" height="23"></rect></clipPath><g><g><line x1="0" y1="0" x2="0" y2="5" style="visibility: inherit;" fill="rgb(0, 0, 0)" stroke="rgb(204, 204, 204)" stroke-width="1px"></line><line x1="30.9375" y1="0" x2="30.9375" y2="5" style="visibility: inherit;" fill="rgb(0, 0, 0)" stroke="rgb(204, 204, 204)" stroke-width="1px"></line><line x1="61.875" y1="0" x2="61.875" y2="5" style="visibility: inherit;" fill="rgb(0, 0, 0)" stroke="rgb(204, 204, 204)" stroke-width="1px"></line><line x1="92.8125" y1="0" x2="92.8125" y2="5" style="visibility: inherit;" fill="rgb(0, 0, 0)" stroke="rgb(204, 204, 204)" stroke-width="1px"></line><line x1="123.75" y1="0" x2="123.75" y2="5" style="visibility: inherit;" fill="rgb(0, 0, 0)" stroke="rgb(204, 204, 204)" stroke-width="1px"></line><line x1="154.6875" y1="0" x2="154.6875" y2="5" style="visibility: inherit;" fill="rgb(0, 0, 0)" stroke="rgb(204, 204, 204)" stroke-width="1px"></line><line x1="185.625" y1="0" x2="185.625" y2="5" style="visibility: inherit;" fill="rgb(0, 0, 0)" stroke="rgb(204, 204, 204)" stroke-width="1px"></line><line x1="216.5625" y1="0" x2="216.5625" y2="5" style="visibility: inherit;" fill="rgb(0, 0, 0)" stroke="rgb(204, 204, 204)" stroke-width="1px"></line><line x1="247.5" y1="0" x2="247.5" y2="5" style="visibility: inherit;" fill="rgb(0, 0, 0)" stroke="rgb(204, 204, 204)" stroke-width="1px"></line><line x1="278.4375" y1="0" x2="278.4375" y2="5" style="visibility: inherit;" fill="rgb(0, 0, 0)" stroke="rgb(204, 204, 204)" stroke-width="1px"></line></g><g transform="translate(0, 8)"><text x="0" y="0" dx="0em" dy="0.95em" style="text-anchor: middle; visibility: hidden; font-family: Roboto, sans-serif; font-size: 12px; font-weight: 200;" fill="rgb(33, 33, 33)" stroke="none" stroke-width="1px">-500k</text><text x="30.9375" y="0" dx="0em" dy="0.95em" style="text-anchor: middle; visibility: inherit; font-family: Roboto, sans-serif; font-size: 12px; font-weight: 200;" fill="rgb(33, 33, 33)" stroke="none" stroke-width="1px">0</text><text x="61.875" y="0" dx="0em" dy="0.95em" style="text-anchor: middle; visibility: inherit; font-family: Roboto, sans-serif; font-size: 12px; font-weight: 200;" fill="rgb(33, 33, 33)" stroke="none" stroke-width="1px">500k</text><text x="92.8125" y="0" dx="0em" dy="0.95em" style="text-anchor: middle; visibility: inherit; font-family: Roboto, sans-serif; font-size: 12px; font-weight: 200;" fill="rgb(33, 33, 33)" stroke="none" stroke-width="1px">1M</text><text x="123.75" y="0" dx="0em" dy="0.95em" style="text-anchor: middle; visibility: inherit; font-family: Roboto, sans-serif; font-size: 12px; font-weight: 200;" fill="rgb(33, 33, 33)" stroke="none" stroke-width="1px">1.5M</text><text x="154.6875" y="0" dx="0em" dy="0.95em" style="text-anchor: middle; visibility: inherit; font-family: Roboto, sans-serif; font-size: 12px; font-weight: 200;" fill="rgb(33, 33, 33)" stroke="none" stroke-width="1px">2M</text><text x="185.625" y="0" dx="0em" dy="0.95em" style="text-anchor: middle; visibility: inherit; font-family: Roboto, sans-serif; font-size: 12px; font-weight: 200;" fill="rgb(33, 33, 33)" stroke="none" stroke-width="1px">2.5M</text><text x="216.5625" y="0" dx="0em" dy="0.95em" style="text-anchor: middle; visibility: inherit; font-family: Roboto, sans-serif; font-size: 12px; font-weight: 200;" fill="rgb(33, 33, 33)" stroke="none" stroke-width="1px">3M</text><text x="247.5" y="0" dx="0em" dy="0.95em" style="text-anchor: middle; visibility: inherit; font-family: Roboto, sans-serif; font-size: 12px; font-weight: 200;" fill="rgb(33, 33, 33)" stroke="none" stroke-width="1px">3.5M</text><text x="278.4375" y="0" dx="0em" dy="0.95em" style="text-anchor: middle; visibility: hidden; font-family: Roboto, sans-serif; font-size: 12px; font-weight: 200;" fill="rgb(33, 33, 33)" stroke="none" stroke-width="1px">4M</text></g><line x1="0" y1="0" x2="278.4375" y2="0" fill="rgb(0, 0, 0)" stroke="rgb(204, 204, 204)" stroke-width="1px"></line></g></g></g></g></svg>