<svg viewBox="0 0 330 200" xmlns="http://www.w3.org/2000/svg"><g><g><g><g><g><line x1="72.34375" y1="177" x2="67.34375" y2="177" style="visibility: inherit;" fill="rgb(0, 0, 0)" stroke="rgb(204, 204, 204)" stroke-width="1px"></line><line x1="72.34375" y1="157.33333333333331" x2="67.34375" y2="157.33333333333331" style="visibility: inherit;" fill="rgb(0, 0, 0)" stroke="rgb(204, 204, 204)" stroke-width="1px"></line><line x1="72.34375" y1="137.66666666666666" x2="67.34375" y2="137.66666666666666" style="visibility: inherit;" fill="rgb(0, 0, 0)" stroke="rgb(204, 204, 204)" stroke-width="1px"></line><line x1="72.34375" y1="118.00000000000001" x2="67.34375" y2="118.00000000000001" style="visibility: inherit;" fill="rgb(0, 0, 0)" stroke="rgb(204, 204, 204)" stroke-width="1px"></line><line x1="72.34375" y1="98.33333333333334" x2="67.34375" y2="98.33333333333334" style="visibility: inherit;" fill="rgb(0, 0, 0)" stroke="rgb(204, 204, 204)" stroke-width="1px"></line><line x1="72.34375" y1="78.66666666666666" x2="67.34375" y2="78.66666666666666" style="visibility: inherit;" fill="rgb(0, 0, 0)" stroke="rgb(204, 204, 204)" stroke-width="1px"></line><line x1="72.34375" y1="59.00000000000001" x2="67.34375" y2="59.00000000000001" style="visibility: inherit;" fill="rgb(0, 0, 0)" stroke="rgb(204, 204, 204)" stroke-width="1px"></line><line x1="72.34375" y1="39.33333333333333" x2="67.34375" y2="39.33333333333333" style="visibility: inherit;" fill="rgb(0, 0, 0)" stroke="rgb(204, 204, 204)" stroke-width="1px"></line><line x1="72.34375" y1="19.666666666666675" x2="67.34375" y2="19.666666666666675" style="visibility: inherit;" fill="rgb(0, 0, 0)" stroke="rgb(204, 204, 204)" stroke-width="1px"></line><line x1="72.34375" y1="0" x2="67.34375" y2="0" style="visibility: inherit;" fill="rgb(0, 0, 0)" stroke="rgb(204, 204, 204)" stroke-width="1px"></line></g><g transform="translate(62.34375, 0)"><text x="0" y="177" dx="0em" dy="0.3em" style="text-anchor: end; visibility: hidden; font-family: Roboto, sans-serif; font-size: 12px; font-weight: 200;" fill="rgb(33, 33, 33)" stroke="none" stroke-width="1px">0</text><text x="0" y="157.33333333333331" dx="0em" dy="0.3em" style="text-anchor: end; visibility: inherit; font-family: Roboto, sans-serif; font-size: 12px; font-weight: 200;" fill="rgb(33, 33, 33)" stroke="none" stroke-width="1px">200</text><text x="0" y="137.66666666666666" dx="0em" dy="0.3em" style="text-anchor: end; visibility: hidden; font-family: Roboto, sans-serif; font-size: 12px; font-weight: 200;" fill="rgb(33, 33, 33)" stroke="none" stroke-width="1px">400</text><text x="0" y="118.00000000000001" dx="0em" dy="0.3em" style="text-anchor: end; visibility: inherit; font-family: Roboto, sans-serif; font-size: 12px; font-weight: 200;" fill="rgb(33, 33, 33)" stroke="none" stroke-width="1px">600</text><text x="0" y="98.33333333333334" dx="0em" dy="0.3em" style="text-anchor: end; visibility: hidden; font-family: Roboto, sans-serif; font-size: 12px; font-weight: 200;" fill="rgb(33, 33, 33)" stroke="none" stroke-width="1px">800</text><text x="0" y="78.66666666666666" dx="0em" dy="0.3em" style="text-anchor: end; visibility: inherit; font-family: Roboto, sans-serif; font-size: 12px; font-weight: 200;" fill="rgb(33, 33, 33)" stroke="none" stroke-width="1px">1e+3</text><text x="0" y="59.00000000000001" dx="0em" dy="0.3em" style="text-anchor: end; visibility: hidden; font-family: Roboto, sans-serif; font-size: 12px; font-weight: 200;" fill="rgb(33, 33, 33)" stroke="none" stroke-width="1px">1.2e+3</text><text x="0" y="39.33333333333333" dx="0em" dy="0.3em" style="text-anchor: end; visibility: inherit; font-family: Roboto, sans-serif; font-size: 12px; font-weight: 200;" fill="rgb(33, 33, 33)" stroke="none" stroke-width="1px">1.4e+3</text><text x="0" y="19.666666666666675" dx="0em" dy="0.3em" style="text-anchor: end; visibility: hidden; font-family: Roboto, sans-serif; font-size: 12px; font-weight: 200;" fill="rgb(33, 33, 33)" stroke="none" stroke-width="1px">1.6e+3</text><text x="0" y="0" dx="0em" dy="0.3em" style="text-anchor: end; visibility: hidden; font-family: Roboto, sans-serif; font-size: 12px; font-weight: 200;" fill="rgb(33, 33, 33)" stroke="none" stroke-width="1px">1.8e+3</text></g><line x1="72.34375" y1="0" x2="72.34375" y2="177" fill="rgb(0, 0, 0)" stroke="rgb(204, 204, 204)" stroke-width="1px"></line></g></g><g transform="translate(72, 0)" clip-path="url(#clip_0)"><clipPath id="clip_0"><rect width="257" height="177"></rect></clipPath><g><g><g><line x1="0" y1="0" x2="0" y2="177" fill="rgb(0, 0, 0)" stroke="rgb(66, 66, 66)" stroke-width="1px" opacity="0.25"></line><line x1="28.62847222222222" y1="0" x2="28.62847222222222" y2="177" fill="rgb(0, 0, 0)" stroke="rgb(66, 66, 66)" stroke-width="1px" opacity="0.25"></line><line x1="57.25694444444444" y1="0" x2="57.25694444444444" y2="177" fill="rgb(0, 0, 0)" stroke="rgb(66, 66, 66)" stroke-width="1px" opacity="0.25"></line><line x1="85.88541666666666" y1="0" x2="85.88541666666666" y2="177" fill="rgb(0, 0, 0)" stroke="rgb(66, 66, 66)" stroke-width="1px" opacity="0.25"></line><line x1="114.51388888888889" y1="0" x2="114.51388888888889" y2="177" fill="rgb(0, 0, 0)" stroke="rgb(66, 66, 66)" stroke-width="1px" opacity="0.25"></line><line x1="143.14236111111111" y1="0" x2="143.14236111111111" y2="177" fill="rgb(0, 0, 0)" stroke="rgb(66, 66, 66)" stroke-width="1px" opacity="0.25"></line><line x1="171.77083333333331" y1="0" x2="171.77083333333331" y2="177" fill="rgb(0, 0, 0)" stroke="rgb(66, 66, 66)" stroke-width="1px" opacity="0.25"></line><line x1="200.39930555555557" y1="0" x2="200.39930555555557" y2="177" fill="rgb(0, 0, 0)" stroke="rgb(66, 66, 66)" stroke-width="1px" opacity="0.25"></line><line x1="229.02777777777777" y1="0" x2="229.02777777777777" y2="177" fill="rgb(0, 0, 0)" stroke="rgb(66, 66, 66)" stroke-width="1px" opacity="0.25"></line><line x1="257.65625" y1="0" x2="257.65625" y2="177" fill="rgb(0, 0, 0)" stroke="rgb(66, 66, 66)" stroke-width="1px" opacity="0.25"></line></g><g><line x1="0" y1="177" x2="257.65625" y2="177" fill="rgb(0, 0, 0)" stroke="rgb(66, 66, 66)" stroke-width="1px" opacity="0.25"></line><line x1="0" y1="157.33333333333331" x2="257.65625" y2="157.33333333333331" fill="rgb(0, 0, 0)" stroke="rgb(66, 66, 66)" stroke-width="1px" opacity="0.25"></line><line x1="0" y1="137.66666666666666" x2="257.65625" y2="137.66666666666666" fill="rgb(0, 0, 0)" stroke="rgb(66, 66, 66)" stroke-width="1px" opacity="0.25"></line><line x1="0" y1="118.00000000000001" x2="257.65625" y2="118.00000000000001" fill="rgb(0, 0, 0)" stroke="rgb(66, 66, 66)" stroke-width="1px" opacity="0.25"></line><line x1="0" y1="98.33333333333334" x2="257.65625" y2="98.33333333333334" fill="rgb(0, 0, 0)" stroke="rgb(66, 66, 66)" stroke-width="1px" opacity="0.25"></line><line x1="0" y1="78.66666666666666" x2="257.65625" y2="78.66666666666666" fill="rgb(0, 0, 0)" stroke="rgb(66, 66, 66)" stroke-width="1px" opacity="0.25"></line><line x1="0" y1="59.00000000000001" x2="257.65625" y2="59.00000000000001" fill="rgb(0, 0, 0)" stroke="rgb(66, 66, 66)" stroke-width="1px" opacity="0.25"></line><line x1="0" y1="39.33333333333333" x2="257.65625" y2="39.33333333333333" fill="rgb(0, 0, 0)" stroke="rgb(66, 66, 66)" stroke-width="1px" opacity="0.25"></line><line x1="0" y1="19.666666666666675" x2="257.65625" y2="19.666666666666675" fill="rgb(0, 0, 0)" stroke="rgb(66, 66, 66)" stroke-width="1px" opacity="0.25"></line><line x1="0" y1="0" x2="257.65625" y2="0" fill="rgb(0, 0, 0)" stroke="rgb(66, 66, 66)" stroke-width="1px" opacity="0.25"></line></g></g></g><g><g><line x1="0" y1="177" x2="257.65625" y2="177" fill="rgb(0, 0, 0)" stroke="rgb(153, 153, 153)" stroke-width="1.5px"></line></g></g><g><g><line x1="28.62847222222222" y1="0" x2="28.62847222222222" y2="177" fill="rgb(0, 0, 0)" stroke="rgb(153, 153, 153)" stroke-width="1.5px"></line></g></g><g><g><g><g><g><path stroke="rgb(255, 112, 67)" stroke-width="2px" d="M29.214783333333333,136.02772776285806L29.44930777777778,124.19448399992068L29.566570000000002,80.59212604537193L30.03561888888889,21.27245932576178L30.15288111111111,-218.54248264091848L34.022534444444446,-6.148308445472029L34.13979666666667,3.3739147617482725L34.374321111111115,13.281357486855205L34.60884555555556,21.337825623060994L34.72610777777778,-1.8192565984302846L35.077894444444446,8.465721922201668L35.19515666666666,16.426759808451997L35.31241888888889,25.519077571586138L35.42968111111111,33.9043182398903L35.54694333333334,22.416211984091714L35.89873,15.426784233380456L36.01599222222222,24.5105128567042L36.25051666666667,28.887544570518145L36.485041111111116,12.154805455978245L36.60230333333333,-15.761457398803326L37.30587666666666,-9.728186627842454L37.42313888888889,0.14376996322273505L37.54040111111111,9.462949401388194L37.774925555555555,4.812452740605256L38.00945,11.047005467837756L38.126712222222224,15.342748667101825L38.71302333333333,23.665372376447145L38.830285555555555,-15.650402917522584L38.94754777777778,-6.635964080741079L39.06481,2.9651687263675126L39.18207222222222,4.16091507966856L39.29933444444445,-9.015784151137716L39.885645555555556,0.45952832894930806L40.941005555555556,9.431249415077733L41.17553,6.8264377239830845L41.29279222222222,15.344974090550277L41.41005444444445,23.257999032575878L42.230889999999995,30.700224737673953L42.582676666666664,37.98497133748423L42.81720111111111,43.668359766276104L42.934463333333326,46.51045795711034L43.05172555555556,52.7988138500609L43.52077444444444,58.91503439349029L43.63803666666667,64.45020078279148L43.75529888888889,68.18579947785958L44.10708555555556,69.91994786289682L44.22434777777778,74.31028402491361L44.57613444444445,78.65850225956235L45.045183333333334,82.81784778693128L45.27970777777778,86.8683161591623L45.514232222222226,91.16785951490601L45.63149444444444,95.16282696125035L45.74875666666667,98.80036572797955L45.86601888888889,89.29282591045413L45.98328111111111,93.31826602965083L46.100543333333334,69.83545853758237L46.33506777777777,74.74760218747598L46.56959222222222,79.12076605073844L46.92137888888889,83.45277702294105L47.03864111111111,87.73217842926321L47.155903333333335,91.13352894979568L47.39042777777778,94.82814118502041L47.50769,98.47510191298282L47.62495222222223,102.02664885942774L47.859476666666666,105.08378262333216L47.97673888888889,108.15799375050788L48.211263333333335,110.86893677754546L48.32852555555556,113.69474786820375L48.563050000000004,102.86714393374719L48.68031222222222,102.34064814090512L49.03209888888889,105.4406884035894L49.50114777777778,108.40302712643215L49.61841,111.11127461008518L49.73567222222222,113.91656949960588L49.85293444444444,116.58544392978722L50.08745888888889,119.18254855180834L50.20472111111111,119.87980929637371L50.43924555555556,122.38308918627811L50.673770000000005,122.74836760195366L50.79103222222222,124.99550142918193L50.908294444444444,127.20216384499332L51.02555666666667,128.96964590936747L51.260081111111106,130.92869895908842L51.377343333333336,132.72248890744137L52.31544111111111,134.33941254227213L52.78449,134.13890021178673L53.25353888888889,135.00447203343887L53.370801111111106,134.9696591255715L53.488063333333336,136.71122654562132L53.95711222222222,137.8578184069382L54.074374444444445,139.25590830297728L54.19163666666667,140.64890617498762L54.30889888888888,140.69957419213813L54.66068555555555,141.9378209436298L54.77794777777778,136.51317716072705L55.129734444444445,137.70960591066944L55.24699666666667,138.84788595812284L55.481521111111114,136.39184456593085L55.59878333333333,135.00022880332014L55.71604555555556,125.40186073131956L55.950570000000006,127.24284139059593L56.06783222222222,128.91449281860486L56.185094444444445,130.52442288591809L56.30235666666667,132.13094479365773L56.41961888888889,133.78238900114613L56.53688111111111,133.38656570258212L56.88866777777778,135.11111574201465L57.00593,136.54333821586548L57.240454444444445,136.22774631291244L57.70950333333333,119.95323382342141L57.82676555555556,122.18941869133137L58.06129,124.29668332290923L58.295814444444446,126.10862471173479L58.41307666666667,128.23494862814042L58.99938777777778,130.23925690041844L59.351174444444446,131.66483462597986L59.46843666666667,133.74908428708608L59.585698888888885,133.73533974026412L59.702961111111115,134.78580070140808L59.937485555555554,136.3499955288126L60.406534444444446,137.67783066767032L60.64105888888889,139.1563583282455L60.87558333333334,140.26495593400756L60.992845555555554,141.29484255150575L61.11010777777778,142.67169789944015L61.57915666666667,143.79382176827636L61.696418888888886,144.6328258913351L61.93094333333333,145.088765242042L62.16546777777778,145.4684651559497L62.39999222222222,146.42708304326004L62.98630333333333,146.47668654610752L63.338089999999994,147.23153931359417L63.455352222222224,144.05898448310558L63.807138888888886,145.03549841412504L64.04166333333333,134.72339585283683L64.15892555555556,134.17769622239703L64.27618777777778,134.32979475032064L64.51071222222222,135.67765691040145L64.62797444444445,137.11200027469L64.74523666666667,134.27291705784182L65.21428555555555,135.6216346740358L65.33154777777777,133.5297187421291L65.56607222222222,135.05470001332824L65.91785888888889,135.92470836656585L66.38690777777778,116.50096144862995L66.50417,118.00097704618759L66.62143222222223,119.9051487498873L66.73869444444445,122.27182845070236L66.9732188888889,124.47914153194009L67.32500555555556,126.46962868540334L67.44226777777777,128.49464872866432L67.55953,129.74938832031933L67.91131666666666,131.4241535426404L68.02857888888889,133.0332558927875L68.26310333333333,134.40589439139382L68.96667666666666,136.06443920517242L69.20120111111112,137.40167829643897L69.31846333333333,137.50257198756915L69.43572555555555,137.80902882462834L69.55298777777779,136.94501784364732L69.67025,138.2604385218876L69.90477444444444,139.258071770567L70.02203666666668,140.59187239046778L70.60834777777778,141.2598215931987L70.72561,142.46947545583413L70.96013444444445,143.50343240676992L71.19465888888888,143.08722255741165L71.3119211111111,143.74900106489986L71.42918333333334,143.97956669796758L71.66370777777777,144.7756431704497L71.78097,145.99754774135758L71.89823222222223,146.8109535024192L72.01549444444444,147.74658684128144L72.25001888888889,148.66321522067716L72.36728111111111,149.56944885899037L72.60180555555556,150.1497511556598L72.71906777777777,150.5628947732338L72.95359222222223,150.38039104039208L73.18811666666666,151.34207607390286L73.42264111111112,151.9421838700595L73.53990333333333,152.21314930869283L73.65716555555555,152.89096012166024L73.89169,153.29836044276877L74.00895222222222,153.61862080584822L74.36073888888889,149.1143110334999L74.47800111111111,149.39411733492574L74.59526333333332,149.89618897628134L74.82978777777778,150.22558270971325L75.06431222222221,150.72841818065277L75.18157444444445,151.3151341045667L75.29883666666667,151.97420917016905L75.41609888888888,152.5814754950982L76.00241,152.97233886447356L76.47145888888888,153.3108961466102L76.58872111111111,153.75486440597533L76.82324555555556,154.30981476959028L77.17503222222223,154.80539524658155L77.99586777777778,155.3931174097516L78.11313,156.11110435293253L78.58217888888889,156.30963078745813L78.69944111111111,156.76167582552148L78.81670333333334,156.96334857093095L79.05122777777778,156.7865159860061L79.28575222222223,156.84309515422098L79.52027666666666,157.0512216343977L79.75480111111112,156.7425629368627L80.81016111111111,157.0693379655181L80.92742333333334,157.1680064519632L81.04468555555555,156.9536541156598L81.16194777777778,157.385414607332L81.39647222222222,157.4257811754231L81.51373444444444,157.7315493749889L81.86552111111111,158.17175906795845L82.21730777777778,158.00660688406194L82.56909444444445,158.24967112048586L82.9208811111111,158.32313947072328L83.03814333333334,158.63161481709068L83.15540555555556,158.89890657534065L83.27266777777777,157.6889703484911L83.38992999999999,151.44917333898437L83.62445444444445,151.0381783647574L83.74171666666666,144.25183743779954L83.85897888888888,144.5458778177871L84.09350333333333,120.60152691575004L84.21076555555555,122.20747568117973L84.32802777777778,121.92561573937402L84.56255222222222,121.12922153097419L84.79707666666665,120.94354738529567L84.91433888888889,115.20272290885529L85.38338777777778,117.38907488633434L85.85243666666668,119.27364540922224L86.32148555555555,120.2458343101529L86.43874777777778,122.4263757493202L86.67327222222221,124.42456379038958L86.79053444444445,126.09273280357658L87.02505888888889,128.0085384103307L87.25958333333334,129.87092308529006L87.61137,131.42280317357813L88.43220555555556,132.83955917751283L88.78399222222222,134.32460059727407L88.90125444444445,135.72185617934986L89.25304111111112,137.2032415470164L89.37030333333333,138.43495084589486L89.48756555555555,139.5239440052324L89.72209,140.61204681090624L89.83935222222222,141.37963859723982L89.95661444444445,142.6160902268992L90.07387666666666,143.683271034229L90.30840111111111,144.75204652614195L90.89471222222222,145.77072433732826L91.01197444444445,146.88086058156003L91.71554777777777,147.84463049357075L91.95007222222222,148.65839755939285L92.06733444444444,149.4970163337034L92.18459666666666,149.79854620144104L92.3018588888889,150.69903198408437L92.41912111111111,151.4016053547072L92.53638333333333,151.6485560554164L92.65364555555556,152.4586854886699L92.77090777777778,152.9638013952628L92.88817,153.3654835391568L93.00543222222223,154.1069191211394L93.23995666666667,154.5127132107534L93.59174333333333,154.7178375829516L93.70900555555556,154.49300829128396L93.82626777777779,154.48037753102287L94.06079222222222,154.96467173172852L94.17805444444446,154.92641703135942L94.52984111111111,155.2137509896747L94.76436555555556,155.4190099186546L94.99888999999999,155.80563682181088L95.11615222222223,155.94369113688236L95.46793888888888,156.30678551560908L95.58520111111112,156.77396373876695L95.70246333333334,157.08342497218865L95.93698777777777,157.21809834585488L96.05425000000001,157.05745629225592L96.17151222222222,156.98409520368347L96.40603666666667,157.5155241827147L96.64056111111111,157.64310604245517L96.75782333333333,157.74519467601743L97.10961,158.33557763918319L97.22687222222223,158.68896288959593L97.34413444444444,159.1739669799867L97.46139666666667,159.77692458203725L97.5786588888889,160.09334157844194L97.81318333333333,160.3856439200356L97.93044555555556,160.61889590404627L98.04770777777777,160.9433871578321L98.28223222222222,160.83731573165588L98.39949444444444,160.61113580221402L98.86854333333333,160.94917405695404L98.98580555555556,161.04463761438836L99.10306777777778,160.69249657429108L99.33759222222223,153.92972549599125L99.45485444444445,152.07070699776006L99.57211666666666,152.83551753434574L99.68937888888888,153.08104737626323L99.92390333333333,153.793618256994L100.15842777777777,154.4944183444118L100.27569,155.07903083490385L100.39295222222222,155.70824702695478L100.62747666666667,156.2909822862484L100.86200111111111,156.71911360635704L101.09652555555554,156.2835967895177L101.21378777777778,156.59842249094078L101.33105,156.5103143589984L101.68283666666667,156.87776263699809L102.15188555555555,156.65787242218568L102.26914777777777,156.82833895169537L102.50367222222224,157.1139224917612L102.62093444444444,156.70556277908105L102.85545888888889,157.17842385585345L103.32450777777777,156.5162856259963L103.44177,156.59628566706448L103.67629444444444,156.71816924460526L103.9108188888889,156.65328621675806L104.37986777777779,157.02253989066838L104.73165444444444,157.4644601166916L104.84891666666667,154.41873839783187L105.08344111111111,154.894529865748L105.20070333333332,155.43488771825093L105.31796555555556,155.54982177124583L105.43522777777778,156.09067121020493L105.55248999999999,156.74669195209702L105.66975222222221,156.97850185086827L105.78701444444445,157.0057191271484L105.90427666666668,154.8911767348584L106.02153888888888,154.501940121594L106.49058777777778,154.5152094347468L106.60785,154.8620950546466L106.84237444444445,155.10783429323857L107.07689888888888,155.68846794027564L107.42868555555556,156.30556676808493L107.66321,156.48626247162693L107.78047222222223,156.84754260637573L107.89773444444444,157.14346912671613L108.24952111111111,156.72630855963777L108.36678333333333,157.32812545048728L108.48404555555555,157.6794352928228L108.60130777777778,157.10226292835515L108.71857,156.9561098776713L108.95309444444443,156.69888839148555L109.07035666666667,156.9595841945835L109.30488111111111,157.18235060595833L109.53940555555556,157.43752948833236L109.65666777777778,157.92654330076533L109.77393,158.30623964302845L109.89119222222222,158.76512354135312L110.00845444444445,158.3830731166964L110.12571666666666,158.68516357642656L110.36024111111111,158.9637581097684L110.47750333333333,157.6690811740813L110.82929,157.99403220086657L111.29833888888888,158.13631870739994L111.65012555555555,158.27270655118866L111.76738777777777,157.75342924615052L111.88465000000001,158.4549243098047L112.00191222222222,158.9536717204832L112.11917444444444,159.04555077718928L112.23643666666666,159.07331680099145L112.35369888888889,159.02555860824492L112.47096111111111,159.37897781225337L112.70548555555555,159.62822405173105L112.82274777777778,160.07647592419093L112.94001,160.09323425845574L113.4090588888889,159.0476540224208L113.87810777777777,159.43896928971887L113.99537,159.56116787571864L114.22989444444445,160.08789925504732L114.34715666666666,160.52559808765307L114.46441888888889,160.35670908261582L114.58168111111112,160.5074651611396L114.69894333333333,160.9416626867877L114.81620555555556,161.22679088140754L115.16799222222222,160.90695614210168L115.28525444444445,161.1049910282532L115.40251666666666,161.41756990553455L115.98882777777779,161.7825887317952L116.22335222222222,161.7378361986844L116.34061444444444,161.86238997986845L116.45787666666668,162.0682637755013L116.57513888888889,162.34485968634215L116.80966333333333,160.18328870710462L117.16145,160.56926636068857L117.27871222222221,160.90595804873112L117.6304988888889,160.1039053924936L117.7477611111111,160.48880680668486L117.86502333333334,160.98489825969335L117.98228555555556,161.2657422172817L118.09954777777777,161.4542550854414L118.33407222222223,161.78301645883917L118.68585888888889,161.4580235234689L118.80312111111111,161.13814376281425L119.03764555555556,160.7420933719843L119.38943222222223,160.73595115531657L119.50669444444445,160.97329681666682L119.62395666666666,161.0636298803372L119.85848111111112,161.20755149892574L119.97574333333333,160.93082577678317L120.09300555555555,161.27853257247568L120.21026777777779,161.47134025725762L120.32753,161.5888588119135L120.44479222222222,161.81361883236647L120.56205444444444,161.92175323909228L120.79657888888889,161.72940912896544L121.14836555555556,162.12713528913022L121.26562777777778,160.43761474905384L121.73467666666667,160.307760193104L121.85193888888888,158.67830713988758L122.08646333333334,156.2558481777534L122.32098777777777,155.74397492005005L122.55551222222222,154.8461213505413L122.67277444444444,155.35112626042275L122.79003666666667,155.26202324404477L122.90729888888889,155.34800567840665L123.02456111111111,155.48329578223706L123.14182333333333,153.92486627829362L123.37634777777777,153.85354374200583L123.61087222222223,154.02705457881805L123.84539666666666,154.4740708748567L124.19718333333333,154.50699034620442L124.31444555555555,155.0188659476006L124.43170777777779,154.51339005992523L124.54897,153.76664080423356L124.66623222222222,153.50363827754117L124.90075666666667,154.10372000445193L125.01801888888889,154.65332081166503L125.13528111111111,154.8921572608313L125.36980555555556,153.53020647672184L125.48706777777778,154.24907336166004L125.72159222222223,154.5483115220124L126.07337888888888,154.10885738182992L126.30790333333334,153.49420528163233L126.42516555555555,153.38146969303892L126.54242777777777,152.03226255655977L126.89421444444444,152.426574178768L127.24600111111111,152.7657739859845L127.36326333333334,152.5638984565341L127.59778777777778,153.24234352169134L127.83231222222223,147.45444503426037L128.06683666666666,148.1476466386822L128.18409888888888,148.89746256550237L128.65314777777778,149.79760224702216L128.88767222222222,150.66753164589386L129.00493444444444,151.20735669071715L129.12219666666667,151.42725479908142L129.2394588888889,152.08455731183759L129.47398333333334,150.38997642392778L129.59124555555553,151.13717211226293L129.70850777777778,151.81449905608972L129.82577,152.4300872632467L130.2948188888889,153.07412277767673L130.52934333333332,153.5811009624356L130.64660555555557,154.32137686856706L130.7638677777778,153.69984391125197L130.88112999999998,153.92888803797058L130.99839222222224,154.0678772107517L131.4674411111111,154.31221552413902L131.58470333333332,154.92604703793273L131.70196555555557,154.90528247824147L131.81922777777777,155.52043858520616L132.28827666666666,155.75794165620428L132.40553888888888,156.0657763963667L132.5228011111111,154.87885452243222L132.64006333333333,155.22633688456247L132.75732555555555,155.72551833898643L132.99185,155.48269887344986L133.10911222222222,155.16009080813018L133.22637444444445,155.6593174542786L133.34363666666664,154.37842043174928L133.57816111111111,154.98675757362062L133.92994777777778,155.55025866958027L134.16447222222223,153.5173449792452L134.28173444444442,153.7031252497142L134.5162588888889,154.3619156539519L134.6335211111111,154.72861538186737L134.75078333333335,155.22081239178493L134.98530777777776,127.13045703402483L135.10257000000001,128.22837703053713L135.33709444444443,129.73637645676118L135.45435666666668,131.10710037888654L136.04066777777777,132.58833629089017L136.27519222222222,133.3787330444656L136.39245444444444,134.29833259118143L136.50971666666666,135.79719309811514L136.62697888888889,137.1544854550876L136.7442411111111,138.42644325783988L136.86150333333333,139.67307321160195L136.97876555555555,140.07935110518216L137.21329,141.04930408596832L137.33055222222222,142.1844778460095L137.44781444444445,142.56471319748485L137.79960111111112,143.64303729611868L137.91686333333334,144.37897348724374L138.03412555555556,144.89870262482376L138.15138777777779,145.69806029703145L138.3859122222222,145.96676291114792L139.08948555555554,147.07377203592335L139.2067477777778,147.84052635354243L139.32401,148.64891020991925L139.55853444444446,149.18268801434562L140.02758333333333,148.7269539635622L140.37937,149.4512076142626L140.73115666666666,149.62335283810302L141.08294333333333,149.74017188926246L141.20020555555556,150.28244074409028L141.43473,150.3948546413342L141.55199222222222,150.3946290194563L141.66925444444445,150.8276428878506L141.78651666666667,150.33200132369822L142.02104111111112,149.97180464903298L142.1383033333333,150.543594151893L142.25556555555556,148.00453872713203L142.3728277777778,145.98450242899725L142.49008999999998,145.35277380565458L142.60735222222223,143.1362328835172L142.72461444444446,141.4353265636397L142.84187666666665,141.8308073032275L142.9591388888889,142.08310744303054L143.19366333333332,142.67815535736838L143.31092555555557,143.63426623319788L143.54545,144.26575511448078L143.89723666666666,145.17639094147023L144.01449888888888,144.8429852305578L144.24902333333335,145.82425183079613L144.48354777777777,146.20505621593097L144.60081000000002,147.38237741661993L144.71807222222222,148.25047076057726L144.83533444444444,148.70277914190086L145.1871211111111,149.15957656455663L145.30438333333333,149.52114779787277L145.42164555555556,149.86911307872515L145.53890777777778,150.1319687218878L145.77343222222223,150.18020778223305L145.89069444444442,150.90746406334875L146.8287922222222,151.43258207874842L147.18057888888887,152.08383899102114L147.2978411111111,152.45355932504972L147.53236555555554,152.68767845632135L147.6496277777778,153.1545272974316L147.76689,153.3876491126952L147.8841522222222,154.1515716173115L148.23593888888888,154.54710886209912L148.35320111111113,155.44945509663467L148.58772555555555,155.96180743475452L148.7049877777778,156.3117312320741L148.82225,156.82276383080477L148.93951222222222,155.36969603314444L149.2912988888889,154.34701398875018L150.22939666666667,151.4859966582493L150.34665888888887,151.13215087349352L150.46392111111112,150.47055974827575L150.69844555555554,149.80723749511478L150.93296999999998,147.564719878985L151.05023222222223,140.37329501174366L151.16749444444446,133.53569467359043L151.4020188888889,134.69471059909074L151.51928111111113,135.54115337317276L151.63654333333332,136.3941292573198L151.75380555555557,136.65144245540355L151.87106777777777,137.88929913258062L152.22285444444444,139.0897374517594L152.34011666666666,138.70805172917545L152.4573788888889,139.7444615498925L153.04369,140.92712594137177L153.27821444444444,142.09161017978505L153.39547666666667,142.17925309761466L153.6300011111111,143.32986525339786L153.7472633333333,144.29006239879894L153.98178777777778,144.84118310393228L154.6853611111111,145.08617362372345L154.80262333333334,145.98390466243683L155.03714777777776,146.1221652602069L155.27167222222224,147.27949312072673L155.38893444444443,148.39084496017892L155.85798333333335,149.2228598811306L155.97524555555555,149.63046092343072L156.09250777777777,150.14458384410693L156.20977000000002,150.22573135325658L156.32703222222221,148.8483708669332L156.56155666666666,147.25119528928474L156.7960811111111,146.019664541951L156.91334333333333,146.88067860514684L157.03060555555555,147.3755441334568L157.14786777777778,147.93933962855604L157.26513,147.819974842868L157.38239222222222,148.11527058645257L157.49965444444442,148.9863007042603L157.96870333333334,149.73048238077823L158.20322777777778,149.6103884553225L158.32049,150.11770734534122L158.90680111111112,150.38311509432577L159.02406333333334,149.89948592296315L159.2585877777778,150.9105477456403L159.4931122222222,151.58444472944188L159.61037444444446,151.94840891086733L159.72763666666665,152.70042598249012L159.96216111111113,153.27361148319065L160.3139477777778,153.52669834601232L160.43121,153.948443377137L160.78299666666666,154.19707228071871L161.0175211111111,154.89115919237352L161.36930777777778,155.28734565821057L161.72109444444445,155.08483391525772L161.83835666666667,150.99715977524022L162.07288111111112,149.5518196952103L162.19014333333334,149.28256394350234L162.30740555555556,149.47422043082634L162.42466777777778,150.16209715240842L162.54192999999998,150.72214859183592L162.65919222222223,151.32830321541593L162.77645444444445,150.94518411838618L163.0109788888889,151.7139341077946L163.12824111111112,152.43445107567862L163.24550333333332,152.92394758978614L163.59729,153.5587181776481L163.71455222222224,154.13396948647812L163.94907666666666,154.47164131371875L164.88717444444444,155.3172695370343L165.0044366666667,155.28160259211413L165.1216988888889,155.03793263910347L165.2389611111111,155.61663041581937L165.35622333333333,155.97424808580394L165.59074777777778,156.5795373504438L165.70801,156.99586401138941L165.82527222222222,157.47280055414168L165.94253444444445,157.91747662242256L166.1770588888889,158.37516320084734L166.2943211111111,158.25814418926282L166.41158333333334,158.4133694197309L166.76337,158.79970318224963L166.88063222222223,158.89479020102408L167.11515666666668,158.71720714823812L168.28777888888888,159.09264728152343L168.63956555555555,157.71936786849705L168.7568277777778,156.85605326840718L168.87409,157.21844615654118L168.99135222222222,157.2376600334065L169.22587666666666,157.51661200920404L169.3431388888889,157.48937518417515L169.4604011111111,157.94720849304093L169.69492555555556,158.45567506932477L170.0467122222222,158.3611170403967L170.16397444444445,158.6915472036967L170.28123666666667,159.18759890552866L170.39849888888887,159.0221043909061L170.51576111111112,158.0275900577947L170.63302333333334,158.6508969747099L170.75028555555554,158.90722798428126L170.8675477777778,159.32101571175585L171.1020722222222,159.82839102975998L171.33659666666665,159.9612451904302L171.4538588888889,160.05971824356124L171.68838333333332,160.1999018552581L171.9229077777778,160.53328003316577L172.15743222222224,161.0151505081056L172.27469444444444,161.39453094822056L172.39195666666666,161.26008030896176L172.5092188888889,161.34153185101897L172.6264811111111,159.06688817065879L172.74374333333333,159.62448927044696L173.21279222222222,159.78661123357054L173.79910333333333,160.25349285298333L173.91636555555556,160.62323965427336L174.15088999999998,160.97713000030524L174.26815222222223,157.88335312573756L174.38541444444445,157.09735382221353L174.73720111111112,156.9566210467726L174.85446333333334,157.27879674899128L174.97172555555557,157.7489056131459L175.20625,158.1813506230668L175.44077444444443,158.02438848436952L175.55803666666668,158.49754589184153L175.90982333333335,158.86606090834564L176.14434777777777,158.92526072522287L176.3788722222222,159.51524115629266L176.49613444444444,159.2245730760883L176.73065888888888,157.10120458565464L176.8479211111111,157.45431657087997L177.19970777777777,157.44032216389564L177.31697,158.05698263358678L177.43423222222222,158.70795696344004L177.66875666666667,159.2655239723695L177.7860188888889,159.00256604284485L177.90328111111108,159.28653994025706L178.25506777777778,159.57312176880063L178.37233,159.5950184109209L178.48959222222223,158.5245090522645L178.60685444444445,157.9095831474825L178.72411666666667,158.24647328522863L178.84137888888887,158.42959860956378L179.07590333333334,155.92918781157258L179.42769,156.8024279051833L179.5449522222222,157.06876675823548L179.77947666666665,157.14971508821108L180.24852555555555,157.51868694043404L180.3657877777778,158.10772491269742L180.60031222222221,158.56082238275567L180.71757444444444,158.89089174996639L181.0693611111111,159.1253493254014L181.30388555555555,159.4518213299311L181.53841,160.04076593180767L181.77293444444445,160.17886452944336L181.89019666666667,160.66619704772725L182.0074588888889,161.1120320673705L182.1247211111111,161.3994225834732L182.35924555555556,161.43161622124697L182.71103222222223,161.72081409797963L182.82829444444445,160.91969207136435L183.0628188888889,160.76473982787303L183.18008111111112,161.28757843010985L183.29734333333332,161.3357840588261L183.5318677777778,161.75720929591267L184.00091666666665,162.16712468586357L184.2354411111111,162.58826253052445L184.35270333333332,159.99767246308025L184.58722777777777,160.37179866213592L184.70449,160.60980087494892L184.82175222222222,160.5060996075992L184.93901444444444,160.6778418480851L185.0562766666667,161.18719376755982L185.17353888888888,161.5553688056426L185.64258777777778,161.5592867234944L185.75985,161.54440327034584L185.87711222222222,161.51663474918286L185.99437444444445,161.9854436964873L186.11163666666667,159.28557388084425L186.34616111111112,159.77787726573575L186.58068555555556,160.16786063913312L186.69794777777776,160.67466624672826L186.81521,160.99194243298805L186.93247222222223,161.23865576793247L187.04973444444443,161.6827676134012L187.16699666666668,161.80300088851322L187.51878333333335,161.55253106055892L187.87057000000001,161.99180086602095L188.10509444444443,162.31930332976438L188.33961888888888,161.30218063408103L188.45688111111113,161.72391238263515L188.57414333333332,161.91999229590797L188.69140555555555,162.3283445475168L188.8086677777778,162.8423707065367L189.27771666666666,161.9345050856386L189.86402777777778,162.16088764423813L190.09855222222222,162.548713548332L190.21581444444445,162.59628089088403L190.33307666666667,162.92147285512382L190.56760111111112,163.29282849233078L190.68486333333334,163.36038077295515L190.80212555555553,158.3168007703588L191.1539122222222,158.8714652764169L191.50569888888887,159.2368740866978L191.62296111111112,159.87700654559126L191.74022333333332,159.5213918178295L191.9747477777778,159.9760479928021L192.09201,160.26526457636717L192.20927222222224,160.4016149187158L192.44379666666666,160.5893468800452L192.5610588888889,161.0153760786557L192.79558333333333,161.19312964728655L192.91284555555558,161.48357489272578L193.03010777777777,162.04426662385853L193.14737,162.3008976784485L193.26463222222222,162.6023813627939L193.38189444444444,162.87356109480476L193.6164188888889,162.39923882289125L193.7336811111111,162.624075014961L194.08546777777778,163.04247918072704L194.6717788888889,163.39943964984212L195.1408277777778,163.68723494983598L196.07892555555557,164.11420495639285L196.19618777777777,163.80772101294536L196.31345000000002,163.98590742501577L196.4307122222222,164.17682483439955L196.54797444444443,164.17927951400526L196.8997611111111,164.51039801333147L197.01702333333336,163.89464286918547L197.25154777777777,164.2456967396473L197.36881,161.91432650939507L197.60333444444444,162.25430396927484L197.72059666666667,162.30653158977066L197.8378588888889,162.73588600081914L197.9551211111111,162.94999200430092L198.18964555555556,163.09897218619037L198.42417,163.58386134066717L198.54143222222223,163.44083307745666L198.65869444444445,163.49203848499536L198.8932188888889,163.71714691205378L199.01048111111112,157.43620021098232L199.12774333333334,157.72868460096623L199.3622677777778,158.41784247614763L199.5967922222222,158.92123312122553L200.30036555555554,159.4914530152538L200.53489,160.01633897121107L201.00393888888888,160.14714155110306L201.23846333333333,160.14617327003634L201.35572555555555,160.72761794407677L201.82477444444444,161.26150608920588L202.41108555555556,161.44830268848298L202.52834777777778,161.36945480081377L202.99739666666665,161.81595623336526L203.34918333333331,161.90091961783347L203.46644555555557,161.28691101843188L203.81823222222224,161.67221274025604L203.93549444444443,161.84681308206913L204.1700188888889,162.27229838876076L204.2872811111111,162.4307886303538L204.40454333333332,162.70042369135422L204.52180555555557,161.828279760001L204.75633,161.92159184240504L204.87359222222221,162.41018562700395L205.22537888888888,162.8057948346013L205.3426411111111,163.29259250316227L205.45990333333336,163.3991110535616L205.57716555555555,162.8393246280299L205.69442777777778,162.4480089551001L206.16347666666667,162.49084053757784L206.51526333333334,161.9855035583064L206.63252555555556,162.5372541003516L206.74978777777778,162.85983194391292L206.86705,162.93018602949724L207.10157444444442,163.19550792003895L207.21883666666668,163.50253771507704L207.3360988888889,163.72619874296353L207.4533611111111,163.77216653612135L207.57062333333334,163.55599907896453L207.68788555555557,163.67471341741538L207.80514777777776,163.69979455333782L207.92241,162.23158382499957L208.0396722222222,162.61985973374553L208.39145888888888,162.91902174265863L208.62598333333335,163.38381843537186L209.21229444444447,161.84041246894589L209.32955666666666,162.22145093960972L209.44681888888888,161.52688812519352L209.68134333333333,161.92240035434543L210.15039222222222,161.89903483034155L210.5021788888889,162.15949685123493L210.73670333333334,162.4691794761974L211.2057522222222,162.61434248686936L211.32301444444445,162.83308013483932L211.44027666666668,163.24185336401857L211.55753888888887,163.28794011247413L211.90932555555554,163.20360965678736L212.14385,163.5992990021722L212.26111222222224,163.81396936446185L212.37837444444446,163.56277791655327L212.49563666666666,163.6883467589662L212.7301611111111,163.94185448446902L212.96468555555558,164.23638450448792L213.08194777777777,164.39263587977317L213.43373444444444,164.67044173964396L213.55099666666666,164.77285430435444L213.7855211111111,164.74705829807024L213.90278333333333,164.7196476006757L214.02004555555555,164.32072805633527L214.60635666666664,164.493204764633L214.7236188888889,164.4192291170589L214.84088111111112,164.38464489916169L215.7789788888889,164.5083431803012L215.8962411111111,164.3194559590303L216.01350333333335,164.64240854718972L216.24802777777776,163.08447706432895L216.36529000000002,162.95935608332522L216.4825522222222,163.15081807347048L216.59981444444443,163.32257575441713L216.71707666666669,163.6501381154542L216.83433888888888,163.45383365948007L216.9516011111111,163.66192058037774L217.18612555555555,164.01197499602537L217.42065,164.09142623973915L217.53791222222222,164.21068171760814L217.65517444444444,164.34214259124107L217.8896988888889,164.29850599950046L218.0069611111111,163.7240815247716L218.24148555555556,163.96965551580396L218.47601,164.22068178402517L218.59327222222223,163.70978613527396L218.82779666666667,164.03527515912245L218.9450588888889,164.10958393318435L219.4141077777778,163.90094363423023L219.53137,162.9895709596598L219.6486322222222,163.38304730606058L219.76589444444446,163.11089338054634L219.88315666666668,163.0101193655616L220.00041888888887,163.21402662372904L220.11768111111112,163.55451571587224L220.35220555555554,163.90938738478548L220.4694677777778,164.19949500630955L220.58673,162.13483503463988L220.7039922222222,162.23135025617452L221.17304111111113,162.62474904305859L221.40756555555555,162.94245777951443L221.52482777777777,161.87097203907794L221.64209,161.32497986158288L221.87661444444444,161.86418636338442L222.1111388888889,162.05438117678662L222.34566333333333,160.73050758201796L222.58018777777778,161.03921133970192L222.69745,161.3313238896551L222.81471222222223,161.62593021294884L223.04923666666667,159.47364425629715L223.1664988888889,159.85261790819789L223.28376111111112,160.22477838508718L223.4010233333333,160.55741418608835L223.51828555555556,160.64248235770435L223.6355477777778,160.98472505602194L223.75280999999998,161.33568012300435L223.87007222222223,161.61124788280466L223.98733444444446,161.95853185808988L224.45638333333332,162.29112835809107L224.57364555555557,162.39460104505508L224.80817,162.4405694371688L224.92543222222224,162.6372350990689L225.27721888888888,162.87236527285182L225.3944811111111,163.0852452951386L225.51174333333333,163.23051791133767L225.62900555555555,163.49438249009026L225.74626777777777,163.58827837298625L225.98079222222222,163.8525449346582L226.4498411111111,164.28213201955217L226.68436555555556,164.24527393338576L226.80162777777778,164.24088228668393L226.91889,163.30901678664824L227.27067666666667,163.06082890711397L227.3879388888889,163.07253289683723L227.62246333333334,163.2103934072739L227.73972555555557,163.0688405604881L227.85698777777776,163.26702452746386L228.0915122222222,163.08402257985858L228.20877444444443,163.2891514940226L228.32603666666668,163.32209937204976L228.44329888888888,163.80613600342028L228.67782333333335,163.83591467154153L228.91234777777777,162.78972810951393L229.1468722222222,162.565230135333L229.26413444444447,162.39662628491809L229.49865888888888,162.34603181505287L229.61592111111113,162.6524449237275L229.73318333333333,162.973929918218L229.85044555555555,163.02056075512166L230.08497,156.63743749234928L230.43675666666667,157.24405548716746L230.5540188888889,157.67369168553654L230.6712811111111,158.23429830126173L230.78854333333334,158.62365269988376L230.90580555555556,159.03332742255049L231.14033,159.49665143584275L231.2575922222222,159.9089754955203L231.37485444444445,160.34889408372038L231.49211666666667,159.89938038183337L231.60937888888887,159.473977852915L231.72664111111112,160.023521461846L231.84390333333334,160.2503476686711L231.96116555555554,160.38058891153963L232.19568999999998,160.54583937827547L232.3129522222222,158.74180443857722L232.43021444444446,159.074544849176L232.89926333333332,156.47081323761725L233.25105,157.12389328229463L233.36831222222224,157.63485319543514L233.48557444444444,158.32832394667668L233.8373611111111,158.66978499111326L233.95462333333333,159.2911878593758L234.07188555555555,159.8583720914121L234.18914777777778,159.97851450419583L234.30641,160.3285596944625L234.54093444444445,160.23017850335918L234.65819666666667,160.61611961773693L234.7754588888889,160.43788697440502L235.12724555555556,160.72633177961035L235.24450777777778,160.62241211496658L235.47903222222223,160.60480563122752L235.71355666666665,160.74806552132753L235.8308188888889,161.17776508759206L236.18260555555557,161.41486972007363L236.41713000000001,161.1506500848288L236.53439222222224,161.583672831391L236.65165444444443,161.8696019579947" style="fill: none;" fill="none"></path></g></g></g></g><g opacity="0.2"><g><g><g><path stroke="rgb(255, 112, 67)" stroke-width="2px" d="M29.214783333333333,136.02772776285806L29.44930777777778,112.95290242513019L29.566570000000002,-0.1812420654297069L30.15288111111111,-1063.741767578125L30.387405555555556,36.26066874186198L30.50466777777778,107.08834299723307L30.62193,156.74187489827474L30.739192222222222,138.69367502848309L30.856454444444445,141.14283162434896L30.973716666666668,29.30245707194011L31.090978888888888,0.5864829508463522L31.20824111111111,-210.33713663736984L31.67729,160.08875078837076L31.794552222222222,127.30186579386393L32.73265,-274.022686360677L32.84991222222222,-91.62287556966145L33.08443666666667,166.03612216949463L33.43622333333334,-314.75750976562495L33.553485555555554,139.94544443766276L33.78801,-78.475185546875L33.90527222222222,140.4463148498535L34.022534444444446,161.01949193318686L34.13979666666667,128.68846242268881L34.374321111111115,146.55834309895835L34.60884555555556,131.94989532470703L34.72610777777778,-325.8590454101562L35.077894444444446,154.959425684611L35.19515666666666,131.71285161336263L35.31241888888889,159.24183815002442L35.42968111111111,159.02773478190105L35.54694333333334,-151.35024454752605L35.89873,-91.64762695312501L36.01599222222222,165.34016956329347L36.25051666666667,97.51210235595703L36.485041111111116,-252.96566894531253L36.60230333333333,-462.4829370117188L36.719565555555555,19.77172200520834L36.83682777777778,83.26003489176433L37.18861444444445,-81.90153564453125L37.30587666666666,33.17325174967448L37.42313888888889,164.81151611328124L37.54040111111111,165.9910352198283L37.774925555555555,-73.81126627604168L38.00945,117.10419677734374L38.126712222222224,88.84564310709635L38.71302333333333,166.85697353363037L38.830285555555555,-695.6107682291666L38.94754777777778,150.0359364827474L39.06481,170.61151353200276L39.18207222222222,25.131968994140628L39.29933444444445,-241.07252115885416L39.885645555555556,167.988605855306L40.941005555555556,168.6484066772461L41.17553,-39.56324991861979L41.29279222222222,167.56071946461995L41.41005444444445,165.1015751393636L42.230889999999995,164.50446676890056L42.582676666666664,169.32975017547608L42.81720111111111,146.41608866373699L42.934463333333326,98.02256062825522L43.05172555555556,167.04843139648438L43.52077444444444,170.29152132670083L43.63803666666667,165.46431509653726L43.75529888888889,136.4988473002116L44.10708555555556,101.69420989990235L44.22434777777778,154.90173047383627L44.57613444444445,158.61670066833494L45.045183333333334,159.43004229227702L45.27970777777778,161.59267791748047L45.514232222222226,170.60583508809407L45.63149444444444,169.07817162831623L45.74875666666667,166.19307799021402L45.86601888888889,-87.07829589843752L45.98328111111111,168.08326984405517L46.100543333333334,-366.8148787434896L46.33506777777777,166.18590660095214L46.56959222222222,160.61033788045248L46.92137888888889,164.25477953592937L47.03864111111111,167.62728682200114L47.155903333333335,154.69187187194825L47.39042777777778,163.92440048217773L47.50769,166.7345460128784L47.62495222222223,168.5505414835612L47.859476666666666,162.38796465555828L47.97673888888889,165.8215671666463L48.211263333333335,161.75153180440267L48.32852555555556,166.76593087514243L48.563050000000004,-100.60328247070312L48.68031222222222,92.44135172526042L49.03209888888889,163.75902114868165L49.50114777777778,164.15872988382975L49.61841,162.10876436869302L49.73567222222222,166.7652879333496L49.85293444444444,166.88564408620198L50.08745888888889,168.14997674306233L50.20472111111111,133.03146596272788L50.43924555555556,169.6169696044922L50.673770000000005,129.64312820434571L50.79103222222222,167.42495971679688L50.908294444444444,168.88052216847737L51.02555666666667,162.36292218526205L51.260081111111106,167.95181938171388L51.377343333333336,166.63149377187094L52.31544111111111,164.9128128306071L52.78449,130.3466190592448L53.25353888888889,151.37876205444337L53.370801111111106,134.31094863891602L53.488063333333336,169.67103748321534L53.95711222222222,159.56177408854165L54.074374444444445,165.7254522450765L54.19163666666667,167.02673567454022L54.30889888888888,141.65918665568034L54.66068555555555,165.39300557454428L54.77794777777778,33.74253356933594L55.129734444444445,160.37939949035643L55.24699666666667,160.41885075887043L55.481521111111114,89.84257649739584L55.59878333333333,108.62171040852866L55.71604555555556,-56.55969604492188L55.950570000000006,162.14723434448243L56.06783222222222,160.61182932535806L56.185094444444445,161.05450187683107L56.30235666666667,162.59931620279949L56.41961888888889,165.10558583577475L56.53688111111111,125.87827412923177L56.88866777777778,167.8264449818929L57.00593,163.71523208618163L57.240454444444445,130.2399432373047L57.70950333333333,-188.84887858072915L57.82676555555556,164.62293910980225L58.06129,164.28637596130372L58.295814444444446,160.49602778116864L58.41307666666667,168.59108582814534L58.99938777777778,168.28169728597007L59.351174444444446,158.72417772928873L59.46843666666667,173.3128353500366L59.585698888888885,133.47442509969076L59.702961111111115,154.72773256937663L59.937485555555554,166.04589458465577L60.406534444444446,162.8875026702881L60.64105888888889,167.22807848612467L60.87558333333334,161.31384674072265L60.992845555555554,160.84992335001627L61.11010777777778,168.81573734283447L61.57915666666667,165.10162315368652L61.696418888888886,160.56498835245768L61.93094333333333,153.7470100148519L62.16546777777778,152.67912195841473L62.39999222222222,164.63208883921305L62.98630333333333,147.41872375488282L63.338089999999994,161.56753491719564L63.455352222222224,83.80522552490234L63.807138888888886,163.58201634724935L64.04166333333333,-61.13385253906249L64.15892555555556,123.81305806477864L64.27618777777778,137.21869903564453L64.51071222222222,161.27889081319174L64.62797444444445,164.35628781636555L64.74523666666667,80.34582356770832L65.21428555555555,161.24027979532877L65.33154777777777,93.79361511230469L65.56607222222222,164.02221165974936L65.91785888888889,152.45100140889485L66.38690777777778,-252.46824055989586L66.50417,146.4952582804362L66.62143222222223,156.07715710957845L66.73869444444445,167.2301776123047L66.9732188888889,166.4105010986328L67.32500555555556,164.28238327026367L67.44226777777777,166.9637461344401L67.55953,153.58574190775553L67.91131666666666,163.24000282287597L68.02857888888889,163.60191978454588L68.26310333333333,160.4825567626953L68.96667666666666,167.5728085708618L69.20120111111112,162.80617090861003L69.31846333333333,139.41933349609374L69.43572555555555,143.63107788085938L69.55298777777779,120.53049886067708L69.67025,163.25098759969077L69.90477444444444,158.2113427480062L70.02203666666668,165.93184781392415L70.60834777777778,153.94979250590006L70.72561,165.45106839497885L70.96013444444445,163.14712811787925L71.19465888888888,135.17980382283528L71.3119211111111,156.32193412780762L71.42918333333334,148.36002955118815L71.66370777777777,159.90016403198243L71.78097,169.2123754119873L71.89823222222223,162.26480341593424L72.01549444444444,165.52268100738524L72.25001888888889,166.07828024546305L72.36728111111111,166.78706693013507L72.60180555555556,161.17499532063803L72.71906777777777,158.4122856903076L72.95359222222223,146.91296188354494L73.18811666666666,169.61338203430176L73.42264111111112,163.34381128946941L73.53990333333333,157.36131217956543L73.65716555555555,165.7689367167155L73.89169,161.03872166951498L74.00895222222222,159.70338483174643L74.36073888888889,63.53486877441405L74.47800111111111,154.71029286702475L74.59526333333332,159.43530436197915L74.82978777777778,156.483910446167L75.06431222222221,160.28206995646158L75.18157444444445,162.46249038696288L75.29883666666667,164.49637260437012L75.41609888888888,164.11930562337238L76.00241,160.39860221862793L76.47145888888888,159.7433687591553L76.58872111111111,162.19011713663735L76.82324555555556,164.85370044708253L77.17503222222223,164.22127904256183L77.99586777777778,166.55967484792075L78.11313,169.75266633351643L78.58217888888889,160.08158315022789L78.69944111111111,165.35042362213136L78.81670333333334,160.79508499145507L79.05122777777778,153.42673497517904L79.28575222222223,157.9180877685547L79.52027666666666,161.0055842844645L79.75480111111112,150.87810470581056L80.81016111111111,163.2780061594645L80.92742333333334,159.04269124348957L81.04468555555555,152.88099367777505L81.16194777777778,165.58879898071288L81.39647222222222,158.19274019877116L81.51373444444444,163.54110364278156L81.86552111111111,166.53568644205728L82.21730777777778,154.86873563130698L82.56909444444445,162.8678633117676L82.9208811111111,159.7190299987793L83.03814333333334,164.49261398315429L83.15540555555556,163.97742329915363L83.27266777777777,134.70029678344727L83.38992999999999,32.89359232584635L83.62445444444445,143.2293090311686L83.74171666666666,15.311911621093747L83.85897888888888,150.13262232462566L84.09350333333333,-334.3393831380208L84.21076555555555,152.72039026896158L84.32802777777778,116.57029551188151L84.56255222222222,105.9977816772461L84.79707666666665,117.41574971516927L84.91433888888889,6.1273838297526035L85.38338777777778,158.92964452107748L85.85243666666668,155.080388768514L86.32148555555555,138.7173760986328L86.43874777777778,163.85656224568683L86.67327222222221,162.39004877726236L86.79053444444445,157.78787442525228L87.02505888888889,164.40876897176105L87.25958333333334,165.25616175333658L87.61137,160.9084693145752L88.43220555555556,159.75787508646647L88.78399222222222,162.5403396097819L88.90125444444445,162.26966936747232L89.25304111111112,165.34952035268148L89.37030333333333,161.8373934173584L89.48756555555555,160.21478538513185L89.72209,161.28597292582194L89.83935222222222,155.96386431376138L89.95661444444445,166.10864330291747L90.07387666666666,163.95968350728353L90.30840111111111,165.05875911712647L90.89471222222222,165.12558305104574L91.01197444444445,167.97342882792157L91.71554777777777,166.1562420018514L91.95007222222222,164.11995831807454L92.06733444444444,165.4307598368327L92.18459666666666,155.52760917663574L92.3018588888889,167.80824905395508L92.41912111111111,164.75048990885415L92.53638333333333,156.34061620076497L92.65364555555556,167.85113484700523L92.77090777777778,162.5609977722168L92.88817,160.99743985493978L93.00543222222223,168.19418743133545L93.23995666666667,162.22279688517253L93.59174333333333,158.61519872029623L93.70900555555556,150.22125376383462L93.82626777777779,154.24039319356282L94.06079222222222,164.16625762939452L94.17805444444446,154.19957801818848L94.52984111111111,160.67309410095214L94.76436555555556,159.3189281463623L94.99888999999999,163.15154543558756L95.11615222222223,158.5667222595215L95.46793888888888,163.2055765533447L95.58520111111112,165.6503473409017L95.70246333333334,162.96318674723307L95.93698777777777,159.77689175923666L96.05425000000001,154.00525805155436L96.17151222222222,155.590234858195L96.40603666666667,167.6126724624634L96.64056111111111,160.06716084798177L96.75782333333333,159.68487831115723L97.10961,169.55285172780356L97.22687222222223,165.40328138987223L97.34413444444444,168.3890430577596L97.46139666666667,171.2331170845032L97.5786588888889,166.10526354471844L97.81318333333333,165.93938756306966L97.93044555555556,165.05068295796713L98.04770777777777,167.1087201309204L98.28223222222222,158.82195889790853L98.39949444444444,156.3137176767985L98.86854333333333,167.37190013885498L98.98580555555556,162.85844500223794L99.10306777777778,154.00181752522786L99.33759222222223,25.43708801269532L99.45485444444445,116.74935892740885L99.57211666666666,167.366916402181L99.68937888888888,157.7461139678955L99.92390333333333,167.3324638748169L100.15842777777777,167.80961896260578L100.27569,166.18666732788085L100.39295222222222,167.6633538309733L100.62747666666667,167.36295146942138L100.86200111111111,164.85360816955566L101.09652555555554,148.0087777709961L101.21378777777778,162.5801104736328L101.33105,154.8362599436442L101.68283666666667,163.8592795562744L102.15188555555555,152.4799585469564L102.26914777777777,160.06720286051433L102.50367222222224,162.54000951131184L102.62093444444444,148.94672856648765L102.85545888888889,166.1627839533488L103.32450777777777,143.93565973917643L103.44177,158.11628639221192L103.67629444444444,159.03395713806154L103.9108188888889,155.42050872802733L104.37986777777779,164.03835947672525L104.73165444444444,165.86094416300455L104.84891666666667,96.55002736409506L105.08344111111111,163.93456751505533L105.20070333333332,165.70168665568033L105.31796555555556,157.73356872558594L105.43522777777778,166.36681031545004L105.55248999999999,169.2110857772827L105.66975222222221,161.38288983662923L105.78701444444445,157.522847366333L105.90427666666668,114.7148720296224L106.02153888888888,147.10644460042317L106.49058777777778,154.7673263804118L106.60785,161.45292172749836L106.84237444444445,159.77687975565593L107.07689888888888,166.72050707499187L107.42868555555556,168.0304443359375L107.66321,159.91948079427084L107.78047222222223,163.71186508178712L107.89773444444444,162.76607294718423L108.24952111111111,148.80025787353514L108.36678333333333,168.76264625549317L108.48404555555555,164.35432223002115L108.60130777777778,146.13598810831706L108.71857,154.17920193990074L108.95309444444443,151.8116801961263L109.07035666666667,161.9128044128418L109.30488111111111,161.41491238911945L109.53940555555556,162.28592821757L109.65666777777778,167.21780567169188L109.77393,165.52047009785971L109.89119222222222,167.48391755421957L110.00845444444445,151.12411509195965L110.12571666666666,164.42488227844237L110.36024111111111,164.25705421447753L110.47750333333333,133.070219523112L110.82929,164.16810167948407L111.29833888888888,160.83976231892902L111.65012555555555,160.86407557169596L111.76738777777777,147.88716049194335L111.88465000000001,171.78333046595256L112.00191222222222,168.42987248738606L112.11917444444444,160.7912528483073L112.23643666666666,159.60087125142417L112.35369888888889,158.1181529490153L112.47096111111111,166.09394266764323L112.70548555555555,164.36390258789064L112.82274777777778,168.5932614771525L112.94001,160.41164260864258L113.4090588888889,139.18162958780925L113.87810777777777,166.87395935058592L113.99537,161.88294100443522L114.22989444444445,170.09579544067384L114.34715666666666,168.84187589009605L114.46441888888889,157.14781799316407L114.58168111111112,163.37183064778645L114.69894333333333,169.1914156595866L114.81620555555556,166.6442265701294L115.16799222222222,154.8300961049398L115.28525444444445,164.86765385945637L115.40251666666666,167.35656856536863L115.98882777777779,168.71794642130536L116.22335222222222,160.88753807067872L116.34061444444444,164.228911819458L116.45787666666668,165.97986588795982L116.57513888888889,167.6001819864909L116.80966333333333,119.11344014485675L117.16145,167.9028417714437L117.27871222222221,167.3031001154582L117.6304988888889,144.86490493774414L117.7477611111111,167.80193367004395L117.86502333333334,170.41063585917155L117.98228555555556,166.60177740732829L118.09954777777777,165.03599957784016L118.33407222222223,168.02948254903157L118.68585888888889,155.28315775553386L118.80312111111111,155.060428314209L119.03764555555556,153.21713595072427L119.38943222222223,160.6192490386963L119.50669444444445,165.4828643798828L119.62395666666666,162.77995808919272L119.85848111111112,163.94206225077312L119.97574333333333,155.67303705851236L120.09300555555555,167.8849616877238L120.21026777777779,165.1346862665812L120.32753,163.82171134948732L120.44479222222222,166.08405921936034L120.56205444444444,163.97630696614584L120.79657888888889,158.0748710378011L121.14836555555556,169.68393232981364L121.26562777777778,128.3367244974772L121.73467666666667,157.840523630778L121.85193888888888,127.71869913736978L122.08646333333334,110.22912790934245L122.32098777777777,146.01838302612305L122.55551222222222,137.78690353393554L122.67277444444444,164.94621954600015L122.79003666666667,153.56906593322753L122.90729888888889,156.9816719309489L123.02456111111111,158.0538077545166L123.14182333333333,124.31470570882162L123.37634777777777,152.49841555277504L123.61087222222223,157.32376047770182L123.84539666666666,162.96738049825032L124.19718333333333,155.13246030171712L124.31444555555555,164.7445023727417L124.43170777777779,144.90934819539387L124.54897,139.57840494791665L124.66623222222222,148.5065902709961L124.90075666666667,165.50527281443277L125.01801888888889,165.09573614756266L125.13528111111111,159.43004979451496L125.36980555555556,127.65314158121745L125.48706777777778,167.90754417419433L125.72159222222223,160.2338365681966L126.07337888888888,145.7592287190755L126.30790333333334,141.81581537882485L126.42516555555555,151.2394935099284L126.54242777777777,126.39732696533203L126.89421444444444,159.91849500020345L127.24600111111111,159.2105703226725L127.36326333333334,148.7282633972168L127.59778777777778,166.13279975891115L127.83231222222223,37.484373779296874L128.06683666666666,161.31847712198893L128.18409888888888,163.1439651743571L128.65314777777778,166.90025619506835L128.88767222222222,167.19619022369386L129.00493444444444,161.4640325419108L129.12219666666667,155.6053188578288L129.2394588888889,164.57330505371092L129.47398333333334,118.19293955485026L129.59124555555553,165.33389019012452L129.70850777777778,164.68371098836263L129.82577,164.12626319885254L130.2948188888889,165.31079755147297L130.52934333333332,163.21368647257486L130.64660555555557,168.38661908467608L130.7638677777778,141.89071772257486L130.88112999999998,158.28072644551594L130.99839222222224,156.70867149353026L131.4674411111111,158.95464347839356L131.58470333333332,166.58884579976402L131.70196555555557,154.5107558441162L131.81922777777777,167.20840461730958L132.28827666666666,160.27050000508626L132.40553888888888,161.9146364593506L132.5228011111111,132.32733891805015L132.64006333333333,161.82850176493326L132.75732555555555,165.2099659729004L132.99185,150.86912902832032L133.10911222222222,149.03053756713868L133.22637444444445,165.14462373097737L133.34363666666664,130.0413770039876L133.57816111111111,166.54516326904297L133.92994777777778,166.25677949269613L134.16447222222223,114.89198486328125L134.28173444444442,157.2329503885905L134.5162588888889,166.8789333343506L134.6335211111111,161.6959102121989L134.75078333333335,164.57255558013915L134.98530777777776,-406.58629475911454L135.10257000000001,149.08885696411133L135.33709444444443,158.38836555480958L135.45435666666668,157.15085489908856L136.04066777777777,160.7318186187744L136.27519222222222,148.3962713623047L136.39245444444444,151.77072397867838L136.50971666666666,164.27554272969564L136.62697888888889,162.94304023742677L136.7442411111111,162.59364151000977L136.86150333333333,163.35904233296714L136.97876555555555,147.79863108317056L137.21329,159.4784107208252L137.33055222222222,163.75277928670246L137.44781444444445,149.78918487548827L137.79960111111112,164.13119517008465L137.91686333333334,158.36176111857097L138.03412555555556,154.77355623881024L138.15138777777779,160.88585606892906L138.3859122222222,151.07211257934568L139.08948555555554,168.10694540659586L139.2067477777778,162.40885838826497L139.32401,164.0082034810384L139.55853444444446,159.3244662984212L140.02758333333333,140.06800699869794L140.37937,163.21202697753907L140.73115666666666,152.89411209106447L141.08294333333333,151.95973386128745L141.20020555555556,160.58554898579914L141.43473,152.53071868896484L141.55199222222222,150.39034220377604L141.66925444444445,159.05490638732908L141.78651666666667,140.91481160481771L142.02104111111112,143.12806783040364L142.1383033333333,161.40759470621745L142.25556555555556,99.76248565673826L142.3728277777778,107.60381276448567L142.49008999999998,133.3499299621582L142.60735222222223,101.02195536295574L142.72461444444446,109.1181064860026L142.84187666666665,149.34494135538736L142.9591388888889,146.87681009928386L143.19366333333332,153.98406572977703L143.31092555555557,161.80037287394205L143.54545,156.26404385884604L143.89723666666666,162.4784716542562L144.01449888888888,138.50827672322592L144.24902333333335,164.46831723531088L144.48354777777777,153.44033953348796L144.60081000000002,169.75148022969566L144.71807222222222,164.744244295756L144.83533444444444,157.29663838704428L145.1871211111111,157.8387275950114L145.30438333333333,156.39100123087567L145.42164555555556,156.48045341491698L145.53890777777778,155.12622594197592L145.77343222222223,151.09674992879232L145.89069444444442,164.725333404541L146.8287922222222,161.4098243713379L147.18057888888887,164.4577203241984L147.2978411111111,159.47824567159017L147.53236555555554,157.13594195048015L147.6496277777778,162.02465527852377L147.76689,157.81696360270183L147.8841522222222,168.66609920501708L148.23593888888888,162.06231651306152L148.35320111111113,172.5940335528056L148.58772555555555,165.69650185902913L148.7049877777778,162.9602833811442L148.82225,166.53238320668538L148.93951222222222,127.76140787760417L149.2912988888889,134.91605514526367L150.22939666666667,97.12666737874349L150.34665888888887,144.40908096313476L150.46392111111112,137.90032836914062L150.69844555555554,137.20411468505858L150.93296999999998,104.95688517252604L151.05023222222223,3.7362225341796966L151.16749444444446,3.6212882486979083L151.4020188888889,156.71601318359376L151.51928111111113,151.62356608072918L151.63654333333332,152.60067105611165L151.75380555555557,141.54039321899413L151.87106777777777,161.40857599894207L152.22285444444444,161.89806551615396L152.34011666666666,131.45602300008136L152.4573788888889,159.43624814351398L153.04369,163.39774937947593L153.27821444444444,164.2168107096354L153.39547666666667,143.84446853637695L153.6300011111111,165.19149621327716L153.7472633333333,162.53380816141765L153.98178777777778,155.31247650146483L154.6853611111111,149.74099349975586L154.80262333333334,163.0407943979899L155.03714777777776,148.74911661783855L155.27167222222224,169.2687224706014L155.38893444444443,169.50652990976968L155.85798333333335,165.03114337921141L155.97524555555555,157.37488072713217L156.09250777777777,159.91291933695476L156.20977000000002,151.7675340270996L156.32703222222221,122.67852162679036L156.56155666666666,116.90485931396485L156.7960811111111,122.62058034261068L156.91334333333333,163.23994580586754L157.03060555555555,156.77798917134604L157.14786777777778,158.65145403544108L157.26513,145.55204391479492L157.38239222222222,153.72588971455892L157.49965444444442,165.5358729426066L157.96870333333334,163.86993423461914L158.20322777777778,147.3286038716634L158.32049,159.75676625569662L158.90680111111112,155.42586232503257L159.02406333333334,140.71053166707358L159.2585877777778,170.12072237650554L159.4931122222222,164.38848742167156L159.61037444444446,158.86372835795086L159.72763666666665,166.98875034332275L159.96216111111113,164.16413599650065L160.3139477777778,158.335348739624L160.43121,161.96159896850585L160.78299666666666,158.92102144877117L161.0175211111111,168.0788105138143L161.36930777777778,162.81488850911458L161.72109444444445,151.23711079915364L161.83835666666667,73.33135111490886L162.07288111111112,122.09035817464192L162.19014333333334,144.16670466105143L162.30740555555556,153.1156936899821L162.42466777777778,163.23175486246743L162.54192999999998,161.36312594095867L162.65919222222223,162.84524106343585L162.77645444444445,143.66592127482096L163.0109788888889,166.32018390655517L163.12824111111112,166.12427346547443L163.24550333333332,162.22438135782878L163.59729,165.61935934702555L163.71455222222224,165.06374435424806L163.94907666666666,160.8874060312907L164.88717444444444,171.3842057800293L165.0044366666667,154.60393063863117L165.1216988888889,150.40820353190105L165.2389611111111,166.61188817342122L165.35622333333333,162.76898381551106L165.59074777777778,168.0800333786011L165.70801,164.90607056935627L165.82527222222222,166.53459486643473L165.94253444444445,166.36632191975912L166.1770588888889,167.071208190918L166.2943211111111,156.03478296915688L166.41158333333334,161.3626487986247L166.76337,166.14004467010497L166.88063222222223,160.70144355773925L167.11515666666668,155.34312914530437L168.28777888888888,166.2260098139445L168.63956555555555,131.6270590209961L168.7568277777778,140.4530758666992L168.87409,164.10391103108725L168.99135222222222,157.60272369384765L169.22587666666666,162.81669954935708L169.3431388888889,156.9718755086263L169.4604011111111,166.6460413614909L169.69492555555556,168.11654001871744L170.0467122222222,156.56451449076334L170.16397444444445,164.96972030639648L170.28123666666667,168.61258124033608L170.39849888888887,155.8777086130778L170.51576111111112,139.13181772867839L170.63302333333334,170.49372839609782L170.75028555555554,163.7775171661377L170.8675477777778,167.1829825337728L171.1020722222222,169.46852207183838L171.33659666666665,162.48547424316405L171.4538588888889,161.93070625305177L171.68838333333332,162.86339047749837L171.9229077777778,166.86746541341145L172.15743222222224,170.17068953196207L172.27469444444444,168.60275931040445L172.39195666666666,158.70551816304524L172.5092188888889,162.8891111501058L172.6264811111111,115.8486582438151L172.74374333333333,170.21891016642252L173.21279222222222,162.8669285329183L173.79910333333333,169.12424362182617L173.91636555555556,167.6484288787842L174.15088999999998,167.7010465749105L174.26815222222223,99.10159250895182L174.38541444444445,142.16336705525717L174.73720111111112,154.28269831339517L174.85446333333334,163.40013509114584L174.97172555555557,166.68097403208415L175.20625,166.39780581156413L175.44077444444443,155.0421078491211L175.55803666666668,167.4875366338094L175.90982333333335,165.86784622192383L176.14434777777777,160.05005724589032L176.3788722222222,170.72486934661865L176.49613444444444,153.7018795522054L176.73065888888888,116.75720326741536L176.8479211111111,164.16344429016115L177.19970777777777,157.17442843119304L177.31697,169.7735315577189L177.43423222222222,171.07646923065187L177.66875666666667,169.85929714202882L177.7860188888889,154.00636538187663L177.90328111111108,164.68204399108888L178.25506777777778,165.01817651112873L178.37233,160.01105461120605L178.48959222222223,138.18483123779296L178.60685444444445,146.22599095662434L178.72411666666667,164.64738590240478L178.84137888888887,161.90897977193197L179.07590333333334,108.42138264973958L179.42769,173.39398968378703L179.5449522222222,162.1292049662272L179.77947666666665,158.6877333577474L180.24852555555555,164.52915213267008L180.3657877777778,169.2994463857015L180.60031222222221,167.1696743138631L180.71757444444444,165.1622097269694L181.0693611111111,163.580043258667L181.30388555555555,165.65478941599528L181.53841,171.23071336746216L181.77293444444445,162.8027378845215L181.89019666666667,169.92551489512127L182.0074588888889,169.58289744059243L182.1247211111111,166.85984238942464L182.35924555555556,162.04329533894858L182.71103222222223,167.21557375590007L182.82829444444445,145.69837356567385L183.0628188888889,157.8206472015381L183.18008111111112,171.22151187260945L183.29734333333332,162.25169100443523L183.5318677777778,169.76428880055747L184.00091666666665,169.95551709493L184.2354411111111,170.58988157908124L184.35270333333332,110.77646118164063L184.58722777777777,167.48019644419352L184.70449,165.131842918396L184.82175222222222,158.5357755279541L184.93901444444444,163.94094441731772L185.0562766666667,170.86488023757934L185.17353888888888,168.5506945292155L185.64258777777778,161.63372716267904L185.75985,161.26161766052246L185.87711222222222,160.98903284708658L185.99437444444445,170.8928136952718L186.11163666666667,107.9880473836263L186.34616111111112,169.1316415786743L186.58068555555556,167.57754473368325L186.69794777777776,170.303972791036L186.81521,167.02018997192383L186.93247222222223,165.92620913187662L187.04973444444443,170.12089267730713L187.16699666666668,164.08743311564126L187.51878333333335,156.7936043294271L187.87057000000001,170.3379271697998L188.10509444444443,168.5418501408895L188.33961888888888,141.976849416097L188.45688111111113,169.73681560516357L188.57414333333332,165.64551064809163L188.69140555555555,170.0870373280843L188.8086677777778,172.60886772791545L189.27771666666666,144.68505828857423L189.86402777777778,166.4621562576294L190.09855222222222,169.9174057261149L190.21581444444445,163.50006039937338L190.33307666666667,169.10012017567954L190.56760111111112,170.3485855992635L190.68486333333334,164.6438741048177L190.80212555555553,62.48878072102864L191.1539122222222,169.41009089152018L191.50569888888887,166.17964148203532L191.62296111111112,172.03952326456707L191.74022333333332,152.76471199035646L191.9747477777778,168.61451531728108L192.09201,165.7603796641032L192.20927222222224,162.99227142333984L192.44379666666666,164.15625414530436L192.5610588888889,169.10993085225425L192.79558333333333,164.5704474512736L192.91284555555558,167.00203455607095L193.03010777777777,172.69740951538085L193.14737,167.17688771565756L193.26463222222222,168.33057136535643L193.38189444444444,168.02597600301107L193.6164188888889,153.38711565653483L193.7336811111111,166.8959626642863L194.08546777777778,170.99215833028157L194.6717788888889,170.18168856302896L195.1408277777778,169.15534564971924L196.07892555555557,172.2266350809733L196.19618777777777,157.98452608744302L196.31345000000002,167.37144925435385L196.4307122222222,167.80425561269124L196.54797444444443,164.2259184265137L196.8997611111111,170.80164950052898L197.01702333333336,152.19529513041178L197.25154777777777,170.91572027842204L197.36881,117.61829213460288L197.60333444444444,168.71387570699056L197.72059666666667,163.29885637919108L197.8378588888889,170.89361981074015L197.9551211111111,167.01800607045493L198.18964555555556,165.92959564208985L198.42417,172.79675527572633L198.54143222222223,160.7232960764567L198.65869444444445,164.4649412282308L198.8932188888889,167.99420702616374L199.01048111111112,38.09821289062499L199.12774333333334,163.2858880106608L199.3622677777778,171.5118421045939L199.5967922222222,168.4856553777059L200.30036555555554,170.32563100179038L200.53489,169.9891721343994L201.00393888888888,162.6323905690511L201.23846333333333,160.1277759297689L201.35572555555555,171.77506675084433L201.82477444444444,171.40538084665934L202.41108555555556,164.99743807474772L202.52834777777778,159.87134493509927L202.99739666666665,170.29948345184326L203.34918333333331,163.5152239227295L203.46644555555557,149.62074762980143L203.81823222222224,168.99294545491537L203.93549444444443,165.16421957651772L204.1700188888889,170.35651921590167L204.2872811111111,165.44210322062173L204.40454333333332,167.82348985036214L204.52180555555557,145.25754506429038L204.75633,163.69452140808104L204.87359222222221,171.69346753438313L205.22537888888888,170.322369778951L205.3426411111111,172.5417482058207L205.45990333333336,165.4229635111491L205.57716555555555,152.20338254292807L205.69442777777778,155.01301116943358L206.16347666666667,163.30464060465496L206.51526333333334,152.38410095214843L206.63252555555556,173.0205143992106L206.74978777777778,168.98881097157798L206.86705,164.26691365559896L207.10157444444442,168.23662384033202L207.21883666666668,169.3361038208008L207.3360988888889,167.9757582728068L207.4533611111111,164.6455546061198L207.57062333333334,159.448817392985L207.68788555555557,165.9302858479818L207.80514777777776,164.17633613586426L207.92241,134.33557998657227L208.0396722222222,169.9971019999186L208.39145888888888,168.60309991200765L208.62598333333335,172.21495559692383L209.21229444444447,132.51569910685222L209.32955666666666,169.4611818822225L209.44681888888888,148.3301946512858L209.68134333333333,169.4371327082316L210.15039222222222,161.45508987426757L210.5021788888889,167.10827524820965L210.73670333333334,168.35314935048422L211.2057522222222,165.37243968963622L211.32301444444445,166.98909544626872L211.44027666666668,171.00854471842447L211.55753888888887,164.1635883331299L211.90932555555554,161.6013309987386L212.14385,171.11739656448364L212.26111222222224,167.8927062479655L212.37837444444446,158.79014040629067L212.49563666666666,166.0741547648112L212.7301611111111,168.75850126902262L212.96468555555558,169.832454884847L213.08194777777777,167.36141201019288L213.43373444444444,169.94875307718914L213.55099666666666,166.71869303385415L213.7855211111111,164.25693417867024L213.90278333333333,164.19884435017903L214.02004555555555,156.7412567138672L214.60635666666664,167.77026222229006L214.7236188888889,163.01369181315104L214.84088111111112,163.72754475911458L215.7789788888889,166.85861052195233L215.8962411111111,160.7305987548828L216.01350333333335,170.77850772221885L216.24802777777776,133.48377888997396L216.36529000000002,160.58205744425456L216.4825522222222,166.78859588623047L216.59981444444443,166.58597169240315L216.71707666666669,169.8738229751587L216.83433888888888,159.72404899597169L216.9516011111111,167.61557207743328L217.18612555555555,170.6630088933309L217.42065,165.60099987030029L217.53791222222222,166.47653579711914L217.65517444444444,166.83989919026692L217.8896988888889,163.46941075642903L218.0069611111111,152.8100165049235L218.24148555555556,168.6355613454183L218.47601,168.99018088022868L218.59327222222223,154.00276880900066L218.82779666666667,170.21956661224365L218.9450588888889,165.5214506403605L219.4141077777778,159.93677795410156L219.53137,145.67349014282226L219.6486322222222,170.85909788767495L219.76589444444446,157.93996879577637L219.88315666666668,161.09541308085124L220.00041888888887,167.08826452891032L220.11768111111112,170.02380846659344L220.35220555555554,170.65194909413654L220.4694677777778,169.71153981526692L220.58673,122.90629557291668L220.7039922222222,164.06513946533204L221.17304111111113,170.09932599385579L221.40756555555555,168.9789237721761L221.52482777777777,141.5127429707845L221.64209,150.95112848917643L221.87661444444444,172.10910989761354L222.1111388888889,165.66808263142903L222.34566333333333,135.57690928141275L222.58018777777778,166.90458273569743L222.69745,166.88146233876546L222.81471222222223,167.2234503555298L223.04923666666667,118.58021107991537L223.1664988888889,167.05311729431153L223.28376111111112,167.2958274459839L223.4010233333333,166.8774944051107L223.51828555555556,162.2587776184082L223.6355477777778,167.48733632405597L223.75280999999998,168.00382639567056L223.87007222222223,166.84703531901042L223.98733444444446,168.5569273885091L224.45638333333332,168.6104618581136L224.57364555555557,164.36058209737143L224.80817,163.31396888732908L224.92543222222224,166.3738826751709L225.27721888888888,167.3398385747274L225.3944811111111,167.12996571858724L225.51174333333333,165.99069761912028L225.62900555555555,168.50780948638916L225.74626777777777,165.37230014801025L225.98079222222222,168.87360960642496L226.4498411111111,172.44428663253782L226.68436555555556,163.54497029622397L226.80162777777778,164.15744099934895L226.91889,145.60357228597005L227.27067666666667,158.34525919596354L227.3879388888889,163.29490870157878L227.62246333333334,165.8297431055705L227.73972555555557,160.37933647155762L227.85698777777776,167.03251990000408L228.0915122222222,159.6069855753581L228.20877444444443,167.18660086313884L228.32603666666668,163.94810905456544L228.44329888888888,173.00283199946085L228.67782333333335,164.40170936584474L228.91234777777777,142.9121834309896L229.1468722222222,158.29976862589518L229.26413444444447,159.1931531270345L229.49865888888888,161.38473688761394L229.61592111111113,168.47429398854572L229.73318333333333,169.08214481353758L229.85044555555555,163.9065466562907L230.08497,35.35809549967448L230.43675666666667,168.76979738871256L230.5540188888889,165.83677945454914L230.6712811111111,168.88582400004069L230.78854333333334,166.02138627370198L230.90580555555556,166.8171471532186L231.14033,168.2998076883952L231.2575922222222,167.74313262939452L231.37485444444445,168.70734725952147L231.49211666666667,151.35862004597982L231.60937888888887,151.3913298034668L231.72664111111112,170.46485003153484L231.84390333333334,164.56004559834798L231.96116555555554,162.85517252604168L232.19568999999998,163.6855982462565L232.3129522222222,124.46514058430989L232.43021444444446,165.39661265055338L232.89926333333332,106.9999126180013L233.25105,169.53241413116456L233.36831222222224,167.34309154510498L233.48557444444444,171.50426822026571L233.8373611111111,165.15754483540852L233.95462333333333,171.09784235636394L234.07188555555555,170.63487250010172L234.18914777777778,162.26122034708658L234.30641,166.97941830952962L234.54093444444445,158.36093587239583L234.65819666666667,167.9490007909139L234.7754588888889,157.05146675109864L235.12724555555556,166.20678307851156L235.24450777777778,158.64793848673503L235.47903222222223,160.27028244018555L235.71355666666665,163.47000343322753L235.8308188888889,169.34205684661865L236.18260555555557,165.9198577372233L236.41713000000001,156.1304770151774L236.53439222222224,169.8111050160726L236.65165444444443,167.30225536346435" style="fill: none;" fill="none"></path></g></g></g></g></g></g><g transform="translate(72, 177)" clip-path="url(#clip_1)"><clipPath id="clip_1"><rect width="257" height="23"></rect></clipPath><g><g><line x1="0" y1="0" x2="0" y2="5" style="visibility: inherit;" fill="rgb(0, 0, 0)" stroke="rgb(204, 204, 204)" stroke-width="1px"></line><line x1="28.62847222222222" y1="0" x2="28.62847222222222" y2="5" style="visibility: inherit;" fill="rgb(0, 0, 0)" stroke="rgb(204, 204, 204)" stroke-width="1px"></line><line x1="57.25694444444444" y1="0" x2="57.25694444444444" y2="5" style="visibility: inherit;" fill="rgb(0, 0, 0)" stroke="rgb(204, 204, 204)" stroke-width="1px"></line><line x1="85.88541666666666" y1="0" x2="85.88541666666666" y2="5" style="visibility: inherit;" fill="rgb(0, 0, 0)" stroke="rgb(204, 204, 204)" stroke-width="1px"></line><line x1="114.51388888888889" y1="0" x2="114.51388888888889" y2="5" style="visibility: inherit;" fill="rgb(0, 0, 0)" stroke="rgb(204, 204, 204)" stroke-width="1px"></line><line x1="143.14236111111111" y1="0" x2="143.14236111111111" y2="5" style="visibility: inherit;" fill="rgb(0, 0, 0)" stroke="rgb(204, 204, 204)" stroke-width="1px"></line><line x1="171.77083333333331" y1="0" x2="171.77083333333331" y2="5" style="visibility: inherit;" fill="rgb(0, 0, 0)" stroke="rgb(204, 204, 204)" stroke-width="1px"></line><line x1="200.39930555555557" y1="0" x2="200.39930555555557" y2="5" style="visibility: inherit;" fill="rgb(0, 0, 0)" stroke="rgb(204, 204, 204)" stroke-width="1px"></line><line x1="229.02777777777777" y1="0" x2="229.02777777777777" y2="5" style="visibility: inherit;" fill="rgb(0, 0, 0)" stroke="rgb(204, 204, 204)" stroke-width="1px"></line><line x1="257.65625" y1="0" x2="257.65625" y2="5" style="visibility: inherit;" fill="rgb(0, 0, 0)" stroke="rgb(204, 204, 204)" stroke-width="1px"></line></g><g transform="translate(0, 8)"><text x="0" y="0" dx="0em" dy="0.95em" style="text-anchor: middle; visibility: hidden; font-family: Roboto, sans-serif; font-size: 12px; font-weight: 200;" fill="rgb(33, 33, 33)" stroke="none" stroke-width="1px">-500k</text><text x="28.62847222222222" y="0" dx="0em" dy="0.95em" style="text-anchor: middle; visibility: inherit; font-family: Roboto, sans-serif; font-size: 12px; font-weight: 200;" fill="rgb(33, 33, 33)" stroke="none" stroke-width="1px">0</text><text x="57.25694444444444" y="0" dx="0em" dy="0.95em" style="text-anchor: middle; visibility: inherit; font-family: Roboto, sans-serif; font-size: 12px; font-weight: 200;" fill="rgb(33, 33, 33)" stroke="none" stroke-width="1px">500k</text><text x="85.88541666666666" y="0" dx="0em" dy="0.95em" style="text-anchor: middle; visibility: inherit; font-family: Roboto, sans-serif; font-size: 12px; font-weight: 200;" fill="rgb(33, 33, 33)" stroke="none" stroke-width="1px">1M</text><text x="114.51388888888889" y="0" dx="0em" dy="0.95em" style="text-anchor: middle; visibility: inherit; font-family: Roboto, sans-serif; font-size: 12px; font-weight: 200;" fill="rgb(33, 33, 33)" stroke="none" stroke-width="1px">1.5M</text><text x="143.14236111111111" y="0" dx="0em" dy="0.95em" style="text-anchor: middle; visibility: inherit; font-family: Roboto, sans-serif; font-size: 12px; font-weight: 200;" fill="rgb(33, 33, 33)" stroke="none" stroke-width="1px">2M</text><text x="171.77083333333331" y="0" dx="0em" dy="0.95em" style="text-anchor: middle; visibility: inherit; font-family: Roboto, sans-serif; font-size: 12px; font-weight: 200;" fill="rgb(33, 33, 33)" stroke="none" stroke-width="1px">2.5M</text><text x="200.39930555555557" y="0" dx="0em" dy="0.95em" style="text-anchor: middle; visibility: inherit; font-family: Roboto, sans-serif; font-size: 12px; font-weight: 200;" fill="rgb(33, 33, 33)" stroke="none" stroke-width="1px">3M</text><text x="229.02777777777777" y="0" dx="0em" dy="0.95em" style="text-anchor: middle; visibility: inherit; font-family: Roboto, sans-serif; font-size: 12px; font-weight: 200;" fill="rgb(33, 33, 33)" stroke="none" stroke-width="1px">3.5M</text><text x="257.65625" y="0" dx="0em" dy="0.95em" style="text-anchor: middle; visibility: hidden; font-family: Roboto, sans-serif; font-size: 12px; font-weight: 200;" fill="rgb(33, 33, 33)" stroke="none" stroke-width="1px">4M</text></g><line x1="0" y1="0" x2="257.65625" y2="0" fill="rgb(0, 0, 0)" stroke="rgb(204, 204, 204)" stroke-width="1px"></line></g></g></g></g></svg>