<svg viewBox="0 0 330 200" xmlns="http://www.w3.org/2000/svg"><g><g><g><g><g><line x1="61.953125" y1="177" x2="56.953125" y2="177" style="visibility: inherit;" fill="rgb(0, 0, 0)" stroke="rgb(204, 204, 204)" stroke-width="1px"></line><line x1="61.953125" y1="164.35714285714283" x2="56.953125" y2="164.35714285714283" style="visibility: inherit;" fill="rgb(0, 0, 0)" stroke="rgb(204, 204, 204)" stroke-width="1px"></line><line x1="61.953125" y1="151.7142857142857" x2="56.953125" y2="151.7142857142857" style="visibility: inherit;" fill="rgb(0, 0, 0)" stroke="rgb(204, 204, 204)" stroke-width="1px"></line><line x1="61.953125" y1="139.07142857142858" x2="56.953125" y2="139.07142857142858" style="visibility: inherit;" fill="rgb(0, 0, 0)" stroke="rgb(204, 204, 204)" stroke-width="1px"></line><line x1="61.953125" y1="126.42857142857142" x2="56.953125" y2="126.42857142857142" style="visibility: inherit;" fill="rgb(0, 0, 0)" stroke="rgb(204, 204, 204)" stroke-width="1px"></line><line x1="61.953125" y1="113.78571428571428" x2="56.953125" y2="113.78571428571428" style="visibility: inherit;" fill="rgb(0, 0, 0)" stroke="rgb(204, 204, 204)" stroke-width="1px"></line><line x1="61.953125" y1="101.14285714285715" x2="56.953125" y2="101.14285714285715" style="visibility: inherit;" fill="rgb(0, 0, 0)" stroke="rgb(204, 204, 204)" stroke-width="1px"></line><line x1="61.953125" y1="88.5" x2="56.953125" y2="88.5" style="visibility: inherit;" fill="rgb(0, 0, 0)" stroke="rgb(204, 204, 204)" stroke-width="1px"></line><line x1="61.953125" y1="75.85714285714285" x2="56.953125" y2="75.85714285714285" style="visibility: inherit;" fill="rgb(0, 0, 0)" stroke="rgb(204, 204, 204)" stroke-width="1px"></line><line x1="61.953125" y1="63.21428571428572" x2="56.953125" y2="63.21428571428572" style="visibility: inherit;" fill="rgb(0, 0, 0)" stroke="rgb(204, 204, 204)" stroke-width="1px"></line><line x1="61.953125" y1="50.57142857142857" x2="56.953125" y2="50.57142857142857" style="visibility: inherit;" fill="rgb(0, 0, 0)" stroke="rgb(204, 204, 204)" stroke-width="1px"></line><line x1="61.953125" y1="37.92857142857143" x2="56.953125" y2="37.92857142857143" style="visibility: inherit;" fill="rgb(0, 0, 0)" stroke="rgb(204, 204, 204)" stroke-width="1px"></line><line x1="61.953125" y1="25.285714285714313" x2="56.953125" y2="25.285714285714313" style="visibility: inherit;" fill="rgb(0, 0, 0)" stroke="rgb(204, 204, 204)" stroke-width="1px"></line><line x1="61.953125" y1="12.642857142857157" x2="56.953125" y2="12.642857142857157" style="visibility: inherit;" fill="rgb(0, 0, 0)" stroke="rgb(204, 204, 204)" stroke-width="1px"></line><line x1="61.953125" y1="0" x2="56.953125" y2="0" style="visibility: inherit;" fill="rgb(0, 0, 0)" stroke="rgb(204, 204, 204)" stroke-width="1px"></line></g><g transform="translate(51.953125, 0)"><text x="0" y="177" dx="0em" dy="0.3em" style="text-anchor: end; visibility: hidden; font-family: Roboto, sans-serif; font-size: 12px; font-weight: 200;" fill="rgb(33, 33, 33)" stroke="none" stroke-width="1px">0.06</text><text x="0" y="164.35714285714283" dx="0em" dy="0.3em" style="text-anchor: end; visibility: inherit; font-family: Roboto, sans-serif; font-size: 12px; font-weight: 200;" fill="rgb(33, 33, 33)" stroke="none" stroke-width="1px">0.065</text><text x="0" y="151.7142857142857" dx="0em" dy="0.3em" style="text-anchor: end; visibility: hidden; font-family: Roboto, sans-serif; font-size: 12px; font-weight: 200;" fill="rgb(33, 33, 33)" stroke="none" stroke-width="1px">0.07</text><text x="0" y="139.07142857142858" dx="0em" dy="0.3em" style="text-anchor: end; visibility: inherit; font-family: Roboto, sans-serif; font-size: 12px; font-weight: 200;" fill="rgb(33, 33, 33)" stroke="none" stroke-width="1px">0.075</text><text x="0" y="126.42857142857142" dx="0em" dy="0.3em" style="text-anchor: end; visibility: hidden; font-family: Roboto, sans-serif; font-size: 12px; font-weight: 200;" fill="rgb(33, 33, 33)" stroke="none" stroke-width="1px">0.08</text><text x="0" y="113.78571428571428" dx="0em" dy="0.3em" style="text-anchor: end; visibility: inherit; font-family: Roboto, sans-serif; font-size: 12px; font-weight: 200;" fill="rgb(33, 33, 33)" stroke="none" stroke-width="1px">0.085</text><text x="0" y="101.14285714285715" dx="0em" dy="0.3em" style="text-anchor: end; visibility: hidden; font-family: Roboto, sans-serif; font-size: 12px; font-weight: 200;" fill="rgb(33, 33, 33)" stroke="none" stroke-width="1px">0.09</text><text x="0" y="88.5" dx="0em" dy="0.3em" style="text-anchor: end; visibility: inherit; font-family: Roboto, sans-serif; font-size: 12px; font-weight: 200;" fill="rgb(33, 33, 33)" stroke="none" stroke-width="1px">0.095</text><text x="0" y="75.85714285714285" dx="0em" dy="0.3em" style="text-anchor: end; visibility: hidden; font-family: Roboto, sans-serif; font-size: 12px; font-weight: 200;" fill="rgb(33, 33, 33)" stroke="none" stroke-width="1px">0.1</text><text x="0" y="63.21428571428572" dx="0em" dy="0.3em" style="text-anchor: end; visibility: inherit; font-family: Roboto, sans-serif; font-size: 12px; font-weight: 200;" fill="rgb(33, 33, 33)" stroke="none" stroke-width="1px">0.105</text><text x="0" y="50.57142857142857" dx="0em" dy="0.3em" style="text-anchor: end; visibility: hidden; font-family: Roboto, sans-serif; font-size: 12px; font-weight: 200;" fill="rgb(33, 33, 33)" stroke="none" stroke-width="1px">0.11</text><text x="0" y="37.92857142857143" dx="0em" dy="0.3em" style="text-anchor: end; visibility: inherit; font-family: Roboto, sans-serif; font-size: 12px; font-weight: 200;" fill="rgb(33, 33, 33)" stroke="none" stroke-width="1px">0.115</text><text x="0" y="25.285714285714313" dx="0em" dy="0.3em" style="text-anchor: end; visibility: hidden; font-family: Roboto, sans-serif; font-size: 12px; font-weight: 200;" fill="rgb(33, 33, 33)" stroke="none" stroke-width="1px">0.12</text><text x="0" y="12.642857142857157" dx="0em" dy="0.3em" style="text-anchor: end; visibility: inherit; font-family: Roboto, sans-serif; font-size: 12px; font-weight: 200;" fill="rgb(33, 33, 33)" stroke="none" stroke-width="1px">0.125</text><text x="0" y="0" dx="0em" dy="0.3em" style="text-anchor: end; visibility: hidden; font-family: Roboto, sans-serif; font-size: 12px; font-weight: 200;" fill="rgb(33, 33, 33)" stroke="none" stroke-width="1px">0.13</text></g><line x1="61.953125" y1="0" x2="61.953125" y2="177" fill="rgb(0, 0, 0)" stroke="rgb(204, 204, 204)" stroke-width="1px"></line></g></g><g transform="translate(61, 0)" clip-path="url(#clip_0)"><clipPath id="clip_0"><rect width="268" height="177"></rect></clipPath><g><g><g><line x1="0" y1="0" x2="0" y2="177" fill="rgb(0, 0, 0)" stroke="rgb(66, 66, 66)" stroke-width="1px" opacity="0.25"></line><line x1="26.8046875" y1="0" x2="26.8046875" y2="177" fill="rgb(0, 0, 0)" stroke="rgb(66, 66, 66)" stroke-width="1px" opacity="0.25"></line><line x1="53.609375" y1="0" x2="53.609375" y2="177" fill="rgb(0, 0, 0)" stroke="rgb(66, 66, 66)" stroke-width="1px" opacity="0.25"></line><line x1="80.4140625" y1="0" x2="80.4140625" y2="177" fill="rgb(0, 0, 0)" stroke="rgb(66, 66, 66)" stroke-width="1px" opacity="0.25"></line><line x1="107.21875" y1="0" x2="107.21875" y2="177" fill="rgb(0, 0, 0)" stroke="rgb(66, 66, 66)" stroke-width="1px" opacity="0.25"></line><line x1="134.0234375" y1="0" x2="134.0234375" y2="177" fill="rgb(0, 0, 0)" stroke="rgb(66, 66, 66)" stroke-width="1px" opacity="0.25"></line><line x1="160.828125" y1="0" x2="160.828125" y2="177" fill="rgb(0, 0, 0)" stroke="rgb(66, 66, 66)" stroke-width="1px" opacity="0.25"></line><line x1="187.6328125" y1="0" x2="187.6328125" y2="177" fill="rgb(0, 0, 0)" stroke="rgb(66, 66, 66)" stroke-width="1px" opacity="0.25"></line><line x1="214.4375" y1="0" x2="214.4375" y2="177" fill="rgb(0, 0, 0)" stroke="rgb(66, 66, 66)" stroke-width="1px" opacity="0.25"></line><line x1="241.2421875" y1="0" x2="241.2421875" y2="177" fill="rgb(0, 0, 0)" stroke="rgb(66, 66, 66)" stroke-width="1px" opacity="0.25"></line><line x1="268.046875" y1="0" x2="268.046875" y2="177" fill="rgb(0, 0, 0)" stroke="rgb(66, 66, 66)" stroke-width="1px" opacity="0.25"></line></g><g><line x1="0" y1="177" x2="268.046875" y2="177" fill="rgb(0, 0, 0)" stroke="rgb(66, 66, 66)" stroke-width="1px" opacity="0.25"></line><line x1="0" y1="164.35714285714283" x2="268.046875" y2="164.35714285714283" fill="rgb(0, 0, 0)" stroke="rgb(66, 66, 66)" stroke-width="1px" opacity="0.25"></line><line x1="0" y1="151.7142857142857" x2="268.046875" y2="151.7142857142857" fill="rgb(0, 0, 0)" stroke="rgb(66, 66, 66)" stroke-width="1px" opacity="0.25"></line><line x1="0" y1="139.07142857142858" x2="268.046875" y2="139.07142857142858" fill="rgb(0, 0, 0)" stroke="rgb(66, 66, 66)" stroke-width="1px" opacity="0.25"></line><line x1="0" y1="126.42857142857142" x2="268.046875" y2="126.42857142857142" fill="rgb(0, 0, 0)" stroke="rgb(66, 66, 66)" stroke-width="1px" opacity="0.25"></line><line x1="0" y1="113.78571428571428" x2="268.046875" y2="113.78571428571428" fill="rgb(0, 0, 0)" stroke="rgb(66, 66, 66)" stroke-width="1px" opacity="0.25"></line><line x1="0" y1="101.14285714285715" x2="268.046875" y2="101.14285714285715" fill="rgb(0, 0, 0)" stroke="rgb(66, 66, 66)" stroke-width="1px" opacity="0.25"></line><line x1="0" y1="88.5" x2="268.046875" y2="88.5" fill="rgb(0, 0, 0)" stroke="rgb(66, 66, 66)" stroke-width="1px" opacity="0.25"></line><line x1="0" y1="75.85714285714285" x2="268.046875" y2="75.85714285714285" fill="rgb(0, 0, 0)" stroke="rgb(66, 66, 66)" stroke-width="1px" opacity="0.25"></line><line x1="0" y1="63.21428571428572" x2="268.046875" y2="63.21428571428572" fill="rgb(0, 0, 0)" stroke="rgb(66, 66, 66)" stroke-width="1px" opacity="0.25"></line><line x1="0" y1="50.57142857142857" x2="268.046875" y2="50.57142857142857" fill="rgb(0, 0, 0)" stroke="rgb(66, 66, 66)" stroke-width="1px" opacity="0.25"></line><line x1="0" y1="37.92857142857143" x2="268.046875" y2="37.92857142857143" fill="rgb(0, 0, 0)" stroke="rgb(66, 66, 66)" stroke-width="1px" opacity="0.25"></line><line x1="0" y1="25.285714285714313" x2="268.046875" y2="25.285714285714313" fill="rgb(0, 0, 0)" stroke="rgb(66, 66, 66)" stroke-width="1px" opacity="0.25"></line><line x1="0" y1="12.642857142857157" x2="268.046875" y2="12.642857142857157" fill="rgb(0, 0, 0)" stroke="rgb(66, 66, 66)" stroke-width="1px" opacity="0.25"></line><line x1="0" y1="0" x2="268.046875" y2="0" fill="rgb(0, 0, 0)" stroke="rgb(66, 66, 66)" stroke-width="1px" opacity="0.25"></line></g></g></g><g><g><line x1="0" y1="328.71428571428567" x2="268.046875" y2="328.71428571428567" fill="rgb(0, 0, 0)" stroke="rgb(153, 153, 153)" stroke-width="1.5px"></line></g></g><g><g><line x1="26.8046875" y1="0" x2="26.8046875" y2="177" fill="rgb(0, 0, 0)" stroke="rgb(153, 153, 153)" stroke-width="1.5px"></line></g></g><g><g><g><g><g><path stroke="rgb(0, 119, 187)" stroke-width="2px" d="M37.9131933125,-3.2455069812193686L37.9865309375,1.1414196133626873L38.193516734375,5.281176135895198L38.769174203125004,10.115298013255266L39.1393469375,14.722746635691427L39.362790812499995,18.97995346638294L39.491882187499996,22.95386043101651L40.281173015625,26.72061589422798L40.615856343749996,29.94540871327369L40.892319890625,32.81314364548163L41.044570515625,35.42208347803166L41.223518609375,37.526249441584675L41.440100484375,39.67129688061143L41.535846828124996,41.707017195828904L42.501566109375005,43.78227946332601L42.702601265625006,45.55829544835324L42.753744609375,47.367177374421665L43.045379609375004,48.933893190366696L43.23317325,50.423928736856865L43.285924875,51.811385928873506L43.409601703125,53.017577769098274L43.90940190625,54.35059501287801L43.983543671875005,55.033006291482984L44.272390984375,54.37042153333892L44.32273018750001,53.32790033411219L44.375749859375006,52.24515583105725L44.559844453125,51.97868168873122L45.027318203125,52.719987010999716L45.490824859375,54.00508643205902L46.3676061875,55.98567951686735L46.597107921875,57.97043961266072L46.904825734374995,60.147818304146405L47.180699578125,62.392136085812496L47.255216609375,64.51782514745189L47.889844390625,66.62812402341119L47.93675259375,68.8875422503012L48.887836515625004,71.46201564486466L49.600305109375,74.07579262771364L49.6446400625,76.49499564185328L49.710794031249996,78.73484261836636L50.046710375,81.06841911984817L50.557554109375,82.45123817739173L50.644615734375,83.86249457696009L50.7288360625,85.37428182679338L50.869453453125004,86.94662815682436L51.147578890625,88.34333744921096L51.627490015625,89.31941981981588L51.793893515625,90.68250607354483L51.851309156250004,92.13566090569927L52.312403390625,93.52235040879302L52.359043546875,94.90565736536641L53.189720812500006,95.0118864321017L53.344812734375,95.3878095224063L53.460072890625,96.16384815004317L54.21248046875,97.4391474818637L54.506313453125,98.52456874750375L54.612728062500004,99.86857573795405L54.74760925,101.16222101051338L55.25293121875,102.86074380239464L55.592868265625,104.4631601913577L55.708450078125,105.92558850910896L55.90546453125,107.30074722464875L56.266148406250004,108.731238384148L56.45399565625,110.32503456048104L57.016358,111.42537657170726L57.139874,112.6720631067833L57.340641109375,113.78057239620526L57.63168640625,114.85757707980248L57.8207130625,116.0754936635328L57.89458678125,117.36170565922687L58.191957984374994,118.45750007611483L58.28572078125,119.43958017853161L58.322443203125,120.43813642316974L58.420173093749995,121.38419639473648L58.518707125,122.21507043609712L58.580786781250005,123.01907985509233L58.937289125,124.03841714788143L59.00558746875,125.13437894531914L59.44068115625,125.9842003807142L59.74089365625,126.88455237275863L59.847737140625,128.09116042111944L60.1100478125,129.20755156297545L60.421679109375,130.38371318276202L60.55639946875,131.49492120338883L61.15157075,132.63046285157446L61.461915421875005,133.567213003067L61.497404828125,134.64837966395655L61.608161796874995,135.67327686063783L61.642900671875,136.5662148790467L61.68369740625,137.55507611131557L61.736395421875,138.45826178775573L61.829997390625,139.31217494949453L61.969596203125,140.13689739338616L62.23222853125,141.1396487240698L62.47743781250001,141.95792391758823L62.619181000000005,142.785858244754L62.83394015625,143.60982307029275L62.9880135,144.3134628932453L63.043499203125,145.02038488582517L63.150985999999996,145.55181099349628L63.232901125000005,146.18401781687527L63.373357687500004,146.74282192681997L63.40691715625,147.27403434133802L63.538260125,147.78872230248194L63.58940346875,148.2452928107829L63.884308640625,148.74138237289964L63.924086796875,149.291197724768L64.2752818125,149.90680006159585L64.41284346875,150.56722039330523L64.581713,150.94076607197505L64.73535746875,151.46549869681638L64.8778511875,152.0000261072071L64.99257525,152.34613580763562L65.19591560937499,152.75272405277906L65.411746953125,153.1240408617985L65.60334685937501,153.5126839671135L65.666391484375,153.8473073390717L65.7253081875,154.2263428747003L66.12512690625,154.5986693944937L66.480717890625,155.03311085411713L66.604019453125,155.34112862978884L66.643261515625,155.77283592198376L66.86043309375,156.14025486510042L67.0811965,156.05604769125125L67.24229267187499,156.23115270893157L67.30174546875001,156.10868714027418L67.362056015625,155.9156438033021L67.49817021875,155.73523416247008L67.6404495,155.61715335677212L68.15499228125,155.85186297013814L68.24258999999999,155.87720048200265L68.4164988125,156.03593950397777L68.4692504375,156.093678182261L68.514764796875,156.06790139697185L68.59651909374999,156.08868597470394L68.62911359374999,156.26837604951442L68.95527303125,156.42100505244673L69.1912615,156.5212647588736L69.26449190625,156.83717357378882L69.38093146874999,156.88481386071354L69.5388646875,156.9850939218778L69.67921403125,157.05810579976128L69.739524578125,157.0878902964603L69.79265146875001,156.8465713252926L69.825514015625,156.72704883904925L69.996527921875,156.4631319318554L70.20726637499999,156.59089631582344L70.51659246875,156.80684789381354L70.582103125,157.2109154954864L70.679940234375,157.53098805777708L70.963801875,157.97891673393627L71.213782390625,158.15096364430153L71.41347731249999,158.1052880414605L71.560098953125,158.16121513525434L71.73792125,158.06435705261683L71.981790296875,158.18816290619012L72.079252140625,158.29608307707772L72.334486375,158.3494471263699L72.45382084375001,158.61354730143844L73.54096535937501,158.47119274931129L73.6522048125,158.42912656207073L73.695735625,158.5601318109006L73.90754626562499,158.87877336708937L74.017445484375,159.12929236505352L74.24271207812501,159.23368033595648L74.356363953125,159.4101027056702L74.476663390625,159.41527369803737L74.79376284375,159.5284726563177L75.0925815,159.59031312666139L75.34148982812499,159.84486631325268L75.69890353125001,159.96373385747827L75.784517703125,159.9878113017941L75.848956171875,160.23963371131836L75.9016541875,160.4795673912589L76.15994415625,160.27050565650623L76.29718415625,160.31778997127574L76.50872675,160.13855636958658L76.5604061875,160.02457052234695L76.652667921875,159.9313057632448L77.1235190625,159.98855408182513L77.182864640625,160.01561796175514L77.35907865624999,159.9248968561563L77.78055556250001,159.67455506114314L77.979071078125,159.7974404034406L78.50267384375,159.73960364957108L78.634392078125,159.62316020482513L78.69175410937501,159.65152043399365L78.7605349375,159.62660047961012L78.95599471875,159.61152768183905L79.038177890625,159.50265626218433L79.264248625,159.39893834508675L79.48238517187501,159.16956095840476L79.507581578125,158.92366566039166L79.709420875,158.6858178959583L79.754613578125,158.449393566383L79.788280265625,158.2886956868308L79.8563105625,158.2187509096892L80.12907506250001,158.3398947830172L80.18214834375,158.35384780115947L80.313866578125,158.4624097416213L80.37653593750001,158.47448338508465L80.866472015625,158.6040772068041L81.0880395625,158.72386143948947L81.130766234375,158.96982030208713L81.22538678125,159.30878006715182L81.29808109375,159.3976526582113L81.73821406249999,159.34476332346154L81.78656971875,159.39593077783806L81.80629796875,159.44873725895587L81.907137203125,159.6455471196221L82.43073996875,159.9404424368643L82.54326604687499,160.12437938604805L82.77861120312501,160.21212495571908L82.81104487500001,160.50670255213296L82.992459,160.61441039189322L83.12541025,160.6431227627939L83.48341365625001,160.6570546565708L84.078638546875,160.80705986693312L84.22300859375,160.89125324524437L84.56026517187499,161.06154524097758L84.626740796875,161.19237616473688L84.740928765625,161.34660030580724L84.8385514375,161.5075337998839L85.048914625,161.57085930654463L85.254077703125,161.5269029054199L85.346553875,161.58725450206896L85.6414054375,161.7934164804944L85.717048265625,162.1428439336713L85.744121,162.41802669635587L86.19422531250001,162.53121390691834L86.474441515625,162.83725656286109L86.720615765625,162.96870199121696L86.780711875,163.12321035853637L86.83228409375,163.1044049533961L87.3371771875,162.9478719480372L87.443055703125,162.81511969224093L87.595199109375,162.93903316873428L87.946126078125,163.07513438762788L87.999306578125,163.20133146893224L88.369318484375,163.16970806290436L88.45230579687501,163.12158948863018L89.599868078125,162.65314106391722L89.6728304375,162.43935563390983L89.72702951562499,162.16536896155225L89.95679929687499,162.0727319004752L90.01662735937501,161.7778190316015L90.051795109375,161.5943512743775L91.1520203125,161.32935306950137L91.3252858125,160.87793708219536L91.43170042187501,160.32708463695909L91.810933140625,159.96645432428497L91.85869909375,159.60852785722892L92.25160220312499,159.25924101707963L92.371365546875,158.85631324642915L92.58805464062499,158.60545333138535L92.698811609375,158.19030482544923L92.780190640625,158.15200908933153L93.02674015625,158.0205695993686L93.580793046875,157.73362922907737L94.02044353125,157.40603823127782L94.081451,157.22120194212238L94.13189742187501,157.0310569151967L94.24109971875001,156.83560106897698L94.42074473437499,156.83310881289938L94.662844671875,156.78202737870848L94.82651409374999,156.82045858393397L95.11900684375,156.82446850507228L95.195185765625,157.01035531699492L95.31693265625,157.1827230673996L95.35279732812499,157.13420879001893L95.50177778125,157.37539641237123L95.61049759375,157.63125483036248L95.75760171875,157.7684442513156L96.19778829687499,157.8849564960604L96.557078328125,158.26433054501865L96.941886421875,158.49949393035138L97.159433265625,158.73064681787042L97.2278924375,159.00092267339735L97.27989353125,159.35552206590106L97.363577765625,159.56240861333382L97.60819734375,159.8914186125179L97.77572664062501,159.99576870332675L98.12070296875,160.27246947338185L98.23038774999999,160.29626698183085L98.387356,160.5171142487076L98.44686240625,160.603072248229L98.619967078125,160.841198601193L98.87852509375,161.10547689985347L98.9978595625,161.23419210666282L99.176486,161.45540815628323L99.29914425,161.72759376687733L99.37559121875,161.85105068375415L99.475411875,162.11790110354718L99.511598203125,162.3425622260683L99.82805434375001,162.56438886327666L100.50594489062499,162.63724479524356L101.129100265625,162.79828739744488L101.33340559375,163.15275315322552L101.70545465625,163.55382767858455L101.95114642187501,163.94366857812813L102.03097078124999,164.16365418077513L102.168800484375,164.29123577715862L102.232702859375,164.64390813773704L102.3795389375,164.89754545099922L102.4391525625,165.13246572027643L102.62287189062499,164.88159921583565L103.64375521874999,164.6992825257273L103.704494640625,164.7984201334442L103.75998034375,164.72545459733502L104.04003571875,164.65354881480306L104.167304375,164.37849368023768L104.38351098437501,163.73411434347614L104.428650078125,163.32700590184749L104.507991953125,163.05449078408313L104.689298859375,162.56885789577345L104.73556375000001,162.14276915960102L104.87526978125001,162.01431349147748L105.0900289375,161.96676941544465L105.21086446875,161.9016111931406L105.86854428125,161.68284147155646L105.924351640625,161.7305864078244L106.37590340624999,161.6973087532656L106.446185296875,161.6549603338782L107.03251103125001,161.79940370597956L107.404399265625,161.87641536761927L107.460581890625,162.15956239206258L107.60355809375,162.33822786187926L107.70954382812499,162.56642036849374L107.75999025,162.99978390126918L108.17910834375,163.2520627704379L108.21936898437501,163.4162875018175L108.28236,163.67999976747916L108.49797690624999,163.80175492156056L108.58418078125,163.9555926748615L108.7191691875,164.16201967152668L109.17956649999999,164.33118225724104L109.47650882812499,164.44047325296606L109.50224132812501,164.58703953416145L109.6665540625,164.74893932562878L109.98552984375,164.59986900492842L110.671676234375,164.65727083243877L110.9739795,164.68061877541282L111.02598059375,164.70039448136302L111.18273440625,164.97958797544985L111.24706565625,165.1010852787699L111.559769140625,165.03504921994306L111.93047796875,164.81162022946037L112.015288,164.57815996993176L112.5357278125,164.69763485482449L112.768338890625,164.86145865910117L112.87979278124999,164.93057355585884L113.053433546875,165.12675249506236L113.529645625,165.19830245169064L113.87907153124999,165.37381448881843L113.92367453125,165.53343625288986L114.14604621875,165.61280268333763L114.625689296875,165.91164837716997L114.70422703125,166.25049479441722L115.063570671875,166.47657124997846L115.12736582812501,166.61548310081096L115.341481671875,166.5798349404647L115.63976423437501,166.7868384390158L115.77528873437501,166.81017562222866L115.928397109375,166.90869042787162L116.067995921875,167.12575714065878L116.25712979687499,167.3193915003316L116.451410171875,167.4125517819006L116.90446299999999,167.42161803453232L117.381854484375,167.51595932401096L117.52665340625,167.64781283848836L117.669844046875,167.67208924218667L117.82429265625001,167.8275663780136L117.8805825,167.85172277511717L118.29385717187499,167.9364756427204L118.365157640625,167.9088691535373L118.835526296875,168.08512146263493L118.99131514062499,168.04175475873615L119.015224921875,168.04009824975998L119.09140384375,167.8816523309407L119.15632479687501,167.8762951286255L119.250033984375,167.8954369265363L119.388560609375,168.19002891743125L119.763290140625,168.2995682662607L119.78618134375,168.44113644729396L120.168148140625,168.4953024012451L120.2168790625,168.58599672014995L120.28153196875,168.62369781075628L120.810817328125,168.6060148730161L121.01646289062501,168.69348138566866L121.15402454687501,168.6047523908837L121.20275546875,168.60242127220653L121.328255015625,168.63656849108378L121.637902765625,168.65963107488497L121.686687296875,168.85661861767488L121.774285015625,168.88518759584045L121.826178890625,168.95935202282848L121.869280828125,169.06429361329265L122.1043579375,169.21169636045158L122.80326335937501,169.42473889123144L123.34300254687501,169.47807302526604L123.63576334375,169.41713534799484L123.998430765625,169.61116589543747L124.070481765625,169.85473281876193L124.61102509375,170.05532993178628L124.93627317187499,170.2683221089564L125.366327578125,170.52189398336805L125.41591625000001,170.69584548973435L125.614967859375,170.7453006823861L126.02197023437499,170.8593920887384L126.14570067187499,170.91894315494096L126.333547921875,170.82751963869757L126.799091734375,170.78833644288332L126.861921921875,170.78317411249378L127.0162633125,170.66693702227576L127.270210921875,170.75985310141542L127.444870265625,170.9143690378512L128.166559671875,170.90016207196032L128.303906890625,170.8766843798601L128.377030078125,170.8428584410577L128.750901859375,170.84518139601423L128.79148415625,170.7541820546246L128.865357875,170.73826146214722L128.966625984375,170.79082282695973L129.05459896875,170.70861521247573L129.63915559375,170.64173962278605L130.1532695,170.43642493487602L130.35945115625,170.18057959493112L130.5669194375,170.08382236004624L130.607501734375,169.78506603526995L130.907660625,169.54022326472315L131.218970265625,169.2114459935028L131.283301515625,169.08658053704775L131.61198059375,168.80808595563187L131.766268375,168.6348708171975L131.85231142187502,168.556188905955L131.9614065,168.5414989751564L132.311797375,168.43587609418918L132.47873696874998,168.10354125466506L132.58981559375002,167.89651005023342L132.761204765625,167.71835699844888L132.932808375,167.75624527025948L133.104519203125,167.64635021984438L133.21613392187498,167.39823130358093L133.616917609375,167.05881726743613L133.74734921875,166.66563697671467L134.339893640625,166.2610289299778L134.39859590625,165.94063811173473L134.47756251562498,165.59605994651145L135.25184271875,165.3693927533771L135.474911328125,165.2344566822586L135.6958355625,165.1745929374516L135.924157890625,164.78156382222033L135.97653425000001,164.57791341155715L136.12406725,164.34720959512245L136.26929504687502,164.10626082561842L136.38160668749998,164.11848684402767L136.82747585937503,163.57182170766657L136.9541548125,163.25744378919947L137.104421890625,163.16200927767585L137.242305203125,162.93056209826392L137.362819078125,162.47602746873446L137.490731046875,162.2595992143359L137.672359609375,162.03479039042307L137.821822546875,161.8023063832151L137.867283296875,161.72266710021094L138.6482110625,161.72710328861316L138.97919534374998,161.73143447141166L139.317738546875,161.78765113290896L139.3871626875,161.5942599169682L139.412091046875,161.49283879603058L139.53667923437501,161.43539758952437L139.585463765625,161.3536140960916L139.71450153125,161.49925244212739L139.8458445,161.46044668235646L140.028813296875,161.3651369138989L140.226256625,161.34846068610008L140.487870375,161.38928036620024L140.63910242187498,161.21047144972556L140.980272484375,161.2784843127754L141.056558625,161.38281924990685L141.140457296875,161.29271148977003L141.34792557812503,161.0738293693788L141.48618415625,160.91829293811688L141.7378265625,160.87603825950197L141.873404671875,160.88256791716066L141.969365453125,160.9935742581558L142.071116046875,160.98474716742925L142.10933953125001,161.02803299049629L142.6161625625,161.14488201604536L142.64730960937501,161.32353307146502L142.87402365625002,161.23669670125142L143.0506129375,161.0968740828929L143.249557328125,161.11729297041686L143.28788803125,161.2606075171895L143.403952328125,161.2848903073779L143.45702560937502,161.4354446718454L143.592978984375,161.56451420399756L143.8736240625,161.50615028178095L143.938008921875,161.4984697808473L144.29386795312502,161.2277609177168L144.348227859375,161.0920672346501L144.55242596875,160.91164963664266L144.66672115625002,160.4953821951773L144.7802658125,160.40457508611198L144.987466046875,160.10412404403215L145.470593734375,159.74565078033288L145.59057151562502,159.32306345419963L145.715052484375,159.05554932884823L145.74598509375,158.82786980007478L145.9839035,158.56901432812725L146.095571828125,158.42178484119742L146.17453843750002,158.21577101578757L146.577037625,158.1030168502706L146.80530634375,157.81353572486447L146.9662416875,157.52244363985267L147.5057664375,157.24413432055422L147.6959725,156.99825952391558L147.851171640625,157.02605526526185L148.001706765625,156.68415241141838L148.10415428125,156.57118066684566L148.16966493750002,156.48691872750786L148.2588709375,156.4898071885353L148.36421335937501,156.5805958709779L148.41230096875,156.63565473245805L148.50761843749999,156.567259920055L148.6015420625,156.4828935308194L148.665498046875,156.50644558477296L148.90561443750002,156.4829830157934L148.968498234375,156.5882518204534L149.08590276562498,156.38628352480296L149.240404984375,155.95311579860547L149.512847828125,155.78716199154803L150.16168209375,155.60973400302123L150.37547628125,155.88998194889254L150.539574578125,156.09206111738737L150.87763529687498,156.06655421510933L151.05331321875,155.99463467400665L151.340123375,155.79921631216894L151.424129265625,155.80927272081274L151.533599609375,155.71574599909687L151.65867028124998,155.67079877696796L151.77725421875002,155.6429037996725L151.83986996874998,155.5563616997878L151.9085971875,155.54460860713255L152.37006668749999,155.36446007365146L152.438740296875,155.36231242393197L152.48870423437498,155.458815957112L152.580376265625,155.550443447455L153.21816700000002,155.5458126969112L153.25880290625,155.63036806776938L153.29547171875,155.72488733377565L153.356747234375,155.8622734818278L153.765893984375,155.8746969542792L154.24006890625,155.95752162526864L154.469248984375,156.27403270433194L154.89303109374998,156.1909658844677L154.964599609375,156.11483874179714L155.115778046875,156.25262258885073L155.739791171875,156.14726080165184L155.939646921875,156.03236881384976L156.135428359375,155.94184127252254L156.2033514375,156.02254552930074L156.230745828125,156.03202788769494L156.35613815624998,155.9888549651649L156.78227907812501,156.08205957738477L156.91238903125,156.3299592172967L157.01103028125002,156.43782367895778L157.136208171875,156.57687523532255L157.665654359375,156.48207526480795L158.09050865625002,156.48703802334836L158.116830859375,156.4240723680958L158.44867289062498,156.57306442458727L158.70514014062502,156.6665844962928L159.074615953125,156.54414647399608L159.382012109375,156.44613558316775L159.42988528125,156.38430228461712L159.49528871875,156.30023871396097L159.53887314062501,156.27640270718766L159.6725213125,156.147282402454L159.95697265625,156.01994972816664L160.93561179687498,155.85373351233892L161.06481039062498,155.65129665230523L161.278819015625,155.45935088604756L161.34395440625002,155.12897900392178L161.917306671875,154.8230165672723L162.033102921875,154.68681682193017L162.21457065625,154.1748060203604L162.283994796875,153.88911558159944L162.326882296875,153.6319578464432L162.892139546875,153.17509860137756L162.970623671875,152.99546690116142L163.084597203125,152.35801504359821L163.11917524999998,151.85235014023684L163.21985365625,151.4350773956439L163.395424359375,151.29462783846554L163.48682834375,151.05667547297395L163.64572653125,150.88274631275203L163.72689112499998,150.65449606766808L163.8433306875,150.26506279876807L163.937736796875,149.82633859821306L164.457747734375,149.46080110802419L164.7182356875,149.20281063491706L164.921683265625,148.88021470149516L165.047772515625,148.76096718505318L165.20897590625,148.31564176326523L165.355758375,147.9233133198715L165.684115796875,147.78625488214L165.713708171875,147.66624332517364L165.95285959375,147.61655922203173L166.09760490624998,147.5332010071451L166.261810421875,147.57277851904405L166.37471176562502,147.52795228159582L166.58121507812498,147.52948811372747L166.7583940625,147.50920845687702L166.8844833125,147.44121298424557L166.918418046875,147.51495539232926L166.974332625,147.5494392080877L167.03517926562498,147.43573061517444L167.186196875,147.4791709168737L167.385462921875,147.45075913324953L167.735746578125,147.54636861556446L167.8190019375,147.5280048947674L167.960798734375,147.46097802388664L168.39530271875,147.4215176232261L168.67970045312498,147.63386889601824L168.83704396874998,147.56739560965806L168.97760775,147.62835569432426L169.041242078125,148.06194935280578L169.147013375,148.19823834854364L169.339202984375,148.11492271609345L169.399245484375,148.2842588551345L169.54297221874998,148.37828720329617L169.906711828125,148.26626507785699L170.0440054375,148.23247436725825L170.207996515625,148.09565291900122L170.231209375,148.09442708549932L170.39863145312498,148.14498120124273L170.700130578125,147.81017839316044L171.42959334374999,147.63878740807854L171.64638965625,147.28329901908722L171.73479151562498,146.88574099100632L171.98482564062502,146.59314019900572L172.23888046874998,146.28535244657363L172.760446078125,146.03681768268137L172.93408684374998,146.00994768061395L173.149274875,145.95563092184312L173.34183975,145.86805254163127L174.21363540625,145.85584342573773L174.81127271875002,145.47508159411763L174.86981415625,145.24127875627963L174.92320909375,144.92737239014755L175.073583390625,144.52146445574854L175.3804970625,144.21946178537834L175.6854271875,144.01800783397732L175.72011245312498,143.7844142460839L175.80186675,143.54801949025207L175.853278140625,143.41393634502478L175.90769165625,143.21374901686704L175.97486420312498,142.91974941774217L176.02391678125,142.68299935655745L176.418213734375,142.52115709141566L177.79077456250002,142.40979071145287L177.84770771875,142.43209158431273L177.89552728125,142.38150241032628L178.240503609375,142.39484288184178L178.872236484375,142.04512966354324L178.96964471874998,141.6431137098011L179.21989328125002,141.35411693164787L179.624054359375,141.3176378354223L179.6797545,141.17594518381733L179.79549714062497,141.11042473825273L179.89730134375,141.02609874187175L179.93648979687498,141.08205795567014L180.07163903125002,141.22820823415003L180.97034659374998,141.72287404403633L181.31376824999998,141.89000491500735L181.434711,142.20917631541775L181.574095375,142.67585702880692L182.029292578125,143.12894269570103L182.089227859375,143.54185256482617L182.37823600000002,144.08772432067238L182.4955333125,144.4220991024195L182.56549354687502,144.79901141667148L182.80502023437498,144.98179043956623L182.97153095312498,145.16265633450573L183.03806018749998,145.32779662604142L183.27474557812502,145.5229538761247L183.37354765625,145.7717767940355L183.502263765625,145.8937190849797L183.696115265625,146.23986747650574L183.74452453125002,146.70018527329253L184.1629993125,147.20506666571598L184.475595578125,147.29009925024872L184.57348629687502,147.5352118716157L184.626130703125,147.74927663500372L184.697645609375,147.90631791129496L185.35666565625002,147.90493381692158L185.82194142187498,147.88119542041946L186.30319278125,147.74452096333513L187.124970890625,147.26001580227586L187.440515671875,146.8868376355086L187.520500859375,146.7469585772178L187.57394940625,146.54336854231093L187.743837515625,146.44127787030598L188.28229007812502,146.21600628875711L188.55484014062498,146.16516662401395L188.826103578125,146.24462971044468L189.07672740625,146.29354489039338L189.183195625,146.33438983079913L189.3056394375,146.4686928316083L189.4231511875,146.75460071975905L189.53835773437498,146.71396741134666L189.702831296875,146.83557444809054L189.76458929687502,146.8665511833598L189.917054359375,146.7557024082165L190.002078828125,146.76522835283237L190.05654595312498,146.73283148472544L190.32019685937502,146.56094414623365L190.447519125,146.47208817452386L190.591781953125,146.3868828077739L190.643032515625,146.40303935942921L190.744139796875,146.0635851876322L191.029448890625,145.98787910356344L191.11726104687497,145.66406147399763L191.17703550000002,145.58362191664722L191.2450121875,145.5632607493673L191.585699765625,145.41735599556512L191.68836171875,145.19983231395625L191.856641546875,144.97494081388126L192.32416890624998,144.80066242672982L192.47942165625,144.7294208085332L192.59371684375,144.62385727215423L192.70951309375,144.45839067321913L192.807671859375,144.41981544763644L192.947485109375,144.29205352885498L193.436509828125,144.11849948497442L193.634435640625,143.83296668489297L193.700964875,143.46815820362002L193.876213921875,143.1134487320153L194.3247635625,142.82148376588268L194.55019098437498,142.54060162996993L194.812662484375,142.51086404452252L195.06864725,142.36589241499186L195.4707175625,142.2021955892519L195.59359025,142.1186969254663L195.924252875,142.0772713234562L196.262367203125,141.96387939538386L196.43922453125,142.20950933154242L196.49958868750002,142.2635139885278L196.76350764062502,142.36643816377668L196.82580173437498,142.39311557490282L196.87989359374998,142.34861796900353L197.008180828125,142.41313313253067L197.189273296875,142.33961774624362L197.427513359375,142.46088518630586L197.56845240625,142.34844991982263L197.648491203125,142.3889627658113L197.76316165625002,142.50370967407335L197.987999375,142.26533338339328L198.5491823125,142.21746234873856L198.831435671875,141.79093125418044L198.980791390625,141.65526847605503L199.028396515625,141.73086522101585L199.3460320625,141.9614053276704L199.376106921875,141.95257186187234L199.42532032812503,141.99425216990986L199.479036921875,142.02372986096788L199.6848433125,142.07308521671527L199.86486359375002,141.95111310679692L201.103829859375,141.82772176964394L201.25924343749998,141.84120629578408L201.39064001562502,141.81229596794316L201.69910835937497,142.0177172431115L201.86899646875,142.0897298569946L201.93418546875,142.16918168476462L202.03775878125,142.34709598418465L202.072980140625,142.34292653578518L202.432699046875,142.590223756381L202.585539375,142.6875329612557L202.67120715625,142.4916003287895L203.139699484375,142.5897035892247L203.46269596874998,142.53671982649777L203.53303146874998,142.62141328954885L203.76810857812498,142.80320033212908L203.88149240625,143.08958110474364L203.999808296875,143.3177679342141L204.13817409375002,143.5210300902956L204.397697078125,143.81814199509904L204.58640207812502,143.8186232271235L204.82753704687502,143.75288089264336L205.23416415625002,143.52189189733522L205.27683721875,143.52358175750388L205.34610053125,143.54116664031875L205.674136296875,143.4640901180296L206.1123929375,143.5103746814111L206.30222373437502,143.55300271470134L206.414696203125,143.57311519643508L206.46959220312502,143.5038185204702L206.51092503125,143.55422719886602L206.749647578125,143.84345473518707L206.960546859375,143.9613778604076L207.359775875,143.96311753557535L207.733808484375,144.07524403009623L207.92900021875002,144.15069344276594L208.15759059375,144.18784072756594L208.241596484375,144.1615929342492L208.58260571875,144.20724754024502L208.78251507812502,144.34112730218052L208.898204109375,144.39062911845951L209.01962934375,144.42891816488589L209.13880298437502,144.41253982246587L209.30745807812502,144.57917739533733L209.433440109375,144.80079923574314L209.598556984375,145.01052612527897L209.811225375,144.94448542203247L209.9377435,144.9029824413404L210.18509715625,144.96837944112613L210.44767587500002,144.9151769517347L210.50396571874998,144.9673192709106L210.709128796875,145.30662119342637L211.10589178125,145.58208106882864L211.566128265625,146.1317072552128L211.7070673125,146.36334125963273L211.85545806250002,146.6706884031542L211.8992033125,147.02629518454373L212.04855903125,147.43686308745103L212.339068234375,147.60419445404787L212.59859121875,147.84409299347564L212.66190389062498,148.23614270463946L212.874411453125,148.623217724315L212.97900334375,148.63883294654295L213.350462703125,148.6916851659609L213.393886296875,148.55822548297124L213.518152828125,148.56564448522678L213.718759109375,148.50233142552426L214.103888859375,148.5015712237094L214.43149574999998,148.46968973003158L214.559139671875,148.34241369692128L214.9004705625,148.30755479325683L215.3366364375,147.94702643384878L215.44610678125,147.5997195225128L215.507543125,147.3564510983338L215.548661515625,147.2000035153263L215.85321637500002,147.01513144973885L215.9078979375,147.0296143861277L216.098372046875,147.1430821883758L216.214811609375,147.39816998084004L216.2771593125,147.53320777473485L216.391829765625,147.39979567028692L216.68753907812498,147.21263457113662L217.179297875,146.98475754246564L217.51660806249998,146.71443063177276L217.64393032812498,146.6209890431564L217.735066265625,146.3916555606122L217.97062585937502,146.08167952331175L218.01560412499998,145.90323745979384L218.1770755625,145.64488819708976L218.290084125,145.3260941811675L218.65259071875002,145.3885682929133L218.68475634375002,145.33992980295736L218.8688509375,145.227939139717L219.06323853125,145.04796725711262L219.73035359374998,144.98817424644582L220.00461915625,145.02068812719773L220.086373453125,144.8244739001385L220.2313868125,145.00362865107195L220.745822375,144.90134779391775L220.79256975,144.85386028023603L221.11197440625,144.63996468559344L221.170355015625,144.52757036022723L221.26958596875,144.40223995775034L222.02917720312502,144.16088247964046L222.16636359375,143.8364533410904L222.25717787500002,143.50458535091943L222.34134459375,143.340093183617L222.5215793125,143.30423340398167L222.655549140625,143.12073120172155L223.132136484375,143.2554622979021L223.38227782812498,143.1216213035516L223.473949859375,142.8637057766424L224.040279296875,142.93826880344267L224.073088234375,142.9917432407093L224.429697796875,143.0625484936013L224.851603578125,143.21110328825625L226.176612890625,143.6593198220203L226.241158578125,143.98145554828918L226.35604346875,144.20227327829176L226.498483578125,144.53510859415513L226.63379364062502,144.6418917407693L227.925565140625,144.67553770840416L228.07963848437498,144.89348319626518L228.286356234375,144.84279625314596L228.33224585937498,144.80225945440435L228.382531453125,144.86128539211396L228.517627078125,144.68168855208654L228.72707890625,144.62100561050434L228.902167125,144.6916705181333L229.03849576562502,144.59071395287032L229.13182968750002,144.5541735814478L229.42383995312503,144.6720465173466L229.583167015625,144.713170162318L229.6121696875,144.65847618733522L229.7712823125,144.8276576204082L230.06023684375,144.74242693923514L230.54958321875,144.8091938965921L230.81773731250001,144.99397130967805L230.91048153124999,145.27658880881586L231.025259203125,145.45122827636146L231.06723534375,145.62135672134613L231.383209,145.83053956257493L231.651255875,145.77210647243945L231.76195923437498,145.6629453484051L231.914585125,145.72880751118038L232.061957296875,145.8606497066306L232.54964178125,145.87352604324798L232.679537296875,145.66672597422053L232.733682765625,145.75398143668139L232.97674767187502,145.62449841277294L233.253264828125,145.58678552697623L233.38101596875,145.4830698350597L233.8571744375,145.14262038467703L233.976133640625,145.21694902222671L234.103616734375,145.08947137496978L234.760438796875,145.01829653174963L234.952038703125,144.92772094504045L235.07925375,144.71941351072908L235.617652703125,144.77045487197597L235.9076258125,144.8772839035806L236.27184790625,144.91512188137065L236.4338554375,145.18565806385485L236.51116015624999,145.22348790166413L236.8592994375,145.2115103078091L237.16326459375,145.5002655936161L237.51215440625,145.64518426786788L237.571285546875,145.9001751383723L237.616531859375,146.00436094814629L237.74835731250002,146.4033188688666L237.90028628125,146.75495158613583L237.983005546875,146.87570571129194L238.364597078125,147.14989042444466L238.59388437500002,147.24307081002118L238.66036000000003,147.19740060471707L238.9775130625,147.19457686081722L239.033105984375,147.04016426269365L239.08478542187498,147.08922512911136L239.430780328125,147.16187643539732L239.49141253125,147.17082692985966L239.74037446875,147.16077504818608L240.358705,146.97373953569794L240.71820946875,146.82633436233365L240.92106734375,146.81578966562984L241.0361130625,146.3165657938811L241.16397142187498,146.09703716779887L241.2145250625,146.3018376657866" style="fill: none;" fill="none"></path></g></g></g></g><g opacity="0.2"><g><g><g><path stroke="rgb(0, 119, 187)" stroke-width="2px" d="M33.23641865625,-0.11046174594331948L33.685343562499995,1.4978514483996883L33.832179640625,11.165288865566273L33.86450609375,10.63812686715808L34.357551515625,30.358152866363525L34.462518671874996,29.614884968314854L34.5104990625,31.090776545660848L35.003758921875,36.10523974043983L35.26285303125,39.96515372821265L35.409581890625,41.6666085464614L35.862956375,59.7314679494926L35.892119875,58.25943843381747L36.04640765625,59.55356820140567L36.360933859375,61.600121779101244L36.403070828125,63.57180787835803L36.614720640625,56.58628028205463L36.72488790625,57.4597090780735L36.785198453125,56.083891996315565L37.020650828125,54.24387394104686L37.07828090625,50.78951410736357L37.4139828125,59.374971398285474L37.85567045312499,70.44891515799931L37.9131933125,73.18653286354883L37.9865309375,77.01264910187041L38.193516734375,77.23058241605759L38.769174203125004,94.52438591633523L39.1393469375,95.52839007547924L39.362790812499995,93.9542325777667L39.491882187499996,93.2148644200393L40.281173015625,93.56755542755127L40.615856343749996,87.37648217592921L40.892319890625,84.05603226593563L41.044570515625,82.1881885273116L41.223518609375,75.35718107649258L41.440100484375,78.34673707825797L41.535846828124996,78.50999867064613L42.501566109375005,81.39573115110397L42.702601265625006,77.82573553919792L42.753744609375,80.30695002845356L43.045379609375004,77.52570044568607L43.23317325,77.67227039592606L43.285924875,77.23333295754024L43.409601703125,75.15910441109112L43.90940190625,78.86308530398777L43.983543671875005,67.60253802793368L44.272390984375,42.14684178573745L44.32273018750001,34.06637260743552L44.375749859375006,32.21209318297252L44.559844453125,47.0417129439967L45.027318203125,66.47168869205883L45.490824859375,77.87339903201377L46.3676061875,92.81375634670258L46.597107921875,94.91624388098717L46.904825734374995,100.7211109655244L47.180699578125,104.25384239213807L47.255216609375,104.20378630501884L47.889844390625,106.06160752262389L47.93675259375,111.14295032194683L48.887836515625004,119.64792601551329L49.600305109375,123.0343512424401L49.6446400625,121.84153936590468L49.710794031249996,120.74808609059879L50.046710375,124.8680958024093L50.557554109375,108.42177934731757L50.644615734375,110.38257631659508L50.7288360625,113.79925749983107L50.869453453125004,116.52579768214906L51.147578890625,114.63152237023627L51.627490015625,107.6994796182428L51.793893515625,116.3615752841745L51.851309156250004,119.52322852185794L52.312403390625,119.6678580215999L52.359043546875,120.99744339925903L53.189720812500006,97.0163011423179L53.344812734375,102.48349216154644L53.460072890625,110.81669088772365L54.21248046875,121.52637629423822L54.506313453125,119.03157865149635L54.612728062500004,125.26826190948486L54.74760925,125.6167140688215L55.25293121875,134.97705164551735L55.592868265625,134.76959299615453L55.708450078125,133.59079757758548L55.90546453125,133.32073585050446L56.266148406250004,135.80381543295724L56.45399565625,140.49416687658857L57.016358,132.25776460341046L57.139874,136.27933884092738L57.340641109375,134.77486800721715L57.63168640625,135.25847348570824L57.8207130625,139.1490955735956L57.89458678125,141.73270179544176L58.191957984374994,139.223341354302L58.28572078125,138.05291059613228L58.322443203125,139.3660869215216L58.420173093749995,139.3191770017147L58.518707125,137.96817131127628L58.580786781250005,138.26445737906863L58.937289125,143.36872763718875L59.00558746875,145.91976066572326L59.44068115625,142.1028945360865L59.74089365625,143.9631460266454L59.847737140625,150.9809453870569L60.1100478125,150.38754432116235L60.421679109375,152.69931791935647L60.55639946875,152.57963168621063L61.15157075,154.1783368246896L61.461915421875005,151.34397918411662L61.497404828125,155.16698693377631L61.608161796874995,155.12510711380412L61.642900671875,153.51447668245862L61.68369740625,156.3249648979732L61.736395421875,155.60275936552455L61.829997390625,155.52212705356735L61.969596203125,155.79341333678792L62.23222853125,160.1766649399485L62.47743781250001,157.4933233303683L62.619181000000005,158.50524000610622L62.83394015625,159.2544046129499L62.9880135,157.67389826263698L63.043499203125,158.44357889464925L63.150985999999996,155.64296248555183L63.232901125000005,158.18922916480471L63.373357687500004,157.35445866414477L63.40691715625,157.361975554909L63.538260125,157.5631041909967L63.58940346875,156.9161806021418L63.884308640625,158.1630048240934L63.924086796875,159.7333944567612L64.2752818125,161.59867604715484L64.41284346875,163.11055073567798L64.581713,158.0356321462563L64.73535746875,161.43207989420208L64.8778511875,162.1528159592833L64.99257525,158.9202326621328L65.19591560937499,160.47568270989825L65.411746953125,160.17713592307908L65.60334685937501,160.89498957140106L65.666391484375,160.2035863356931L65.7253081875,161.4263339000089L66.12512690625,161.671301645892L66.480717890625,163.28575646025794L66.604019453125,161.19229296275546L66.643261515625,163.97371209944995L66.86043309375,163.11995155896457L67.0811965,154.45638642566544L67.24229267187499,159.55760471309932L67.30174546875001,153.7822023332119L67.362056015625,152.24836099147797L67.49817021875,152.30793093783515L67.6404495,153.37391647696495L68.15499228125,160.31078209621566L68.24258999999999,156.35855541484696L68.4164988125,159.05163695556777L68.4692504375,157.19059421334947L68.514764796875,155.57819288543294L68.59651909374999,156.48355433770587L68.62911359374999,159.68217033147812L68.95527303125,159.32070019841194L69.1912615,158.42603948286603L69.26449190625,162.83896302325385L69.38093146874999,157.78991082736422L69.5388646875,158.8902781350272L69.67921403125,158.4452367552689L69.739524578125,157.65375902397292L69.79265146875001,152.26179343036245L69.825514015625,154.45625455038888L69.996527921875,151.44898958291324L70.20726637499999,159.01829134992192L70.51659246875,160.90972192372593L70.582103125,164.88783383795192L70.679940234375,163.612091251782L70.963801875,166.4891953212874L71.213782390625,161.41972129685539L71.41347731249999,157.23748529383113L71.560098953125,159.22379070946147L71.73792125,156.224117990051L71.981790296875,160.54039579204152L72.079252140625,160.3465014568397L72.334486375,159.36333359139306L72.45382084375001,163.63130736351013L73.54096535937501,155.76652961969376L73.6522048125,157.62988959891456L73.695735625,161.04917060903142L73.90754626562499,164.932822146586L74.017445484375,163.88904817189487L74.24271207812501,161.2170101574489L74.356363953125,162.7620608976909L74.476663390625,159.51352069207599L74.79376284375,161.67921416248592L75.0925815,160.765261977911L75.34148982812499,164.68129831552505L75.69890353125001,162.22218235475677L75.784517703125,160.4452760389873L75.848956171875,165.0241928739207L75.9016541875,165.03824701053756L76.15994415625,156.29838261008263L76.29718415625,161.21618122713906L76.50872675,156.73315655759404L76.5604061875,157.8588627576828L76.652667921875,158.15929347702433L77.1235190625,161.076261558703L77.182864640625,160.52982693059104L77.35907865624999,158.20121097564697L77.78055556250001,154.91810060824665L77.979071078125,162.13224341613906L78.50267384375,158.6407135937895L78.634392078125,157.41075056791306L78.69175410937501,160.19036112938608L78.7605349375,159.15312440054757L78.95599471875,159.32514627916473L79.038177890625,157.43411133119037L79.264248625,157.42830881902148L79.48238517187501,154.81141350950512L79.507581578125,154.25167831778526L79.709420875,154.16673180035184L79.754613578125,153.95735153981616L79.788280265625,155.23544904163907L79.8563105625,156.88980554682868L80.12907506250001,160.64161948646816L80.18214834375,158.6189541731562L80.313866578125,160.52507942063468L80.37653593750001,158.7038818512644L80.866472015625,161.06635207363536L81.0880395625,160.99975505896975L81.130766234375,163.64302542379926L81.22538678125,165.7489982332502L81.29808109375,161.08622756174634L81.73821406249999,158.33986840929302L81.78656971875,160.3681101628712L81.80629796875,160.4520581960678L81.907137203125,163.38492666823524L82.43073996875,165.54344235573495L82.54326604687499,163.6191748380661L82.77861120312501,161.8792877963611L82.81104487500001,166.10366736991065L82.992459,162.66085604258944L83.12541025,161.1886569729873L83.48341365625001,160.92176025254386L84.078638546875,163.65715491771698L84.22300859375,162.49092532907213L84.56026517187499,164.29708911691392L84.626740796875,163.67816076534135L84.740928765625,164.27685568162372L84.8385514375,164.56526691147258L85.048914625,162.77404270853313L85.254077703125,160.69173209156307L85.346553875,162.733933785132L85.6414054375,165.71049065249306L85.717048265625,168.7819600403309L85.744121,167.64649506977628L86.19422531250001,164.68176929865564L86.474441515625,168.65206289291382L86.720615765625,165.46616344366754L86.780711875,166.0588674545288L86.83228409375,162.74710247346331L87.3371771875,159.97374656796455L87.443055703125,160.2928282192775L87.595199109375,165.29338799204143L87.946126078125,165.6610562631062L87.999306578125,165.59907488312038L88.369318484375,162.56886361752237L88.45230579687501,162.2073369664805L89.599868078125,153.75262459261077L89.6728304375,158.377434023789L89.72702951562499,156.9596240861075L89.95679929687499,160.31262835008758L90.01662735937501,156.17447636808666L90.051795109375,158.10846497757095L91.1520203125,156.29438867313522L91.3252858125,152.30103574480327L91.43170042187501,149.86089098453522L91.810933140625,153.11448012931007L91.85869909375,152.8079266292708L92.25160220312499,152.622792580298L92.371365546875,151.20068727646554L92.58805464062499,153.83911593471254L92.698811609375,150.30248476777757L92.780190640625,157.42439023937496L93.02674015625,155.5232197344303L93.580793046875,152.2817631150995L94.02044353125,151.18181027259143L94.081451,153.7093129839216L94.13189742187501,153.41830192719186L94.24109971875001,153.12194050209862L94.42074473437499,156.78575595361846L94.662844671875,155.8114802496774L94.82651409374999,157.5506513970239L95.11900684375,156.9006569981575L95.195185765625,160.54220436726297L95.31693265625,160.45770999363492L95.35279732812499,156.21243760841233L95.50177778125,161.95796081849505L95.61049759375,162.4925643503666L95.75760171875,160.37504303455353L96.19778829687499,160.09868897284778L96.557078328125,165.472436938967L96.941886421875,162.96759793588092L97.159433265625,163.12255138584544L97.2278924375,164.1361636008535L97.27989353125,166.09291011520793L97.363577765625,163.4932527882712L97.60819734375,166.14260825514793L97.77572664062501,161.97842032568795L98.12070296875,165.52978384494781L98.23038774999999,160.74841962116105L98.387356,164.71321213245392L98.44686240625,162.23627417002405L98.619967078125,165.3655991256237L98.87852509375,166.12676438263486L98.9978595625,163.67978094731058L99.176486,165.658512954201L99.29914425,166.89912019882883L99.37559121875,164.19673203144754L99.475411875,167.18805892978395L99.511598203125,166.6111234341349L99.82805434375001,166.77909485782894L100.50594489062499,164.0215074675424L101.129100265625,165.85809676562036L101.33340559375,169.88760235905647L101.70545465625,171.17424349486828L101.95114642187501,171.3506455165999L102.03097078124999,168.3433805491243L102.168800484375,166.71528606329645L102.232702859375,171.34468287016662L102.3795389375,169.71665432197705L102.4391525625,169.59595076526912L102.62287189062499,160.11513570376803L103.64375521874999,161.23526546359062L103.704494640625,166.6820346542767L103.75998034375,163.3391094292913L104.04003571875,163.28733896357673L104.167304375,159.1524461848395L104.38351098437501,151.49090708153588L104.428650078125,155.59194559284617L104.507991953125,157.8767035986696L104.689298859375,153.34183310610908L104.73556375000001,154.0470832458564L104.87526978125001,159.57365581818988L105.0900289375,161.0634319782257L105.21086446875,160.66360497900416L105.86854428125,157.5262167922088L105.924351640625,162.63774019054006L106.37590340624999,161.0650333208697L106.446185296875,160.85034037062098L107.03251103125001,164.54382775936807L107.404399265625,163.33963693039757L107.460581890625,167.53935582722934L107.60355809375,165.73287177085876L107.70954382812499,166.90207797288895L107.75999025,171.2336909856115L108.17910834375,168.04536126341137L108.21936898437501,166.53655738489968L108.28236,168.69053279502052L108.49797690624999,166.11510284032138L108.58418078125,166.87850997703416L108.7191691875,168.08413259472164L109.17956649999999,167.54527137534959L109.47650882812499,166.51700216531754L109.50224132812501,167.37179886869023L109.6665540625,167.8250353549208L109.98552984375,161.7675329191344L110.671676234375,165.74790555238724L110.9739795,165.1242296908583L111.02598059375,165.07613289356232L111.18273440625,170.28426435164045L111.24706565625,167.4095340371132L111.559769140625,163.78036410467965L111.93047796875,160.56646941815103L112.015288,160.1424150466919L112.5357278125,166.96765766399247L112.768338890625,167.97411093541552L112.87979278124999,166.2437565922737L113.053433546875,168.8541523345879L113.529645625,166.5577516257763L113.87907153124999,168.70854318993432L113.92367453125,168.5662497665201L114.14604621875,167.12076486008507L114.625689296875,171.58971655368805L114.70422703125,172.6885767153331L115.063570671875,170.77202390134335L115.12736582812501,169.25480826411928L115.341481671875,165.90251989449771L115.63976423437501,170.7199049081121L115.77528873437501,167.2535821029118L115.928397109375,168.7804717336382L116.067995921875,171.2500246805804L116.25712979687499,170.99844433154377L116.451410171875,169.18259713053703L116.90446299999999,167.59387683442662L117.381854484375,169.308443823031L117.52665340625,170.15302961213246L117.669844046875,168.13334091220582L117.82429265625001,170.78163195720742L117.8805825,168.31069431986126L118.29385717187499,169.5467801264354L118.365157640625,167.38434585928917L118.835526296875,171.43391533408845L118.99131514062499,167.21778738498688L119.015224921875,168.00862457922528L119.09140384375,164.87117987445424L119.15632479687501,167.77450828467096L119.250033984375,168.25913108672412L119.388560609375,173.78727674271377L119.763290140625,170.38081589341164L119.78618134375,171.1309318861791L120.168148140625,169.5244555260454L120.2168790625,170.30918877891133L120.28153196875,169.34001853210583L120.810817328125,168.27003905602862L121.01646289062501,170.35534512570928L121.15402454687501,166.91890149031366L121.20275546875,168.5581300173487L121.328255015625,169.28536564963204L121.637902765625,169.0978201670306L121.686687296875,172.59938193006172L121.774285015625,169.42799818090032L121.826178890625,170.36847613539013L121.869280828125,171.05818383182796L122.1043579375,172.0123485560928L122.80326335937501,173.4725469755275L123.34300254687501,170.49142157179966L123.63576334375,168.2593194799764L123.998430765625,173.29774629643987L124.070481765625,174.48250436144215L124.61102509375,173.86667507886887L124.93627317187499,174.31517347480568L125.366327578125,175.33975959675652L125.41591625000001,174.0009241104126L125.614967859375,171.68494934269359L126.02197023437499,173.02712880926472L126.14570067187499,172.05041341270717L126.333547921875,169.09047283019336L126.799091734375,170.04385572246144L126.861921921875,170.6850898350988L127.0162633125,168.45843230826515L127.270210921875,172.52525860496928L127.444870265625,173.85017182997296L128.166559671875,170.63022972004754L128.303906890625,170.43060822997774L128.377030078125,170.20016560384204L128.750901859375,170.88931754018577L128.79148415625,169.02519456829341L128.865357875,170.435770205089L128.966625984375,171.78948875835965L129.05459896875,169.14667053733552L129.63915559375,169.37110341872486L130.1532695,166.5354458647115L130.35945115625,165.31951813612665L130.5669194375,168.24543489728654L130.607501734375,164.10869586467743L130.907660625,164.8882106244564L131.218970265625,162.96467784047127L131.283301515625,166.71413686445783L131.61198059375,163.51668890884946L131.766268375,165.3437831870147L131.85231142187502,167.06123259237836L131.9614065,168.26239028998782L132.311797375,166.4290413558483L132.47873696874998,161.78917930381638L132.58981559375002,163.96291716609682L132.761204765625,164.33344901459557L132.932808375,168.47612243465016L133.104519203125,165.55834426198686L133.21613392187498,162.68397189463886L133.616917609375,160.60995058076722L133.74734921875,159.1952114530972L134.339893640625,158.57347604206632L134.39859590625,159.85321256518364L134.47756251562498,159.04907480733735L135.25184271875,161.0627160838672L135.474911328125,162.67067133103097L135.6958355625,164.03718178612846L135.924157890625,157.3140106328896L135.97653425000001,160.7085556089878L136.12406725,159.96383708289693L136.26929504687502,159.52823420507568L136.38160668749998,164.35078119380134L136.82747585937503,153.18518411687444L136.9541548125,157.28426333836148L137.104421890625,161.34875355873788L137.242305203125,158.53306568946155L137.362819078125,153.8398695077215L137.490731046875,158.14746238078388L137.672359609375,157.76342273609978L137.821822546875,157.38511024628366L137.867283296875,160.20952072313855L138.6482110625,161.81139086825507L138.97919534374998,161.81372694458278L139.317738546875,162.85576770135333L139.3871626875,157.91982681410653L139.412091046875,159.5658374982221L139.53667923437501,160.34401466591018L139.585463765625,159.79972772087368L139.71450153125,164.2663810167994L139.8458445,160.7231372467109L140.028813296875,159.55425131320953L140.226256625,161.03161235792297L140.487870375,162.1648542881012L140.63910242187498,157.81310203671455L140.980272484375,162.57072871071952L141.056558625,163.36518305540085L141.140457296875,159.5806640471731L141.34792557812503,156.9150690819536L141.48618415625,157.96310074414524L141.7378265625,160.0731993658202L141.873404671875,161.0066314126764L141.969365453125,163.10269473705972L142.071116046875,160.81703244362558L142.10933953125001,161.85046362876892L142.6161625625,163.36501350147384L142.64730960937501,164.7179031244346L142.87402365625002,159.58680566719602L143.0506129375,158.44024433408464L143.249557328125,161.50525183337075L143.28788803125,163.98358390586716L143.403952328125,161.74626332095693L143.45702560937502,164.29597759672572L143.592978984375,164.0168353148869L143.8736240625,160.39723575966698L143.938008921875,161.35254026310784L144.29386795312502,156.08429251824106L144.348227859375,158.5138872563839L144.55242596875,157.48371527450425L144.66672115625002,152.5863008073398L144.7802658125,158.6792400138719L144.987466046875,154.39555424451828L145.470593734375,152.9346587700503L145.59057151562502,151.29390425767215L145.715052484375,153.97278094717433L145.74598509375,154.50195875338147L145.9839035,153.6507603611265L146.095571828125,155.62442458953174L146.17453843750002,154.30150833300183L146.577037625,155.9606877054487L146.80530634375,152.31339434215L146.9662416875,151.99169402463096L147.5057664375,151.95625725388527L147.6959725,152.32663838778222L147.851171640625,157.5541743508407L148.001706765625,150.18799818839344L148.10415428125,154.42471751996447L148.16966493750002,154.8859418800899L148.2588709375,156.54468794805663L148.36421335937501,158.30558083738597L148.41230096875,157.68177310058047L148.50761843749999,155.26775848439763L148.6015420625,154.87993213534355L148.665498046875,156.95393460988998L148.90561443750002,156.03719420518192L148.968498234375,158.588359108993L149.08590276562498,152.54888590744565L149.240404984375,147.7229290008545L149.512847828125,152.63403965745653L150.16168209375,152.23860222101212L150.37547628125,161.2146929204464L150.539574578125,159.93156531878878L150.87763529687498,155.5819230718272L151.05331321875,154.6281633930547L151.340123375,152.0862674372537L151.424129265625,156.00034448504448L151.533599609375,153.9387382864952L151.65867028124998,154.8168015565191L151.77725421875002,155.1128992310592L151.83986996874998,153.91206180197852L151.9085971875,155.32129984668325L152.37006668749999,151.9416379375117L152.438740296875,155.32150707926067L152.48870423437498,157.29238308753284L152.580376265625,157.2913657639708L153.21816700000002,155.457828436579L153.25880290625,157.23692011407445L153.29547171875,157.52075338789393L153.356747234375,158.47261029481888L153.765893984375,156.11074293085505L154.24006890625,157.53119037406785L154.469248984375,162.28774320653508L154.89303109374998,154.61269630704606L154.964599609375,154.6684230310576L155.115778046875,158.8705156828676L155.739791171875,154.14538684487343L155.939646921875,153.8494210456099L156.135428359375,154.22181798730577L156.2033514375,157.55592640808652L156.230745828125,156.2121926971844L156.35613815624998,155.1685694370951L156.78227907812501,157.85294720956256L156.91238903125,161.04005237562316L157.01103028125002,158.48724845051765L157.136208171875,159.2188548062529L157.665654359375,154.68087582503045L158.09050865625002,156.58133043561662L158.116830859375,155.22772491829735L158.44867289062498,159.4039134979248L158.70514014062502,158.4434658586979L159.074615953125,154.21782405035836L159.382012109375,154.58392865742954L159.42988528125,155.20946961215566L159.49528871875,154.70303087149347L159.53887314062501,155.82351857849528L159.6725213125,153.69399661251475L159.95697265625,153.60062891670634L160.93561179687498,152.69562541161264L161.06481039062498,151.80499631166458L161.278819015625,151.81238132715225L161.34395440625002,148.85191324353218L161.917306671875,149.0097302709307L162.033102921875,152.09902166043008L162.21457065625,144.44660079053472L162.283994796875,148.46099724514144L162.326882296875,148.74596087847436L162.892139546875,144.49477294513156L162.970623671875,149.5824645970549L163.084597203125,140.24642974989754L163.11917524999998,142.2447169763701L163.21985365625,143.506895248379L163.395424359375,148.62608625207628L163.48682834375,146.53558052863391L163.64572653125,147.57809226853507L163.72689112499998,146.31774141107286L163.8433306875,142.86583068966866L163.937736796875,141.4905787876674L164.457747734375,142.51558879443576L164.7182356875,144.3009916458811L164.921683265625,142.75089196647914L165.047772515625,146.49526437265533L165.20897590625,139.85445874929428L165.355758375,140.46907289539064L165.684115796875,145.18214456524166L165.713708171875,145.386023742812L165.95285959375,146.67256126233508L166.09760490624998,145.94939492430004L166.261810421875,148.324751245124L166.37471176562502,146.67625377007892L166.58121507812498,147.55866892422947L166.7583940625,147.12389497671808L166.8844833125,146.1492990042482L166.918418046875,148.9160611459187L166.974332625,148.204631707498L167.03517926562498,145.27526734982217L167.186196875,148.30453664915902L167.385462921875,146.91093524438995L167.735746578125,149.3629487795489L167.8190019375,147.17909419962336L167.960798734375,146.18746747715133L168.39530271875,146.6717700106757L168.67970045312498,151.66854307906968L168.83704396874998,146.3044031688145L168.97760775,148.7865973029818L169.041242078125,156.30022886395454L169.147013375,150.78772926756312L169.339202984375,146.53192569954055L169.399245484375,151.50164549691337L169.54297221874998,150.16482581836837L169.906711828125,146.1378446945122L170.0440054375,147.59045086588176L170.207996515625,145.49604540211814L170.231209375,148.0711362489632L170.39863145312498,149.10550940036774L170.700130578125,141.44892503959792L171.42959334374999,144.38235869152206L171.64638965625,140.52901962825229L171.73479151562498,139.33213845746857L171.98482564062502,141.0337251509939L172.23888046874998,140.43738515036446L172.760446078125,141.31465716872896L172.93408684374998,145.49941764133317L173.149274875,144.92361250519753L173.34183975,144.20406331760543L174.21363540625,145.6238702237606L174.81127271875002,138.2406067933355L174.86981415625,140.79902483735765L174.92320909375,138.96315143363816L175.073583390625,136.80921370216777L175.3804970625,138.4814110483442L175.6854271875,140.19038275735718L175.72011245312498,139.34613607610973L175.80186675,139.05651912944657L175.853278140625,140.86635658570697L175.90769165625,139.41018978187014L175.97486420312498,137.33375703436988L176.02391678125,138.1847481940474L176.418213734375,139.44615405372213L177.79077456250002,140.29382949216026L177.84770771875,142.85580816864967L177.89552728125,141.4203081045832L178.240503609375,142.64831184063638L178.872236484375,135.40057851587022L178.96964471874998,134.00481058870042L179.21989328125002,135.86317814673694L179.624054359375,140.6245350071362L179.6797545,138.48378480332238L179.79549714062497,139.8655362725258L179.89730134375,139.42390481063296L179.93648979687498,142.1452830178397L180.07163903125002,144.005063525268L180.97034659374998,151.12152443187577L181.31376824999998,145.06549146345685L181.434711,148.27343292321476L181.574095375,151.54279058320182L182.029292578125,151.73757036668914L182.089227859375,151.387140078204L182.37823600000002,154.45928768174988L182.4955333125,150.77521995561463L182.56549354687502,151.9603453874588L182.80502023437498,148.45459187456538L182.97153095312498,148.59910833835602L183.03806018749998,148.46546216521944L183.27474557812502,149.23094162770678L183.37354765625,150.4994122343404L183.502263765625,148.2106226129191L183.696115265625,152.81668691549982L183.74452453125002,155.44622341224124L184.1629993125,156.79781312176158L184.475595578125,148.90571835637093L184.57348629687502,152.19235167758805L184.626130703125,151.81650713937623L184.697645609375,150.89010216082843L185.35666565625002,147.87863602382797L185.82194142187498,147.43016588687897L186.30319278125,145.14770627873284L187.124970890625,138.05441774215015L187.440515671875,139.79645246693065L187.520500859375,144.0892564696925L187.57394940625,142.67515787908007L187.743837515625,144.50155510221208L188.28229007812502,141.93584623932838L188.55484014062498,145.19921299389432L188.826103578125,147.75442835262845L189.07672740625,147.2229333094188L189.183195625,147.1104436985084L189.3056394375,149.02044984698296L189.4231511875,152.18685059462274L189.53835773437498,145.9419345515115L189.702831296875,149.14610814622472L189.76458929687502,147.45510915347506L189.917054359375,144.6495756804943L190.002078828125,146.94622130053384L190.05654595312498,146.11729099069322L190.32019685937502,143.29508471488953L190.447519125,144.78382471203804L190.591781953125,144.76798083952497L190.643032515625,146.7100138408797L190.744139796875,139.61395592348916L191.029448890625,144.54946350625585L191.11726104687497,139.51152651224817L191.17703550000002,144.05527032698902L191.2450121875,145.17639857104848L191.585699765625,142.64516567332404L191.68836171875,141.06688236338752L191.856641546875,140.70200231245587L192.32416890624998,141.48937307085308L192.47942165625,143.3758300627981L192.59371684375,142.61815008095334L192.70951309375,141.3145252934524L192.807671859375,143.68688616156578L192.947485109375,141.8645770720073L193.436509828125,140.8209726512432L193.634435640625,138.40784348334583L193.700964875,136.53679705943378L193.876213921875,136.3739687715258L194.3247635625,137.27414940936225L194.55019098437498,137.20384104762758L194.812662484375,141.94584992102216L195.06864725,139.61143145390918L195.4707175625,139.09195590019226L195.59359025,140.5322223135403L195.924252875,141.29018488526344L196.262367203125,139.80943276200975L196.43922453125,146.87647811855587L196.49958868750002,143.28960247124942L196.76350764062502,144.32199749350548L196.82580173437498,142.89998638629913L196.87989359374998,141.5031634569168L197.008180828125,143.63892123954636L197.189273296875,140.94282540678978L197.427513359375,144.76496654748917L197.56845240625,140.21217985664094L197.648491203125,143.15870683959554L197.76316165625002,144.6839009310518L197.987999375,137.73618386047227L198.5491823125,141.30791269029888L198.831435671875,133.68684045757564L198.980791390625,139.07767569167274L199.028396515625,143.16720337527138L199.3460320625,146.3416673541069L199.376106921875,141.78473601170947L199.42532032812503,142.78617802262306L199.479036921875,142.5838059910706L199.6848433125,143.01083697591508L199.86486359375002,139.63364301834787L201.103829859375,139.4832863637379L201.25924343749998,142.0974122924464L201.39064001562502,141.26299973896573L201.69910835937497,145.92072147130966L201.86899646875,143.4579695207732L201.93418546875,143.67876641239437L202.03775878125,145.72746767316545L202.072980140625,142.26370701619555L202.432699046875,147.28887094770158L202.585539375,144.53640785387586L202.67120715625,138.76888031193187L203.139699484375,144.45366553749355L203.46269596874998,141.53002833468574L203.53303146874998,144.23058908752034L203.76810857812498,146.2571541411536L203.88149240625,148.53081578442027L203.999808296875,147.6533176941531L204.13817409375002,147.38301105584415L204.397697078125,149.46326818636487L204.58640207812502,143.82776663558823L204.82753704687502,142.50377653752054L205.23416415625002,139.1331009864807L205.27683721875,143.55568910070826L205.34610053125,143.87527941380228L205.674136296875,141.99963619453567L206.1123929375,144.38978138566017L206.30222373437502,144.36293534721645L206.414696203125,143.95525234937668L206.46959220312502,142.18718167713712L206.51092503125,144.511992088386L206.749647578125,149.338777925287L206.960546859375,146.20191723959786L207.359775875,143.99617136376244L207.733808484375,146.20564742599214L207.92900021875002,145.58423228349002L208.15759059375,144.8936391387667L208.241596484375,143.66288486123085L208.58260571875,145.07468505416597L208.78251507812502,146.8848427789552L208.898204109375,145.33116362776073L209.01962934375,145.15641004698617L209.13880298437502,144.1013513164861L209.30745807812502,147.74529127989496L209.433440109375,149.01161420345306L209.598556984375,148.99533702645982L209.811225375,143.6897120603493L209.9377435,144.1144258081913L210.18509715625,146.21092243705476L210.44767587500002,143.90432965329717L210.50396571874998,145.9580233352525L210.709128796875,151.75335772122654L211.10589178125,150.81581870147158L211.566128265625,156.57460479651178L211.7070673125,150.76438734361102L211.85545806250002,152.51028413006236L211.8992033125,153.78282403094428L212.04855903125,155.23765324269021L212.339068234375,150.78349041938782L212.59859121875,152.40216524260384L212.66190389062498,155.6850872167519L212.874411453125,155.97764309815L212.97900334375,148.93552216887474L213.350462703125,149.69587733490127L213.393886296875,146.02249150616782L213.518152828125,148.70660552808215L213.718759109375,147.29938329117638L214.103888859375,148.48712738922666L214.43149574999998,147.8639413501535L214.559139671875,145.92416906782557L214.9004705625,147.64523562363217L215.3366364375,141.0969876050949L215.44610678125,141.00088820712907L215.507543125,142.7343510389328L215.548661515625,144.22749943818363L215.85321637500002,143.50256220357758L215.9078979375,147.30479017751557L216.098372046875,149.2989704310894L216.214811609375,152.24483803766114L216.2771593125,150.09892585873604L216.391829765625,144.8649656857763L216.68753907812498,143.6565736872809L217.179297875,142.6550939977169L217.51660806249998,141.57821932860782L217.64393032812498,144.84559885944637L217.735066265625,142.0343193922724L217.97062585937502,140.19213481460298L218.01560412499998,142.51283825295312L218.1770755625,140.73625220571245L218.290084125,139.26900787864412L218.65259071875002,146.57557641608375L218.68475634375002,144.41579849379403L218.8688509375,143.10011653814996L219.06323853125,141.62850148762973L219.73035359374998,143.8521070437772L220.00461915625,145.6384518614837L220.086373453125,141.09640358601297L220.2313868125,148.40756891880716L220.745822375,142.95801150798798L220.79256975,143.9515975202833L221.11197440625,140.57594838738441L221.170355015625,142.39207817826951L221.26958596875,142.02096231068882L222.02917720312502,139.57509039555276L222.16636359375,137.6722997086389L222.25717787500002,137.19909353767122L222.34134459375,140.21474200487137L222.5215793125,142.6228975909097L222.655549140625,139.63418935877937L223.132136484375,145.8153531253338L223.38227782812498,140.57864241089138L223.473949859375,137.9633107653686L224.040279296875,144.35496631264687L224.073088234375,144.00775754877498L224.429697796875,144.40784829854965L224.851603578125,146.03364438670022L226.176612890625,152.17543396353722L226.241158578125,150.10203434739793L226.35604346875,148.3978101483413L226.498483578125,150.85897959555896L226.63379364062502,146.67077152643884L227.925565140625,145.3148110934666L228.07963848437498,149.0344474656241L228.286356234375,143.87974433388027L228.33224585937498,144.03206027831348L228.382531453125,145.98277820859636L228.517627078125,141.2693485915661L228.72707890625,143.46802972044262L228.902167125,146.03430376308305L229.03849576562502,142.672539212874L229.13182968750002,143.85990652441978L229.42383995312503,146.91163229942322L229.583167015625,145.494519416775L229.6121696875,143.6192906626633L229.7712823125,148.04210484879357L230.06023684375,143.12304399694713L230.54958321875,146.07776608637403L230.81773731250001,148.50474215831073L230.91048153124999,150.64632129243444L231.025259203125,148.76937815972735L231.06723534375,148.85379717605454L231.383209,149.80501354592187L231.651255875,144.66187775986535L231.76195923437498,143.58888399175237L231.914585125,146.9801886039121L232.061957296875,148.36565142018455L232.54964178125,146.11817643897874L232.679537296875,141.737524662699L232.733682765625,147.41183522343636L232.97674767187502,143.16432095851215L233.253264828125,144.87024069683892L233.38101596875,143.5124716886452L233.8571744375,138.67408082740647L233.976133640625,146.62919313567025L234.103616734375,142.66739607708794L234.760438796875,143.6659745105675L234.952038703125,143.20678479756626L235.07925375,140.76157225881303L235.617652703125,145.74024073566707L235.9076258125,146.90703550406863L236.27184790625,145.63404345938136L236.4338554375,150.3258455310549L236.51116015624999,145.9422548200403L236.8592994375,144.98393602456363L237.16326459375,150.9866160239492L237.51215440625,148.39863907865117L237.571285546875,150.74500167795588L237.616531859375,147.9838913338525L237.74835731250002,153.98351936255182L237.90028628125,153.43597321425165L237.983005546875,149.17003408925873L238.364597078125,152.35939997434616L238.59388437500002,149.01349813597542L238.66036000000003,146.32966670393944L238.9775130625,147.14092572672027L239.033105984375,144.10632489834512L239.08478542187498,148.02138159104754L239.430780328125,148.54225125483106L239.49141253125,147.3408863246441L239.74037446875,146.96978929638863L240.358705,143.42006479842323L240.71820946875,144.02563606841224L240.92106734375,146.615440428257L241.0361130625,136.83131223065513L241.16397142187498,141.9259932722364L241.2145250625,150.1930471275534" style="fill: none;" fill="none"></path></g></g></g></g></g></g><g transform="translate(61, 177)" clip-path="url(#clip_1)"><clipPath id="clip_1"><rect width="268" height="23"></rect></clipPath><g><g><line x1="0" y1="0" x2="0" y2="5" style="visibility: inherit;" fill="rgb(0, 0, 0)" stroke="rgb(204, 204, 204)" stroke-width="1px"></line><line x1="26.8046875" y1="0" x2="26.8046875" y2="5" style="visibility: inherit;" fill="rgb(0, 0, 0)" stroke="rgb(204, 204, 204)" stroke-width="1px"></line><line x1="53.609375" y1="0" x2="53.609375" y2="5" style="visibility: inherit;" fill="rgb(0, 0, 0)" stroke="rgb(204, 204, 204)" stroke-width="1px"></line><line x1="80.4140625" y1="0" x2="80.4140625" y2="5" style="visibility: inherit;" fill="rgb(0, 0, 0)" stroke="rgb(204, 204, 204)" stroke-width="1px"></line><line x1="107.21875" y1="0" x2="107.21875" y2="5" style="visibility: inherit;" fill="rgb(0, 0, 0)" stroke="rgb(204, 204, 204)" stroke-width="1px"></line><line x1="134.0234375" y1="0" x2="134.0234375" y2="5" style="visibility: inherit;" fill="rgb(0, 0, 0)" stroke="rgb(204, 204, 204)" stroke-width="1px"></line><line x1="160.828125" y1="0" x2="160.828125" y2="5" style="visibility: inherit;" fill="rgb(0, 0, 0)" stroke="rgb(204, 204, 204)" stroke-width="1px"></line><line x1="187.6328125" y1="0" x2="187.6328125" y2="5" style="visibility: inherit;" fill="rgb(0, 0, 0)" stroke="rgb(204, 204, 204)" stroke-width="1px"></line><line x1="214.4375" y1="0" x2="214.4375" y2="5" style="visibility: inherit;" fill="rgb(0, 0, 0)" stroke="rgb(204, 204, 204)" stroke-width="1px"></line><line x1="241.2421875" y1="0" x2="241.2421875" y2="5" style="visibility: inherit;" fill="rgb(0, 0, 0)" stroke="rgb(204, 204, 204)" stroke-width="1px"></line><line x1="268.046875" y1="0" x2="268.046875" y2="5" style="visibility: inherit;" fill="rgb(0, 0, 0)" stroke="rgb(204, 204, 204)" stroke-width="1px"></line></g><g transform="translate(0, 8)"><text x="0" y="0" dx="0em" dy="0.95em" style="text-anchor: middle; visibility: hidden; font-family: Roboto, sans-serif; font-size: 12px; font-weight: 200;" fill="rgb(33, 33, 33)" stroke="none" stroke-width="1px">-500k</text><text x="26.8046875" y="0" dx="0em" dy="0.95em" style="text-anchor: middle; visibility: inherit; font-family: Roboto, sans-serif; font-size: 12px; font-weight: 200;" fill="rgb(33, 33, 33)" stroke="none" stroke-width="1px">0</text><text x="53.609375" y="0" dx="0em" dy="0.95em" style="text-anchor: middle; visibility: inherit; font-family: Roboto, sans-serif; font-size: 12px; font-weight: 200;" fill="rgb(33, 33, 33)" stroke="none" stroke-width="1px">500k</text><text x="80.4140625" y="0" dx="0em" dy="0.95em" style="text-anchor: middle; visibility: inherit; font-family: Roboto, sans-serif; font-size: 12px; font-weight: 200;" fill="rgb(33, 33, 33)" stroke="none" stroke-width="1px">1M</text><text x="107.21875" y="0" dx="0em" dy="0.95em" style="text-anchor: middle; visibility: inherit; font-family: Roboto, sans-serif; font-size: 12px; font-weight: 200;" fill="rgb(33, 33, 33)" stroke="none" stroke-width="1px">1.5M</text><text x="134.0234375" y="0" dx="0em" dy="0.95em" style="text-anchor: middle; visibility: inherit; font-family: Roboto, sans-serif; font-size: 12px; font-weight: 200;" fill="rgb(33, 33, 33)" stroke="none" stroke-width="1px">2M</text><text x="160.828125" y="0" dx="0em" dy="0.95em" style="text-anchor: middle; visibility: inherit; font-family: Roboto, sans-serif; font-size: 12px; font-weight: 200;" fill="rgb(33, 33, 33)" stroke="none" stroke-width="1px">2.5M</text><text x="187.6328125" y="0" dx="0em" dy="0.95em" style="text-anchor: middle; visibility: inherit; font-family: Roboto, sans-serif; font-size: 12px; font-weight: 200;" fill="rgb(33, 33, 33)" stroke="none" stroke-width="1px">3M</text><text x="214.4375" y="0" dx="0em" dy="0.95em" style="text-anchor: middle; visibility: inherit; font-family: Roboto, sans-serif; font-size: 12px; font-weight: 200;" fill="rgb(33, 33, 33)" stroke="none" stroke-width="1px">3.5M</text><text x="241.2421875" y="0" dx="0em" dy="0.95em" style="text-anchor: middle; visibility: inherit; font-family: Roboto, sans-serif; font-size: 12px; font-weight: 200;" fill="rgb(33, 33, 33)" stroke="none" stroke-width="1px">4M</text><text x="268.046875" y="0" dx="0em" dy="0.95em" style="text-anchor: middle; visibility: hidden; font-family: Roboto, sans-serif; font-size: 12px; font-weight: 200;" fill="rgb(33, 33, 33)" stroke="none" stroke-width="1px">4.5M</text></g><line x1="0" y1="0" x2="268.046875" y2="0" fill="rgb(0, 0, 0)" stroke="rgb(204, 204, 204)" stroke-width="1px"></line></g></g></g></g></svg>