<svg viewBox="0 0 330 200" xmlns="http://www.w3.org/2000/svg"><g><g><g><g><g><line x1="82.734375" y1="177" x2="77.734375" y2="177" style="visibility: inherit;" fill="rgb(0, 0, 0)" stroke="rgb(204, 204, 204)" stroke-width="1px"></line><line x1="82.734375" y1="151.7142857142857" x2="77.734375" y2="151.7142857142857" style="visibility: inherit;" fill="rgb(0, 0, 0)" stroke="rgb(204, 204, 204)" stroke-width="1px"></line><line x1="82.734375" y1="126.42857142857137" x2="77.734375" y2="126.42857142857137" style="visibility: inherit;" fill="rgb(0, 0, 0)" stroke="rgb(204, 204, 204)" stroke-width="1px"></line><line x1="82.734375" y1="101.14285714285715" x2="77.734375" y2="101.14285714285715" style="visibility: inherit;" fill="rgb(0, 0, 0)" stroke="rgb(204, 204, 204)" stroke-width="1px"></line><line x1="82.734375" y1="75.85714285714285" x2="77.734375" y2="75.85714285714285" style="visibility: inherit;" fill="rgb(0, 0, 0)" stroke="rgb(204, 204, 204)" stroke-width="1px"></line><line x1="82.734375" y1="50.57142857142853" x2="77.734375" y2="50.57142857142853" style="visibility: inherit;" fill="rgb(0, 0, 0)" stroke="rgb(204, 204, 204)" stroke-width="1px"></line><line x1="82.734375" y1="25.285714285714217" x2="77.734375" y2="25.285714285714217" style="visibility: inherit;" fill="rgb(0, 0, 0)" stroke="rgb(204, 204, 204)" stroke-width="1px"></line><line x1="82.734375" y1="0" x2="77.734375" y2="0" style="visibility: inherit;" fill="rgb(0, 0, 0)" stroke="rgb(204, 204, 204)" stroke-width="1px"></line></g><g transform="translate(72.734375, 0)"><text x="0" y="177" dx="0em" dy="0.3em" style="text-anchor: end; visibility: hidden; font-family: Roboto, sans-serif; font-size: 12px; font-weight: 200;" fill="rgb(33, 33, 33)" stroke="none" stroke-width="1px">-0.012</text><text x="0" y="151.7142857142857" dx="0em" dy="0.3em" style="text-anchor: end; visibility: inherit; font-family: Roboto, sans-serif; font-size: 12px; font-weight: 200;" fill="rgb(33, 33, 33)" stroke="none" stroke-width="1px">-0.0115</text><text x="0" y="126.42857142857137" dx="0em" dy="0.3em" style="text-anchor: end; visibility: inherit; font-family: Roboto, sans-serif; font-size: 12px; font-weight: 200;" fill="rgb(33, 33, 33)" stroke="none" stroke-width="1px">-0.011</text><text x="0" y="101.14285714285715" dx="0em" dy="0.3em" style="text-anchor: end; visibility: inherit; font-family: Roboto, sans-serif; font-size: 12px; font-weight: 200;" fill="rgb(33, 33, 33)" stroke="none" stroke-width="1px">-0.0105</text><text x="0" y="75.85714285714285" dx="0em" dy="0.3em" style="text-anchor: end; visibility: inherit; font-family: Roboto, sans-serif; font-size: 12px; font-weight: 200;" fill="rgb(33, 33, 33)" stroke="none" stroke-width="1px">-0.01</text><text x="0" y="50.57142857142853" dx="0em" dy="0.3em" style="text-anchor: end; visibility: inherit; font-family: Roboto, sans-serif; font-size: 12px; font-weight: 200;" fill="rgb(33, 33, 33)" stroke="none" stroke-width="1px">-9.5e-3</text><text x="0" y="25.285714285714217" dx="0em" dy="0.3em" style="text-anchor: end; visibility: inherit; font-family: Roboto, sans-serif; font-size: 12px; font-weight: 200;" fill="rgb(33, 33, 33)" stroke="none" stroke-width="1px">-9e-3</text><text x="0" y="0" dx="0em" dy="0.3em" style="text-anchor: end; visibility: hidden; font-family: Roboto, sans-serif; font-size: 12px; font-weight: 200;" fill="rgb(33, 33, 33)" stroke="none" stroke-width="1px">-8.5e-3</text></g><line x1="82.734375" y1="0" x2="82.734375" y2="177" fill="rgb(0, 0, 0)" stroke="rgb(204, 204, 204)" stroke-width="1px"></line></g></g><g transform="translate(82, 0)" clip-path="url(#clip_0)"><clipPath id="clip_0"><rect width="247" height="177"></rect></clipPath><g><g><g><line x1="0" y1="0" x2="0" y2="177" fill="rgb(0, 0, 0)" stroke="rgb(66, 66, 66)" stroke-width="1px" opacity="0.25"></line><line x1="27.473958333333332" y1="0" x2="27.473958333333332" y2="177" fill="rgb(0, 0, 0)" stroke="rgb(66, 66, 66)" stroke-width="1px" opacity="0.25"></line><line x1="54.947916666666664" y1="0" x2="54.947916666666664" y2="177" fill="rgb(0, 0, 0)" stroke="rgb(66, 66, 66)" stroke-width="1px" opacity="0.25"></line><line x1="82.421875" y1="0" x2="82.421875" y2="177" fill="rgb(0, 0, 0)" stroke="rgb(66, 66, 66)" stroke-width="1px" opacity="0.25"></line><line x1="109.89583333333333" y1="0" x2="109.89583333333333" y2="177" fill="rgb(0, 0, 0)" stroke="rgb(66, 66, 66)" stroke-width="1px" opacity="0.25"></line><line x1="137.36979166666669" y1="0" x2="137.36979166666669" y2="177" fill="rgb(0, 0, 0)" stroke="rgb(66, 66, 66)" stroke-width="1px" opacity="0.25"></line><line x1="164.84375" y1="0" x2="164.84375" y2="177" fill="rgb(0, 0, 0)" stroke="rgb(66, 66, 66)" stroke-width="1px" opacity="0.25"></line><line x1="192.31770833333334" y1="0" x2="192.31770833333334" y2="177" fill="rgb(0, 0, 0)" stroke="rgb(66, 66, 66)" stroke-width="1px" opacity="0.25"></line><line x1="219.79166666666666" y1="0" x2="219.79166666666666" y2="177" fill="rgb(0, 0, 0)" stroke="rgb(66, 66, 66)" stroke-width="1px" opacity="0.25"></line><line x1="247.265625" y1="0" x2="247.265625" y2="177" fill="rgb(0, 0, 0)" stroke="rgb(66, 66, 66)" stroke-width="1px" opacity="0.25"></line></g><g><line x1="0" y1="177" x2="247.265625" y2="177" fill="rgb(0, 0, 0)" stroke="rgb(66, 66, 66)" stroke-width="1px" opacity="0.25"></line><line x1="0" y1="151.7142857142857" x2="247.265625" y2="151.7142857142857" fill="rgb(0, 0, 0)" stroke="rgb(66, 66, 66)" stroke-width="1px" opacity="0.25"></line><line x1="0" y1="126.42857142857137" x2="247.265625" y2="126.42857142857137" fill="rgb(0, 0, 0)" stroke="rgb(66, 66, 66)" stroke-width="1px" opacity="0.25"></line><line x1="0" y1="101.14285714285715" x2="247.265625" y2="101.14285714285715" fill="rgb(0, 0, 0)" stroke="rgb(66, 66, 66)" stroke-width="1px" opacity="0.25"></line><line x1="0" y1="75.85714285714285" x2="247.265625" y2="75.85714285714285" fill="rgb(0, 0, 0)" stroke="rgb(66, 66, 66)" stroke-width="1px" opacity="0.25"></line><line x1="0" y1="50.57142857142853" x2="247.265625" y2="50.57142857142853" fill="rgb(0, 0, 0)" stroke="rgb(66, 66, 66)" stroke-width="1px" opacity="0.25"></line><line x1="0" y1="25.285714285714217" x2="247.265625" y2="25.285714285714217" fill="rgb(0, 0, 0)" stroke="rgb(66, 66, 66)" stroke-width="1px" opacity="0.25"></line><line x1="0" y1="0" x2="247.265625" y2="0" fill="rgb(0, 0, 0)" stroke="rgb(66, 66, 66)" stroke-width="1px" opacity="0.25"></line></g></g></g><g><g><line x1="0" y1="-429.8571428571429" x2="247.265625" y2="-429.8571428571429" fill="rgb(0, 0, 0)" stroke="rgb(153, 153, 153)" stroke-width="1.5px"></line></g></g><g><g><line x1="27.473958333333332" y1="0" x2="27.473958333333332" y2="177" fill="rgb(0, 0, 0)" stroke="rgb(153, 153, 153)" stroke-width="1.5px"></line></g></g><g><g><g><g><g><path stroke="rgb(255, 112, 67)" stroke-width="2px" d="M28.036625,183.92826132263454L28.261691666666668,91.34164876859296L28.374225000000003,115.32382739375326L28.824358333333336,146.2739574293618L28.936891666666664,85.412632669787L29.161958333333335,135.09754594303493L29.27449166666667,144.28544174323L29.387024999999998,211.79598542658445L34.788625,186.5388506952952L35.013691666666666,171.93855079845864L35.126225,179.4088768138725L35.23875833333333,169.23204347359163L35.35129166666667,159.81167271575876L35.68889166666667,156.98184019219917L35.801424999999995,138.95341530438273L35.91395833333333,135.82894504420784L36.026491666666665,126.1592965054496L36.251558333333335,130.66248922421116L36.476625000000006,129.37233109543314L36.58915833333334,127.2181555293376L37.151825,134.83503190129832L37.264358333333334,130.32771665142184L37.37689166666667,119.24706709276725L37.489425,137.58159470767973L37.60195833333333,120.63515334246969L37.71449166666667,105.98193433218479L38.27715833333333,99.93546881351415L39.28995833333333,104.94929370388681L39.515025,102.02095032331201L39.62755833333333,102.47595427229591L39.74009166666667,105.63869916413033L40.527825,107.40915290202364L40.865424999999995,116.80192981050538L41.090491666666665,119.6751039260238L41.203025,121.33221410026248L41.315558333333335,132.9791022935327L41.76569166666666,139.86411614930435L41.878225,144.44972044885466L41.99075833333333,140.31683488645237L42.328358333333334,141.12896975456823L42.440891666666666,147.76391961413515L42.77849166666667,146.94289990255172L43.228625,142.4540313773016L43.453691666666664,137.0395463852951L43.678758333333334,137.4400719792628L43.791291666666666,134.17686713880576L43.903825000000005,135.04451262416626L44.016358333333336,117.07127089759975L44.12889166666666,125.8980052977568L44.241425,125.11887789064727L44.46649166666666,125.41958726455908L44.69155833333333,131.2369170133585L45.02915833333333,138.61321466337785L45.14169166666667,138.3845684410886L45.254225,130.4135730041519L45.47929166666667,128.33829763660088L45.591825,140.2507100759046L45.70435833333334,143.86617251062884L45.929424999999995,139.47005708450575L46.04195833333333,141.84560512034747L46.267025000000004,140.39086778931528L46.379558333333335,145.3379927048721L46.604625,142.5844603375407L46.71715833333333,139.39304875948596L47.05475833333333,151.52327158638357L47.504891666666666,157.60343589008536L47.617425,160.46399891499593L47.72995833333333,153.76227087587404L47.84249166666667,160.77744697921787L48.06755833333334,160.59433609060892L48.18009166666667,153.36090010513212L48.40515833333333,158.39008321375167L48.630225,152.06256352956623L48.742758333333335,155.1920799172025L48.855291666666666,155.778942629546L48.967825000000005,152.2633115562496L49.19289166666666,163.46961958280974L49.305425,169.62465716133232L50.20569166666667,157.5423044688207L50.655825,152.52028964671257L51.105958333333334,141.53130402482407L51.218491666666665,132.64054113688377L51.331025000000004,128.18801059185378L51.78115833333333,131.58321490009334L51.89369166666667,131.56684397820436L52.006225,138.7810902732215L52.11875833333333,132.48548674970098L52.45635833333333,130.45373459206522L52.568891666666666,125.22778329161709L52.90649166666667,138.99001775859244L53.019025,143.87705948325046L53.24409166666667,136.81426059002587L53.356624999999994,132.85929978330418L53.46915833333333,116.04548500128962L53.694225,124.11518490026279L53.806758333333335,135.45936357644987L53.919291666666666,134.7752390574763L54.031825000000005,133.32040272236281L54.14435833333333,139.3173096271536L54.25689166666666,129.50429384518364L54.59449166666667,119.9451193161524L54.707025,116.58263950615171L54.93209166666667,102.31224882509964L55.382225,95.6745923220913L55.49475833333334,103.68918907465695L55.719825,110.40949084978811L55.94489166666666,95.31146533352184L56.057425,103.24680774967457L56.62009166666667,100.18770413372049L56.95769166666667,104.70418133523546L57.070225,92.58261390989036L57.18275833333333,76.03923720717192L57.29529166666667,77.57083053066938L57.52035833333333,76.68114569920145L57.97049166666667,72.5545110282502L58.19555833333334,77.83957977200615L58.420625,79.03161807490403L58.53315833333333,81.83083889265801L58.645691666666664,77.10902737683597L59.095825000000005,75.71734520167274L59.20835833333333,75.48817720304103L59.433425,86.76143419350583L59.65849166666667,97.65204660879935L59.88355833333333,94.63675154741372L60.446225,95.78885494240603L60.783825,102.3351410823842L60.89635833333333,101.3453674323055L61.233958333333334,93.14938307548066L61.459025000000004,94.53422194264418L61.571558333333336,88.43542449668105L61.68409166666667,79.33844644170723L61.90915833333333,83.67932176944858L62.02169166666667,100.4942623972664L62.13422500000001,84.05531775396422L62.58435833333333,84.50481715545284L62.696891666666666,75.73012595986755L62.92195833333333,79.9856709677052L63.25955833333333,80.53400795771024L63.709691666666664,78.41320302189204L63.822225,87.29590792309382L63.93475833333334,82.02727080423713L64.04729166666667,101.35958344234686L64.27235833333334,110.96788343355723L64.60995833333334,117.64958560241773L64.72249166666666,77.98178525831091L64.835025,80.62326891704558L65.172625,90.69693507002799L65.28515833333334,85.01354525263623L65.51022499999999,95.32681066981928L66.185425,114.4809990546217L66.41049166666667,132.7846030993383L66.52302499999999,127.84381154829097L66.63555833333334,125.62905222945986L66.74809166666667,109.36156694494144L66.860625,115.07564518371403L67.08569166666666,121.46866637046473L67.19822500000001,132.26417635502645L67.76089166666667,123.57073863682L67.873425,120.7084893862782L68.09849166666666,139.441790526471L68.32355833333332,132.80279908935262L68.43609166666667,133.99473729571073L68.548625,124.0821762768967L68.77369166666666,125.78136865681718L68.886225,128.69995078159874L68.99875833333334,127.67212084105893L69.11129166666666,125.31566375459398L69.33635833333334,123.08922361500444L69.44889166666667,134.30014396239977L69.67395833333333,143.39695590319644L69.78649166666666,138.89873260475412L70.01155833333334,130.19117901070902L70.236625,127.46931078403031L70.46169166666667,122.25743545605428L70.574225,120.52147573197225L70.68675833333333,114.2328712793052L70.911825,115.95443294048508L71.02435833333334,135.24597885351548L71.36195833333333,119.9186914566483L71.47449166666667,120.40504799520464L71.587025,121.55425491883067L71.81209166666667,125.73271028832919L72.03715833333334,123.3836785106317L72.14969166666667,128.89300782399695L72.262225,131.73191894661787L72.37475833333333,137.91454987117322L72.937425,140.15665487285426L73.38755833333333,136.68146705894375L73.50009166666666,145.83473148921988L73.72515833333334,148.87369056935972L74.06275833333333,153.4002558200701L74.85049166666666,150.53446065428156L74.963025,149.0649674571478L75.41315833333333,153.16889953017989L75.52569166666667,155.32922696851912L75.63822499999999,158.50290961836603L75.86329166666667,152.88739430357495L76.08835833333333,159.10620232971831L76.313425,156.91754480798107L76.53849166666667,158.89221510466103L77.55129166666667,154.13170407015093L77.663825,156.35426833703085L77.77635833333333,144.94919566843402L77.88889166666667,160.92998700502687L78.11395833333333,157.64862541853293L78.22649166666666,165.28012296203195L78.56409166666667,166.92684764777093L78.90169166666666,169.71514639165082L79.23929166666666,167.54017003170887L79.57689166666665,170.94289585303684L79.689425,167.27539842708515L79.80195833333333,183.44775084755656L79.91449166666666,174.66355656993687L80.027025,177.72664190635945L80.25209166666667,171.94270862615434L80.364625,160.49778132017406L80.47715833333334,160.3313358000656L80.702225,156.32090264848986L80.81475833333333,157.62889680880832L80.92729166666668,152.9224290315207L81.15235833333334,150.6122813096072L81.37742499999999,143.64287343737686L81.48995833333333,125.23309079011474L81.94009166666667,134.98708494789489L82.390225,139.83255770744617L82.84035833333333,140.7410181956483L82.95289166666666,161.72410803837192L83.17795833333332,165.56778778081997L83.29049166666667,173.64011151163996L83.51555833333335,184.98623979375589L83.740625,174.44393561163105L84.078225,161.16779212859242L84.86595833333334,152.09795670961532L85.20355833333333,161.03148461018455L85.31609166666668,161.16268317308624L85.65369166666667,165.25501427344142L85.76622499999999,170.50920526058079L85.87875833333334,153.11400177100523L86.103825,149.56732244901139L86.21635833333333,145.19023727358035L86.32889166666666,150.09482284239868L86.441425,155.99718447394244L86.66649166666667,157.3181303839273L87.22915833333333,157.69293951890384L87.34169166666666,169.06207098338794L88.01689166666667,165.92673748737894L88.24195833333333,166.62297275738726L88.35449166666666,169.62022475383296L88.467025,166.42272224516628L88.57955833333334,173.08445322306062L88.69209166666667,179.76671391854563L88.804625,169.2315957394977L88.91715833333333,167.97183117733894L89.02969166666666,171.8503014240182L89.142225,172.32596745849708L89.25475833333334,165.82467076789447L89.479825,149.21112644264312L89.817425,154.63648155154377L89.92995833333333,142.68414284084793L90.04249166666668,144.4092762921671L90.26755833333334,141.32807354722328L90.38009166666667,151.06738904075866L90.71769166666667,147.41118582125682L90.94275833333333,145.98910175620432L91.167825,163.31098903709292L91.28035833333333,155.24970447700593L91.61795833333333,150.47120091754343L91.73049166666667,149.69169871980108L91.84302500000001,146.316846906605L92.06809166666666,150.23876784078627L92.180625,148.72627930579222L92.29315833333332,139.32318942363287L92.518225,150.988278545318L92.74329166666666,148.02552732374542L92.85582500000001,156.47218853347903L93.193425,158.2457002427845L93.30595833333334,170.48859531029933L93.41849166666667,168.09508794933507L93.531025,160.2048825230445L93.64355833333335,165.4491206284437L93.868625,153.20418150208982L93.98115833333334,158.5919002385362L94.09369166666666,166.81511430306418L94.31875833333334,154.38315265020097L94.43129166666667,142.25441754876846L94.881425,129.1753115107783L94.99395833333334,125.82562884706918L95.10649166666667,120.66339116586649L95.33155833333333,113.0988510130895L95.44409166666667,117.71498770842967L95.556625,117.35672338464998L95.66915833333333,120.05083206366893L95.89422499999999,119.63969970641764L96.11929166666667,124.08369551789383L96.231825,126.05640089425862L96.34435833333333,143.32764529473596L96.56942500000001,143.52139530436202L96.79449166666667,134.48355692582268L97.01955833333334,138.7408914580703L97.13209166666667,138.43882524380535L97.244625,130.910001800493L97.58222500000001,120.18174826453185L98.03235833333332,123.57965534427828L98.14489166666667,128.4153539128957L98.36995833333334,131.5246627039949L98.48249166666666,129.20283303670243L98.70755833333334,136.98010313237708L99.15769166666666,130.98107040734286L99.270225,126.50405637559504L99.49529166666666,125.65575032371079L99.72035833333334,125.021076079919L100.17049166666668,128.6281172939L100.50809166666667,136.43072260053967L100.62062499999999,126.89973564747541L100.84569166666667,127.82198914762618L100.958225,121.97140744253664L101.07075833333333,125.27113242109083L101.18329166666668,128.90360141675043L101.295825,151.79083318450904L101.40835833333333,147.85993431808674L101.52089166666667,141.708994173415L101.633425,141.17321836580993L101.74595833333333,134.44140195570847L102.19609166666666,137.85162849256164L102.308625,133.03380421044074L102.53369166666667,127.21180838656532L102.75875833333333,140.69126124036413L103.09635833333334,145.1076839989032L103.321425,143.90757563774633L103.43395833333334,150.79078816567747L103.54649166666667,162.98600841295507L103.88409166666666,161.67116183883562L103.996625,137.8652599394439L104.10915833333334,147.50546302133947L104.22169166666666,143.0373979540252L104.334225,141.96441663993454L104.55929166666667,138.5030556796428L104.671825,135.26044106940802L104.89689166666668,138.31112143491643L105.12195833333334,150.10734489616905L105.23449166666667,150.59995766058233L105.347025,150.2931207235727L105.45955833333333,140.85476346064698L105.57209166666667,140.15540858295765L105.684625,154.1127987894697L105.90969166666667,155.82753382324555L106.02222499999999,138.4877500095298L106.359825,137.00982672185177L106.80995833333333,139.2995130762404L107.14755833333332,142.95284857518837L107.26009166666667,132.9915045992648L107.372625,108.46480462265215L107.48515833333333,113.57916787809995L107.59769166666666,114.51341666734356L107.71022500000001,110.61752822625454L107.82275833333333,107.91995325808051L107.93529166666666,104.38087132789332L108.16035833333333,107.11486891965845L108.27289166666667,123.30972281753836L108.385425,121.20481889978888L108.83555833333334,114.95995607561433L109.28569166666666,122.46133661819302L109.398225,127.37402976833482L109.62329166666667,102.08481021306866L109.73582499999999,111.0092532214022L109.84835833333334,108.36195764450393L109.96089166666667,110.94933782420279L110.073425,114.65841913143784L110.18595833333333,125.49009380878097L110.52355833333333,109.34160083801694L110.63609166666667,121.62667213523491L110.74862499999999,117.75314376335392L111.31129166666666,108.28570391216202L111.53635833333333,107.37948437116145L111.64889166666667,115.48840950633401L111.761425,121.86103370515332L111.87395833333333,108.05781035202422L112.099025,98.5261156711478L112.436625,99.31715063592878L112.54915833333332,104.94400631345363L112.88675833333333,100.71856503044519L112.99929166666666,104.0051430038372L113.111825,107.33608470362506L113.22435833333334,100.45230384067474L113.33689166666666,103.26676433472105L113.56195833333334,103.86147629285884L113.89955833333333,93.49120164382099L114.01209166666666,93.06872082087453L114.23715833333334,87.25163498855281L114.57475833333334,83.7342336331072L114.68729166666667,87.1009480468961L114.799825,79.38206728775414L115.02489166666668,95.71811699047427L115.137425,96.7659412402301L115.24995833333334,108.66793770186557L115.36249166666667,109.57515944550286L115.47502499999999,116.19034514973687L115.58755833333333,121.18415062478715L115.70009166666667,120.39456021217794L115.92515833333333,119.53856053785596L116.26275833333332,116.38297805470542L116.37529166666667,102.5070127330119L116.82542500000001,102.01952599290674L116.93795833333333,96.83205009816717L117.163025,106.72339217249858L117.38809166666667,104.74036929035908L117.61315833333333,101.36766806809258L117.72569166666666,77.19378169116716L117.83822500000001,78.97204208314992L117.95075833333334,82.62215816616794L118.06329166666666,81.11666227796837L118.175825,80.55138992910973L118.40089166666667,84.37309222556935L118.62595833333334,84.13309939186435L118.85102499999999,92.5640133112847L119.188625,100.25607784457047L119.30115833333333,95.2294870885516L119.41369166666668,90.67059316570574L119.526225,83.48457010513837L119.63875833333333,73.90296778262199L119.86382499999999,86.14057465745789L119.97635833333334,85.60326545591577L120.08889166666667,89.5497774681667L120.31395833333333,83.48916239078883L120.42649166666666,77.66398963317415L120.65155833333333,83.86282105761474L120.98915833333334,76.04290501146593L121.21422500000001,63.896806124573395L121.32675833333333,70.144436956764L121.43929166666666,69.34730737339065L121.77689166666667,63.31059949716667L122.11449166666667,80.09899633291913L122.227025,79.7250591607631L122.45209166666666,54.93566367246712L122.67715833333334,42.205280328211835L122.902225,34.69515349874531L123.01475833333333,43.48218603375351L123.46489166666666,47.77846298769005L123.68995833333332,53.1303677650011L123.80249166666667,58.270856171243025L123.915025,50.07285790108891L124.02755833333332,61.903262775701585L124.252625,54.1792350312887L124.36515833333333,49.32272324737822L124.47769166666667,51.70164117074501L124.590225,45.54229520607257L125.04035833333334,46.0746336664499L125.265425,49.47339969744687L125.37795833333334,63.45273058669422L125.49049166666667,57.64253199850845L125.60302499999999,54.241809396362186L125.71555833333335,61.456433725301586L126.16569166666667,60.31235977429109L126.27822499999999,61.97733562681388L126.39075833333334,66.55965382328031L126.50329166666667,37.65000102203166L126.953425,41.36202815744796L127.06595833333334,61.309087681339236L127.17849166666666,66.62691282784687L127.29102499999999,73.28312358595879L127.40355833333334,81.7468524800978L127.62862499999999,81.80368217054163L127.74115833333335,75.3359563699622L127.85369166666666,80.76972333395793L127.96622499999998,78.81644785341449L128.19129166666667,94.01094591085017L128.52889166666665,112.14177802207645L128.75395833333334,109.66142012753625L128.86649166666666,123.77835094753597L129.09155833333332,110.51920301065434L129.20409166666667,110.728217216119L129.31662500000002,112.22056195139237L129.54169166666665,105.28350556678464L129.654225,115.46405989596535L129.87929166666666,127.21465911664147L129.991825,136.47164080743522L130.55449166666665,125.1480480814233L130.77955833333334,114.797545577227L130.89209166666666,109.11297230556583L131.004625,106.65232071523624L131.11715833333332,105.9290010943655L131.22969166666667,100.87180221833864L131.342225,95.4050302227673L131.45475833333333,92.60097902544021L131.679825,106.80653569918373L131.79235833333334,120.60636165113843L131.90489166666669,113.9347093625843L132.24249166666667,124.68875172786983L132.355025,124.06316392492886L132.46755833333333,124.70289489701075L132.58009166666668,125.69274086959125L132.80515833333334,121.41264216675309L133.48035833333333,123.06777829928045L133.59289166666667,125.37557423444476L133.705425,111.76317591040383L133.93049166666668,104.67866719836627L134.380625,101.02411806202434L134.718225,99.13753375836346L135.055825,104.04870856521957L135.393425,106.59523258717445L135.50595833333335,103.79669795882614L135.731025,103.33814646151757L135.84355833333333,101.88529788345305L135.95609166666668,108.83124455284867L136.068625,101.92634597123413L136.29369166666666,97.76985548355867L136.40622499999998,100.34840343220137L136.51875833333335,94.39538821428066L136.63129166666667,95.09304926817146L136.743825,99.21797245420373L136.85635833333333,94.95182928020925L136.96889166666668,83.92800138547214L137.081425,82.37577007192847L137.19395833333334,79.90218097458315L137.41902499999998,72.34231599184932L137.53155833333335,76.88048385397948L137.75662499999999,81.51806398503338L138.094225,85.54614967475096L138.20675833333334,85.34626442127815L138.431825,71.4143349625707L138.65689166666667,62.39672067142743L138.769425,61.7705860579414L138.88195833333333,75.86946397925237L138.99449166666665,78.7635921006304L139.33209166666666,84.70136237746652L139.444625,87.18073455263021L139.55715833333335,86.10960161379052L139.66969166666667,82.45945804870463L139.89475833333333,86.42479029698866L140.00729166666665,104.44967155944707L140.90755833333333,111.5722363115632L141.24515833333334,101.64248686816039L141.35769166666665,103.59273056143192L141.58275833333332,98.66920169831839L141.6952916666667,106.40083004547425L141.807825,105.62700618741493L141.92035833333333,116.24891346719588L142.25795833333333,126.22302753780512L142.37049166666668,116.79824788617788L142.59555833333332,126.19027963074743L142.7080916666667,146.51815031444008L142.820625,147.88599440889527L142.93315833333332,135.16861743301348L143.27075833333333,124.45470302222424L144.171025,113.07967969594948L144.28355833333333,113.83962521871413L144.39609166666668,111.90019144422388L144.6211583333333,107.82551187576748L144.846225,100.12773179813755L144.95875833333335,87.21256467855943L145.07129166666667,93.38906892963037L145.29635833333336,100.50059086688286L145.40889166666668,103.31975591767115L145.521425,104.25923429271592L145.63395833333334,101.20157026392019L145.74649166666666,110.45714291886723L146.08409166666667,95.96127058391123L146.19662499999998,98.99667736296446L146.30915833333333,104.45470759487702L146.871825,105.08987552312878L147.09689166666666,102.98821228374216L147.20942499999998,91.6353026960696L147.43449166666667,83.73323246916489L147.547025,87.58160309452322L147.77209166666665,76.58453643969277L148.44729166666667,66.51324654549L148.55982500000002,66.54841738986413L148.78489166666665,63.932316445793965L149.00995833333334,67.59098606782794L149.12249166666666,72.6364124314792L149.57262500000002,84.03987929751905L149.68515833333333,77.96034757431373L149.79769166666665,67.0180580414537L149.910225,76.5979769635617L150.02275833333334,76.53199042477046L150.247825,68.9642941756091L150.47289166666667,60.457826606062966L150.58542500000001,72.85214062905435L150.69795833333333,84.83835402638634L150.81049166666665,78.8802668069409L150.923025,82.17542313116853L151.03555833333334,93.27603837644665L151.14809166666666,84.35221404878959L151.598225,81.13066789795039L151.82329166666668,70.08237579051185L151.935825,78.50535490098544L152.49849166666667,71.49504049248141L152.611025,68.54305414506669L152.83609166666668,58.920643491656186L153.0611583333333,67.09081285130227L153.17369166666668,72.63663234372618L153.286225,81.07402485094183L153.51129166666666,76.63795241203103L153.84889166666667,81.33427938036023L153.961425,81.14985462077183L154.299025,69.97844899244221L154.52409166666666,72.77578797995089L154.86169166666667,68.23868655926775L155.19929166666668,68.70958778116558L155.311825,65.25876492975077L155.53689166666666,71.34577318522088L155.64942499999998,62.51926198591317L155.76195833333335,65.6126982317516L155.87449166666667,68.68678318346373L155.987025,60.055929355708734L156.09955833333333,64.03711211776528L156.21209166666668,60.38463750497493L156.43715833333334,58.73264492179862L156.54969166666666,67.36277315707058L156.66222499999998,58.19396621986935L156.999825,56.86138905851803L157.11235833333333,52.28019285391802L157.337425,56.71082742319985L158.23769166666665,71.78379906307836L158.35022500000002,73.43937480393802L158.46275833333334,74.93464557954387L158.57529166666666,70.00520047038925L158.687825,67.39883227303542L158.91289166666667,70.84834135221618L159.025425,72.91205885031214L159.13795833333333,78.95272675347802L159.25049166666665,73.4859331412044L159.47555833333334,61.79435203830695L159.58809166666666,68.10951876561703L159.700625,63.53001728100247L160.038225,66.38055918680602L160.15075833333333,66.48874476153982L160.37582500000002,65.80106300471869L161.50115833333334,58.78187963045072L161.83875833333332,61.25459728478434L161.9512916666667,60.8237717755559L162.063825,59.12928761435667L162.17635833333333,55.019928345459284L162.401425,61.924301570669655L162.51395833333333,64.04910757162112L162.62649166666668,59.794703119239955L162.85155833333332,62.363408422265344L163.18915833333332,50.02257467139758L163.30169166666667,61.90356460027452L163.414225,65.76038820045117L163.52675833333333,71.83053159309932L163.63929166666668,66.19058633313198L163.751825,38.497320136271796L163.8643583333333,24.552287000370416L163.97689166666666,22.608075340111068L164.20195833333332,29.865491380975552L164.427025,22.599699194294487L164.53955833333336,21.449434869014752L164.764625,19.03031990695304L164.98969166666666,18.42106145589727L165.21475833333335,15.812870265146097L165.32729166666667,13.287521692658498L165.43982499999998,21.494587378796382L165.55235833333333,12.99503030873704L165.66489166666668,7.148987841705534L165.777425,-1.1148235816734464L166.22755833333335,6.074827242128926L166.790225,20.03434252980201L166.90275833333334,19.40193386370926L167.127825,11.286396662471036L167.24035833333335,18.134674257183867L167.35289166666666,27.37332339079077L167.69049166666667,17.22739557334988L167.80302500000002,15.251793911693044L167.91555833333334,16.48784584796713L168.140625,33.03629625794475L168.36569166666666,34.96888795387218L168.478225,60.12121611752437L168.81582500000002,55.33031998545557L169.04089166666665,61.57306955045843L169.26595833333334,39.58412751721489L169.37849166666666,29.855653178353457L169.60355833333332,10.095577553260997L169.71609166666664,9.45968755974214L170.05369166666665,0.9429435966895505L170.166225,0.5145508701735262L170.27875833333334,14.13266886716287L170.503825,20.60190966545909L170.61635833333332,15.171945107300807L170.72889166666664,19.55695578916108L171.06649166666668,14.479988735230233L171.179025,12.673666522576934L171.29155833333334,14.204997264272437L171.4040916666667,20.330392848836706L171.516625,24.826866148195943L171.62915833333332,16.812982048921292L171.854225,16.519432828839488L172.191825,2.2978331575443813L172.3043583333333,0.9371687381349524L172.529425,1.996964046807083L172.97955833333333,16.79658828162711L173.09209166666668,21.820259810048483L173.3171583333333,20.8169073678499L173.42969166666668,16.667874757339L173.76729166666667,27.611839252762156L173.99235833333333,32.060090938962254L174.217425,9.864065259805788L174.44249166666668,29.749667398311004L174.555025,41.088480566403604L174.66755833333335,44.049455802414805L174.78009166666666,45.70186335843901L175.00515833333336,48.50487747563344L175.34275833333334,50.43412107834966L175.45529166666665,49.02263411230952L175.68035833333334,38.600782885520616L175.79289166666666,50.0926949994272L175.90542499999998,57.196225607675636L176.13049166666667,56.722790466494146L176.580625,54.825352104379526L176.80569166666666,57.331584250247296L176.91822499999998,51.034466343919455L177.14329166666667,70.89279976400171L177.255825,82.03292748813506L177.36835833333333,74.01008867887245L177.48089166666665,83.9679760994151L177.59342500000002,91.56733380712028L177.70595833333334,98.18822652607273L178.15609166666667,84.23215944337431L178.26862500000001,85.68644908635308L178.38115833333333,81.42396964275474L178.49369166666665,63.6807719959196L178.60622500000002,51.68481092218425L178.83129166666666,55.327889302549885L179.05635833333332,56.43700424468729L179.16889166666667,62.318899904660995L179.281425,54.497000962718296L179.39395833333333,63.28531587059857L179.50649166666665,60.78530936808316L179.619025,31.634869239369902L179.956625,28.113435907701717L180.294225,25.400483308844834L180.51929166666665,31.961454435299856L180.74435833333334,38.33528573844238L180.85689166666668,31.72138430901532L180.969425,30.906207320260563L181.08195833333332,30.683781409996524L181.1944916666667,27.63770233460212L181.644625,17.286798320723868L182.20729166666666,16.874631637081322L182.43235833333333,27.01345541631933L182.54489166666667,19.580160315027243L182.657425,35.43132588366902L182.88249166666668,25.935158190491727L182.995025,39.31002049921011L183.10755833333332,30.217667492903477L183.44515833333332,28.71154457083109L183.78275833333333,26.555621006329197L183.89529166666668,31.03604983389969L184.007825,36.36034317615342L184.23289166666666,42.32799860258612L184.345425,54.305807702088835L184.45795833333335,67.73223366515138L184.683025,66.39262416160162L184.79555833333333,76.375978582748L185.020625,64.18159008134482L185.13315833333334,76.84046327095707L185.24569166666666,82.89322931449732L185.358225,85.16350055040267L185.47075833333335,76.16345322517613L185.58329166666667,80.84994289496193L185.80835833333333,76.65155385694193L185.92089166666668,72.7931062287696L186.25849166666666,77.81785085880954L186.82115833333333,74.97617095884097L187.27129166666666,81.97055237044626L188.17155833333334,58.736314397421935L188.28409166666665,75.33473561350701L188.396625,91.4454850802946L188.50915833333335,100.03799116566564L188.62169166666666,107.80697698007644L188.95929166666664,93.00194262406043L189.07182500000002,84.78533867907157L189.29689166666665,83.84715364190417L189.409425,72.56869697129507L189.63449166666666,55.987969924973896L189.747025,61.462241410149424L189.85955833333333,73.34418485095904L189.97209166666664,84.81554734164746L190.19715833333333,83.94734004582808L190.422225,73.69871465718441L190.53475833333331,78.75041825837376L190.6472916666667,80.29759362077026L190.87235833333332,72.20739345284775L190.98489166666667,56.24433431871545L191.09742500000002,70.90317677229352L191.32249166666668,61.66240008669386L191.5475583333333,54.86703224864317L192.22275833333333,48.393701465086096L192.447825,56.387322701966035L192.89795833333332,59.59707166249595L193.12302499999998,51.986931104964505L193.23555833333333,54.88977784833279L193.68569166666668,43.77985377994594L194.24835833333336,48.086612142872674L194.36089166666667,54.20683952098792L194.811025,60.97279469133978L195.14862499999998,88.72077751875554L195.26115833333336,77.78249860197259L195.59875833333334,77.16965595191888L195.71129166666665,84.58635504428267L195.93635833333335,64.15884121677064L196.04889166666666,56.25945502201817L196.16142499999998,57.272618516602236L196.27395833333333,54.28663205131402L196.499025,50.075411256563136L196.61155833333333,49.010488260982484L196.94915833333334,53.81761489055225L197.06169166666666,20.13172228474819L197.174225,34.83091995266514L197.28675833333332,30.986247051727876L197.39929166666667,28.883747340974956L197.84942500000002,32.96378115356056L198.187025,37.121046722455475L198.29955833333332,18.30975091840727L198.41209166666667,22.480020451781606L198.52462500000001,29.135423228964797L198.74969166666665,39.586526791040406L198.862225,49.47498744585198L198.97475833333334,39.96315699266712L199.08729166666666,38.34325863782801L199.199825,22.86243620204032L199.31235833333332,38.082032509388206L199.42489166666667,46.24184542337094L199.537425,40.86904100964762L199.64995833333333,34.58658064015983L199.98755833333334,44.05381463903761L200.212625,15.641532023079398L200.77529166666667,7.016756180393633L200.887825,14.694382760434138L201.00035833333334,13.444986199918777L201.225425,26.839525281691813L201.67555833333333,23.71770611259886L202.01315833333334,27.70741085367702L202.238225,26.096753763259994L202.68835833333333,33.43407854806456L202.80089166666667,23.944845895086246L202.913425,22.7663805108711L203.0259583333333,29.406193630647213L203.36355833333332,27.332572211275142L203.588625,28.68027471340702L203.70115833333335,47.11987103403478L203.81369166666667,55.40583432779108L203.926225,59.21830073195535L204.15129166666668,49.23244975364017L204.37635833333334,54.53670678513551L204.48889166666666,71.0792195652909L204.82649166666667,51.83905061112682L204.939025,57.44703329798508L205.16409166666668,69.1124107669642L205.276625,62.3076315324776L205.38915833333334,68.63651553954342L205.95182499999999,82.37235572884715L206.06435833333333,88.59883647556681L206.17689166666668,94.22694780618042L207.07715833333333,97.66547719125113L207.18969166666665,96.93357933311898L207.30222500000002,91.0760186667349L207.52729166666666,84.49141382216985L207.639825,80.21993673420819L207.75235833333335,89.65086555024875L207.86489166666667,97.66113214038229L207.977425,94.20436669034912L208.08995833333333,88.63685896482065L208.20249166666665,75.37627826742029L208.42755833333334,72.50806062507881L208.652625,63.67686808994392L208.76515833333335,75.25803850357022L208.87769166666666,76.82896753731576L209.10275833333333,87.5432916580614L209.21529166666664,77.11631813939047L209.44035833333334,89.01003092774461L209.665425,95.85316203545804L209.77795833333332,91.86507616404974L210.003025,99.42992806173855L210.11555833333333,93.99092790651794L210.56569166666668,91.88886170918798L210.678225,84.17978715492583L210.79075833333332,81.97386667046578L210.9032916666667,88.23892044716025L211.015825,88.41603975932239L211.12835833333332,90.85976861453328L211.24089166666667,94.4538556376968L211.46595833333333,99.53865062981367L211.57849166666668,108.45168058354272L211.691025,96.02864231577621L211.8035583333333,107.67584506011987L212.25369166666667,118.1684525832405L212.47875833333333,119.34044533482464L212.59129166666668,109.48219457999566L212.703825,89.3661948353033L212.9288916666667,72.7436655683637L213.15395833333332,68.69835538108543L213.37902499999998,62.603642794645246L213.60409166666668,61.54179130568966L213.716625,69.86313049597808L213.82915833333334,66.86607815507865L214.054225,72.43537758879351L214.16675833333335,71.2006277405294L214.27929166666667,79.18514762534173L214.39182499999998,89.48006633909627L214.50435833333336,89.37087915869319L214.61689166666667,86.51687360521046L214.729425,91.4611283018627L214.84195833333334,85.65741061898234L214.95449166666666,79.117014317401L215.40462499999998,91.86890041129556L215.51715833333333,89.99828068418661L215.742225,82.36385733814797L215.85475833333334,90.60065054538173L216.19235833333335,92.52146082853474L216.30489166666666,92.255289214692L216.41742499999998,91.66572740622871L216.52995833333333,103.0760378993446L216.64249166666667,101.50282048509723L216.86755833333333,103.61069145184084L217.31769166666666,96.69428142693887L217.54275833333332,96.87152608815433L217.65529166666667,104.67458274184368L217.76782500000002,92.2545976986017L218.105425,87.79492907948924L218.21795833333334,91.7650331001747L218.443025,98.74979658250201L218.55555833333332,97.29320529959145L218.66809166666667,110.65433583157302L218.89315833333333,100.20859265008893L219.00569166666665,109.29369079998213L219.118225,114.97072095039586L219.23075833333334,118.50269200697484L219.455825,137.3689236914989L219.68089166666667,124.54406099357888L219.90595833333333,127.96518167874956L220.01849166666668,121.505874929463L220.24355833333334,123.6178940525046L220.35609166666669,132.20013394531182L220.468625,128.32230862139127L220.58115833333332,113.48454617771546L220.806225,97.9784447469445L221.143825,112.09865142122017L221.25635833333334,74.27662645442564L221.36889166666668,73.11383168319261L221.481425,82.93032406300873L221.59395833333332,88.75398027191318L221.819025,99.01102439335682L221.93155833333333,90.83817496123308L222.04409166666667,93.43689207733235L222.156625,84.46997685496825L222.2691583333333,69.44514634381954L222.38169166666668,76.95275742896071L222.494225,81.39057589178L222.60675833333332,75.81468172441821L222.831825,95.04053645105093L222.94435833333333,82.95256704124192L223.05689166666667,86.2626139124452L223.507025,77.14097740325845L223.84462499999998,86.56106189828384L223.95715833333335,77.11034664458023L224.06969166666667,63.456851846374654L224.40729166666668,82.40325745735059L224.519825,96.49599928299116L224.63235833333334,80.98081243668335L224.74489166666666,83.74778433082832L224.85742499999998,97.37445481340082L225.08249166666667,94.0869083871273L225.195025,98.89348914884886L225.30755833333333,93.37560348544284L225.64515833333334,90.27653589616865L225.75769166666666,98.14801235961744L225.98275833333335,96.78664254498062L226.20782499999999,100.06434082958387L226.32035833333333,105.60352657433401L226.65795833333334,88.00852606164024L226.883025,87.18891031118083L226.99555833333335,94.25168761895212L227.10809166666667,94.96498313997144" style="fill: none;" fill="none"></path></g></g></g></g><g opacity="0.2"><g><g><g><path stroke="rgb(255, 112, 67)" stroke-width="2px" d="M28.036625,183.92826132263454L28.261691666666668,3.384366842252837L28.374225000000003,159.750813296863L28.824358333333336,230.14494105960642L29.612091666666668,369.88116156629155L29.724625,77.18304326278822L29.83715833333333,188.4543150109904L29.949691666666666,100.91550642677714L30.399825,247.34128873050213L31.525158333333334,389.1264742485115L31.750225000000004,123.4659432279212L32.087825,32.730948922889546L32.200358333333334,305.22831816545556L32.65049166666667,385.71599120327403L32.763025,60.32081102473392L32.98809166666667,166.31820206982746L33.21315833333334,87.07350061195235L33.325691666666664,129.4586383849382L33.663291666666666,192.2650866189173L33.775825,314.17040388286114L33.888358333333336,67.64064244713099L34.00089166666667,208.74426827686173L34.451025,198.75419799557753L34.56355833333333,147.75143478385039L34.788625,83.32612333340303L35.013691666666666,-59.39467017352585L35.126225,298.95048982117856L35.23875833333333,4.854964569210967L35.35129166666667,6.31162119550361L35.68889166666667,110.4883798509836L35.801424999999995,-159.5660940898317L35.91395833333333,83.71167012410503L36.026491666666665,-36.25538671336006L36.251558333333335,206.7958110656057L36.476625000000006,107.42519976624419L36.58915833333334,90.35884343939166L37.151825,265.8841771717582L37.264358333333334,52.37438364539825L37.37689166666667,-73.33579438818357L39.28995833333333,193.92742157833916L39.515025,49.86941276703559L39.62755833333333,110.60631402688367L39.74009166666667,162.33194214744225L40.527825,139.24025153262272L40.865424999999995,286.15472593264917L41.090491666666665,171.61808104174477L41.203025,151.366795490895L41.315558333333335,344.5848931138005L41.878225,228.13478505824293L41.99075833333333,64.73858569136686L42.328358333333334,156.00946460238524L42.440891666666666,269.5587404583182L42.77849166666667,131.84539249752248L43.228625,59.77225697253429L43.453691666666664,37.15136109505378L43.678758333333334,144.84014675872666L43.791291666666666,73.8006779104471L43.903825000000005,151.1193880523954L44.016358333333336,-216.344193743808L44.12889166666666,289.8380495054381L44.241425,110.63141742774417L44.46649166666666,131.01721576069082L44.69155833333333,239.63708797522952L45.02915833333333,276.1981896502631L45.14169166666667,134.11581377685067L45.254225,-18.53410479426388L45.47929166666667,89.52671044426303L45.591825,363.2129824033805L45.70435833333334,211.58726374804974L45.929424999999995,57.06744795186176L46.04195833333333,186.40421964015277L46.267025000000004,113.08641699595107L46.379558333333335,238.24928908262933L46.604625,90.8405649853604L46.71715833333333,79.38738560889445L47.05475833333333,379.718492018325L47.617425,214.32965722254343L47.72995833333333,27.50897056077205L47.84249166666667,292.99227062932084L48.06755833333334,157.1418493432658L48.18009166666667,16.9246137653078L48.40515833333333,253.2847190520593L48.630225,32.62836879704677L48.742758333333335,214.28232341791903L48.855291666666666,166.8633179451738L48.967825000000005,85.84202102039538L49.19289166666666,375.25178220442365L50.20569166666667,-70.91536498176204L50.655825,57.53913755714891L51.105958333333334,-66.35073777501076L51.218491666666665,-35.58553095587664L51.331025000000004,43.92221458043368L51.78115833333333,195.85138766680444L51.89369166666667,131.2568990758487L52.006225,275.39017099142075L52.11875833333333,13.251698919704957L52.45635833333333,91.96776891180446L52.568891666666666,26.22139687836168L52.90649166666667,399.7552447531905L53.019025,236.48889543541839L53.24409166666667,2.9532759828226682L53.356624999999994,57.89176262702258L53.46915833333333,-202.7032741765891L53.806758333333335,350.5641652515956L53.919291666666666,121.80177143429006L54.031825000000005,105.72881272648061L54.14435833333333,253.06156724478518L54.59449166666667,-61.395830397095054L54.707025,52.79021465139727L54.93209166666667,-168.4433960776244L56.057425,253.85404346031802L56.62009166666667,42.124895855784395L56.95769166666667,190.4328680442912L57.18275833333333,-238.00597957415243L57.29529166666667,106.64657045475073L57.52035833333333,59.7906724129404L57.97049166666667,-5.79189168768273L58.19555833333334,178.18330329230852L58.420625,101.66479348923475L58.53315833333333,134.98133947593823L58.645691666666664,-12.549793136971388L59.095825000000005,49.290951286043416L59.20835833333333,71.13642053731849L59.433425,300.839508961354L59.65849166666667,304.4692346538816L59.88355833333333,37.373618034379795L60.446225,117.6688473650387L60.783825,226.66074915443147L60.89635833333333,82.54739982528345L61.233958333333334,-62.51349691514461L61.459025000000004,120.83639731151716L61.571558333333336,-27.400880309087917L61.68409166666667,-93.44625598298656L61.90915833333333,166.12971462096485L62.02169166666667,419.88157847949435L62.13422500000001,-228.1949535299625L62.58435833333333,93.04297630063124L62.696891666666666,-90.94580654267757L62.92195833333333,160.82112246113164L63.25955833333333,90.94997436659675L63.709691666666664,38.12686135513439L63.822225,256.03168106291974L64.72249166666666,-675.5833364246148L64.835025,130.80367200928075L65.172625,282.06838209501336L66.41049166666667,480.5113310771329L66.52302499999999,33.97947810377391L66.63555833333334,83.55318430066107L66.74809166666667,-199.68884084586594L67.76089166666667,-41.59073071501087L67.873425,66.33008478794775L68.09849166666666,495.34758228063583L68.32355833333332,6.6710284224578L68.43609166666667,156.64001681762082L68.548625,-64.24426572344134L68.77369166666666,158.06403431296346L68.886225,184.14976468895162L68.99875833333334,108.1444381049701L69.11129166666666,80.54534473376613L69.33635833333334,80.78898430722099L69.44889166666667,347.29747335612774L69.67395833333333,316.22855306523184L69.78649166666666,53.43616801500318L70.01155833333334,-35.245575332215886L70.236625,75.75582308215753L70.46169166666667,23.23545802703922L70.574225,87.53939712473323L70.68675833333333,-5.246634517397216L70.911825,148.6630697314228L71.02435833333334,501.7743354908058L71.36195833333333,-171.29145461746631L71.47449166666667,129.64557158946988L71.587025,143.38862384855744L71.81209166666667,205.12141893804073L72.03715833333334,78.7531126269272L72.14969166666667,233.56795225611754L72.937425,182.75584301565374L73.38755833333333,70.65408671327998L73.50009166666666,319.74378275871277L74.06275833333333,239.4036687357085L74.85049166666666,96.08515053774626L74.963025,121.14498545868055L75.41315833333333,231.14257752682482L75.63822499999999,218.80216012895107L75.86329166666667,46.19381331758837L76.08835833333333,277.2622818372079L76.313425,115.33347751200198L76.53849166666667,196.41058593775543L77.55129166666667,63.68282990583349L77.663825,198.58261884110314L77.88889166666667,464.56261771917343L78.11395833333333,95.30322434433867L78.22649166666666,310.2775399152722L78.90169166666666,222.69248078763485L79.23929166666666,126.21587243250437L79.57689166666665,235.59431007717336L79.689425,97.5933327185256L79.80195833333333,490.7208323989596L79.91449166666666,7.764698350003762L80.027025,235.92498733316148L80.25209166666667,62.04847134436877L80.364625,-56.95490690959356L80.47715833333334,157.16888377496173L80.702225,80.12296706225187L80.81475833333333,182.48069467076232L80.92729166666668,63.49985295959879L81.15235833333334,106.71961993830544L81.37742499999999,11.224540427327117L81.48995833333333,-224.55173417074343L82.390225,231.89629183071L82.84035833333333,158.00172324478623L82.95289166666666,560.4018446036748L85.20355833333333,330.7682261914015L85.31609166666668,163.65545184271676L85.65369166666667,243.00918589532375L85.87875833333334,-177.3944069253547L86.103825,82.18050396655283L86.21635833333333,62.02572285916121L86.32889166666666,243.28183802962303L86.66649166666667,182.4160757852452L87.22915833333333,164.81430583553654L87.34169166666666,385.0753599490438L88.01689166666667,106.35545578173227L88.24195833333333,179.85143134423663L88.35449166666666,226.567965477705L88.467025,105.67022242503506L88.57955833333334,299.6572471069438L88.804625,-30.9355145075492L88.91715833333333,144.03631984974655L89.02969166666666,245.54119120538235L89.142225,181.36361688162597L89.25475833333334,42.300101580364334L89.479825,-166.44605081741307L90.04249166666668,177.18679718460353L90.26755833333334,82.78524630623203L90.38009166666667,336.1143086084298L90.71769166666667,77.94335133050166L90.94275833333333,118.96951437847954L91.167825,492.4267332979611L91.28035833333333,2.08534826976909L91.61795833333333,59.67966168906005L91.73049166666667,134.88116136406148L91.84302500000001,82.19468055878363L92.06809166666666,224.75524560468537L92.180625,119.98900446295737L92.29315833333332,-39.33547509248773L92.518225,372.62492089186395L92.74329166666666,91.73326641108305L92.85582500000001,316.9587182125875L93.30595833333334,403.10355802518984L93.41849166666667,122.61845618273527L93.531025,10.291004764182196L93.64355833333335,265.08962863045076L94.881425,-119.32767387692421L94.99395833333334,62.18166537369998L95.10649166666667,22.580885672143502L95.33155833333333,-30.62739734351639L95.44409166666667,205.42157648716653L95.556625,110.54970185458659L95.66915833333333,171.23889252330574L95.89422499999999,111.82818556257655L96.11929166666667,208.5196093235697L96.231825,163.53780025669505L96.34435833333333,471.4812657109329L96.56942500000001,147.20264524008545L96.79449166666667,-37.235361313181315L97.01955833333334,219.63024266915662L97.13209166666667,132.69956750316277L97.244625,-12.137635799390956L98.36995833333334,190.60152710335595L98.48249166666666,85.0880712249449L98.70755833333334,284.74822900976454L99.15769166666666,16.99945298475875L99.270225,41.440792858600595L99.49529166666666,109.53793589345045L99.72035833333334,112.96226584272725L100.17049166666668,197.1618982276746L100.62062499999999,-54.18901137688332L100.84569166666667,145.3448051831552L100.958225,10.81035786228518L101.07075833333333,187.96590550456727L101.295825,586.6482273255076L101.40835833333333,73.17285739736896L101.52089166666667,24.841133715850937L101.633425,130.99347821090902L101.74595833333333,6.536892426865413L102.19609166666666,202.64593160365308L102.308625,41.495144311870824L102.53369166666667,16.593889411006618L102.75875833333333,396.80086177161763L103.09635833333334,229.01971526231085L103.321425,121.10551707233698L103.43395833333334,281.571824580431L103.54649166666667,394.69519039137026L103.88409166666666,136.68907720914908L103.996625,-314.44687135730476L104.10915833333334,330.6693197339773L104.22169166666666,58.14416248670644L104.334225,121.57777185738085L104.55929166666667,72.73719800157205L104.671825,73.65076397997991L104.89689166666668,196.27404792819704L105.12195833333334,374.2355890018599L105.23449166666667,159.9596001186541L105.347025,144.46321895931447L105.45955833333333,-38.47402339747976L105.57209166666667,126.86766598692961L105.684625,419.3032111951283L106.02222499999999,-190.96814074899478L106.359825,108.92928439378737L106.80995833333333,182.80355360678263L107.48515833333333,210.75206936257226L107.59769166666666,132.26414359893116L107.71022500000001,36.59564809926916L107.82275833333333,56.66602902965884L107.93529166666666,37.13831486233641L108.16035833333333,159.0608230105468L108.27289166666667,431.01194601825307L108.385425,81.21164456861358L108.83555833333334,-3.6924372847591465L109.73582499999999,280.5736700317689L109.84835833333334,58.06334178149698L109.96089166666667,160.10956114743436L110.073425,185.13096384491237L110.63609166666667,355.04302643026625L110.74862499999999,44.156104803085306L111.31129166666666,-71.59565301558803L111.53635833333333,90.16131311442167L111.64889166666667,269.5579868853092L112.099025,-82.57608307472299L112.436625,114.34681495172633L112.54915833333332,211.8542640847819L112.88675833333333,20.435180725795853L112.99929166666666,166.4501244447061L113.111825,170.6239769480058L113.22435833333334,-30.33953245409899L113.33689166666666,156.74151368226322L113.56195833333334,115.16100348957946L113.89955833333333,-103.54401655708044L114.01209166666666,85.04158518995554L114.23715833333334,-23.2729957593339L114.57475833333334,16.903607917683438L114.68729166666667,151.06852187429155L114.799825,-67.27666706059664L115.02489166666668,406.1030611906733L115.137425,116.67460197636058L115.24995833333334,334.8058703733342L115.36249166666667,126.8123725673982L115.47502499999999,241.8788734802178L115.58755833333333,216.06645461491175L115.70009166666667,105.39234237798621L115.92515833333333,103.2745667312826L116.26275833333332,56.42691089425765L116.37529166666667,-161.13632829806642L116.82542500000001,92.75727793361456L116.93795833333333,-1.7299918745245702L117.163025,294.6588915352311L117.38809166666667,67.06293453914775L117.61315833333333,37.28634486028124L117.72569166666666,-382.11005936656153L117.83822500000001,112.75898952356405L117.95075833333334,151.9743637293577L118.06329166666666,52.51224040772231L118.175825,69.81121530277387L118.40089166666667,156.98543584559644L118.62595833333334,79.57323555222578L118.85102499999999,252.75137775497777L119.30115833333333,-0.27573726219794814L119.41369166666668,4.051608643361467L119.526225,-53.049868028078784L119.86382499999999,318.65510525235106L119.97635833333334,75.3943906277418L120.08889166666667,164.533505693078L120.31395833333333,-31.662524067929848L121.32675833333333,188.84942275924342L121.43929166666666,54.20184529040538L121.77689166666667,-51.38685014311759L122.11449166666667,399.0785361911569L122.227025,72.62025289024622L122.45209166666666,-416.0628505770916L123.01475833333333,210.43580419038022L123.46489166666666,129.4077251085213L123.68995833333332,154.8165585292237L123.80249166666667,155.9401358855622L123.915025,-105.68910922535834L124.36515833333333,-42.951000643628035L124.47769166666667,96.90108171318258L124.590225,-71.485278118934L125.04035833333334,56.189064413309076L125.265425,114.04995428451468L125.37795833333334,329.06001747506L125.71555833333335,198.53429597190447L126.16569166666667,38.57495470557891L126.27822499999999,93.61187682407241L126.39075833333334,153.62369955437524L126.50329166666667,-511.63340219110256L126.953425,111.89054372906683L127.06595833333334,440.303218628679L127.17849166666666,167.66559060982294L127.29102499999999,199.75112798810005L127.40355833333334,242.55770146633898L127.62862499999999,82.88344628896029L127.74115833333335,-47.55083383939098L127.85369166666666,184.0112956485578L127.96622499999998,41.704213723540285L128.19129166666667,382.70640899879595L128.52889166666665,456.6275881315981L128.75395833333334,62.534620131765074L128.86649166666666,392.0000365248749L129.09155833333332,-141.40460778772834L129.20409166666667,114.69948711991309L129.31662500000002,140.57511192134447L129.54169166666665,-26.52056573969982L130.77955833333334,-81.86200200127708L130.89209166666666,1.1060801446437443L131.004625,59.89994049923758L131.11715833333332,92.1859282978943L131.22969166666667,4.785023574318182L131.342225,-8.463637692587767L131.45475833333333,39.324006276471245L131.679825,376.7121124991349L132.24249166666667,329.0155566675322L132.355025,112.17699566909243L132.46755833333333,136.85778336652686L132.58009166666668,144.49981434856142L132.80515833333334,40.090766813073806L133.48035833333333,154.51536481721058L133.59289166666667,169.22369700244494L133.705425,-146.8723922457014L133.93049166666668,-29.926998330014143L134.380625,31.587684471692334L134.718225,63.2924319888864L135.055825,197.3610298952886L135.393425,154.97918900421686L135.50595833333335,50.62454002031256L135.731025,94.62566801267009L135.84355833333333,74.28117490027628L135.95609166666668,240.80423127114773L136.068625,-29.266727079238226L136.29369166666666,18.796536217842746L136.40622499999998,149.34081445634362L136.51875833333335,-18.711900926062086L136.63129166666667,108.34860929208142L136.743825,177.5915129887206L136.85635833333333,13.895108974405664L136.96889166666668,-125.5247286143048L137.081425,52.883375114628215L137.19395833333334,32.90398812506877L137.41902499999998,-71.29511867995778L137.53155833333335,163.10567323437758L137.75662499999999,169.6320864749806L138.094225,162.0797777793237L138.20675833333334,81.5484446052994L138.431825,-193.29232475267992L138.65689166666667,-108.93795086017683L138.769425,49.874028401715385L138.88195833333333,343.74814448399206L138.99449166666665,133.752026406782L139.33209166666666,197.5189976372889L139.444625,134.28880588071686L139.55715833333335,65.75807577584467L139.66969166666667,13.106730312108954L139.89475833333333,161.7661030143499L140.00729166666665,446.92241554600855L141.24515833333334,-87.02275255641769L141.35769166666665,140.64736073357716L141.58275833333332,5.122153299195395L141.6952916666667,253.3017686413867L141.807825,90.92435288429259L141.92035833333333,318.06515178297246L142.7080916666667,532.7476933045048L142.820625,173.87503220353807L142.93315833333332,-106.46154510868452L144.171025,-103.04576350322793L144.28355833333333,128.27859015124184L144.39609166666668,75.05094972891466L144.6211583333333,30.406600075108635L144.846225,-46.13008967680595L145.29635833333336,235.61950767465999L145.40889166666668,156.88389188264097L145.521425,122.10932341856615L145.63395833333334,43.10595371680598L145.74649166666666,286.3130233628409L146.08409166666667,-179.4603037802237L146.19662499999998,156.6694061649697L146.30915833333333,208.15728200120586L146.871825,117.15806615991251L147.09689166666666,63.05661073539935L147.20942499999998,-124.06997946969106L147.43449166666667,-66.40610184201178L147.547025,160.70064497632637L147.77209166666665,-132.35973000207125L148.44729166666667,-124.8412614443473L148.55982500000002,67.21666343297274L148.78489166666665,14.22639850846355L149.00995833333334,137.1057088864701L149.12249166666666,168.4995133408478L149.57262500000002,300.70574975226606L149.910225,258.61643648360456L150.02275833333334,75.27824618773799L150.247825,-74.82193455845122L150.81049166666665,-34.323390362518225L150.923025,144.7833932914904L151.03555833333334,304.1877280367272L151.14809166666666,-85.20044817669056L151.598225,19.921291032007737L151.82329166666668,-139.83517425081567L152.49849166666667,-61.70093326909206L152.611025,12.45531354418819L152.83609166666668,-123.90515892314063L153.51129166666666,-7.647423927273086L153.84889166666667,170.5644917786121L153.961425,77.64578418859412L154.299025,-142.27825794581858L154.52409166666666,125.92522874261648L154.86169166666667,-17.966240433710013L155.19929166666668,77.65671099722384L155.311825,-0.30686924713001895L155.64942499999998,-105.18445080092977L155.76195833333335,124.3879869026797L155.87449166666667,127.09439726599624L155.987025,-103.93029337163487L156.09955833333333,139.67958459683825L156.21209166666668,-9.012380138039628L156.43715833333334,27.344785841447937L156.54969166666666,231.33520962723662L156.66222499999998,-116.01336558695355L156.999825,31.54242299284251L157.11235833333333,-34.76253503348151L157.337425,140.89288423955438L158.23769166666665,358.17026022076607L158.35022500000002,104.89531388027324L158.46275833333334,103.34479031605376L158.57529166666666,-23.65425660354755L158.687825,17.87783652331145L158.91289166666667,136.38901385664937L159.025425,112.12269131413527L159.13795833333333,193.72541691362858L159.700625,-23.480510926672437L160.038225,120.54085539707114L160.15075833333333,68.54427068148337L160.37582500000002,52.73510962511809L161.50115833333334,-74.58260448064128L161.83875833333332,108.23623271712233L161.9512916666667,52.63808710021629L162.063825,26.934088551572366L162.17635833333333,-23.057897763592884L162.401425,193.10739284966672L162.51395833333333,104.4204215896981L162.62649166666668,-21.038981476000412L162.85155833333332,111.16880917974879L163.18915833333332,-184.4532665950912L163.30169166666667,287.64237324893475L163.414225,139.04003660380837L163.52675833333333,187.16325605341365L163.97689166666666,-14.331946204815615L164.20195833333332,167.75639615740093L164.427025,-115.45035235264477L164.764625,-26.932864372219374L164.98969166666666,6.84515088583739L165.21475833333335,-33.7427623591253L165.777425,-158.12724062587537L166.22755833333335,142.6781928943736L166.790225,285.26513299558843L166.90275833333334,7.3861692079475665L167.127825,-142.90881016105416L167.24035833333335,148.2519485567297L167.35289166666666,202.90765692932266L167.80302500000002,-22.28463765978817L167.91555833333334,39.97283263717376L168.140625,347.4568540475198L168.36569166666666,71.68813017649309L168.478225,538.0154512269157L170.27875833333334,272.87691080995967L170.503825,143.51748483308722L170.61635833333332,-87.99738149770674L170.72889166666664,102.87215874450547L171.06649166666668,-81.98238528945622L171.179025,-21.646455517837026L171.29155833333334,43.300281356487936L171.4040916666667,136.712908955557L171.516625,110.25985883602073L171.62915833333332,-135.4508158372982L171.854225,10.941997647285422L172.191825,-267.91256059706217L172.3043583333333,-24.915455230644806L172.529425,22.13307491157733L172.97955833333333,297.9894487432071L173.09209166666668,117.27001885005404L173.3171583333333,1.7532109660761472L173.42969166666668,-62.163744842367564L173.76729166666667,235.54716466580118L173.99235833333333,116.5768729767629L174.217425,-411.8604226441655L174.555025,256.5259307601622L174.66755833333335,100.30798528662748L174.78009166666666,77.09760692289896L175.00515833333336,101.76214570232798L175.34275833333334,87.08974952995776L175.45529166666665,22.204381757548852L175.68035833333334,-159.4143904234682L175.90542499999998,192.16330716439654L176.13049166666667,47.72752278404574L176.580625,18.774023224200498L176.80569166666666,104.9499950217349L176.91822499999998,-68.61077387630944L178.15609166666667,-180.93311512789558L178.26862500000001,113.31795230294973L178.38115833333333,0.43686021438663103L178.49369166666665,-273.43998329394634L178.60622500000002,-176.2384494787881L178.83129166666666,124.54637852949755L179.05635833333332,77.51018814529688L179.16889166666667,174.074917444161L179.281425,-94.1190789341927L179.39395833333333,230.263299120324L179.50649166666665,13.285185820289987L179.619025,-522.2234932061818L180.294225,-26.145616069436112L180.51929166666665,156.61990583794457L180.74435833333334,159.4380804981504L180.85689166666668,-93.94274285009931L180.969425,15.417844533920269L181.08195833333332,26.45768911497931L181.1944916666667,-30.23780009789131L181.644625,-179.38037794296238L182.20729166666666,9.043464647872076L182.43235833333333,219.6511072218418L183.10755833333332,-142.537039626922L183.44515833333332,0.09520905145574776L183.78275833333333,-14.40692671920577L183.89529166666668,116.16419755773885L184.007825,137.52191667897358L184.23289166666666,155.71345170480862L184.345425,281.8841805926391L184.45795833333335,322.83432696333955L184.683025,40.94004359415597L184.79555833333333,266.0597125845296L185.24569166666666,197.8957841417619L185.358225,128.29865403260501L185.47075833333335,-94.837445954127L185.58329166666667,169.89324662089345L185.80835833333333,-3.1178378654377967L185.92089166666668,-0.5173987065043217L186.25849166666666,173.28799882956912L186.82115833333333,20.984252859439145L187.27129166666666,214.863799190947L189.07182500000002,-71.33013627571724L189.29689166666665,66.02163793572356L189.409425,-141.7219797702773L189.63449166666666,-259.04584395512944L189.747025,165.47339962848594L189.85955833333333,299.1011102263417L189.97209166666664,302.77143466472626L190.19715833333333,67.45140142525942L190.422225,-121.02516772704469L190.53475833333331,174.73278668097086L190.6472916666667,109.69392550630225L190.87235833333332,-81.50640973768066L192.447825,208.26612620268548L192.89795833333332,120.58230191256315L193.12302499999998,-92.60573948813341L193.23555833333333,110.04386597233159L193.68569166666668,-167.30870351940396L194.24835833333336,129.91502103848114L194.36089166666667,170.49115970517906L194.811025,189.5259429280247L195.26115833333336,-130.04480081690213L195.59875833333334,65.52564560089789L195.71129166666665,225.50363779919488L196.04889166666666,-93.8288826782789L196.16142499999998,76.52272491369925L196.27395833333333,-2.4471107891628003L196.499025,-29.93778384370468L196.61155833333333,28.77695134494983L196.94915833333334,145.15302085237843L197.06169166666666,-619.9002372255284L197.39929166666667,-11.063747163329829L197.84942500000002,110.48442359268664L198.187025,116.10909253145964L198.29955833333332,-339.1048693585077L198.41209166666667,101.71514158589495L198.52462500000001,155.58807599544522L198.74969166666665,238.1574944704771L198.97475833333334,-140.76162161784515L199.08729166666666,7.565189895885303L199.199825,-271.2731900779265L200.77529166666667,-156.85398483063497L200.887825,160.56928778120448L201.00035833333334,-10.293548449873963L201.67555833333333,-35.596858100167374L202.01315833333334,103.51180093416144L202.238225,-4.505730954664145L202.68835833333333,172.8432494593518L202.80089166666667,-156.35057451150254L202.913425,0.37553821078364946L203.0259583333333,155.5626429063933L203.36355833333332,-12.066234756793312L203.588625,54.28662225391181L203.70115833333335,397.47220112596244L203.81369166666667,212.83913690916128L203.926225,131.65516241107667L204.15129166666668,-140.49871883434912L204.37635833333334,155.31759038354667L204.48889166666666,385.386962388243L204.82649166666667,-313.72415951799076L204.939025,163.99870434829165L205.16409166666668,290.7545826775687L206.17689166666668,201.16106308783804L207.07715833333333,162.99753550759382L207.18969166666665,83.02752002860815L207.30222500000002,-20.217633994562313L207.86489166666667,249.85619735292025L207.977425,28.525823139718575L208.08995833333333,-17.145787820220033L208.20249166666665,-176.57475498318675L208.42755833333334,18.011925420590774L208.652625,-104.11579007761823L208.76515833333335,295.3002763624702L208.87769166666666,106.67661917848243L209.10275833333333,291.1154499522277L209.665425,225.87265308201313L209.77795833333332,16.091444607291866L210.003025,243.16211411782672L210.11555833333333,-9.350075042673565L210.56569166666668,51.949603959918L210.678225,-62.29262937605385L210.79075833333332,40.061377465724924L210.9032916666667,207.2749422043562L211.015825,91.78130669040335L211.12835833333332,137.29061686354024L211.24089166666667,162.7415090778044L211.46595833333333,196.149755480034L212.25369166666667,317.52799552253316L212.47875833333333,141.6083076149225L212.59129166666668,-77.82456976175312L213.37902499999998,-53.19589634771863L213.60409166666668,41.36661301553247L213.716625,227.96857511145728L213.82915833333334,9.922083677990065L214.054225,178.25206682937485L214.16675833333335,47.74038062351088L214.27929166666667,230.89102543677603L214.39182499999998,285.08352190043246L214.50435833333336,87.29632273103506L214.61689166666667,32.290768089038956L214.729425,185.40196753825458L215.40462499999998,334.1547361952918L215.51715833333333,54.45650586911608L215.742225,-62.690186236585944L215.85475833333334,247.09972148282188L216.19235833333335,129.0168562084436L216.30489166666666,87.19802855168066L216.41742499999998,80.46405304542608L216.52995833333333,319.8719372685466L216.64249166666667,71.6116896143981L216.86755833333333,143.66023981996943L217.31769166666666,-34.71750904619698L217.54275833333332,100.2391746512481L217.65529166666667,252.93265916194235L217.76782500000002,-143.72511812299493L218.105425,3.061225316354173L218.21795833333334,167.1970094931977L218.443025,231.46030274672168L218.55555833333332,69.61797092429228L218.66809166666667,364.5158159392221L220.01849166666668,-1.2209533069815404L220.24355833333334,163.74625739029474L220.35609166666669,295.262691908649L220.468625,54.64362746689998L220.58115833333332,-168.4329402521253L221.25635833333334,-644.3418479146702L221.36889166666668,51.02073102976592L221.481425,269.44367927951475L221.93155833333333,-64.44596424911707L222.04409166666667,142.81251728321823L222.156625,-85.90141236994951L222.38169166666668,219.59736804664135L222.494225,165.70912668534686L222.60675833333332,-30.127307455454577L222.94435833333333,-146.71885174512866L223.05689166666667,149.1535044653075L223.507025,-96.17011627129148L224.63235833333334,-213.80773764316532L224.74489166666666,136.32025031958307L224.85742499999998,356.2811939822776L225.08249166666667,31.623526287930325L225.195025,190.21852362155914L225.30755833333333,-11.464224119271568L225.64515833333334,31.39425169995849L225.75769166666666,247.70606516514505L225.98275833333335,70.92061606688158L226.20782499999999,162.34060823704513L226.32035833333333,210.84805572458674L226.65795833333334,-246.29648367954155L226.883025,71.6162110524518L226.99555833333335,228.44445646660668L227.10809166666667,108.51759803933753" style="fill: none;" fill="none"></path></g></g></g></g></g></g><g transform="translate(82, 177)" clip-path="url(#clip_1)"><clipPath id="clip_1"><rect width="247" height="23"></rect></clipPath><g><g><line x1="0" y1="0" x2="0" y2="5" style="visibility: inherit;" fill="rgb(0, 0, 0)" stroke="rgb(204, 204, 204)" stroke-width="1px"></line><line x1="27.473958333333332" y1="0" x2="27.473958333333332" y2="5" style="visibility: inherit;" fill="rgb(0, 0, 0)" stroke="rgb(204, 204, 204)" stroke-width="1px"></line><line x1="54.947916666666664" y1="0" x2="54.947916666666664" y2="5" style="visibility: inherit;" fill="rgb(0, 0, 0)" stroke="rgb(204, 204, 204)" stroke-width="1px"></line><line x1="82.421875" y1="0" x2="82.421875" y2="5" style="visibility: inherit;" fill="rgb(0, 0, 0)" stroke="rgb(204, 204, 204)" stroke-width="1px"></line><line x1="109.89583333333333" y1="0" x2="109.89583333333333" y2="5" style="visibility: inherit;" fill="rgb(0, 0, 0)" stroke="rgb(204, 204, 204)" stroke-width="1px"></line><line x1="137.36979166666669" y1="0" x2="137.36979166666669" y2="5" style="visibility: inherit;" fill="rgb(0, 0, 0)" stroke="rgb(204, 204, 204)" stroke-width="1px"></line><line x1="164.84375" y1="0" x2="164.84375" y2="5" style="visibility: inherit;" fill="rgb(0, 0, 0)" stroke="rgb(204, 204, 204)" stroke-width="1px"></line><line x1="192.31770833333334" y1="0" x2="192.31770833333334" y2="5" style="visibility: inherit;" fill="rgb(0, 0, 0)" stroke="rgb(204, 204, 204)" stroke-width="1px"></line><line x1="219.79166666666666" y1="0" x2="219.79166666666666" y2="5" style="visibility: inherit;" fill="rgb(0, 0, 0)" stroke="rgb(204, 204, 204)" stroke-width="1px"></line><line x1="247.265625" y1="0" x2="247.265625" y2="5" style="visibility: inherit;" fill="rgb(0, 0, 0)" stroke="rgb(204, 204, 204)" stroke-width="1px"></line></g><g transform="translate(0, 8)"><text x="0" y="0" dx="0em" dy="0.95em" style="text-anchor: middle; visibility: hidden; font-family: Roboto, sans-serif; font-size: 12px; font-weight: 200;" fill="rgb(33, 33, 33)" stroke="none" stroke-width="1px">-500k</text><text x="27.473958333333332" y="0" dx="0em" dy="0.95em" style="text-anchor: middle; visibility: inherit; font-family: Roboto, sans-serif; font-size: 12px; font-weight: 200;" fill="rgb(33, 33, 33)" stroke="none" stroke-width="1px">0</text><text x="54.947916666666664" y="0" dx="0em" dy="0.95em" style="text-anchor: middle; visibility: inherit; font-family: Roboto, sans-serif; font-size: 12px; font-weight: 200;" fill="rgb(33, 33, 33)" stroke="none" stroke-width="1px">500k</text><text x="82.421875" y="0" dx="0em" dy="0.95em" style="text-anchor: middle; visibility: inherit; font-family: Roboto, sans-serif; font-size: 12px; font-weight: 200;" fill="rgb(33, 33, 33)" stroke="none" stroke-width="1px">1M</text><text x="109.89583333333333" y="0" dx="0em" dy="0.95em" style="text-anchor: middle; visibility: inherit; font-family: Roboto, sans-serif; font-size: 12px; font-weight: 200;" fill="rgb(33, 33, 33)" stroke="none" stroke-width="1px">1.5M</text><text x="137.36979166666669" y="0" dx="0em" dy="0.95em" style="text-anchor: middle; visibility: inherit; font-family: Roboto, sans-serif; font-size: 12px; font-weight: 200;" fill="rgb(33, 33, 33)" stroke="none" stroke-width="1px">2M</text><text x="164.84375" y="0" dx="0em" dy="0.95em" style="text-anchor: middle; visibility: inherit; font-family: Roboto, sans-serif; font-size: 12px; font-weight: 200;" fill="rgb(33, 33, 33)" stroke="none" stroke-width="1px">2.5M</text><text x="192.31770833333334" y="0" dx="0em" dy="0.95em" style="text-anchor: middle; visibility: inherit; font-family: Roboto, sans-serif; font-size: 12px; font-weight: 200;" fill="rgb(33, 33, 33)" stroke="none" stroke-width="1px">3M</text><text x="219.79166666666666" y="0" dx="0em" dy="0.95em" style="text-anchor: middle; visibility: inherit; font-family: Roboto, sans-serif; font-size: 12px; font-weight: 200;" fill="rgb(33, 33, 33)" stroke="none" stroke-width="1px">3.5M</text><text x="247.265625" y="0" dx="0em" dy="0.95em" style="text-anchor: middle; visibility: hidden; font-family: Roboto, sans-serif; font-size: 12px; font-weight: 200;" fill="rgb(33, 33, 33)" stroke="none" stroke-width="1px">4M</text></g><line x1="0" y1="0" x2="247.265625" y2="0" fill="rgb(0, 0, 0)" stroke="rgb(204, 204, 204)" stroke-width="1px"></line></g></g></g></g></svg>