<svg viewBox="0 0 330 200" xmlns="http://www.w3.org/2000/svg"><g><g><g><g><g><line x1="51.5625" y1="177" x2="46.5625" y2="177" style="visibility: inherit;" fill="rgb(0, 0, 0)" stroke="rgb(204, 204, 204)" stroke-width="1px"></line><line x1="51.5625" y1="151.71428571428572" x2="46.5625" y2="151.71428571428572" style="visibility: inherit;" fill="rgb(0, 0, 0)" stroke="rgb(204, 204, 204)" stroke-width="1px"></line><line x1="51.5625" y1="126.42857142857143" x2="46.5625" y2="126.42857142857143" style="visibility: inherit;" fill="rgb(0, 0, 0)" stroke="rgb(204, 204, 204)" stroke-width="1px"></line><line x1="51.5625" y1="101.14285714285714" x2="46.5625" y2="101.14285714285714" style="visibility: inherit;" fill="rgb(0, 0, 0)" stroke="rgb(204, 204, 204)" stroke-width="1px"></line><line x1="51.5625" y1="75.85714285714286" x2="46.5625" y2="75.85714285714286" style="visibility: inherit;" fill="rgb(0, 0, 0)" stroke="rgb(204, 204, 204)" stroke-width="1px"></line><line x1="51.5625" y1="50.57142857142857" x2="46.5625" y2="50.57142857142857" style="visibility: inherit;" fill="rgb(0, 0, 0)" stroke="rgb(204, 204, 204)" stroke-width="1px"></line><line x1="51.5625" y1="25.285714285714295" x2="46.5625" y2="25.285714285714295" style="visibility: inherit;" fill="rgb(0, 0, 0)" stroke="rgb(204, 204, 204)" stroke-width="1px"></line><line x1="51.5625" y1="0" x2="46.5625" y2="0" style="visibility: inherit;" fill="rgb(0, 0, 0)" stroke="rgb(204, 204, 204)" stroke-width="1px"></line></g><g transform="translate(41.5625, 0)"><text x="0" y="177" dx="0em" dy="0.3em" style="text-anchor: end; visibility: hidden; font-family: Roboto, sans-serif; font-size: 12px; font-weight: 200;" fill="rgb(33, 33, 33)" stroke="none" stroke-width="1px">-750</text><text x="0" y="151.71428571428572" dx="0em" dy="0.3em" style="text-anchor: end; visibility: inherit; font-family: Roboto, sans-serif; font-size: 12px; font-weight: 200;" fill="rgb(33, 33, 33)" stroke="none" stroke-width="1px">-700</text><text x="0" y="126.42857142857143" dx="0em" dy="0.3em" style="text-anchor: end; visibility: inherit; font-family: Roboto, sans-serif; font-size: 12px; font-weight: 200;" fill="rgb(33, 33, 33)" stroke="none" stroke-width="1px">-650</text><text x="0" y="101.14285714285714" dx="0em" dy="0.3em" style="text-anchor: end; visibility: inherit; font-family: Roboto, sans-serif; font-size: 12px; font-weight: 200;" fill="rgb(33, 33, 33)" stroke="none" stroke-width="1px">-600</text><text x="0" y="75.85714285714286" dx="0em" dy="0.3em" style="text-anchor: end; visibility: inherit; font-family: Roboto, sans-serif; font-size: 12px; font-weight: 200;" fill="rgb(33, 33, 33)" stroke="none" stroke-width="1px">-550</text><text x="0" y="50.57142857142857" dx="0em" dy="0.3em" style="text-anchor: end; visibility: inherit; font-family: Roboto, sans-serif; font-size: 12px; font-weight: 200;" fill="rgb(33, 33, 33)" stroke="none" stroke-width="1px">-500</text><text x="0" y="25.285714285714295" dx="0em" dy="0.3em" style="text-anchor: end; visibility: inherit; font-family: Roboto, sans-serif; font-size: 12px; font-weight: 200;" fill="rgb(33, 33, 33)" stroke="none" stroke-width="1px">-450</text><text x="0" y="0" dx="0em" dy="0.3em" style="text-anchor: end; visibility: hidden; font-family: Roboto, sans-serif; font-size: 12px; font-weight: 200;" fill="rgb(33, 33, 33)" stroke="none" stroke-width="1px">-400</text></g><line x1="51.5625" y1="0" x2="51.5625" y2="177" fill="rgb(0, 0, 0)" stroke="rgb(204, 204, 204)" stroke-width="1px"></line></g></g><g transform="translate(51, 0)" clip-path="url(#clip_0)"><clipPath id="clip_0"><rect width="278" height="177"></rect></clipPath><g><g><g><line x1="0" y1="0" x2="0" y2="177" fill="rgb(0, 0, 0)" stroke="rgb(66, 66, 66)" stroke-width="1px" opacity="0.25"></line><line x1="27.84375" y1="0" x2="27.84375" y2="177" fill="rgb(0, 0, 0)" stroke="rgb(66, 66, 66)" stroke-width="1px" opacity="0.25"></line><line x1="55.6875" y1="0" x2="55.6875" y2="177" fill="rgb(0, 0, 0)" stroke="rgb(66, 66, 66)" stroke-width="1px" opacity="0.25"></line><line x1="83.53125" y1="0" x2="83.53125" y2="177" fill="rgb(0, 0, 0)" stroke="rgb(66, 66, 66)" stroke-width="1px" opacity="0.25"></line><line x1="111.375" y1="0" x2="111.375" y2="177" fill="rgb(0, 0, 0)" stroke="rgb(66, 66, 66)" stroke-width="1px" opacity="0.25"></line><line x1="139.21875" y1="0" x2="139.21875" y2="177" fill="rgb(0, 0, 0)" stroke="rgb(66, 66, 66)" stroke-width="1px" opacity="0.25"></line><line x1="167.0625" y1="0" x2="167.0625" y2="177" fill="rgb(0, 0, 0)" stroke="rgb(66, 66, 66)" stroke-width="1px" opacity="0.25"></line><line x1="194.90625" y1="0" x2="194.90625" y2="177" fill="rgb(0, 0, 0)" stroke="rgb(66, 66, 66)" stroke-width="1px" opacity="0.25"></line><line x1="222.75" y1="0" x2="222.75" y2="177" fill="rgb(0, 0, 0)" stroke="rgb(66, 66, 66)" stroke-width="1px" opacity="0.25"></line><line x1="250.59375" y1="0" x2="250.59375" y2="177" fill="rgb(0, 0, 0)" stroke="rgb(66, 66, 66)" stroke-width="1px" opacity="0.25"></line><line x1="278.4375" y1="0" x2="278.4375" y2="177" fill="rgb(0, 0, 0)" stroke="rgb(66, 66, 66)" stroke-width="1px" opacity="0.25"></line></g><g><line x1="0" y1="177" x2="278.4375" y2="177" fill="rgb(0, 0, 0)" stroke="rgb(66, 66, 66)" stroke-width="1px" opacity="0.25"></line><line x1="0" y1="151.71428571428572" x2="278.4375" y2="151.71428571428572" fill="rgb(0, 0, 0)" stroke="rgb(66, 66, 66)" stroke-width="1px" opacity="0.25"></line><line x1="0" y1="126.42857142857143" x2="278.4375" y2="126.42857142857143" fill="rgb(0, 0, 0)" stroke="rgb(66, 66, 66)" stroke-width="1px" opacity="0.25"></line><line x1="0" y1="101.14285714285714" x2="278.4375" y2="101.14285714285714" fill="rgb(0, 0, 0)" stroke="rgb(66, 66, 66)" stroke-width="1px" opacity="0.25"></line><line x1="0" y1="75.85714285714286" x2="278.4375" y2="75.85714285714286" fill="rgb(0, 0, 0)" stroke="rgb(66, 66, 66)" stroke-width="1px" opacity="0.25"></line><line x1="0" y1="50.57142857142857" x2="278.4375" y2="50.57142857142857" fill="rgb(0, 0, 0)" stroke="rgb(66, 66, 66)" stroke-width="1px" opacity="0.25"></line><line x1="0" y1="25.285714285714295" x2="278.4375" y2="25.285714285714295" fill="rgb(0, 0, 0)" stroke="rgb(66, 66, 66)" stroke-width="1px" opacity="0.25"></line><line x1="0" y1="0" x2="278.4375" y2="0" fill="rgb(0, 0, 0)" stroke="rgb(66, 66, 66)" stroke-width="1px" opacity="0.25"></line></g></g></g><g><g><line x1="0" y1="-202.28571428571428" x2="278.4375" y2="-202.28571428571428" fill="rgb(0, 0, 0)" stroke="rgb(153, 153, 153)" stroke-width="1.5px"></line></g></g><g><g><line x1="27.84375" y1="0" x2="27.84375" y2="177" fill="rgb(0, 0, 0)" stroke="rgb(153, 153, 153)" stroke-width="1.5px"></line></g></g><g><g><g><g><g><path stroke="rgb(0, 119, 187)" stroke-width="2px" d="M30.4628445,-6.169560517929327L30.5523343125,0.6526342439974554L30.930174,1.3218415763673879L30.984525,5.060381686475664L31.070395125,8.311905837368117L31.5785435625,9.291677022661196L31.8902265,7.66668690689947L31.937895,6.627926877391127L31.993471125,6.9500229869766645L32.07087675,5.571412099294751L32.3675240625,5.928788558466375L32.764408875,2.8119982163117005L33.1252081875,1.5401799906022724L33.58557675,1.1250488075153746L33.7900055625,-1.6901065970329836L37.7704366875,-0.227408031011612L37.8142070625,0.6767952693998651L38.0340613125,1.778336228646296L38.148499125,1.6653648404595913L38.2111475625,2.1706898076839387L38.4557270625,1.9718731707030406L38.515591125,2.3894035983985638L38.864306250000006,3.100574241382044L39.32311556249999,4.664925047435456L39.38286825,3.9090190642035587L39.45904875,5.993908798552012L39.6740581875,7.386859713473497L40.2720305625,8.45964963651171L40.65655275,9.063952902761036L40.88865825,10.304061158329509L41.02275375,10.430603779788449L41.8426408125,10.015907774275579L42.190297875,10.11011508622923L42.4774783125,11.295038514445391L42.6356308125,12.153327136901636L42.821515687499996,12.299774981434261L43.0464931875,12.49889518741149L43.1459510625,14.214557332166486L44.149105687500004,14.995882259989699L44.3579338125,16.351734320849033L44.4110596875,15.537488092868058L44.7139996875,15.753378372426841L44.909073,15.847497800752453L44.9638695,17.180700034879646L45.0923405625,19.26107826190209L45.611515125,20.757683664586008L45.688530937500005,23.303106102100138L45.9885751875,23.769297978272782L46.04086575,25.03045471619293L46.095940687500004,26.370702557498202L46.2871715625,28.8208163671396L46.772766562499996,31.26674416279328L47.2542406875,33.885896658952404L48.16500975,35.58425594719485L48.4034079375,36.397054718863L48.7230541875,35.814948484816796L49.0096220625,37.56796324609255L49.0870276875,37.89767796995813L49.746256312499995,38.67940931724473L49.794982875,38.31209994961961L50.7829348125,39.01399833402662L51.5230216875,40.61955004743879L51.569075250000004,41.40660494593696L51.637793625,42.334841656280844L51.986731500000005,42.31915003384123L52.5173776875,43.36544406322311L52.607814187500004,44.28406865754681L52.69529925,45.291401961745485L52.841367562500004,45.6575090871478L53.1302743125,45.83734382588796L53.6287888125,47.15192494162351L53.801642812500006,47.58266657190755L53.861284125000005,47.8125449839516L54.340252312500006,49.07305956989965L54.3887004375,49.8750214704485L55.25157825,50.542492749453466L55.412682187499996,52.6953093199681L55.532410312500005,53.4035594572984L56.313984375000004,53.96011786680991L56.6192075625,54.57561620607315L56.72974725,54.6448154343835L56.869856999999996,54.556865099428286L57.394767375,53.81662446881151L57.7478818125,55.122824296808524L57.867944062499994,53.787880518593376L58.072595625,54.19572564251187L58.447261125000004,54.66422389643081L58.642390125,55.3891150129902L59.226552,55.35775776968659L59.354856,55.745531089323805L59.5634056875,56.75386141574558L59.865733125,57.521933637547214L60.06208725,58.864218586159204L60.138824625000005,60.569457154509124L60.447723187499996,61.37611581874931L60.545120625,61.127910750044634L60.5832665625,60.99202955929548L60.684784875,60.853248615140764L60.7871385,61.496974499048996L60.85162462500001,62.502377742038654L61.2219465,63.13056956159353L61.292892375,64.06150021203867L61.744852125,64.07652773573629L62.056702125,63.66946353399857L62.1676873125,64.375440665734L62.440166250000004,64.10480185615329L62.7638776875,63.598962341277776L62.903820375,64.262965584368L63.522062999999996,64.68173355389919L63.844437937500004,64.10448424641842L63.881303062499995,65.33082338478211L63.9963534375,64.82547106690589L64.0324389375,64.67810174710336L64.074817125,65.19781120249222L64.1295579375,66.2307879329249L64.2267883125,66.22140768140379L64.3717985625,66.86826256720579L64.644611625,66.44746462558311L64.89932625,66.11516934702684L65.046564,66.10199105513618L65.269648125,66.188499309538L65.429694,67.18472966211303L65.4873305625,66.36299505729883L65.598984,66.42429894694196L65.68407450000001,66.1214669693488L65.82997575,65.531890453905L65.864836125,64.61129816014773L66.0012705,64.13560531917548L66.054396375,63.828548750948336L66.3607333125,64.15080751728057L66.4020534375,63.52346598726862L66.76686225,63.795030528814614L66.909756375,65.60638974377706L67.085172,65.25000671647618L67.244772375,65.31484396295873L67.39278975,65.03198050994988L67.511961,64.86043286910433L67.7231836875,66.44446543134127L67.9473815625,65.98829609388633L68.1464086875,65.72580010551619L68.2118971875,65.82568013393814L68.27309775,66.51314735016076L68.688415125,65.71116959849259L69.0577903125,65.25913942574337L69.1858715625,64.38951323156678L69.2266348125,64.69718647993383L69.452224875,63.937116805807776L69.681546,63.97007495910354L69.8488869375,64.04903891503041L69.910644375,64.0399873860354L69.9732928125,63.557962869968485L70.114683375,64.47470219752097L70.262478,63.9203795316256L70.79696662500001,64.21468871548188L70.88795999999999,64.93348162833676L71.06861024999999,64.056326866873L71.12340675,65.65745482745962L71.1706854375,68.05073205474129L71.255608875,68.51346945410344L71.289466875,68.63106893235104L71.628269625,68.42705838028797L71.873406,67.90895775153142L71.94947512499999,68.52559715965617L72.07042837499999,67.99944473168533L72.23448375,68.03207371341809L72.380273625,68.4787350077688L72.44292206249999,68.09095063817334L72.498108375,69.04369489829011L72.5322448125,68.08396936251248L72.7098879375,68.37032430207827L72.92879549999999,69.29939252797557L73.250112375,70.4048808201825L73.3181625,70.71787511394352L73.41979218750001,70.57872618080106L73.7146575,70.36239788362512L73.97432831249999,70.17680106310938L74.18176425,71.28626851326263L74.3340695625,72.90841690776816L74.518785,72.72741068916353L74.7721074375,73.4213749483394L74.8733473125,73.79463037187611L75.1384755,75.48844616644921L75.26243587500001,76.41611001079174L76.3917226875,75.95874954746338L76.50727425000001,75.20904645628275L76.5524925,74.08570411020905L76.7725138125,72.95473081594844L76.8866731875,72.9428679973038L77.1206720625,73.01371373317228L77.2387295625,73.28302878797271L77.3636923125,75.26188216820242L77.693083875,75.94567936134627L78.003486,76.12329589558415L78.2620430625,76.8114644540709L78.633311625,76.88674879750332L78.7222445625,76.17735934008446L78.7891809375,76.99419518817479L78.84392175,76.60373877951943L79.11222412500001,77.3672486468383L79.254784125,77.34194873275312L79.474527,76.92587918830708L79.52820975,78.76502838641723L79.6240479375,78.87729669186979L80.11315125,79.67118013980098L80.1747973125,81.31494009645083L80.357842125,82.6876888058701L80.79565725,81.81783999203044L81.0018680625,82.17405097935925L81.545767875,82.76245186169905L81.6825920625,82.99396895447856L81.7421776875,82.72005296311649L81.81362475,82.58506158140442L82.016661375,82.0538542117897L82.10203031249999,81.88670359782587L82.33686449999999,80.95281543297203L82.5634569375,82.19115447511997L82.5896300625,83.23845214641213L82.7992935,83.57665358630197L82.8462380625,83.69910909844097L82.8812098125,84.28280344258037L82.95187725,84.79326175597008L83.23521525,85.834689978814L83.290345875,86.6846118237478L83.4271700625,88.10899131331742L83.49226875000001,88.84051346153812L84.0011968125,88.77974998828664L84.23135325,87.74650019085607L84.2757361875,87.7840780536616L84.37402462499999,88.1944013253845L84.449536875,88.25763228844782L84.90673124999999,88.0589747106639L84.956961375,88.31358905191284L84.97745437500001,87.85170447277336L85.0822025625,88.42776170507173L85.626102375,88.37032295708406L85.7429904375,87.790777242656L85.98745856250001,88.74260021054488L86.0211495,89.0062815301951L86.20959599999999,88.08875412330102L86.347701,87.65524399054746L86.719582125,87.47548611977332L87.33788043749999,88.69127766552184L87.487846875,90.2175867047292L87.8381769375,89.82225476048495L87.9072294375,89.03428522913356L88.0258438125,90.3528946111001L88.12725075,89.50145226104253L88.3457685,89.52387238032645L88.55888456250001,90.3448375702945L88.6549455,90.17913826307884L88.96122675,90.80490729766507L89.0398018125,90.61004048502403L89.067924,91.2821688202834L89.53547625,91.84591844596827L89.82655481249999,92.8503901173564L90.0822718125,93.44460199327314L90.14469749999999,94.24337589424485L90.19826887500001,95.97269442877376L90.72273375,96.60472124877377L90.8327165625,96.89290715958612L90.9907576875,95.08057734320015L91.3552880625,96.61322225954508L91.4105300625,96.83083002543422L91.7948851875,97.05551081390222L91.88108943750001,97.32361725241005L93.0731360625,97.66287984458422L93.14892675,99.74440758000557L93.2052268125,98.85169624739699L93.4439034375,100.07835695613302L93.50605068750001,100.11260534392831L93.5425816875,101.41666401930547L94.68545624999999,101.87242630136323L94.86543825000001,103.40106050579375L94.9759779375,103.27551979505745L95.3699113125,103.29693572245819L95.419528875,102.9616510279027L95.8276625625,103.285096789004L95.9520684375,102.9527406319749L96.1771573125,102.16266972879039L96.2922076875,104.78819189418752L96.3767413125,105.02071338856311L96.632848125,107.10736579855367L97.2083784375,108.57138234368033L97.665071625,108.04146655316121L97.728444,107.78361773647397L97.7808459375,108.55928979196369L97.894281375,108.33615281398644L98.08089018749999,108.2690377483043L98.3323749375,109.874442896797L98.502388875,108.56301386137919L98.806219875,109.31443007313842L98.8853518125,108.05812859091165L99.011818125,108.10601285026122L99.0490730625,109.89577132246573L99.203828625,108.83349707718229L99.316762875,110.1488738803041L99.469569375,110.59995693757412L99.9268194375,109.89265035713098L100.3000370625,110.08185874271405L100.6997619375,110.13534789273562L100.92574181250001,111.36497173340925L100.99685475000001,111.06915260704979L101.050871625,110.3612829137655L101.13779981249999,110.70239443719255L101.391901875,109.62443893981155L101.5659253125,110.8908204140023L101.924274375,109.71563656824983L102.038211,109.11851668310528L102.20126400000001,108.71855150794552L102.26307712500001,108.513544334463L102.4428920625,109.27475238327871L102.71147287500001,108.67747917638744L102.83543325,109.30838936668549L103.020984,110.67502517991676L103.148397,110.9781563592008L103.227807375,110.03233192219093L103.3314975,109.67912379830834L103.3690865625,109.37056407581926L103.697809875,109.17195899757662L104.40197831249999,110.74343322035831L105.04928981249999,109.24456788667398L105.26151487499999,110.71190773536206L105.64798612499999,110.48110982046335L105.9032019375,110.53178267167249L105.986120625,110.00654391369983L106.1292931875,110.26531440500135L106.1956726875,109.06199742987083L106.34820075,108.93469958445567L106.41012525,107.98423962394783L106.60096631249999,108.52172568342048L107.661423375,109.56110426594884L107.7245173125,109.66819941851136L107.782153875,112.10155154517484L108.073065375,113.18466733128564L108.2052675,114.10017959783794L108.4298551875,114.47479837721603L108.4767440625,114.68260181284609L108.5591615625,114.41035268360754L108.7474966875,115.47260599413404L108.79555500000001,116.23260888841546L108.94067662500001,115.76953668517643L109.16376075,116.9489146923424L109.289280375,116.99113284615144L109.972454625,117.25998444373565L110.0304253125,117.41289248400955L110.49948112499999,116.49631407713983L110.5724874375,115.2154788866307L111.18154162500001,116.16569155488145L111.5678458125,117.11538760799958L111.6262063125,117.0401911729421L111.774724875,117.66765670631155L111.8848190625,119.29178363547435L111.93722100000001,119.40736391396426L112.372585875,120.1392193715968L112.4144071875,119.65867627393355L112.47984,119.1541137700534L112.70381512499999,119.52938066940014L112.793360625,118.9844633221205L112.93358175,119.19531179453584L113.41182599999999,120.65257280320624L113.7202790625,120.72690561520358L113.74700906250001,120.12346705360146L113.91769125,121.38877156595396L114.249031875,121.34276855185398L114.9617761875,120.08928994617743L115.275798,120.66882171832239L115.329814875,122.47203372119273L115.492645125,121.628341971669L115.559470125,122.04037161635529L115.8842953125,121.65119440444565L116.269374375,122.10906464282753L116.357472,123.46642206446168L116.89808624999999,123.31024904971825L117.1397143125,124.05862933343383L117.255488625,123.51554016857867L117.4358604375,123.51937628445744L117.9305325,124.73570548903703L118.293503625,124.93987564173338L118.339835625,123.97372859052233L118.570827375,123.36982591276792L119.06906343749999,123.56883739007918L119.150645625,122.96294778350122L119.5239189375,124.18581143413273L119.59018706250001,122.37128881384243L119.8126029375,122.93263473914539L120.12244818750001,121.18937957896186L120.26322618750001,122.2876598510038L120.4222696875,123.88667597723601L120.5672799375,124.44765440846768L120.76374543749999,124.00197707976851L120.9655569375,123.50555383233082L121.436172,123.74254438164868L121.9320691875,123.65927963287312L122.082481125,122.810416097199L122.2312224375,122.37636121706025L122.391658125,122.51939349807392L122.45013,122.08360003146426L122.87942493749999,121.21340238162831L122.95348931250001,122.47872009964169L123.44209143750001,124.35825900123821L123.6039193125,123.98994387295406L123.6287559375,123.93585217070708L123.707887875,125.44153816550303L123.7753254375,127.82921959365945L123.8726671875,128.9936343990724L124.01656368750001,128.9298209303557L124.4058193125,128.71463179853822L124.429597875,129.46381184734125L124.8263713125,128.53753747091113L124.87699125,127.69896858928375L124.944150375,128.0036132995369L125.4939530625,128.00823739181558L125.70757031250001,128.45728166419704L125.85046443750001,128.7290573689863L125.90108437500001,128.68785149236817L126.0314488125,128.27891468462857L126.3530998125,129.0501969691498L126.40377543749999,129.57542381511118L126.4947688125,129.66611084144506L126.5486743125,128.32304654499617L126.5934470625,127.46862936864915L126.83763675,126.07930016880191L127.5636346875,125.35638801671875L128.1242964375,123.90494776610505L128.428405875,123.95475325168921L128.8051318125,124.21788752865513L128.8799758125,123.20079831918312L129.441472875,123.10276147241109L129.7793289375,122.94689987059571L130.2260540625,121.69011204074214L130.277565,121.29497240546984L130.4843326875,120.0228157825175L130.9071121875,120.85608070285552L131.0356389375,120.97012585856882L131.2307679375,121.02273493080851L131.71435818749998,119.56351106085063L131.7796239375,118.88357542824752L131.93994825000001,117.79618911980373L132.2037399375,116.80020557405574L132.38516981249998,116.15571045819672L133.13483493750002,116.75649075737239L133.2775063125,116.12317583687135L133.3534640625,116.09126393223342L133.7418286875,117.04281703379192L133.783984125,117.48920192151726L133.86072149999998,117.74361684288957L133.9659151875,117.7307701159093L134.05729837500002,117.69166415754555L134.664514875,118.98445502546323L135.198558,119.59257390541678L135.412732125,118.92555033010426L135.62824275,119.24475921148725L135.67039818749998,119.43534855630296L135.9821925,120.39295642496815L136.3055698125,119.41691039289866L136.3723948125,120.21084689928993L136.713814875,120.68667055600972L136.8740835,120.55233497044978L136.9634619375,121.49636498533839L137.076786,120.73115627672428L137.4407595,120.10129347892064L137.614170375,119.82170222851907L137.72955487500002,119.47640597032431L137.9075878125,120.08803111510687L138.0858435,120.31983150724818L138.2642105625,121.27652689130151L138.3801519375,121.92453906515995L138.7964716875,123.5924400764869L138.93195937500002,124.25325661026781L139.5474733125,122.78796194380084L139.608451125,123.01896496966003L139.6904788125,123.20265609059852L140.494773375,125.49713459677658L140.72648906249998,123.60726736015464L140.95597725,124.69327810278675L141.1931503125,126.18336595895957L141.247557,127.91027823615035L141.40080899999998,129.60366339836463L141.55166643750002,130.8328358541525L141.66833175,131.01224464215193L142.1314846875,133.77910483089028L142.26307425,134.48160495521213L142.4191663125,133.22593544788805L142.5623945625,132.8244657280166L142.6875800625,133.0246347494433L142.8204504375,133.65140447681787L143.0091196875,133.1366456281839L143.1643764375,134.04846008401364L143.2115994375,135.04338878182597L144.02279925,133.97288569840848L144.36661387499998,134.37884652474793L144.7182804375,134.94377335657614L144.79039575,136.675635975723L144.8162904375,137.02541849927326L144.9457081875,134.6002124633926L144.99638381250003,134.77837195392328L145.130423625,136.19688035818413L145.266858,135.94607099080443L145.4569194375,134.8573338213536L145.6620165,137.44839285922615L145.9337715,137.28647830834035L146.09086593749998,136.9582723215638L146.4452611875,135.79760724063954L146.5245045,136.10710786005347L146.6116554375,135.5816210409198L146.82716606250003,134.60862397324715L146.970784125,134.21236914874711L147.23218125,135.34635340476018L147.37301493750002,138.9652694294215L147.4726955625,138.1388249276758L147.57839043750002,136.36701037283538L147.618095625,136.5849531019618L148.14456525,136.26002949122713L148.1769196875,136.65067861655461L148.412422125,136.94131899341411L148.59585675,136.74172287493738L148.8025130625,137.86578615397346L148.842329625,138.81866602700944L148.9628930625,138.16497527065005L149.0180236875,136.91587123019121L149.1592471875,137.785804109112L149.45077125,137.268924426117L149.5176519375,137.8445510895075L149.8873055625,139.19823510381093L149.9437726875,137.70280943260374L150.155886375,138.371489046772L150.274612125,137.1732780936654L150.39255825,137.64265926780493L150.6077904375,138.71499779227793L151.1096461875,139.04463429008047L151.2342748125,139.9445598282973L151.36358118750002,138.0760815404251L151.39571287500002,138.64478014895099L151.642854,137.74295250101758L151.7588510625,137.06757919411658L151.84087875,137.58622986261966L152.2589805,139.7508717124721L152.496097875,140.72936986617646L152.66327175,141.15060518669304L153.22371074999998,141.30755498630091L153.42129000000003,142.10506826307432L153.58250531250002,143.1473507298734L153.7388758125,143.23573858191216L153.845294625,142.90423053116464L153.91334475,141.50629950474558L154.00600875,141.223234520789L154.1154346875,141.6802900886251L154.165386375,140.99749675816133L154.26439875,139.52323921238462L154.36196324999997,139.51899409572465L154.42839843750002,140.95632565837727L154.67782275000002,140.6172396523836L154.7431441875,139.7401078158999L154.86509981249998,138.64806143563766L155.0255911875,138.6153093648323L155.3085950625,138.59552593481615L155.982580875,138.64069447101346L156.204662625,137.26985473734817L156.3751220625,137.47423769802546L156.7262874375,136.90864635755776L156.90877537499998,135.70446245276568L157.2067035,136.15677500953592L157.2939658125,137.00963879986557L157.40767968749998,137.38881390332935L157.537598625,138.46479622539232L157.660779375,137.828121442722L157.72582237499998,137.92113462979347L157.79721375,138.38069588798015L158.27657175,138.19657529559007L158.3479074375,137.67235859135744L158.39980818749999,137.88514921368684L158.4950338125,137.45910679729653L159.15754800000002,138.3944800358358L159.19975912499999,138.3063158659357L159.237849375,139.17648137844247L159.3015001875,139.51972835444224L159.7265071875,140.2051868132547L160.219063125,139.6376839510378L160.45712718750002,139.2411001249284L160.897336875,139.09204810068533L160.9716796875,137.95045763238377L161.1287184375,138.62626391336224L161.7769209375,138.19928556528058L161.9845239375,137.6517033322174L162.1878946875,136.69065310387379L162.25845075,135.3971689716293L162.2869070625,135.97509308966335L162.41716012499998,134.46586169829393L162.8598200625,134.80355494150425L162.994973625,132.93220907745075L163.09743862500002,133.7207746315302L163.22746893750002,134.23837569661944L163.7774386875,134.79791471033758L164.218762125,134.65287093840885L164.2461046875,135.2883724894934L164.5908103125,134.28000503863757L164.8572193125,133.69181786218005L165.24101756250002,134.14965107621387L165.5603296875,133.6850761849311L165.610058625,136.70072424859188L165.677997375,137.22795772435984L165.7232713125,136.76716368510048L165.86210025,136.20330641637287L166.15757812500001,135.9271616556825L167.1741534375,135.58679399909812L167.30836031249999,137.20197654209804L167.53066481250002,136.7883350688576L167.598325125,137.50602412421767L168.1939029375,137.04048326782546L168.3141879375,137.03423289070645L168.50269012500002,137.98556550537873L168.57480543749998,136.5013470271243L168.6193554375,136.28322970541373L169.2065244375,135.0722985493841L169.2880509375,134.65912123526584L169.40644256250002,134.53855539741434L169.44236099999998,133.77702519311282L169.546942125,131.92215462018987L169.72931868749998,132.09251113129807L169.824265875,131.43391913534978L169.98932362500003,130.3573024458117L170.0736345,130.36038907087038L170.19458775,131.06399677971527L170.29265343749998,131.76487389734228L170.8328221875,131.81847927125304L171.10340775,131.07704355406315L171.31474181250002,132.4984868475514L171.44571881250002,133.47085167230554L171.613171125,133.17047892337217L171.76564349999998,133.3266139389084L172.1067294375,131.20874401379615L172.1374689375,131.73573788697624L172.385890875,131.53066617643046L172.536247125,131.8379031312808L172.7068179375,130.9225088466476L172.82409581250002,131.23157451410873L173.03860406249999,131.55801017526153L173.22265125,130.91269938817814L173.35362824999999,129.25813087733502L173.38887843749998,130.00221621579243L173.4469605,130.74138194657652L173.5101658125,131.58702686466344L173.66703750000002,130.88657785646095L173.8740279375,129.13719606359604L174.2378900625,129.01347398188668L174.32437275,128.57197867983479L174.4716661875,129.24485192253107L174.92301337499998,127.2907138883465L175.2184355625,127.32538225189508L175.38187837499999,127.79864266287738L175.527891,127.98132483114256L175.5939920625,129.38788790564288L175.7038635,131.22807464352198L175.9035031875,130.4652867822304L175.9658731875,131.49100422848448L176.115171375,130.6004723886422L176.49301106250002,129.59236169820005L176.63562675,130.56948131034648L176.8059748125,129.99699366014724L176.8300875,130.95715813729615L177.00399956249998,132.500046655515L177.31718606249999,133.83375067388326L178.074925875,132.78547837107638L178.30012612500002,134.14678409468218L178.3919548125,133.9943295596607L178.65168131250002,133.48251999434507L178.91558437499998,134.70873207707757L179.4573680625,135.0994993132069L179.637739875,135.17684812161184L179.86126950000002,135.85922381158306L180.061299,136.6692944726362L180.966889125,137.21224239897649L181.58769337500001,135.88398529437367L181.648504125,135.73240984382912L181.703968875,134.41733611328664L181.8601723125,136.22296834849845L182.17898325000002,137.46590484841443L182.49573375,137.03780298280734L182.53176356249998,136.84378771159663L182.61668699999998,136.6254368793092L182.6700913125,136.27322651518472L182.726614125,136.9709841696152L182.7963905625,136.38263858313502L182.847344625,135.38675387251902L183.2569261875,137.0947790764935L184.68269325,135.40857192198524L184.74183337500003,136.90382016217225L184.79150662499998,138.70136778408596L185.1498556875,139.24073740060152L185.80607718750002,139.3080874324269L185.907261375,138.99913191334463L186.16721062500002,138.98947730219183L186.58703868749998,138.26150682889306L186.64489799999998,137.82298648012423L186.7651273125,137.583129784815L186.870877875,137.32737200337274L186.91158543749998,137.21816607061484L187.05197362500002,135.86124814968733L187.985518875,136.76069760046187L188.342253,135.1528670312647L188.467884,136.2334000189872L188.6126715,135.61652012685482L189.0855140625,135.98086070289204L189.1477726875,136.4204861422173L189.44798400000002,136.09422348410195L189.56982825,136.33244645296324L189.64250043750002,135.18793272057735L189.89131218749998,135.73043427790776L190.0642775625,135.92785339478806L190.13338575,136.15225906489243L190.37924606250002,136.0250920083414L190.481878125,136.70150094726586L190.6155838125,137.41797885226023L190.81694981249998,137.5247116583916L190.867235625,137.48098041768745L191.30193225,137.24314118335442L191.6266460625,137.4835937258887L191.7283314375,136.97051358793408L191.78301656250002,138.33386932594806L191.8573036875,139.14996676192467L192.541870125,138.48124039648468L193.02518193749998,137.9917352091102L193.525088625,139.07495678954476L194.3787223125,139.30831209948155L194.7064989375,140.25007764685125L194.7895846875,138.88461887820844L194.845105125,138.34513404548665L195.0215788125,137.78573901139026L195.5809040625,137.55018004456795L195.86401931249998,138.45717234151644L196.14579806249998,138.56235331009907L196.406137125,138.80894441098636L196.5167325,137.69162866016364L196.64392275,136.53746235341106L196.76598975,136.81414489108369L196.8856621875,136.02037176343796L197.0565114375,138.03325189178392L197.1206634375,139.3043059458415L197.2790386875,138.53730074899582L197.3673590625,138.06852659289368L197.4239375625,137.69286730077687L197.69780868750001,138.21829171091937L197.83006650000002,138.2187588828371L197.97992156249998,136.72579606250946L198.0331588125,136.60852120427796L198.1381854375,136.3127299445663L198.43455431249998,136.12341828515886L198.52577043749997,137.07075422427698L198.587862,136.60301685834773L198.65847375,137.9327993650397L199.0123678125,137.7003279235734L199.11900937500002,138.17287564046677L199.2938124375,137.2053453227989L199.779463125,138.04636213171474L199.940734125,139.12699280791358L200.05945987500002,140.14969507355863L200.179744875,140.65437780906873L200.2817086875,139.4001699921365L200.4269416875,140.4841368343266L200.9349230625,140.34310607903603L201.1405213125,139.9963604779302L201.2096295,139.30519544301245L201.3916719375,140.92596664184393L201.85760925,140.16493077836222L202.0917751875,140.5895483577477L202.3644211875,140.95779371818062L202.630329,141.16875446998083L203.04798525,140.98035457084006L203.175621,141.50319522329693L203.5191015,141.35480409529333L203.8703225625,141.54892071077143L204.054035625,139.9307659524371L204.11673975000002,139.04291299242684L204.3908893125,139.43148768843884L204.4555981875,138.68664082564075L204.51178687499998,137.50342134190618L204.6450470625,137.1515540380642L204.8331594375,137.86375278182223L205.0806346875,139.04059253007767L205.227037125,140.69648892024514L205.3101785625,140.388639850907L205.429294125,141.08390953595648L205.6628475,141.65795600251806L206.24578424999999,142.21285636784975L206.5389789375,143.16959723388808L206.6941243125,141.6538134171155L206.7435748125,140.10591003002088L207.07352325,141.10784278256563L207.1047639375,140.26661710374705L207.1558850625,140.95531574597882L207.2116839375,141.87835128924632L207.42546825,143.0785492730541L207.612466875,142.1884414243567L208.8994606875,141.53988357607417L209.06089874999998,142.68521753098983L209.1973888125,143.48131226269928L209.5178146875,142.93629544281208L209.69428837499999,142.8265100808975L209.762004375,142.33612224251945L209.869592625,142.37846671284322L209.9061793125,142.9670871481274L210.2798424375,143.48901316007093L210.4386075,143.22813731373031L210.527596125,142.79392188917106L211.01424918749998,140.86247487046583L211.349766375,140.88792903395984L211.422828375,140.69687479766364L211.6670180625,140.90941773293395L211.784797125,141.01379122407744L211.90769943749999,140.4550097177703L212.051428875,140.02796156342473L212.32101206250002,140.3510280674243L212.51703206250002,140.02981410127407L212.7675144375,141.3687785964057L213.18990412500003,142.0158562158321L213.23423137499998,142.07202710656114L213.306179625,141.93790261018958L213.64693143749997,141.89213200883748L214.10217675,143.50007376567794L214.29936618750003,143.8472120277289L214.4161985625,144.01867369196745L214.4732225625,144.09912133758672L214.516157625,143.39325901198808L214.7641340625,142.9987692442849L214.9832086875,142.5001820568335L215.39791350000002,143.12078419492371L215.7864451875,142.8865580257746L215.98920337500002,142.30599041326937L216.226654875,143.9805462654435L216.3139171875,144.93007805164117L216.668145375,145.78573032058534L216.8758040625,143.94379752072513L216.9959776875,143.50097073411408L217.122109875,144.8655456104943L217.2459031875,144.38068262789088L217.4210960625,146.04166293567044L217.5519616875,146.2169624444394L217.72347918749998,147.11752502778384L217.9443915,146.90655145147838L218.075814,148.19195858523818L218.332756125,147.1213135978708L218.6055135,147.7092433664984L218.66398537499998,147.65093115283312L218.8771014375,146.6089919734699L219.289244625,147.24159316476576L219.7673218125,146.50658839666417L219.91372425,145.4689089576485L220.06786725,145.23529404129502L220.11330825,145.03839556760641L220.268453625,144.91727254215579L220.5702241875,145.46811476919137L220.839807375,144.66319106895727L220.9055743125,144.72845724444358L221.1263195625,145.64116450917453L221.234965875,145.71494651111533L221.6208245625,146.05138360764383L221.6659314375,144.57273761887717L221.7950150625,144.81721457721898L222.00339768749998,145.79763869943224L222.4034566875,146.01166904822176L222.743763,146.36679396111478L222.8763549375,147.4115715377522L223.23091725,145.37781427608502L223.68399075000002,145.2313972038126L223.797704625,145.53405401947296L223.8615225,145.48294789355512L223.9042348125,145.1430403321642L224.2205955,144.9748565336782L224.27739675,147.64009378337548L224.4752544375,148.23603907153648L224.5962076875,148.36839912270295L224.66097225000001,147.9681152836855L224.7800878125,148.2622615040157L225.08726006249998,147.04966424563972L225.59808149999998,147.32957758748717L225.94846725,146.00453089805424L226.0807250625,146.4072876207994L226.1753938125,146.07177925782588L226.4200846875,144.40443835924822L226.4668065,144.9566289343104L226.63453725,145.40052842718757L226.7519265,147.20746999724838L227.128485375,147.2953150817191L227.16189787500002,145.84404975487922L227.35312875,146.3664725810304L227.555051625,145.81755630061164L228.248026875,145.34284681182268L228.532924125,145.71644574320422L228.6178475625,145.68703699538548L228.76848225,145.52439175833942L229.3028595,146.38188146869257L229.351419,145.82368643439017L229.683205125,145.8170642203018L229.7438488125,145.29017199038327L229.846926375,145.66576109942991L230.6359625625,147.2550394332698L230.778466875,146.78470493335573L230.8728015,146.6767611034011L230.96023087499998,147.73274280269536L231.14745225,148.07256741967555L231.2866153125,148.9279394933765L231.7816771875,149.92952219400064L232.0415150625,148.672356273684L232.1367406875,147.99937976510583L232.7250234375,147.71739953766246L232.75910418750001,148.66853081635972L233.12953743749998,148.88525052449543L233.5677980625,148.37220601584877L234.94417031249998,150.8663627438649L235.0112180625,150.17743627798862L235.130556375,149.97882898173705L235.27851806249998,149.60117590632484L235.41907331250002,148.09766360235903L236.7609193125,147.89003860095204L236.92096518749997,146.75877136851884L237.1356961875,146.02087957046118L237.1833646875,146.3985085219744L237.2355995625,146.70838533325013L237.3759320625,147.22588726148163L237.593503125,146.90511174955154L237.77537850000002,147.42175792163033L237.91699181250002,145.99589643110124L238.01394375,145.6405551181957L238.31727356250002,144.96770748575133L238.48277681250002,145.95452151331924L238.51290375000002,147.27647690389213L238.67818425000002,147.93803381344085L238.97833987500002,148.39796099762927L239.486655375,148.45129407916522L239.76520425,149.4766936173247L239.861543625,150.88258014530334L239.9807705625,150.23350922606832L240.024373875,151.3967413052225L240.35259599999998,152.16202727811705L240.6310335,149.9258360966191L240.7460281875,149.4013824265538L240.9045705,149.17902253374174L241.0576554375,150.32036263194303L241.564244625,150.76119732714554L241.6991754375,149.70574548429548L241.75541981249998,150.1529204467576L242.00790693750002,151.05093633325066L242.2951430625,152.02188526156579L242.427846375,152.7401505914702L242.92246275,151.61169270963669L243.04603331250001,153.23716068645953L243.1784581875,151.27751519398927L243.8607414375,151.85508692661682L244.0597685625,151.13966720988972L244.191915,149.64105703577917L244.75118456250001,148.76200023414367L245.05239824999998,148.35377172599394L245.430739125,147.8126430239018L245.59902675,148.9455992167357L245.67932812499998,148.56771203456796L246.04096275,149.23771690961135L246.356710875,150.9570239177859L246.719125125,153.426226345641L246.78054843750002,155.4339682248573L246.82754868749998,156.08275065729467L246.96448425,156.25651834555154L247.122302625,155.44596015462722L247.2082284375,155.32310464305934L247.6046120625,153.8891194722903L247.84278750000001,154.08389586823495L247.91184,153.68605328255202L248.24128725,154.42348309261533L248.29903518749998,154.1754521003032L248.3527179375,155.78998719966864L248.7121250625,155.5742877141272L248.775107625,155.36121059648724L249.033720375,154.43420593126942L249.67602,155.5459327510564L250.049460375,157.10961634683227L250.260181875,156.74848696120105L250.37968725,157.16272612632457L250.5125019375,157.90940450855467L250.56501525000002,157.42014067786747" style="fill: none;" fill="none"></path></g></g></g></g><g opacity="0.2"><g><g><g><path stroke="rgb(0, 119, 187)" stroke-width="2px" d="M28.902592125,-33.30781703404019L29.1947844375,0.7613185337611652L30.16369125,51.698852887834825L30.2944455,52.10914385114398L30.4142293125,53.646751098632805L30.4628445,24.245225045340394L30.5523343125,44.2806502859933L30.930174,6.023197893415184L30.984525,33.563004586356016L31.070395125,34.9509872000558L31.5785435625,17.848173915318075L31.8902265,-7.358784877232148L31.937895,-3.4835454450334655L31.993471125,10.234587315150671L32.07087675,-9.093689836774553L32.3675240625,9.87984034946987L32.764408875,-32.88437700544087L34.99112925,-0.7554384940011354L35.143657312500004,0.07034441266740499L35.177236875,-1.3504336983816803L36.360651937499995,-1.4667226736885977L36.629789625,14.224556971958698L36.7822063125,0.8325580705915193L37.253155500000005,23.325299769810258L37.2834495,-1.4083852713448712L37.443718125,-17.610564749581453L37.7704366875,36.35960396902902L37.8142070625,15.410318690708701L38.0340613125,19.87638636997768L38.148499125,-0.20524579729353487L38.2111475625,10.599689941406249L38.4557270625,-1.3675182233537893L38.515591125,9.448390502929689L38.864306250000006,15.198436628069201L39.32311556249999,31.43196088518416L39.38286825,-9.096421508789046L39.45904875,42.05176025390625L39.6740581875,31.596493966238842L40.2720305625,27.1917422921317L40.65655275,19.662251063755576L40.88865825,32.14378522600447L41.02275375,12.667951485770084L41.8426408125,2.656481584821421L42.190297875,11.787874668666303L42.4774783125,32.46815970284597L42.6356308125,27.53843314034598L42.821515687499996,14.932769949776777L43.0464931875,16.08905430385044L43.1459510625,45.2313338797433L44.149105687500004,29.157141723632815L44.3579338125,40.98545131138392L44.4110596875,0.7100495256696427L44.7139996875,19.693271745954235L44.909073,17.56866367885045L44.9638695,41.608550327845975L45.0923405625,57.44965523856027L45.611515125,48.27835196358818L45.688530937500005,70.18798200334821L45.9885751875,32.369757777622766L46.04086575,48.33147295270648L46.095940687500004,51.168121425083704L46.2871715625,74.21409615652901L46.772766562499996,76.64031476702009L47.2542406875,82.53174421037946L48.16500975,67.16434517996652L48.4034079375,51.52709708077567L48.7230541875,24.967976074218747L49.0096220625,70.26573434012276L49.0870276875,44.05335048130581L49.746256312499995,53.28700378417969L49.794982875,31.442717808314725L50.7829348125,52.15129185267857L51.5230216875,70.69307896205356L51.569075250000004,56.15948808942523L51.637793625,59.74595738002232L51.986731500000005,42.02462873186383L52.5173776875,63.01575334821429L52.607814187500004,61.54670026506697L52.69529925,64.23151715959823L52.841367562500004,52.54476065499443L53.1302743125,49.22210606166295L53.6287888125,71.90606480189732L53.801642812500006,55.69737252371652L53.861284125000005,52.14505684988839L54.340252312500006,72.83958670479912L54.3887004375,65.00154000418526L55.25157825,63.136872907366076L55.412682187499996,93.33049124581471L55.532410312500005,66.77644775390625L56.313984375000004,64.47212036132814L56.6192075625,66.20430908203126L56.72974725,55.9525755092076L56.869856999999996,52.89429120744978L57.394767375,39.8198761858259L57.7478818125,79.82692592075892L57.867944062499994,28.534335937500007L58.072595625,61.91274431501116L58.447261125000004,63.53072753906249L58.642390125,69.11065377371652L59.226552,54.764082118443085L59.354856,63.088412737165186L59.5634056875,75.85084612165178L59.865733125,72.07095284598215L60.06208725,84.2939967564174L60.138824625000005,92.88012032645088L60.447723187499996,76.66269287109375L60.545120625,56.42368861607143L60.5832665625,58.416358468191966L60.684784875,58.22230172293528L60.7871385,73.70180733816964L60.85162462500001,81.56652256556919L61.2219465,75.04335152762276L61.292892375,81.71699602399553L61.744852125,64.36155709402901L62.056702125,55.94794555664062L62.1676873125,77.76807861328125L62.440166250000004,58.97028599330358L62.7638776875,54.001544363839294L62.903820375,76.86215122767857L63.522062999999996,72.62821393694198L63.844437937500004,53.14998805454799L63.881303062499995,88.60454432896205L63.9963534375,55.23423836844309L64.0324389375,61.88098284040178L64.074817125,75.0625812639509L64.1295579375,85.83901192801338L64.2267883125,66.04334106445312L64.3717985625,79.14814400809152L64.644611625,58.45870710100447L64.89932625,59.80636282784599L65.046564,65.8517844935826L65.269648125,67.83102748325894L65.429694,86.1007585797991L65.4873305625,50.75971330915179L65.598984,67.58838710239955L65.68407450000001,60.37087751116072L65.82997575,54.335888671875004L65.864836125,47.12887363978795L66.0012705,55.101775425502225L66.054396375,57.997131696428575L66.3607333125,70.27107421874999L66.4020534375,51.60887747628348L66.76686225,68.95274152483259L66.909756375,100.00944475446428L67.085172,58.481116071428566L67.244772375,66.54633911132814L67.39278975,59.659284667968755L67.511961,61.60201276506696L67.7231836875,96.53244297572543L67.9473815625,57.32344273158482L68.1464086875,60.739668666294634L68.2118971875,67.72293352399554L68.27309775,79.57196986607143L68.688415125,50.476977539062496L69.0577903125,56.67237880161831L69.1858715625,47.86992841448103L69.2266348125,70.54186471121652L69.452224875,49.498406197684155L69.681546,64.59617222377233L69.8488869375,65.54910906110491L69.910644375,63.86803501674108L69.9732928125,54.40084690638952L70.114683375,81.89031058175223L70.262478,53.38964983258928L70.79696662500001,69.80585658482143L70.88795999999999,78.58890747070312L71.06861024999999,47.39228707449776L71.12340675,96.07559012276786L71.1706854375,113.51831909179687L71.255608875,77.30462036132813L71.289466875,70.86525146484374L71.628269625,64.55119995117188L71.873406,58.06587105887276L71.94947512499999,80.24081281389509L72.07042837499999,58.00330496651785L72.23448375,68.65197980608258L72.380273625,76.96472011021204L72.44292206249999,60.72352556501116L72.498108375,87.14472028459821L72.5322448125,49.85025172642298L72.7098879375,73.81076555524554L72.92879549999999,86.95075613839285L73.250112375,91.40810407366071L73.3181625,76.66448311941963L73.41979218750001,67.93501621791295L73.7146575,66.25233712332589L73.97432831249999,66.65060564313616L74.18176425,92.36533133370536L74.3340695625,103.72809919084823L74.518785,69.2884130859375L74.7721074375,86.60625680106027L74.8733473125,80.88625906808035L75.1384755,107.66997907366071L75.26243587500001,94.0412198311942L76.3917226875,67.26913643973215L76.50727425000001,60.96505475725447L76.5524925,52.74272199358259L76.7725138125,51.46673793247768L76.8866731875,72.71747942243303L77.1206720625,74.35975446428571L77.2387295625,78.39991280691964L77.3636923125,112.85938424246652L77.693083875,88.93759225027902L78.003486,79.4979523577009L78.2620430625,89.88645472935268L78.633311625,78.31712925502232L78.7222445625,62.69915719168527L78.7891809375,92.51386021205356L78.84392175,69.18516514369419L79.11222412500001,91.87375383649554L79.254784125,76.86125610351563L79.474527,69.02064749581474L79.52820975,113.70848667689732L79.6240479375,81.01037266322544L80.11315125,94.7548189871652L80.1747973125,112.54609078543527L80.357842125,108.76968540736608L80.79565725,65.29085030691964L81.0018680625,88.94200613839287L81.545767875,93.94198451450892L81.6825920625,87.3927622767857L81.7421776875,77.51568446568079L81.81362475,80.02024187360492L82.016661375,71.96097603934152L82.10203031249999,78.71086042131697L82.33686449999999,63.20903843470983L82.5634569375,105.71947265625L82.5896300625,103.13700857979912L82.7992935,90.00245047433037L82.8462380625,86.0257533482143L82.8812098125,95.37294852120536L82.95187725,94.49193028041294L83.23521525,105.62174979073662L83.290345875,102.83306762695312L83.4271700625,115.17210728236607L83.49226875000001,102.73938825334822L84.0011968125,87.6252476283482L84.23135325,68.11481270926339L84.2757361875,88.49805541992187L84.37402462499999,95.99052246093751L84.449536875,89.45901750837054L84.90673124999999,84.28448992047991L84.956961375,93.15125034877231L84.97745437500001,79.07591674804688L85.0822025625,99.3728262765067L85.626102375,87.27898890904017L85.7429904375,76.77942940848214L85.98745856250001,106.82720424107144L86.0211495,94.0162180873326L86.20959599999999,70.65576154436384L86.347701,79.41856410435268L86.719582125,84.06009155273438L87.33788043749999,111.79128505161832L87.487846875,119.21742030552456L87.8381769375,82.31095720563616L87.9072294375,74.06288190569197L88.0258438125,115.40644461495535L88.12725075,73.32406494140625L88.3457685,89.94985421316964L88.55888456250001,105.94316109793526L88.6549455,87.03085431780133L88.96122675,102.69450857979912L89.0398018125,86.9075741141183L89.067924,104.05259713309151L89.53547625,102.55715332031251L89.82655481249999,111.93533830915179L90.0822718125,104.73462001255581L90.14469749999999,109.42007027762277L90.19826887500001,128.82972656249999L90.72273375,108.61322387695311L90.8327165625,102.36843645368302L90.9907576875,60.646328822544646L91.3552880625,125.73346121651785L91.4105300625,100.96537562779018L91.7948851875,101.32444388253347L91.88108943750001,102.41763741629464L93.0731360625,104.10886648995535L93.14892675,139.2934193638393L93.2052268125,81.89018711635045L93.4439034375,123.38490234374999L93.50605068750001,100.76332449776785L93.5425816875,126.19377110072546L94.68545624999999,110.53190708705357L94.86543825000001,132.44510219029019L94.9759779375,100.89024693080357L95.3699113125,103.70383823939731L95.419528875,96.5912433733259L95.8276625625,109.43056483677455L95.9520684375,96.63797502790179L96.1771573125,87.15132568359375L96.2922076875,154.67310320172993L96.3767413125,109.43862095424106L96.632848125,146.75375453404018L97.2083784375,136.38769199916294L97.665071625,97.97306815011162L97.728444,102.88449096679688L97.7808459375,123.29705671037945L97.894281375,104.09655081612723L98.08089018749999,106.9938516671317L98.3323749375,140.3771369280134L98.502388875,83.6458651297433L98.806219875,123.59133649553571L98.8853518125,84.18840297154017L99.011818125,109.01581368582589L99.0490730625,143.9011790248326L99.203828625,88.65028826032365L99.316762875,135.14103097098214L99.469569375,119.17053431919643L99.9268194375,96.4538263811384L100.3000370625,113.6768178013393L100.6997619375,111.15164167131697L100.92574181250001,134.7278231375558L100.99685475000001,105.44858956473215L101.050871625,96.91175955636159L101.13779981249999,117.1835130092076L101.391901875,89.14328560965401L101.5659253125,134.9520671735491L101.924274375,87.38714460100447L102.038211,97.77323939732142L102.20126400000001,101.11921351841518L102.26307712500001,104.618408203125L102.4428920625,123.73770472935269L102.71147287500001,97.32928867885046L102.83543325,121.29568254743302L103.020984,136.64110473632812L103.148397,116.73764857700894L103.227807375,92.0616681780134L103.3314975,102.96816964285715L103.3690865625,103.50792951311384L103.697809875,105.39846261160714L104.40197831249999,140.60144269670758L105.04928981249999,80.76612723214286L105.26151487499999,138.59136422293525L105.64798612499999,106.09594953264511L105.9032019375,111.4945668247768L105.986120625,100.0270077078683L106.1292931875,115.18195364815847L106.1956726875,86.19897530691965L106.34820075,106.51604056222098L106.41012525,89.92550066266742L106.60096631249999,118.73396065848213L107.661423375,129.30929704938617L107.7245173125,111.70300728934151L107.782153875,158.33524135044644L108.073065375,133.76386701311384L108.2052675,131.49491245814733L108.4298551875,121.5925551060268L108.4767440625,118.63086704799107L108.5591615625,109.23761928013393L108.7474966875,135.65541870117187L108.79555500000001,130.67266374860492L108.94067662500001,106.97116489955359L109.16376075,139.35709664481027L109.289280375,117.79327776227679L109.972454625,122.36816476004465L110.0304253125,120.31814522879465L110.49948112499999,99.08132446289062L110.5724874375,90.87961042131698L111.18154162500001,134.21973214285714L111.5678458125,135.1596125139509L111.6262063125,115.61145891462053L111.774724875,129.58950177873885L111.8848190625,150.15019513811384L111.93722100000001,121.60338919503349L112.372585875,134.04447300502233L112.4144071875,110.52835745675225L112.47984,109.56742623465401L112.70381512499999,126.65945172991071L112.793360625,108.63103376116072L112.93358175,123.20143275669643L113.41182599999999,148.3405318777902L113.7202790625,122.13922903878347L113.74700906250001,108.65813441685268L113.91769125,145.42955723353796L114.249031875,120.46871128627231L114.9617761875,96.2731964983259L115.275798,131.67992536272322L115.329814875,156.73306169782367L115.492645125,105.59819876534598L115.559470125,129.86893484933034L115.8842953125,114.25682739257813L116.269374375,130.808599155971L116.357472,149.25621303013392L116.89808624999999,120.34296177455356L117.1397143125,138.2778547014509L117.255488625,113.19684605189732L117.4358604375,123.5922624860491L117.9305325,147.84596034458707L118.293503625,128.81910853794645L118.339835625,105.61693464006697L118.570827375,111.89567504882811L119.06906343749999,127.3500554547991L119.150645625,111.45104527064734L119.5239189375,147.42022077287947L119.59018706250001,87.89535906110491L119.8126029375,133.59820731026787L120.12244818750001,88.06753156389509L120.26322618750001,143.1549850027902L120.4222696875,154.26798235212055L120.5672799375,135.10624459402902L120.76374543749999,115.53410784040177L120.9655569375,114.0735121372768L121.436172,128.2453648158482L121.9320691875,122.07724940708705L122.082481125,106.68200892857143L122.2312224375,114.12931849888392L122.391658125,125.23700683593752L122.45013,113.80352416992189L122.87942493749999,104.6796470424107L122.95348931250001,146.5197567313058L123.44209143750001,160.06949811662946L123.6039193125,116.99195643833706L123.6287559375,122.90810982840402L123.707887875,154.0495720563616L123.7753254375,173.19516671316964L123.8726671875,151.11751569475445L124.01656368750001,127.7173650251116L124.4058193125,124.6260382952009L124.429597875,143.69823277064734L124.8263713125,110.9383243233817L124.87699125,111.76615984235491L124.944150375,133.79186279296874L125.4939530625,128.0960951450893L125.70757031250001,136.9891228376116L125.85046443750001,133.89279575892857L125.90108437500001,127.90493983677456L126.0314488125,120.5091153390067L126.3530998125,143.70456037248883L126.40377543749999,139.55473388671876L126.4947688125,131.38916434151787L126.5486743125,102.80482491629463L126.5934470625,111.2347030203683L126.83763675,99.68204537527902L127.5636346875,111.62105712890626L128.1242964375,96.32758300781252L128.428405875,124.90105747767859L128.8051318125,129.21743879045758L128.8799758125,103.87610334123883L129.441472875,121.24006138392858L129.7793289375,119.98552943638394L130.2260540625,97.81114327566964L130.277565,113.78731933593751L130.4843326875,95.85183994838168L130.9071121875,136.68811418805802L131.0356389375,123.1369838169643L131.2307679375,122.02230730329242L131.71435818749998,91.83825753348215L131.7796239375,105.96479840959822L131.93994825000001,97.13584926060267L132.2037399375,97.87651820591518L132.38516981249998,103.91030325753349L133.13483493750002,128.17131644112723L133.2775063125,104.09019234793526L133.3534640625,115.48493774414064L133.7418286875,135.1223259626116L133.783984125,125.97051478794644L133.86072149999998,122.57750034877232L133.9659151875,117.48668230329241L134.05729837500002,116.94865094866071L134.664514875,143.54748151506698L135.198558,131.14683262416295L135.412732125,106.25210239955356L135.62824275,125.30972795758929L135.67039818749998,123.0565461077009L135.9821925,138.58750592912946L136.3055698125,100.87203578404016L136.3723948125,135.29564052036832L136.713814875,129.72732003348213L136.8740835,117.99995884486607L136.9634619375,139.43293526785715L137.076786,106.19219081333705L137.4407595,108.13390032087052L137.614170375,114.50946847098214L137.72955487500002,112.91577706473214L137.9075878125,131.7089088657924L138.0858435,124.7240389578683L138.2642105625,139.45373918805802L138.3801519375,134.23677036830358L138.7964716875,155.28255929129463L138.93195937500002,136.80877075195312L139.5474733125,94.94736328124999L139.608451125,127.4080224609375L139.6904788125,126.69278738839284L140.494773375,169.09222621372768L140.72648906249998,87.69978986467633L140.95597725,145.3274822126116L141.1931503125,154.49503522600446L141.247557,160.72161150251117L141.40080899999998,161.77798148018974L141.55166643750002,154.1871125139509L141.66833175,134.4210116141183L142.1314846875,186.34944841657367L142.26307425,147.8291073172433L142.4191663125,109.36821480887278L142.5623945625,125.19654105050222L142.6875800625,136.827846156529L142.8204504375,145.560029296875L143.0091196875,123.35622750418527L143.1643764375,151.37293474469868L143.2115994375,153.94703404017858L144.02279925,113.63332711356027L144.36661387499998,142.0921022251674L144.7182804375,145.67738316127233L144.79039575,169.58102573939732L144.8162904375,143.6712864467076L144.9457081875,88.52129778180804L144.99638381250003,138.16340227399553L145.130423625,163.1485400390625L145.266858,131.18069301060268L145.4569194375,114.17132760184151L145.6620165,186.678514578683L145.9337715,134.21010184151785L146.09086593749998,130.72235857282368L146.4452611875,113.74497070312499L146.5245045,141.98761962890626L146.6116554375,125.59737147739955L146.82716606250003,116.12167968749999L146.970784125,126.68352748325894L147.23218125,156.89205426897323L147.37301493750002,207.72467389787946L147.4726955625,122.43637939453124L147.57839043750002,102.70253383091519L147.618095625,140.72586495535714L148.14456525,130.0864808872768L148.1769196875,144.07301199776785L148.412422125,142.46348615373884L148.59585675,132.94939662388393L148.8025130625,159.22298845563617L148.842329625,156.92338361467634L148.9628930625,125.7448508998326L149.0180236875,113.18289446149554L149.1592471875,154.31452880859374L149.45077125,127.44821044921875L149.5176519375,148.78145769391742L149.8873055625,164.91823137555804L149.9437726875,109.2897216796875L150.155886375,151.0764017159598L150.274612125,114.40726998465401L150.39255825,146.5609015764509L150.6077904375,159.08942975725446L151.1096461875,145.3077277483259L151.2342748125,157.04314505440848L151.36358118750002,102.57499407087053L151.39571287500002,149.4500537109375L151.642854,120.60822719029018L151.7588510625,124.23548636300224L151.84087875,147.4405925641741L152.2589805,180.879066859654L152.496097875,159.32083478655133L152.66327175,149.15407627650671L153.22371074999998,144.28960117885046L153.42129000000003,157.2578205217634L153.58250531250002,162.95071759905133L153.7388758125,144.91510777064732L153.845294625,136.60557756696429L153.91334475,114.94561000279018L154.00600875,135.84499982561385L154.1154346875,150.36434587751117L154.165386375,128.02442347935266L154.26439875,111.51234584263393L154.36196324999997,139.43833687918527L154.42839843750002,168.26562534877232L154.67782275000002,134.17460553850447L154.7431441875,123.07460292271205L154.86509981249998,117.89918021065847L155.0255911875,137.99302001953126L155.3085950625,138.21964076450894L155.982580875,139.49889665876117L156.204662625,111.22389979771205L156.3751220625,141.35751395089287L156.7262874375,126.16241088867189L156.90877537499998,112.82496826171874L157.2067035,144.75071358816965L157.2939658125,153.21405081612724L157.40767968749998,144.59314086914063L157.537598625,158.90846034458707L157.660779375,125.7313005719866L157.72582237499998,139.68838518415177L157.79721375,147.1123597935268L158.27657175,134.69828404017858L158.3479074375,127.7122412109375L158.39980818749999,141.9281710379464L158.4950338125,129.3643008858817L159.15754800000002,156.16657156808037L159.19975912499999,136.63119663783482L159.237849375,155.70962611607143L159.3015001875,146.0414208984375L159.7265071875,153.22889753069197L160.219063125,128.85512956891742L160.45712718750002,131.70600742885043L160.897336875,136.26005964006697L160.9716796875,116.26023873465401L161.1287184375,151.46658325195312L161.7769209375,130.08669695172992L161.9845239375,127.24764090401786L162.1878946875,118.43069876534598L162.25845075,110.82097045898436L162.2869070625,146.95565133231025L162.41716012499998,105.7904652622768L162.8598200625,141.2197265625L162.994973625,97.37663766043528L163.09743862500002,148.70352015904018L163.22746893750002,144.07279593331472L163.7774386875,145.42915597098215L164.218762125,131.8970392717634L164.2461046875,147.36290196010043L164.5908103125,115.12102347237723L164.8572193125,122.51626150948661L165.24101756250002,142.84848214285714L165.5603296875,124.85815325055805L165.610058625,193.99803745814734L165.677997375,147.2453937639509L165.7232713125,128.0120769391741L165.86210025,125.49001831054687L166.15757812500001,130.68041120256697L167.1741534375,129.11980852399554L167.30836031249999,167.890444859096L167.53066481250002,128.92914707728795L167.598325125,151.14211617606026L168.1939029375,128.19520699637278L168.3141879375,136.9154757254464L168.50269012500002,156.06088518415177L168.57480543749998,108.30119594029017L168.6193554375,132.13900059291296L169.2065244375,112.06460658482143L169.2880509375,126.80875226702008L169.40644256250002,132.24780447823662L169.44236099999998,119.30795131138392L169.546942125,96.67961373465401L169.72931868749998,135.3292848423549L169.824265875,118.92067121233259L169.98932362500003,109.90158534458703L170.0736345,130.4190349469866L170.19458775,144.43254324776785L170.29265343749998,145.08153913225448L170.8328221875,132.83698137555803L171.10340775,116.98976492745535L171.31474181250002,159.50590942382811L171.44571881250002,151.94578334263394L171.613171125,127.46339669363839L171.76564349999998,136.29317923409596L172.1067294375,90.96921543666295L172.1374689375,141.74862147739955L172.385890875,127.63430367606027L172.536247125,137.6754052734375L172.7068179375,113.53001743861607L172.82409581250002,137.10382219587052L173.03860406249999,137.76028773716519L173.22265125,118.65179443359375L173.35362824999999,97.82132917131695L173.38887843749998,144.13983764648438L173.4469605,144.7855308314732L173.5101658125,147.65428030831472L173.66703750000002,117.57804670061385L173.8740279375,95.89894199916294L174.2378900625,126.66275442940848L174.32437275,120.1835679408482L174.4716661875,142.02944353376117L174.92301337499998,90.16209123883928L175.2184355625,127.98408115931919L175.38187837499999,136.79059047154018L175.527891,131.4522860281808L175.5939920625,156.11258632114954L175.7038635,166.19162266322544L175.9035031875,115.97231741768972L175.9658731875,150.97963570731025L176.115171375,113.68036743164062L176.49301106250002,110.43825857979911L176.63562675,149.13475394112723L176.8059748125,119.1197283063616L176.8300875,149.200283203125L177.00399956249998,161.8149285016741L177.31718606249999,159.17412702287947L178.074925875,112.86830461774554L178.30012612500002,160.01159284319198L178.3919548125,131.09769339425225L178.65168131250002,123.7581382533482L178.91558437499998,158.00676164899554L179.4573680625,142.52407679966518L179.637739875,136.6464754813058L179.86126950000002,148.82436192103796L180.061299,152.0606370326451L180.966889125,147.52825299944197L181.58769337500001,110.64710030691964L181.648504125,132.85247628348213L181.703968875,109.43093523297992L181.8601723125,170.52998081752233L182.17898325000002,161.0816983468192L182.49573375,128.90386753627232L182.53176356249998,133.15749755859375L182.61668699999998,132.47677106584823L182.6700913125,129.58122959681918L182.726614125,150.22837960379465L182.7963905625,125.20407244001117L182.847344625,116.46494437081475L183.2569261875,169.54725795200895L184.68269325,103.37063598632812L184.74183337500003,165.31353672572544L184.79150662499998,172.85477260044644L185.1498556875,149.48876011439734L185.80607718750002,140.58773803710938L185.907261375,133.12897705078126L186.16721062500002,138.80603969029016L186.58703868749998,124.43006783621654L186.64489799999998,129.49109985351564L186.7651273125,133.02585257393974L186.870877875,132.46797415597098L186.91158543749998,135.14325334821427L187.05197362500002,110.07980765206473L187.985518875,153.85023716517856L188.342253,104.60408621651786L188.467884,156.7635267857143L188.6126715,123.89580217633927L189.0855140625,142.90333164760045L189.1477726875,144.77336948939734L189.44798400000002,129.89523297991073L189.56982825,140.85868286132813L189.64250043750002,113.44217180524554L189.89131218749998,146.0379638671875L190.0642775625,139.6788166155134L190.13338575,140.415966796875L190.37924606250002,133.6089179338728L190.481878125,149.55327078683035L190.6155838125,151.03105904715403L190.81694981249998,139.5526349748884L190.867235625,136.65008684430802L191.30193225,132.72419573102678L191.6266460625,142.05219203404016L191.7283314375,127.22199096679687L191.78301656250002,164.2376283482143L191.8573036875,154.65581804547992L192.541870125,125.775439453125L193.02518193749998,128.69113664899552L193.525088625,159.65616681780133L194.3787223125,143.74206298828125L194.7064989375,158.143623046875L194.7895846875,112.94090227399553L194.845105125,128.09492222377233L195.0215788125,127.15723336356027L195.5809040625,133.0745596749442L195.86401931249998,155.69002598353796L196.14579806249998,140.56079171316966L196.406137125,143.494175327846L196.5167325,116.46262939453126L196.64392275,114.60830252511161L196.76598975,142.07111310686383L196.8856621875,120.93868233816966L197.0565114375,176.27797433035715L197.1206634375,163.45433297293528L197.2790386875,123.96420200892857L197.3673590625,129.16181762695314L197.4239375625,130.55534075055803L197.69780868750001,148.20135550362724L197.83006650000002,138.22763514927456L197.97992156249998,108.35950247628348L198.0331588125,134.38029889787947L198.1381854375,130.69269601004464L198.43455431249998,132.52649675641743L198.52577043749997,155.07013706752232L198.587862,127.71600690569196L198.65847375,163.1986669921875L199.0123678125,133.28337053571428L199.11900937500002,147.15128226143975L199.2938124375,118.82226928710936L199.779463125,154.02568150111605L199.940734125,159.65897565569196L200.05945987500002,159.58103812081472L200.179744875,150.24334978376115L200.2817086875,115.5702214704241L200.4269416875,161.0795068359375L200.9349230625,137.66352172851563L201.1405213125,133.40819405691963L201.2096295,126.1730597795759L201.3916719375,171.72061941964284L201.85760925,125.70524937220982L202.0917751875,148.65728236607143L202.3644211875,147.95445556640624L202.630329,145.17700875418527L203.04798525,137.40075648716518L203.175621,151.43716761997769L203.5191015,138.53537266322544L203.8703225625,145.2371364048549L204.054035625,109.18582554408484L204.11673975000002,122.17370675223215L204.3908893125,146.8144069126674L204.4555981875,124.53455043247766L204.51178687499998,115.02225115094866L204.6450470625,130.46607526506696L204.8331594375,151.39552891322546L205.0806346875,161.4005477469308L205.227037125,172.15852033342634L205.3101785625,134.53950753348215L205.429294125,154.29403355189731L205.6628475,152.5648388671875L206.24578424999999,152.75596330915178L206.5389789375,161.34767368861606L206.6941243125,112.8539208984375L206.7435748125,110.69574567522321L207.07352325,160.14456508091519L207.1047639375,124.28332920619421L207.1558850625,154.0405899483817L207.2116839375,159.41602661132814L207.42546825,165.88231096540179L207.612466875,125.27639229910714L208.8994606875,129.21728445870534L209.06089874999998,164.44656267438617L209.1973888125,158.60711216517856L209.5178146875,132.58097586495535L209.69428837499999,140.7405882045201L209.762004375,133.01875331333704L209.869592625,143.18301164899555L209.9061793125,154.1508754185268L210.2798424375,153.40560738699776L210.4386075,138.27149623325892L210.527596125,134.54382882254464L211.01424918749998,104.16498151506696L211.349766375,141.371558140346L211.422828375,137.0668443080357L211.6670180625,144.9477335030692L211.784797125,142.99688755580357L211.90769943749999,129.83816109793526L212.051428875,131.91404663085936L212.32101206250002,146.48929164341519L212.51703206250002,133.92674874441963L212.7675144375,166.80910400390624L213.18990412500003,154.31033098493305L213.23423137499998,143.13927403041296L213.306179625,139.38953717912946L213.64693143749997,141.02249058314732L214.10217675,174.05096714564732L214.29936618750003,150.44283900669643L214.4161985625,147.2764453125L214.4732225625,145.62762660435268L214.516157625,129.98187482561386L214.7641340625,135.5034636579241L214.9832086875,133.02702549525668L215.39791350000002,154.91222481863838L215.7864451875,138.43626081194196L215.98920337500002,131.27520577566963L216.226654875,175.79710745675223L216.3139171875,162.97118198939734L216.668145375,162.04312343052456L216.8758040625,108.94707432338168L216.9959776875,135.08726178850446L217.122109875,170.79246826171874L217.2459031875,135.16828595842634L217.4210960625,177.6002887834821L217.5519616875,149.5476531110491L217.72347918749998,164.22821411132813L217.9443915,142.8980535016741L218.075814,172.6146941266741L218.332756125,126.77905883789062L218.6055135,158.8799089704241L218.66398537499998,146.54299909319198L218.8771014375,126.81214756556919L219.289244625,159.26101579938617L219.7673218125,132.54149780273437L219.91372425,125.75299961635045L220.06786725,140.79661063058035L220.11330825,141.29732456752234L220.268453625,142.61593505859375L220.5702241875,155.9341170828683L220.839807375,129.36964076450892L220.9055743125,145.96851457868303L221.1263195625,162.9826025390625L221.234965875,147.11680454799105L221.6208245625,152.44368844168525L221.6659314375,116.47846383231027L221.7950150625,149.4622767857143L222.00339768749998,164.42569702148438L222.4034566875,150.07824567522323L222.743763,153.11416730608258L222.8763549375,167.2623454938616L223.23091725,106.7364263044085L223.68399075000002,142.44947283063618L223.797704625,151.2845335170201L223.8615225,144.51193150111607L223.9042348125,138.6847966657366L224.2205955,141.7793643624442L224.27739675,198.27960152762276L224.4752544375,159.55899954659597L224.5962076875,150.88324009486607L224.66097225000001,140.3627223423549L224.7800878125,153.85103969029018L225.08726006249998,124.01031633649555L225.59808149999998,152.64793108258928L225.94846725,120.82864379882812L226.0807250625,154.05966535295758L226.1753938125,139.69712036132813L226.4200846875,112.72496128627232L226.4668065,155.44824986049107L226.63453725,153.83461879185268L226.7519265,181.53935982840403L227.128485375,148.96437168666293L227.16189787500002,118.27000854492188L227.35312875,156.2925062779018L227.555051625,135.38814697265624L228.248026875,136.32336652483258L228.532924125,152.81482543945313L228.6178475625,145.12827078683037L228.76848225,142.4341322544643L229.3028595,162.6741859654018L229.351419,135.2179807826451L229.683205125,145.69124215262278L229.7438488125,135.27921962193082L229.846926375,152.80195417131696L230.6359625625,177.45132777622769L230.778466875,137.84834943498885L230.8728015,144.6258283342634L230.96023087499998,167.7963950892857L231.14745225,154.5292351422991L231.2866153125,165.18000889369418L231.7816771875,168.95959350585937L232.0415150625,124.78620378766742L232.1367406875,135.21282610212054L232.7250234375,142.35977521623883L232.75910418750001,166.74002511160714L233.12953743749998,153.00292497907367L233.5677980625,138.6243603515625L234.94417031249998,198.25534057617188L235.0112180625,137.08783342633927L235.130556375,146.2052903529576L235.27851806249998,142.42576747349332L235.41907331250002,119.53092982700892L236.7609193125,143.94516357421875L236.92096518749997,125.26469395228796L237.1356961875,132.0009354073661L237.1833646875,153.57345860072544L237.2355995625,152.59604474748883L237.3759320625,157.05842389787946L237.593503125,140.81037702287946L237.77537850000002,157.23803519112724L237.91699181250002,118.90452811104912L238.01394375,138.88907017299107L238.31727356250002,132.18360246930803L238.48277681250002,164.70398803710938L238.51290375000002,172.39362932477678L238.67818425000002,160.50761509486605L238.97833987500002,157.13657749720983L239.486655375,149.4646226283482L239.76520425,168.95928484235492L239.861543625,177.59442417689732L239.9807705625,137.90116176060266L240.024373875,173.49815080915178L240.35259599999998,166.70246076311383L240.6310335,107.43820364815848L240.7460281875,139.4367626953125L240.9045705,144.9541845703125L241.0576554375,172.00582449776786L241.564244625,159.1370565359933L241.6991754375,129.6521604701451L241.75541981249998,158.64924473353793L242.00790693750002,168.1132381766183L242.2951430625,170.46991489955357L242.427846375,166.38719185965402L242.92246275,130.17099295479912L243.04603331250001,184.12105224609374L243.1784581875,114.04425083705358L243.8607414375,162.82894984654018L244.0597685625,137.5466925920759L244.191915,121.16746372767857L244.75118456250001,132.0599210030692L245.05239824999998,140.59743007114955L245.430739125,137.53119768415178L245.59902675,170.47176688058036L245.67932812499998,141.3878555733817L246.04096275,161.96780953543526L246.356710875,183.6238570731027L246.78054843750002,193.58106392996652L246.82754868749998,168.4096168736049L246.96448425,159.55810442243305L247.122302625,140.04535452706475L247.2082284375,152.9888499232701L247.6046120625,126.64340122767857L247.84278750000001,157.78464739118306L247.91184,146.12704415457588L248.24128725,168.43464948381697L248.29903518749998,149.4628632463728L248.3527179375,186.4661540876116L248.7121250625,151.47599748883928L248.775107625,151.31274536132813L249.033720375,136.8211172921317L249.67602,176.6687423270089L250.049460375,186.81960466657367L250.260181875,149.88702863420758L250.37968725,165.03327026367188L250.5125019375,172.09629377092634L250.56501525000002,148.12412789481027" style="fill: none;" fill="none"></path></g></g></g></g></g></g><g transform="translate(51, 177)" clip-path="url(#clip_1)"><clipPath id="clip_1"><rect width="278" height="23"></rect></clipPath><g><g><line x1="0" y1="0" x2="0" y2="5" style="visibility: inherit;" fill="rgb(0, 0, 0)" stroke="rgb(204, 204, 204)" stroke-width="1px"></line><line x1="27.84375" y1="0" x2="27.84375" y2="5" style="visibility: inherit;" fill="rgb(0, 0, 0)" stroke="rgb(204, 204, 204)" stroke-width="1px"></line><line x1="55.6875" y1="0" x2="55.6875" y2="5" style="visibility: inherit;" fill="rgb(0, 0, 0)" stroke="rgb(204, 204, 204)" stroke-width="1px"></line><line x1="83.53125" y1="0" x2="83.53125" y2="5" style="visibility: inherit;" fill="rgb(0, 0, 0)" stroke="rgb(204, 204, 204)" stroke-width="1px"></line><line x1="111.375" y1="0" x2="111.375" y2="5" style="visibility: inherit;" fill="rgb(0, 0, 0)" stroke="rgb(204, 204, 204)" stroke-width="1px"></line><line x1="139.21875" y1="0" x2="139.21875" y2="5" style="visibility: inherit;" fill="rgb(0, 0, 0)" stroke="rgb(204, 204, 204)" stroke-width="1px"></line><line x1="167.0625" y1="0" x2="167.0625" y2="5" style="visibility: inherit;" fill="rgb(0, 0, 0)" stroke="rgb(204, 204, 204)" stroke-width="1px"></line><line x1="194.90625" y1="0" x2="194.90625" y2="5" style="visibility: inherit;" fill="rgb(0, 0, 0)" stroke="rgb(204, 204, 204)" stroke-width="1px"></line><line x1="222.75" y1="0" x2="222.75" y2="5" style="visibility: inherit;" fill="rgb(0, 0, 0)" stroke="rgb(204, 204, 204)" stroke-width="1px"></line><line x1="250.59375" y1="0" x2="250.59375" y2="5" style="visibility: inherit;" fill="rgb(0, 0, 0)" stroke="rgb(204, 204, 204)" stroke-width="1px"></line><line x1="278.4375" y1="0" x2="278.4375" y2="5" style="visibility: inherit;" fill="rgb(0, 0, 0)" stroke="rgb(204, 204, 204)" stroke-width="1px"></line></g><g transform="translate(0, 8)"><text x="0" y="0" dx="0em" dy="0.95em" style="text-anchor: middle; visibility: hidden; font-family: Roboto, sans-serif; font-size: 12px; font-weight: 200;" fill="rgb(33, 33, 33)" stroke="none" stroke-width="1px">-500k</text><text x="27.84375" y="0" dx="0em" dy="0.95em" style="text-anchor: middle; visibility: inherit; font-family: Roboto, sans-serif; font-size: 12px; font-weight: 200;" fill="rgb(33, 33, 33)" stroke="none" stroke-width="1px">0</text><text x="55.6875" y="0" dx="0em" dy="0.95em" style="text-anchor: middle; visibility: inherit; font-family: Roboto, sans-serif; font-size: 12px; font-weight: 200;" fill="rgb(33, 33, 33)" stroke="none" stroke-width="1px">500k</text><text x="83.53125" y="0" dx="0em" dy="0.95em" style="text-anchor: middle; visibility: inherit; font-family: Roboto, sans-serif; font-size: 12px; font-weight: 200;" fill="rgb(33, 33, 33)" stroke="none" stroke-width="1px">1M</text><text x="111.375" y="0" dx="0em" dy="0.95em" style="text-anchor: middle; visibility: inherit; font-family: Roboto, sans-serif; font-size: 12px; font-weight: 200;" fill="rgb(33, 33, 33)" stroke="none" stroke-width="1px">1.5M</text><text x="139.21875" y="0" dx="0em" dy="0.95em" style="text-anchor: middle; visibility: inherit; font-family: Roboto, sans-serif; font-size: 12px; font-weight: 200;" fill="rgb(33, 33, 33)" stroke="none" stroke-width="1px">2M</text><text x="167.0625" y="0" dx="0em" dy="0.95em" style="text-anchor: middle; visibility: inherit; font-family: Roboto, sans-serif; font-size: 12px; font-weight: 200;" fill="rgb(33, 33, 33)" stroke="none" stroke-width="1px">2.5M</text><text x="194.90625" y="0" dx="0em" dy="0.95em" style="text-anchor: middle; visibility: inherit; font-family: Roboto, sans-serif; font-size: 12px; font-weight: 200;" fill="rgb(33, 33, 33)" stroke="none" stroke-width="1px">3M</text><text x="222.75" y="0" dx="0em" dy="0.95em" style="text-anchor: middle; visibility: inherit; font-family: Roboto, sans-serif; font-size: 12px; font-weight: 200;" fill="rgb(33, 33, 33)" stroke="none" stroke-width="1px">3.5M</text><text x="250.59375" y="0" dx="0em" dy="0.95em" style="text-anchor: middle; visibility: inherit; font-family: Roboto, sans-serif; font-size: 12px; font-weight: 200;" fill="rgb(33, 33, 33)" stroke="none" stroke-width="1px">4M</text><text x="278.4375" y="0" dx="0em" dy="0.95em" style="text-anchor: middle; visibility: hidden; font-family: Roboto, sans-serif; font-size: 12px; font-weight: 200;" fill="rgb(33, 33, 33)" stroke="none" stroke-width="1px">4.5M</text></g><line x1="0" y1="0" x2="278.4375" y2="0" fill="rgb(0, 0, 0)" stroke="rgb(204, 204, 204)" stroke-width="1px"></line></g></g></g></g></svg>