<svg viewBox="0 0 330 200" xmlns="http://www.w3.org/2000/svg"><g><g><g><g><g><line x1="51.5625" y1="177" x2="46.5625" y2="177" style="visibility: inherit;" fill="rgb(0, 0, 0)" stroke="rgb(204, 204, 204)" stroke-width="1px"></line><line x1="51.5625" y1="154.8750003296882" x2="46.5625" y2="154.8750003296882" style="visibility: inherit;" fill="rgb(0, 0, 0)" stroke="rgb(204, 204, 204)" stroke-width="1px"></line><line x1="51.5625" y1="132.75000065937638" x2="46.5625" y2="132.75000065937638" style="visibility: inherit;" fill="rgb(0, 0, 0)" stroke="rgb(204, 204, 204)" stroke-width="1px"></line><line x1="51.5625" y1="110.62500098906457" x2="46.5625" y2="110.62500098906457" style="visibility: inherit;" fill="rgb(0, 0, 0)" stroke="rgb(204, 204, 204)" stroke-width="1px"></line><line x1="51.5625" y1="88.50000131875275" x2="46.5625" y2="88.50000131875275" style="visibility: inherit;" fill="rgb(0, 0, 0)" stroke="rgb(204, 204, 204)" stroke-width="1px"></line><line x1="51.5625" y1="66.37500164844094" x2="46.5625" y2="66.37500164844094" style="visibility: inherit;" fill="rgb(0, 0, 0)" stroke="rgb(204, 204, 204)" stroke-width="1px"></line><line x1="51.5625" y1="44.25000197812913" x2="46.5625" y2="44.25000197812913" style="visibility: inherit;" fill="rgb(0, 0, 0)" stroke="rgb(204, 204, 204)" stroke-width="1px"></line><line x1="51.5625" y1="22.12500230781732" x2="46.5625" y2="22.12500230781732" style="visibility: inherit;" fill="rgb(0, 0, 0)" stroke="rgb(204, 204, 204)" stroke-width="1px"></line><line x1="51.5625" y1="0.00000263750549200914" x2="46.5625" y2="0.00000263750549200914" style="visibility: inherit;" fill="rgb(0, 0, 0)" stroke="rgb(204, 204, 204)" stroke-width="1px"></line></g><g transform="translate(41.5625, 0)"><text x="0" y="177" dx="0em" dy="0.3em" style="text-anchor: end; visibility: hidden; font-family: Roboto, sans-serif; font-size: 12px; font-weight: 200;" fill="rgb(33, 33, 33)" stroke="none" stroke-width="1px">0</text><text x="0" y="154.8750003296882" dx="0em" dy="0.3em" style="text-anchor: end; visibility: inherit; font-family: Roboto, sans-serif; font-size: 12px; font-weight: 200;" fill="rgb(33, 33, 33)" stroke="none" stroke-width="1px">0.05</text><text x="0" y="132.75000065937638" dx="0em" dy="0.3em" style="text-anchor: end; visibility: hidden; font-family: Roboto, sans-serif; font-size: 12px; font-weight: 200;" fill="rgb(33, 33, 33)" stroke="none" stroke-width="1px">0.1</text><text x="0" y="110.62500098906457" dx="0em" dy="0.3em" style="text-anchor: end; visibility: inherit; font-family: Roboto, sans-serif; font-size: 12px; font-weight: 200;" fill="rgb(33, 33, 33)" stroke="none" stroke-width="1px">0.15</text><text x="0" y="88.50000131875275" dx="0em" dy="0.3em" style="text-anchor: end; visibility: hidden; font-family: Roboto, sans-serif; font-size: 12px; font-weight: 200;" fill="rgb(33, 33, 33)" stroke="none" stroke-width="1px">0.2</text><text x="0" y="66.37500164844094" dx="0em" dy="0.3em" style="text-anchor: end; visibility: inherit; font-family: Roboto, sans-serif; font-size: 12px; font-weight: 200;" fill="rgb(33, 33, 33)" stroke="none" stroke-width="1px">0.25</text><text x="0" y="44.25000197812913" dx="0em" dy="0.3em" style="text-anchor: end; visibility: hidden; font-family: Roboto, sans-serif; font-size: 12px; font-weight: 200;" fill="rgb(33, 33, 33)" stroke="none" stroke-width="1px">0.3</text><text x="0" y="22.12500230781732" dx="0em" dy="0.3em" style="text-anchor: end; visibility: inherit; font-family: Roboto, sans-serif; font-size: 12px; font-weight: 200;" fill="rgb(33, 33, 33)" stroke="none" stroke-width="1px">0.35</text><text x="0" y="0.00000263750549200914" dx="0em" dy="0.3em" style="text-anchor: end; visibility: hidden; font-family: Roboto, sans-serif; font-size: 12px; font-weight: 200;" fill="rgb(33, 33, 33)" stroke="none" stroke-width="1px">0.4</text></g><line x1="51.5625" y1="0" x2="51.5625" y2="177" fill="rgb(0, 0, 0)" stroke="rgb(204, 204, 204)" stroke-width="1px"></line></g></g><g transform="translate(51, 0)" clip-path="url(#clip_0)"><clipPath id="clip_0"><rect width="278" height="177"></rect></clipPath><g><g><g><line x1="0" y1="0" x2="0" y2="177" fill="rgb(0, 0, 0)" stroke="rgb(66, 66, 66)" stroke-width="1px" opacity="0.25"></line><line x1="30.9375" y1="0" x2="30.9375" y2="177" fill="rgb(0, 0, 0)" stroke="rgb(66, 66, 66)" stroke-width="1px" opacity="0.25"></line><line x1="61.875" y1="0" x2="61.875" y2="177" fill="rgb(0, 0, 0)" stroke="rgb(66, 66, 66)" stroke-width="1px" opacity="0.25"></line><line x1="92.8125" y1="0" x2="92.8125" y2="177" fill="rgb(0, 0, 0)" stroke="rgb(66, 66, 66)" stroke-width="1px" opacity="0.25"></line><line x1="123.75" y1="0" x2="123.75" y2="177" fill="rgb(0, 0, 0)" stroke="rgb(66, 66, 66)" stroke-width="1px" opacity="0.25"></line><line x1="154.6875" y1="0" x2="154.6875" y2="177" fill="rgb(0, 0, 0)" stroke="rgb(66, 66, 66)" stroke-width="1px" opacity="0.25"></line><line x1="185.625" y1="0" x2="185.625" y2="177" fill="rgb(0, 0, 0)" stroke="rgb(66, 66, 66)" stroke-width="1px" opacity="0.25"></line><line x1="216.5625" y1="0" x2="216.5625" y2="177" fill="rgb(0, 0, 0)" stroke="rgb(66, 66, 66)" stroke-width="1px" opacity="0.25"></line><line x1="247.5" y1="0" x2="247.5" y2="177" fill="rgb(0, 0, 0)" stroke="rgb(66, 66, 66)" stroke-width="1px" opacity="0.25"></line><line x1="278.4375" y1="0" x2="278.4375" y2="177" fill="rgb(0, 0, 0)" stroke="rgb(66, 66, 66)" stroke-width="1px" opacity="0.25"></line></g><g><line x1="0" y1="177" x2="278.4375" y2="177" fill="rgb(0, 0, 0)" stroke="rgb(66, 66, 66)" stroke-width="1px" opacity="0.25"></line><line x1="0" y1="154.8750003296882" x2="278.4375" y2="154.8750003296882" fill="rgb(0, 0, 0)" stroke="rgb(66, 66, 66)" stroke-width="1px" opacity="0.25"></line><line x1="0" y1="132.75000065937638" x2="278.4375" y2="132.75000065937638" fill="rgb(0, 0, 0)" stroke="rgb(66, 66, 66)" stroke-width="1px" opacity="0.25"></line><line x1="0" y1="110.62500098906457" x2="278.4375" y2="110.62500098906457" fill="rgb(0, 0, 0)" stroke="rgb(66, 66, 66)" stroke-width="1px" opacity="0.25"></line><line x1="0" y1="88.50000131875275" x2="278.4375" y2="88.50000131875275" fill="rgb(0, 0, 0)" stroke="rgb(66, 66, 66)" stroke-width="1px" opacity="0.25"></line><line x1="0" y1="66.37500164844094" x2="278.4375" y2="66.37500164844094" fill="rgb(0, 0, 0)" stroke="rgb(66, 66, 66)" stroke-width="1px" opacity="0.25"></line><line x1="0" y1="44.25000197812913" x2="278.4375" y2="44.25000197812913" fill="rgb(0, 0, 0)" stroke="rgb(66, 66, 66)" stroke-width="1px" opacity="0.25"></line><line x1="0" y1="22.12500230781732" x2="278.4375" y2="22.12500230781732" fill="rgb(0, 0, 0)" stroke="rgb(66, 66, 66)" stroke-width="1px" opacity="0.25"></line><line x1="0" y1="0.00000263750549200914" x2="278.4375" y2="0.00000263750549200914" fill="rgb(0, 0, 0)" stroke="rgb(66, 66, 66)" stroke-width="1px" opacity="0.25"></line></g></g></g><g><g><line x1="0" y1="177" x2="278.4375" y2="177" fill="rgb(0, 0, 0)" stroke="rgb(153, 153, 153)" stroke-width="1.5px"></line></g></g><g><g><line x1="30.9375" y1="0" x2="30.9375" y2="177" fill="rgb(0, 0, 0)" stroke="rgb(153, 153, 153)" stroke-width="1.5px"></line></g></g><g><g><g><g><g><path stroke="rgb(255, 112, 67)" stroke-width="2px" d="M31.571099999999998,88.5L31.824540000000002,88.5L31.95126,88.5L32.45814,88.5L32.58486,88.5L32.838300000000004,88.5L32.96502,88.5L33.09174,88.5L33.21846,88.5L33.34518,88.5L33.4719,88.5L33.59862,88.5L33.72534,88.5L34.23222,88.5L34.35894,88.5L35.372699999999995,88.5L35.49942,88.5L35.752860000000005,88.5L36.13302,88.5L36.25974,88.5L36.51318,88.5L36.6399,88.5L36.76662,88.5L36.89334,88.5L37.14678,88.5L37.400220000000004,88.5L37.52694,88.5L37.9071,88.5L38.03382,88.5L38.160540000000005,88.5L38.287259999999996,88.5L38.41398,88.5L38.79414,88.5L38.92086,88.5L39.1743,88.5L39.42774,88.5L39.55446,88.5L39.68118,88.5L39.807900000000004,88.5L40.18806,88.5L40.31478,88.5L40.441500000000005,88.5L40.56822,88.5L40.82166,88.5L41.075100000000006,88.5L41.20182,88.5L41.83542,88.5L41.96214,88.5L42.088860000000004,88.5L42.21558,88.5L42.342299999999994,88.5L42.46902,88.5L43.10262,88.5L44.2431,88.5L44.49654,88.5L44.62326,88.5L44.74998,88.5L45.63702,88.5L46.017179999999996,88.5L46.27062,88.5L46.39733999999999,88.5L46.52406,88.5L47.030939999999994,88.5L47.15766,88.5L47.28438,88.5L47.664539999999995,88.5L47.79126,88.5L48.171420000000005,88.5L48.6783,88.5L48.93174,88.5L49.18518,88.5L49.3119,88.5L49.43862,88.5L49.56534,88.5L49.69206,88.5L49.818780000000004,88.5L50.072219999999994,88.5L50.32566,88.5L50.705819999999996,88.5L50.83254,88.5L50.95926,88.5L51.2127,88.5L51.33942,88.5L51.46614,88.5L51.71957999999999,88.5L51.8463,88.5L52.099740000000004,88.5L52.22646,88.5L52.4799,88.5L52.60662,88.5L52.986779999999996,88.5L53.493660000000006,88.5L53.62038,88.5L53.747099999999996,88.5L53.87382,88.5L54.12726,88.5L54.25398,88.5L54.50742,88.5L54.76086,88.5L54.88758,88.5L55.0143,88.5L55.141020000000005,88.5L55.394459999999995,88.5L55.52118,88.5L56.53494,88.5L57.041819999999994,88.5L57.548700000000004,88.5L57.675419999999995,88.5L57.80214,88.5L58.30902,88.5L58.43574,88.5L58.56246,88.5L58.68918,88.5L59.06934,88.5L59.19606,88.5L59.57622,88.5L59.70294,88.5L59.95638,88.5L60.083099999999995,88.5L60.20982,88.5L60.463260000000005,88.5L60.58998,88.5L60.716699999999996,88.5L60.84342,88.5L60.97014,88.5L61.09686,88.5L61.47702,88.5L61.60374,88.5L61.85718,88.5L62.364059999999995,88.5L62.49078,88.5L62.74422,88.5L62.997659999999996,88.5L63.12438,88.5L63.757979999999996,88.5L64.13814,88.5L64.26486,88.5L64.39157999999999,88.5L64.5183,88.5L64.77174,88.5L65.27862,88.5L65.53206,88.5L65.7855,88.5L65.91222,88.5L66.03894,88.5L66.54582,88.5L66.67254,88.5L66.92598,88.5L67.17942000000001,88.5L67.43285999999999,88.5L68.06645999999999,88.5L68.44662,88.5L68.57334,88.5L68.9535,88.5L69.20694,88.5L69.33366,88.5L69.46038,88.5L69.71382,88.5L69.84054,88.5L69.96726000000001,88.5L70.47413999999999,88.5L70.60086,88.5L70.8543,88.5L71.23446,88.5L71.74134,88.5L71.86806,88.5L71.99478,88.5L72.1215,88.5L72.37494000000001,88.5L72.7551,88.5L72.88181999999999,88.5L73.00854,88.5L73.3887,88.5L73.51542,88.5L73.76886,88.5L74.52918,88.5L74.78262000000001,88.5L74.90934,88.5L75.03605999999999,88.5L75.16278,88.5L75.28949999999999,88.5L75.54294,88.5L75.66966000000001,88.5L76.30326,88.5L76.42998,88.5L76.68342,88.5L76.93686,88.5L77.06358,88.5L77.19030000000001,88.5L77.44373999999999,88.5L77.57046,88.5L77.69718,88.5L77.8239,88.5L78.07734,88.5L78.20406,88.5L78.45750000000001,88.5L78.58421999999999,88.5L78.83766,88.5L79.0911,88.5L79.34454000000001,88.5L79.47126,88.5L79.59798,88.5L79.85141999999999,88.5L79.97814,88.5L80.3583,88.5L80.48502,88.5L80.61174,88.5L80.86518000000001,88.5L81.11861999999999,88.5L81.24534,88.5L81.37206,88.5L81.49878,88.5L82.13238,88.5L82.63926,88.5L82.76598,88.5L83.01942000000001,88.5L83.39958,88.5L84.28662,88.5L84.41334,88.5L84.92022,88.5L85.04694,88.5L85.17366,88.5L85.42710000000001,88.5L85.68054,88.5L85.93397999999999,88.5L86.18742,88.5L87.3279,88.5L87.45462,88.5L87.58134,88.5L87.70806,88.5L87.96149999999999,88.5L88.08821999999999,88.5L88.46838,88.5L88.84854,88.5L89.22869999999999,88.5L89.60885999999999,88.5L89.73558,88.5L89.8623,88.5L89.98902,88.5L90.11574,88.5L90.36918,88.5L90.49589999999999,88.5L90.62262,88.5L90.87606,88.5L91.00278,88.5L91.12950000000001,88.5L91.38294,88.5L91.63637999999999,88.5L91.7631,88.5L92.26998,88.5L92.77686,88.5L93.28374,88.5L93.41046,88.5L93.6639,88.5L93.79062,88.5L94.04406,88.5L94.2975,88.5L94.67766,88.5L95.5647,88.5L95.94486,88.5L96.07158000000001,88.5L96.45174,88.5L96.57845999999999,88.5L96.70518,88.5L96.95862,88.5L97.08534,88.5L97.21206000000001,88.5L97.33878,88.5L97.59222,88.5L98.22582,88.5L98.35254,88.5L99.11286,88.5L99.3663,88.5L99.49302,88.5L99.61974000000001,88.5L99.74646000000001,88.5L99.87317999999999,88.5L99.9999,88.5L100.12662,88.5L100.25334,88.5L100.38006,88.5L100.50678,88.5L100.76022,88.5L101.14038,88.5L101.2671,88.5L101.39382,88.5L101.64726,88.5L101.77398000000001,88.5L102.15414,88.5L102.40758,88.5L102.66102,88.5L102.78774,88.5L103.1679,88.5L103.29462000000001,88.5L103.42134,88.5L103.67478,88.5L103.8015,88.5L103.92822,88.5L104.18166000000001,88.5L104.4351,88.5L104.56182,88.5L104.94198,88.5L105.0687,88.5L105.19542,88.5L105.32214,88.5L105.44886000000001,88.5L105.7023,88.5L105.82902,88.5L105.95573999999999,88.5L106.20918,88.5L106.3359,88.5L106.84277999999999,88.5L106.9695,88.5L107.09622,88.5L107.34966,88.5L107.47638,88.5L107.6031,88.5L107.72982,88.5L107.98325999999999,88.5L108.2367,88.5L108.36341999999999,88.5L108.49014,88.5L108.74358000000001,88.5L108.99702,88.5L109.25045999999999,88.5L109.37718,88.5L109.5039,88.5L109.88406,88.5L110.39093999999999,88.5L110.51765999999999,88.5L110.7711,88.5L110.89782,88.5L111.15126000000001,88.5L111.65813999999999,88.5L111.78486,88.5L112.03829999999999,88.5L112.29174,88.5L112.79862,88.5L113.17878,88.5L113.3055,88.5L113.55894,88.5L113.68566,88.5L113.81238,88.5L113.9391,88.5L114.06581999999999,88.5L114.19254,88.5L114.31926,88.5L114.44598,88.5L114.5727,88.5L115.07957999999999,88.5L115.2063,88.5L115.45974,88.5L115.71318,88.5L116.09334000000001,88.5L116.34678,88.5L116.4735,88.5L116.60022,88.5L116.98038,88.5L117.1071,88.5L117.23382000000001,88.5L117.36054,88.5L117.48725999999999,88.5L117.74069999999999,88.5L117.86742,88.5L118.12086000000001,88.5L118.3743,88.5L118.50102000000001,88.5L118.62773999999999,88.5L118.75446,88.5L118.88118,88.5L119.00789999999999,88.5L119.26134,88.5L119.38806,88.5L119.76822000000001,88.5L120.2751,88.5L120.65526,88.5L120.78198,88.5L120.90870000000001,88.5L121.03541999999999,88.5L121.16214,88.5L121.28886,88.5L121.41557999999999,88.5L121.5423,88.5L121.79574000000001,88.5L121.92246,88.5L122.04918,88.5L122.55606,88.5L123.06294,88.5L123.18966,88.5L123.4431,88.5L123.56981999999999,88.5L123.69654,88.5L123.82326,88.5L123.94998,88.5L124.0767,88.5L124.45686,88.5L124.58358,88.5L124.71029999999999,88.5L125.3439,88.5L125.59734,88.5L125.72406,88.5L125.85078,88.5L125.97749999999999,88.5L126.23094,88.5L126.61110000000001,88.5L126.73782,88.5L127.11798,88.5L127.2447,88.5L127.37142,88.5L127.49814,88.5L127.62486,88.5L127.87830000000001,88.5L128.25846,88.5L128.38518,88.5L128.63862,88.5L129.01878,88.5L129.1455,88.5L129.27222,88.5L129.52566000000002,88.5L129.65238,88.5L129.7791,88.5L129.90582,88.5L130.03253999999998,88.5L130.15926,88.5L130.28598,88.5L130.53942,88.5L130.91958,88.5L131.0463,88.5L131.55318,88.5L131.6799,88.5L131.93334000000002,88.5L132.18678,88.5L132.44021999999998,88.5L132.56694,88.5L132.69366,88.5L132.82038,88.5L132.9471,88.5L133.07382,88.5L133.32726,88.5L133.5807,88.5L133.83414,88.5L134.2143,88.5L134.34102000000001,88.5L134.46774000000002,88.5L134.59446,88.5L134.72118,88.5L134.97462,88.5L135.10134,88.5L135.22806,88.5L135.4815,88.5L135.60822000000002,88.5L135.86166,88.5L136.24182,88.5L136.49526,88.5L136.62198,88.5L136.7487,88.5L137.12886,88.5L137.50902,88.5L137.63574,88.5L137.88918,88.5L138.14262,88.5L138.39606,88.5L138.52278,88.5L139.02966,88.5L139.2831,88.5L139.40982,88.5L139.53654,88.5L139.66325999999998,88.5L139.9167,88.5L140.04342,88.5L140.17014,88.5L140.29686,88.5L140.80374,88.5L141.05718,88.5L141.18390000000002,88.5L141.31062,88.5L141.43734,88.5L141.56406,88.5L142.07094,88.5L142.19765999999998,88.5L142.32438000000002,88.5L142.4511,88.5L142.95798,88.5L143.0847,88.5L143.21142,88.5L143.33813999999998,88.5L143.46486000000002,88.5L143.7183,88.5L143.84502,88.5L143.97173999999998,88.5L144.09846,88.5L144.3519,88.5L144.73206,88.5L144.9855,88.5L145.11221999999998,88.5L145.36566,88.5L145.49238,88.5L145.6191,88.5L145.87254,88.5L145.99926000000002,88.5L146.25269999999998,88.5L146.37942,88.5L147.01301999999998,88.5L147.26646,88.5L147.39317999999997,88.5L147.5199,88.5L147.64661999999998,88.5L147.77334,88.5L147.90006,88.5L148.02678,88.5L148.28022,88.5L148.40694,88.5L148.53366000000003,88.5L148.91382000000002,88.5L149.04054,88.5L149.16726,88.5L149.29398,88.5L149.54742,88.5L150.30774,88.5L150.43446,88.5L150.56118,88.5L150.81462000000002,88.5L151.3215,88.5L151.70166,88.5L152.08182,88.5L152.46197999999998,88.5L152.58870000000002,88.5L152.84214,88.5L152.96886,88.5L153.09558,88.5L153.2223,88.5L153.47574,88.5L153.60245999999998,88.5L153.72918,88.5L153.8559,88.5L153.98262,88.5L154.10934,88.5L154.23606,88.5L154.36278,88.5L154.48950000000002,88.5L154.74293999999998,88.5L154.86966,88.5L155.1231,88.5L155.50325999999998,88.5L155.62998000000002,88.5L155.88342,88.5L156.13685999999998,88.5L156.26358000000002,88.5L156.3903,88.5L156.51702,88.5L156.89718,88.5L157.0239,88.5L157.15062,88.5L157.27733999999998,88.5L157.53078,88.5L157.6575,88.5L158.67126,88.5L159.05142,88.5L159.17813999999998,88.5L159.43158,88.5L159.5583,88.5L159.68502,88.5L159.81174,88.5L160.1919,88.5L160.31862,88.5L160.57206,88.5L160.69878,88.5L160.8255,88.5L160.95221999999998,88.5L161.33238,88.5L162.34614,88.5L162.47286,88.5L162.59958,88.5L162.85302,88.5L163.10646,88.5L163.23318,88.5L163.3599,88.5L163.61334000000002,88.5L163.74006,88.5L163.86678,88.5L163.9935,88.5L164.12022,88.5L164.50038,88.5L164.62709999999998,88.5L164.75382000000002,88.5L165.38742,88.5L165.64086,88.5L165.76757999999998,88.5L166.02102,88.5L166.14774,88.5L166.40117999999998,88.5L167.1615,88.5L167.28822000000002,88.5L167.54165999999998,88.5L167.7951,88.5L167.92182,88.5L168.42870000000002,88.5L168.55542,88.5L168.68213999999998,88.5L168.80886,88.5L168.93558,88.5L169.18902,88.5L169.44245999999998,88.5L169.56918000000002,88.5L169.6959,88.5L169.82261999999997,88.5L169.94934,88.5L170.07605999999998,88.5L170.20278,88.5L170.70966,88.5L170.96310000000003,88.5L171.08982,88.5L171.72342,88.5L171.85014,88.5L172.10358000000002,88.5L172.35701999999998,88.5L172.48374,88.5L172.61046,88.5L172.8639,88.5L173.24406000000002,88.5L173.37078,88.5L173.75093999999999,88.5L174.00438,88.5L174.38454000000002,88.5L174.7647,88.5L174.89141999999998,88.5L175.14486,88.5L175.27158,88.5L175.3983,88.5L175.52502,88.5L175.65174,88.5L175.77846000000002,88.5L175.90518,88.5L176.15862,88.5L176.28534,88.5L176.41206,88.5L176.79222,88.5L176.91894000000002,88.5L177.17237999999998,88.5L178.18614,88.5L178.31286,88.5L178.43958,88.5L178.56629999999998,88.5L178.69302000000002,88.5L178.94646,88.5L179.07318,88.5L179.1999,88.5L179.32662,88.5L179.58006,88.5L179.70677999999998,88.5L179.83350000000002,88.5L180.21366,88.5L180.34038,88.5L180.59382,88.5L181.86102,88.5L182.24117999999999,88.5L182.36790000000002,88.5L182.49462,88.5L182.62134,88.5L182.87478,88.5L183.0015,88.5L183.12822,88.5L183.38165999999998,88.5L183.76182,88.5L183.88854,88.5L184.01525999999998,88.5L184.14198,88.5L184.2687,88.5L184.39542,88.5L184.52213999999998,88.5L184.64886,88.5L184.9023,88.5L185.15573999999998,88.5L185.28246000000001,88.5L185.5359,88.5L185.78934,88.5L186.04278000000002,88.5L186.1695,88.5L186.29622,88.5L186.42294,88.5L186.54966,88.5L186.67638,88.5L187.18326000000002,88.5L187.81686,88.5L187.94358,88.5L188.19701999999998,88.5L188.32374000000002,88.5L188.45046,88.5L188.83061999999998,88.5L188.95734000000002,88.5L189.08406,88.5L189.3375,88.5L189.59094,88.5L189.71766000000002,88.5L190.09782,88.5L190.35126,88.5L190.6047,88.5L190.73141999999999,88.5L190.98486,88.5L191.11157999999998,88.5L191.49174,88.5L191.61846,88.5L191.74518,88.5L191.99862000000002,88.5L192.12534,88.5L192.25205999999997,88.5L192.63222000000002,88.5L192.75894,88.5L192.88566,88.5L193.01238,88.5L193.1391,88.5L193.26582,88.5L193.51926,88.5L193.89942,88.5L194.02614,88.5L194.27958,88.5L194.78645999999998,88.5L194.91318,88.5L195.16662,88.5L195.29334,88.5L195.67350000000002,88.5L195.92693999999997,88.5L196.18037999999999,88.5L196.43382,88.5L196.56054,88.5L196.68726,88.5L196.81398000000002,88.5L197.06742,88.5L197.44758000000002,88.5L197.5743,88.5L197.82774,88.5L197.95446,88.5L198.08118,88.5L198.33462,88.5L198.8415,88.5L199.09494,88.5L199.22165999999999,88.5L199.4751,88.5L199.60181999999998,88.5L199.72854,88.5L199.85526,88.5L199.98198000000002,88.5L200.1087,88.5L200.61558,88.5L200.7423,88.5L200.86902,88.5L200.99573999999998,88.5L201.12246000000002,88.5L201.3759,88.5L201.62934,88.5L201.75606,88.5L201.88278,88.5L202.0095,88.5L202.13621999999998,88.5L202.26294000000001,88.5L202.6431,88.5L203.02326,88.5L203.27669999999998,88.5L203.53014,88.5L203.65686000000002,88.5L203.78358,88.5L203.9103,88.5L204.03702,88.5L204.5439,88.5L205.1775,88.5L205.43094,88.5L205.55766,88.5L205.68438,88.5L205.93782000000002,88.5L206.06454,88.5L206.19126,88.5L206.57142,88.5L206.95157999999998,88.5L207.0783,88.5L207.20502,88.5L207.45846,88.5L207.58517999999998,88.5L207.7119,88.5L207.96534,88.5L208.09206,88.5L208.3455,88.5L208.47222000000002,88.5L208.59894,88.5L208.72565999999998,88.5L208.85238,88.5L208.9791,88.5L209.23254,88.5L209.35926,88.5L209.73942,88.5L210.37302,88.5L210.8799,88.5L211.89366,88.5L212.02038,88.5L212.14710000000002,88.5L212.27382,88.5L212.40053999999998,88.5L212.7807,88.5L212.90742,88.5L213.16085999999999,88.5L213.28758000000002,88.5L213.54101999999997,88.5L213.66774,88.5L213.79446,88.5L213.92118,88.5L214.17462,88.5L214.42806000000002,88.5L214.55478,88.5L214.68150000000003,88.5L214.93493999999998,88.5L215.06166000000002,88.5L215.18838,88.5L215.44182,88.5L215.69526,88.5L216.45558,88.5L216.70902,88.5L217.21589999999998,88.5L217.46934,88.5L217.59606,88.5L218.10294000000002,88.5L218.73654000000002,88.5L218.86326,88.5L219.37014,88.5L219.75029999999998,88.5L219.87702000000002,88.5L220.25718,88.5L220.3839,88.5L220.63734,88.5L220.76406,88.5L220.89077999999998,88.5L221.0175,88.5L221.27094,88.5L221.39766,88.5L221.77782,88.5L221.90454,88.5L222.03126,88.5L222.15798,88.5L222.2847,88.5L222.79158,88.5L223.17174,88.5L223.29846,88.5L223.42517999999998,88.5L223.55190000000002,88.5L223.80534,88.5L223.93206,88.5L224.05878,88.5L224.1855,88.5L224.31222,88.5L224.43894,88.5L224.56565999999998,88.5L224.69238,88.5L224.8191,88.5L225.19926,88.5L225.4527,88.5L226.08630000000002,88.5L226.21302,88.5L226.33974,88.5L226.59318,88.5L227.10005999999998,88.5L227.48022,88.5L227.73366,88.5L228.24053999999998,88.5L228.36726000000002,88.5L228.49398,88.5L228.6207,88.5L229.00086,88.5L229.2543,88.5L229.38102,88.5L229.50774,88.5L229.63446,88.5L229.8879,88.5L230.14134,88.5L230.26806,88.5L230.64822,88.5L230.77494,88.5L231.02838,88.5L231.15509999999998,88.5L231.28182,88.5L231.91541999999998,88.5L232.04214000000002,88.5L232.16886,88.5L233.18262000000001,88.5L233.30934,88.5L233.43606000000003,88.5L233.68949999999998,88.5L233.81622000000002,88.5L233.94294,88.5L234.06966,88.5L234.19638,88.5L234.3231,88.5L234.44982,88.5L234.70326,88.5L234.9567,88.5L235.08342,88.5L235.21014,88.5L235.46358,88.5L235.59029999999998,88.5L235.84374,88.5L236.09718,88.5L236.2239,88.5L236.47734,88.5L236.60406,88.5L237.11094000000003,88.5L237.23766,88.5L237.36437999999998,88.5L237.49110000000002,88.5L237.61782,88.5L237.74454,88.5L237.87126,88.5L238.1247,88.5L238.25142000000002,88.5L238.37814,88.5L238.50485999999998,88.5L239.01174,88.5L239.26518,88.5L239.39190000000002,88.5L239.51862,88.5L239.77206,88.5L240.0255,88.5L240.27894,88.5L240.53238000000002,88.5L240.6591,88.5L240.78582,88.5L241.03925999999998,88.5L241.16598000000002,88.5L241.2927,88.5L241.41942,88.5L241.54614,88.5L241.67286000000001,88.5L241.79958,88.5L241.9263,88.5L242.05302,88.5L242.5599,88.5L242.68662,88.5L242.94006,88.5L243.06678,88.5L243.44694,88.5L243.57366,88.5L243.70038,88.5L243.8271,88.5L243.95382,88.5L244.20726,88.5L244.71414,88.5L244.96758,88.5L245.0943,88.5L245.22102,88.5L245.60118,88.5L245.7279,88.5L245.98134000000002,88.5L246.10806,88.5L246.23478,88.5L246.48821999999998,88.5L246.61494,88.5L246.74166,88.5L246.86838,88.5L247.12182,88.5L247.37526,88.5L247.62869999999998,88.5L247.75542000000002,88.5L248.00886,88.5L248.13558,88.5L248.2623,88.5L248.38902,88.5L248.64246,88.5L249.02262,88.5L249.14934,88.5L249.27606,88.5L249.40278,88.5L249.52949999999998,88.5L249.78294,88.5L249.90966,88.5L250.03638,88.5L250.1631,88.5L250.28982,88.5L250.41654,88.5L250.54326,88.5L250.66997999999998,88.5L250.92342,88.5L251.05014,88.5L251.17686,88.5L251.68374,88.5L252.0639,88.5L252.19062000000002,88.5L252.31734,88.5L252.6975,88.5L252.82422,88.5L252.95094,88.5L253.07766,88.5L253.20438,88.5L253.45782,88.5L253.58453999999998,88.5L253.71126,88.5L254.09142,88.5L254.21814,88.5L254.47158000000002,88.5L254.72501999999997,88.5L254.85174,88.5L255.2319,88.5L255.48534,88.5L255.61206,88.5L255.73878,88.5" style="fill: none;" fill="none"></path></g></g></g></g><g opacity="0.2"><g><g><g><path stroke="rgb(255, 112, 67)" stroke-width="2px" d="M31.571099999999998,88.5L31.824540000000002,88.5L31.95126,88.5L32.45814,88.5L32.58486,88.5L32.838300000000004,88.5L32.96502,88.5L33.09174,88.5L33.21846,88.5L33.34518,88.5L33.4719,88.5L33.59862,88.5L33.72534,88.5L34.23222,88.5L34.35894,88.5L35.372699999999995,88.5L35.49942,88.5L35.752860000000005,88.5L36.13302,88.5L36.25974,88.5L36.51318,88.5L36.6399,88.5L36.76662,88.5L36.89334,88.5L37.14678,88.5L37.400220000000004,88.5L37.52694,88.5L37.9071,88.5L38.03382,88.5L38.160540000000005,88.5L38.287259999999996,88.5L38.41398,88.5L38.79414,88.5L38.92086,88.5L39.1743,88.5L39.42774,88.5L39.55446,88.5L39.68118,88.5L39.807900000000004,88.5L40.18806,88.5L40.31478,88.5L40.441500000000005,88.5L40.56822,88.5L40.82166,88.5L41.075100000000006,88.5L41.20182,88.5L41.83542,88.5L41.96214,88.5L42.088860000000004,88.5L42.21558,88.5L42.342299999999994,88.5L42.46902,88.5L43.10262,88.5L44.2431,88.5L44.49654,88.5L44.62326,88.5L44.74998,88.5L45.63702,88.5L46.017179999999996,88.5L46.27062,88.5L46.39733999999999,88.5L46.52406,88.5L47.030939999999994,88.5L47.15766,88.5L47.28438,88.5L47.664539999999995,88.5L47.79126,88.5L48.171420000000005,88.5L48.6783,88.5L48.93174,88.5L49.18518,88.5L49.3119,88.5L49.43862,88.5L49.56534,88.5L49.69206,88.5L49.818780000000004,88.5L50.072219999999994,88.5L50.32566,88.5L50.705819999999996,88.5L50.83254,88.5L50.95926,88.5L51.2127,88.5L51.33942,88.5L51.46614,88.5L51.71957999999999,88.5L51.8463,88.5L52.099740000000004,88.5L52.22646,88.5L52.4799,88.5L52.60662,88.5L52.986779999999996,88.5L53.493660000000006,88.5L53.62038,88.5L53.747099999999996,88.5L53.87382,88.5L54.12726,88.5L54.25398,88.5L54.50742,88.5L54.76086,88.5L54.88758,88.5L55.0143,88.5L55.141020000000005,88.5L55.394459999999995,88.5L55.52118,88.5L56.53494,88.5L57.041819999999994,88.5L57.548700000000004,88.5L57.675419999999995,88.5L57.80214,88.5L58.30902,88.5L58.43574,88.5L58.56246,88.5L58.68918,88.5L59.06934,88.5L59.19606,88.5L59.57622,88.5L59.70294,88.5L59.95638,88.5L60.083099999999995,88.5L60.20982,88.5L60.463260000000005,88.5L60.58998,88.5L60.716699999999996,88.5L60.84342,88.5L60.97014,88.5L61.09686,88.5L61.47702,88.5L61.60374,88.5L61.85718,88.5L62.364059999999995,88.5L62.49078,88.5L62.74422,88.5L62.997659999999996,88.5L63.12438,88.5L63.757979999999996,88.5L64.13814,88.5L64.26486,88.5L64.39157999999999,88.5L64.5183,88.5L64.77174,88.5L65.27862,88.5L65.53206,88.5L65.7855,88.5L65.91222,88.5L66.03894,88.5L66.54582,88.5L66.67254,88.5L66.92598,88.5L67.17942000000001,88.5L67.43285999999999,88.5L68.06645999999999,88.5L68.44662,88.5L68.57334,88.5L68.9535,88.5L69.20694,88.5L69.33366,88.5L69.46038,88.5L69.71382,88.5L69.84054,88.5L69.96726000000001,88.5L70.47413999999999,88.5L70.60086,88.5L70.8543,88.5L71.23446,88.5L71.74134,88.5L71.86806,88.5L71.99478,88.5L72.1215,88.5L72.37494000000001,88.5L72.7551,88.5L72.88181999999999,88.5L73.00854,88.5L73.3887,88.5L73.51542,88.5L73.76886,88.5L74.52918,88.5L74.78262000000001,88.5L74.90934,88.5L75.03605999999999,88.5L75.16278,88.5L75.28949999999999,88.5L75.54294,88.5L75.66966000000001,88.5L76.30326,88.5L76.42998,88.5L76.68342,88.5L76.93686,88.5L77.06358,88.5L77.19030000000001,88.5L77.44373999999999,88.5L77.57046,88.5L77.69718,88.5L77.8239,88.5L78.07734,88.5L78.20406,88.5L78.45750000000001,88.5L78.58421999999999,88.5L78.83766,88.5L79.0911,88.5L79.34454000000001,88.5L79.47126,88.5L79.59798,88.5L79.85141999999999,88.5L79.97814,88.5L80.3583,88.5L80.48502,88.5L80.61174,88.5L80.86518000000001,88.5L81.11861999999999,88.5L81.24534,88.5L81.37206,88.5L81.49878,88.5L82.13238,88.5L82.63926,88.5L82.76598,88.5L83.01942000000001,88.5L83.39958,88.5L84.28662,88.5L84.41334,88.5L84.92022,88.5L85.04694,88.5L85.17366,88.5L85.42710000000001,88.5L85.68054,88.5L85.93397999999999,88.5L86.18742,88.5L87.3279,88.5L87.45462,88.5L87.58134,88.5L87.70806,88.5L87.96149999999999,88.5L88.08821999999999,88.5L88.46838,88.5L88.84854,88.5L89.22869999999999,88.5L89.60885999999999,88.5L89.73558,88.5L89.8623,88.5L89.98902,88.5L90.11574,88.5L90.36918,88.5L90.49589999999999,88.5L90.62262,88.5L90.87606,88.5L91.00278,88.5L91.12950000000001,88.5L91.38294,88.5L91.63637999999999,88.5L91.7631,88.5L92.26998,88.5L92.77686,88.5L93.28374,88.5L93.41046,88.5L93.6639,88.5L93.79062,88.5L94.04406,88.5L94.2975,88.5L94.67766,88.5L95.5647,88.5L95.94486,88.5L96.07158000000001,88.5L96.45174,88.5L96.57845999999999,88.5L96.70518,88.5L96.95862,88.5L97.08534,88.5L97.21206000000001,88.5L97.33878,88.5L97.59222,88.5L98.22582,88.5L98.35254,88.5L99.11286,88.5L99.3663,88.5L99.49302,88.5L99.61974000000001,88.5L99.74646000000001,88.5L99.87317999999999,88.5L99.9999,88.5L100.12662,88.5L100.25334,88.5L100.38006,88.5L100.50678,88.5L100.76022,88.5L101.14038,88.5L101.2671,88.5L101.39382,88.5L101.64726,88.5L101.77398000000001,88.5L102.15414,88.5L102.40758,88.5L102.66102,88.5L102.78774,88.5L103.1679,88.5L103.29462000000001,88.5L103.42134,88.5L103.67478,88.5L103.8015,88.5L103.92822,88.5L104.18166000000001,88.5L104.4351,88.5L104.56182,88.5L104.94198,88.5L105.0687,88.5L105.19542,88.5L105.32214,88.5L105.44886000000001,88.5L105.7023,88.5L105.82902,88.5L105.95573999999999,88.5L106.20918,88.5L106.3359,88.5L106.84277999999999,88.5L106.9695,88.5L107.09622,88.5L107.34966,88.5L107.47638,88.5L107.6031,88.5L107.72982,88.5L107.98325999999999,88.5L108.2367,88.5L108.36341999999999,88.5L108.49014,88.5L108.74358000000001,88.5L108.99702,88.5L109.25045999999999,88.5L109.37718,88.5L109.5039,88.5L109.88406,88.5L110.39093999999999,88.5L110.51765999999999,88.5L110.7711,88.5L110.89782,88.5L111.15126000000001,88.5L111.65813999999999,88.5L111.78486,88.5L112.03829999999999,88.5L112.29174,88.5L112.79862,88.5L113.17878,88.5L113.3055,88.5L113.55894,88.5L113.68566,88.5L113.81238,88.5L113.9391,88.5L114.06581999999999,88.5L114.19254,88.5L114.31926,88.5L114.44598,88.5L114.5727,88.5L115.07957999999999,88.5L115.2063,88.5L115.45974,88.5L115.71318,88.5L116.09334000000001,88.5L116.34678,88.5L116.4735,88.5L116.60022,88.5L116.98038,88.5L117.1071,88.5L117.23382000000001,88.5L117.36054,88.5L117.48725999999999,88.5L117.74069999999999,88.5L117.86742,88.5L118.12086000000001,88.5L118.3743,88.5L118.50102000000001,88.5L118.62773999999999,88.5L118.75446,88.5L118.88118,88.5L119.00789999999999,88.5L119.26134,88.5L119.38806,88.5L119.76822000000001,88.5L120.2751,88.5L120.65526,88.5L120.78198,88.5L120.90870000000001,88.5L121.03541999999999,88.5L121.16214,88.5L121.28886,88.5L121.41557999999999,88.5L121.5423,88.5L121.79574000000001,88.5L121.92246,88.5L122.04918,88.5L122.55606,88.5L123.06294,88.5L123.18966,88.5L123.4431,88.5L123.56981999999999,88.5L123.69654,88.5L123.82326,88.5L123.94998,88.5L124.0767,88.5L124.45686,88.5L124.58358,88.5L124.71029999999999,88.5L125.3439,88.5L125.59734,88.5L125.72406,88.5L125.85078,88.5L125.97749999999999,88.5L126.23094,88.5L126.61110000000001,88.5L126.73782,88.5L127.11798,88.5L127.2447,88.5L127.37142,88.5L127.49814,88.5L127.62486,88.5L127.87830000000001,88.5L128.25846,88.5L128.38518,88.5L128.63862,88.5L129.01878,88.5L129.1455,88.5L129.27222,88.5L129.52566000000002,88.5L129.65238,88.5L129.7791,88.5L129.90582,88.5L130.03253999999998,88.5L130.15926,88.5L130.28598,88.5L130.53942,88.5L130.91958,88.5L131.0463,88.5L131.55318,88.5L131.6799,88.5L131.93334000000002,88.5L132.18678,88.5L132.44021999999998,88.5L132.56694,88.5L132.69366,88.5L132.82038,88.5L132.9471,88.5L133.07382,88.5L133.32726,88.5L133.5807,88.5L133.83414,88.5L134.2143,88.5L134.34102000000001,88.5L134.46774000000002,88.5L134.59446,88.5L134.72118,88.5L134.97462,88.5L135.10134,88.5L135.22806,88.5L135.4815,88.5L135.60822000000002,88.5L135.86166,88.5L136.24182,88.5L136.49526,88.5L136.62198,88.5L136.7487,88.5L137.12886,88.5L137.50902,88.5L137.63574,88.5L137.88918,88.5L138.14262,88.5L138.39606,88.5L138.52278,88.5L139.02966,88.5L139.2831,88.5L139.40982,88.5L139.53654,88.5L139.66325999999998,88.5L139.9167,88.5L140.04342,88.5L140.17014,88.5L140.29686,88.5L140.80374,88.5L141.05718,88.5L141.18390000000002,88.5L141.31062,88.5L141.43734,88.5L141.56406,88.5L142.07094,88.5L142.19765999999998,88.5L142.32438000000002,88.5L142.4511,88.5L142.95798,88.5L143.0847,88.5L143.21142,88.5L143.33813999999998,88.5L143.46486000000002,88.5L143.7183,88.5L143.84502,88.5L143.97173999999998,88.5L144.09846,88.5L144.3519,88.5L144.73206,88.5L144.9855,88.5L145.11221999999998,88.5L145.36566,88.5L145.49238,88.5L145.6191,88.5L145.87254,88.5L145.99926000000002,88.5L146.25269999999998,88.5L146.37942,88.5L147.01301999999998,88.5L147.26646,88.5L147.39317999999997,88.5L147.5199,88.5L147.64661999999998,88.5L147.77334,88.5L147.90006,88.5L148.02678,88.5L148.28022,88.5L148.40694,88.5L148.53366000000003,88.5L148.91382000000002,88.5L149.04054,88.5L149.16726,88.5L149.29398,88.5L149.54742,88.5L150.30774,88.5L150.43446,88.5L150.56118,88.5L150.81462000000002,88.5L151.3215,88.5L151.70166,88.5L152.08182,88.5L152.46197999999998,88.5L152.58870000000002,88.5L152.84214,88.5L152.96886,88.5L153.09558,88.5L153.2223,88.5L153.47574,88.5L153.60245999999998,88.5L153.72918,88.5L153.8559,88.5L153.98262,88.5L154.10934,88.5L154.23606,88.5L154.36278,88.5L154.48950000000002,88.5L154.74293999999998,88.5L154.86966,88.5L155.1231,88.5L155.50325999999998,88.5L155.62998000000002,88.5L155.88342,88.5L156.13685999999998,88.5L156.26358000000002,88.5L156.3903,88.5L156.51702,88.5L156.89718,88.5L157.0239,88.5L157.15062,88.5L157.27733999999998,88.5L157.53078,88.5L157.6575,88.5L158.67126,88.5L159.05142,88.5L159.17813999999998,88.5L159.43158,88.5L159.5583,88.5L159.68502,88.5L159.81174,88.5L160.1919,88.5L160.31862,88.5L160.57206,88.5L160.69878,88.5L160.8255,88.5L160.95221999999998,88.5L161.33238,88.5L162.34614,88.5L162.47286,88.5L162.59958,88.5L162.85302,88.5L163.10646,88.5L163.23318,88.5L163.3599,88.5L163.61334000000002,88.5L163.74006,88.5L163.86678,88.5L163.9935,88.5L164.12022,88.5L164.50038,88.5L164.62709999999998,88.5L164.75382000000002,88.5L165.38742,88.5L165.64086,88.5L165.76757999999998,88.5L166.02102,88.5L166.14774,88.5L166.40117999999998,88.5L167.1615,88.5L167.28822000000002,88.5L167.54165999999998,88.5L167.7951,88.5L167.92182,88.5L168.42870000000002,88.5L168.55542,88.5L168.68213999999998,88.5L168.80886,88.5L168.93558,88.5L169.18902,88.5L169.44245999999998,88.5L169.56918000000002,88.5L169.6959,88.5L169.82261999999997,88.5L169.94934,88.5L170.07605999999998,88.5L170.20278,88.5L170.70966,88.5L170.96310000000003,88.5L171.08982,88.5L171.72342,88.5L171.85014,88.5L172.10358000000002,88.5L172.35701999999998,88.5L172.48374,88.5L172.61046,88.5L172.8639,88.5L173.24406000000002,88.5L173.37078,88.5L173.75093999999999,88.5L174.00438,88.5L174.38454000000002,88.5L174.7647,88.5L174.89141999999998,88.5L175.14486,88.5L175.27158,88.5L175.3983,88.5L175.52502,88.5L175.65174,88.5L175.77846000000002,88.5L175.90518,88.5L176.15862,88.5L176.28534,88.5L176.41206,88.5L176.79222,88.5L176.91894000000002,88.5L177.17237999999998,88.5L178.18614,88.5L178.31286,88.5L178.43958,88.5L178.56629999999998,88.5L178.69302000000002,88.5L178.94646,88.5L179.07318,88.5L179.1999,88.5L179.32662,88.5L179.58006,88.5L179.70677999999998,88.5L179.83350000000002,88.5L180.21366,88.5L180.34038,88.5L180.59382,88.5L181.86102,88.5L182.24117999999999,88.5L182.36790000000002,88.5L182.49462,88.5L182.62134,88.5L182.87478,88.5L183.0015,88.5L183.12822,88.5L183.38165999999998,88.5L183.76182,88.5L183.88854,88.5L184.01525999999998,88.5L184.14198,88.5L184.2687,88.5L184.39542,88.5L184.52213999999998,88.5L184.64886,88.5L184.9023,88.5L185.15573999999998,88.5L185.28246000000001,88.5L185.5359,88.5L185.78934,88.5L186.04278000000002,88.5L186.1695,88.5L186.29622,88.5L186.42294,88.5L186.54966,88.5L186.67638,88.5L187.18326000000002,88.5L187.81686,88.5L187.94358,88.5L188.19701999999998,88.5L188.32374000000002,88.5L188.45046,88.5L188.83061999999998,88.5L188.95734000000002,88.5L189.08406,88.5L189.3375,88.5L189.59094,88.5L189.71766000000002,88.5L190.09782,88.5L190.35126,88.5L190.6047,88.5L190.73141999999999,88.5L190.98486,88.5L191.11157999999998,88.5L191.49174,88.5L191.61846,88.5L191.74518,88.5L191.99862000000002,88.5L192.12534,88.5L192.25205999999997,88.5L192.63222000000002,88.5L192.75894,88.5L192.88566,88.5L193.01238,88.5L193.1391,88.5L193.26582,88.5L193.51926,88.5L193.89942,88.5L194.02614,88.5L194.27958,88.5L194.78645999999998,88.5L194.91318,88.5L195.16662,88.5L195.29334,88.5L195.67350000000002,88.5L195.92693999999997,88.5L196.18037999999999,88.5L196.43382,88.5L196.56054,88.5L196.68726,88.5L196.81398000000002,88.5L197.06742,88.5L197.44758000000002,88.5L197.5743,88.5L197.82774,88.5L197.95446,88.5L198.08118,88.5L198.33462,88.5L198.8415,88.5L199.09494,88.5L199.22165999999999,88.5L199.4751,88.5L199.60181999999998,88.5L199.72854,88.5L199.85526,88.5L199.98198000000002,88.5L200.1087,88.5L200.61558,88.5L200.7423,88.5L200.86902,88.5L200.99573999999998,88.5L201.12246000000002,88.5L201.3759,88.5L201.62934,88.5L201.75606,88.5L201.88278,88.5L202.0095,88.5L202.13621999999998,88.5L202.26294000000001,88.5L202.6431,88.5L203.02326,88.5L203.27669999999998,88.5L203.53014,88.5L203.65686000000002,88.5L203.78358,88.5L203.9103,88.5L204.03702,88.5L204.5439,88.5L205.1775,88.5L205.43094,88.5L205.55766,88.5L205.68438,88.5L205.93782000000002,88.5L206.06454,88.5L206.19126,88.5L206.57142,88.5L206.95157999999998,88.5L207.0783,88.5L207.20502,88.5L207.45846,88.5L207.58517999999998,88.5L207.7119,88.5L207.96534,88.5L208.09206,88.5L208.3455,88.5L208.47222000000002,88.5L208.59894,88.5L208.72565999999998,88.5L208.85238,88.5L208.9791,88.5L209.23254,88.5L209.35926,88.5L209.73942,88.5L210.37302,88.5L210.8799,88.5L211.89366,88.5L212.02038,88.5L212.14710000000002,88.5L212.27382,88.5L212.40053999999998,88.5L212.7807,88.5L212.90742,88.5L213.16085999999999,88.5L213.28758000000002,88.5L213.54101999999997,88.5L213.66774,88.5L213.79446,88.5L213.92118,88.5L214.17462,88.5L214.42806000000002,88.5L214.55478,88.5L214.68150000000003,88.5L214.93493999999998,88.5L215.06166000000002,88.5L215.18838,88.5L215.44182,88.5L215.69526,88.5L216.45558,88.5L216.70902,88.5L217.21589999999998,88.5L217.46934,88.5L217.59606,88.5L218.10294000000002,88.5L218.73654000000002,88.5L218.86326,88.5L219.37014,88.5L219.75029999999998,88.5L219.87702000000002,88.5L220.25718,88.5L220.3839,88.5L220.63734,88.5L220.76406,88.5L220.89077999999998,88.5L221.0175,88.5L221.27094,88.5L221.39766,88.5L221.77782,88.5L221.90454,88.5L222.03126,88.5L222.15798,88.5L222.2847,88.5L222.79158,88.5L223.17174,88.5L223.29846,88.5L223.42517999999998,88.5L223.55190000000002,88.5L223.80534,88.5L223.93206,88.5L224.05878,88.5L224.1855,88.5L224.31222,88.5L224.43894,88.5L224.56565999999998,88.5L224.69238,88.5L224.8191,88.5L225.19926,88.5L225.4527,88.5L226.08630000000002,88.5L226.21302,88.5L226.33974,88.5L226.59318,88.5L227.10005999999998,88.5L227.48022,88.5L227.73366,88.5L228.24053999999998,88.5L228.36726000000002,88.5L228.49398,88.5L228.6207,88.5L229.00086,88.5L229.2543,88.5L229.38102,88.5L229.50774,88.5L229.63446,88.5L229.8879,88.5L230.14134,88.5L230.26806,88.5L230.64822,88.5L230.77494,88.5L231.02838,88.5L231.15509999999998,88.5L231.28182,88.5L231.91541999999998,88.5L232.04214000000002,88.5L232.16886,88.5L233.18262000000001,88.5L233.30934,88.5L233.43606000000003,88.5L233.68949999999998,88.5L233.81622000000002,88.5L233.94294,88.5L234.06966,88.5L234.19638,88.5L234.3231,88.5L234.44982,88.5L234.70326,88.5L234.9567,88.5L235.08342,88.5L235.21014,88.5L235.46358,88.5L235.59029999999998,88.5L235.84374,88.5L236.09718,88.5L236.2239,88.5L236.47734,88.5L236.60406,88.5L237.11094000000003,88.5L237.23766,88.5L237.36437999999998,88.5L237.49110000000002,88.5L237.61782,88.5L237.74454,88.5L237.87126,88.5L238.1247,88.5L238.25142000000002,88.5L238.37814,88.5L238.50485999999998,88.5L239.01174,88.5L239.26518,88.5L239.39190000000002,88.5L239.51862,88.5L239.77206,88.5L240.0255,88.5L240.27894,88.5L240.53238000000002,88.5L240.6591,88.5L240.78582,88.5L241.03925999999998,88.5L241.16598000000002,88.5L241.2927,88.5L241.41942,88.5L241.54614,88.5L241.67286000000001,88.5L241.79958,88.5L241.9263,88.5L242.05302,88.5L242.5599,88.5L242.68662,88.5L242.94006,88.5L243.06678,88.5L243.44694,88.5L243.57366,88.5L243.70038,88.5L243.8271,88.5L243.95382,88.5L244.20726,88.5L244.71414,88.5L244.96758,88.5L245.0943,88.5L245.22102,88.5L245.60118,88.5L245.7279,88.5L245.98134000000002,88.5L246.10806,88.5L246.23478,88.5L246.48821999999998,88.5L246.61494,88.5L246.74166,88.5L246.86838,88.5L247.12182,88.5L247.37526,88.5L247.62869999999998,88.5L247.75542000000002,88.5L248.00886,88.5L248.13558,88.5L248.2623,88.5L248.38902,88.5L248.64246,88.5L249.02262,88.5L249.14934,88.5L249.27606,88.5L249.40278,88.5L249.52949999999998,88.5L249.78294,88.5L249.90966,88.5L250.03638,88.5L250.1631,88.5L250.28982,88.5L250.41654,88.5L250.54326,88.5L250.66997999999998,88.5L250.92342,88.5L251.05014,88.5L251.17686,88.5L251.68374,88.5L252.0639,88.5L252.19062000000002,88.5L252.31734,88.5L252.6975,88.5L252.82422,88.5L252.95094,88.5L253.07766,88.5L253.20438,88.5L253.45782,88.5L253.58453999999998,88.5L253.71126,88.5L254.09142,88.5L254.21814,88.5L254.47158000000002,88.5L254.72501999999997,88.5L254.85174,88.5L255.2319,88.5L255.48534,88.5L255.61206,88.5L255.73878,88.5" style="fill: none;" fill="none"></path></g></g></g></g></g></g><g transform="translate(51, 177)" clip-path="url(#clip_1)"><clipPath id="clip_1"><rect width="278" height="23"></rect></clipPath><g><g><line x1="0" y1="0" x2="0" y2="5" style="visibility: inherit;" fill="rgb(0, 0, 0)" stroke="rgb(204, 204, 204)" stroke-width="1px"></line><line x1="30.9375" y1="0" x2="30.9375" y2="5" style="visibility: inherit;" fill="rgb(0, 0, 0)" stroke="rgb(204, 204, 204)" stroke-width="1px"></line><line x1="61.875" y1="0" x2="61.875" y2="5" style="visibility: inherit;" fill="rgb(0, 0, 0)" stroke="rgb(204, 204, 204)" stroke-width="1px"></line><line x1="92.8125" y1="0" x2="92.8125" y2="5" style="visibility: inherit;" fill="rgb(0, 0, 0)" stroke="rgb(204, 204, 204)" stroke-width="1px"></line><line x1="123.75" y1="0" x2="123.75" y2="5" style="visibility: inherit;" fill="rgb(0, 0, 0)" stroke="rgb(204, 204, 204)" stroke-width="1px"></line><line x1="154.6875" y1="0" x2="154.6875" y2="5" style="visibility: inherit;" fill="rgb(0, 0, 0)" stroke="rgb(204, 204, 204)" stroke-width="1px"></line><line x1="185.625" y1="0" x2="185.625" y2="5" style="visibility: inherit;" fill="rgb(0, 0, 0)" stroke="rgb(204, 204, 204)" stroke-width="1px"></line><line x1="216.5625" y1="0" x2="216.5625" y2="5" style="visibility: inherit;" fill="rgb(0, 0, 0)" stroke="rgb(204, 204, 204)" stroke-width="1px"></line><line x1="247.5" y1="0" x2="247.5" y2="5" style="visibility: inherit;" fill="rgb(0, 0, 0)" stroke="rgb(204, 204, 204)" stroke-width="1px"></line><line x1="278.4375" y1="0" x2="278.4375" y2="5" style="visibility: inherit;" fill="rgb(0, 0, 0)" stroke="rgb(204, 204, 204)" stroke-width="1px"></line></g><g transform="translate(0, 8)"><text x="0" y="0" dx="0em" dy="0.95em" style="text-anchor: middle; visibility: hidden; font-family: Roboto, sans-serif; font-size: 12px; font-weight: 200;" fill="rgb(33, 33, 33)" stroke="none" stroke-width="1px">-500k</text><text x="30.9375" y="0" dx="0em" dy="0.95em" style="text-anchor: middle; visibility: inherit; font-family: Roboto, sans-serif; font-size: 12px; font-weight: 200;" fill="rgb(33, 33, 33)" stroke="none" stroke-width="1px">0</text><text x="61.875" y="0" dx="0em" dy="0.95em" style="text-anchor: middle; visibility: inherit; font-family: Roboto, sans-serif; font-size: 12px; font-weight: 200;" fill="rgb(33, 33, 33)" stroke="none" stroke-width="1px">500k</text><text x="92.8125" y="0" dx="0em" dy="0.95em" style="text-anchor: middle; visibility: inherit; font-family: Roboto, sans-serif; font-size: 12px; font-weight: 200;" fill="rgb(33, 33, 33)" stroke="none" stroke-width="1px">1M</text><text x="123.75" y="0" dx="0em" dy="0.95em" style="text-anchor: middle; visibility: inherit; font-family: Roboto, sans-serif; font-size: 12px; font-weight: 200;" fill="rgb(33, 33, 33)" stroke="none" stroke-width="1px">1.5M</text><text x="154.6875" y="0" dx="0em" dy="0.95em" style="text-anchor: middle; visibility: inherit; font-family: Roboto, sans-serif; font-size: 12px; font-weight: 200;" fill="rgb(33, 33, 33)" stroke="none" stroke-width="1px">2M</text><text x="185.625" y="0" dx="0em" dy="0.95em" style="text-anchor: middle; visibility: inherit; font-family: Roboto, sans-serif; font-size: 12px; font-weight: 200;" fill="rgb(33, 33, 33)" stroke="none" stroke-width="1px">2.5M</text><text x="216.5625" y="0" dx="0em" dy="0.95em" style="text-anchor: middle; visibility: inherit; font-family: Roboto, sans-serif; font-size: 12px; font-weight: 200;" fill="rgb(33, 33, 33)" stroke="none" stroke-width="1px">3M</text><text x="247.5" y="0" dx="0em" dy="0.95em" style="text-anchor: middle; visibility: inherit; font-family: Roboto, sans-serif; font-size: 12px; font-weight: 200;" fill="rgb(33, 33, 33)" stroke="none" stroke-width="1px">3.5M</text><text x="278.4375" y="0" dx="0em" dy="0.95em" style="text-anchor: middle; visibility: hidden; font-family: Roboto, sans-serif; font-size: 12px; font-weight: 200;" fill="rgb(33, 33, 33)" stroke="none" stroke-width="1px">4M</text></g><line x1="0" y1="0" x2="278.4375" y2="0" fill="rgb(0, 0, 0)" stroke="rgb(204, 204, 204)" stroke-width="1px"></line></g></g></g></g></svg>