<svg viewBox="0 0 330 200" xmlns="http://www.w3.org/2000/svg"><g><g><g><g><g><line x1="72.34375" y1="177" x2="67.34375" y2="177" style="visibility: inherit;" fill="rgb(0, 0, 0)" stroke="rgb(204, 204, 204)" stroke-width="1px"></line><line x1="72.34375" y1="162.25000070058738" x2="67.34375" y2="162.25000070058738" style="visibility: inherit;" fill="rgb(0, 0, 0)" stroke="rgb(204, 204, 204)" stroke-width="1px"></line><line x1="72.34375" y1="147.50000140117473" x2="67.34375" y2="147.50000140117473" style="visibility: inherit;" fill="rgb(0, 0, 0)" stroke="rgb(204, 204, 204)" stroke-width="1px"></line><line x1="72.34375" y1="132.75000210176213" x2="67.34375" y2="132.75000210176213" style="visibility: inherit;" fill="rgb(0, 0, 0)" stroke="rgb(204, 204, 204)" stroke-width="1px"></line><line x1="72.34375" y1="118.00000280234948" x2="67.34375" y2="118.00000280234948" style="visibility: inherit;" fill="rgb(0, 0, 0)" stroke="rgb(204, 204, 204)" stroke-width="1px"></line><line x1="72.34375" y1="103.25000350293686" x2="67.34375" y2="103.25000350293686" style="visibility: inherit;" fill="rgb(0, 0, 0)" stroke="rgb(204, 204, 204)" stroke-width="1px"></line><line x1="72.34375" y1="88.50000420352424" x2="67.34375" y2="88.50000420352424" style="visibility: inherit;" fill="rgb(0, 0, 0)" stroke="rgb(204, 204, 204)" stroke-width="1px"></line><line x1="72.34375" y1="73.75000490411162" x2="67.34375" y2="73.75000490411162" style="visibility: inherit;" fill="rgb(0, 0, 0)" stroke="rgb(204, 204, 204)" stroke-width="1px"></line><line x1="72.34375" y1="59.000005604698984" x2="67.34375" y2="59.000005604698984" style="visibility: inherit;" fill="rgb(0, 0, 0)" stroke="rgb(204, 204, 204)" stroke-width="1px"></line><line x1="72.34375" y1="44.25000630528637" x2="67.34375" y2="44.25000630528637" style="visibility: inherit;" fill="rgb(0, 0, 0)" stroke="rgb(204, 204, 204)" stroke-width="1px"></line><line x1="72.34375" y1="29.500007005873726" x2="67.34375" y2="29.500007005873726" style="visibility: inherit;" fill="rgb(0, 0, 0)" stroke="rgb(204, 204, 204)" stroke-width="1px"></line><line x1="72.34375" y1="14.750007706461108" x2="67.34375" y2="14.750007706461108" style="visibility: inherit;" fill="rgb(0, 0, 0)" stroke="rgb(204, 204, 204)" stroke-width="1px"></line><line x1="72.34375" y1="0.000008407048488034974" x2="67.34375" y2="0.000008407048488034974" style="visibility: inherit;" fill="rgb(0, 0, 0)" stroke="rgb(204, 204, 204)" stroke-width="1px"></line></g><g transform="translate(62.34375, 0)"><text x="0" y="177" dx="0em" dy="0.3em" style="text-anchor: end; visibility: hidden; font-family: Roboto, sans-serif; font-size: 12px; font-weight: 200;" fill="rgb(33, 33, 33)" stroke="none" stroke-width="1px">0</text><text x="0" y="162.25000070058738" dx="0em" dy="0.3em" style="text-anchor: end; visibility: inherit; font-family: Roboto, sans-serif; font-size: 12px; font-weight: 200;" fill="rgb(33, 33, 33)" stroke="none" stroke-width="1px">5e-5</text><text x="0" y="147.50000140117473" dx="0em" dy="0.3em" style="text-anchor: end; visibility: hidden; font-family: Roboto, sans-serif; font-size: 12px; font-weight: 200;" fill="rgb(33, 33, 33)" stroke="none" stroke-width="1px">1e-4</text><text x="0" y="132.75000210176213" dx="0em" dy="0.3em" style="text-anchor: end; visibility: inherit; font-family: Roboto, sans-serif; font-size: 12px; font-weight: 200;" fill="rgb(33, 33, 33)" stroke="none" stroke-width="1px">1.5e-4</text><text x="0" y="118.00000280234948" dx="0em" dy="0.3em" style="text-anchor: end; visibility: hidden; font-family: Roboto, sans-serif; font-size: 12px; font-weight: 200;" fill="rgb(33, 33, 33)" stroke="none" stroke-width="1px">2e-4</text><text x="0" y="103.25000350293686" dx="0em" dy="0.3em" style="text-anchor: end; visibility: inherit; font-family: Roboto, sans-serif; font-size: 12px; font-weight: 200;" fill="rgb(33, 33, 33)" stroke="none" stroke-width="1px">2.5e-4</text><text x="0" y="88.50000420352424" dx="0em" dy="0.3em" style="text-anchor: end; visibility: hidden; font-family: Roboto, sans-serif; font-size: 12px; font-weight: 200;" fill="rgb(33, 33, 33)" stroke="none" stroke-width="1px">3e-4</text><text x="0" y="73.75000490411162" dx="0em" dy="0.3em" style="text-anchor: end; visibility: inherit; font-family: Roboto, sans-serif; font-size: 12px; font-weight: 200;" fill="rgb(33, 33, 33)" stroke="none" stroke-width="1px">3.5e-4</text><text x="0" y="59.000005604698984" dx="0em" dy="0.3em" style="text-anchor: end; visibility: hidden; font-family: Roboto, sans-serif; font-size: 12px; font-weight: 200;" fill="rgb(33, 33, 33)" stroke="none" stroke-width="1px">4e-4</text><text x="0" y="44.25000630528637" dx="0em" dy="0.3em" style="text-anchor: end; visibility: inherit; font-family: Roboto, sans-serif; font-size: 12px; font-weight: 200;" fill="rgb(33, 33, 33)" stroke="none" stroke-width="1px">4.5e-4</text><text x="0" y="29.500007005873726" dx="0em" dy="0.3em" style="text-anchor: end; visibility: hidden; font-family: Roboto, sans-serif; font-size: 12px; font-weight: 200;" fill="rgb(33, 33, 33)" stroke="none" stroke-width="1px">5e-4</text><text x="0" y="14.750007706461108" dx="0em" dy="0.3em" style="text-anchor: end; visibility: inherit; font-family: Roboto, sans-serif; font-size: 12px; font-weight: 200;" fill="rgb(33, 33, 33)" stroke="none" stroke-width="1px">5.5e-4</text><text x="0" y="0.000008407048488034974" dx="0em" dy="0.3em" style="text-anchor: end; visibility: hidden; font-family: Roboto, sans-serif; font-size: 12px; font-weight: 200;" fill="rgb(33, 33, 33)" stroke="none" stroke-width="1px">6e-4</text></g><line x1="72.34375" y1="0" x2="72.34375" y2="177" fill="rgb(0, 0, 0)" stroke="rgb(204, 204, 204)" stroke-width="1px"></line></g></g><g transform="translate(72, 0)" clip-path="url(#clip_0)"><clipPath id="clip_0"><rect width="257" height="177"></rect></clipPath><g><g><g><line x1="0" y1="0" x2="0" y2="177" fill="rgb(0, 0, 0)" stroke="rgb(66, 66, 66)" stroke-width="1px" opacity="0.25"></line><line x1="25.765625" y1="0" x2="25.765625" y2="177" fill="rgb(0, 0, 0)" stroke="rgb(66, 66, 66)" stroke-width="1px" opacity="0.25"></line><line x1="51.53125" y1="0" x2="51.53125" y2="177" fill="rgb(0, 0, 0)" stroke="rgb(66, 66, 66)" stroke-width="1px" opacity="0.25"></line><line x1="77.296875" y1="0" x2="77.296875" y2="177" fill="rgb(0, 0, 0)" stroke="rgb(66, 66, 66)" stroke-width="1px" opacity="0.25"></line><line x1="103.0625" y1="0" x2="103.0625" y2="177" fill="rgb(0, 0, 0)" stroke="rgb(66, 66, 66)" stroke-width="1px" opacity="0.25"></line><line x1="128.828125" y1="0" x2="128.828125" y2="177" fill="rgb(0, 0, 0)" stroke="rgb(66, 66, 66)" stroke-width="1px" opacity="0.25"></line><line x1="154.59375" y1="0" x2="154.59375" y2="177" fill="rgb(0, 0, 0)" stroke="rgb(66, 66, 66)" stroke-width="1px" opacity="0.25"></line><line x1="180.359375" y1="0" x2="180.359375" y2="177" fill="rgb(0, 0, 0)" stroke="rgb(66, 66, 66)" stroke-width="1px" opacity="0.25"></line><line x1="206.125" y1="0" x2="206.125" y2="177" fill="rgb(0, 0, 0)" stroke="rgb(66, 66, 66)" stroke-width="1px" opacity="0.25"></line><line x1="231.890625" y1="0" x2="231.890625" y2="177" fill="rgb(0, 0, 0)" stroke="rgb(66, 66, 66)" stroke-width="1px" opacity="0.25"></line><line x1="257.65625" y1="0" x2="257.65625" y2="177" fill="rgb(0, 0, 0)" stroke="rgb(66, 66, 66)" stroke-width="1px" opacity="0.25"></line></g><g><line x1="0" y1="177" x2="257.65625" y2="177" fill="rgb(0, 0, 0)" stroke="rgb(66, 66, 66)" stroke-width="1px" opacity="0.25"></line><line x1="0" y1="162.25000070058738" x2="257.65625" y2="162.25000070058738" fill="rgb(0, 0, 0)" stroke="rgb(66, 66, 66)" stroke-width="1px" opacity="0.25"></line><line x1="0" y1="147.50000140117473" x2="257.65625" y2="147.50000140117473" fill="rgb(0, 0, 0)" stroke="rgb(66, 66, 66)" stroke-width="1px" opacity="0.25"></line><line x1="0" y1="132.75000210176213" x2="257.65625" y2="132.75000210176213" fill="rgb(0, 0, 0)" stroke="rgb(66, 66, 66)" stroke-width="1px" opacity="0.25"></line><line x1="0" y1="118.00000280234948" x2="257.65625" y2="118.00000280234948" fill="rgb(0, 0, 0)" stroke="rgb(66, 66, 66)" stroke-width="1px" opacity="0.25"></line><line x1="0" y1="103.25000350293686" x2="257.65625" y2="103.25000350293686" fill="rgb(0, 0, 0)" stroke="rgb(66, 66, 66)" stroke-width="1px" opacity="0.25"></line><line x1="0" y1="88.50000420352424" x2="257.65625" y2="88.50000420352424" fill="rgb(0, 0, 0)" stroke="rgb(66, 66, 66)" stroke-width="1px" opacity="0.25"></line><line x1="0" y1="73.75000490411162" x2="257.65625" y2="73.75000490411162" fill="rgb(0, 0, 0)" stroke="rgb(66, 66, 66)" stroke-width="1px" opacity="0.25"></line><line x1="0" y1="59.000005604698984" x2="257.65625" y2="59.000005604698984" fill="rgb(0, 0, 0)" stroke="rgb(66, 66, 66)" stroke-width="1px" opacity="0.25"></line><line x1="0" y1="44.25000630528637" x2="257.65625" y2="44.25000630528637" fill="rgb(0, 0, 0)" stroke="rgb(66, 66, 66)" stroke-width="1px" opacity="0.25"></line><line x1="0" y1="29.500007005873726" x2="257.65625" y2="29.500007005873726" fill="rgb(0, 0, 0)" stroke="rgb(66, 66, 66)" stroke-width="1px" opacity="0.25"></line><line x1="0" y1="14.750007706461108" x2="257.65625" y2="14.750007706461108" fill="rgb(0, 0, 0)" stroke="rgb(66, 66, 66)" stroke-width="1px" opacity="0.25"></line><line x1="0" y1="0.000008407048488034974" x2="257.65625" y2="0.000008407048488034974" fill="rgb(0, 0, 0)" stroke="rgb(66, 66, 66)" stroke-width="1px" opacity="0.25"></line></g></g></g><g><g><line x1="0" y1="177" x2="257.65625" y2="177" fill="rgb(0, 0, 0)" stroke="rgb(153, 153, 153)" stroke-width="1.5px"></line></g></g><g><g><line x1="25.765625" y1="0" x2="25.765625" y2="177" fill="rgb(0, 0, 0)" stroke="rgb(153, 153, 153)" stroke-width="1.5px"></line></g></g><g><g><g><g><g><path stroke="rgb(0, 119, 187)" stroke-width="2px" d="M26.116758937500002,88.5L26.618415656249997,88.5L26.7454401875,88.5L27.01582465625,88.5L27.912416874999998,88.5L28.033412249999998,88.5L28.144255968750002,88.5L28.189242750000002,88.5L28.27205346875,88.5L28.621693,88.5L28.6719875,88.5L28.7514486875,88.5L29.22167134375,88.5L29.51009175,88.5L29.5542025,88.5L29.6056306875,88.5L29.677259125,88.5L29.951766093750003,88.5L30.3190293125,88.5L30.652900281249998,88.5L31.078909125,88.5L31.26808034375,88.5L31.29693784375,88.5L31.66198521875,88.5L31.9480351875,88.5L32.379557874999996,88.5L32.520701968750004,88.5L32.5517753125,88.5L33.02570821875,88.5L33.12660640625,88.5L33.172726875,88.5L33.64686590625,88.5L33.8959164375,88.5L34.03695746875,88.5L34.47275725,88.5L34.50079025,88.5L34.6490971875,88.5L34.95143103125,88.5L34.99193459375,88.5L35.195379968750004,88.5L35.3012766875,88.5L35.35924934375,88.5L35.58557459375,88.5L35.6409706875,88.5L35.963659375000006,88.5L36.388225343749994,88.5L36.443518375,88.5L36.514013125000005,88.5L36.71297528125,88.5L37.26631784375,88.5L37.622141125,88.5L37.836923375,88.5L37.961010625,88.5L38.71970521875,88.5L39.0414148125,88.5L39.307161468749996,88.5L39.45351021875,88.5L39.625521531249994,88.5L39.83370778125,88.5L39.92574259375,88.5L40.85402653125,88.5L41.047268718750004,88.5L41.09642953125,88.5L41.37675953125,88.5L41.5572735,88.5L41.60798025,88.5L41.72686284375,88.5L42.2072886875,88.5L42.278556406250004,88.5L42.55620678125,88.5L42.604594625000004,88.5L42.65555903125,88.5L42.83251734375,88.5L43.28186984375,88.5L43.727409031250005,88.5L44.570202625,88.5L44.79080790625,88.5L45.08659728124999,88.5L45.35177709375,88.5L45.42340553125,88.5L46.03343246875,88.5L46.0785223125,88.5L46.99273821875,88.5L47.67758853125,88.5L47.720204875,88.5L47.7837944375,88.5L48.10668925,88.5L48.59773053125,88.5L48.68141728125,88.5L48.762372875,88.5L48.897539343750005,88.5L49.16488346875,88.5L49.62619121875,88.5L49.78614421875,88.5L49.8413341875,88.5L50.28455446875,88.5L50.32938665625,88.5L51.127863375000004,88.5L51.27694328125,88.5L51.38773546875,88.5L52.11097656250001,88.5L52.393419343750004,88.5L52.495708875000005,88.5L52.6253615,88.5L53.1110950625,88.5L53.437854718749996,88.5L53.54895609375,88.5L53.7383334375,88.5L54.0850356875,88.5L54.2656011875,88.5L54.806163999999995,88.5L54.924892,88.5L55.117876531250005,88.5L55.3976396875,88.5L55.579338875,88.5L55.6503489375,88.5L55.93619278125,88.5L56.0263209375,88.5L56.06161984375,88.5L56.1555613125,88.5L56.25027575,88.5L56.3099489375,88.5L56.652631750000005,88.5L56.7182825625,88.5L57.1365101875,88.5L57.4250851875,88.5L57.52778696875,88.5L57.779929375,88.5L58.07948053125,88.5L58.2089785625,88.5L58.7810785,88.5L59.07939290625,88.5L59.113506593749996,88.5L59.21997015625,88.5L59.25336240625,88.5L59.2925776875,88.5L59.34323290625,88.5L59.43320646875,88.5L59.56739384375,88.5L59.8198454375,88.5L60.055549375000005,88.5L60.191798000000006,88.5L60.3982321875,88.5L60.546333,88.5L60.599667843750005,88.5L60.702988,88.5L60.78172775,88.5L60.916739625000005,88.5L60.9489981875,88.5L61.07524975,88.5L61.1244105625,88.5L61.40788396875,88.5L61.44612015625,88.5L61.783701375,88.5L61.9159305625,88.5L62.078254,88.5L62.225942562499995,88.5L62.362912625,88.5L62.4731895,88.5L62.668647531249995,88.5L62.87611234375,88.5L63.060285031250004,88.5L63.12088578125,88.5L63.177518625,88.5L63.5618386875,88.5L63.90364546875,88.5L64.02216734375,88.5L64.05988821875,88.5L64.26864131250001,88.5L64.480847,88.5L64.63569840625,88.5L64.69284656250001,88.5L64.75081921875,88.5L64.8816570625,88.5L65.018421,88.5L65.51301793750001,88.5L65.59722,88.5L65.764387375,88.5L65.815094125,88.5L65.85884415625,88.5L65.9374293125,88.5L65.9687603125,88.5L66.2822764375,88.5L66.509117,88.5L66.5795086875,88.5L66.69143456249999,88.5L66.843245625,88.5L66.9781544375,88.5L67.03612709375,88.5L67.0871945625,88.5L67.11878321875,88.5L67.28316790625,88.5L67.48573725,88.5L67.78307256250001,88.5L67.84604374999999,88.5L67.94008828125,88.5L68.21294625,88.5L68.45323646874999,88.5L68.645190375,88.5L68.78612834375,88.5L68.95705749999999,88.5L69.19147315625,88.5L69.28515696875,88.5L69.53049725,88.5L69.64520581250001,88.5L70.69020803125001,88.5L70.797135375,88.5L70.83897875000001,88.5L71.04257871875,88.5L71.14821778125,88.5L71.36475209375,88.5L71.47399834375,88.5L71.58963446875,88.5L71.8944418125,88.5L72.181677,88.5L72.42093659375,88.5L72.7644954375,88.5L72.84679084375,88.5L72.90873140625001,88.5L72.95938662500001,88.5L73.2076641875,88.5L73.3395841875,88.5L73.5429265,88.5L73.59260262500001,88.5L73.68128790624999,88.5L74.133886875,88.5L74.19093196875001,88.5L74.36031518749999,88.5L74.765453875,88.5L74.95627409375,88.5L75.4595798125,88.5L75.58619209375,88.5L75.64133053125,88.5L75.707445125,88.5L75.8953280625,88.5L75.97432546875,88.5L76.19163275,88.5L76.40131340625,88.5L76.42553309375,88.5L76.61954825,88.5L76.66298909375,88.5L76.69535071875,88.5L76.760743875,88.5L77.022934875,88.5L77.0739508125,88.5L77.20056309375,88.5L77.26080312500001,88.5L77.73174721875,88.5L77.944725875,88.5L77.98579628125,88.5L78.0767489375,88.5L78.1466253125,88.5L78.56969687499999,88.5L78.6161780625,88.5L78.63514156250001,88.5L78.73207184375,88.5L79.2353775625,88.5L79.34354165625,88.5L79.56976384375001,88.5L79.60094025000001,88.5L79.775322,88.5L79.90311949999999,88.5L80.24724518750001,88.5L80.81939665624999,88.5L80.9581703125,88.5L81.28235340625,88.5L81.34625215625,88.5L81.45601371875,88.5L81.549852125,88.5L81.75206075,88.5L81.94927084375,88.5L82.03816225,88.5L82.321584125,88.5L82.39429471875,88.5L82.42031800000001,88.5L82.852974375,88.5L83.12232821875,88.5L83.35895971875,88.5L83.41672625,88.5L83.4662993125,88.5L83.951620625,88.5L84.05339484375,88.5L84.19964053125,88.5L84.53696409375,88.5L84.58808309375,88.5L84.94375178125,88.5L85.02352215625,88.5L86.12660009375,88.5L86.19673412499999,88.5L86.24883221875,88.5L86.46969515625,88.5L86.52720403125001,88.5L86.56100853125001,88.5L87.618584375,88.5L87.785133375,88.5L87.88742290625,88.5L88.25195496875,88.5L88.2978693125,88.5L88.67554184375,88.5L88.79066265625,88.5L88.99895196874999,88.5L89.10541553125,88.5L89.18363996875,88.5L89.42063218749999,88.5L89.95320765625,88.5L90.3758154375,88.5L90.43445799999999,88.5L90.48294890625,88.5L90.58791806250001,88.5L90.76059928125,88.5L90.99331440625001,88.5L91.15063931249999,88.5L91.4317938125,88.5L91.50501971875,88.5L91.6220471875,88.5L91.65652159375,88.5L91.7997269375,88.5L91.9042323125,88.5L92.0456340625,88.5L92.46875715624999,88.5L92.81411959375001,88.5L93.18401090625,88.5L93.39312471875,88.5L93.45893012500001,88.5L93.5089154375,88.5L93.58935571875,88.5L93.82449281250001,88.5L93.98552796875,88.5L94.3171315625,88.5L94.4225645,88.5L94.573448,88.5L94.6306476875,88.5L94.79704209375,88.5L95.0455773125,88.5L95.160285875,88.5L95.33198800000001,88.5L95.4498915,88.5L95.5233750625,88.5L95.61932625,88.5L95.65410984374999,88.5L95.9582988125,88.5L96.60991146875,88.5L97.20891071874999,88.5L97.4052963125,88.5L97.7629231875,88.5L97.99909090625,88.5L98.0758209375,88.5L98.20830778125,88.5L98.26973303125,88.5L98.410877125,88.5L98.46817987499999,88.5L98.64477746875,88.5L99.62608706249999,88.5L99.68447196875,88.5L99.7378068125,88.5L100.00700606250001,88.5L100.12934125000001,88.5L100.33716678125,88.5L100.38055609375,88.5L100.45682234374999,88.5L100.63110103125,88.5L100.6755725,88.5L100.8098629375,88.5L101.016297125,88.5L101.1324485625,88.5L101.7646339375,88.5L101.81827796875,88.5L102.25232568749999,88.5L102.31988315625,88.5L102.88348043750001,88.5L103.24095271875001,88.5L103.29495746875,88.5L103.4323913125,88.5L103.53426859375,88.5L103.58275950000001,88.5L103.9856308125,88.5L104.02433078125,88.5L104.08488,88.5L104.2921386875,88.5L104.3750009375,88.5L104.504756625,88.5L104.947307,88.5L105.23273859375,88.5L105.25747359375,88.5L105.415416875,88.5L105.7220278125,88.5L106.38157628125,88.5L106.67216099999999,88.5L106.7221463125,88.5L106.8728236875,88.5L106.9346611875,88.5L107.23524296875,88.5L107.5915815625,88.5L107.673104,88.5L108.173369375,88.5L108.39696346875,88.5L108.5040969375,88.5L108.67100665625,88.5L109.12875874999999,88.5L109.4646394375,88.5L109.5075134375,88.5L109.7212650625,88.5L110.18231515625,88.5L110.25780843749999,88.5L110.60322240625,88.5L110.66454459375001,88.5L110.87036040625,88.5L111.15708028125,88.5L111.28735128125001,88.5L111.43452453125,88.5L111.56871190625,88.5L111.75051415624999,88.5L111.93726340625,88.5L112.372754,88.5L112.83163978125,88.5L112.9708256875,88.5L113.10846565624999,88.5L113.2569271875,88.5L113.311035,88.5L113.70828940624999,88.5L113.77682596875,88.5L114.22896115625001,88.5L114.37871096875,88.5L114.40169390625,88.5L114.4749198125,88.5L114.53732415625001,88.5L114.62740078124999,88.5L114.76055753125,88.5L115.12076096875,88.5L115.14276481249999,88.5L115.50992496875,88.5L115.556766875,88.5L115.6189135625,88.5L116.12768159375,88.5L116.32535546875,88.5L116.45758465625,88.5L116.5044265625,88.5L116.62506121874999,88.5L116.92270571875001,88.5L116.96959915625,88.5L117.05380121875,88.5L117.10368346875,88.5L117.14511459375001,88.5L117.371079125,88.5L118.04289203125,88.5L118.56170865625,88.5L118.8431208125,88.5L119.19172971875,88.5L119.26098771875,88.5L119.7805773125,88.5L120.09321740624999,88.5L120.50660109374999,88.5L120.55426750000001,88.5L120.74560303125,88.5L121.13682828124999,88.5L121.25576240625,88.5L121.43632790625,88.5L121.88382528125,88.5L121.94421990625,88.5L122.092578375,88.5L122.33668190625,88.5L122.50457071874999,88.5L123.19828440625,88.5L123.33030746875,88.5L123.40059609375,88.5L123.75997503125,88.5L123.7989841875,88.5L123.86999424999999,88.5L123.96733678125001,88.5L124.05189956250001,88.5L124.6137963125,88.5L125.107981,88.5L125.3061701875,88.5L125.505596125,88.5L125.54460528125,88.5L125.83312875,88.5L126.13237071875,88.5L126.19420821874999,88.5L126.5101463125,88.5L126.65845325,88.5L126.74116090625,88.5L126.846027,88.5L127.18283525,88.5L127.3433035625,88.5L127.4500763125,88.5L127.61482171875,88.5L127.77977325,88.5L127.94482784375,88.5L128.05211590625,88.5L128.43736353125,88.5L128.56273906250001,88.5L129.13231396875,88.5L129.18874068749997,88.5L129.26464621875,88.5L130.0089120625,88.5L130.22333359375,88.5L130.435693875,88.5L130.65516546875,88.5L130.7055115,88.5L130.84732549999998,88.5L130.98692365625,88.5L131.094881625,88.5L131.52346703125002,88.5L131.645235375,88.5L131.78967746875,88.5L131.92221584375,88.5L132.03805809374998,88.5L132.16101165625,88.5L132.33559953124998,88.5L132.47926865625,88.5L132.52296715625002,88.5L133.273622875,88.5L133.5917768125,88.5L133.91719665624998,88.5L133.983929625,88.5L134.00789165625,88.5L134.12765028125,88.5L134.17454371875002,88.5L134.2985794375,88.5L134.424831,88.5L134.60070715625,88.5L134.79049675,88.5L135.04196925000002,88.5L135.18733890624998,88.5L135.51528378125002,88.5L135.58861275,88.5L135.66925915625,88.5L135.86868509375,88.5L136.00158418750001,88.5L136.243471875,88.5L136.37379440625,88.5L136.46603534375,88.5L136.56384165625002,88.5L136.6005834375,88.5L137.087759875,88.5L137.11769953125,88.5L137.3356251875,88.5L137.505369125,88.5L137.69660159375,88.5L137.7334464375,88.5L137.84501159375,88.5L137.89602753125,88.5L138.02671078125,88.5L138.296476875,88.5L138.35836590625001,88.5L138.70043034375,88.5L138.75268303125,88.5L138.9489655625,88.5L139.0588301875,88.5L139.167973375,88.5L139.36714165625,88.5L139.83154128125,88.5L139.94686821875,88.5L140.06652378125,88.5L140.0962573125,88.5L140.324953,88.5L140.43229259375,88.5L140.508198125,88.5L140.89509475,88.5L141.1145148125,88.5L141.269211625,88.5L141.787822125,88.5L141.97065500000002,88.5L142.11983796875,88.5L142.26453771875,88.5L142.3630139375,88.5L142.425985125,88.5L142.511733125,88.5L142.61299203125,88.5L142.65921556249998,88.5L142.750838125,88.5L142.84112087499997,88.5L142.90259765625,88.5L143.13340612500002,88.5L143.19385228125,88.5L143.30670571874998,88.5L143.45521878124998,88.5L143.71710059375,88.5L144.3407833125,88.5L144.54628993749998,88.5L144.70402709375,88.5L145.02898315625,88.5L145.19785106249998,88.5L145.47354325,88.5L145.55429271875,88.5L145.65951953125,88.5L145.77974193749998,88.5L145.8937290625,88.5L145.95391756249998,88.5L146.019980625,88.5L146.463561625,88.5L146.52957315625,88.5L146.57760028125,88.5L146.66571871875,88.5L147.27878600000003,88.5L147.31784668749998,88.5L147.3530940625,88.5L147.41199428125,88.5L147.80528078125,88.5L148.26107468749998,88.5L148.48137078125,88.5L148.8887253125,88.5L148.95751953125,88.5L149.10283765625,88.5L149.70266140625,88.5L149.89476990625,88.5L150.08296203125002,88.5L150.148252125,88.5L150.17458459375,88.5L150.29511618749999,88.5L150.70473809375002,88.5L150.8298044375,88.5L150.9246219375,88.5L151.04494740625,88.5L151.55387003125,88.5L151.9622551875,88.5L151.98755703125,88.5L152.30653546874998,88.5L152.55306096875,88.5L152.90821434375002,88.5L153.20369453125002,88.5L153.2497119375,88.5L153.3125800625,88.5L153.35447496875,88.5L153.482942375,88.5L153.7563671875,88.5L154.69707015625,88.5L154.82126046874998,88.5L155.02697321875002,88.5L155.0895836875,88.5L155.64071040625,88.5L155.75201790625002,88.5L155.92645118750002,88.5L155.99318415624998,88.5L156.03440915625,88.5L156.57775465625,88.5L156.65319640625,88.5L156.76275184375,88.5L156.7959895,88.5L156.8927651875,88.5L157.06153003125,88.5L157.1493908125,88.5L157.3021294375,88.5L157.38014775,88.5L157.49207362500002,88.5L157.58282015625,88.5L158.08267328125,88.5L158.333063625,88.5L158.52862471875,88.5L158.64982621875,88.5L158.8047806875,88.5L158.94587325,88.5L159.26150215625,88.5L159.28994740624998,88.5L159.51982831249998,88.5L159.65896268749998,88.5L159.81680290625002,88.5L159.92532771875,88.5L160.12382609374998,88.5L160.294136875,88.5L160.415338375,88.5L160.44795765625,88.5L160.50170475,88.5L160.56019271875,88.5L160.70535625000002,88.5L160.89689790625,88.5L161.23360309375002,88.5L161.313631125,88.5L161.44993128125,88.5L161.8675920625,88.5L162.14096534375,88.5L162.29220956249998,88.5L162.42732450000003,88.5L162.48849209375,88.5L162.59016325000002,88.5L162.77490278125,88.5L162.83261778125,88.5L162.9707730625,88.5L163.32041259375,88.5L163.452384125,88.5L163.61001821875,88.5L163.63233125,88.5L163.79326334375,88.5L164.08307509375,88.5L164.78426081249998,88.5L164.9926531875,88.5L165.07762821875,88.5L165.31796996875002,88.5L165.56217656249999,88.5L166.06352409375,88.5L166.2304338125,88.5L166.43728025000001,88.5L166.6223805,88.5L167.4603816875,88.5L168.03485206250002,88.5L168.0911241875,88.5L168.1424493125,88.5L168.28699446875,88.5L168.582010875,88.5L168.875120625,88.5L168.90846134375,88.5L168.9870465,88.5L169.03646496875,88.5L169.0887691875,88.5L169.15333784375,88.5L169.2004889375,88.5L169.57950128125,88.5L170.898855875,88.5L170.9535820625,88.5L170.99954793749998,88.5L171.33115153125,88.5L171.93839578125002,88.5L172.0320280625,88.5L172.27257593750002,88.5L172.66107003125,88.5L172.714611,88.5L172.82586696874998,88.5L172.9237248125,88.5L172.96139415624998,88.5L173.0913044375,88.5L173.9551743125,88.5L174.2852835,88.5L174.401538,88.5L174.53551925,88.5L174.97307109375,88.5L175.03068303125,88.5L175.308488,88.5L175.421238375,88.5L175.48848665625002,88.5L175.71872828124998,88.5L175.87878434375,88.5L175.94273462499999,88.5L176.17024509375003,88.5L176.26521718749999,88.5L176.38894371875,88.5L176.57528071874998,88.5L176.6218134375,88.5L177.024066375,88.5L177.32454509375,88.5L177.41864115625,88.5L177.46924484375,88.5L177.53798753125002,88.5L178.1714611875,88.5L178.61870090624998,88.5L179.08129693749999,88.5L179.87121946874998,88.5L180.17453240625,88.5L180.25141703125,88.5L180.30279368749999,88.5L180.46609621875,88.5L180.98367609375,88.5L181.24566096874997,88.5L181.50640909375,88.5L181.7473176875,88.5L181.84965875,88.5L181.967356125,88.5L182.08031262499998,88.5L182.19105328125,88.5L182.34915115625,88.5L182.40851515625002,88.5L182.55507003124998,88.5L182.63679859375,88.5L182.68915434374998,88.5L182.94258503125002,88.5L183.06497175,88.5L183.20364234375,88.5L183.25290621875,88.5L183.35009415625,88.5L183.62434346875,88.5L183.70875165624997,88.5L183.766209,88.5L183.831550625,88.5L184.15903171875001,88.5L184.2577140625,88.5L184.41947065625,88.5L184.86887468749998,88.5L185.0181091875,88.5L185.12797381250002,88.5L185.2392813125,88.5L185.33363503125,88.5L185.46802853125,88.5L185.93809659374998,88.5L186.12834996875,88.5L186.19230025000002,88.5L186.36075590625,88.5L186.791917875,88.5L187.00860678125,88.5L187.26090378125002,88.5L187.50696549999998,88.5L187.89344987500002,88.5L188.0115595,88.5L188.32940425,88.5L188.65441184375,88.5L188.8244134375,88.5L188.88243762500002,88.5L189.13612596875,88.5L189.19600528125,88.5L189.24800031249998,88.5L189.37131459375,88.5L189.54538715625,88.5L189.77439203125,88.5L189.9098676875,88.5L189.98680384374998,88.5L190.0970291875,88.5L190.31315124999998,88.5L190.852580375,88.5L191.12389240624998,88.5L191.26745846875,88.5L191.31321821875,88.5L191.618540875,88.5L191.64744990625,88.5L191.69475559375002,88.5L191.74638990625002,88.5L191.94421837500002,88.5L192.1172603125,88.5L193.30819903125,88.5L193.45758812499997,88.5L193.58389121875,88.5L193.88040203125,88.5L194.04370456249998,88.5L194.1063665625,88.5L194.2059249375,88.5L194.23978096874998,88.5L194.58555565625002,88.5L194.73247125,88.5L194.8148181875,88.5L195.26514978125,88.5L195.5756255625,88.5L195.6432345625,88.5L195.86919909374998,88.5L195.9781876875,88.5L196.09191715625,88.5L196.22491931250002,88.5L196.47438209375,88.5L196.65577209375002,88.5L196.88755965625,88.5L197.2784241875,88.5L197.3194430625,88.5L197.38602143749998,88.5L197.70134115624998,88.5L198.122609125,88.5L198.30508128125,88.5L198.41319384375,88.5L198.46596184375,88.5L198.50569243750002,88.5L198.73516109374998,88.5L198.93788503124998,88.5L199.32163825,88.5L199.68117178125,88.5L199.86879706250002,88.5L200.0885263125,88.5L200.16927578125,88.5L200.4970660625,88.5L200.68922609375,88.5L200.80043053125,88.5L200.91714881250002,88.5L201.03170278125,88.5L201.19382009375002,88.5L201.31491853125002,88.5L201.47363478124998,88.5L201.67805925,88.5L201.799673,88.5L202.03743818750002,88.5L202.28983825,88.5L202.34394606249998,88.5L202.54115615625,88.5L202.9225389375,88.5L203.36493471875,88.5L203.500410375,88.5L203.643048875,88.5L203.685098375,88.5L203.8286644375,88.5L204.10791228124998,88.5L204.35737506249998,88.5L204.41823346875,88.5L204.62250334375,88.5L204.7230408125,88.5L205.08010084375,88.5L205.12184115624999,88.5L205.24129059375,88.5L205.43412053125,88.5L205.80432103125,88.5L206.1192285,88.5L206.24192440625,88.5L206.570023875,88.5L206.98928212500002,88.5L207.0945089375,88.5L207.15356375000002,88.5L207.19308821875,88.5L207.48583725,88.5L207.538399125,88.5L207.72148965625001,88.5L207.83341553124998,88.5L207.893346375,88.5L208.00357171874998,88.5L208.28781809375,88.5L208.76051425,88.5L209.084748875,88.5L209.20713559375,88.5L209.29473871874998,88.5L209.52116703125,88.5L209.56440175,88.5L209.719613875,88.5L209.82824175,88.5L210.1766960625,88.5L210.20761481250003,88.5L210.384573125,88.5L210.5714254375,88.5L211.2126803125,88.5L211.47631418749998,88.5L211.55489934374998,88.5L211.694291375,88.5L212.18878525,88.5L212.2337205,88.5L212.5407436875,88.5L212.59686121875,88.5L212.6922455625,88.5L213.42239184375,88.5L213.5542603125,88.5L213.64155425,88.5L213.72245831249998,88.5L213.895706375,88.5L214.02448296875002,88.5L214.48259578124998,88.5L214.72304059375,88.5L214.81115903125,88.5L215.35553515625,88.5L215.38707228125,88.5L215.72985815625,88.5L216.13540909375,88.5L217.40905546874998,88.5L217.47109909375,88.5L217.5815305625,88.5L217.71844909375,88.5L217.84851396875,88.5L219.09021096875,88.5L219.23831178125,88.5L219.43701628125,88.5L219.48112703125,88.5L219.52946334375,88.5L219.65932209375,88.5L219.86065468750002,88.5L220.02895575,88.5L220.15999971875002,88.5L220.249715625,88.5L220.53040634375,88.5L220.68355721875,88.5L220.711435625,88.5L220.864380375,88.5L221.14213381250002,88.5L221.6125110625,88.5L221.87027037500002,88.5L221.9594194375,88.5L222.06974784375,88.5L222.11009681250002,88.5L222.41382199999998,88.5L222.67147824999998,88.5L222.77789028125,88.5L222.92459975,88.5L223.06625915625,88.5L223.5350389375,88.5L223.65989915625002,88.5L223.71194571875,88.5L223.94558840625,88.5L224.21138659374998,88.5L224.3341855625,88.5L224.79188612500002,88.5L224.90623396875,88.5L225.02877528125,88.5L225.66013615625,88.5L225.84430884375,88.5L225.9665925,88.5L226.48412084375002,88.5L226.762853375,88.5L227.1129566875,88.5L227.268684125,88.5L227.3429921875,88.5L227.677636125,88.5L227.9698183125,88.5L228.3051836875,88.5L228.36202265625,88.5L228.40551503125,88.5L228.532230375,88.5L228.6782699375,88.5L228.75778265625,88.5L229.12458209374998,88.5L229.34498125000002,88.5L229.40888,88.5L229.713738875,88.5L229.76717678125,88.5L229.81685290624998,88.5L230.14943559374998,88.5L230.2077174375,88.5L230.4470285625,88.5L231.04138999999998,88.5L231.38695856249998,88.5L231.5819528125,88.5L231.692538875,88.5L231.81544090625,88.5L231.86403487500002,88.5" style="fill: none;" fill="none"></path></g><g><path stroke="rgb(255, 112, 67)" stroke-width="2px" d="M26.293305,88.5L26.504377,88.5L26.609913,88.5L27.032057000000002,88.5L27.137593,88.5L27.348665,88.5L27.454201,88.5L27.559737,88.5L27.665273000000003,88.5L27.770809,88.5L27.876345,88.5L27.981881,88.5L28.087417000000002,88.5L28.509561,88.5L28.615097,88.5L29.459384999999997,88.5L29.564921000000002,88.5L29.775993,88.5L30.092601,88.5L30.198137,88.5L30.409209,88.5L30.514744999999998,88.5L30.620281000000002,88.5L30.725817,88.5L30.936888999999997,88.5L31.147961,88.5L31.253497,88.5L31.570104999999998,88.5L31.675641,88.5L31.781177,88.5L31.886713,88.5L31.992248999999997,88.5L32.308857,88.5L32.414393,88.5L32.625465,88.5L32.836537,88.5L32.942073,88.5L33.047609,88.5L33.153145,88.5L33.469753000000004,88.5L33.575289,88.5L33.680825,88.5L33.78636100000001,88.5L33.997433,88.5L34.208505,88.5L34.314041,88.5L34.841721,88.5L34.947257,88.5L35.052793,88.5L35.158329,88.5L35.263865,88.5L35.369400999999996,88.5L35.897081,88.5L36.846905,88.5L37.057976999999994,88.5L37.163513,88.5L37.269049,88.5L38.007801,88.5L38.324408999999996,88.5L38.535481,88.5L38.641017,88.5L38.746553000000006,88.5L39.168697,88.5L39.274233,88.5L39.379769,88.5L39.696377,88.5L39.801913,88.5L40.118521,88.5L40.540665000000004,88.5L40.751737,88.5L40.962809,88.5L41.068345,88.5L41.173880999999994,88.5L41.279417,88.5L41.384953,88.5L41.490489,88.5L41.701561000000005,88.5L41.912633,88.5L42.229241,88.5L42.334776999999995,88.5L42.440312999999996,88.5L42.651385,88.5L42.756921,88.5L42.862457,88.5L43.073529,88.5L43.179065,88.5L43.390137,88.5L43.495673000000004,88.5L43.706745,88.5L43.812281,88.5L44.128888999999994,88.5L44.551033000000004,88.5L44.656569000000005,88.5L44.762105,88.5L44.867641,88.5L45.078713,88.5L45.184249,88.5L45.395321,88.5L45.606393,88.5L45.711929,88.5L45.817465000000006,88.5L45.923001,88.5L46.134073,88.5L46.239609,88.5L47.083897,88.5L47.506041,88.5L47.928185,88.5L48.033721,88.5L48.139257,88.5L48.561401,88.5L48.666937,88.5L48.772473000000005,88.5L48.878009,88.5L49.194617,88.5L49.300153,88.5L49.616761000000004,88.5L49.722297,88.5L49.933369,88.5L50.038905,88.5L50.144441,88.5L50.355513,88.5L50.461049,88.5L50.566585,88.5L50.672121,88.5L50.777657000000005,88.5L50.883193,88.5L51.199801,88.5L51.305337,88.5L51.516408999999996,88.5L51.938553,88.5L52.044089,88.5L52.255161,88.5L52.466233,88.5L52.571769,88.5L53.099449,88.5L53.416057,88.5L53.521592999999996,88.5L53.627129,88.5L53.732665000000004,88.5L53.943737,88.5L54.365881,88.5L54.576953,88.5L54.788025,88.5L54.893561,88.5L54.999097,88.5L55.421241,88.5L55.526777,88.5L55.737849,88.5L55.948921,88.5L56.15999299999999,88.5L56.687673000000004,88.5L57.004281000000006,88.5L57.109817,88.5L57.426425,88.5L57.637496999999996,88.5L57.743033,88.5L57.848569000000005,88.5L58.059641,88.5L58.165177,88.5L58.270713,88.5L58.692857000000004,88.5L58.798393000000004,88.5L59.009465,88.5L59.326073,88.5L59.748217,88.5L59.853753,88.5L59.959289000000005,88.5L60.064825,88.5L60.275897,88.5L60.592504999999996,88.5L60.698040999999996,88.5L60.803577000000004,88.5L61.120185,88.5L61.225721,88.5L61.436793,88.5L62.070009,88.5L62.281081,88.5L62.386617,88.5L62.492153,88.5L62.597689,88.5L62.703224999999996,88.5L62.914297000000005,88.5L63.019833,88.5L63.547512999999995,88.5L63.653049,88.5L63.864121,88.5L64.075193,88.5L64.180729,88.5L64.286265,88.5L64.497337,88.5L64.60287299999999,88.5L64.708409,88.5L64.813945,88.5L65.025017,88.5L65.130553,88.5L65.341625,88.5L65.447161,88.5L65.65823300000001,88.5L65.869305,88.5L66.080377,88.5L66.185913,88.5L66.291449,88.5L66.502521,88.5L66.608057,88.5L66.92466499999999,88.5L67.03020099999999,88.5L67.13573699999999,88.5L67.34680900000001,88.5L67.557881,88.5L67.663417,88.5L67.768953,88.5L67.874489,88.5L68.402169,88.5L68.824313,88.5L68.929849,88.5L69.140921,88.5L69.457529,88.5L70.196281,88.5L70.301817,88.5L70.723961,88.5L70.829497,88.5L70.935033,88.5L71.14610499999999,88.5L71.35717700000001,88.5L71.56824900000001,88.5L71.779321,88.5L72.729145,88.5L72.83468099999999,88.5L72.94021699999999,88.5L73.045753,88.5L73.256825,88.5L73.362361,88.5L73.678969,88.5L73.995577,88.5L74.312185,88.5L74.628793,88.5L74.734329,88.5L74.839865,88.5L74.945401,88.5L75.050937,88.5L75.26200899999999,88.5L75.36754499999999,88.5L75.47308100000001,88.5L75.68415300000001,88.5L75.789689,88.5L75.895225,88.5L76.106297,88.5L76.317369,88.5L76.422905,88.5L76.845049,88.5L77.267193,88.5L77.689337,88.5L77.794873,88.5L78.00594500000001,88.5L78.111481,88.5L78.322553,88.5L78.533625,88.5L78.850233,88.5L79.58898500000001,88.5L79.905593,88.5L80.011129,88.5L80.327737,88.5L80.433273,88.5L80.538809,88.5L80.749881,88.5L80.855417,88.5L80.960953,88.5L81.06648899999999,88.5L81.277561,88.5L81.805241,88.5L81.910777,88.5L82.543993,88.5L82.755065,88.5L82.86060099999999,88.5L82.966137,88.5L83.071673,88.5L83.177209,88.5L83.282745,88.5L83.38828099999999,88.5L83.49381699999999,88.5L83.599353,88.5L83.704889,88.5L83.91596100000001,88.5L84.232569,88.5L84.338105,88.5L84.443641,88.5L84.654713,88.5L84.760249,88.5L85.076857,88.5L85.28792899999999,88.5L85.499001,88.5L85.60453700000001,88.5L85.921145,88.5L86.026681,88.5L86.132217,88.5L86.343289,88.5L86.448825,88.5L86.554361,88.5L86.765433,88.5L86.97650499999999,88.5L87.082041,88.5L87.398649,88.5L87.50418499999999,88.5L87.609721,88.5L87.715257,88.5L87.820793,88.5L88.03186500000001,88.5L88.137401,88.5L88.242937,88.5L88.454009,88.5L88.559545,88.5L88.981689,88.5L89.087225,88.5L89.192761,88.5L89.40383299999999,88.5L89.50936899999999,88.5L89.61490500000001,88.5L89.72044100000001,88.5L89.931513,88.5L90.142585,88.5L90.248121,88.5L90.353657,88.5L90.564729,88.5L90.775801,88.5L90.986873,88.5L91.09240899999999,88.5L91.19794499999999,88.5L91.514553,88.5L91.936697,88.5L92.04223300000001,88.5L92.253305,88.5L92.358841,88.5L92.569913,88.5L92.992057,88.5L93.097593,88.5L93.308665,88.5L93.51973699999999,88.5L93.94188100000001,88.5L94.258489,88.5L94.364025,88.5L94.575097,88.5L94.680633,88.5L94.786169,88.5L94.891705,88.5L94.997241,88.5L95.102777,88.5L95.20831299999999,88.5L95.31384899999999,88.5L95.419385,88.5L95.841529,88.5L95.947065,88.5L96.158137,88.5L96.369209,88.5L96.685817,88.5L96.896889,88.5L97.00242499999999,88.5L97.107961,88.5L97.424569,88.5L97.53010499999999,88.5L97.63564099999999,88.5L97.741177,88.5L97.84671300000001,88.5L98.05778500000001,88.5L98.163321,88.5L98.374393,88.5L98.585465,88.5L98.691001,88.5L98.796537,88.5L98.902073,88.5L99.007609,88.5L99.113145,88.5L99.32421699999999,88.5L99.42975299999999,88.5L99.74636100000001,88.5L100.168505,88.5L100.485113,88.5L100.590649,88.5L100.696185,88.5L100.801721,88.5L100.907257,88.5L101.012793,88.5L101.11832899999999,88.5L101.223865,88.5L101.434937,88.5L101.540473,88.5L101.64600899999999,88.5L102.06815300000001,88.5L102.490297,88.5L102.595833,88.5L102.80690499999999,88.5L102.912441,88.5L103.017977,88.5L103.123513,88.5L103.229049,88.5L103.334585,88.5L103.651193,88.5L103.756729,88.5L103.86226500000001,88.5L104.389945,88.5L104.601017,88.5L104.706553,88.5L104.812089,88.5L104.917625,88.5L105.128697,88.5L105.445305,88.5L105.550841,88.5L105.867449,88.5L105.972985,88.5L106.078521,88.5L106.18405700000001,88.5L106.28959300000001,88.5L106.500665,88.5L106.817273,88.5L106.92280899999999,88.5L107.133881,88.5L107.450489,88.5L107.55602499999999,88.5L107.66156099999999,88.5L107.87263300000001,88.5L107.97816900000001,88.5L108.08370500000001,88.5L108.189241,88.5L108.294777,88.5L108.400313,88.5L108.505849,88.5L108.716921,88.5L109.033529,88.5L109.139065,88.5L109.561209,88.5L109.666745,88.5L109.877817,88.5L110.088889,88.5L110.29996100000001,88.5L110.40549700000001,88.5L110.511033,88.5L110.616569,88.5L110.722105,88.5L110.827641,88.5L111.03871299999999,88.5L111.249785,88.5L111.460857,88.5L111.77746499999999,88.5L111.883001,88.5L111.98853700000001,88.5L112.09407300000001,88.5L112.19960900000001,88.5L112.410681,88.5L112.516217,88.5L112.621753,88.5L112.832825,88.5L112.938361,88.5L113.149433,88.5L113.46604099999999,88.5L113.677113,88.5L113.782649,88.5L113.88818500000001,88.5L114.204793,88.5L114.52140100000001,88.5L114.626937,88.5L114.838009,88.5L115.049081,88.5L115.260153,88.5L115.365689,88.5L115.78783299999999,88.5L115.998905,88.5L116.10444100000001,88.5L116.20997700000001,88.5L116.31551300000001,88.5L116.526585,88.5L116.632121,88.5L116.737657,88.5L116.843193,88.5L117.265337,88.5L117.476409,88.5L117.58194499999999,88.5L117.68748099999999,88.5L117.793017,88.5L117.898553,88.5L118.320697,88.5L118.426233,88.5L118.531769,88.5L118.63730500000001,88.5L119.059449,88.5L119.164985,88.5L119.27052099999999,88.5L119.37605699999999,88.5L119.481593,88.5L119.692665,88.5L119.798201,88.5L119.90373699999999,88.5L120.009273,88.5L120.220345,88.5L120.536953,88.5L120.748025,88.5L120.853561,88.5L121.064633,88.5L121.170169,88.5L121.275705,88.5L121.486777,88.5L121.592313,88.5L121.80338499999999,88.5L121.908921,88.5L122.436601,88.5L122.647673,88.5L122.75320900000001,88.5L122.858745,88.5L122.964281,88.5L123.069817,88.5L123.175353,88.5L123.280889,88.5L123.49196099999999,88.5L123.597497,88.5L123.703033,88.5L124.019641,88.5L124.125177,88.5L124.230713,88.5L124.336249,88.5L124.54732100000001,88.5L125.18053699999999,88.5L125.286073,88.5L125.391609,88.5L125.602681,88.5L126.02482499999999,88.5L126.341433,88.5L126.658041,88.5L126.974649,88.5L127.080185,88.5L127.291257,88.5L127.396793,88.5L127.502329,88.5L127.60786499999999,88.5L127.818937,88.5L127.924473,88.5L128.030009,88.5L128.135545,88.5L128.241081,88.5L128.346617,88.5L128.452153,88.5L128.557689,88.5L128.663225,88.5L128.874297,88.5L128.97983299999999,88.5L129.190905,88.5L129.507513,88.5L129.613049,88.5L129.82412100000002,88.5L130.03519300000002,88.5L130.14072900000002,88.5L130.246265,88.5L130.351801,88.5L130.668409,88.5L130.773945,88.5L130.879481,88.5L130.985017,88.5L131.196089,88.5L131.301625,88.5L132.145913,88.5L132.462521,88.5L132.56805699999998,88.5L132.77912899999998,88.5L132.88466499999998,88.5L132.99020099999998,88.5L133.095737,88.5L133.41234500000002,88.5L133.51788100000002,88.5L133.728953,88.5L133.834489,88.5L133.940025,88.5L134.045561,88.5L134.362169,88.5L135.206457,88.5L135.311993,88.5L135.417529,88.5L135.628601,88.5L135.839673,88.5L135.945209,88.5L136.05074499999998,88.5L136.26181699999998,88.5L136.36735299999998,88.5L136.472889,88.5L136.578425,88.5L136.683961,88.5L137.000569,88.5L137.106105,88.5L137.21164100000001,88.5L137.739321,88.5L137.950393,88.5L138.05592900000002,88.5L138.26700100000002,88.5L138.37253700000002,88.5L138.583609,88.5L139.216825,88.5L139.322361,88.5L139.533433,88.5L139.744505,88.5L139.850041,88.5L140.272185,88.5L140.377721,88.5L140.483257,88.5L140.588793,88.5L140.694329,88.5L140.90540099999998,88.5L141.11647299999998,88.5L141.22200899999999,88.5L141.327545,88.5L141.43308100000002,88.5L141.53861700000002,88.5L141.64415300000002,88.5L141.74968900000002,88.5L142.171833,88.5L142.382905,88.5L142.488441,88.5L143.016121,88.5L143.121657,88.5L143.332729,88.5L143.543801,88.5L143.649337,88.5L143.754873,88.5L143.965945,88.5L144.28255299999998,88.5L144.38808899999998,88.5L144.704697,88.5L144.915769,88.5L145.232377,88.5L145.548985,88.5L145.654521,88.5L145.865593,88.5L145.971129,88.5L146.076665,88.5L146.182201,88.5L146.287737,88.5L146.39327300000002,88.5L146.49880900000002,88.5L146.709881,88.5L146.815417,88.5L146.920953,88.5L147.237561,88.5L147.343097,88.5L147.554169,88.5L148.398457,88.5L148.503993,88.5L148.609529,88.5L148.715065,88.5L148.820601,88.5L149.03167299999998,88.5L149.13720899999998,88.5L149.24274499999999,88.5L149.348281,88.5L149.559353,88.5L149.66488900000002,88.5L149.77042500000002,88.5L150.08703300000002,88.5L150.192569,88.5L150.403641,88.5L151.459001,88.5L151.775609,88.5L151.881145,88.5L151.986681,88.5L152.092217,88.5L152.303289,88.5L152.408825,88.5L152.51436099999998,88.5L152.72543299999998,88.5L153.042041,88.5L153.147577,88.5L153.253113,88.5L153.358649,88.5L153.46418500000001,88.5L153.56972100000002,88.5L153.67525700000002,88.5L153.780793,88.5L153.991865,88.5L154.202937,88.5L154.308473,88.5L154.519545,88.5L154.73061700000002,88.5L154.941689,88.5L155.047225,88.5L155.152761,88.5L155.258297,88.5L155.363833,88.5L155.469369,88.5L155.891513,88.5L156.419193,88.5L156.524729,88.5L156.735801,88.5L156.841337,88.5L156.946873,88.5L157.26348099999998,88.5L157.36901699999999,88.5L157.474553,88.5L157.685625,88.5L157.896697,88.5L158.00223300000002,88.5L158.31884100000002,88.5L158.529913,88.5L158.740985,88.5L158.846521,88.5L159.057593,88.5L159.163129,88.5L159.479737,88.5L159.58527299999997,88.5L159.690809,88.5L159.901881,88.5L160.007417,88.5L160.112953,88.5L160.429561,88.5L160.535097,88.5L160.640633,88.5L160.746169,88.5L160.85170499999998,88.5L160.95724099999998,88.5L161.16831299999998,88.5L161.484921,88.5L161.59045700000001,88.5L161.80152900000002,88.5L162.223673,88.5L162.329209,88.5L162.540281,88.5L162.645817,88.5L162.96242500000002,88.5L163.173497,88.5L163.384569,88.5L163.595641,88.5L163.701177,88.5L163.806713,88.5L163.912249,88.5L164.123321,88.5L164.43992899999998,88.5L164.54546499999998,88.5L164.756537,88.5L164.862073,88.5L164.967609,88.5L165.178681,88.5L165.600825,88.5L165.811897,88.5L165.917433,88.5L166.128505,88.5L166.234041,88.5L166.33957700000002,88.5L166.44511300000002,88.5L166.55064900000002,88.5L166.656185,88.5L167.078329,88.5L167.183865,88.5L167.289401,88.5L167.394937,88.5L167.500473,88.5L167.711545,88.5L167.922617,88.5L168.028153,88.5L168.133689,88.5L168.239225,88.5L168.344761,88.5L168.450297,88.5L168.766905,88.5L169.08351299999998,88.5L169.29458499999998,88.5L169.50565699999999,88.5L169.61119300000001,88.5L169.71672900000002,88.5L169.82226500000002,88.5L169.92780100000002,88.5L170.349945,88.5L170.877625,88.5L171.088697,88.5L171.194233,88.5L171.29976900000003,88.5L171.510841,88.5L171.616377,88.5L171.721913,88.5L172.038521,88.5L172.355129,88.5L172.460665,88.5L172.56620099999998,88.5L172.77727299999998,88.5L172.88280899999998,88.5L172.988345,88.5L173.199417,88.5L173.304953,88.5L173.516025,88.5L173.621561,88.5L173.727097,88.5L173.832633,88.5L173.938169,88.5L174.043705,88.5L174.254777,88.5L174.360313,88.5L174.67692100000002,88.5L175.204601,88.5L175.626745,88.5L176.471033,88.5L176.576569,88.5L176.682105,88.5L176.787641,88.5L176.893177,88.5L177.209785,88.5L177.31532099999998,88.5L177.52639299999998,88.5L177.63192899999999,88.5L177.843001,88.5L177.94853700000002,88.5L178.05407300000002,88.5L178.15960900000002,88.5L178.37068100000002,88.5L178.581753,88.5L178.687289,88.5L178.792825,88.5L179.003897,88.5L179.109433,88.5L179.214969,88.5L179.426041,88.5L179.637113,88.5L180.270329,88.5L180.481401,88.5L180.90354499999998,88.5L181.11461699999998,88.5L181.220153,88.5L181.642297,88.5L182.169977,88.5L182.275513,88.5L182.697657,88.5L183.01426500000002,88.5L183.119801,88.5L183.436409,88.5L183.541945,88.5L183.753017,88.5L183.858553,88.5L183.964089,88.5L184.069625,88.5L184.280697,88.5L184.38623299999998,88.5L184.702841,88.5L184.808377,88.5L184.913913,88.5L185.019449,88.5L185.124985,88.5L185.54712899999998,88.5L185.863737,88.5L185.969273,88.5L186.074809,88.5L186.18034500000002,88.5L186.39141700000002,88.5L186.49695300000002,88.5L186.60248900000002,88.5L186.708025,88.5L186.813561,88.5L186.919097,88.5L187.024633,88.5L187.130169,88.5L187.235705,88.5L187.552313,88.5L187.763385,88.5L188.291065,88.5L188.396601,88.5L188.502137,88.5L188.713209,88.5L189.13535299999998,88.5L189.45196099999998,88.5L189.663033,88.5L190.08517700000002,88.5L190.190713,88.5L190.296249,88.5L190.401785,88.5L190.718393,88.5L190.929465,88.5L191.035001,88.5L191.14053700000002,88.5L191.24607300000002,88.5L191.457145,88.5L191.668217,88.5L191.773753,88.5L192.090361,88.5L192.195897,88.5L192.406969,88.5L192.512505,88.5L192.61804099999998,88.5L193.145721,88.5L193.251257,88.5L193.356793,88.5L194.201081,88.5L194.306617,88.5L194.412153,88.5L194.62322500000002,88.5L194.72876100000002,88.5L194.83429700000002,88.5L194.939833,88.5L195.045369,88.5L195.150905,88.5L195.256441,88.5L195.467513,88.5L195.678585,88.5L195.784121,88.5L195.889657,88.5L196.10072899999997,88.5L196.206265,88.5L196.417337,88.5L196.628409,88.5L196.733945,88.5L196.945017,88.5L197.050553,88.5L197.47269699999998,88.5L197.57823299999998,88.5L197.68376899999998,88.5L197.789305,88.5L197.894841,88.5L198.00037700000001,88.5L198.10591300000002,88.5L198.31698500000002,88.5L198.422521,88.5L198.528057,88.5L198.633593,88.5L199.055737,88.5L199.266809,88.5L199.372345,88.5L199.47788100000002,88.5L199.688953,88.5L199.900025,88.5L200.111097,88.5L200.322169,88.5L200.427705,88.5L200.533241,88.5L200.744313,88.5L200.84984899999998,88.5L200.95538499999998,88.5L201.06092099999998,88.5L201.166457,88.5L201.271993,88.5L201.377529,88.5L201.483065,88.5L201.588601,88.5L202.010745,88.5L202.116281,88.5L202.327353,88.5L202.432889,88.5L202.74949700000002,88.5L202.85503300000002,88.5L202.96056900000002,88.5L203.06610500000002,88.5L203.171641,88.5L203.382713,88.5L203.804857,88.5L204.015929,88.5L204.121465,88.5L204.227001,88.5L204.543609,88.5L204.649145,88.5L204.860217,88.5L204.965753,88.5L205.071289,88.5L205.282361,88.5L205.387897,88.5L205.49343299999998,88.5L205.59896899999998,88.5L205.81004099999998,88.5L206.02111299999999,88.5L206.23218500000002,88.5L206.33772100000002,88.5L206.54879300000002,88.5L206.654329,88.5L206.759865,88.5L206.865401,88.5L207.076473,88.5L207.393081,88.5L207.498617,88.5L207.604153,88.5L207.709689,88.5L207.81522500000003,88.5L208.026297,88.5L208.131833,88.5L208.237369,88.5L208.342905,88.5L208.448441,88.5L208.553977,88.5L208.659513,88.5L208.765049,88.5L208.976121,88.5L209.08165699999998,88.5L209.18719299999998,88.5L209.609337,88.5L209.925945,88.5L210.031481,88.5L210.13701700000001,88.5L210.453625,88.5L210.559161,88.5L210.664697,88.5L210.770233,88.5L210.875769,88.5L211.08684100000002,88.5L211.19237700000002,88.5L211.29791300000002,88.5L211.614521,88.5L211.720057,88.5L211.931129,88.5L212.142201,88.5L212.247737,88.5L212.56434499999997,88.5L212.775417,88.5L212.880953,88.5L212.986489,88.5" style="fill: none;" fill="none"></path></g></g></g></g><g opacity="0.2"><g><g><g><path stroke="rgb(0, 119, 187)" stroke-width="2px" d="M26.116758937500002,88.5L26.618415656249997,88.5L26.7454401875,88.5L27.01582465625,88.5L27.912416874999998,88.5L28.033412249999998,88.5L28.144255968750002,88.5L28.189242750000002,88.5L28.27205346875,88.5L28.621693,88.5L28.6719875,88.5L28.7514486875,88.5L29.22167134375,88.5L29.51009175,88.5L29.5542025,88.5L29.6056306875,88.5L29.677259125,88.5L29.951766093750003,88.5L30.3190293125,88.5L30.652900281249998,88.5L31.078909125,88.5L31.26808034375,88.5L31.29693784375,88.5L31.66198521875,88.5L31.9480351875,88.5L32.379557874999996,88.5L32.520701968750004,88.5L32.5517753125,88.5L33.02570821875,88.5L33.12660640625,88.5L33.172726875,88.5L33.64686590625,88.5L33.8959164375,88.5L34.03695746875,88.5L34.47275725,88.5L34.50079025,88.5L34.6490971875,88.5L34.95143103125,88.5L34.99193459375,88.5L35.195379968750004,88.5L35.3012766875,88.5L35.35924934375,88.5L35.58557459375,88.5L35.6409706875,88.5L35.963659375000006,88.5L36.388225343749994,88.5L36.443518375,88.5L36.514013125000005,88.5L36.71297528125,88.5L37.26631784375,88.5L37.622141125,88.5L37.836923375,88.5L37.961010625,88.5L38.71970521875,88.5L39.0414148125,88.5L39.307161468749996,88.5L39.45351021875,88.5L39.625521531249994,88.5L39.83370778125,88.5L39.92574259375,88.5L40.85402653125,88.5L41.047268718750004,88.5L41.09642953125,88.5L41.37675953125,88.5L41.5572735,88.5L41.60798025,88.5L41.72686284375,88.5L42.2072886875,88.5L42.278556406250004,88.5L42.55620678125,88.5L42.604594625000004,88.5L42.65555903125,88.5L42.83251734375,88.5L43.28186984375,88.5L43.727409031250005,88.5L44.570202625,88.5L44.79080790625,88.5L45.08659728124999,88.5L45.35177709375,88.5L45.42340553125,88.5L46.03343246875,88.5L46.0785223125,88.5L46.99273821875,88.5L47.67758853125,88.5L47.720204875,88.5L47.7837944375,88.5L48.10668925,88.5L48.59773053125,88.5L48.68141728125,88.5L48.762372875,88.5L48.897539343750005,88.5L49.16488346875,88.5L49.62619121875,88.5L49.78614421875,88.5L49.8413341875,88.5L50.28455446875,88.5L50.32938665625,88.5L51.127863375000004,88.5L51.27694328125,88.5L51.38773546875,88.5L52.11097656250001,88.5L52.393419343750004,88.5L52.495708875000005,88.5L52.6253615,88.5L53.1110950625,88.5L53.437854718749996,88.5L53.54895609375,88.5L53.7383334375,88.5L54.0850356875,88.5L54.2656011875,88.5L54.806163999999995,88.5L54.924892,88.5L55.117876531250005,88.5L55.3976396875,88.5L55.579338875,88.5L55.6503489375,88.5L55.93619278125,88.5L56.0263209375,88.5L56.06161984375,88.5L56.1555613125,88.5L56.25027575,88.5L56.3099489375,88.5L56.652631750000005,88.5L56.7182825625,88.5L57.1365101875,88.5L57.4250851875,88.5L57.52778696875,88.5L57.779929375,88.5L58.07948053125,88.5L58.2089785625,88.5L58.7810785,88.5L59.07939290625,88.5L59.113506593749996,88.5L59.21997015625,88.5L59.25336240625,88.5L59.2925776875,88.5L59.34323290625,88.5L59.43320646875,88.5L59.56739384375,88.5L59.8198454375,88.5L60.055549375000005,88.5L60.191798000000006,88.5L60.3982321875,88.5L60.546333,88.5L60.599667843750005,88.5L60.702988,88.5L60.78172775,88.5L60.916739625000005,88.5L60.9489981875,88.5L61.07524975,88.5L61.1244105625,88.5L61.40788396875,88.5L61.44612015625,88.5L61.783701375,88.5L61.9159305625,88.5L62.078254,88.5L62.225942562499995,88.5L62.362912625,88.5L62.4731895,88.5L62.668647531249995,88.5L62.87611234375,88.5L63.060285031250004,88.5L63.12088578125,88.5L63.177518625,88.5L63.5618386875,88.5L63.90364546875,88.5L64.02216734375,88.5L64.05988821875,88.5L64.26864131250001,88.5L64.480847,88.5L64.63569840625,88.5L64.69284656250001,88.5L64.75081921875,88.5L64.8816570625,88.5L65.018421,88.5L65.51301793750001,88.5L65.59722,88.5L65.764387375,88.5L65.815094125,88.5L65.85884415625,88.5L65.9374293125,88.5L65.9687603125,88.5L66.2822764375,88.5L66.509117,88.5L66.5795086875,88.5L66.69143456249999,88.5L66.843245625,88.5L66.9781544375,88.5L67.03612709375,88.5L67.0871945625,88.5L67.11878321875,88.5L67.28316790625,88.5L67.48573725,88.5L67.78307256250001,88.5L67.84604374999999,88.5L67.94008828125,88.5L68.21294625,88.5L68.45323646874999,88.5L68.645190375,88.5L68.78612834375,88.5L68.95705749999999,88.5L69.19147315625,88.5L69.28515696875,88.5L69.53049725,88.5L69.64520581250001,88.5L70.69020803125001,88.5L70.797135375,88.5L70.83897875000001,88.5L71.04257871875,88.5L71.14821778125,88.5L71.36475209375,88.5L71.47399834375,88.5L71.58963446875,88.5L71.8944418125,88.5L72.181677,88.5L72.42093659375,88.5L72.7644954375,88.5L72.84679084375,88.5L72.90873140625001,88.5L72.95938662500001,88.5L73.2076641875,88.5L73.3395841875,88.5L73.5429265,88.5L73.59260262500001,88.5L73.68128790624999,88.5L74.133886875,88.5L74.19093196875001,88.5L74.36031518749999,88.5L74.765453875,88.5L74.95627409375,88.5L75.4595798125,88.5L75.58619209375,88.5L75.64133053125,88.5L75.707445125,88.5L75.8953280625,88.5L75.97432546875,88.5L76.19163275,88.5L76.40131340625,88.5L76.42553309375,88.5L76.61954825,88.5L76.66298909375,88.5L76.69535071875,88.5L76.760743875,88.5L77.022934875,88.5L77.0739508125,88.5L77.20056309375,88.5L77.26080312500001,88.5L77.73174721875,88.5L77.944725875,88.5L77.98579628125,88.5L78.0767489375,88.5L78.1466253125,88.5L78.56969687499999,88.5L78.6161780625,88.5L78.63514156250001,88.5L78.73207184375,88.5L79.2353775625,88.5L79.34354165625,88.5L79.56976384375001,88.5L79.60094025000001,88.5L79.775322,88.5L79.90311949999999,88.5L80.24724518750001,88.5L80.81939665624999,88.5L80.9581703125,88.5L81.28235340625,88.5L81.34625215625,88.5L81.45601371875,88.5L81.549852125,88.5L81.75206075,88.5L81.94927084375,88.5L82.03816225,88.5L82.321584125,88.5L82.39429471875,88.5L82.42031800000001,88.5L82.852974375,88.5L83.12232821875,88.5L83.35895971875,88.5L83.41672625,88.5L83.4662993125,88.5L83.951620625,88.5L84.05339484375,88.5L84.19964053125,88.5L84.53696409375,88.5L84.58808309375,88.5L84.94375178125,88.5L85.02352215625,88.5L86.12660009375,88.5L86.19673412499999,88.5L86.24883221875,88.5L86.46969515625,88.5L86.52720403125001,88.5L86.56100853125001,88.5L87.618584375,88.5L87.785133375,88.5L87.88742290625,88.5L88.25195496875,88.5L88.2978693125,88.5L88.67554184375,88.5L88.79066265625,88.5L88.99895196874999,88.5L89.10541553125,88.5L89.18363996875,88.5L89.42063218749999,88.5L89.95320765625,88.5L90.3758154375,88.5L90.43445799999999,88.5L90.48294890625,88.5L90.58791806250001,88.5L90.76059928125,88.5L90.99331440625001,88.5L91.15063931249999,88.5L91.4317938125,88.5L91.50501971875,88.5L91.6220471875,88.5L91.65652159375,88.5L91.7997269375,88.5L91.9042323125,88.5L92.0456340625,88.5L92.46875715624999,88.5L92.81411959375001,88.5L93.18401090625,88.5L93.39312471875,88.5L93.45893012500001,88.5L93.5089154375,88.5L93.58935571875,88.5L93.82449281250001,88.5L93.98552796875,88.5L94.3171315625,88.5L94.4225645,88.5L94.573448,88.5L94.6306476875,88.5L94.79704209375,88.5L95.0455773125,88.5L95.160285875,88.5L95.33198800000001,88.5L95.4498915,88.5L95.5233750625,88.5L95.61932625,88.5L95.65410984374999,88.5L95.9582988125,88.5L96.60991146875,88.5L97.20891071874999,88.5L97.4052963125,88.5L97.7629231875,88.5L97.99909090625,88.5L98.0758209375,88.5L98.20830778125,88.5L98.26973303125,88.5L98.410877125,88.5L98.46817987499999,88.5L98.64477746875,88.5L99.62608706249999,88.5L99.68447196875,88.5L99.7378068125,88.5L100.00700606250001,88.5L100.12934125000001,88.5L100.33716678125,88.5L100.38055609375,88.5L100.45682234374999,88.5L100.63110103125,88.5L100.6755725,88.5L100.8098629375,88.5L101.016297125,88.5L101.1324485625,88.5L101.7646339375,88.5L101.81827796875,88.5L102.25232568749999,88.5L102.31988315625,88.5L102.88348043750001,88.5L103.24095271875001,88.5L103.29495746875,88.5L103.4323913125,88.5L103.53426859375,88.5L103.58275950000001,88.5L103.9856308125,88.5L104.02433078125,88.5L104.08488,88.5L104.2921386875,88.5L104.3750009375,88.5L104.504756625,88.5L104.947307,88.5L105.23273859375,88.5L105.25747359375,88.5L105.415416875,88.5L105.7220278125,88.5L106.38157628125,88.5L106.67216099999999,88.5L106.7221463125,88.5L106.8728236875,88.5L106.9346611875,88.5L107.23524296875,88.5L107.5915815625,88.5L107.673104,88.5L108.173369375,88.5L108.39696346875,88.5L108.5040969375,88.5L108.67100665625,88.5L109.12875874999999,88.5L109.4646394375,88.5L109.5075134375,88.5L109.7212650625,88.5L110.18231515625,88.5L110.25780843749999,88.5L110.60322240625,88.5L110.66454459375001,88.5L110.87036040625,88.5L111.15708028125,88.5L111.28735128125001,88.5L111.43452453125,88.5L111.56871190625,88.5L111.75051415624999,88.5L111.93726340625,88.5L112.372754,88.5L112.83163978125,88.5L112.9708256875,88.5L113.10846565624999,88.5L113.2569271875,88.5L113.311035,88.5L113.70828940624999,88.5L113.77682596875,88.5L114.22896115625001,88.5L114.37871096875,88.5L114.40169390625,88.5L114.4749198125,88.5L114.53732415625001,88.5L114.62740078124999,88.5L114.76055753125,88.5L115.12076096875,88.5L115.14276481249999,88.5L115.50992496875,88.5L115.556766875,88.5L115.6189135625,88.5L116.12768159375,88.5L116.32535546875,88.5L116.45758465625,88.5L116.5044265625,88.5L116.62506121874999,88.5L116.92270571875001,88.5L116.96959915625,88.5L117.05380121875,88.5L117.10368346875,88.5L117.14511459375001,88.5L117.371079125,88.5L118.04289203125,88.5L118.56170865625,88.5L118.8431208125,88.5L119.19172971875,88.5L119.26098771875,88.5L119.7805773125,88.5L120.09321740624999,88.5L120.50660109374999,88.5L120.55426750000001,88.5L120.74560303125,88.5L121.13682828124999,88.5L121.25576240625,88.5L121.43632790625,88.5L121.88382528125,88.5L121.94421990625,88.5L122.092578375,88.5L122.33668190625,88.5L122.50457071874999,88.5L123.19828440625,88.5L123.33030746875,88.5L123.40059609375,88.5L123.75997503125,88.5L123.7989841875,88.5L123.86999424999999,88.5L123.96733678125001,88.5L124.05189956250001,88.5L124.6137963125,88.5L125.107981,88.5L125.3061701875,88.5L125.505596125,88.5L125.54460528125,88.5L125.83312875,88.5L126.13237071875,88.5L126.19420821874999,88.5L126.5101463125,88.5L126.65845325,88.5L126.74116090625,88.5L126.846027,88.5L127.18283525,88.5L127.3433035625,88.5L127.4500763125,88.5L127.61482171875,88.5L127.77977325,88.5L127.94482784375,88.5L128.05211590625,88.5L128.43736353125,88.5L128.56273906250001,88.5L129.13231396875,88.5L129.18874068749997,88.5L129.26464621875,88.5L130.0089120625,88.5L130.22333359375,88.5L130.435693875,88.5L130.65516546875,88.5L130.7055115,88.5L130.84732549999998,88.5L130.98692365625,88.5L131.094881625,88.5L131.52346703125002,88.5L131.645235375,88.5L131.78967746875,88.5L131.92221584375,88.5L132.03805809374998,88.5L132.16101165625,88.5L132.33559953124998,88.5L132.47926865625,88.5L132.52296715625002,88.5L133.273622875,88.5L133.5917768125,88.5L133.91719665624998,88.5L133.983929625,88.5L134.00789165625,88.5L134.12765028125,88.5L134.17454371875002,88.5L134.2985794375,88.5L134.424831,88.5L134.60070715625,88.5L134.79049675,88.5L135.04196925000002,88.5L135.18733890624998,88.5L135.51528378125002,88.5L135.58861275,88.5L135.66925915625,88.5L135.86868509375,88.5L136.00158418750001,88.5L136.243471875,88.5L136.37379440625,88.5L136.46603534375,88.5L136.56384165625002,88.5L136.6005834375,88.5L137.087759875,88.5L137.11769953125,88.5L137.3356251875,88.5L137.505369125,88.5L137.69660159375,88.5L137.7334464375,88.5L137.84501159375,88.5L137.89602753125,88.5L138.02671078125,88.5L138.296476875,88.5L138.35836590625001,88.5L138.70043034375,88.5L138.75268303125,88.5L138.9489655625,88.5L139.0588301875,88.5L139.167973375,88.5L139.36714165625,88.5L139.83154128125,88.5L139.94686821875,88.5L140.06652378125,88.5L140.0962573125,88.5L140.324953,88.5L140.43229259375,88.5L140.508198125,88.5L140.89509475,88.5L141.1145148125,88.5L141.269211625,88.5L141.787822125,88.5L141.97065500000002,88.5L142.11983796875,88.5L142.26453771875,88.5L142.3630139375,88.5L142.425985125,88.5L142.511733125,88.5L142.61299203125,88.5L142.65921556249998,88.5L142.750838125,88.5L142.84112087499997,88.5L142.90259765625,88.5L143.13340612500002,88.5L143.19385228125,88.5L143.30670571874998,88.5L143.45521878124998,88.5L143.71710059375,88.5L144.3407833125,88.5L144.54628993749998,88.5L144.70402709375,88.5L145.02898315625,88.5L145.19785106249998,88.5L145.47354325,88.5L145.55429271875,88.5L145.65951953125,88.5L145.77974193749998,88.5L145.8937290625,88.5L145.95391756249998,88.5L146.019980625,88.5L146.463561625,88.5L146.52957315625,88.5L146.57760028125,88.5L146.66571871875,88.5L147.27878600000003,88.5L147.31784668749998,88.5L147.3530940625,88.5L147.41199428125,88.5L147.80528078125,88.5L148.26107468749998,88.5L148.48137078125,88.5L148.8887253125,88.5L148.95751953125,88.5L149.10283765625,88.5L149.70266140625,88.5L149.89476990625,88.5L150.08296203125002,88.5L150.148252125,88.5L150.17458459375,88.5L150.29511618749999,88.5L150.70473809375002,88.5L150.8298044375,88.5L150.9246219375,88.5L151.04494740625,88.5L151.55387003125,88.5L151.9622551875,88.5L151.98755703125,88.5L152.30653546874998,88.5L152.55306096875,88.5L152.90821434375002,88.5L153.20369453125002,88.5L153.2497119375,88.5L153.3125800625,88.5L153.35447496875,88.5L153.482942375,88.5L153.7563671875,88.5L154.69707015625,88.5L154.82126046874998,88.5L155.02697321875002,88.5L155.0895836875,88.5L155.64071040625,88.5L155.75201790625002,88.5L155.92645118750002,88.5L155.99318415624998,88.5L156.03440915625,88.5L156.57775465625,88.5L156.65319640625,88.5L156.76275184375,88.5L156.7959895,88.5L156.8927651875,88.5L157.06153003125,88.5L157.1493908125,88.5L157.3021294375,88.5L157.38014775,88.5L157.49207362500002,88.5L157.58282015625,88.5L158.08267328125,88.5L158.333063625,88.5L158.52862471875,88.5L158.64982621875,88.5L158.8047806875,88.5L158.94587325,88.5L159.26150215625,88.5L159.28994740624998,88.5L159.51982831249998,88.5L159.65896268749998,88.5L159.81680290625002,88.5L159.92532771875,88.5L160.12382609374998,88.5L160.294136875,88.5L160.415338375,88.5L160.44795765625,88.5L160.50170475,88.5L160.56019271875,88.5L160.70535625000002,88.5L160.89689790625,88.5L161.23360309375002,88.5L161.313631125,88.5L161.44993128125,88.5L161.8675920625,88.5L162.14096534375,88.5L162.29220956249998,88.5L162.42732450000003,88.5L162.48849209375,88.5L162.59016325000002,88.5L162.77490278125,88.5L162.83261778125,88.5L162.9707730625,88.5L163.32041259375,88.5L163.452384125,88.5L163.61001821875,88.5L163.63233125,88.5L163.79326334375,88.5L164.08307509375,88.5L164.78426081249998,88.5L164.9926531875,88.5L165.07762821875,88.5L165.31796996875002,88.5L165.56217656249999,88.5L166.06352409375,88.5L166.2304338125,88.5L166.43728025000001,88.5L166.6223805,88.5L167.4603816875,88.5L168.03485206250002,88.5L168.0911241875,88.5L168.1424493125,88.5L168.28699446875,88.5L168.582010875,88.5L168.875120625,88.5L168.90846134375,88.5L168.9870465,88.5L169.03646496875,88.5L169.0887691875,88.5L169.15333784375,88.5L169.2004889375,88.5L169.57950128125,88.5L170.898855875,88.5L170.9535820625,88.5L170.99954793749998,88.5L171.33115153125,88.5L171.93839578125002,88.5L172.0320280625,88.5L172.27257593750002,88.5L172.66107003125,88.5L172.714611,88.5L172.82586696874998,88.5L172.9237248125,88.5L172.96139415624998,88.5L173.0913044375,88.5L173.9551743125,88.5L174.2852835,88.5L174.401538,88.5L174.53551925,88.5L174.97307109375,88.5L175.03068303125,88.5L175.308488,88.5L175.421238375,88.5L175.48848665625002,88.5L175.71872828124998,88.5L175.87878434375,88.5L175.94273462499999,88.5L176.17024509375003,88.5L176.26521718749999,88.5L176.38894371875,88.5L176.57528071874998,88.5L176.6218134375,88.5L177.024066375,88.5L177.32454509375,88.5L177.41864115625,88.5L177.46924484375,88.5L177.53798753125002,88.5L178.1714611875,88.5L178.61870090624998,88.5L179.08129693749999,88.5L179.87121946874998,88.5L180.17453240625,88.5L180.25141703125,88.5L180.30279368749999,88.5L180.46609621875,88.5L180.98367609375,88.5L181.24566096874997,88.5L181.50640909375,88.5L181.7473176875,88.5L181.84965875,88.5L181.967356125,88.5L182.08031262499998,88.5L182.19105328125,88.5L182.34915115625,88.5L182.40851515625002,88.5L182.55507003124998,88.5L182.63679859375,88.5L182.68915434374998,88.5L182.94258503125002,88.5L183.06497175,88.5L183.20364234375,88.5L183.25290621875,88.5L183.35009415625,88.5L183.62434346875,88.5L183.70875165624997,88.5L183.766209,88.5L183.831550625,88.5L184.15903171875001,88.5L184.2577140625,88.5L184.41947065625,88.5L184.86887468749998,88.5L185.0181091875,88.5L185.12797381250002,88.5L185.2392813125,88.5L185.33363503125,88.5L185.46802853125,88.5L185.93809659374998,88.5L186.12834996875,88.5L186.19230025000002,88.5L186.36075590625,88.5L186.791917875,88.5L187.00860678125,88.5L187.26090378125002,88.5L187.50696549999998,88.5L187.89344987500002,88.5L188.0115595,88.5L188.32940425,88.5L188.65441184375,88.5L188.8244134375,88.5L188.88243762500002,88.5L189.13612596875,88.5L189.19600528125,88.5L189.24800031249998,88.5L189.37131459375,88.5L189.54538715625,88.5L189.77439203125,88.5L189.9098676875,88.5L189.98680384374998,88.5L190.0970291875,88.5L190.31315124999998,88.5L190.852580375,88.5L191.12389240624998,88.5L191.26745846875,88.5L191.31321821875,88.5L191.618540875,88.5L191.64744990625,88.5L191.69475559375002,88.5L191.74638990625002,88.5L191.94421837500002,88.5L192.1172603125,88.5L193.30819903125,88.5L193.45758812499997,88.5L193.58389121875,88.5L193.88040203125,88.5L194.04370456249998,88.5L194.1063665625,88.5L194.2059249375,88.5L194.23978096874998,88.5L194.58555565625002,88.5L194.73247125,88.5L194.8148181875,88.5L195.26514978125,88.5L195.5756255625,88.5L195.6432345625,88.5L195.86919909374998,88.5L195.9781876875,88.5L196.09191715625,88.5L196.22491931250002,88.5L196.47438209375,88.5L196.65577209375002,88.5L196.88755965625,88.5L197.2784241875,88.5L197.3194430625,88.5L197.38602143749998,88.5L197.70134115624998,88.5L198.122609125,88.5L198.30508128125,88.5L198.41319384375,88.5L198.46596184375,88.5L198.50569243750002,88.5L198.73516109374998,88.5L198.93788503124998,88.5L199.32163825,88.5L199.68117178125,88.5L199.86879706250002,88.5L200.0885263125,88.5L200.16927578125,88.5L200.4970660625,88.5L200.68922609375,88.5L200.80043053125,88.5L200.91714881250002,88.5L201.03170278125,88.5L201.19382009375002,88.5L201.31491853125002,88.5L201.47363478124998,88.5L201.67805925,88.5L201.799673,88.5L202.03743818750002,88.5L202.28983825,88.5L202.34394606249998,88.5L202.54115615625,88.5L202.9225389375,88.5L203.36493471875,88.5L203.500410375,88.5L203.643048875,88.5L203.685098375,88.5L203.8286644375,88.5L204.10791228124998,88.5L204.35737506249998,88.5L204.41823346875,88.5L204.62250334375,88.5L204.7230408125,88.5L205.08010084375,88.5L205.12184115624999,88.5L205.24129059375,88.5L205.43412053125,88.5L205.80432103125,88.5L206.1192285,88.5L206.24192440625,88.5L206.570023875,88.5L206.98928212500002,88.5L207.0945089375,88.5L207.15356375000002,88.5L207.19308821875,88.5L207.48583725,88.5L207.538399125,88.5L207.72148965625001,88.5L207.83341553124998,88.5L207.893346375,88.5L208.00357171874998,88.5L208.28781809375,88.5L208.76051425,88.5L209.084748875,88.5L209.20713559375,88.5L209.29473871874998,88.5L209.52116703125,88.5L209.56440175,88.5L209.719613875,88.5L209.82824175,88.5L210.1766960625,88.5L210.20761481250003,88.5L210.384573125,88.5L210.5714254375,88.5L211.2126803125,88.5L211.47631418749998,88.5L211.55489934374998,88.5L211.694291375,88.5L212.18878525,88.5L212.2337205,88.5L212.5407436875,88.5L212.59686121875,88.5L212.6922455625,88.5L213.42239184375,88.5L213.5542603125,88.5L213.64155425,88.5L213.72245831249998,88.5L213.895706375,88.5L214.02448296875002,88.5L214.48259578124998,88.5L214.72304059375,88.5L214.81115903125,88.5L215.35553515625,88.5L215.38707228125,88.5L215.72985815625,88.5L216.13540909375,88.5L217.40905546874998,88.5L217.47109909375,88.5L217.5815305625,88.5L217.71844909375,88.5L217.84851396875,88.5L219.09021096875,88.5L219.23831178125,88.5L219.43701628125,88.5L219.48112703125,88.5L219.52946334375,88.5L219.65932209375,88.5L219.86065468750002,88.5L220.02895575,88.5L220.15999971875002,88.5L220.249715625,88.5L220.53040634375,88.5L220.68355721875,88.5L220.711435625,88.5L220.864380375,88.5L221.14213381250002,88.5L221.6125110625,88.5L221.87027037500002,88.5L221.9594194375,88.5L222.06974784375,88.5L222.11009681250002,88.5L222.41382199999998,88.5L222.67147824999998,88.5L222.77789028125,88.5L222.92459975,88.5L223.06625915625,88.5L223.5350389375,88.5L223.65989915625002,88.5L223.71194571875,88.5L223.94558840625,88.5L224.21138659374998,88.5L224.3341855625,88.5L224.79188612500002,88.5L224.90623396875,88.5L225.02877528125,88.5L225.66013615625,88.5L225.84430884375,88.5L225.9665925,88.5L226.48412084375002,88.5L226.762853375,88.5L227.1129566875,88.5L227.268684125,88.5L227.3429921875,88.5L227.677636125,88.5L227.9698183125,88.5L228.3051836875,88.5L228.36202265625,88.5L228.40551503125,88.5L228.532230375,88.5L228.6782699375,88.5L228.75778265625,88.5L229.12458209374998,88.5L229.34498125000002,88.5L229.40888,88.5L229.713738875,88.5L229.76717678125,88.5L229.81685290624998,88.5L230.14943559374998,88.5L230.2077174375,88.5L230.4470285625,88.5L231.04138999999998,88.5L231.38695856249998,88.5L231.5819528125,88.5L231.692538875,88.5L231.81544090625,88.5L231.86403487500002,88.5" style="fill: none;" fill="none"></path></g><g><path stroke="rgb(255, 112, 67)" stroke-width="2px" d="M26.293305,88.5L26.504377,88.5L26.609913,88.5L27.032057000000002,88.5L27.137593,88.5L27.348665,88.5L27.454201,88.5L27.559737,88.5L27.665273000000003,88.5L27.770809,88.5L27.876345,88.5L27.981881,88.5L28.087417000000002,88.5L28.509561,88.5L28.615097,88.5L29.459384999999997,88.5L29.564921000000002,88.5L29.775993,88.5L30.092601,88.5L30.198137,88.5L30.409209,88.5L30.514744999999998,88.5L30.620281000000002,88.5L30.725817,88.5L30.936888999999997,88.5L31.147961,88.5L31.253497,88.5L31.570104999999998,88.5L31.675641,88.5L31.781177,88.5L31.886713,88.5L31.992248999999997,88.5L32.308857,88.5L32.414393,88.5L32.625465,88.5L32.836537,88.5L32.942073,88.5L33.047609,88.5L33.153145,88.5L33.469753000000004,88.5L33.575289,88.5L33.680825,88.5L33.78636100000001,88.5L33.997433,88.5L34.208505,88.5L34.314041,88.5L34.841721,88.5L34.947257,88.5L35.052793,88.5L35.158329,88.5L35.263865,88.5L35.369400999999996,88.5L35.897081,88.5L36.846905,88.5L37.057976999999994,88.5L37.163513,88.5L37.269049,88.5L38.007801,88.5L38.324408999999996,88.5L38.535481,88.5L38.641017,88.5L38.746553000000006,88.5L39.168697,88.5L39.274233,88.5L39.379769,88.5L39.696377,88.5L39.801913,88.5L40.118521,88.5L40.540665000000004,88.5L40.751737,88.5L40.962809,88.5L41.068345,88.5L41.173880999999994,88.5L41.279417,88.5L41.384953,88.5L41.490489,88.5L41.701561000000005,88.5L41.912633,88.5L42.229241,88.5L42.334776999999995,88.5L42.440312999999996,88.5L42.651385,88.5L42.756921,88.5L42.862457,88.5L43.073529,88.5L43.179065,88.5L43.390137,88.5L43.495673000000004,88.5L43.706745,88.5L43.812281,88.5L44.128888999999994,88.5L44.551033000000004,88.5L44.656569000000005,88.5L44.762105,88.5L44.867641,88.5L45.078713,88.5L45.184249,88.5L45.395321,88.5L45.606393,88.5L45.711929,88.5L45.817465000000006,88.5L45.923001,88.5L46.134073,88.5L46.239609,88.5L47.083897,88.5L47.506041,88.5L47.928185,88.5L48.033721,88.5L48.139257,88.5L48.561401,88.5L48.666937,88.5L48.772473000000005,88.5L48.878009,88.5L49.194617,88.5L49.300153,88.5L49.616761000000004,88.5L49.722297,88.5L49.933369,88.5L50.038905,88.5L50.144441,88.5L50.355513,88.5L50.461049,88.5L50.566585,88.5L50.672121,88.5L50.777657000000005,88.5L50.883193,88.5L51.199801,88.5L51.305337,88.5L51.516408999999996,88.5L51.938553,88.5L52.044089,88.5L52.255161,88.5L52.466233,88.5L52.571769,88.5L53.099449,88.5L53.416057,88.5L53.521592999999996,88.5L53.627129,88.5L53.732665000000004,88.5L53.943737,88.5L54.365881,88.5L54.576953,88.5L54.788025,88.5L54.893561,88.5L54.999097,88.5L55.421241,88.5L55.526777,88.5L55.737849,88.5L55.948921,88.5L56.15999299999999,88.5L56.687673000000004,88.5L57.004281000000006,88.5L57.109817,88.5L57.426425,88.5L57.637496999999996,88.5L57.743033,88.5L57.848569000000005,88.5L58.059641,88.5L58.165177,88.5L58.270713,88.5L58.692857000000004,88.5L58.798393000000004,88.5L59.009465,88.5L59.326073,88.5L59.748217,88.5L59.853753,88.5L59.959289000000005,88.5L60.064825,88.5L60.275897,88.5L60.592504999999996,88.5L60.698040999999996,88.5L60.803577000000004,88.5L61.120185,88.5L61.225721,88.5L61.436793,88.5L62.070009,88.5L62.281081,88.5L62.386617,88.5L62.492153,88.5L62.597689,88.5L62.703224999999996,88.5L62.914297000000005,88.5L63.019833,88.5L63.547512999999995,88.5L63.653049,88.5L63.864121,88.5L64.075193,88.5L64.180729,88.5L64.286265,88.5L64.497337,88.5L64.60287299999999,88.5L64.708409,88.5L64.813945,88.5L65.025017,88.5L65.130553,88.5L65.341625,88.5L65.447161,88.5L65.65823300000001,88.5L65.869305,88.5L66.080377,88.5L66.185913,88.5L66.291449,88.5L66.502521,88.5L66.608057,88.5L66.92466499999999,88.5L67.03020099999999,88.5L67.13573699999999,88.5L67.34680900000001,88.5L67.557881,88.5L67.663417,88.5L67.768953,88.5L67.874489,88.5L68.402169,88.5L68.824313,88.5L68.929849,88.5L69.140921,88.5L69.457529,88.5L70.196281,88.5L70.301817,88.5L70.723961,88.5L70.829497,88.5L70.935033,88.5L71.14610499999999,88.5L71.35717700000001,88.5L71.56824900000001,88.5L71.779321,88.5L72.729145,88.5L72.83468099999999,88.5L72.94021699999999,88.5L73.045753,88.5L73.256825,88.5L73.362361,88.5L73.678969,88.5L73.995577,88.5L74.312185,88.5L74.628793,88.5L74.734329,88.5L74.839865,88.5L74.945401,88.5L75.050937,88.5L75.26200899999999,88.5L75.36754499999999,88.5L75.47308100000001,88.5L75.68415300000001,88.5L75.789689,88.5L75.895225,88.5L76.106297,88.5L76.317369,88.5L76.422905,88.5L76.845049,88.5L77.267193,88.5L77.689337,88.5L77.794873,88.5L78.00594500000001,88.5L78.111481,88.5L78.322553,88.5L78.533625,88.5L78.850233,88.5L79.58898500000001,88.5L79.905593,88.5L80.011129,88.5L80.327737,88.5L80.433273,88.5L80.538809,88.5L80.749881,88.5L80.855417,88.5L80.960953,88.5L81.06648899999999,88.5L81.277561,88.5L81.805241,88.5L81.910777,88.5L82.543993,88.5L82.755065,88.5L82.86060099999999,88.5L82.966137,88.5L83.071673,88.5L83.177209,88.5L83.282745,88.5L83.38828099999999,88.5L83.49381699999999,88.5L83.599353,88.5L83.704889,88.5L83.91596100000001,88.5L84.232569,88.5L84.338105,88.5L84.443641,88.5L84.654713,88.5L84.760249,88.5L85.076857,88.5L85.28792899999999,88.5L85.499001,88.5L85.60453700000001,88.5L85.921145,88.5L86.026681,88.5L86.132217,88.5L86.343289,88.5L86.448825,88.5L86.554361,88.5L86.765433,88.5L86.97650499999999,88.5L87.082041,88.5L87.398649,88.5L87.50418499999999,88.5L87.609721,88.5L87.715257,88.5L87.820793,88.5L88.03186500000001,88.5L88.137401,88.5L88.242937,88.5L88.454009,88.5L88.559545,88.5L88.981689,88.5L89.087225,88.5L89.192761,88.5L89.40383299999999,88.5L89.50936899999999,88.5L89.61490500000001,88.5L89.72044100000001,88.5L89.931513,88.5L90.142585,88.5L90.248121,88.5L90.353657,88.5L90.564729,88.5L90.775801,88.5L90.986873,88.5L91.09240899999999,88.5L91.19794499999999,88.5L91.514553,88.5L91.936697,88.5L92.04223300000001,88.5L92.253305,88.5L92.358841,88.5L92.569913,88.5L92.992057,88.5L93.097593,88.5L93.308665,88.5L93.51973699999999,88.5L93.94188100000001,88.5L94.258489,88.5L94.364025,88.5L94.575097,88.5L94.680633,88.5L94.786169,88.5L94.891705,88.5L94.997241,88.5L95.102777,88.5L95.20831299999999,88.5L95.31384899999999,88.5L95.419385,88.5L95.841529,88.5L95.947065,88.5L96.158137,88.5L96.369209,88.5L96.685817,88.5L96.896889,88.5L97.00242499999999,88.5L97.107961,88.5L97.424569,88.5L97.53010499999999,88.5L97.63564099999999,88.5L97.741177,88.5L97.84671300000001,88.5L98.05778500000001,88.5L98.163321,88.5L98.374393,88.5L98.585465,88.5L98.691001,88.5L98.796537,88.5L98.902073,88.5L99.007609,88.5L99.113145,88.5L99.32421699999999,88.5L99.42975299999999,88.5L99.74636100000001,88.5L100.168505,88.5L100.485113,88.5L100.590649,88.5L100.696185,88.5L100.801721,88.5L100.907257,88.5L101.012793,88.5L101.11832899999999,88.5L101.223865,88.5L101.434937,88.5L101.540473,88.5L101.64600899999999,88.5L102.06815300000001,88.5L102.490297,88.5L102.595833,88.5L102.80690499999999,88.5L102.912441,88.5L103.017977,88.5L103.123513,88.5L103.229049,88.5L103.334585,88.5L103.651193,88.5L103.756729,88.5L103.86226500000001,88.5L104.389945,88.5L104.601017,88.5L104.706553,88.5L104.812089,88.5L104.917625,88.5L105.128697,88.5L105.445305,88.5L105.550841,88.5L105.867449,88.5L105.972985,88.5L106.078521,88.5L106.18405700000001,88.5L106.28959300000001,88.5L106.500665,88.5L106.817273,88.5L106.92280899999999,88.5L107.133881,88.5L107.450489,88.5L107.55602499999999,88.5L107.66156099999999,88.5L107.87263300000001,88.5L107.97816900000001,88.5L108.08370500000001,88.5L108.189241,88.5L108.294777,88.5L108.400313,88.5L108.505849,88.5L108.716921,88.5L109.033529,88.5L109.139065,88.5L109.561209,88.5L109.666745,88.5L109.877817,88.5L110.088889,88.5L110.29996100000001,88.5L110.40549700000001,88.5L110.511033,88.5L110.616569,88.5L110.722105,88.5L110.827641,88.5L111.03871299999999,88.5L111.249785,88.5L111.460857,88.5L111.77746499999999,88.5L111.883001,88.5L111.98853700000001,88.5L112.09407300000001,88.5L112.19960900000001,88.5L112.410681,88.5L112.516217,88.5L112.621753,88.5L112.832825,88.5L112.938361,88.5L113.149433,88.5L113.46604099999999,88.5L113.677113,88.5L113.782649,88.5L113.88818500000001,88.5L114.204793,88.5L114.52140100000001,88.5L114.626937,88.5L114.838009,88.5L115.049081,88.5L115.260153,88.5L115.365689,88.5L115.78783299999999,88.5L115.998905,88.5L116.10444100000001,88.5L116.20997700000001,88.5L116.31551300000001,88.5L116.526585,88.5L116.632121,88.5L116.737657,88.5L116.843193,88.5L117.265337,88.5L117.476409,88.5L117.58194499999999,88.5L117.68748099999999,88.5L117.793017,88.5L117.898553,88.5L118.320697,88.5L118.426233,88.5L118.531769,88.5L118.63730500000001,88.5L119.059449,88.5L119.164985,88.5L119.27052099999999,88.5L119.37605699999999,88.5L119.481593,88.5L119.692665,88.5L119.798201,88.5L119.90373699999999,88.5L120.009273,88.5L120.220345,88.5L120.536953,88.5L120.748025,88.5L120.853561,88.5L121.064633,88.5L121.170169,88.5L121.275705,88.5L121.486777,88.5L121.592313,88.5L121.80338499999999,88.5L121.908921,88.5L122.436601,88.5L122.647673,88.5L122.75320900000001,88.5L122.858745,88.5L122.964281,88.5L123.069817,88.5L123.175353,88.5L123.280889,88.5L123.49196099999999,88.5L123.597497,88.5L123.703033,88.5L124.019641,88.5L124.125177,88.5L124.230713,88.5L124.336249,88.5L124.54732100000001,88.5L125.18053699999999,88.5L125.286073,88.5L125.391609,88.5L125.602681,88.5L126.02482499999999,88.5L126.341433,88.5L126.658041,88.5L126.974649,88.5L127.080185,88.5L127.291257,88.5L127.396793,88.5L127.502329,88.5L127.60786499999999,88.5L127.818937,88.5L127.924473,88.5L128.030009,88.5L128.135545,88.5L128.241081,88.5L128.346617,88.5L128.452153,88.5L128.557689,88.5L128.663225,88.5L128.874297,88.5L128.97983299999999,88.5L129.190905,88.5L129.507513,88.5L129.613049,88.5L129.82412100000002,88.5L130.03519300000002,88.5L130.14072900000002,88.5L130.246265,88.5L130.351801,88.5L130.668409,88.5L130.773945,88.5L130.879481,88.5L130.985017,88.5L131.196089,88.5L131.301625,88.5L132.145913,88.5L132.462521,88.5L132.56805699999998,88.5L132.77912899999998,88.5L132.88466499999998,88.5L132.99020099999998,88.5L133.095737,88.5L133.41234500000002,88.5L133.51788100000002,88.5L133.728953,88.5L133.834489,88.5L133.940025,88.5L134.045561,88.5L134.362169,88.5L135.206457,88.5L135.311993,88.5L135.417529,88.5L135.628601,88.5L135.839673,88.5L135.945209,88.5L136.05074499999998,88.5L136.26181699999998,88.5L136.36735299999998,88.5L136.472889,88.5L136.578425,88.5L136.683961,88.5L137.000569,88.5L137.106105,88.5L137.21164100000001,88.5L137.739321,88.5L137.950393,88.5L138.05592900000002,88.5L138.26700100000002,88.5L138.37253700000002,88.5L138.583609,88.5L139.216825,88.5L139.322361,88.5L139.533433,88.5L139.744505,88.5L139.850041,88.5L140.272185,88.5L140.377721,88.5L140.483257,88.5L140.588793,88.5L140.694329,88.5L140.90540099999998,88.5L141.11647299999998,88.5L141.22200899999999,88.5L141.327545,88.5L141.43308100000002,88.5L141.53861700000002,88.5L141.64415300000002,88.5L141.74968900000002,88.5L142.171833,88.5L142.382905,88.5L142.488441,88.5L143.016121,88.5L143.121657,88.5L143.332729,88.5L143.543801,88.5L143.649337,88.5L143.754873,88.5L143.965945,88.5L144.28255299999998,88.5L144.38808899999998,88.5L144.704697,88.5L144.915769,88.5L145.232377,88.5L145.548985,88.5L145.654521,88.5L145.865593,88.5L145.971129,88.5L146.076665,88.5L146.182201,88.5L146.287737,88.5L146.39327300000002,88.5L146.49880900000002,88.5L146.709881,88.5L146.815417,88.5L146.920953,88.5L147.237561,88.5L147.343097,88.5L147.554169,88.5L148.398457,88.5L148.503993,88.5L148.609529,88.5L148.715065,88.5L148.820601,88.5L149.03167299999998,88.5L149.13720899999998,88.5L149.24274499999999,88.5L149.348281,88.5L149.559353,88.5L149.66488900000002,88.5L149.77042500000002,88.5L150.08703300000002,88.5L150.192569,88.5L150.403641,88.5L151.459001,88.5L151.775609,88.5L151.881145,88.5L151.986681,88.5L152.092217,88.5L152.303289,88.5L152.408825,88.5L152.51436099999998,88.5L152.72543299999998,88.5L153.042041,88.5L153.147577,88.5L153.253113,88.5L153.358649,88.5L153.46418500000001,88.5L153.56972100000002,88.5L153.67525700000002,88.5L153.780793,88.5L153.991865,88.5L154.202937,88.5L154.308473,88.5L154.519545,88.5L154.73061700000002,88.5L154.941689,88.5L155.047225,88.5L155.152761,88.5L155.258297,88.5L155.363833,88.5L155.469369,88.5L155.891513,88.5L156.419193,88.5L156.524729,88.5L156.735801,88.5L156.841337,88.5L156.946873,88.5L157.26348099999998,88.5L157.36901699999999,88.5L157.474553,88.5L157.685625,88.5L157.896697,88.5L158.00223300000002,88.5L158.31884100000002,88.5L158.529913,88.5L158.740985,88.5L158.846521,88.5L159.057593,88.5L159.163129,88.5L159.479737,88.5L159.58527299999997,88.5L159.690809,88.5L159.901881,88.5L160.007417,88.5L160.112953,88.5L160.429561,88.5L160.535097,88.5L160.640633,88.5L160.746169,88.5L160.85170499999998,88.5L160.95724099999998,88.5L161.16831299999998,88.5L161.484921,88.5L161.59045700000001,88.5L161.80152900000002,88.5L162.223673,88.5L162.329209,88.5L162.540281,88.5L162.645817,88.5L162.96242500000002,88.5L163.173497,88.5L163.384569,88.5L163.595641,88.5L163.701177,88.5L163.806713,88.5L163.912249,88.5L164.123321,88.5L164.43992899999998,88.5L164.54546499999998,88.5L164.756537,88.5L164.862073,88.5L164.967609,88.5L165.178681,88.5L165.600825,88.5L165.811897,88.5L165.917433,88.5L166.128505,88.5L166.234041,88.5L166.33957700000002,88.5L166.44511300000002,88.5L166.55064900000002,88.5L166.656185,88.5L167.078329,88.5L167.183865,88.5L167.289401,88.5L167.394937,88.5L167.500473,88.5L167.711545,88.5L167.922617,88.5L168.028153,88.5L168.133689,88.5L168.239225,88.5L168.344761,88.5L168.450297,88.5L168.766905,88.5L169.08351299999998,88.5L169.29458499999998,88.5L169.50565699999999,88.5L169.61119300000001,88.5L169.71672900000002,88.5L169.82226500000002,88.5L169.92780100000002,88.5L170.349945,88.5L170.877625,88.5L171.088697,88.5L171.194233,88.5L171.29976900000003,88.5L171.510841,88.5L171.616377,88.5L171.721913,88.5L172.038521,88.5L172.355129,88.5L172.460665,88.5L172.56620099999998,88.5L172.77727299999998,88.5L172.88280899999998,88.5L172.988345,88.5L173.199417,88.5L173.304953,88.5L173.516025,88.5L173.621561,88.5L173.727097,88.5L173.832633,88.5L173.938169,88.5L174.043705,88.5L174.254777,88.5L174.360313,88.5L174.67692100000002,88.5L175.204601,88.5L175.626745,88.5L176.471033,88.5L176.576569,88.5L176.682105,88.5L176.787641,88.5L176.893177,88.5L177.209785,88.5L177.31532099999998,88.5L177.52639299999998,88.5L177.63192899999999,88.5L177.843001,88.5L177.94853700000002,88.5L178.05407300000002,88.5L178.15960900000002,88.5L178.37068100000002,88.5L178.581753,88.5L178.687289,88.5L178.792825,88.5L179.003897,88.5L179.109433,88.5L179.214969,88.5L179.426041,88.5L179.637113,88.5L180.270329,88.5L180.481401,88.5L180.90354499999998,88.5L181.11461699999998,88.5L181.220153,88.5L181.642297,88.5L182.169977,88.5L182.275513,88.5L182.697657,88.5L183.01426500000002,88.5L183.119801,88.5L183.436409,88.5L183.541945,88.5L183.753017,88.5L183.858553,88.5L183.964089,88.5L184.069625,88.5L184.280697,88.5L184.38623299999998,88.5L184.702841,88.5L184.808377,88.5L184.913913,88.5L185.019449,88.5L185.124985,88.5L185.54712899999998,88.5L185.863737,88.5L185.969273,88.5L186.074809,88.5L186.18034500000002,88.5L186.39141700000002,88.5L186.49695300000002,88.5L186.60248900000002,88.5L186.708025,88.5L186.813561,88.5L186.919097,88.5L187.024633,88.5L187.130169,88.5L187.235705,88.5L187.552313,88.5L187.763385,88.5L188.291065,88.5L188.396601,88.5L188.502137,88.5L188.713209,88.5L189.13535299999998,88.5L189.45196099999998,88.5L189.663033,88.5L190.08517700000002,88.5L190.190713,88.5L190.296249,88.5L190.401785,88.5L190.718393,88.5L190.929465,88.5L191.035001,88.5L191.14053700000002,88.5L191.24607300000002,88.5L191.457145,88.5L191.668217,88.5L191.773753,88.5L192.090361,88.5L192.195897,88.5L192.406969,88.5L192.512505,88.5L192.61804099999998,88.5L193.145721,88.5L193.251257,88.5L193.356793,88.5L194.201081,88.5L194.306617,88.5L194.412153,88.5L194.62322500000002,88.5L194.72876100000002,88.5L194.83429700000002,88.5L194.939833,88.5L195.045369,88.5L195.150905,88.5L195.256441,88.5L195.467513,88.5L195.678585,88.5L195.784121,88.5L195.889657,88.5L196.10072899999997,88.5L196.206265,88.5L196.417337,88.5L196.628409,88.5L196.733945,88.5L196.945017,88.5L197.050553,88.5L197.47269699999998,88.5L197.57823299999998,88.5L197.68376899999998,88.5L197.789305,88.5L197.894841,88.5L198.00037700000001,88.5L198.10591300000002,88.5L198.31698500000002,88.5L198.422521,88.5L198.528057,88.5L198.633593,88.5L199.055737,88.5L199.266809,88.5L199.372345,88.5L199.47788100000002,88.5L199.688953,88.5L199.900025,88.5L200.111097,88.5L200.322169,88.5L200.427705,88.5L200.533241,88.5L200.744313,88.5L200.84984899999998,88.5L200.95538499999998,88.5L201.06092099999998,88.5L201.166457,88.5L201.271993,88.5L201.377529,88.5L201.483065,88.5L201.588601,88.5L202.010745,88.5L202.116281,88.5L202.327353,88.5L202.432889,88.5L202.74949700000002,88.5L202.85503300000002,88.5L202.96056900000002,88.5L203.06610500000002,88.5L203.171641,88.5L203.382713,88.5L203.804857,88.5L204.015929,88.5L204.121465,88.5L204.227001,88.5L204.543609,88.5L204.649145,88.5L204.860217,88.5L204.965753,88.5L205.071289,88.5L205.282361,88.5L205.387897,88.5L205.49343299999998,88.5L205.59896899999998,88.5L205.81004099999998,88.5L206.02111299999999,88.5L206.23218500000002,88.5L206.33772100000002,88.5L206.54879300000002,88.5L206.654329,88.5L206.759865,88.5L206.865401,88.5L207.076473,88.5L207.393081,88.5L207.498617,88.5L207.604153,88.5L207.709689,88.5L207.81522500000003,88.5L208.026297,88.5L208.131833,88.5L208.237369,88.5L208.342905,88.5L208.448441,88.5L208.553977,88.5L208.659513,88.5L208.765049,88.5L208.976121,88.5L209.08165699999998,88.5L209.18719299999998,88.5L209.609337,88.5L209.925945,88.5L210.031481,88.5L210.13701700000001,88.5L210.453625,88.5L210.559161,88.5L210.664697,88.5L210.770233,88.5L210.875769,88.5L211.08684100000002,88.5L211.19237700000002,88.5L211.29791300000002,88.5L211.614521,88.5L211.720057,88.5L211.931129,88.5L212.142201,88.5L212.247737,88.5L212.56434499999997,88.5L212.775417,88.5L212.880953,88.5L212.986489,88.5" style="fill: none;" fill="none"></path></g></g></g></g></g></g><g transform="translate(72, 177)" clip-path="url(#clip_1)"><clipPath id="clip_1"><rect width="257" height="23"></rect></clipPath><g><g><line x1="0" y1="0" x2="0" y2="5" style="visibility: inherit;" fill="rgb(0, 0, 0)" stroke="rgb(204, 204, 204)" stroke-width="1px"></line><line x1="25.765625" y1="0" x2="25.765625" y2="5" style="visibility: inherit;" fill="rgb(0, 0, 0)" stroke="rgb(204, 204, 204)" stroke-width="1px"></line><line x1="51.53125" y1="0" x2="51.53125" y2="5" style="visibility: inherit;" fill="rgb(0, 0, 0)" stroke="rgb(204, 204, 204)" stroke-width="1px"></line><line x1="77.296875" y1="0" x2="77.296875" y2="5" style="visibility: inherit;" fill="rgb(0, 0, 0)" stroke="rgb(204, 204, 204)" stroke-width="1px"></line><line x1="103.0625" y1="0" x2="103.0625" y2="5" style="visibility: inherit;" fill="rgb(0, 0, 0)" stroke="rgb(204, 204, 204)" stroke-width="1px"></line><line x1="128.828125" y1="0" x2="128.828125" y2="5" style="visibility: inherit;" fill="rgb(0, 0, 0)" stroke="rgb(204, 204, 204)" stroke-width="1px"></line><line x1="154.59375" y1="0" x2="154.59375" y2="5" style="visibility: inherit;" fill="rgb(0, 0, 0)" stroke="rgb(204, 204, 204)" stroke-width="1px"></line><line x1="180.359375" y1="0" x2="180.359375" y2="5" style="visibility: inherit;" fill="rgb(0, 0, 0)" stroke="rgb(204, 204, 204)" stroke-width="1px"></line><line x1="206.125" y1="0" x2="206.125" y2="5" style="visibility: inherit;" fill="rgb(0, 0, 0)" stroke="rgb(204, 204, 204)" stroke-width="1px"></line><line x1="231.890625" y1="0" x2="231.890625" y2="5" style="visibility: inherit;" fill="rgb(0, 0, 0)" stroke="rgb(204, 204, 204)" stroke-width="1px"></line><line x1="257.65625" y1="0" x2="257.65625" y2="5" style="visibility: inherit;" fill="rgb(0, 0, 0)" stroke="rgb(204, 204, 204)" stroke-width="1px"></line></g><g transform="translate(0, 8)"><text x="0" y="0" dx="0em" dy="0.95em" style="text-anchor: middle; visibility: hidden; font-family: Roboto, sans-serif; font-size: 12px; font-weight: 200;" fill="rgb(33, 33, 33)" stroke="none" stroke-width="1px">-500k</text><text x="25.765625" y="0" dx="0em" dy="0.95em" style="text-anchor: middle; visibility: inherit; font-family: Roboto, sans-serif; font-size: 12px; font-weight: 200;" fill="rgb(33, 33, 33)" stroke="none" stroke-width="1px">0</text><text x="51.53125" y="0" dx="0em" dy="0.95em" style="text-anchor: middle; visibility: hidden; font-family: Roboto, sans-serif; font-size: 12px; font-weight: 200;" fill="rgb(33, 33, 33)" stroke="none" stroke-width="1px">500k</text><text x="77.296875" y="0" dx="0em" dy="0.95em" style="text-anchor: middle; visibility: inherit; font-family: Roboto, sans-serif; font-size: 12px; font-weight: 200;" fill="rgb(33, 33, 33)" stroke="none" stroke-width="1px">1M</text><text x="103.0625" y="0" dx="0em" dy="0.95em" style="text-anchor: middle; visibility: hidden; font-family: Roboto, sans-serif; font-size: 12px; font-weight: 200;" fill="rgb(33, 33, 33)" stroke="none" stroke-width="1px">1.5M</text><text x="128.828125" y="0" dx="0em" dy="0.95em" style="text-anchor: middle; visibility: inherit; font-family: Roboto, sans-serif; font-size: 12px; font-weight: 200;" fill="rgb(33, 33, 33)" stroke="none" stroke-width="1px">2M</text><text x="154.59375" y="0" dx="0em" dy="0.95em" style="text-anchor: middle; visibility: hidden; font-family: Roboto, sans-serif; font-size: 12px; font-weight: 200;" fill="rgb(33, 33, 33)" stroke="none" stroke-width="1px">2.5M</text><text x="180.359375" y="0" dx="0em" dy="0.95em" style="text-anchor: middle; visibility: inherit; font-family: Roboto, sans-serif; font-size: 12px; font-weight: 200;" fill="rgb(33, 33, 33)" stroke="none" stroke-width="1px">3M</text><text x="206.125" y="0" dx="0em" dy="0.95em" style="text-anchor: middle; visibility: hidden; font-family: Roboto, sans-serif; font-size: 12px; font-weight: 200;" fill="rgb(33, 33, 33)" stroke="none" stroke-width="1px">3.5M</text><text x="231.890625" y="0" dx="0em" dy="0.95em" style="text-anchor: middle; visibility: inherit; font-family: Roboto, sans-serif; font-size: 12px; font-weight: 200;" fill="rgb(33, 33, 33)" stroke="none" stroke-width="1px">4M</text><text x="257.65625" y="0" dx="0em" dy="0.95em" style="text-anchor: middle; visibility: hidden; font-family: Roboto, sans-serif; font-size: 12px; font-weight: 200;" fill="rgb(33, 33, 33)" stroke="none" stroke-width="1px">4.5M</text></g><line x1="0" y1="0" x2="257.65625" y2="0" fill="rgb(0, 0, 0)" stroke="rgb(204, 204, 204)" stroke-width="1px"></line></g></g></g></g></svg>